<?xml version="1.0" encoding="utf-8"?>
<!-- Generator: Adobe Illustrator 16.0.0, SVG Export Plug-In . SVG Version: 6.00 Build 0)  -->
<!DOCTYPE svg PUBLIC "-//W3C//DTD SVG 1.1//EN" "http://www.w3.org/Graphics/SVG/1.1/DTD/svg11.dtd">
<svg version="1.1" id="Capa_1" xmlns="http://www.w3.org/2000/svg" xmlns:xlink="http://www.w3.org/1999/xlink" x="0px" y="0px"
	 width="512px" height="512px" viewBox="0 0 512 512" enable-background="new 0 0 512 512" xml:space="preserve">
<g>
	<g>
		<rect x="452" y="38.5" fill="#6F6F6F" width="30" height="105"/>
	</g>
</g>
<g>
	<g>
		<rect x="452" y="173.5" fill="#6F6F6F" width="30" height="105"/>
	</g>
</g>
<g>
	<g>
		<path fill="#6F6F6F" d="M75,0C50.187,0,30,20.187,30,45v452c0-24.813,20.187-45,45-45h15V0H75z"/>
	</g>
</g>
<g>
	<g>
		<path fill="#6F6F6F" d="M75,482c-8.271,0-15,6.729-15,15s6.729,15,15,15h317v-30H75z"/>
	</g>
</g>
<path fill="#6F6F6F" d="M120,0v452h302V0H120z M365.37,138.195v50.872l-24.623-20.889l-0.103-29.983H365.37z M351.438,334.912
	c-8.407,0-61.926,0-61.926,0l0.111-51.671c0,0,0.604-8.546-9.205-8.546h-26.248c-8.295,0-7.403,8.546-7.403,8.546l-0.093,51.837
	c0,0-56.445,0.075-63.263,0.075c-5.48,0-5.257-5.61-5.257-5.61V232.36l92.651-77.632l87.273,77.632v95.567
	C358.079,327.927,358.395,334.912,351.438,334.912z M367.702,224.595l-96.126-86.195l-102.523,86.733
	c-17.156,14.499-25.023,0-25.023,0l127.547-112.342L395,224.595C395,224.595,387.561,238.917,367.702,224.595z"/>
</svg>
