<?xml version="1.0" encoding="iso-8859-1"?>
<!-- Generator: Adobe Illustrator 19.0.0, SVG Export Plug-In . SVG Version: 6.00 Build 0)  -->
<svg xmlns="http://www.w3.org/2000/svg" xmlns:xlink="http://www.w3.org/1999/xlink" version="1.1" id="Layer_1" x="0px" y="0px" viewBox="0 0 296.999 296.999" style="enable-background:new 0 0 296.999 296.999;" xml:space="preserve" width="512px" height="512px">
<g>
	<g>
		<g>
			<path d="M205.925,62.645h46.43c6.879,0,10.529-8.127,5.959-13.269l-7.549-8.493c-2.685-3.021-2.685-7.572,0-10.593l7.549-8.493     c4.57-5.141,0.92-13.269-5.959-13.269h-46.43c-4.403,0-7.972,3.569-7.972,7.972v38.172     C197.953,59.076,201.522,62.645,205.925,62.645z" fill="#6f6f6f"/>
			<path d="M71.459,231.822c-11.537-0.974-19.83-6.372-25.294-11.681c-2.255-2.191-4.139-4.482-5.708-6.675l-39.054,65.09     c-1.826,3.044-1.872,6.707-0.123,9.796s4.913,4.934,8.463,4.934h35.834c-3.274-7.248-2.757-15.449,1.516-22.314L71.459,231.822z" fill="#6f6f6f"/>
			<path d="M295.511,278.421l-55.977-89.936c-2.259,3.724-5.392,8.05-9.551,12.091c-7.183,6.978-18.463,14.106-34.555,14.106     c-5.269,0-11.053-0.764-17.381-2.548l-2.498-0.705c-39.434-11.123-46.343-13.063-74.4-0.636l-42.09,67.628     c-1.895,3.042-1.986,6.728-0.246,9.862c1.74,3.133,4.918,5.003,8.502,5.003h219.939c3.584,0,6.762-1.87,8.502-5.003     C297.496,285.149,297.405,281.463,295.511,278.421z" fill="#6f6f6f"/>
			<path d="M113.421,191.078c20.414-6.046,33.65-2.327,65.955,6.787l2.496,0.704c35.076,9.885,47.576-20.278,48.981-24.03     l-45.313-72.802c-1.814-2.915-4.824-4.587-8.256-4.587c-3.433,0-6.443,1.672-8.258,4.587h0.001L113.421,191.078z" fill="#6f6f6f"/>
			<path d="M184.836,84.269V11.264c0-4.171-3.38-7.551-7.551-7.551c-4.171,0-7.551,3.38-7.551,7.551v73.005     c2.394-0.794,4.936-1.214,7.551-1.214C179.9,83.054,182.442,83.475,184.836,84.269z" fill="#6f6f6f"/>
			<path d="M80.393,217.467l35.534-57.092l-13.468-22.447c-1.8-3.001-4.839-4.721-8.339-4.721s-6.539,1.721-8.341,4.721     L48.638,199.83c1.303,2.623,3.777,6.833,7.679,10.517C62.826,216.494,70.91,218.868,80.393,217.467z" fill="#6f6f6f"/>
		</g>
	</g>
</g>
<g>
</g>
<g>
</g>
<g>
</g>
<g>
</g>
<g>
</g>
<g>
</g>
<g>
</g>
<g>
</g>
<g>
</g>
<g>
</g>
<g>
</g>
<g>
</g>
<g>
</g>
<g>
</g>
<g>
</g>
</svg>
