<?xml version="1.0" encoding="utf-8"?>
<!-- Generator: Adobe Illustrator 16.0.0, SVG Export Plug-In . SVG Version: 6.00 Build 0)  -->
<!DOCTYPE svg PUBLIC "-//W3C//DTD SVG 1.1//EN" "http://www.w3.org/Graphics/SVG/1.1/DTD/svg11.dtd">
<svg version="1.1" id="Capa_1" xmlns="http://www.w3.org/2000/svg" xmlns:xlink="http://www.w3.org/1999/xlink" x="0px" y="0px"
	 width="512px" height="512px" viewBox="0 0 512 512" enable-background="new 0 0 512 512" xml:space="preserve">
<g>
	<g>
		<path fill="#6F6F6F" d="M403.951,393.165c-12.645,0-22.934,10.295-22.934,22.939v18.424c-0.184,0-0.543,0-0.723,0l0,0
			l-203.374-0.358c0.542-1.085,0.901-1.991,1.444-3.071c1.628-4.152-0.363-9.035-4.515-10.658s-9.03,0.363-10.658,4.515
			c-1.265,3.072-2.708,6.144-4.515,9.215H73.246l66.105-78.934c3.251,2.35,7.224,5.779,11.38,10.115
			c1.627,1.807,3.793,2.529,5.959,2.529c1.986,0,3.973-0.723,5.6-2.17c3.251-3.067,3.435-8.313,0.363-11.564
			c-4.515-4.879-9.03-8.672-12.824-11.56L378.492,82.134l9.215,9.21c4.506,4.511,10.295,6.686,16.074,6.686
			s11.738-2.17,16.074-6.686c8.852-8.856,8.852-23.478,0-32.329L367.471,6.64c-8.85-8.851-23.477-8.851-32.328,0
			c-8.855,8.855-8.855,23.477,0,32.328l10.834,10.654L6.414,441.747c-5.78,6.855-7.044,16.429-3.25,24.567
			c3.793,7.945,11.922,13.536,20.773,13.536l0,0l356.358-0.533c0.18,0,0.359,0,0.723,0v9.753c0,12.645,10.289,22.93,22.934,22.93
			s22.939-10.285,22.939-22.93v-73.149C426.713,403.465,416.596,393.165,403.951,393.165z"/>
		<path fill="#6F6F6F" d="M167.16,371.857c-4.152,1.808-5.959,7.398-4.152,11.56c2.888,6.502,3.973,13.726,3.973,22.761
			c0.542,4.331,4.695,7.761,9.21,7.223c4.152-0.542,7.044-3.973,6.865-7.949h0.179c0-9.215-1.081-21.137-5.058-29.984
			C176.19,371.494,171.316,370.051,167.16,371.857z"/>
		<g>
			<path fill="#6F6F6F" d="M283.039,331.18h-51.471c-7.346,0-13.239-5.294-13.239-12.642c0-5.585,2.342-10.296,6.462-14.997
				l54.428-62.943c5.295-6.179,9.122-9.414,17.052-9.414c7.346,0,13.245,5.587,13.245,12.939v64.728h6.47
				c6.163,0,11.164,5.001,11.164,11.164c0,6.178-5.001,11.18-11.164,11.18h-6.769v14.998c0,7.354-5.877,12.945-13.246,12.945
				c-7.338,0-12.946-5.586-12.946-12.945L283.039,331.18L283.039,331.18z M283.039,308.835v-39.133l-33.23,39.133H283.039z"/>
			<path fill="#6F6F6F" d="M351.292,348.237c-3.248-2.352-5.593-5.888-5.593-10.589c0-7.061,5.886-13.237,12.945-13.237
				c3.25,0,5.294,0.867,7.646,2.648c7.646,5.585,15.006,7.953,23.827,7.953c11.471,0,20.299-6.179,20.299-17.351v-0.298
				c0-10.589-9.121-17.059-22.051-17.059c-10.589,0-15.298,3.249-18.834,3.249c-3.826,0-7.054-1.467-12.348-5.586
				c-3.832-2.649-5.293-6.469-5.001-11.179l2.651-42.352c0.298-6.462,5.592-11.757,12.063-11.757h54.414
				c6.469,0,12.055,5.579,12.055,12.049c0,6.469-5.586,12.054-12.055,12.054h-42.949l-1.47,22.062
				c5.003-1.177,9.413-2.061,16.474-2.061c24.711,0,43.827,11.763,43.827,40.009v0.291c0,26.47-19.116,43.235-46.471,43.235
				C373.046,360.016,361.28,355.604,351.292,348.237z"/>
			<path fill="#6F6F6F" d="M454.828,259.699v-0.293c0-15.297,12.048-27.344,27.638-27.344c15.591,0,27.354,12.047,27.354,27.051
				v0.293c0,15.299-12.055,27.354-27.646,27.354C466.583,287.054,454.828,274.996,454.828,259.699z M455.695,302.642
				c0-3.241,2.652-5.878,5.887-5.878h41.769c3.241,0,5.878,2.651,5.878,5.878c0,3.243-2.65,5.886-5.878,5.886h-41.769
				C458.348,308.535,455.695,305.885,455.695,302.642z M495.42,259.699v-0.293c0-7.646-5.294-14.415-12.946-14.415
				c-7.943,0-12.64,6.469-12.64,14.415v0.293c0,7.645,5.295,14.414,12.946,14.414C490.427,274.113,495.42,267.65,495.42,259.699z"/>
		</g>
	</g>
</g>
</svg>
