<?xml version="1.0" encoding="utf-8"?>
<!-- Generator: Adobe Illustrator 16.0.0, SVG Export Plug-In . SVG Version: 6.00 Build 0)  -->
<!DOCTYPE svg PUBLIC "-//W3C//DTD SVG 1.1//EN" "http://www.w3.org/Graphics/SVG/1.1/DTD/svg11.dtd">
<svg version="1.1" id="Capa_1" xmlns="http://www.w3.org/2000/svg" xmlns:xlink="http://www.w3.org/1999/xlink" x="0px" y="0px"
	 width="512px" height="512px" viewBox="0 0 512 512" enable-background="new 0 0 512 512" xml:space="preserve">
<g>
	<path fill="#6F6F6F" d="M356.557,222.224c-19.221,0-35.903,10.808-44.346,26.667h-37.879L205,0l-79.111,331.555l-25.778-82.664
		H7.666v48.888h51.966L136.556,512l71.11-312.891l28.444,98.668h77.132c8.719,14.873,24.828,24.89,43.313,24.89
		c27.736,0,50.222-22.483,50.222-50.222S384.293,222.224,356.557,222.224z"/>
	<path fill="#6F6F6F" d="M356.557,122.888v47.998c56.209,0,101.775,45.567,101.775,101.781c0,56.211-45.566,101.778-101.775,101.778
		v47.997c82.72,0,149.775-67.058,149.775-149.775C506.332,189.945,439.275,122.888,356.557,122.888z"/>
</g>
</svg>
