<?xml version="1.0" encoding="utf-8"?>
<!-- Generator: Adobe Illustrator 16.0.0, SVG Export Plug-In . SVG Version: 6.00 Build 0)  -->
<!DOCTYPE svg PUBLIC "-//W3C//DTD SVG 1.1//EN" "http://www.w3.org/Graphics/SVG/1.1/DTD/svg11.dtd">
<svg version="1.1" id="Capa_1" xmlns="http://www.w3.org/2000/svg" xmlns:xlink="http://www.w3.org/1999/xlink" x="0px" y="0px"
	 width="512px" height="512px" viewBox="0 0 512 512" enable-background="new 0 0 512 512" xml:space="preserve">
<rect x="341.333" y="103.8" display="none" width="170.563" height="281.428"/>
<g>
	<path fill="#6F6F6F" d="M136.643,101.992c-0.564-1.754-1.161-4.576-1.787-8.464h-0.376c-0.564,3.574-1.191,6.396-1.881,8.464
		l-18.527,53.795h41.287L136.643,101.992z"/>
	<path fill="#6F6F6F" d="M284.016,168.766c0-13.981-9.688-20.973-29.061-20.973h-16.176v42.697h19.092
		c8.338,0,14.779-1.928,19.326-5.784C281.742,180.851,284.016,175.537,284.016,168.766z"/>
	<path fill="#6F6F6F" d="M370.257,391.715h39.03v-56.617c-6.835,12.289-13.59,23.012-20.268,32.164
		C382.342,376.418,376.088,384.566,370.257,391.715z"/>
	<path fill="#6F6F6F" d="M500,0H12C5.373,0,0,5.372,0,12v488c0,6.627,5.373,12,12,12h488c6.628,0,12-5.373,12-12V12
		C512,5.372,506.628,0,500,0z M216.49,73.496h42.792c13.04,0,23.371,2.854,30.988,8.559c7.618,5.706,11.428,13.136,11.428,22.289
		c0,7.65-2.164,14.295-6.49,19.938c-4.326,5.643-10.314,9.656-17.963,12.038v0.376c9.278,1.067,16.693,4.5,22.242,10.298
		c5.549,5.8,8.323,13.34,8.323,22.618c0,11.537-4.546,20.878-13.637,28.026c-9.092,7.147-20.565,10.721-34.421,10.721H216.49V73.496
		z M122.63,73.496h25.205l50.127,134.864h-24.546l-12.132-34.327h-53.043L96.579,208.36H72.126L122.63,73.496z M109.84,439.49
		H88.021V328.326c-3.95,2.822-8.198,5.221-12.743,7.195c-4.547,1.975-9.734,3.715-15.565,5.219v-18.621
		c3.636-1.189,7.147-2.445,10.533-3.762s6.725-2.789,10.016-4.42c3.292-1.629,6.614-3.447,9.969-5.455
		c3.353-2.006,6.818-4.293,10.392-6.865h9.217V439.49z M223.355,439.49h-84.643v-10.439c0-4.262,0.595-8.26,1.787-11.99
		c1.19-3.73,2.789-7.242,4.796-10.533c2.006-3.291,4.357-6.395,7.054-9.311c2.695-2.916,5.58-5.736,8.652-8.465
		c3.071-2.727,6.207-5.361,9.405-7.9s6.332-5.092,9.405-7.664c2.883-2.445,5.517-4.844,7.9-7.195
		c2.382-2.352,4.42-4.779,6.113-7.289c1.693-2.506,3.009-5.156,3.95-7.945s1.411-5.816,1.411-9.076c0-3.574-0.549-6.691-1.646-9.357
		c-1.098-2.664-2.633-4.891-4.608-6.678s-4.312-3.135-7.006-4.045c-2.697-0.908-5.643-1.363-8.841-1.363
		c-5.518,0-11.13,1.285-16.834,3.855c-5.706,2.572-11.191,6.428-16.458,11.568v-20.973c2.758-2.068,5.549-3.871,8.37-5.408
		c2.821-1.535,5.737-2.82,8.746-3.855c3.01-1.035,6.175-1.801,9.499-2.305c3.323-0.5,6.865-0.752,10.627-0.752
		c6.081,0,11.599,0.799,16.552,2.398c4.952,1.6,9.185,3.949,12.696,7.055c3.511,3.104,6.222,6.975,8.135,11.613
		c1.912,4.641,2.869,9.969,2.869,15.988c0,5.455-0.675,10.361-2.022,14.719c-1.349,4.359-3.261,8.418-5.737,12.18
		c-2.478,3.762-5.471,7.336-8.981,10.721c-3.512,3.387-7.43,6.865-11.756,10.439c-3.637,2.947-7.258,5.816-10.862,8.605
		c-3.606,2.791-6.851,5.518-9.734,8.182c-2.885,2.666-5.22,5.33-7.007,7.994c-1.787,2.666-2.68,5.346-2.68,8.041v0.471h60.849
		V439.49z M315.898,430.604c-9.092,7.43-21.067,11.145-35.927,11.145c-13.354,0-24.015-2.414-31.976-7.242v-20.502
		c8.778,6.959,18.683,10.439,29.719,10.439c8.965,0,16.129-2.037,21.49-6.113c5.359-4.074,8.041-9.594,8.041-16.553
		c0-15.297-11.695-22.947-35.08-22.947h-10.439v-17.492h9.969c20.752,0,31.13-7.209,31.13-21.631
		c0-13.293-8.088-19.939-24.265-19.939c-9.028,0-17.525,3.23-25.486,9.688v-19.373c9.153-5.141,19.969-7.713,32.446-7.713
		c11.976,0,21.567,3.01,28.778,9.029c7.209,6.02,10.815,13.73,10.815,23.135c0,17.744-9.028,29.154-27.085,34.234v0.375
		c9.717,0.941,17.398,4.344,23.041,10.205c5.643,5.863,8.465,13.182,8.465,21.959C329.535,413.408,324.988,423.174,315.898,430.604z
		 M324.268,143.467c0-21.568,6.631-38.998,19.891-52.291c13.262-13.292,30.017-19.938,50.27-19.938
		c13.039,0,23.855,1.85,32.445,5.549v22.195c-9.091-5.392-19.123-8.088-30.095-8.088c-14.61,0-26.443,4.671-35.503,14.013
		c-9.061,9.343-13.59,21.819-13.59,37.431c0,14.86,4.232,26.695,12.696,35.503c8.464,8.81,19.593,13.214,33.388,13.214
		c12.727,0,23.761-3.01,33.104-9.029v20.69c-10.156,5.267-22.791,7.9-37.9,7.9c-19.563,0-35.237-6.175-47.023-18.527
		C330.16,179.739,324.268,163.532,324.268,143.467z M450.479,409.865h-20.032v29.625h-21.16v-29.625H348.25v-18.338
		c5.516-6.207,11.176-12.932,16.976-20.174c5.798-7.242,11.38-14.639,16.74-22.195c5.36-7.555,10.329-15.125,14.907-22.713
		c4.575-7.586,8.432-14.859,11.567-21.818h22.007v87.088h20.032V409.865z"/>
	<path fill="#6F6F6F" d="M271.555,124.329c4.42-3.668,6.63-8.855,6.63-15.565c0-11.536-7.712-17.305-23.135-17.305h-16.271v38.371
		h14.483C261.035,129.83,267.135,127.996,271.555,124.329z"/>
</g>
</svg>
