<?xml version="1.0" encoding="utf-8"?>
<!-- Generator: Adobe Illustrator 16.0.0, SVG Export Plug-In . SVG Version: 6.00 Build 0)  -->
<!DOCTYPE svg PUBLIC "-//W3C//DTD SVG 1.1//EN" "http://www.w3.org/Graphics/SVG/1.1/DTD/svg11.dtd">
<svg version="1.1" id="Capa_1" xmlns="http://www.w3.org/2000/svg" xmlns:xlink="http://www.w3.org/1999/xlink" x="0px" y="0px"
	 width="512px" height="512px" viewBox="0 0 512 512" enable-background="new 0 0 512 512" xml:space="preserve">
<g>
	<g>
		<g>
			<g>
				<path fill="#6F6F6F" d="M164.323,78.683c0,4.867-3.946,8.814-8.815,8.814h-18.12c-4.869,0-8.815-3.948-8.815-8.814v-9.605
					c0-4.869,3.946-8.816,8.815-8.816h18.12c4.869,0,8.815,3.946,8.815,8.816V78.683z"/>
				<path fill="#6F6F6F" d="M164.323,136.148c0,4.87-3.946,8.816-8.815,8.816h-18.12c-4.869,0-8.815-3.945-8.815-8.816v-9.604
					c0-4.869,3.946-8.816,8.815-8.816h18.12c4.869,0,8.815,3.946,8.815,8.816V136.148z"/>
				<path fill="#6F6F6F" d="M164.323,193.613c0,4.869-3.946,8.816-8.815,8.816h-18.12c-4.869,0-8.815-3.946-8.815-8.816v-9.604
					c0-4.868,3.946-8.817,8.815-8.817h18.12c4.869,0,8.815,3.948,8.815,8.817V193.613z"/>
			</g>
			<path fill="#6F6F6F" d="M164.323,251.08c0,4.868-3.946,8.817-8.815,8.817h-18.12c-4.869,0-8.815-3.948-8.815-8.817v-9.604
				c0-4.87,3.946-8.815,8.815-8.815h18.12c4.869,0,8.815,3.945,8.815,8.815V251.08z"/>
		</g>
		<path fill="#6F6F6F" d="M164.323,308.545c0,4.87-3.946,8.816-8.815,8.816h-18.12c-4.869,0-8.815-3.945-8.815-8.816v-9.604
			c0-4.867,3.946-8.814,8.815-8.814h18.12c4.869,0,8.815,3.947,8.815,8.814V308.545z"/>
	</g>
	<path fill="#6F6F6F" d="M370.986,352.039c-6.904-13.302-16.614-25.193-28.27-34.674V52.21c0-28.789-23.422-52.21-52.211-52.21
		h-33.646c-28.791,0-52.212,23.421-52.213,52.21v265.155c-11.655,9.48-21.365,21.373-28.269,34.674
		c-8.02,15.451-12.26,32.879-12.26,50.398c0,14.785,2.898,29.135,8.614,42.648c5.52,13.049,13.418,24.764,23.477,34.822
		s21.775,17.959,34.822,23.477c13.516,5.717,27.864,8.615,42.65,8.615c14.787,0,29.137-2.898,42.65-8.615
		c13.048-5.52,24.765-13.418,34.823-23.477s17.956-21.773,23.476-34.822c5.718-13.513,8.615-27.863,8.615-42.648
		C383.246,384.92,379.007,367.49,370.986,352.039z M251.543,374.2c-7.475,6.632-12.313,15.357-13.986,25.238
		c-0.88,5.203-0.822,10.441,0.176,15.562c1.28,6.57-3.009,12.934-9.581,14.215c-0.783,0.156-1.563,0.229-2.332,0.229
		c-5.684,0-10.757-4.017-11.886-9.807c-1.559-7.996-1.652-16.153-0.282-24.245c2.568-15.17,10.312-29.137,21.802-39.328
		c5.009-4.441,12.67-3.984,17.114,1.024C257.01,362.097,256.554,369.757,251.543,374.2z M307.349,155.5h-67.333V46.833
		c0-6.627,5.373-12,12-12h43.333c6.628,0,12,5.373,12,12V155.5z"/>
</g>
</svg>
