<?xml version="1.0" encoding="utf-8"?>
<!-- Generator: Adobe Illustrator 16.0.0, SVG Export Plug-In . SVG Version: 6.00 Build 0)  -->
<!DOCTYPE svg PUBLIC "-//W3C//DTD SVG 1.1//EN" "http://www.w3.org/Graphics/SVG/1.1/DTD/svg11.dtd">
<svg version="1.1" id="Capa_1" xmlns="http://www.w3.org/2000/svg" xmlns:xlink="http://www.w3.org/1999/xlink" x="0px" y="0px"
	 width="512px" height="512px" viewBox="0 0 512 512" enable-background="new 0 0 512 512" xml:space="preserve">
<g>
	<path fill="#6F6F6F" d="M206.998,62.224h-23.671c-21.644,0-62.229,0.674-90.633,10.82c-14.883,10.824-44.64,52.079-61.551,76.429
		c-2.026,3.38-4.059,5.412-6.765,4.733L9.5,148.798c-2.705-0.679-3.38-4.059-2.705-6.091
		c7.438-28.404,29.761-117.684,32.467-131.209C41.289,2.701,44.669,0,49.407,0c4.733,0,6.761,2.701,12.852,10.145
		c7.438,9.466,20.29,15.553,44.64,16.906c35.843,2.032,64.252,4.059,134.594,4.059h39.229c73.723,0,102.806-2.706,131.214-4.059
		c14.879-0.674,41.26-8.792,49.373-16.906C468.073,3.38,472.132,0,476.865,0s6.765,2.701,8.118,10.819
		c2.027,14.878,14.878,98.746,20.29,134.594c0.675,2.706-0.679,5.412-2.706,6.091l-14.204,5.407
		c-2.706,0.679-4.059-1.353-6.765-6.086c-14.879-24.349-41.255-59.518-58.166-75.75c-16.91-10.146-77.103-12.852-92.66-12.852
		H308.45v186c0,9.466,0,198.846,0.679,208.991c1.354,16.91,6.761,27.056,22.997,27.056h30.436c6.086,0,6.765,2.031,6.765,6.765
		v15.558c0,3.38-0.679,5.407-6.765,5.407c-6.766,0-28.409-2.027-103.484-2.027c-71.695,0-100.1,2.027-109.57,2.027
		c-5.412,0-6.086-2.702-6.086-8.113v-12.852c0-4.733,0.674-6.765,4.732-6.765h34.495c13.53,0,21.644-8.114,22.996-20.291
		c1.354-14.204,1.354-221.847,1.354-234.698V62.224z"/>
</g>
</svg>
