<?xml version="1.0" encoding="iso-8859-1"?>
<!-- Generator: Adobe Illustrator 18.0.0, SVG Export Plug-In . SVG Version: 6.00 Build 0)  -->
<!DOCTYPE svg PUBLIC "-//W3C//DTD SVG 1.1//EN" "http://www.w3.org/Graphics/SVG/1.1/DTD/svg11.dtd">
<svg xmlns="http://www.w3.org/2000/svg" xmlns:xlink="http://www.w3.org/1999/xlink" version="1.1" id="Capa_1" x="0px" y="0px" viewBox="0 0 307.579 307.579" style="enable-background:new 0 0 307.579 307.579;" xml:space="preserve" width="512px" height="512px">
<path d="M263.312,120.573c4.65-2.067,7.65-6.677,7.65-11.769c0-4.626-3.744-8.369-8.37-8.369h-50.217V59.518l50.937-22.638  c4.65-2.068,7.65-6.678,7.65-11.77c0-4.626-3.744-8.37-8.37-8.37h-50.217v-0.002C212.375,7.494,204.881,0,195.636,0h-83.694  c-9.245,0-16.739,7.494-16.739,16.738v0.002H44.987c-4.626,0-8.37,3.744-8.37,8.37c0,5.092,3,9.701,7.65,11.77l50.936,22.638v40.917  H44.987c-4.626,0-8.37,3.743-8.37,8.369c0,5.093,3,9.702,7.65,11.769l50.936,22.638v32.548H44.987c-4.623,0-8.37,3.747-8.37,8.37  c0,5.092,3,9.701,7.65,11.77l50.936,22.638v32.548c0,9.244,7.494,16.738,16.739,16.738h18.514v31.387c0,4.623,3.747,8.37,8.37,8.37  h29.927c4.623,0,8.37-3.747,8.37-8.37v-31.387h18.514c9.245,0,16.739-7.494,16.739-16.738v-32.548l50.937-22.638  c4.65-2.068,7.65-6.678,7.65-11.77c0-4.627-3.744-8.37-8.37-8.37h-50.217v-32.548L263.312,120.573z M153.79,238.912  c-16.567,0-30.001-13.433-30.001-30s13.434-30,30.001-30c16.567,0,30,13.433,30,30S170.357,238.912,153.79,238.912z M153.79,160.412  c-16.567,0-30.001-13.433-30.001-30c0-16.567,13.434-30,30.001-30c16.567,0,30,13.433,30,30  C183.79,146.98,170.357,160.412,153.79,160.412z M153.79,81.912c-16.567,0-30.001-13.433-30.001-30s13.434-30,30.001-30  c16.567,0,30,13.433,30,30S170.357,81.912,153.79,81.912z" fill="#6f6f6f"/>
<g>
</g>
<g>
</g>
<g>
</g>
<g>
</g>
<g>
</g>
<g>
</g>
<g>
</g>
<g>
</g>
<g>
</g>
<g>
</g>
<g>
</g>
<g>
</g>
<g>
</g>
<g>
</g>
<g>
</g>
</svg>
