<?xml version="1.0" encoding="utf-8"?>
<!-- Generator: Adobe Illustrator 16.0.0, SVG Export Plug-In . SVG Version: 6.00 Build 0)  -->
<!DOCTYPE svg PUBLIC "-//W3C//DTD SVG 1.1//EN" "http://www.w3.org/Graphics/SVG/1.1/DTD/svg11.dtd">
<svg version="1.1" id="Layer_1" xmlns="http://www.w3.org/2000/svg" xmlns:xlink="http://www.w3.org/1999/xlink" x="0px" y="0px"
	 width="512px" height="512px" viewBox="0 0 512 512" enable-background="new 0 0 512 512" xml:space="preserve">
<g>
	<g>
		<path fill="#6F6F6F" d="M490.741,343.196h-72.098c5.434-10.658,8.568-22.675,8.568-35.423v-171.05
			c0-43.049-35.004-78.053-78.054-78.053H78.112c-43.05,0-78.054,35.004-78.054,78.053V307.67c0,38.033,27.271,69.694,63.32,76.59
			c10.135-38.033,44.722-66.142,85.891-66.142c41.692,0,76.591,28.839,86.204,67.604h255.268c11.809,0,21.316-9.508,21.316-21.315
			C512.058,352.705,502.55,343.196,490.741,343.196L490.741,343.196z M149.374,204.434h-20.166
			c-11.808,0-21.316-9.508-21.316-21.316c0-11.807,9.508-21.316,21.316-21.316h20.166c11.808,0,21.316,9.509,21.316,21.316
			C170.69,194.925,161.077,204.434,149.374,204.434z M298.063,204.434h-20.166c-11.809,0-21.317-9.508-21.317-21.316
			c0-11.807,9.509-21.316,21.317-21.316h20.166c11.807,0,21.314,9.509,21.314,21.316
			C319.484,194.925,309.87,204.434,298.063,204.434z"/>
		<circle fill="#6F6F6F" cx="149.165" cy="407.143" r="45.976"/>
	</g>
</g>
</svg>
