<?xml version="1.0"?>
<svg xmlns="http://www.w3.org/2000/svg" xmlns:xlink="http://www.w3.org/1999/xlink" version="1.1" id="Capa_1" x="0px" y="0px" viewBox="0 0 511.998 511.998" style="enable-background:new 0 0 511.998 511.998;" xml:space="preserve" width="512px" height="512px" class=""><g><path d="M496.998,226.759c-8.284,0-15,6.716-15,15v29.863h-36.999v-50.001c0-8.284-6.716-15-15-15H374.77l-61.108-43.243  c-2.534-1.793-5.562-2.756-8.665-2.756h-33.997v-31.25h26.25c8.284,0,15-6.716,15-15s-6.716-15-15-15h-81c-8.284,0-15,6.716-15,15  s6.716,15,15,15h24.75v31.25h-33.997c-3.104,0-6.131,0.963-8.665,2.756l-61.108,43.243H81.999c-8.284,0-15,6.716-15,15v50.001H30  v-29.863c0-8.284-6.716-15-15-15s-15,6.716-15,15v89.727c0,8.284,6.716,15,15,15s15-6.716,15-15v-29.863h36.999v50  c0,8.284,6.716,15,15,15h45v31c0,8.284,6.716,15,15,15l288,0.003c3.979,0,7.794-1.58,10.606-4.394  c2.813-2.813,4.394-6.628,4.394-10.606v-96.003h36.999v29.863c0,8.284,6.716,15,15,15s15-6.716,15-15v-89.727  C511.998,233.475,505.282,226.759,496.998,226.759z M302.605,303.289l-56.938,56.939c-2.929,2.929-6.768,4.394-10.606,4.394  s-7.678-1.465-10.606-4.394c-5.858-5.857-5.858-15.355,0-21.213l31.332-31.333h-35.789c-6.067,0-11.536-3.654-13.858-9.26  c-2.321-5.605-1.038-12.057,3.252-16.347l42.998-42.997c5.858-5.858,15.356-5.858,21.213,0c5.858,5.857,5.857,15.355,0,21.213  l-17.391,17.391h35.788c6.067,0,11.536,3.654,13.858,9.26C308.179,292.548,306.896,298.999,302.605,303.289z" data-original="#000000" class="active-path" data-old_color="#FBFAFA" fill="#FFFFFF"/></g> </svg>
