<?xml version="1.0" encoding="utf-8"?>
<!-- Generator: Adobe Illustrator 16.0.0, SVG Export Plug-In . SVG Version: 6.00 Build 0)  -->
<!DOCTYPE svg PUBLIC "-//W3C//DTD SVG 1.1//EN" "http://www.w3.org/Graphics/SVG/1.1/DTD/svg11.dtd">
<svg version="1.1" id="Capa_1" xmlns="http://www.w3.org/2000/svg" xmlns:xlink="http://www.w3.org/1999/xlink" x="0px" y="0px"
	 width="512px" height="512px" viewBox="0 0 512 512" enable-background="new 0 0 512 512" xml:space="preserve">
<g>
	<path fill="#6F6F6F" d="M57.604,312.596c4.532,15.538,10.821,30.521,18.775,44.58l-22.66,28.578
		c-7.399,9.342-6.566,22.66,1.758,31.077l39.03,39.029c8.417,8.417,21.735,9.155,31.076,1.757l28.395-22.475
		c14.613,8.416,30.151,14.984,46.337,19.608l4.254,36.532C205.956,503.122,215.945,512,227.783,512h55.216
		c11.839,0,21.827-8.88,23.215-20.717l4.069-35.238c17.387-4.532,34.035-11.284,49.666-20.07l27.469,21.736
		c9.342,7.398,22.66,6.564,31.076-1.76l39.03-39.029c8.417-8.416,9.156-21.734,1.758-31.075l-21.365-27.1
		c8.878-15.354,15.815-31.724,20.439-48.834l32.927-3.792c11.84-1.388,20.717-11.376,20.717-23.215v-55.215
		c0-11.839-8.878-21.828-20.717-23.215l-32.464-3.792c-4.44-16.924-11.099-33.11-19.607-48.279l19.979-25.249
		c7.398-9.342,6.566-22.66-1.758-31.077l-38.938-38.938c-8.416-8.416-21.734-9.156-31.076-1.757L362.91,74.807
		c-15.908-9.341-32.927-16.462-50.776-21.272l-3.7-31.723c-1.387-11.839-11.375-20.718-23.215-20.718h-55.215
		c-11.838,0-21.827,8.879-23.214,20.718l-3.7,31.723c-18.312,4.902-35.792,12.301-52.071,22.013l-25.434-20.163
		c-9.342-7.399-22.661-6.566-31.077,1.757l-39.03,39.031c-8.417,8.417-9.156,21.735-1.758,31.076l21.272,26.915
		c-8.508,15.353-14.982,31.724-19.238,48.741l-34.036,3.885c-11.838,1.387-20.717,11.375-20.717,23.215v55.215
		c0,11.839,8.879,21.827,20.717,23.214L57.604,312.596z M257.657,163.227c50.313,0,91.285,40.973,91.285,91.287
		c0,50.313-40.972,91.286-91.285,91.286c-50.313,0-91.286-40.973-91.286-91.286C166.371,204.2,207.344,163.227,257.657,163.227z"/>
</g>
</svg>
