<?xml version="1.0" encoding="utf-8"?>
<!-- Generator: Adobe Illustrator 16.0.0, SVG Export Plug-In . SVG Version: 6.00 Build 0)  -->
<!DOCTYPE svg PUBLIC "-//W3C//DTD SVG 1.1//EN" "http://www.w3.org/Graphics/SVG/1.1/DTD/svg11.dtd">
<svg version="1.1" id="Capa_1" xmlns="http://www.w3.org/2000/svg" xmlns:xlink="http://www.w3.org/1999/xlink" x="0px" y="0px"
	 width="512px" height="512px" viewBox="0 0 512 512" enable-background="new 0 0 512 512" xml:space="preserve">
<g opacity="0.8">
	<path fill="#6F6F6F" d="M274.811,482.781l12.826-12.226c10.11,4.546,20.714,7.766,31.659,9.619l3.687,17.604
		c1.86,8.908,10.126,14.941,19.148,14.149l29.424-2.644c9.015-0.86,16.057-8.356,16.276-17.413l0.487-18.27
		c10.517-3.889,20.485-9.209,29.669-15.703l15.958,10.495c7.571,4.992,17.709,3.497,23.529-3.493l18.909-22.681
		c5.824-6.99,5.479-17.184-0.774-23.79l-13.404-14.146c4.646-10.348,7.961-21.256,9.833-32.498l19.354-4.066
		c8.908-1.861,14.941-10.127,14.151-19.15l-2.644-29.424c-0.86-9.01-8.357-16.054-17.415-16.273l-20.6-0.516
		c-3.791-9.947-8.872-19.379-14.995-28.116l11.052-16.933c4.991-7.572,3.497-17.706-3.494-23.527l-22.682-18.91
		c-6.988-5.822-17.184-5.479-23.79,0.777l-14.764,14.021c-9.399-4.233-19.19-7.378-29.276-9.312l-4.129-19.708
		c-1.861-8.908-10.127-14.941-19.149-14.149l-29.425,2.642c-9.013,0.862-16.054,8.359-16.274,17.416l-0.506,18.997
		c-10.468,3.736-20.418,8.764-29.648,14.976l-15.948-10.427c-7.57-4.992-17.707-3.495-23.529,3.497l-19.05,22.703
		c-5.822,6.991-5.479,17.185,0.777,23.791l12.32,12.953c-5.221,10.812-8.87,22.293-10.925,34.146l-17.111,3.6
		c-8.908,1.861-14.942,10.127-14.15,19.15l2.644,29.424c0.861,9.013,8.357,16.055,17.414,16.275l17.538,0.47
		c4.047,10.997,9.515,21.379,16.351,30.862l-9.333,14.302c-4.993,7.567-3.496,17.708,3.493,23.526l22.681,18.91
		C257.967,489.535,268.23,489.179,274.811,482.781z M346.889,407.748c-31.774,2.911-59.998-20.622-62.841-52.412
		c-2.911-31.773,20.62-59.998,52.41-62.838c31.777-2.914,60,20.619,62.842,52.409C402.212,376.684,378.68,404.906,346.889,407.748z"
		/>
	<path fill="#6F6F6F" d="M385.462,201.919l16.214-15.399c2.814-2.665,6.225-4.34,9.787-5.035l-5.795-32.874
		c-1.658-9.4-10.106-16.089-19.702-15.533l-29.604,1.737c-5.938-12.206-13.329-23.624-22.059-34.049l13.87-25.694
		c4.566-8.454,2.115-18.925-5.745-24.43l-36.456-25.527c-7.85-5.431-18.541-4.229-24.925,2.956l-19.521,21.995
		c-12.275-4.348-25.055-7.244-38.027-8.667l-8.329-27.912c-2.759-9.206-11.934-14.858-21.334-13.2l-43.845,7.731
		c-9.4,1.657-16.09,10.107-15.533,19.701l1.682,27.57C123.223,61.05,111.13,68.484,100.13,77.39L75.78,64.267
		c-8.454-4.567-18.926-2.115-24.43,5.747l-25.528,36.458c-5.431,7.847-4.229,18.54,2.956,24.922l19.571,17.373
		c-5.431,14.285-8.86,29.202-10.188,44.43l-24.672,7.379C4.283,203.334-1.37,212.509,0.288,221.91l7.731,43.844
		c1.658,9.4,10.106,16.089,19.702,15.533l25.707-1.504c6.319,13.5,14.355,26.017,24.001,37.341l-11.991,22.183
		c-4.568,8.451-2.115,18.924,5.747,24.43l36.371,25.466c7.848,5.435,18.539,4.229,24.922-2.954l17.251-19.398
		c0.506,0.178,1.017,0.34,1.524,0.514c-0.051-0.344-0.114-0.684-0.147-1.031l-2.903-32.316c-0.87-9.91,5.758-18.986,15.541-21.031
		l18.793-3.952c1.699-9.8,4.392-19.368,8.065-28.566c-28.681-5.923-52.315-28.757-57.7-59.296
		c-7.044-39.951,19.754-78.223,59.707-85.268c38.726-6.828,75.874,18.144,84.53,56.067l0.411-15.428
		c0.243-9.947,7.978-18.18,17.874-19.127l32.316-2.902c9.911-0.87,34.714-2.458,36.76,7.325"/>
</g>
</svg>
