<?xml version="1.0" encoding="utf-8"?>
<!-- Generator: Adobe Illustrator 16.0.0, SVG Export Plug-In . SVG Version: 6.00 Build 0)  -->
<!DOCTYPE svg PUBLIC "-//W3C//DTD SVG 1.1//EN" "http://www.w3.org/Graphics/SVG/1.1/DTD/svg11.dtd">
<svg version="1.1" id="Capa_1" xmlns="http://www.w3.org/2000/svg" xmlns:xlink="http://www.w3.org/1999/xlink" x="0px" y="0px"
	 width="512px" height="512px" viewBox="0 0 512 512" enable-background="new 0 0 512 512" xml:space="preserve">
<path fill="#6F6F6F" d="M138.105,62.273l13.885,6.059c-9.631,5.897-13.978,11.664-12.878,17.156
	c1.131,5.674,6.317,10.566,15.43,14.544c8.394,3.664,18.283,5.648,30.238,6.065c11.788,0.408,29.973-2.907,54.07-9.863
	c5.986-1.732,10.678-2.74,13.937-2.991c3.19-0.251,5.762,0.107,8.098,1.13c1.607,0.701,6.51,2.837-5.809,8.218
	c-8.002,3.492-16.289,4.93-24.624,4.274c-6.595-0.514-13.273,0.702-17.066,3.113l-7.404,4.708c-3.236,2.056-3.892,4.686-1.757,6.998
	c2.13,2.313,6.78,4.001,12.374,4.503c18.283,1.641,36.329-0.464,53.667-6.227l18.742,8.184c6.661,2.907,17.452,2.907,24.11,0.006
	c6.656-2.908,6.656-7.62,0-10.526l-19.396-8.468c8.52-5.412,13-10.883,13.314-16.294c0.375-6.331-4.738-11.857-15.195-16.422
	c-7.463-3.259-15.975-5.275-25.285-5.991c-9.313-0.723-18.139-0.32-26.22,1.196c-7.972,1.499-20.105,4.522-35.988,8.967
	c-6.912,1.915-11.601,2.891-13.95,2.906c-2.245,0.012-4.258-0.344-5.817-1.027c-5.534-2.41-0.884-5.459,3.991-7.586
	c6.052-2.642,12.509-3.889,19.189-3.713c6.697,0.177,13.013-1.386,16.12-3.979l4.294-3.582c2.717-2.265,2.571-4.981-0.379-7.194
	c-2.948-2.208-8.293-3.603-14.149-3.69c-12.71-0.183-24.969,1.517-37.303,5.17l-14.131-6.167c-6.66-2.907-17.452-2.907-24.11,0
	C131.451,54.656,131.451,59.368,138.105,62.273z"/>
<path fill="#9CC602" d="M316.294,315.88c-44.807,44.807-44.807,117.711-0.002,162.516s117.711,44.807,162.518,0
	s44.806-117.711,0-162.518C434.003,271.072,361.1,271.073,316.294,315.88z M468.765,379.801v34.675l-53.879-0.001l0.001,53.879
	h-34.675v-53.878h-53.877l-0.001-34.675l53.88,0.001l-0.002-53.879h34.676l-0.002,53.879L468.765,379.801z"/>
<path display="none" fill="#6F6F6F" d="M47.146,94.855c6.008-15.276,22.374-30.109,46.9-42.053
	c34.922-17.008,81.646-26.374,131.566-26.374c49.92,0,96.646,9.366,131.566,26.374c24.527,11.944,40.892,26.778,46.9,42.053
	c-21.227,36.922-94.977,63.845-178.468,63.845S68.372,131.779,47.146,94.855z"/>
<path display="none" fill="#6F6F6F" d="M286.387,266.181c-72.896,0-138.363-20.524-167.934-50.307
	c31.934,9.797,68.767,15.063,107.16,15.063c53.85,0,104.684-10.313,143.138-29.04c23.286-11.34,40.696-25.132,51.491-40.46
	c23.244,11.741,38.795,26.107,44.612,40.898C443.628,239.257,369.877,266.181,286.387,266.181z"/>
<path fill="#6F6F6F" d="M255.23,439.743c-1.246,0.012-2.494,0.019-3.744,0.019c-72.529,0-137.667-20.327-167.445-49.867
	c38.267,18.256,88.438,28.314,141.57,28.314c8.35,0,16.627-0.249,24.797-0.738c-0.911-6.648-1.392-13.435-1.392-20.334
	c0-18.519,3.399-36.24,9.59-52.59c-10.753,0.932-21.783,1.426-32.994,1.426c-83.491-0.001-157.242-26.923-178.468-63.846
	c4.885-12.42,16.651-24.537,34.051-35.056c6.703,24.087,28.149,45.794,62.053,62.305c32.449,15.803,73.711,25.614,118.162,28.294
	c14.219-32.504,39.727-58.94,71.576-74.337c-14.977,1.856-30.609,2.848-46.602,2.848c-72.896,0-138.363-20.524-167.934-50.307
	c31.934,9.797,68.767,15.063,107.16,15.063c53.85,0,104.684-10.313,143.138-29.04c23.286-11.34,40.696-25.132,51.491-40.46
	c23.244,11.741,38.795,26.107,44.612,40.898c-10.771,18.735-35.07,34.892-67.299,46.267c29.796,0,57.539,8.781,80.794,23.887
	c10.169-12.966,15.495-27.12,15.495-41.886v-15.313c0.002-30.136-22.174-57.724-62.478-77.85c1.128-4.692,1.705-9.472,1.705-14.316
	v-15.313c0-30.595-22.843-58.571-64.321-78.771C330.296,10.313,279.462,0,225.612,0C171.763,0,120.93,10.313,82.475,29.042
	c-41.479,20.2-64.322,48.176-64.322,78.771v15.313c0,30.171,22.226,57.789,62.617,77.92c-1.121,4.67-1.844,10.489-1.844,14.248
	v2.793c-39.229,20.049-60.773,47.287-60.773,76.998v15.313c0,20.631,10.401,40.065,29.885,56.734
	c-2.636,7.047-4.01,14.315-4.01,21.744v15.313c0,30.596,22.843,58.57,64.321,78.771C146.805,501.687,197.637,512,251.487,512
	c16.542,0,32.798-0.978,48.5-2.869C279.106,490.925,263.371,466.975,255.23,439.743z M47.146,94.855
	c6.008-15.276,22.374-30.109,46.9-42.053c34.922-17.008,81.646-26.374,131.566-26.374c49.92,0,96.646,9.366,131.566,26.374
	c24.527,11.944,40.892,26.778,46.9,42.053c-21.227,36.922-94.977,63.845-178.468,63.845S68.372,131.779,47.146,94.855z"/>
</svg>
