<?xml version="1.0" encoding="utf-8"?>
<!-- Generator: Adobe Illustrator 16.0.0, SVG Export Plug-In . SVG Version: 6.00 Build 0)  -->
<!DOCTYPE svg PUBLIC "-//W3C//DTD SVG 1.1//EN" "http://www.w3.org/Graphics/SVG/1.1/DTD/svg11.dtd">
<svg version="1.1" id="Capa_1" xmlns="http://www.w3.org/2000/svg" xmlns:xlink="http://www.w3.org/1999/xlink" x="0px" y="0px"
	 width="512px" height="512px" viewBox="0 0 512 512" enable-background="new 0 0 512 512" xml:space="preserve">
<g>
	<g id="_x31_5_38_">
		<g>
			<path fill="#6F6F6F" d="M97.343,151.742h5.699c8.661,0,15.682-7.023,15.682-15.682V92.785V76.598
				c0-8.659-7.021-15.682-15.682-15.682h-5.699c-8.66,0-15.681,7.023-15.681,15.682v16.188v43.274
				C81.662,144.719,88.683,151.742,97.343,151.742z"/>
			<path fill="#6F6F6F" d="M298.484,151.354h5.699c8.66,0,15.681-7.022,15.681-15.682V88.678V76.208
				c0-8.658-7.021-15.68-15.681-15.68h-5.699c-8.662,0-15.683,7.022-15.683,15.68v12.469v46.993
				C282.804,144.331,289.824,151.354,298.484,151.354z"/>
			<path fill="#6F6F6F" d="M372.859,92.785h-40.248v46.993c0,15.676-12.752,24.322-28.427,24.322h-5.699
				c-15.676,0-28.429-12.753-28.429-28.43V92.785H131.472v43.274c0,15.676-12.753,28.43-28.429,28.43h-5.699
				c-15.675,0-28.428-12.753-28.428-28.43V92.785H25.494C11.437,92.785,0,104.222,0,118.28v308.06
				c0,14.058,11.437,25.494,25.494,25.494h347.366c14.057,0,25.492-11.437,25.492-25.494V118.28
				C398.354,104.222,386.916,92.785,372.859,92.785z M372.859,426.34H25.495L25.494,193.7h347.37l0.013,232.638
				C372.875,426.338,372.87,426.34,372.859,426.34z"/>
			<path fill="#6F6F6F" d="M212.337,271.734h45.776c1.814,0,3.285-1.471,3.285-3.285v-39.639c0-1.814-1.471-3.286-3.285-3.286
				h-45.776c-1.814,0-3.285,1.471-3.285,3.286v39.639C209.052,270.264,210.522,271.734,212.337,271.734z"/>
			<path fill="#6F6F6F" d="M287.042,271.734h45.775c1.814,0,3.286-1.471,3.286-3.285v-39.639c0-1.814-1.472-3.286-3.286-3.286
				h-45.775c-1.814,0-3.286,1.471-3.286,3.286v39.639C283.756,270.264,285.228,271.734,287.042,271.734z"/>
			<path fill="#6F6F6F" d="M62.931,336.627h45.774c1.815,0,3.286-1.472,3.286-3.286v-39.638c0-1.814-1.471-3.285-3.286-3.285H62.931
				c-1.815,0-3.286,1.471-3.286,3.285v39.638C59.645,335.155,61.116,336.627,62.931,336.627z"/>
			<path fill="#6F6F6F" d="M137.634,336.627h45.774c1.814,0,3.286-1.472,3.286-3.286v-39.638c0-1.814-1.472-3.285-3.286-3.285
				h-45.774c-1.815,0-3.286,1.471-3.286,3.285v39.638C134.349,335.155,135.819,336.627,137.634,336.627z"/>
			<path fill="#6F6F6F" d="M212.338,336.627h45.775c1.814,0,3.285-1.472,3.285-3.286v-39.638c0-1.814-1.471-3.285-3.285-3.285
				h-45.775c-1.814,0-3.286,1.471-3.286,3.285v39.638C209.052,335.155,210.523,336.627,212.338,336.627z"/>
			<path fill="#6F6F6F" d="M287.042,336.627h45.775c1.814,0,3.286-1.472,3.286-3.286v-39.638c0-1.814-1.472-3.285-3.286-3.285
				h-45.775c-1.814,0-3.286,1.471-3.286,3.285v39.638C283.756,335.155,285.228,336.627,287.042,336.627z"/>
			<path fill="#6F6F6F" d="M108.705,355.31H62.931c-1.815,0-3.286,1.472-3.286,3.286v39.638c0,1.814,1.471,3.286,3.286,3.286h45.775
				c1.814,0,3.286-1.472,3.286-3.286v-39.638C111.991,356.781,110.52,355.31,108.705,355.31z"/>
			<path fill="#6F6F6F" d="M183.41,355.31h-45.775c-1.814,0-3.286,1.472-3.286,3.286v39.638c0,1.814,1.471,3.286,3.286,3.286h45.775
				c1.815,0,3.286-1.472,3.286-3.286v-39.638C186.695,356.781,185.225,355.31,183.41,355.31z"/>
			<path fill="#6F6F6F" d="M258.114,355.31h-45.776c-1.814,0-3.285,1.472-3.285,3.286v39.638c0,1.814,1.471,3.286,3.285,3.286
				h45.776c1.814,0,3.286-1.472,3.286-3.286v-39.638C261.4,356.781,259.929,355.31,258.114,355.31z"/>
			<path fill="#6F6F6F" d="M332.817,355.31h-45.775c-1.814,0-3.286,1.472-3.286,3.286v39.638c0,1.814,1.472,3.286,3.286,3.286
				h45.775c1.814,0,3.286-1.472,3.286-3.286v-39.638C336.104,356.781,334.632,355.31,332.817,355.31z"/>
		</g>
	</g>
</g>
</svg>
