<?xml version="1.0" encoding="utf-8"?>
<!-- Generator: Adobe Illustrator 16.0.0, SVG Export Plug-In . SVG Version: 6.00 Build 0)  -->
<!DOCTYPE svg PUBLIC "-//W3C//DTD SVG 1.1//EN" "http://www.w3.org/Graphics/SVG/1.1/DTD/svg11.dtd">
<svg version="1.1" id="Capa_1" xmlns="http://www.w3.org/2000/svg" xmlns:xlink="http://www.w3.org/1999/xlink" x="0px" y="0px"
	 width="512px" height="512px" viewBox="0 0 512 512" enable-background="new 0 0 512 512" xml:space="preserve">
<g>
	<g id="Layer_1_107_">
		<g>
			<path fill="#6F6F6F" d="M505.51,78.994c-5.08-5.825-12.395-9.176-20.106-9.176h-367.55l-5.187-30.959
				c-2.128-12.82-13.219-22.235-26.225-22.235H26.597C11.889,16.624,0,28.512,0,43.221s11.889,26.598,26.597,26.598h37.316
				l49.472,296.934c0.213,1.196,0.824,2.181,1.196,3.298c0.426,1.409,0.771,2.739,1.437,4.018c0.852,1.755,1.995,3.244,3.191,4.76
				c0.825,1.038,1.569,2.074,2.527,2.979c1.542,1.438,3.324,2.446,5.133,3.459c1.011,0.559,1.889,1.303,2.979,1.729
				c3.085,1.25,6.33,1.994,9.761,1.994c0.026,0,292.598,0,292.598,0c14.709,0,26.598-11.889,26.598-26.598
				c0-14.707-11.889-26.598-26.598-26.598H162.164l-4.415-26.598h301.056c13.245,0,24.471-9.734,26.331-22.82l26.599-186.182
				C512.824,92.532,510.537,84.792,505.51,78.994z M454.736,123.013l-7.58,53.195h-94.74v-53.195H454.736z M325.818,123.013v53.195
				h-79.792v-53.195H325.818z M325.818,202.805V256h-79.792v-53.195H325.818z M219.429,123.013v53.195h-79.793
				c-1.409,0-2.686,0.399-3.937,0.798l-8.989-53.993H219.429z M140.009,202.805h79.42V256h-70.563L140.009,202.805z M352.415,256
				v-53.195h90.91L435.745,256H352.415z"/>
			<circle fill="#6F6F6F" cx="179.532" cy="455.48" r="39.896"/>
			<circle fill="#6F6F6F" cx="418.908" cy="455.48" r="39.896"/>
		</g>
	</g>
</g>
</svg>
