<?xml version="1.0" encoding="utf-8"?>
<!-- Generator: Adobe Illustrator 16.0.0, SVG Export Plug-In . SVG Version: 6.00 Build 0)  -->
<!DOCTYPE svg PUBLIC "-//W3C//DTD SVG 1.1//EN" "http://www.w3.org/Graphics/SVG/1.1/DTD/svg11.dtd">
<svg version="1.1" id="Capa_1" xmlns="http://www.w3.org/2000/svg" xmlns:xlink="http://www.w3.org/1999/xlink" x="0px" y="0px"
	 width="512px" height="512px" viewBox="0 0 512 512" enable-background="new 0 0 512 512" xml:space="preserve">
<path opacity="0.8" fill="#6F6F6F" d="M446.673,126.669L342.672,22.664c-11.116-11.111-25.787-18.337-44.006-21.667v169.67h169.672
	C465.005,152.439,457.777,137.775,446.673,126.669z"/>
<path opacity="0.8" fill="#6F6F6F" d="M288.002,213.331c-8.895,0-16.449-3.109-22.67-9.332c-6.225-6.22-9.332-13.776-9.332-22.667V0
	H74.667C65.78,0,58.224,3.109,52.002,9.332c-6.223,6.22-9.333,13.776-9.333,22.667v448.003c0,8.893,3.11,16.449,9.333,22.67
	c6.223,6.217,13.778,9.329,22.666,9.329h362.673c8.887,0,16.438-3.112,22.658-9.329c6.221-6.226,9.334-13.777,9.334-22.67V213.331
	H288.002z M204.894,457.501l-14.773-26.531c-4.221-7.236-7.84-14.773-11.458-22.313h-0.903c-3.619,7.839-7.539,15.075-11.156,22.313
	l-13.872,26.53H102.38l50.05-75.075l-48.845-72.36h51.258v-0.002l14.472,24.424c4.222,7.537,8.141,15.074,12.061,22.01h0.603
	c3.921-7.84,7.538-15.377,11.458-22.614l12.965-23.817h49.748l-48.543,70.25l49.146,77.187H204.894z M409.619,457.5H270.625v-27.738
	l25.326-22.915c42.813-38.29,63.619-60.301,64.221-83.216c0-15.98-9.646-28.643-32.26-28.643c-16.885,0-31.66,8.441-41.91,16.281
	l-12.965-32.865c14.773-11.155,37.688-20.2,64.221-20.2c44.322,0,68.744,25.931,68.744,61.508c0,32.863-23.818,59.095-52.16,84.421
	L335.75,419.21v0.603h73.869V457.5z"/>
</svg>
