<?xml version="1.0" encoding="utf-8"?>
<!-- Generator: Adobe Illustrator 16.0.0, SVG Export Plug-In . SVG Version: 6.00 Build 0)  -->
<!DOCTYPE svg PUBLIC "-//W3C//DTD SVG 1.1//EN" "http://www.w3.org/Graphics/SVG/1.1/DTD/svg11.dtd">
<svg version="1.1" id="Capa_1" xmlns="http://www.w3.org/2000/svg" xmlns:xlink="http://www.w3.org/1999/xlink" x="0px" y="0px"
	 width="512px" height="512px" viewBox="0 0 512 512" enable-background="new 0 0 512 512" xml:space="preserve">
<g>
	<g>
		<path fill="#6F6F6F" d="M428.438,385.147c-1.215-1.209-2.756-1.813-4.641-1.813H172.104v-45.176c0-2.691-1.281-4.639-3.832-5.849
			c-2.559-1.075-4.912-0.671-7.061,1.21l-77.445,71.393c-1.344,1.347-2.016,2.961-2.016,4.842c0,1.747,0.672,3.295,2.016,4.639
			l77.445,70.588c2.152,1.748,4.506,2.089,7.061,1.008c2.551-1.073,3.832-3.021,3.832-5.847v-45.177h251.697
			c1.881,0,3.43-0.605,4.637-1.813c1.209-1.208,1.813-2.752,1.813-4.635v-38.726C430.252,387.908,429.645,386.359,428.438,385.147z"
			/>
	</g>
	<text transform="matrix(1 0 0 1 104.9521 283.1523)" fill="#6F6F6F" font-family="'MyriadPro-Bold'" font-size="307.9498">DI</text>
</g>
</svg>
