<?xml version="1.0" encoding="utf-8"?>
<!-- Generator: Adobe Illustrator 16.0.0, SVG Export Plug-In . SVG Version: 6.00 Build 0)  -->
<!DOCTYPE svg PUBLIC "-//W3C//DTD SVG 1.1//EN" "http://www.w3.org/Graphics/SVG/1.1/DTD/svg11.dtd">
<svg version="1.1" id="Capa_1" xmlns="http://www.w3.org/2000/svg" xmlns:xlink="http://www.w3.org/1999/xlink" x="0px" y="0px"
	 width="512px" height="512px" viewBox="0 0 512 512" enable-background="new 0 0 512 512" xml:space="preserve">
<g>
	<g>
		<path fill="#6F6F6F" d="M81.75,389.791v38.726c0,1.883,0.604,3.427,1.813,4.635c1.207,1.208,2.756,1.813,4.637,1.813h251.697
			v45.177c0,2.825,1.281,4.773,3.832,5.847c2.555,1.081,4.908,0.74,7.061-1.008l77.445-70.588c1.344-1.344,2.016-2.892,2.016-4.639
			c0-1.881-0.672-3.495-2.016-4.842l-77.445-71.393c-2.148-1.881-4.502-2.285-7.061-1.21c-2.551,1.21-3.832,3.157-3.832,5.849
			v45.176H88.203c-1.885,0-3.426,0.604-4.641,1.813C82.355,386.359,81.748,387.908,81.75,389.791z"/>
	</g>
	<text transform="matrix(1 0 0 1 38.4346 283.1523)" fill="#6F6F6F" font-family="'MyriadPro-Bold'" font-size="307.9498">DO</text>
</g>
</svg>
