<?xml version="1.0" encoding="utf-8"?>
<!-- Generator: Adobe Illustrator 16.0.0, SVG Export Plug-In . SVG Version: 6.00 Build 0)  -->
<!DOCTYPE svg PUBLIC "-//W3C//DTD SVG 1.1//EN" "http://www.w3.org/Graphics/SVG/1.1/DTD/svg11.dtd">
<svg version="1.1" id="Layer_1" xmlns="http://www.w3.org/2000/svg" xmlns:xlink="http://www.w3.org/1999/xlink" x="0px" y="0px"
	 width="500px" height="500px" viewBox="0 0 500 500" enable-background="new 0 0 500 500" xml:space="preserve">
<g>
	<path fill="#6F6F6F" d="M155.69,229.281h-14.815v51.791h15.811c13.57,0,23.281-10.458,23.281-25.771
		C179.967,239.863,169.758,229.281,155.69,229.281z"/>
	<path fill="#6F6F6F" d="M471.49,186.945h-40.726v44.44H400.88l-60.86-99.99h-91.95V96.21h66.036V66.59H141.9v29.62h66.66v35.185
		h-81.475l-43.21,46.295H56.73v53.695H34.515v-64.8H6.74v172.19h27.775v-59.246H56.73v37.016h27.755l81.49,90.75h239.77V357.3
		h25.024v49.995h40.726c0,0,22.225-5.535,22.225-110.165C493.715,297.135,495.555,186.945,471.49,186.945z M155.317,298.75h-36.602
		v-87.147h37.473c27.39,0,46.313,17.678,46.313,43.573C202.501,280.947,183.329,298.75,155.317,298.75z M251.68,298.75h-22.16
		v-69.345H203.5v-17.927h74.449v17.927h-26.27V298.75z M323.018,299.746c-26.269,0-45.814-19.297-45.814-44.818
		c0-25.149,20.044-44.072,46.563-44.072c12.947,0,26.393,5.727,35.107,14.69l-12.823,15.189c-5.727-6.972-14.192-11.33-21.911-11.33
		c-13.819,0-24.277,10.956-24.277,25.272c0,14.566,10.458,25.646,24.277,25.646c7.345,0,15.811-3.983,21.911-10.209l12.947,13.695
		C349.66,293.396,335.841,299.746,323.018,299.746z"/>
</g>
</svg>
