<?xml version="1.0" encoding="utf-8"?>
<!-- Generator: Adobe Illustrator 16.0.0, SVG Export Plug-In . SVG Version: 6.00 Build 0)  -->
<!DOCTYPE svg PUBLIC "-//W3C//DTD SVG 1.1//EN" "http://www.w3.org/Graphics/SVG/1.1/DTD/svg11.dtd">
<svg version="1.1" id="Layer_1" xmlns="http://www.w3.org/2000/svg" xmlns:xlink="http://www.w3.org/1999/xlink" x="0px" y="0px"
	 width="512px" height="512px" viewBox="0 0 512 512" enable-background="new 0 0 512 512" xml:space="preserve">
<g opacity="0.8">
	<path fill="#6F6F6F" d="M469.742,153.975c0.702-0.614,1.394-1.247,2.062-1.916l27.841-27.841c16.475-16.474,16.475-43.185,0-59.659
		L447.94,12.854c-16.476-16.475-43.186-16.475-59.657,0L360.44,40.695c-0.668,0.669-1.302,1.361-1.914,2.063L469.742,153.975z"/>
	<polygon fill="#6F6F6F" points="75.074,437.429 130.06,492.414 65.28,502.207 0.501,512 10.294,447.22 20.086,382.441 	"/>
	<polygon fill="#6F6F6F" points="375.357,89.418 81.039,383.732 65.13,367.825 359.448,73.509 343.538,57.6 33.313,367.825 
		144.676,479.188 454.902,168.963 	"/>
</g>
</svg>
