<?xml version="1.0" encoding="utf-8"?>
<!-- Generator: Adobe Illustrator 16.0.0, SVG Export Plug-In . SVG Version: 6.00 Build 0)  -->
<!DOCTYPE svg PUBLIC "-//W3C//DTD SVG 1.1//EN" "http://www.w3.org/Graphics/SVG/1.1/DTD/svg11.dtd">
<svg version="1.1" id="Capa_1" xmlns="http://www.w3.org/2000/svg" xmlns:xlink="http://www.w3.org/1999/xlink" x="0px" y="0px"
	 width="512px" height="512px" viewBox="0 0 512 512" enable-background="new 0 0 512 512" xml:space="preserve">
<g>
	<path fill="#FFFFFF" d="M419.661,164.208C458.482,191.723,490.346,228.753,512,272c-47.561,94.979-144.343,159.999-256,159.999
		c-31.284,0-61.396-5.105-89.589-14.542l38.978-38.978C221.918,382.129,238.875,384,256,384c44.781,0,88.426-12.744,126.222-36.852
		c30.081-19.189,55.573-44.891,74.719-75.15c-18.525-29.283-43.009-54.274-71.824-73.247L419.661,164.208z M256,364.999
		c-11.362,0-22.375-1.487-32.864-4.267l156.591-156.592C382.51,214.627,384,225.638,384,237
		C384,307.691,326.691,364.999,256,364.999z M480,16h-26.868L343.325,125.806C315.786,116.844,286.447,112,256,112
		C144.34,112,47.559,177.021,0,272c21.329,42.597,52.564,79.155,90.597,106.535L0,469.13V496H26.87L480,42.869V16z M208,173
		c24.022,0,43.923,17.646,47.446,40.685l-54.761,54.762c-23.037-3.524-40.684-23.425-40.684-47.447C160,194.49,181.49,173,208,173z
		 M55.058,272c19.146-30.262,44.637-55.962,74.717-75.148c1.959-1.25,3.938-2.46,5.929-3.65C130.725,206.865,128,221.613,128,237
		c0,29.261,9.826,56.225,26.349,77.782l-29.275,29.275C97.038,325.234,73.197,300.67,55.058,272z"/>
</g>
</svg>
