<?xml version="1.0" encoding="utf-8"?>
<!-- Generator: Adobe Illustrator 16.0.0, SVG Export Plug-In . SVG Version: 6.00 Build 0)  -->
<!DOCTYPE svg PUBLIC "-//W3C//DTD SVG 1.1//EN" "http://www.w3.org/Graphics/SVG/1.1/DTD/svg11.dtd">
<svg version="1.1" id="Capa_1" xmlns="http://www.w3.org/2000/svg" xmlns:xlink="http://www.w3.org/1999/xlink" x="0px" y="0px"
	 width="512px" height="512px" viewBox="0 0 512 512" enable-background="new 0 0 512 512" xml:space="preserve">
<g>
	<path fill="#6F6F6F" d="M256,112C144.341,112,47.559,177.021,0,272c47.559,94.979,144.341,160,256,160
		c111.656,0,208.439-65.021,256-160C464.441,177.021,367.656,112,256,112z M382.225,196.852
		c30.082,19.187,55.572,44.887,74.721,75.148c-19.146,30.261-44.641,55.961-74.721,75.148C344.428,371.257,300.779,384,256,384
		c-44.78,0-88.428-12.743-126.225-36.852C99.695,327.96,74.205,302.26,55.058,272c19.146-30.262,44.637-55.962,74.717-75.148
		c1.959-1.25,3.938-2.461,5.929-3.65C130.725,206.866,128,221.613,128,237c0,70.691,57.308,128,128,128c70.691,0,128-57.309,128-128
		c0-15.387-2.725-30.134-7.703-43.799C378.285,194.39,380.266,195.602,382.225,196.852z M256,221c0,26.51-21.49,48-48,48
		s-48-21.49-48-48s21.49-48,48-48S256,194.49,256,221z"/>
</g>
</svg>
