<?xml version="1.0" encoding="iso-8859-1"?>
<!-- Generator: Adobe Illustrator 16.0.0, SVG Export Plug-In . SVG Version: 6.00 Build 0)  -->
<!DOCTYPE svg PUBLIC "-//W3C//DTD SVG 1.1//EN" "http://www.w3.org/Graphics/SVG/1.1/DTD/svg11.dtd">
<svg xmlns="http://www.w3.org/2000/svg" xmlns:xlink="http://www.w3.org/1999/xlink" version="1.1" id="Capa_1" x="0px" y="0px" width="512px" height="512px" viewBox="0 0 512 512" style="enable-background:new 0 0 512 512;" xml:space="preserve">
<g>
	<path d="M512,0v192l-69.131-69.13l-106,106l-53.739-53.74l106.001-106L320,0H512z M122.87,69.13l106,106l-53.74,53.74l-106-106   L0,192V0h192L122.87,69.13z M442.869,389.13L512,320v192H320l69.131-69.13l-106.001-106l53.739-53.74L442.869,389.13z    M228.87,336.87l-106,106L192,512H0V320l69.13,69.13l106-106L228.87,336.87z" fill="#6f6f6f"/>
</g>
<g>
</g>
<g>
</g>
<g>
</g>
<g>
</g>
<g>
</g>
<g>
</g>
<g>
</g>
<g>
</g>
<g>
</g>
<g>
</g>
<g>
</g>
<g>
</g>
<g>
</g>
<g>
</g>
<g>
</g>
</svg>
