<?xml version="1.0" encoding="utf-8"?>
<!-- Generator: Adobe Illustrator 16.0.0, SVG Export Plug-In . SVG Version: 6.00 Build 0)  -->
<!DOCTYPE svg PUBLIC "-//W3C//DTD SVG 1.1//EN" "http://www.w3.org/Graphics/SVG/1.1/DTD/svg11.dtd">
<svg version="1.1" id="Capa_1" xmlns="http://www.w3.org/2000/svg" xmlns:xlink="http://www.w3.org/1999/xlink" x="0px" y="0px"
	 width="512px" height="512px" viewBox="0 0 512 512" enable-background="new 0 0 512 512" xml:space="preserve">
<path fill="#FFFFFF" d="M256.008,0C115.055,0,0.388,114.684,0.388,255.606c0,140.953,114.667,255.621,255.62,255.621
	c140.943,0,255.602-114.668,255.602-255.621C511.61,114.684,396.951,0,256.008,0z M490.381,255.606
	c0,29.654-5.534,57.945-15.575,84.062c-8.746-4.574-50.539-26.354-66.753-30.961c-80.882-22.902-68.878,20.453-86.372,23.701
	c-40.364,7.395-39.091-11.629-37.517-21.576c0.994-6.309,3.851-13.84,0.39-18.414c-3.084-4.029-33.168-3.4-33.168-3.4
	s-1.942,0.34-0.186-4.541c2.997-8.246,11.491-27.408,5.114-31.638c-9.803-6.495-20.574,26.282-31.52,21.845
	c-6.954-2.822-16.977-2.006-21.019-9.607c-2.69-5.049-5.829-4.471-7.567-11.051c-3.8-14.313,1.264-35.914,5.369-42.681
	c2.575-4.242,9.75-6.011,12.871-8.451c2.368-1.845,4.157-6.648,7.023-7.957c8.999-4.148,30.051,2.465,40.091,1.717
	c2.708-0.221,7.188-2.321,9.737-1.582c3.945,1.105,8.537,7.38,9.762,11.163c1.138,3.494,0.492,10.789,2.218,14.146
	c0.494,0.969,4.106,4.14,5.688,5.815c2.823,2.983,3.826,5.45,6.189,4.617c13.125-4.617-0.477-22.819-2.908-29.951
	c-1.147-3.307-2.661-12.489-0.629-16.161c4.599-8.331,22.411-16.663,25.071-23.48c0.765-1.965-3.579-5.542-3.614-7.643
	c-0.016-2.984,4.941-9.012,6.138-11.741c1.292-3.001-1.774-9.462,3.521-15.855c8.561-10.261,8.034-11.366,15.669-16.739
	c2.882-2.007,13.831-4.837,12.633-8.264c-1.796-5.067-16.469-9.155-16.23-14.146c0.12-2.849,9.718-2.813,18.687,3.553
	c8.247,5.883,20.165,10.576,23.294,9.513c7.116-2.38-7.532-11.452-16.271-14.911c-5.306-2.083-4.37-8.323-12.564-14.249
	c-3.768-2.711-12.72-5.678-16.689-8.102c-4.344-2.636-13.618-10.193-18.304-12.2c-3.842-1.656-7.769-0.289-14.011-1.93
	c-3.874-1.02-11.306-4.021-15.155-5.058c-5.026-1.369-15.551,0.067-15.551,0.067s17.36,7.482,12.6,18.95
	c-3.104,7.499-17.727,4.132-22.908,2.457c-3.855-1.242-11.387-4.43-15.05-5.781c-2.662-0.97-12.888-2.644-14.611-4.634
	c-1.788-2.133,1.808-7.667,5.506-10.992c3.036-2.729,10.346-5.577,14.132-5.628c2.727-0.016,7.929,2.967,10.619,2.525
	c2.488-0.391,5.54-5.968,8.08-6.053c9.599-0.306,32.816,10.193,35.928,8.195c2.806-1.769-3.349-9.922-6.129-11.741
	c-4.413-2.899-13.986-6.206-23.063-8.953C394.52,30.766,490.381,132.205,490.381,255.606z M21.607,255.606
	c0-80.036,40.331-150.827,101.748-193.121c-1.584,3.154-3.544,7.482-3.753,10.006c-0.289,3.681,3.482,11.409,1.777,14.665
	c-9.36,17.675-22.282,29.262-25.261,40.909c-6.309,24.748,4.531,28.207,11.111,48.491c3.289,10.108,0.514,17.437,6.307,34.363
	c5.47,15.872,10.465,17.181,11.133,16.909c2.52-1.003-6.002-18.916-1.263-19.681c4.535-0.773,5.573,9.182,9.837,14.384
	c24.253,29.518,11.676,28.429,16.174,37.632c10.601,21.711,28.416,19.432,38.387,24.279c7.826,3.74,6.427,5.729,9.598,6.035
	c8.217,0.783,14.402-5.15,19.702-1.529c2.423,1.701,3.002,8.178,6.054,10.117c12.378,7.803,23.642,5.287,30.308,9.572
	c9.359,6.07,17.743,22.035,30.325,27.832c21.976,10.084,27.187,1.6,34.327,5.783c6.07,3.551,5.831,17.188,0.272,26.014
	c-4.072,6.443-13.653,7.26-16.927,20.691c-3.614,14.811,7.618,48.764,19.196,59.391c10.601,9.725,20.303,10.236,24.254,10.848
	c1.114,0.17-8.766,11.631-15.19,18.924c-23.194,7.738-47.982,11.885-73.716,11.885C126.765,490.006,21.607,384.879,21.607,255.606z"
	/>
</svg>
