<?xml version="1.0" encoding="utf-8"?>
<!-- Generator: Adobe Illustrator 16.0.0, SVG Export Plug-In . SVG Version: 6.00 Build 0)  -->
<!DOCTYPE svg PUBLIC "-//W3C//DTD SVG 1.1//EN" "http://www.w3.org/Graphics/SVG/1.1/DTD/svg11.dtd">
<svg version="1.1" id="Capa_1" xmlns="http://www.w3.org/2000/svg" xmlns:xlink="http://www.w3.org/1999/xlink" x="0px" y="0px"
	 width="512px" height="512px" viewBox="0 0 512 512" enable-background="new 0 0 512 512" xml:space="preserve">
<g>
	<path fill="#9CC602" d="M314.02,362.75h-44.17l0,0h-27.804l0,0h-44.17c-9.757,0-17.836,9.501-17.836,21.249v77.251
		c0,11.626,7.974,21.25,17.836,21.25h116.04c9.757,0,17.836-9.5,17.836-21.25v-77.251C331.855,372.375,323.777,362.75,314.02,362.75
		z"/>
	<path fill="#6F6F6F" d="M494.164,362.75h-44.171l0,0H422.19l0,0H378.02c-9.757,0-17.836,9.501-17.836,21.249v77.251
		c0,11.626,7.974,21.25,17.836,21.25h116.145c9.757,0,17.836-9.5,17.836-21.25v-77.251
		C511.896,372.375,503.921,362.75,494.164,362.75z"/>
	<path fill="#FAB444" d="M133.98,362.75H89.81l0,0H62.006l0,0h-44.17C8.079,362.75,0,372.251,0,383.999v77.251
		c0,11.626,7.974,21.25,17.836,21.25h116.04c9.757,0,17.836-9.5,17.836-21.25v-77.251C151.711,372.375,143.738,362.75,133.98,362.75
		z"/>
	<path fill="#6F6F6F" d="M436.249,263.5H269.85v-54.75h78.163c11.856,0,21.613-11.625,21.613-25.75V55.25
		c0-14.125-9.757-25.75-21.613-25.75h-71.239h-41.652h-71.239c-11.855,0-21.613,11.625-21.613,25.75v127.875
		c0,14.125,9.757,25.75,21.613,25.75h78.164v54.75H75.856c-7.659,0-13.85,7.375-13.85,16.5v53.625H89.81v-37.126h152.341v37.001
		h27.803v-37.001h152.341v37.001h27.804V280C450.099,270.875,443.908,263.5,436.249,263.5z"/>
</g>
</svg>
