<?xml version="1.0" encoding="utf-8"?>
<!-- Generator: Adobe Illustrator 16.0.0, SVG Export Plug-In . SVG Version: 6.00 Build 0)  -->
<!DOCTYPE svg PUBLIC "-//W3C//DTD SVG 1.1//EN" "http://www.w3.org/Graphics/SVG/1.1/DTD/svg11.dtd">
<svg version="1.1" id="Capa_1" xmlns="http://www.w3.org/2000/svg" xmlns:xlink="http://www.w3.org/1999/xlink" x="0px" y="0px" width="512px" height="512px" viewBox="0 0 512 512" enable-background="new 0 0 512 512" xml:space="preserve">
<g>
	<g id="history">
		<path opacity="0.9" fill="#6F6F6F" stroke="#6F6F6F" stroke-width="10" stroke-miterlimit="10" enable-background="new    " d="
			M269.899,18c-87.721,0-165.417,47.62-205.518,120.304L6.737,80.658v162.911h162.911l-70.176-70.177
			c32.581-62.658,95.239-105.265,170.428-105.265c102.759,0,187.974,85.214,187.974,187.973s-85.215,187.974-187.974,187.974
			c-82.708,0-150.378-52.632-177.948-125.316H39.318C66.888,419.012,159.623,494.2,269.899,494.2
			C402.735,494.2,508,386.429,508,256.1C508,125.771,400.229,18,269.899,18z M232.305,143.316v127.821l117.796,70.178l20.052-32.582
			l-100.254-60.151V143.316H232.305z"/>
	</g>
</g>
</svg>
