<?xml version="1.0" encoding="utf-8"?>
<!-- Generator: Adobe Illustrator 16.0.0, SVG Export Plug-In . SVG Version: 6.00 Build 0)  -->
<!DOCTYPE svg PUBLIC "-//W3C//DTD SVG 1.1//EN" "http://www.w3.org/Graphics/SVG/1.1/DTD/svg11.dtd">
<svg version="1.1" id="Capa_1" xmlns="http://www.w3.org/2000/svg" xmlns:xlink="http://www.w3.org/1999/xlink" x="0px" y="0px"
	 width="512px" height="512px" viewBox="0 0 512 512" enable-background="new 0 0 512 512" xml:space="preserve">
<g>
	<path fill="#FFFFFF" d="M362.338,456.747l-7.154,29.244c-21.462,8.471-38.605,14.918-51.371,19.351
		c-12.779,4.446-27.629,6.658-44.548,6.658c-25.981,0-46.19-6.364-60.604-19.007c-14.413-12.692-21.622-28.776-21.622-48.287
		c0-7.554,0.523-15.322,1.61-23.237c1.097-7.925,2.841-16.851,5.227-26.826l26.821-94.933c2.386-9.09,4.415-17.703,6.039-25.849
		c1.647-8.094,2.441-15.541,2.441-22.246c0-12.123-2.51-20.604-7.507-25.371c-4.997-4.754-14.533-7.167-28.689-7.167
		c-6.934,0-14.06,1.11-21.324,3.258c-7.296,2.157-13.532,4.24-18.768,6.177l7.172-29.267c17.57-7.154,34.365-13.28,50.431-18.364
		c16.065-5.098,31.245-7.649,45.603-7.649c25.803,0,45.713,6.236,59.696,18.708c13.981,12.481,20.97,28.662,20.97,48.6
		c0,4.125-0.459,11.394-1.445,21.782c-0.964,10.412-2.758,19.953-5.373,28.63l-26.707,94.552
		c-2.188,7.594-4.157,16.276-5.868,26.046c-1.768,9.705-2.611,17.12-2.611,22.095c0,12.555,2.799,21.126,8.41,25.683
		c5.654,4.557,15.392,6.824,29.222,6.824c6.493,0,13.881-1.152,22.091-3.414C352.664,460.473,358.635,458.486,362.338,456.747z
		 M369.11,59.792c0,16.474-6.208,30.543-18.686,42.111c-12.444,11.61-27.44,17.419-44.983,17.419
		c-17.598,0-32.631-5.809-45.217-17.419c-12.564-11.573-18.86-25.637-18.86-42.111c0-16.441,6.296-30.534,18.86-42.249
		C272.788,5.846,287.848,0,305.441,0c17.538,0,32.539,5.86,44.983,17.543C362.911,29.258,369.11,43.354,369.11,59.792z"/>
</g>
</svg>
