<?xml version="1.0" encoding="utf-8"?>
<!-- Generator: Adobe Illustrator 16.0.0, SVG Export Plug-In . SVG Version: 6.00 Build 0)  -->
<!DOCTYPE svg PUBLIC "-//W3C//DTD SVG 1.1//EN" "http://www.w3.org/Graphics/SVG/1.1/DTD/svg11.dtd">
<svg version="1.1" id="Capa_1" xmlns="http://www.w3.org/2000/svg" xmlns:xlink="http://www.w3.org/1999/xlink" x="0px" y="0px"
	 width="512px" height="512px" viewBox="0 0 512 512" enable-background="new 0 0 512 512" xml:space="preserve">
<g opacity="0.8">
	<path fill="#6F6F6F" d="M350.814,0C261.689,0,189.63,72.059,189.63,161.185c0,18.963,3.792,37.926,9.481,56.889L0,417.186V512
		h94.815v-56.889h56.889v-56.89h56.889l85.333-85.333c17.066,5.688,36.03,9.481,56.89,9.481C439.941,322.37,512,250.31,512,161.184
		S439.94,0,350.814,0z M398.223,170.667c-32.237,0-56.89-24.651-56.89-56.889c0-32.238,24.651-56.889,56.89-56.889
		c32.237,0,56.89,24.651,56.89,56.889C455.111,146.015,430.46,170.667,398.223,170.667z"/>
</g>
</svg>
