<?xml version="1.0" encoding="utf-8"?>
<!-- Generator: Adobe Illustrator 16.0.0, SVG Export Plug-In . SVG Version: 6.00 Build 0)  -->
<!DOCTYPE svg PUBLIC "-//W3C//DTD SVG 1.1//EN" "http://www.w3.org/Graphics/SVG/1.1/DTD/svg11.dtd">
<svg version="1.1" id="Capa_1" xmlns="http://www.w3.org/2000/svg" xmlns:xlink="http://www.w3.org/1999/xlink" x="0px" y="0px"
	 width="500px" height="500px" viewBox="0 0 500 500" enable-background="new 0 0 500 500" xml:space="preserve">
<g>
	<path fill="#FFFFFF" d="M25,200c-13.75,0-25,11.25-25,25v250c0,13.75,11.25,25,25,25h283.333c13.751,0,25-11.25,25-25V225
		c0-13.75-11.249-25-25-25l0,0l0,0H25z M200,433.333h-66.667l14.5-72.5c-8.754-6.007-14.5-16.08-14.5-27.5
		c0-18.409,14.924-33.333,33.333-33.333S200,314.924,200,333.333c0,11.42-5.746,21.493-14.5,27.5L200,433.333z"/>
</g>
<g>
	<path fill="#FFFFFF" d="M200,0h-66.667c-55.142,0-100,44.859-100,100v100H100l0,0V100c0-18.38,14.953-33.333,33.333-33.333H200
		c18.38,0,33.333,14.953,33.333,33.333v100H300V100C300,44.859,255.141,0,200,0z"/>
</g>
</svg>
