<?xml version="1.0" encoding="iso-8859-1"?>
<!-- Generator: Adobe Illustrator 16.0.0, SVG Export Plug-In . SVG Version: 6.00 Build 0)  -->
<!DOCTYPE svg PUBLIC "-//W3C//DTD SVG 1.1//EN" "http://www.w3.org/Graphics/SVG/1.1/DTD/svg11.dtd">
<svg xmlns="http://www.w3.org/2000/svg" xmlns:xlink="http://www.w3.org/1999/xlink" version="1.1" id="Capa_1" x="0px" y="0px" width="512px" height="512px" viewBox="0 0 896 896" style="enable-background:new 0 0 896 896;" xml:space="preserve">
<g>
	<g>
		<path d="M884.927,356.016L738.364,209.453c-14.656-14.656-65.078-14.656-65.078,15.861v335.562    c0,30.627,50.422,30.627,65.078,15.859L884.927,430.28C899.69,415.516,899.69,370.672,884.927,356.016z" fill="#ffffff"/>
		<path d="M448,0h-336h-112v112v52.499V598.5V672l336,224V784h112c61.795,0,112.002-50.203,112.002-112V112    C560.003,50.094,509.794,0,448,0z M447.958,672.002h-112v-448L167.958,112h280V672.002z" fill="#ffffff"/>
	</g>
</g>
<g>
</g>
<g>
</g>
<g>
</g>
<g>
</g>
<g>
</g>
<g>
</g>
<g>
</g>
<g>
</g>
<g>
</g>
<g>
</g>
<g>
</g>
<g>
</g>
<g>
</g>
<g>
</g>
<g>
</g>
</svg>
