<?xml version="1.0" encoding="utf-8"?>
<!-- Generator: Adobe Illustrator 16.0.0, SVG Export Plug-In . SVG Version: 6.00 Build 0)  -->
<!DOCTYPE svg PUBLIC "-//W3C//DTD SVG 1.1//EN" "http://www.w3.org/Graphics/SVG/1.1/DTD/svg11.dtd">
<svg version="1.1" id="Capa_1" xmlns="http://www.w3.org/2000/svg" xmlns:xlink="http://www.w3.org/1999/xlink" x="0px" y="0px"
	 width="512px" height="512px" viewBox="0 0 512 512" enable-background="new 0 0 512 512" xml:space="preserve">
<g>
	<path fill="#6F6F6F" d="M273.253,200.904l-37.382-37.382c15.915-43.082,6.602-93.372-28.004-127.977
		C179.179,6.854,139.702-4.461,102.495,1.579c-4.1,0.666-7.485,3.56-8.762,7.512c-1.278,3.951-0.232,8.286,2.704,11.223
		l25.592,25.592c20.843,20.841,20.843,54.634,0,75.475c-20.841,20.841-54.634,20.841-75.476,0L20.962,95.789
		c-2.935-2.936-7.27-3.974-11.219-2.697c-3.949,1.275-6.851,4.655-7.517,8.752c-6.039,37.209,5.275,76.684,33.966,105.375
		c34.099,34.097,83.432,43.668,126.086,28.717l17.235,17.234c8.007-7.965,18.629-12.351,29.926-12.351
		c6.818,0,13.389,1.595,19.287,4.611L273.253,200.904z"/>
	<path fill="#6F6F6F" d="M289.566,363.224l133.657,133.655c20.16,20.16,52.846,20.16,73.006,0c20.159-20.16,20.159-52.846,0-73.006
		L341.186,268.832l-44.339,44.34C305.477,329.211,303.047,349.672,289.566,363.224z"/>
	<path fill="#6F6F6F" d="M45.858,423.873c-20.159,20.16-20.159,52.846,0,73.006c20.16,20.16,52.846,20.16,73.006,0l152.099-152.098
		c6.342-6.343,6.342-16.623,0-22.966l-9.907-9.907l164.872-164.872l7.706,7.708c7.026,7.029,18.665,6.148,24.558-1.853
		l49.539-67.268c4.76-6.462,4.084-15.435-1.592-21.112l-28.563-28.563c-5.676-5.677-14.646-6.353-21.111-1.593l-67.268,49.541
		c-8.004,5.894-8.875,17.539-1.854,24.558l7.706,7.707L230.178,281.032l-9.256-9.255c-3.17-3.171-7.326-4.757-11.482-4.757
		c-4.155,0-8.313,1.586-11.482,4.757L45.858,423.873z"/>
</g>
</svg>
