<?xml version="1.0" encoding="utf-8"?>
<!-- Generator: Adobe Illustrator 16.0.0, SVG Export Plug-In . SVG Version: 6.00 Build 0)  -->
<!DOCTYPE svg PUBLIC "-//W3C//DTD SVG 1.1//EN" "http://www.w3.org/Graphics/SVG/1.1/DTD/svg11.dtd">
<svg version="1.1" id="Capa_1" xmlns="http://www.w3.org/2000/svg" xmlns:xlink="http://www.w3.org/1999/xlink" x="0px" y="0px"
	 width="512px" height="512px" viewBox="0 0 512 512" enable-background="new 0 0 512 512" xml:space="preserve">
<path fill="#6F6F6F" d="M106.597,363.535L16,454.129V481H42.87L496,27.868V1h-26.868L359.325,110.805"/>
<g>
	<path fill="#6F6F6F" d="M160.597,358.535l111.787-111.787c-5.308,1.019-10.78,1.572-16.384,1.572c-47.725,0-86.4-38.681-86.4-86.4
		c0-47.718,38.675-86.4,86.4-86.4c47.712,0,86.4,38.682,86.4,86.4c0,5.604-0.553,11.076-1.571,16.382l67.463-67.463
		C387.547,46.531,327.211,0,256,0C167.623,0,96,71.642,96,160c0,64.904,28.881,138.193,62.103,201.029L160.597,358.535z"/>
	<path fill="#6F6F6F" d="M188.551,414.318C223.957,472.098,256,512,256,512s140.953-175.519,158.262-323.393L188.551,414.318z"/>
</g>
</svg>
