<?xml version="1.0" encoding="utf-8"?>
<!-- Generator: Adobe Illustrator 16.0.0, SVG Export Plug-In . SVG Version: 6.00 Build 0)  -->
<!DOCTYPE svg PUBLIC "-//W3C//DTD SVG 1.1//EN" "http://www.w3.org/Graphics/SVG/1.1/DTD/svg11.dtd">
<svg version="1.1" id="Capa_1" xmlns="http://www.w3.org/2000/svg" xmlns:xlink="http://www.w3.org/1999/xlink" x="0px" y="0px"
	 width="512px" height="512px" viewBox="0 0 512 512" enable-background="new 0 0 512 512" xml:space="preserve">
<path fill="#6F6F6F" d="M248.552,397.137c0-82.033,66.501-148.534,148.534-148.534c0.735,0,1.467,0.017,2.199,0.028V39.194
	C399.285,17.637,381.648,0,360.093,0H85.739C64.183,0,46.545,17.637,46.545,39.194V291.99c0,13.719,5.879,25.476,17.637,33.315
	l158.733,105.821l26.53-17.687C248.861,408.085,248.552,402.647,248.552,397.137z M183.722,293.95l-97.983-97.983l27.436-27.435
	l70.548,70.548L332.657,90.145l27.436,27.435L183.722,293.95z"/>
<path fill="#9CC602" d="M315.828,315.88c-44.807,44.807-44.807,117.711-0.002,162.516s117.711,44.807,162.518,0
	s44.806-117.711,0-162.518C433.537,271.072,360.634,271.073,315.828,315.88z M468.299,379.801v34.675l-53.879-0.001l0.001,53.879
	h-34.675v-53.878h-53.877l-0.001-34.675l53.88,0.001l-0.002-53.879h34.676l-0.002,53.879L468.299,379.801z"/>
</svg>
