<?xml version="1.0" encoding="utf-8"?>
<!-- Generator: Adobe Illustrator 16.0.0, SVG Export Plug-In . SVG Version: 6.00 Build 0)  -->
<!DOCTYPE svg PUBLIC "-//W3C//DTD SVG 1.1//EN" "http://www.w3.org/Graphics/SVG/1.1/DTD/svg11.dtd">
<svg version="1.1" id="Layer_1" xmlns="http://www.w3.org/2000/svg" xmlns:xlink="http://www.w3.org/1999/xlink" x="0px" y="0px"
	 width="500px" height="500px" viewBox="0 0 500 500" enable-background="new 0 0 500 500" xml:space="preserve">
<g>
	<g>
		<path fill="#6F6F6F" d="M273.033,4.682c-5.772-2.34-11.694-3.715-17.589-4.208l-13.13,0.41
			c-20.522,2.85-39.015,16.213-47.366,36.792C182.494,68.35,62.056,495.38,72.153,499.483
			c11.783,4.786,221.419-386.041,233.874-416.717C318.475,52.097,303.703,17.136,273.033,4.682z M250.138,82.723
			c-11.921,0-21.587-9.665-21.587-21.587s9.666-21.587,21.587-21.587c11.922,0,21.587,9.665,21.587,21.587
			S262.06,82.723,250.138,82.723z"/>
		<path fill="#6F6F6F" d="M324.691,85.207c-0.793,5.25-2.201,10.441-4.247,15.487c-4.159,10.253-27.737,55.761-57.858,112.182
			c66.773,124.98,160.669,289.795,168.682,286.541C439.994,495.874,357.029,191.816,324.691,85.207z"/>
	</g>
</g>
</svg>
