<?xml version="1.0" encoding="utf-8"?>
<!-- Generator: Adobe Illustrator 16.0.0, SVG Export Plug-In . SVG Version: 6.00 Build 0)  -->
<!DOCTYPE svg PUBLIC "-//W3C//DTD SVG 1.1//EN" "http://www.w3.org/Graphics/SVG/1.1/DTD/svg11.dtd">
<svg version="1.1" id="Capa_1" xmlns="http://www.w3.org/2000/svg" xmlns:xlink="http://www.w3.org/1999/xlink" x="0px" y="0px"
	 width="512px" height="512px" viewBox="0 0 512 512" enable-background="new 0 0 512 512" xml:space="preserve">
<path fill="#6F6F6F" d="M270.576,319.283c26.153-42.409,73.027-70.681,126.51-70.681c5.963,0,11.84,0.362,17.619,1.045L491.561,0
	L0,275.621h256.089L270.576,319.283z"/>
<path fill="#9CC602" d="M315.828,315.88c-44.807,44.807-44.807,117.711-0.002,162.516s117.711,44.807,162.518,0
	s44.806-117.711,0-162.518C433.537,271.072,360.634,271.073,315.828,315.88z M468.299,379.801v34.675l-53.879-0.001l0.001,53.879
	h-34.675v-53.878h-53.877l-0.001-34.675l53.88,0.001l-0.002-53.879h34.676l-0.002,53.879L468.299,379.801z"/>
</svg>
