<?xml version="1.0" encoding="utf-8"?>
<!-- Generator: Adobe Illustrator 16.0.0, SVG Export Plug-In . SVG Version: 6.00 Build 0)  -->
<!DOCTYPE svg PUBLIC "-//W3C//DTD SVG 1.1//EN" "http://www.w3.org/Graphics/SVG/1.1/DTD/svg11.dtd">
<svg version="1.1" id="Layer_1" xmlns="http://www.w3.org/2000/svg" xmlns:xlink="http://www.w3.org/1999/xlink" x="0px" y="0px"
	 width="512px" height="512px" viewBox="0 0 512 512" enable-background="new 0 0 512 512" xml:space="preserve">
<g>
	<g>
		<path fill="#6F6F6F" d="M128,150.147H25.601c-15.36,0-25.601,10.241-25.601,25.6v153.599c0,15.36,10.241,25.601,25.601,25.601
			h102.401c15.359,0,25.601-10.24,25.601-25.601V175.748C153.6,160.389,143.359,150.147,128,150.147z M102.401,303.745H51.199
			V201.347h51.199v102.398H102.401z"/>
		<path fill="#6F6F6F" d="M358.398,175.748c0-15.359-10.239-25.6-25.601-25.6H230.399c-15.36,0-25.601,10.241-25.601,25.6v153.599
			c0,15.36,10.24,25.601,25.601,25.601h102.401c15.358,0,25.601-10.24,25.601-25.601V175.748H358.398z M307.199,303.745h-51.198
			V201.347h51.198V303.745z"/>
		<path fill="#6F6F6F" d="M496.639,151.208c-10.237-5.12-20.478,0-25.598,5.119l-51.2,51.199c-10.242,10.24-10.242,25.6,0,35.84
			c10.242,10.243,25.602,10.24,35.839,0l5.121-5.116v92.157c0,15.36,10.24,25.601,25.601,25.601
			c15.358,0,25.599-10.24,25.599-25.601V176.808C511.997,166.568,506.879,156.327,496.639,151.208z"/>
	</g>
</g>
</svg>
