<?xml version="1.0" encoding="utf-8"?>
<!-- Generator: Adobe Illustrator 16.0.0, SVG Export Plug-In . SVG Version: 6.00 Build 0)  -->
<!DOCTYPE svg PUBLIC "-//W3C//DTD SVG 1.1//EN" "http://www.w3.org/Graphics/SVG/1.1/DTD/svg11.dtd">
<svg version="1.1" id="Layer_1" xmlns="http://www.w3.org/2000/svg" xmlns:xlink="http://www.w3.org/1999/xlink" x="0px" y="0px"
	 width="512px" height="512px" viewBox="0 0 512 512" enable-background="new 0 0 512 512" xml:space="preserve">
<path fill="#FFFFFF" d="M490.667,213.333H309.333c-6.399,0-10.667-4.267-10.667-10.667V21.333c0-12.8-8.533-21.333-21.332-21.333
	h-42.667c-12.8,0-21.333,8.533-21.333,21.333v181.333c0,6.4-4.267,10.667-10.667,10.667H21.333C8.533,213.333,0,221.867,0,234.667
	v42.667c0,12.799,8.533,21.332,21.333,21.332h181.333c6.4,0,10.667,4.268,10.667,10.668v181.333c0,12.8,8.533,21.333,21.333,21.333
	h42.667c12.799,0,21.332-8.533,21.332-21.333V309.334c0-6.4,4.268-10.668,10.667-10.668h181.334c12.8,0,21.333-8.533,21.333-21.332
	v-42.667C512,221.867,503.467,213.333,490.667,213.333z"/>
</svg>
