<?xml version="1.0" encoding="utf-8"?>
<!-- Generator: Adobe Illustrator 16.0.0, SVG Export Plug-In . SVG Version: 6.00 Build 0)  -->
<!DOCTYPE svg PUBLIC "-//W3C//DTD SVG 1.1//EN" "http://www.w3.org/Graphics/SVG/1.1/DTD/svg11.dtd">
<svg version="1.1" id="Capa_1" xmlns="http://www.w3.org/2000/svg" xmlns:xlink="http://www.w3.org/1999/xlink" x="0px" y="0px"
	 width="512px" height="512px" viewBox="0 0 512 512" enable-background="new 0 0 512 512" xml:space="preserve">
<g>
	<path fill="#FAB444" stroke="#6F6F6F" stroke-linecap="round" stroke-linejoin="round" stroke-miterlimit="10" d="M284.27,339.829
		c-2.125-1.269-4.033-1.962-5.61-1.962c-157.569,0-193.895-80.494-205.874-99.824C70.819,234.684,70,234.889,70,238.74
		c0,124.558,89.483,201.511,208.658,201.511c1.947,0,3.814-0.053,5.611-0.152v71.821l157.304-122.861L284.27,266.198V339.829z"/>
	<path fill="#6F6F6F" stroke="#6F6F6F" stroke-linecap="round" stroke-linejoin="round" stroke-miterlimit="10" d="M222.303,0
		L65,122.861l157.302,122.861v-73.619c2.117,1.26,4.018,1.95,5.59,1.95c157.588,0,193.893,80.495,205.874,99.824
		c1.986,3.357,2.805,3.152,2.805-0.695c0-124.56-89.503-201.513-208.676-201.513c-1.942,0-3.802,0.054-5.59,0.151L222.303,0
		L222.303,0z"/>
</g>
</svg>
