<?xml version="1.0" encoding="utf-8"?>
<!-- Generator: Adobe Illustrator 16.0.0, SVG Export Plug-In . SVG Version: 6.00 Build 0)  -->
<!DOCTYPE svg PUBLIC "-//W3C//DTD SVG 1.1//EN" "http://www.w3.org/Graphics/SVG/1.1/DTD/svg11.dtd">
<svg version="1.1" id="Layer_1" xmlns="http://www.w3.org/2000/svg" xmlns:xlink="http://www.w3.org/1999/xlink" x="0px" y="0px"
	 width="512px" height="512px" viewBox="0 0 512 512" enable-background="new 0 0 512 512" xml:space="preserve">
<g>
	<path fill="#6F6F6F" d="M371.905,43.919h-96.372V0H144.665v43.919H48.293v69.345h323.612V43.919z M179.337,34.673h61.523v9.246
		h-61.523V34.673z"/>
	<path fill="#6F6F6F" d="M341.112,247.69l6.541-99.753H72.546l21.978,335.169h131.955c-17.176-24.35-27.278-54.027-27.278-86.023
		C199.2,317.174,262.182,251.699,341.112,247.69z"/>
	<path fill="#EF0606" d="M348.79,282.168c-63.366,0-114.917,51.551-114.917,114.915S285.424,512,348.79,512
		c63.365,0,114.917-51.552,114.917-114.917S412.155,282.168,348.79,282.168z M411.404,435.181l-24.519,24.518l-38.097-38.098
		l-38.098,38.098l-24.518-24.518l38.098-38.098l-38.098-38.097l24.518-24.519l38.098,38.099l38.097-38.099l24.519,24.519
		l-38.099,38.097L411.404,435.181z"/>
</g>
</svg>
