<?xml version="1.0" encoding="utf-8"?>
<!-- Generator: Adobe Illustrator 16.0.0, SVG Export Plug-In . SVG Version: 6.00 Build 0)  -->
<!DOCTYPE svg PUBLIC "-//W3C//DTD SVG 1.1//EN" "http://www.w3.org/Graphics/SVG/1.1/DTD/svg11.dtd">
<svg version="1.1" id="Capa_1" xmlns="http://www.w3.org/2000/svg" xmlns:xlink="http://www.w3.org/1999/xlink" x="0px" y="0px"
	 width="512px" height="512px" viewBox="0 0 512 512" enable-background="new 0 0 512 512" xml:space="preserve">
<path fill="#6F6F6F" d="M397.086,249.603c14.988,0,29.454,2.229,43.094,6.358L373.372,88.702c-1.446-3.435-3.796-6.417-7.047-8.946
	c-3.256-2.533-6.694-3.797-10.308-3.797h-91.92c2.348,0,4.426,0.856,6.233,2.572c1.807,1.721,2.801,3.751,2.983,6.101l4.069,52.064
	c0.182,2.531-0.539,4.61-2.16,6.234c-1.632,1.627-3.618,2.439-5.972,2.439h-45.011c-2.35,0-4.335-0.812-5.963-2.439
	c-1.627-1.623-2.35-3.703-2.167-6.234l4.068-52.064c0.178-2.35,1.171-4.379,2.982-6.101c1.807-1.713,3.885-2.572,6.237-2.572
	h-91.923c-3.614,0-7.049,1.264-10.304,3.797c-3.252,2.526-5.6,5.511-7.048,8.946L7.05,371.783C2.35,382.99,0,393.475,0,403.237
	c0,13.196,4.157,19.793,12.474,19.793h190.891c-2.35,0-4.335-0.857-5.964-2.573c-1.626-1.722-2.35-3.751-2.167-6.104l5.421-69.405
	c0.18-2.354,1.175-4.385,2.982-6.104c1.806-1.719,3.888-2.57,6.237-2.57h52.143C285.48,285.127,337.132,249.603,397.086,249.603z
	 M207.974,282.028c-1.629-1.45-2.351-3.257-2.171-5.421v-1.087l6.509-86.762c0.181-2.351,1.175-4.383,2.982-6.101
	c1.807-1.718,3.887-2.576,6.236-2.576h50.43c2.354,0,4.434,0.854,6.241,2.576c1.806,1.718,2.801,3.75,2.983,6.101l6.508,86.762
	v1.087h0.002c0.176,2.17-0.546,3.977-2.17,5.421c-1.623,1.448-3.526,2.171-5.694,2.171h-66.162
	C211.499,284.199,209.597,283.477,207.974,282.028z"/>
<path fill="#9CC602" d="M315.828,316.88c-44.807,44.807-44.807,117.711-0.002,162.516s117.711,44.807,162.518,0
	s44.806-117.711,0-162.518C433.537,272.072,360.634,272.073,315.828,316.88z M468.299,380.801v34.675l-53.879-0.001l0.001,53.879
	h-34.675v-53.878h-53.877l-0.001-34.675l53.88,0.001l-0.002-53.879h34.676l-0.002,53.879L468.299,380.801z"/>
</svg>
