<?xml version="1.0" encoding="utf-8"?>
<!-- Generator: Adobe Illustrator 16.0.0, SVG Export Plug-In . SVG Version: 6.00 Build 0)  -->
<!DOCTYPE svg PUBLIC "-//W3C//DTD SVG 1.1//EN" "http://www.w3.org/Graphics/SVG/1.1/DTD/svg11.dtd">
<svg version="1.1" id="Capa_1" xmlns="http://www.w3.org/2000/svg" xmlns:xlink="http://www.w3.org/1999/xlink" x="0px" y="0px"
	 width="512px" height="512px" viewBox="0 0 512 512" enable-background="new 0 0 512 512" xml:space="preserve">
<path fill="#6F6F6F" d="M420.133,0H94.315C68.715,0,47.77,20.945,47.77,46.545v300.219c0,16.291,6.982,30.254,20.945,39.563
	L257.225,512l188.51-125.673c11.637-9.31,20.943-23.272,20.943-39.563V46.545C466.678,20.945,445.732,0,420.133,0z"/>
<g>
	<path fill="#FFFFFF" d="M189.555,314.221V116.897h63.935c24.228,0,40.02,0.989,47.378,2.961
		c11.307,2.961,20.771,9.401,28.399,19.315c7.626,9.916,11.441,22.726,11.441,38.428c0,12.114-2.2,22.299-6.596,30.554
		c-4.397,8.257-9.983,14.739-16.757,19.45c-6.776,4.711-13.663,7.83-20.661,9.354c-9.514,1.884-23.286,2.827-41.322,2.827h-25.978
		v74.433h-39.84V314.221z M229.396,150.278v55.993h21.805c15.701,0,26.201-1.031,31.497-3.096c5.293-2.063,9.442-5.294,12.45-9.691
		c3.004-4.396,4.509-9.51,4.509-15.344c0-7.178-2.109-13.1-6.326-17.767c-4.22-4.665-9.558-7.582-16.019-8.749
		c-4.756-0.896-14.313-1.346-28.668-1.346H229.396z"/>
</g>
</svg>
