<?xml version="1.0" encoding="iso-8859-1"?>
<!-- Generator: Adobe Illustrator 17.1.0, SVG Export Plug-In . SVG Version: 6.00 Build 0)  -->
<!DOCTYPE svg PUBLIC "-//W3C//DTD SVG 1.1//EN" "http://www.w3.org/Graphics/SVG/1.1/DTD/svg11.dtd">
<svg xmlns="http://www.w3.org/2000/svg" xmlns:xlink="http://www.w3.org/1999/xlink" version="1.1" id="Capa_1" x="0px" y="0px" viewBox="0 0 401.434 401.434" style="enable-background:new 0 0 401.434 401.434;" xml:space="preserve" width="512px" height="512px">
<path d="M392.184,20.307h-5.751c-2.307,0-4.641,1.431-4.641,4.167v27.187c0,0.896-0.728,1.625-1.625,1.625h-11.6  c-0.897,0-1.626-0.729-1.626-1.625V25.38c0-1.648-0.471-2.954-1.398-3.879c-1.137-1.134-2.491-1.194-2.759-1.194  c-0.001,0-0.003,0-0.004,0h-30.542c-1.811,0-4.503,1.279-4.503,4.801v12.04c0,0.896-0.729,1.625-1.625,1.625H314.51  c-0.896,0-1.625-0.729-1.625-1.625V24.746l-0.003-0.102c-0.088-1.744-1.33-4.337-4.388-4.337h-30.902  c-1.433,0-2.322,0.634-2.816,1.166c-1.095,1.177-1.118,2.753-1.097,3.237v26.951c0,0.896-0.73,1.625-1.626,1.625h-11.6  c-0.896,0-1.625-0.729-1.625-1.625V25.29c0-1.915-0.748-3.064-1.376-3.69c-1.23-1.227-2.755-1.292-3.056-1.292  c-0.002,0-0.004,0-0.005,0h-30.814c-1.53,0-3.957,1.181-3.957,4.348v12.493c0,0.896-0.729,1.625-1.625,1.625h-11.6  c-0.896,0-1.625-0.729-1.625-1.625V25.38c0-1.985-0.762-3.161-1.4-3.798c-1.213-1.211-2.696-1.275-2.988-1.275  c-0.002,0-0.004,0-0.005,0h-30.811c-1.608,0-4.002,1.279-4.002,4.801v26.553c0,0.896-0.729,1.625-1.625,1.625h-11.6  c-0.896,0-1.625-0.729-1.625-1.625V25.018c0-1.896-0.709-3-1.303-3.593c-1.064-1.061-2.337-1.118-2.589-1.118  c-0.002,0-0.003,0-0.005,0h-30.994c-2.146,0-4.316,1.369-4.316,3.986v12.855c0,0.896-0.729,1.625-1.625,1.625H99.604V19.589v-7.701  c0-4.962-4.037-9-9-9H9c-4.963,0-9,4.038-9,9v99.5c0,4.962,4.037,9,9,9h4.232v13.794c0,2.306,1.736,3.917,4.223,3.917  c0.073,0,0.134-0.001,0.179-0.003h26.953c0.896,0,1.625,0.729,1.625,1.625v11.6c0,0.896-0.729,1.625-1.625,1.625H18.216  c-1.915,0-3.064,0.748-3.69,1.376c-1.234,1.236-1.294,2.77-1.293,3.061v30.808c-0.001,0.266,0.052,1.649,1.154,2.754  c0.55,0.551,1.55,1.208,3.194,1.208h12.493c0.896,0,1.625,0.729,1.625,1.625v11.6c0,0.896-0.729,1.625-1.625,1.625H18.306  c-1.984,0-3.161,0.761-3.798,1.4c-1.218,1.22-1.276,2.71-1.275,2.993v30.807c-0.001,0.254,0.052,1.577,1.151,2.679  c0.604,0.605,1.727,1.327,3.65,1.327h26.553c0.896,0,1.625,0.729,1.625,1.625v11.6c0,0.896-0.729,1.625-1.625,1.625H17.943  c-1.896,0-3,0.708-3.593,1.303c-1.067,1.07-1.119,2.353-1.118,2.593v30.99c-0.001,0.328,0.057,2.024,1.262,3.231  c0.711,0.713,1.653,1.089,2.725,1.089h12.855c0.896,0,1.625,0.729,1.625,1.625v11.6c0,0.896-0.729,1.625-1.625,1.625H17.763  c-3.324,0-4.53,2.304-4.53,3.852v30.939c-0.024,0.508-0.018,2.23,1.069,3.395c0.613,0.658,1.462,1.02,2.391,1.02h27.894  c0.896,0,1.625,0.729,1.625,1.625v11.6c0,0.896-0.729,1.625-1.625,1.625H18.306c-3.722,0-5.073,2.982-5.073,4.986v15.137  c0,5.101,4.149,9.25,9.25,9.25h67.871c5.101,0,9.25-4.149,9.25-9.25V111.388v-4.71h292.58c5.101,0,9.25-4.149,9.25-9.25V29.557  C401.434,24.457,397.284,20.307,392.184,20.307z M49.802,88.638c-14.912,0-27-12.088-27-27c0-14.912,12.088-27,27-27  s27,12.088,27,27C76.802,76.55,64.714,88.638,49.802,88.638z" fill="#6f6f6f"/>
<g>
</g>
<g>
</g>
<g>
</g>
<g>
</g>
<g>
</g>
<g>
</g>
<g>
</g>
<g>
</g>
<g>
</g>
<g>
</g>
<g>
</g>
<g>
</g>
<g>
</g>
<g>
</g>
<g>
</g>
</svg>
