<?xml version="1.0" encoding="utf-8"?>
<!-- Generator: Adobe Illustrator 16.0.0, SVG Export Plug-In . SVG Version: 6.00 Build 0)  -->
<!DOCTYPE svg PUBLIC "-//W3C//DTD SVG 1.1//EN" "http://www.w3.org/Graphics/SVG/1.1/DTD/svg11.dtd">
<svg version="1.1" id="Capa_1" xmlns="http://www.w3.org/2000/svg" xmlns:xlink="http://www.w3.org/1999/xlink" x="0px" y="0px"
	 width="512px" height="512px" viewBox="0 0 512 512" enable-background="new 0 0 512 512" xml:space="preserve">
<g>
	<g>
		<path fill="#6F6F6F" d="M437.218,1.346H74.813c-11.593,0-21.048,9.374-21.048,20.989V93.79c0,11.615,9.455,20.988,21.048,20.988
			h362.405c11.569,0,21.018-9.374,21.018-20.988V22.334C458.235,10.719,448.773,1.346,437.218,1.346z M91.666,51.115
			c-7.161,0-12.965-5.789-12.965-12.958c0-7.147,5.804-12.951,12.965-12.951c7.177,0,12.959,5.804,12.959,12.951
			C104.625,45.333,98.843,51.115,91.666,51.115z M402.959,88.476h-91.554V58.069h91.561v30.407H402.959z"/>
		<path fill="#6F6F6F" d="M437.218,126.318H74.813c-11.593,0-21.048,9.389-21.048,21.002v71.449c0,11.6,9.455,20.996,21.048,20.996
			h362.405c11.569,0,21.018-9.396,21.018-20.996v-71.449C458.235,135.707,448.773,126.318,437.218,126.318z M91.666,176.102
			c-7.161,0-12.965-5.766-12.965-12.958c0-7.14,5.804-12.973,12.965-12.973c7.177,0,12.959,5.826,12.959,12.973
			C104.625,170.328,98.843,176.102,91.666,176.102z M402.959,213.456h-91.554v-30.415h91.561v30.415H402.959z"/>
		<path fill="#6F6F6F" d="M437.218,251.299H74.813c-11.593,0-21.048,9.387-21.048,20.994v71.449
			c0,11.607,9.455,21.003,21.048,21.003h362.405c11.569,0,21.018-9.396,21.018-21.003v-71.449
			C458.235,260.687,448.773,251.299,437.218,251.299z M91.666,301.067c-7.161,0-12.965-5.752-12.965-12.957
			c0-7.154,5.804-12.944,12.965-12.944c7.177,0,12.959,5.781,12.959,12.944C104.625,295.315,98.843,301.067,91.666,301.067z
			 M402.959,338.42h-91.554v-30.412h91.561v30.412H402.959z"/>
		<polygon fill="#6F6F6F" points="318.597,433.084 279.976,433.084 279.976,376.895 232.062,376.895 232.062,433.084 
			193.395,433.084 193.395,447.889 58.202,447.889 58.202,495.826 193.395,495.826 193.395,510.654 318.597,510.654 
			318.597,495.826 453.783,495.826 453.783,447.889 318.597,447.889 		"/>
	</g>
</g>
</svg>
