<?xml version="1.0" encoding="utf-8"?>
<!-- Generator: Adobe Illustrator 16.0.0, SVG Export Plug-In . SVG Version: 6.00 Build 0)  -->
<!DOCTYPE svg PUBLIC "-//W3C//DTD SVG 1.1//EN" "http://www.w3.org/Graphics/SVG/1.1/DTD/svg11.dtd">
<svg version="1.1" id="Layer_1" xmlns="http://www.w3.org/2000/svg" xmlns:xlink="http://www.w3.org/1999/xlink" x="0px" y="0px"
	 width="512px" height="512px" viewBox="0 0 512 512" enable-background="new 0 0 512 512" xml:space="preserve">
<path fill="#64AD45" d="M245.637,397.137c0-83.671,67.829-151.5,151.5-151.5c44.325,0,84.202,19.038,111.906,49.381
	c1.945-12.723,2.955-25.753,2.955-39.019C511.998,114.615,397.384,0,255.999,0C114.615,0,0,114.615,0,255.999
	c0,141.385,114.615,255.999,255.999,255.999c13.266,0,26.296-1.01,39.019-2.955C264.675,481.339,245.637,441.462,245.637,397.137z"
	/>
<path fill="#F6EB39" d="M437.018,74.98c-99.974-99.974-262.064-99.974-362.038,0l181.019,181.019L437.018,74.98z"/>
<path fill="#64AD45" d="M256.001,0C190.484,0,124.967,24.993,74.98,74.98l181.019,181.019L256.001,0z"/>
<path fill="#EF5522" d="M245.637,397.137c0-41.836,16.957-79.711,44.373-107.127l-34.011-34.011L74.98,437.018
	c59.933,59.934,142.189,83.92,220.004,71.994C264.661,481.309,245.637,441.445,245.637,397.137z"/>
<path fill="#F8BA15" d="M397.137,245.637c19.468,0,38.075,3.676,55.173,10.365l59.689,0c0-65.517-24.993-131.035-74.98-181.021
	L256,256l85.966,0C359.063,249.313,377.67,245.637,397.137,245.637z"/>
<path fill="#CDDC39" d="M256.001,0C190.484,0,124.967,24.993,74.98,74.98l181.019,181.019L256.001,0z"/>
<path fill="#3E5CA9" d="M0,255.999c0,65.517,24.993,131.034,74.98,181.021l181.019-181.019L0,255.999z"/>
<path fill="#F8991D" d="M397.137,245.637c44.31,0,84.173,19.025,111.877,49.349c11.926-77.815-12.062-160.071-71.996-220.005
	L255.999,255.999l34.011,34.011C317.426,262.594,355.301,245.637,397.137,245.637z"/>
<path fill="#9CC602" d="M315.879,315.879c-44.807,44.808-44.807,117.711-0.002,162.517c44.805,44.805,117.711,44.807,162.519,0
	c44.807-44.808,44.806-117.711,0-162.519C433.588,271.071,360.685,271.072,315.879,315.879z M468.35,379.8v34.675l-53.879-0.001
	l0.001,53.879h-34.675v-53.878H325.92l-0.001-34.675l53.88,0.001l-0.002-53.879h34.676l-0.002,53.879L468.35,379.8z"/>
<path fill="#EC3323" d="M245.637,397.137c0-19.467,3.676-38.074,10.364-55.172v-85.966L74.982,437.018
	c49.987,49.987,116.174,74.98,181.019,74.98v-59.689C249.313,435.211,245.637,416.604,245.637,397.137z"/>
</svg>
