<?xml version="1.0" encoding="utf-8"?>
<!-- Generator: Adobe Illustrator 16.0.0, SVG Export Plug-In . SVG Version: 6.00 Build 0)  -->
<!DOCTYPE svg PUBLIC "-//W3C//DTD SVG 1.1//EN" "http://www.w3.org/Graphics/SVG/1.1/DTD/svg11.dtd">
<svg version="1.1" id="Layer_1" xmlns="http://www.w3.org/2000/svg" xmlns:xlink="http://www.w3.org/1999/xlink" x="0px" y="0px"
	 width="512px" height="512px" viewBox="0 0 512 512" enable-background="new 0 0 512 512" xml:space="preserve">
<path opacity="0.8" fill="#6F6F6F" d="M508.573,127.214c-3.292-15.556-22.484-21.302-33.729-10.059l-68.217,68.217
	c-12.497,12.498-32.759,12.498-45.255,0l-34.745-34.744c-12.497-12.496-12.497-32.758,0-45.256l68.217-68.217
	c11.243-11.244,5.497-30.437-10.059-33.729c-20.908-4.424-43.321-4.749-66.482,0.109c-63.989,13.422-114.405,66.437-124.346,131.058
	C192.635,143.202,191.997,152,192,160v66.75L19.313,399.438C6.86,411.891,0,428.446,0,446.056c0,17.603,6.859,34.156,19.313,46.609
	c0.172,0.18,0.351,0.352,0.531,0.523C32.143,505.239,48.337,511.902,65.568,512c17.919,0.102,35.055-7.372,47.726-20.043L285.25,320
	H352c8,0.004,16.799-0.634,25.405-1.957c64.622-9.941,117.639-60.357,131.06-124.348
	C513.323,170.535,512.998,148.122,508.573,127.214L508.573,127.214z M80,464.001c-17.673,0-32-14.328-32-32
	c0-17.674,14.327-32,32-32c17.674,0,32,14.326,32,32C112,449.673,97.674,464.001,80,464.001z"/>
</svg>
