<?xml version="1.0" encoding="utf-8"?>
<!-- Generator: Adobe Illustrator 16.0.0, SVG Export Plug-In . SVG Version: 6.00 Build 0)  -->
<!DOCTYPE svg PUBLIC "-//W3C//DTD SVG 1.1//EN" "http://www.w3.org/Graphics/SVG/1.1/DTD/svg11.dtd">
<svg version="1.1" id="Capa_1" xmlns="http://www.w3.org/2000/svg" xmlns:xlink="http://www.w3.org/1999/xlink" x="0px" y="0px"
	 width="512px" height="512px" viewBox="0 0 512 512" enable-background="new 0 0 512 512" xml:space="preserve">
<path fill="#FFFFFF" d="M409.72,365.986L328.2,325.23c-7.688-3.848-12.467-11.579-12.467-20.181v-28.852
	c1.954-2.39,4.011-5.111,6.136-8.115c10.572-14.933,19.046-31.556,25.207-49.484c12.041-5.521,19.857-17.425,19.857-30.865V153.6
	c0-8.218-3.072-16.179-8.533-22.4V85.811c0.478-4.693,2.354-32.631-17.853-55.68C323.021,10.138,294.579,0,256,0
	s-67.021,10.138-84.548,30.123c-20.207,23.049-18.33,50.995-17.852,55.688V131.2c-5.461,6.221-8.533,14.182-8.533,22.4v34.133
	c0,10.385,4.719,20.07,12.774,26.53c7.816,30.95,24.175,54.271,29.892,61.756v28.236c0,8.26-4.506,15.838-11.75,19.797
	l-76.126,41.523c-24.755,13.509-40.124,39.398-40.124,67.593V460.8c0,40.499,128.384,51.2,196.267,51.2s196.267-10.701,196.267-51.2
	v-25.967C452.267,405.495,435.96,379.11,409.72,365.986z"/>
</svg>
