<?xml version="1.0" encoding="utf-8"?>
<!-- Generator: Adobe Illustrator 16.0.0, SVG Export Plug-In . SVG Version: 6.00 Build 0)  -->
<!DOCTYPE svg PUBLIC "-//W3C//DTD SVG 1.1//EN" "http://www.w3.org/Graphics/SVG/1.1/DTD/svg11.dtd">
<svg version="1.1" id="Capa_1" xmlns="http://www.w3.org/2000/svg" xmlns:xlink="http://www.w3.org/1999/xlink" x="0px" y="0px"
	 width="512px" height="512px" viewBox="0 0 512 512" enable-background="new 0 0 512 512" xml:space="preserve">
<path fill="#6F6F6F" d="M250.452,409.779c-7.535-4.042-16.146-6.337-25.295-6.337c-9.735,0-18.857,2.606-26.728,7.139
	l-79.638-65.149c1.758-5.308,2.724-10.978,2.724-16.875c0-20.093-11.052-37.595-27.402-46.788l16.669-101.957
	c25.048-4.527,44.054-26.426,44.054-52.779c0-0.572-0.025-1.138-0.043-1.706l96.37-36.443c9.835,11.281,24.301,18.42,40.444,18.42
	c10.059,0,19.467-2.774,27.512-7.59l79.802,65.282c-1.516,4.963-2.337,10.23-2.337,15.689c0,20.186,11.152,37.759,27.627,46.917
	l-3.985,24.375c12.527,1.885,24.539,5.342,35.83,10.16l4.716-28.84c24.585-4.896,43.116-26.587,43.116-52.611
	c0-29.631-24.021-53.652-53.651-53.652c-10.655,0-20.577,3.119-28.925,8.475l-78.919-64.56c1.849-5.429,2.866-11.243,2.866-17.298
	C345.257,24.021,321.236,0,291.605,0c-29.632,0-53.652,24.021-53.652,53.652c0,0.223,0.014,0.441,0.017,0.664l-97.03,36.692
	c-9.816-10.826-23.992-17.627-39.757-17.627c-29.631,0-53.652,24.021-53.652,53.652c0,19.843,10.78,37.157,26.796,46.439
	L57.58,275.899c-24.71,4.798-43.37,26.544-43.37,52.657c0,29.631,24.021,53.652,53.652,53.652c10.218,0,19.768-2.858,27.896-7.816
	l78.902,64.548c-2.039,5.671-3.156,11.781-3.156,18.153c0,29.632,24.021,53.652,53.652,53.652c21.754,0,40.472-12.955,48.893-31.565
	C260.818,458.939,252.404,435.266,250.452,409.779z"/>
<path fill="#9CC602" d="M316.756,317.061c-44.807,44.808-44.807,117.711-0.002,162.517c44.805,44.805,117.711,44.807,162.518,0
	c44.808-44.808,44.807-117.711,0-162.519C434.465,272.253,361.562,272.254,316.756,317.061z M469.227,380.981v34.675l-53.879-0.001
	l0.001,53.879h-34.675v-53.878h-53.877l-0.001-34.675l53.88,0.001l-0.002-53.879h34.676l-0.002,53.879L469.227,380.981z"/>
</svg>
