<?xml version="1.0" encoding="utf-8"?>
<!-- Generator: Adobe Illustrator 16.0.0, SVG Export Plug-In . SVG Version: 6.00 Build 0)  -->
<!DOCTYPE svg PUBLIC "-//W3C//DTD SVG 1.1//EN" "http://www.w3.org/Graphics/SVG/1.1/DTD/svg11.dtd">
<svg version="1.1" id="Capa_1" xmlns="http://www.w3.org/2000/svg" xmlns:xlink="http://www.w3.org/1999/xlink" x="0px" y="0px"
	 width="512px" height="512px" viewBox="0 0 512 512" enable-background="new 0 0 512 512" xml:space="preserve">
<g>
	<g>
		<path fill="#6F6F6F" d="M497.933,430.067l-117.46-117.47c-17.502,27.219-40.663,50.369-67.883,67.872l117.47,117.47
			c18.754,18.749,49.159,18.749,67.872,0C516.687,479.221,516.687,448.815,497.933,430.067z"/>
		<path fill="#6F6F6F" d="M383.999,192c0-106.029-85.966-192-191.998-192c-106.029,0-192,85.971-192,192s85.971,191.996,192,191.996
			C298.033,383.996,383.999,298.029,383.999,192z M192.001,335.994c-79.406,0-143.999-64.586-143.999-143.993
			c0-79.406,64.592-143.999,143.999-143.999c79.404,0,144.002,64.592,144.002,143.999
			C336.003,271.408,271.405,335.994,192.001,335.994z"/>
	</g>
</g>
<path fill="#6F6F6F" d="M288.264,173.496h-74.385c-0.002,0-0.004,0-0.006,0h-43.744c-0.002,0-0.004,0-0.006,0H95.737
	c-5.251,0-8.752,3.501-8.752,8.751v17.503c0,5.25,3.501,8.751,8.752,8.751h61.013h13.372h43.757H232h56.264
	c5.252,0,8.752-3.501,8.752-8.751v-17.503C297.016,176.997,293.516,173.496,288.264,173.496z"/>
</svg>
