<?xml version="1.0" encoding="utf-8"?>
<!-- Generator: Adobe Illustrator 16.0.0, SVG Export Plug-In . SVG Version: 6.00 Build 0)  -->
<!DOCTYPE svg PUBLIC "-//W3C//DTD SVG 1.1//EN" "http://www.w3.org/Graphics/SVG/1.1/DTD/svg11.dtd">
<svg version="1.1" id="Capa_1" xmlns="http://www.w3.org/2000/svg" xmlns:xlink="http://www.w3.org/1999/xlink" x="0px" y="0px"
	 width="512px" height="512px" viewBox="0 0 512 512" enable-background="new 0 0 512 512" xml:space="preserve">
<rect x="85.5" y="32.5" fill="#FFFFFF" width="341" height="321"/>
<path fill="#5E92DD" d="M418.909,0H93.091c-25.6,0-46.545,20.945-46.545,46.545v300.219c0,16.291,6.982,30.254,20.945,39.563
	L256.001,512l188.51-125.673c11.639-9.31,20.943-23.272,20.943-39.563V46.545C465.454,20.945,444.509,0,418.909,0z M367.318,314.523
	h-50.092V163.579l-38.594,150.944h-45.34l-38.522-150.944v150.944h-50.09v-197.93h80.434l31.02,120.432l30.799-120.432h80.386
	L367.318,314.523L367.318,314.523z"/>
</svg>
