<?xml version="1.0" encoding="iso-8859-1"?>
<!-- Generator: Adobe Illustrator 19.0.0, SVG Export Plug-In . SVG Version: 6.00 Build 0)  -->
<svg version="1.1" id="Layer_1" xmlns="http://www.w3.org/2000/svg" xmlns:xlink="http://www.w3.org/1999/xlink" x="0px" y="0px"
	 viewBox="0 0 512 512" style="enable-background:new 0 0 512 512;" xml:space="preserve">
<path style="fill:#43B05B;" d="M256,0C158.897,0,88.276,80.331,88.276,167.724c0,52.966,18.538,81.214,43.255,132.414
	C180.966,402.538,256,512,256,512s75.034-109.462,124.469-211.862c24.717-51.2,43.255-79.448,43.255-132.414
	C423.724,80.331,353.103,0,256,0"/>
<path style="fill:#ED8B1B;" d="M353.103,167.724c0-53.848-43.255-97.103-97.103-97.103s-97.103,43.255-97.103,97.103
	s43.255,97.103,97.103,97.103S353.103,221.572,353.103,167.724"/>
<g>
	<path style="fill:#FFFFFF;" d="M229.517,220.69c-5.297,0-8.828-3.531-8.828-8.828v-61.793c0-5.297,3.531-8.828,8.828-8.828
		s8.828,3.531,8.828,8.828v61.793C238.345,217.159,234.814,220.69,229.517,220.69z"/>
	<path style="fill:#FFFFFF;" d="M282.483,220.69c-5.297,0-8.828-3.531-8.828-8.828v-61.793c0-5.297,3.531-8.828,8.828-8.828
		s8.828,3.531,8.828,8.828v61.793C291.31,217.159,287.779,220.69,282.483,220.69z"/>
	<path style="fill:#FFFFFF;" d="M308.966,185.379c-2.648,0-4.414-0.883-6.179-2.648L256,135.945l-46.786,46.786
		c-3.531,3.531-8.828,3.531-12.359,0c-3.531-3.531-3.531-8.828,0-12.359l52.965-52.966c3.531-3.531,8.828-3.531,12.359,0
		l52.966,52.966c3.531,3.531,3.531,8.828,0,12.359C313.379,184.497,311.614,185.379,308.966,185.379z"/>
</g>
<g>
</g>
<g>
</g>
<g>
</g>
<g>
</g>
<g>
</g>
<g>
</g>
<g>
</g>
<g>
</g>
<g>
</g>
<g>
</g>
<g>
</g>
<g>
</g>
<g>
</g>
<g>
</g>
<g>
</g>
</svg>
