<?xml version="1.0" encoding="iso-8859-1"?>
<!-- Generator: Adobe Illustrator 19.0.0, SVG Export Plug-In . SVG Version: 6.00 Build 0)  -->
<svg version="1.1" id="Layer_1" xmlns="http://www.w3.org/2000/svg" xmlns:xlink="http://www.w3.org/1999/xlink" x="0px" y="0px"
	 viewBox="0 0 512 512" style="enable-background:new 0 0 512 512;" xml:space="preserve">
<path style="fill:#43B05B;" d="M256,0C158.897,0,88.276,80.331,88.276,167.724c0,52.966,18.538,81.214,43.255,132.414
	C180.966,402.538,256,512,256,512s75.034-109.462,124.469-211.862c24.717-51.2,43.255-79.448,43.255-132.414
	C423.724,80.331,353.103,0,256,0"/>
<path style="fill:#ED7161;" d="M256,141.241c5.297-12.359,15.89-26.483,30.014-26.483c19.421,0,34.428,15.007,36.193,34.428
	c0,0,0.883,4.414-0.883,13.241c-2.648,11.476-9.71,22.069-18.538,30.014L256,238.345l-48.552-46.786
	c-8.828-7.945-15.89-18.538-18.538-30.014c-1.766-8.828-0.883-13.241-0.883-13.241c1.766-19.421,15.007-34.428,34.428-34.428
	C236.579,114.759,250.703,128.883,256,141.241"/>
<g>
</g>
<g>
</g>
<g>
</g>
<g>
</g>
<g>
</g>
<g>
</g>
<g>
</g>
<g>
</g>
<g>
</g>
<g>
</g>
<g>
</g>
<g>
</g>
<g>
</g>
<g>
</g>
<g>
</g>
</svg>
