<?xml version="1.0" encoding="iso-8859-1"?>
<!-- Generator: Adobe Illustrator 19.0.0, SVG Export Plug-In . SVG Version: 6.00 Build 0)  -->
<svg version="1.1" id="Layer_1" xmlns="http://www.w3.org/2000/svg" xmlns:xlink="http://www.w3.org/1999/xlink" x="0px" y="0px"
	 viewBox="0 0 512 512" style="enable-background:new 0 0 512 512;" xml:space="preserve">
<path style="fill:#43B05B;" d="M256,0C158.897,0,88.276,80.331,88.276,167.724c0,52.966,18.538,81.214,43.255,132.414
	C180.966,402.538,256,512,256,512s75.034-109.462,124.469-211.862c24.717-51.2,43.255-79.448,43.255-132.414
	C423.724,80.331,353.103,0,256,0"/>
<g>
	<path style="fill:#FFFFFF;" d="M273.655,220.69h-61.793c-5.297,0-8.828-3.531-8.828-8.828c0-5.297,3.531-8.828,8.828-8.828h61.793
		c15.007,0,26.483-11.476,26.483-26.483c0-5.297,3.531-8.828,8.828-8.828c5.297,0,8.828,3.531,8.828,8.828
		C317.793,201.269,298.372,220.69,273.655,220.69z"/>
	<path style="fill:#FFFFFF;" d="M238.345,247.172c-2.648,0-4.414-0.883-6.179-2.648l-26.483-26.483
		c-3.531-3.531-3.531-8.828,0-12.359l26.483-26.483c3.531-3.531,8.828-3.531,12.359,0c3.531,3.531,3.531,8.828,0,12.359
		l-20.303,20.303l20.303,20.303c3.531,3.531,3.531,8.828,0,12.359C242.759,246.29,240.993,247.172,238.345,247.172z"/>
	<path style="fill:#FFFFFF;" d="M203.034,167.724c-5.297,0-8.828-3.531-8.828-8.828c0-24.717,19.421-44.138,44.138-44.138h61.793
		c5.297,0,8.828,3.531,8.828,8.828c0,5.297-3.531,8.828-8.828,8.828h-61.793c-15.007,0-26.483,11.476-26.483,26.483
		C211.862,164.193,208.331,167.724,203.034,167.724z"/>
	<path style="fill:#FFFFFF;" d="M273.655,158.897c-2.648,0-4.414-0.883-6.179-2.648c-3.531-3.531-3.531-8.828,0-12.359
		l20.303-20.303l-20.303-20.303c-3.531-3.531-3.531-8.828,0-12.359s8.828-3.531,12.359,0l26.483,26.483
		c3.531,3.531,3.531,8.828,0,12.359l-26.483,26.483C278.069,158.014,276.303,158.897,273.655,158.897z"/>
</g>
<g>
</g>
<g>
</g>
<g>
</g>
<g>
</g>
<g>
</g>
<g>
</g>
<g>
</g>
<g>
</g>
<g>
</g>
<g>
</g>
<g>
</g>
<g>
</g>
<g>
</g>
<g>
</g>
<g>
</g>
</svg>
