<?xml version="1.0" encoding="iso-8859-1"?>
<!-- Generator: Adobe Illustrator 19.0.0, SVG Export Plug-In . SVG Version: 6.00 Build 0)  -->
<svg version="1.1" id="Layer_1" xmlns="http://www.w3.org/2000/svg" xmlns:xlink="http://www.w3.org/1999/xlink" x="0px" y="0px"
	 viewBox="0 0 512 512" style="enable-background:new 0 0 512 512;" xml:space="preserve">
<path style="fill:#43B05B;" d="M256,0C158.897,0,88.276,80.331,88.276,167.724c0,52.966,18.538,81.214,43.255,132.414
	C180.966,402.538,256,512,256,512s75.034-109.462,124.469-211.862c24.717-51.2,43.255-79.448,43.255-132.414
	C423.724,80.331,353.103,0,256,0"/>
<path style="fill:#ED7161;" d="M335.448,167.724c0-44.138-35.31-79.448-79.448-79.448s-79.448,35.31-79.448,79.448
	s35.31,79.448,79.448,79.448S335.448,211.862,335.448,167.724"/>
<path style="fill:#FFFFFF;" d="M211.862,176.552c-5.297,0-8.828-3.531-8.828-8.828c0-29.131,23.834-52.966,52.966-52.966
	c5.297,0,8.828,3.531,8.828,8.828c0,5.297-3.531,8.828-8.828,8.828c-19.421,0-35.31,15.89-35.31,35.31
	C220.69,173.021,217.159,176.552,211.862,176.552z"/>
<g>
</g>
<g>
</g>
<g>
</g>
<g>
</g>
<g>
</g>
<g>
</g>
<g>
</g>
<g>
</g>
<g>
</g>
<g>
</g>
<g>
</g>
<g>
</g>
<g>
</g>
<g>
</g>
<g>
</g>
</svg>
