<?xml version="1.0" encoding="iso-8859-1"?>
<!-- Generator: Adobe Illustrator 19.0.0, SVG Export Plug-In . SVG Version: 6.00 Build 0)  -->
<svg version="1.1" id="Layer_1" xmlns="http://www.w3.org/2000/svg" xmlns:xlink="http://www.w3.org/1999/xlink" x="0px" y="0px"
	 viewBox="0 0 512 512" style="enable-background:new 0 0 512 512;" xml:space="preserve">
<path style="fill:#43B05B;" d="M256,0C158.897,0,88.276,80.331,88.276,167.724c0,52.966,18.538,81.214,43.255,132.414
	C180.966,402.538,256,512,256,512s75.034-109.462,124.469-211.862c24.717-51.2,43.255-79.448,43.255-132.414
	C423.724,80.331,353.103,0,256,0"/>
<path style="fill:#B0B6BB;" d="M300.138,150.069h-88.276v-26.483c0-24.717,19.421-44.138,44.138-44.138s44.138,19.421,44.138,44.138
	v5.297c0,4.414,0,9.71,0,12.359V150.069z M229.517,132.414h52.966c0-0.883,0-2.648,0-3.531v-5.297
	c0-15.007-11.476-26.483-26.483-26.483s-26.483,11.476-26.483,26.483V132.414z"/>
<path style="fill:#6B4942;" d="M264.828,176.552h-17.655c-5.297,0-8.828-3.531-8.828-8.828s3.531-8.828,8.828-8.828h17.655
	c5.297,0,8.828,3.531,8.828,8.828S270.124,176.552,264.828,176.552z"/>
<path style="fill:#BFA480;" d="M308.966,220.69H203.034c-9.71,0-17.655-7.945-17.655-17.655v-52.966
	c0-9.71,7.945-17.655,17.655-17.655h105.931c9.71,0,17.655,7.945,17.655,17.655v52.966
	C326.621,212.745,318.676,220.69,308.966,220.69"/>
<path style="fill:#6B4942;" d="M256,194.207c-5.297,0-8.828-3.531-8.828-8.828v-17.655c0-5.297,3.531-8.828,8.828-8.828
	c5.297,0,8.828,3.531,8.828,8.828v17.655C264.828,190.676,261.297,194.207,256,194.207z"/>
<g>
</g>
<g>
</g>
<g>
</g>
<g>
</g>
<g>
</g>
<g>
</g>
<g>
</g>
<g>
</g>
<g>
</g>
<g>
</g>
<g>
</g>
<g>
</g>
<g>
</g>
<g>
</g>
<g>
</g>
</svg>
