<?xml version="1.0" encoding="iso-8859-1"?>
<!-- Generator: Adobe Illustrator 19.0.0, SVG Export Plug-In . SVG Version: 6.00 Build 0)  -->
<svg version="1.1" id="Layer_1" xmlns="http://www.w3.org/2000/svg" xmlns:xlink="http://www.w3.org/1999/xlink" x="0px" y="0px"
	 viewBox="0 0 512 512" style="enable-background:new 0 0 512 512;" xml:space="preserve">
<path style="fill:#43B05B;" d="M256,0C158.897,0,88.276,80.331,88.276,167.724c0,52.966,18.538,81.214,43.255,132.414
	C180.966,402.538,256,512,256,512s75.034-109.462,124.469-211.862c24.717-51.2,43.255-79.448,43.255-132.414
	C423.724,80.331,353.103,0,256,0"/>
<path style="fill:#48A0DC;" d="M353.103,167.724c0-53.848-43.255-97.103-97.103-97.103s-97.103,43.255-97.103,97.103
	s43.255,97.103,97.103,97.103S353.103,221.572,353.103,167.724"/>
<g>
	<path style="fill:#FFFFFF;" d="M256,167.724c-19.421,0-35.31-15.89-35.31-35.31s15.89-35.31,35.31-35.31s35.31,15.89,35.31,35.31
		S275.421,167.724,256,167.724z M256,114.759c-9.71,0-17.655,7.945-17.655,17.655c0,9.71,7.945,17.655,17.655,17.655
		c9.71,0,17.655-7.945,17.655-17.655C273.655,122.703,265.71,114.759,256,114.759z"/>
	<path style="fill:#FFFFFF;" d="M300.138,229.517c-5.297,0-8.828-3.531-8.828-8.828v-17.655c0-19.421-15.89-35.31-35.31-35.31
		s-35.31,15.89-35.31,35.31v17.655c0,5.297-3.531,8.828-8.828,8.828c-5.297,0-8.828-3.531-8.828-8.828v-17.655
		c0-29.131,23.834-52.966,52.966-52.966c29.131,0,52.966,23.834,52.966,52.966v17.655
		C308.966,225.986,305.434,229.517,300.138,229.517z"/>
</g>
<g>
</g>
<g>
</g>
<g>
</g>
<g>
</g>
<g>
</g>
<g>
</g>
<g>
</g>
<g>
</g>
<g>
</g>
<g>
</g>
<g>
</g>
<g>
</g>
<g>
</g>
<g>
</g>
<g>
</g>
</svg>
