<?xml version="1.0" encoding="iso-8859-1"?>
<!-- Generator: Adobe Illustrator 19.0.0, SVG Export Plug-In . SVG Version: 6.00 Build 0)  -->
<svg version="1.1" id="Layer_1" xmlns="http://www.w3.org/2000/svg" xmlns:xlink="http://www.w3.org/1999/xlink" x="0px" y="0px"
	 viewBox="0 0 512 512" style="enable-background:new 0 0 512 512;" xml:space="preserve">
<path style="fill:#43B05B;" d="M256,0C158.897,0,88.276,80.331,88.276,167.724c0,52.966,18.538,81.214,43.255,132.414
	C180.966,402.538,256,512,256,512s75.034-109.462,124.469-211.862c24.717-51.2,43.255-79.448,43.255-132.414
	C423.724,80.331,353.103,0,256,0"/>
<g>
	<polygon style="fill:#FFFFFF;" points="344.276,150.069 291.31,150.069 291.31,132.414 326.621,132.414 326.621,97.103 
		344.276,97.103 	"/>
	<polygon style="fill:#FFFFFF;" points="185.379,229.517 167.724,229.517 167.724,176.552 220.69,176.552 220.69,194.207 
		185.379,194.207 	"/>
	<path style="fill:#FFFFFF;" d="M188.028,158.897c-0.883,0-1.766,0-1.766,0c-4.414-0.883-7.945-6.179-6.179-10.593
		c8.828-35.31,40.607-60.028,76.8-60.028c32.662,0,61.793,19.421,73.269,49.434c1.766,4.414,0,9.71-5.297,11.476
		c-4.414,1.766-9.71,0-11.476-5.297c-9.71-22.952-31.779-37.959-57.379-37.959c-28.248,0-52.966,19.421-60.028,45.903
		C195.09,156.248,191.559,158.897,188.028,158.897z"/>
	<path style="fill:#FFFFFF;" d="M256,247.172c-36.193,0-67.972-24.717-76.8-59.145c-0.883-4.414,1.766-9.71,6.179-10.593
		c4.414-0.883,9.71,1.766,10.593,6.179c7.062,26.483,31.779,45.903,60.028,45.903c30.897,0,57.379-22.952,60.91-53.848
		c0.883-4.414,5.297-7.945,9.71-7.945c4.414,0.883,7.945,5.297,7.945,9.71C330.152,217.159,295.724,247.172,256,247.172z"/>
</g>
<g>
</g>
<g>
</g>
<g>
</g>
<g>
</g>
<g>
</g>
<g>
</g>
<g>
</g>
<g>
</g>
<g>
</g>
<g>
</g>
<g>
</g>
<g>
</g>
<g>
</g>
<g>
</g>
<g>
</g>
</svg>
