<?xml version="1.0" encoding="iso-8859-1"?>
<!-- Generator: Adobe Illustrator 19.0.0, SVG Export Plug-In . SVG Version: 6.00 Build 0)  -->
<svg version="1.1" id="Layer_1" xmlns="http://www.w3.org/2000/svg" xmlns:xlink="http://www.w3.org/1999/xlink" x="0px" y="0px"
	 viewBox="0 0 512 512" style="enable-background:new 0 0 512 512;" xml:space="preserve">
<path style="fill:#43B05B;" d="M256,0C158.897,0,88.276,80.331,88.276,167.724c0,52.966,18.538,81.214,43.255,132.414
	C180.966,402.538,256,512,256,512s75.034-109.462,124.469-211.862c24.717-51.2,43.255-79.448,43.255-132.414
	C423.724,80.331,353.103,0,256,0"/>
<path style="fill:#FFFFFF;" d="M303.669,146.538c0-22.069-17.655-40.607-39.724-40.607c-15.007,0-27.366,7.945-34.428,20.303
	c-2.648-0.883-5.297-0.883-7.945-0.883c-11.476,0-21.186,8.828-23.834,20.303c-9.71,5.297-16.772,15.89-16.772,27.366
	c0,16.772,13.241,30.897,30.014,30.897h61.793h0.883h0.883h24.717c15.007,0,27.366-13.241,27.366-28.248
	C326.621,160.662,316.91,149.186,303.669,146.538"/>
<g>
</g>
<g>
</g>
<g>
</g>
<g>
</g>
<g>
</g>
<g>
</g>
<g>
</g>
<g>
</g>
<g>
</g>
<g>
</g>
<g>
</g>
<g>
</g>
<g>
</g>
<g>
</g>
<g>
</g>
</svg>
