<?xml version="1.0" encoding="iso-8859-1"?>
<!-- Generator: Adobe Illustrator 19.0.0, SVG Export Plug-In . SVG Version: 6.00 Build 0)  -->
<svg version="1.1" id="Layer_1" xmlns="http://www.w3.org/2000/svg" xmlns:xlink="http://www.w3.org/1999/xlink" x="0px" y="0px"
	 viewBox="0 0 512 512" style="enable-background:new 0 0 512 512;" xml:space="preserve">
<path style="fill:#43B05B;" d="M256,0C158.897,0,88.276,80.331,88.276,167.724c0,52.966,18.538,81.214,43.255,132.414
	C180.966,402.538,256,512,256,512s75.034-109.462,124.469-211.862c24.717-51.2,43.255-79.448,43.255-132.414
	C423.724,80.331,353.103,0,256,0"/>
<path style="fill:#FFFFFF;" d="M271.89,91.807L271.89,91.807c3.531,10.593,15.007,15.007,24.717,10.593l0,0
	c15.89-7.062,31.779,8.828,24.717,24.717l0,0c-4.414,9.71,0,21.186,10.593,24.717l0,0c15.89,6.179,15.89,29.131,0,34.428l0,0
	c-10.593,3.531-15.007,15.007-10.593,24.717l0,0c7.062,15.89-8.828,31.779-24.717,24.717l0,0c-9.71-4.414-21.186,0-24.717,10.593
	l0,0c-5.297,13.241-28.248,13.241-34.428,0l0,0c-3.531-10.593-15.007-15.007-24.717-10.593l0,0
	c-15.89,7.062-31.779-8.828-24.717-24.717l0,0c4.414-9.71,0-21.186-10.593-24.717l0,0c-13.241-6.179-13.241-29.131,0-34.428l0,0
	c10.593-3.531,15.007-15.007,10.593-24.717l0,0c-7.062-15.89,8.828-31.779,24.717-24.717l0,0c9.71,4.414,21.186,0,24.717-10.593l0,0
	C243.641,75.034,266.593,75.034,271.89,91.807"/>
<path style="fill:#E8EDEE;" d="M255.117,264.828c-11.476,0-21.186-6.179-25.6-15.007c-0.883-3.531-3.531-5.297-5.297-6.179
	c-2.648-0.883-5.297-0.883-7.945,0c-10.593,5.297-22.952,2.648-30.897-5.297s-10.593-20.303-5.297-30.897
	c0.883-2.648,0.883-5.297,0-7.945c-0.883-2.648-2.648-4.414-5.297-5.297c-10.593-4.414-15.89-15.007-15.89-27.366
	c0-11.476,6.179-20.303,15.89-23.834c2.648-0.883,4.414-2.648,6.179-5.297c0.883-2.648,0.883-5.297,0-7.945
	c-5.297-10.593-2.648-22.952,5.297-30.897s20.303-10.593,30.897-5.297c2.648,0.883,5.297,0.883,7.945,0
	c2.648-0.883,4.414-2.648,5.297-5.297c3.531-10.593,14.124-17.655,25.6-17.655l0,0c11.476,0,22.069,7.062,25.6,17.655l0,0
	c0.883,2.648,2.648,4.414,5.297,5.297c2.648,0.883,5.297,0.883,7.945,0c10.593-5.297,22.952-2.648,30.897,5.297
	s10.593,20.303,5.297,30.897c-0.883,2.648-0.883,5.297,0,7.945c0.883,2.648,2.648,4.414,5.297,5.297
	c10.593,3.531,17.655,14.124,17.655,25.6c0,11.476-7.062,22.069-17.655,25.6c-2.648,0.883-4.414,2.648-5.297,5.297
	c-0.883,2.648-0.883,5.297,0,7.945c5.297,10.593,2.648,22.952-5.297,30.897s-20.303,10.593-30.897,5.297
	c-2.648-0.883-5.297-0.883-7.945,0c-2.648,0.883-4.414,2.648-5.297,5.297C276.303,258.648,266.593,264.828,255.117,264.828
	L255.117,264.828z M220.69,225.103c3.531,0,7.062,0.883,10.593,1.766c7.062,2.648,12.359,8.828,15.007,15.89
	c1.766,2.648,6.179,4.414,8.828,4.414c3.531,0,7.062-0.883,8.828-4.414c2.648-7.062,7.945-12.359,15.007-15.007
	c7.062-2.648,15.007-2.648,22.069,0.883c5.297,2.648,9.71-0.883,10.593-1.766c0.883-0.883,4.414-5.297,1.766-10.593
	c-3.531-7.062-3.531-15.007-0.883-22.069c2.648-7.062,8.828-12.359,15.89-15.007c6.179-1.766,6.179-7.062,6.179-8.828
	s-0.883-7.062-6.179-8.828c-7.062-2.648-13.241-7.945-15.89-15.007c-2.648-7.062-2.648-15.007,0.883-22.069
	c2.648-5.297-0.883-9.71-1.766-10.593c-0.883-0.883-5.297-4.414-10.593-1.766c-7.062,3.531-15.007,3.531-22.069,0.883
	c-7.062-2.648-12.359-8.828-15.007-15.89l0,0c-1.766-6.179-7.062-6.179-8.828-6.179l0,0c-1.766,0-7.062,0.883-8.828,6.179
	c-2.648,7.062-7.945,13.241-15.007,15.89c-7.062,2.648-15.007,2.648-22.069-0.883c-5.297-2.648-9.71,0.883-10.593,1.766
	c-0.883,0.883-4.414,5.297-1.766,10.593c3.531,7.062,3.531,15.007,0.883,22.069c-2.648,7.062-8.828,12.359-15.89,15.007
	c-3.531-0.883-5.297,3.531-5.297,6.179c0,3.531,1.766,8.828,5.297,10.593c6.179,2.648,12.359,7.945,15.007,15.007
	c2.648,7.062,2.648,15.007-0.883,22.069c-2.648,5.297,0.883,9.71,1.766,10.593c0.883,0.883,5.297,4.414,10.593,1.766
	C212.745,225.986,216.276,225.103,220.69,225.103z"/>
<path style="fill:#FFFFFF;" d="M282.483,167.724c0-15.007-11.476-26.483-26.483-26.483s-26.483,11.476-26.483,26.483
	s11.476,26.483,26.483,26.483S282.483,182.731,282.483,167.724"/>
<path style="fill:#E8EDEE;" d="M256,203.034c-19.421,0-35.31-15.89-35.31-35.31s15.89-35.31,35.31-35.31s35.31,15.89,35.31,35.31
	S275.421,203.034,256,203.034z M256,150.069c-9.71,0-17.655,7.945-17.655,17.655s7.945,17.655,17.655,17.655
	c9.71,0,17.655-7.945,17.655-17.655S265.71,150.069,256,150.069z"/>
<g>
</g>
<g>
</g>
<g>
</g>
<g>
</g>
<g>
</g>
<g>
</g>
<g>
</g>
<g>
</g>
<g>
</g>
<g>
</g>
<g>
</g>
<g>
</g>
<g>
</g>
<g>
</g>
<g>
</g>
</svg>
