<?xml version="1.0" encoding="iso-8859-1"?>
<!-- Generator: Adobe Illustrator 19.0.0, SVG Export Plug-In . SVG Version: 6.00 Build 0)  -->
<svg version="1.1" id="Layer_1" xmlns="http://www.w3.org/2000/svg" xmlns:xlink="http://www.w3.org/1999/xlink" x="0px" y="0px"
	 viewBox="0 0 512 512" style="enable-background:new 0 0 512 512;" xml:space="preserve">
<path style="fill:#43B05B;" d="M256,0C158.897,0,88.276,80.331,88.276,167.724c0,52.966,18.538,81.214,43.255,132.414
	C180.966,402.538,256,512,256,512s75.034-109.462,124.469-211.862c24.717-51.2,43.255-79.448,43.255-132.414
	C423.724,80.331,353.103,0,256,0"/>
<path style="fill:#ED7161;" d="M353.103,167.724c0-53.848-43.255-97.103-97.103-97.103s-97.103,43.255-97.103,97.103
	s43.255,97.103,97.103,97.103S353.103,221.572,353.103,167.724"/>
<rect x="158.896" y="158.897" transform="matrix(-0.7071 0.7071 -0.7071 -0.7071 555.6152 105.3049)" style="fill:#FFFFFF;" width="194.205" height="17.655"/>
<g>
</g>
<g>
</g>
<g>
</g>
<g>
</g>
<g>
</g>
<g>
</g>
<g>
</g>
<g>
</g>
<g>
</g>
<g>
</g>
<g>
</g>
<g>
</g>
<g>
</g>
<g>
</g>
<g>
</g>
</svg>
