<?xml version="1.0" encoding="iso-8859-1"?>
<!-- Generator: Adobe Illustrator 19.0.0, SVG Export Plug-In . SVG Version: 6.00 Build 0)  -->
<svg version="1.1" id="Layer_1" xmlns="http://www.w3.org/2000/svg" xmlns:xlink="http://www.w3.org/1999/xlink" x="0px" y="0px"
	 viewBox="0 0 512 512" style="enable-background:new 0 0 512 512;" xml:space="preserve">
<path style="fill:#43B05B;" d="M256,0C158.897,0,88.276,80.331,88.276,167.724c0,52.966,18.538,81.214,43.255,132.414
	C180.966,402.538,256,512,256,512s75.034-109.462,124.469-211.862c24.717-51.2,43.255-79.448,43.255-132.414
	C423.724,80.331,353.103,0,256,0"/>
<g>
	<path style="fill:#FFFFFF;" d="M203.034,238.345c-5.297,0-8.828-3.531-8.828-8.828V105.931c0-5.297,3.531-8.828,8.828-8.828
		s8.828,3.531,8.828,8.828v123.586C211.862,234.814,208.331,238.345,203.034,238.345z"/>
	<path style="fill:#FFFFFF;" d="M238.345,150.069c-2.648,0-4.414-0.883-6.179-2.648l-29.131-29.131l-29.131,29.131
		c-3.531,3.531-8.828,3.531-12.359,0c-3.531-3.531-3.531-8.828,0-12.359l35.31-35.31c3.531-3.531,8.828-3.531,12.359,0l35.31,35.31
		c3.531,3.531,3.531,8.828,0,12.359C242.759,149.186,240.993,150.069,238.345,150.069z"/>
	<path style="fill:#FFFFFF;" d="M300.138,238.345c-5.297,0-8.828-3.531-8.828-8.828V105.931c0-5.297,3.531-8.828,8.828-8.828
		c5.297,0,8.828,3.531,8.828,8.828v123.586C308.966,234.814,305.434,238.345,300.138,238.345z"/>
	<path style="fill:#FFFFFF;" d="M300.138,238.345c-2.648,0-4.414-0.883-6.179-2.648l-35.31-35.31c-3.531-3.531-3.531-8.828,0-12.359
		c3.531-3.531,8.828-3.531,12.359,0l29.131,29.131l29.131-29.131c3.531-3.531,8.828-3.531,12.359,0
		c3.531,3.531,3.531,8.828,0,12.359l-35.31,35.31C304.552,237.462,302.786,238.345,300.138,238.345z"/>
</g>
<g>
</g>
<g>
</g>
<g>
</g>
<g>
</g>
<g>
</g>
<g>
</g>
<g>
</g>
<g>
</g>
<g>
</g>
<g>
</g>
<g>
</g>
<g>
</g>
<g>
</g>
<g>
</g>
<g>
</g>
</svg>
