<?xml version="1.0" encoding="iso-8859-1"?>
<!-- Generator: Adobe Illustrator 19.0.0, SVG Export Plug-In . SVG Version: 6.00 Build 0)  -->
<svg version="1.1" id="Layer_1" xmlns="http://www.w3.org/2000/svg" xmlns:xlink="http://www.w3.org/1999/xlink" x="0px" y="0px"
	 viewBox="0 0 504 504" style="enable-background:new 0 0 504 504;" xml:space="preserve">
<circle style="fill:#84DBFF;" cx="252" cy="252" r="252"/>
<g>
	<polygon style="fill:#324A5E;" points="362.7,145.6 314,145.6 319,128.2 357.6,128.2 	"/>
	<polygon style="fill:#324A5E;" points="190,145.6 141.3,145.6 146.4,128.2 185,128.2 	"/>
</g>
<path style="fill:#E6E9EE;" d="M335.4,138.3c-15.5,0-30,4.8-41.9,13h-82.9c-11.9-8.2-26.4-13-41.9-13c-41.2,0-75.2,34.8-74.1,76
	c0.3,10.5,2.7,20.4,6.9,29.4c13.5,28.9,21.2,60.1,21.2,91.9c0,20.8,15.8,38.8,36.6,40.1c18.5,1.2,35.1-10.6,40.2-28.2l13.7-47.5
	c2.8,1.3,5.9,2,9.2,2c12.4,0,22.5-10.1,22.5-22.5c0-3.1-0.6-6.1-1.8-8.8c2.9-0.7,5.9-1,9-1l0,0c3.1,0,6.1,0.4,9,1
	c-1.2,2.7-1.8,5.7-1.8,8.8c0,12.4,10.1,22.5,22.5,22.5c3.3,0,6.4-0.7,9.2-2l13.7,47.5c5.3,18.3,23.2,30.4,42.6,28
	c19.7-2.5,34.2-19.9,34.2-39.8v-0.1c0-31.9,7.8-63.1,21.2-91.9c4.2-9,6.6-18.9,6.9-29.4C410.5,173.1,376.6,138.3,335.4,138.3z"/>
<g>
	<circle style="fill:#324A5E;" cx="281.7" cy="279.6" r="13"/>
	<circle style="fill:#324A5E;" cx="222.3" cy="279.6" r="13"/>
</g>
<g>
	<circle style="fill:#CED5E0;" cx="335.4" cy="212.4" r="61.1"/>
	<circle style="fill:#CED5E0;" cx="168.6" cy="212.4" r="61.1"/>
</g>
<circle style="fill:#FF7058;" cx="335.4" cy="186.4" r="13.4"/>
<circle style="fill:#54C0EB;" cx="335.4" cy="238.4" r="13.4"/>
<circle style="fill:#4CDBC4;" cx="361.3" cy="212.4" r="13.4"/>
<circle style="fill:#FFD05B;" cx="309.4" cy="212.4" r="13.4"/>
<path style="fill:#FFFFFF;" d="M204.1,199.9h-16.8c-3.4,0-6.2-2.8-6.2-6.2v-16.8c0-3.4-2.8-6.2-6.2-6.2h-12.5
	c-3.4,0-6.2,2.8-6.2,6.2v16.8c0,3.4-2.8,6.2-6.2,6.2h-16.8c-3.4,0-6.2,2.8-6.2,6.2v12.5c0,3.4,2.8,6.2,6.2,6.2H150
	c3.4,0,6.2,2.8,6.2,6.2v16.8c0,3.4,2.8,6.2,6.2,6.2h12.5c3.4,0,6.2-2.8,6.2-6.2V231c0-3.4,2.8-6.2,6.2-6.2h16.8
	c3.4,0,6.2-2.8,6.2-6.2v-12.5C210.4,202.7,207.6,199.9,204.1,199.9z"/>
<g>
	<polygon style="fill:#ACB3BA;" points="196.5,206.4 196.5,218.4 204.7,212.4 	"/>
	<polygon style="fill:#ACB3BA;" points="140.8,218.4 140.8,206.4 132.6,212.4 	"/>
	<polygon style="fill:#ACB3BA;" points="174.6,240.3 162.6,240.3 168.6,248.4 	"/>
	<polygon style="fill:#ACB3BA;" points="162.6,184.6 174.6,184.6 168.6,176.4 	"/>
	<circle style="fill:#ACB3BA;" cx="168.6" cy="212.4" r="10.3"/>
</g>
<g>
</g>
<g>
</g>
<g>
</g>
<g>
</g>
<g>
</g>
<g>
</g>
<g>
</g>
<g>
</g>
<g>
</g>
<g>
</g>
<g>
</g>
<g>
</g>
<g>
</g>
<g>
</g>
<g>
</g>
</svg>
