<?xml version="1.0" encoding="iso-8859-1"?>
<!-- Generator: Adobe Illustrator 19.0.0, SVG Export Plug-In . SVG Version: 6.00 Build 0)  -->
<svg version="1.1" id="Layer_1" xmlns="http://www.w3.org/2000/svg" xmlns:xlink="http://www.w3.org/1999/xlink" x="0px" y="0px"
	 viewBox="0 0 504 504" style="enable-background:new 0 0 504 504;" xml:space="preserve">
<circle style="fill:#FFD05B;" cx="252" cy="252" r="252"/>
<g>
	<path style="fill:#324A5E;" d="M419.4,339.5h-275c-3.3,0-5.9-2.6-5.9-5.9V153.3H88.8c-3.3,0-5.9-2.6-5.9-5.9c0-3.3,2.6-5.9,5.9-5.9
		h55.6c3.3,0,5.9,2.6,5.9,5.9v180.3h269.1c3.3,0,5.9,2.6,5.9,5.9C425.3,336.8,422.7,339.5,419.4,339.5z"/>
	<circle style="fill:#324A5E;" cx="187.1" cy="374.1" r="26"/>
</g>
<circle style="fill:#E6E9EE;" cx="187.1" cy="374.1" r="16"/>
<circle style="fill:#324A5E;" cx="371.4" cy="374.1" r="26"/>
<circle style="fill:#E6E9EE;" cx="371.4" cy="374.1" r="16"/>
<path style="fill:#4CDBC4;" d="M108.2,162.6H86.3c-8.4,0-15.2-6.8-15.2-15.2l0,0c0-8.4,6.8-15.2,15.2-15.2h21.9
	c8.4,0,15.2,6.8,15.2,15.2l0,0C123.4,155.8,116.6,162.6,108.2,162.6z"/>
<path style="fill:#324A5E;" d="M326,182.2h-11.8v-26.9H256v26.9h-11.8v-32.8c0-3.3,2.6-5.9,5.9-5.9h70c3.3,0,5.9,2.6,5.9,5.9
	L326,182.2L326,182.2z"/>
<path style="fill:#FFFFFF;" d="M380.2,310.1H190.1c-1.7,0-3-1.3-3-3V177.7c0-1.7,1.3-3,3-3h190.1c1.7,0,3,1.3,3,3v129.4
	C383.2,308.8,381.8,310.1,380.2,310.1z"/>
<g>
	<rect x="337.7" y="174.7" style="fill:#84DBFF;" width="15.5" height="135.4"/>
	<rect x="217" y="174.7" style="fill:#84DBFF;" width="15.5" height="135.4"/>
</g>
<g>
</g>
<g>
</g>
<g>
</g>
<g>
</g>
<g>
</g>
<g>
</g>
<g>
</g>
<g>
</g>
<g>
</g>
<g>
</g>
<g>
</g>
<g>
</g>
<g>
</g>
<g>
</g>
<g>
</g>
</svg>
