<?xml version="1.0" encoding="iso-8859-1"?>
<!-- Generator: Adobe Illustrator 19.0.0, SVG Export Plug-In . SVG Version: 6.00 Build 0)  -->
<svg version="1.1" id="Layer_1" xmlns="http://www.w3.org/2000/svg" xmlns:xlink="http://www.w3.org/1999/xlink" x="0px" y="0px"
	 viewBox="0 0 504 504" style="enable-background:new 0 0 504 504;" xml:space="preserve">
<circle style="fill:#84DBFF;" cx="252" cy="252" r="252"/>
<path style="fill:#324A5E;" d="M258.9,415.4V70c0-2.2-3.1-3.9-6.9-3.9s-6.9,1.8-6.9,3.9v345.5h13.8V415.4z"/>
<path style="fill:#FFFFFF;" d="M252,78.8L252,78.8c-92.8,0-168,64.9-168,144.9l0,0h336l0,0C420,143.6,344.8,78.8,252,78.8z"/>
<path style="fill:#FF7058;" d="M252,78.8L252,78.8c-66.3,0-120,64.9-120,144.9l0,0h240l0,0C372,143.6,318.3,78.8,252,78.8z"/>
<path style="fill:#FFFFFF;" d="M252,78.8L252,78.8c-39.8,0-72,64.9-72,144.9l0,0h144l0,0C324,143.6,291.8,78.8,252,78.8z"/>
<path style="fill:#FF7058;" d="M252,78.8L252,78.8c-13.3,0-24,64.9-24,144.9l0,0h48l0,0C276,143.6,265.3,78.8,252,78.8z"/>
<path style="fill:#E6E9EE;" d="M420,223.6c0,9.1-10.7,16.4-24,16.4s-24-7.4-24-16.4"/>
<path style="fill:#F1543F;" d="M372,223.6c0,9.1-10.7,16.4-24,16.4s-24-7.4-24-16.4"/>
<path style="fill:#E6E9EE;" d="M324,223.6c0,9.1-10.7,16.4-24,16.4s-24-7.4-24-16.4"/>
<path style="fill:#F1543F;" d="M276,223.6c0,9.1-10.7,16.4-24,16.4c-13.3,0-24-7.4-24-16.4"/>
<path style="fill:#E6E9EE;" d="M228,223.6c0,9.1-10.7,16.4-24,16.4s-24-7.4-24-16.4"/>
<path style="fill:#F1543F;" d="M180,223.6c0,9.1-10.7,16.4-24,16.4s-24-7.4-24-16.4"/>
<path style="fill:#E6E9EE;" d="M132,223.6c0,9.1-10.7,16.4-24,16.4s-24-7.4-24-16.4"/>
<path style="fill:#FFD05B;" d="M252,504c81.7,0,154.4-39,200.4-99.3H51.6C97.6,465,170.3,504,252,504z"/>
<g>
</g>
<g>
</g>
<g>
</g>
<g>
</g>
<g>
</g>
<g>
</g>
<g>
</g>
<g>
</g>
<g>
</g>
<g>
</g>
<g>
</g>
<g>
</g>
<g>
</g>
<g>
</g>
<g>
</g>
</svg>
