<?xml version="1.0" encoding="iso-8859-1"?>
<!-- Generator: Adobe Illustrator 19.0.0, SVG Export Plug-In . SVG Version: 6.00 Build 0)  -->
<svg version="1.1" id="Layer_1" xmlns="http://www.w3.org/2000/svg" xmlns:xlink="http://www.w3.org/1999/xlink" x="0px" y="0px"
	 viewBox="0 0 504 504" style="enable-background:new 0 0 504 504;" xml:space="preserve">
<circle style="fill:#90DFAA;" cx="252" cy="252" r="252"/>
<rect x="130.4" y="96.5" style="fill:#FFFFFF;" width="243.1" height="311.1"/>
<polygon style="fill:#E6E9EE;" points="302.9,112.2 146.2,112.2 146.2,391.8 357.8,391.8 357.8,167.1 302.9,167.1 "/>
<polygon style="fill:#CED5E0;" points="302.9,112.2 302.9,167.1 357.8,167.1 "/>
<g>
	<rect x="167" y="279.4" style="fill:#ACB3BA;" width="170" height="4.8"/>
	<rect x="167" y="301.1" style="fill:#ACB3BA;" width="170" height="4.8"/>
	<rect x="167" y="322.8" style="fill:#ACB3BA;" width="170" height="4.8"/>
	<rect x="167" y="344.6" style="fill:#ACB3BA;" width="170" height="4.8"/>
	<rect x="167" y="366.3" style="fill:#ACB3BA;" width="170" height="4.8"/>
</g>
<polygon style="fill:#FF7058;" points="292,185.4 292,244.6 265.8,244.6 265.8,223.7 238.2,223.7 238.2,244.6 212.1,244.6 
	212.1,185.4 "/>
<polygon style="fill:#4CDBC4;" points="307.8,192.5 252,147.9 196.2,192.5 "/>
<g>
</g>
<g>
</g>
<g>
</g>
<g>
</g>
<g>
</g>
<g>
</g>
<g>
</g>
<g>
</g>
<g>
</g>
<g>
</g>
<g>
</g>
<g>
</g>
<g>
</g>
<g>
</g>
<g>
</g>
</svg>
