<?xml version="1.0" encoding="iso-8859-1"?>
<!-- Generator: Adobe Illustrator 19.0.0, SVG Export Plug-In . SVG Version: 6.00 Build 0)  -->
<svg version="1.1" id="Layer_1" xmlns="http://www.w3.org/2000/svg" xmlns:xlink="http://www.w3.org/1999/xlink" x="0px" y="0px"
	 viewBox="0 0 504 504" style="enable-background:new 0 0 504 504;" xml:space="preserve">
<circle style="fill:#84DBFF;" cx="252" cy="252" r="252"/>
<path style="fill:#FF7058;" d="M436.7,173.8L387,226.3L354.2,199v211.1H149.8V199L117,226.3l-49.7-52.5l82.4-71.4l0.1,0.1v-0.1
	l50.1-6.6l14.4-1.9c4.7,16.4,19.9,28.4,37.8,28.4s33-12,37.7-28.4l14.4,1.9l50.1,6.6v0.1L436.7,173.8z"/>
<g>
	<polygon style="fill:#FFFFFF;" points="436.7,173.8 387,226.3 354.2,199 354.2,102.5 	"/>
	<polygon style="fill:#FFFFFF;" points="67.3,173.8 117,226.3 149.8,199 149.8,102.5 	"/>
	<rect x="149.8" y="387.3" style="fill:#FFFFFF;" width="204.4" height="22.8"/>
</g>
<g>
	<rect x="149.8" y="341.8" style="fill:#F1543F;" width="204.4" height="22.8"/>
	<rect x="149.8" y="296.3" style="fill:#F1543F;" width="204.4" height="22.8"/>
	<rect x="149.8" y="250.8" style="fill:#F1543F;" width="204.4" height="22.8"/>
</g>
<path style="fill:#FFFFFF;" d="M289.7,93.9c-4.7,16.4-19.9,28.4-37.7,28.4c-17.9,0-33-12-37.8-28.4l-14.4,1.9
	c5.8,23.4,26.9,40.8,52.2,40.8c25.2,0,46.4-17.4,52.1-40.8L289.7,93.9z"/>
<g>
</g>
<g>
</g>
<g>
</g>
<g>
</g>
<g>
</g>
<g>
</g>
<g>
</g>
<g>
</g>
<g>
</g>
<g>
</g>
<g>
</g>
<g>
</g>
<g>
</g>
<g>
</g>
<g>
</g>
</svg>
