<?xml version="1.0" encoding="iso-8859-1"?>
<!-- Generator: Adobe Illustrator 19.0.0, SVG Export Plug-In . SVG Version: 6.00 Build 0)  -->
<svg version="1.1" id="Layer_1" xmlns="http://www.w3.org/2000/svg" xmlns:xlink="http://www.w3.org/1999/xlink" x="0px" y="0px"
	 viewBox="0 0 504 504" style="enable-background:new 0 0 504 504;" xml:space="preserve">
<circle style="fill:#324A5E;" cx="252" cy="252" r="252"/>
<circle style="fill:#F9B54C;" cx="334.4" cy="195.3" r="92.1"/>
<circle style="fill:#FFD05B;" cx="334.4" cy="195.3" r="72.7"/>
<path style="fill:#324A5E;" d="M331.9,241.5v-8.1c-10.2-1-19.3-5.1-27.4-12.2l8.1-9.7c6.2,5.4,12.7,8.7,19.3,9.7v-21.6
	c-8.4-2-14.5-4.6-18.4-7.9c-3.9-3.3-5.8-8.1-5.8-14.5s2.2-11.7,6.7-15.8s10.3-6.3,17.6-6.7v-5.6h7.1v5.7c8.2,0.6,15.9,3.4,23.2,8.4
	l-7.2,10.3c-4.9-3.5-10.2-5.6-15.9-6.5v20.9h0.3c8.5,2,14.8,4.7,18.8,8.1c4,3.4,6,8.4,6,14.9s-2.3,11.8-6.9,15.9
	c-4.6,4.1-10.7,6.3-18.3,6.7v8L331.9,241.5L331.9,241.5z M324.1,169.6c-1.9,1.7-2.8,3.8-2.8,6.2c0,2.5,0.7,4.5,2.2,5.9
	c1.5,1.5,4.3,2.8,8.5,4.2v-19.3C328.6,166.9,326,167.9,324.1,169.6z M347.5,218.4c2.1-1.7,3.1-3.9,3.1-6.5s-0.8-4.7-2.4-6.2
	s-4.7-2.9-9.1-4.3v20.1C342.6,221.2,345.4,220.1,347.5,218.4z"/>
<circle style="fill:#CED5E0;" cx="169.6" cy="308.7" r="92.1"/>
<circle style="fill:#E6E9EE;" cx="169.6" cy="308.7" r="72.7"/>
<path style="fill:#324A5E;" d="M121.9,304.7v-10.6h12.8c2.7-8.8,7.5-15.8,14.4-21.1c6.9-5.3,14.7-8,23.5-8c13,0,23.3,4.7,30.9,14.1
	l-8.7,11.1c-3.6-3.8-7-6.5-10.3-8.1c-3.2-1.6-7.2-2.3-12-2.3s-9,1.2-12.8,3.7s-6.7,6-8.5,10.6h29.2v10.6h-31.8
	c-0.1,1-0.1,2.5-0.1,4.5s0.1,3.9,0.4,5.7h31.6v10.6h-28.2c4.4,8.5,11.1,12.8,20,12.8c4.4,0,8.2-0.8,11.4-2.5s6.5-4.3,10-7.9
	l8.7,10.6c-7.6,9.4-17.6,14.1-30.1,14.1c-8.5,0-16.1-2.4-22.7-7.3c-6.6-4.9-11.3-11.4-14.2-19.7H122V315h11.1
	c-0.2-2-0.4-3.9-0.4-5.9s0-3.4,0.1-4.3h-10.9V304.7z"/>
<g>
</g>
<g>
</g>
<g>
</g>
<g>
</g>
<g>
</g>
<g>
</g>
<g>
</g>
<g>
</g>
<g>
</g>
<g>
</g>
<g>
</g>
<g>
</g>
<g>
</g>
<g>
</g>
<g>
</g>
</svg>
