<?xml version="1.0" encoding="iso-8859-1"?>
<!-- Generator: Adobe Illustrator 19.0.0, SVG Export Plug-In . SVG Version: 6.00 Build 0)  -->
<svg version="1.1" id="Layer_1" xmlns="http://www.w3.org/2000/svg" xmlns:xlink="http://www.w3.org/1999/xlink" x="0px" y="0px"
	 viewBox="0 0 504 504" style="enable-background:new 0 0 504 504;" xml:space="preserve">
<circle style="fill:#324A5E;" cx="252" cy="252" r="252"/>
<path style="fill:#FFFFFF;" d="M452.4,306.2l-343.2,96.5c-1.4,0.4-2.8-0.4-3.2-1.8L49.8,201c-0.4-1.4,0.4-2.8,1.8-3.2l343.2-96.5
	c1.4-0.4,2.8,0.4,3.2,1.8L454.2,303C454.6,304.4,453.8,305.8,452.4,306.2z"/>
<path style="fill:#FFD05B;" d="M382.6,121.1L72.3,208.3c-2.1,0.6-3.3,2.8-2.7,4.9l47,167c0.6,2.1,2.8,3.3,4.9,2.7l310.3-87.3
	c2.1-0.6,3.3-2.8,2.7-4.9l-47-167C386.9,121.7,384.7,120.5,382.6,121.1z"/>
<g>
	<path style="fill:#F9B54C;" d="M248.5,166.5c0,0-2.2,2.2-6.2,5.8c-2.1,1.8-4.6,3.9-7.5,6.3c-2.9,2.4-6.3,5-10.1,7.7
		s-8,5.5-12.6,8.3c-2.3,1.4-4.7,2.7-7.1,4.2c-2.5,1.3-5,2.6-7.6,3.9c-2.7,1.2-5.4,2.5-8.2,3.6c-2.9,1-5.7,2.2-8.6,3.2
		c-3,0.8-5.9,1.9-9,2.6c-3.1,0.6-6.3,1.5-9.3,1.8c-3.1,0.3-6.2,0.6-9.3,0.9c-3,0.2-6.1,0.4-9,1.1c-1.5,0.3-2.9,0.5-4.4,0.8
		c-1.5,0.4-2.9,0.7-4.3,1.1c-2.9,0.6-5.7,1.6-8.4,2.5c-5.4,1.8-10.6,3.9-15.4,6.1c-4.8,2.2-9.2,4.5-13.2,6.9
		c-4,2.3-7.5,4.6-10.7,6.7c-3.1,2.1-5.8,4-7.9,5.6c-0.2,0.2-0.5,0.3-0.7,0.5l-0.2-0.7c0.1-0.2,0.3-0.3,0.4-0.4
		c2.1-1.8,4.6-3.9,7.6-6.2s6.5-4.8,10.4-7.3c4-2.5,8.3-5.1,13.1-7.6c4.8-2.4,10-4.8,15.5-6.7c2.8-1,5.6-2,8.6-2.7
		c1.5-0.4,2.9-0.7,4.4-1.2c1.5-0.3,3-0.6,4.6-0.8c3-0.7,6.2-1,9.3-1.3c3-0.3,6.1-0.6,9.2-0.9c3.1-0.2,5.9-1.1,8.9-1.6
		c2.9-0.6,5.8-1.6,8.7-2.4c2.9-0.9,5.6-2,8.4-3c2.8-1.1,5.4-2.3,8-3.4c5.2-2.5,10.2-5,14.8-7.5c4.6-2.6,8.9-5.2,12.8-7.7
		c7.8-5.1,14.1-9.5,18.4-12.8C246.1,168.4,248.5,166.5,248.5,166.5z"/>
	<path style="fill:#F9B54C;" d="M105.9,249c0,0,1.5-0.6,4.2-1.6c2.7-0.9,6.5-2.4,11.1-3.9c4.6-1.5,10-3.3,15.9-5.1
		c5.8-1.8,12.1-3.6,18.3-5.4c6.3-1.7,12.5-3.5,18.4-4.9c5.9-1.5,11.5-2.8,16.2-3.9c4.7-1.2,8.8-1.9,11.5-2.5
		c2.8-0.6,4.4-0.8,4.4-0.8s-1.5,0.6-4.2,1.6c-2.7,0.9-6.5,2.4-11.1,3.9s-10,3.3-15.9,5.1c-5.8,1.8-12.1,3.6-18.3,5.4
		c-6.3,1.7-12.5,3.4-18.4,4.9s-11.5,2.8-16.2,3.9c-4.7,1.1-8.8,1.9-11.5,2.5C107.5,248.7,105.9,249,105.9,249z"/>
	<path style="fill:#F9B54C;" d="M156.8,253c0,0,0.3-0.4,1-1.1c0.7-0.7,1.6-1.7,3.1-2.8c2.8-2.1,7.3-4.7,13.3-6.5
		c5.9-1.7,13-2.8,20.3-3.9c1.8-0.3,3.7-0.6,5.5-1c1.9-0.4,3.8-0.8,5.7-1.3c3.7-0.9,7.5-2.1,11.2-3.5c3.7-1.3,7.3-2.9,10.8-4.6
		c3.5-1.7,6.9-3.5,10.1-5.4c3.2-1.9,6.2-3.9,9-5.8c2.8-2,5.3-4,7.6-5.9c4.5-3.9,8.1-7.4,10.5-10s3.7-4.1,3.7-4.1s-0.3,0.4-0.8,1.2
		s-1.2,2-2.3,3.4c-2.1,2.8-5.2,6.9-9.6,11.1c-2.2,2.1-4.6,4.3-7.3,6.6c-2.7,2.2-5.7,4.4-8.9,6.5c-3.2,2-6.6,4.1-10.2,5.9
		c-3.6,1.8-7.3,3.5-11.2,4.8c-3.8,1.4-7.8,2.5-11.7,3.5c-2,0.5-3.9,0.8-5.8,1.2c-2,0.4-3.9,0.6-5.8,0.8c-7.5,0.9-14.5,1.3-20.3,2.6
		s-10.4,3.1-13.4,4.9C158.2,251.5,156.8,253,156.8,253z"/>
	<path style="fill:#F9B54C;" d="M112.3,284.9c0,0,2.2-0.6,6-1.5c3.8-1,9.2-2.6,15.6-4.8c6.4-2.1,13.6-5.1,21.2-8.7
		c3.8-1.8,7.7-3.9,11.6-5.8c2-1,4-2,6-3c2.2-1,4.1-1.8,6.4-2.6c17.5-6.3,35.7-7.5,48.9-9.8c3.3-0.6,6.4-1.1,9.1-1.6
		c2.7-0.5,5-1,6.9-1.5c3.8-0.9,6-1.5,6-1.5s-0.5,0.2-1.5,0.6c-1,0.4-2.4,1-4.3,1.6c-3.7,1.3-9.2,3-15.8,4.5
		c-6.6,1.5-14.4,3-22.7,4.6c-4.1,0.8-8.4,1.8-12.6,2.8c-4.2,1.1-8.6,2.3-12.6,3.9c-2,0.7-4.3,1.6-6.1,2.5c-2,1-4,2-6,2.9
		c-4,2-7.9,3.8-11.8,5.6c-7.8,3.4-15.5,5.8-22,7.6c-6.6,1.8-12.2,2.7-16.1,3.4C114.6,284.7,112.3,284.9,112.3,284.9z"/>
	<path style="fill:#F9B54C;" d="M245.5,197c0,0,1.5-2,4.6-5.2c1.6-1.6,3.5-3.5,5.8-5.6s5-4.3,8.1-6.6c3.1-2.2,6.6-4.6,10.4-6.8
		c3.9-2.2,8-4.3,12.6-6c2.3-0.8,4.6-1.7,7-2.3c1.2-0.3,2.4-0.6,3.7-1l3.8-0.6c2.5-0.5,5.1-0.6,7.7-0.8l7.5-0.5
		c2.6-0.1,4.8-0.8,7.2-1.1c2.4-0.5,4.7-1.3,7.1-1.9c2.3-0.9,4.6-1.7,6.8-2.5c2.2-1,4.3-2,6.5-3c2.1-1.1,4.1-2.2,6.1-3.3
		c1.9-1.1,3.9-2.3,5.7-3.4c3.6-2.3,7-4.6,10.1-6.8c6.1-4.5,11-8.4,14.3-11.4c3.4-2.9,5.2-4.6,5.2-4.6s-1.6,2-4.7,5.2
		c-3.1,3.2-7.6,7.7-13.5,12.6c-3,2.4-6.3,4.9-9.9,7.5c-1.8,1.2-3.7,2.5-5.6,3.8c-2,1.2-4.1,2.3-6.1,3.6c-2.2,1.1-4.4,2.2-6.6,3.3
		c-2.3,0.9-4.6,1.9-7,2.8c-2.5,0.7-4.9,1.6-7.4,2.1c-2.6,0.4-5.3,1.2-7.8,1.3l-7.6,0.5c-2.4,0.1-4.9,0.2-7.3,0.7l-3.6,0.5
		c-1.2,0.3-2.3,0.6-3.5,0.8c-2.3,0.5-4.6,1.2-6.8,2c-4.4,1.5-8.5,3.3-12.4,5.2c-3.8,1.9-7.3,4-10.5,6.1c-3.1,2.1-6,4.1-8.4,5.9
		c-2.4,1.9-4.5,3.6-6.2,5C247.3,195.2,245.5,197,245.5,197z"/>
	<path style="fill:#F9B54C;" d="M272.5,196.8c0,0,1.2-0.5,3.4-1.3c2.2-0.8,5.2-2,8.9-3.3c7.4-2.6,17.4-5.8,27.5-8.6s20.3-5.4,28-7
		c3.8-0.9,7.1-1.4,9.3-1.9c2.3-0.4,3.6-0.6,3.6-0.6s-1.2,0.5-3.4,1.3c-2.2,0.8-5.2,2-8.9,3.3c-7.4,2.6-17.4,5.8-27.5,8.6
		s-20.3,5.3-28,7c-3.8,0.9-7.1,1.4-9.3,1.9C273.8,196.6,272.5,196.8,272.5,196.8z"/>
	<path style="fill:#F9B54C;" d="M397.9,160.9l0.5,1.7l0,0c-1.1,1.7-2.5,3.5-4.1,5.5c-3.3,3.8-7.3,8.1-12.4,11.9
		c-2.5,1.9-5.3,3.7-8.1,5.4c-2.9,1.6-5.9,3.1-9.1,4.4c-3.1,1.2-6.4,2.2-9.7,3c-1.7,0.5-3.2,0.7-4.8,0.9c-1.7,0.3-3.2,0.4-4.8,0.6
		c-6.3,0.5-11.9,0.6-16.7,1.6c-4.7,1-8.5,2.6-10.8,4.2c-2.1,1.4-3.2,2.5-3.4,2.8c0.1-0.1,0.3-0.4,0.6-0.9c0.5-0.6,1.2-1.5,2.3-2.5
		c2.2-1.9,5.9-4.3,10.7-5.7c4.9-1.5,10.8-2.2,16.8-2.9c1.5-0.2,3.1-0.4,4.5-0.7c1.5-0.4,3.2-0.6,4.7-1c3-0.8,6.1-1.7,9.1-3
		c3-1.1,5.9-2.5,8.7-4c2.8-1.6,5.5-3.1,8-4.9c5-3.4,9.4-7.1,12.8-10.6c1.7-1.8,3.3-3.4,4.6-4.9C397.4,161.4,397.7,161.2,397.9,160.9
		z"/>
	<path style="fill:#F9B54C;" d="M279.3,231.6c0,0,1.8-0.4,4.9-1.2s7.4-2.1,12.6-3.9c5.1-1.8,10.9-4.3,16.9-7.4
		c3-1.5,6.1-3.4,9.2-5.1c1.6-0.9,3.2-1.7,4.7-2.6c1.8-0.9,3.3-1.6,5.1-2.3c14.3-5.4,29.1-5.7,39.8-7.3c2.7-0.4,5.2-0.7,7.3-1.1
		c2.2-0.4,4.1-0.7,5.6-1.1c3.1-0.7,4.9-1.2,4.9-1.2s-0.4,0.2-1.2,0.5c-0.8,0.3-1.9,0.9-3.5,1.4c-3,1.1-7.4,2.5-12.8,3.6
		s-11.7,2.3-18.4,3.5c-3.4,0.6-6.7,1.4-10.2,2.1c-3.4,0.9-6.9,1.9-10.1,3.1c-1.6,0.6-3.5,1.4-4.9,2.1c-1.6,0.9-3.2,1.7-4.8,2.6
		c-3.2,1.7-6.2,3.3-9.4,4.8c-6.3,3-12.5,4.9-17.8,6.4s-9.9,2.1-13.1,2.5C281.1,231.6,279.3,231.6,279.3,231.6z"/>
	<path style="fill:#F9B54C;" d="M273.3,254.5c0,0-2.2,2.2-6.2,5.8c-2.1,1.8-4.6,3.9-7.5,6.3s-6.3,5-10.1,7.7
		c-3.8,2.7-8,5.5-12.6,8.3c-2.3,1.3-4.7,2.7-7.1,4.2c-2.4,1.3-5,2.7-7.6,3.9c-2.7,1.2-5.4,2.5-8.2,3.6c-2.9,1-5.7,2.2-8.6,3.2
		c-3,0.8-5.9,1.9-9,2.6c-3.1,0.6-6.3,1.5-9.3,1.8c-3.1,0.3-6.2,0.6-9.3,0.9c-3,0.2-6.1,0.4-9,1.1c-1.5,0.3-2.9,0.5-4.4,0.8
		c-1.5,0.4-2.9,0.7-4.3,1.1c-2.9,0.6-5.7,1.6-8.4,2.4c-5.4,1.8-10.6,3.9-15.4,6.1c-4.8,2.2-9.2,4.5-13.2,6.9
		c-4,2.3-7.5,4.6-10.7,6.7c-3.1,2.1-5.8,4-7.9,5.6c-0.2,0.2-0.5,0.3-0.7,0.5l-0.2-0.8c0.1-0.1,0.3-0.2,0.4-0.4
		c2.1-1.8,4.6-3.9,7.6-6.2c3-2.3,6.5-4.8,10.4-7.3c4-2.5,8.3-5.1,13.1-7.6c4.8-2.4,10-4.9,15.5-6.7c2.8-1,5.6-2,8.6-2.7
		c1.5-0.4,2.9-0.8,4.4-1.2c1.5-0.3,3-0.6,4.6-0.9c3-0.7,6.2-0.9,9.3-1.2c3-0.3,6.1-0.7,9.2-1c3.1-0.2,5.9-1.1,8.9-1.5
		c2.9-0.6,5.8-1.6,8.7-2.4c2.9-0.9,5.6-2,8.4-3c2.8-1.1,5.4-2.3,8-3.4c5.2-2.5,10.2-5,14.8-7.6s8.9-5.2,12.8-7.7
		c7.8-5.1,14.1-9.5,18.4-12.8C270.9,256.5,273.3,254.5,273.3,254.5z"/>
	<path style="fill:#F9B54C;" d="M130.7,337.1c0,0,1.5-0.6,4.2-1.6c2.7-0.9,6.5-2.4,11.1-3.9s10-3.3,15.9-5.1
		c5.8-1.8,12.1-3.6,18.3-5.4c6.3-1.7,12.5-3.5,18.4-4.9c5.9-1.5,11.5-2.8,16.2-3.9c4.7-1.2,8.8-1.9,11.5-2.5
		c2.8-0.6,4.4-0.8,4.4-0.8s-1.5,0.6-4.2,1.6c-2.7,0.9-6.5,2.4-11.1,3.9s-10,3.3-15.9,5.1c-5.8,1.8-12.1,3.6-18.3,5.4
		c-6.3,1.7-12.5,3.5-18.4,4.9c-5.9,1.5-11.5,2.8-16.2,3.9s-8.8,1.9-11.5,2.5C132.3,336.8,130.7,337.1,130.7,337.1z"/>
	<path style="fill:#F9B54C;" d="M181.5,341c0,0,0.3-0.4,1-1.1s1.6-1.7,3.1-2.8c2.8-2.1,7.3-4.7,13.3-6.4c5.9-1.7,13-2.8,20.3-3.9
		c1.8-0.3,3.7-0.6,5.5-1c1.9-0.4,3.8-0.8,5.7-1.3c3.7-0.9,7.5-2.1,11.2-3.5c3.7-1.3,7.3-2.9,10.8-4.6c3.5-1.7,6.9-3.5,10.1-5.4
		s6.2-3.9,9-5.8c2.8-2,5.3-4,7.6-5.9c4.5-3.9,8.1-7.4,10.5-10s3.7-4.1,3.7-4.1s-0.3,0.4-0.8,1.2c-0.5,0.8-1.2,2-2.3,3.4
		c-2.1,2.8-5.2,6.9-9.6,11.1c-2.2,2.1-4.6,4.3-7.3,6.6c-2.7,2.2-5.7,4.4-8.9,6.5c-3.2,2-6.6,4.1-10.2,5.9s-7.3,3.5-11.2,4.8
		c-3.8,1.4-7.8,2.5-11.7,3.5c-2,0.5-3.9,0.8-5.8,1.2c-2,0.4-3.9,0.6-5.8,0.8c-7.5,0.9-14.5,1.3-20.3,2.6c-5.8,1.3-10.4,3.1-13.4,4.9
		C183,339.6,181.5,341,181.5,341z"/>
	<path style="fill:#F9B54C;" d="M137.1,373c0,0,2.2-0.6,6-1.5c3.8-1,9.2-2.6,15.6-4.8c6.4-2.1,13.6-5.1,21.2-8.7
		c3.8-1.8,7.7-3.9,11.6-5.8c2-1,4-2,6-3c2.2-1,4.1-1.8,6.4-2.6c17.5-6.3,35.7-7.5,48.9-9.8c3.3-0.6,6.4-1.1,9.1-1.6s5-1,6.9-1.5
		c3.8-0.9,6-1.5,6-1.5s-0.5,0.2-1.5,0.6s-2.4,1-4.3,1.6c-3.7,1.3-9.2,3-15.8,4.5c-6.6,1.5-14.4,3-22.7,4.6
		c-4.1,0.8-8.4,1.8-12.6,2.8c-4.2,1.1-8.6,2.3-12.6,3.9c-2,0.7-4.3,1.6-6.1,2.5c-2,1-4,2-6,2.9c-4,2-7.9,3.8-11.8,5.6
		c-7.8,3.4-15.5,5.8-22,7.6c-6.6,1.8-12.2,2.7-16.1,3.4C139.4,372.8,137.1,373,137.1,373z"/>
	<path style="fill:#F9B54C;" d="M270.2,285.1c0,0,1.5-2,4.6-5.2c1.6-1.6,3.5-3.5,5.8-5.6s5-4.3,8.1-6.6c3.1-2.2,6.6-4.6,10.4-6.8
		c3.9-2.2,8-4.3,12.6-6c2.3-0.8,4.6-1.7,7-2.3c1.2-0.3,2.4-0.6,3.7-1l3.8-0.6c2.5-0.5,5.1-0.6,7.7-0.8l7.5-0.5
		c2.6-0.1,4.8-0.8,7.2-1.1c2.4-0.5,4.7-1.3,7.1-1.9c2.3-0.9,4.6-1.7,6.8-2.5c2.2-1,4.3-2,6.5-3c2.1-1.1,4.1-2.2,6.1-3.3
		c1.9-1.2,3.9-2.3,5.7-3.4c3.6-2.3,7-4.6,10.1-6.8c6.1-4.5,11-8.4,14.3-11.4c3.4-2.9,5.2-4.6,5.2-4.6s-1.6,2-4.7,5.2
		s-7.6,7.7-13.5,12.6c-3,2.4-6.3,4.9-9.9,7.5c-1.8,1.2-3.7,2.5-5.6,3.8c-2,1.2-4.1,2.3-6.1,3.6c-2.2,1.1-4.4,2.2-6.6,3.3
		c-2.3,0.9-4.6,1.9-7,2.8c-2.5,0.7-4.9,1.6-7.4,2.1c-2.6,0.4-5.3,1.2-7.8,1.3l-7.6,0.5c-2.4,0.1-4.9,0.2-7.3,0.7l-3.6,0.5
		c-1.2,0.3-2.3,0.6-3.5,0.8c-2.3,0.5-4.6,1.2-6.8,2c-4.4,1.5-8.5,3.3-12.4,5.2c-3.8,1.9-7.3,4-10.5,6.1c-3.1,2.1-6,4.1-8.4,5.9
		c-2.4,1.9-4.5,3.6-6.2,5C272,283.3,270.2,285.1,270.2,285.1z"/>
	<path style="fill:#F9B54C;" d="M297.2,284.9c0,0,1.2-0.5,3.4-1.3c2.2-0.8,5.2-2,8.9-3.3c7.4-2.6,17.4-5.8,27.5-8.6
		c10.1-2.8,20.3-5.4,28-7c3.8-0.9,7.1-1.4,9.3-1.9c2.3-0.4,3.6-0.6,3.6-0.6s-1.2,0.5-3.4,1.3c-2.2,0.8-5.2,2-8.9,3.3
		c-7.4,2.6-17.4,5.8-27.5,8.6c-10.1,2.8-20.3,5.3-28,7c-3.8,0.9-7.1,1.4-9.3,1.9C298.5,284.7,297.2,284.9,297.2,284.9z"/>
	<path style="fill:#F9B54C;" d="M422.7,249l0.5,1.7l0,0c-1.1,1.7-2.5,3.5-4.1,5.5c-3.3,3.8-7.3,8.1-12.4,11.9
		c-2.5,1.9-5.2,3.8-8.1,5.4s-6,3.1-9.1,4.4c-3.1,1.2-6.4,2.2-9.7,3c-1.7,0.5-3.2,0.6-4.8,0.9c-1.7,0.3-3.2,0.4-4.8,0.6
		c-6.3,0.5-11.9,0.6-16.7,1.7c-4.7,1-8.5,2.6-10.8,4.2c-2.1,1.4-3.2,2.5-3.4,2.8c0.1-0.1,0.3-0.4,0.6-0.9c0.5-0.6,1.2-1.5,2.3-2.5
		c2.2-1.9,5.9-4.3,10.7-5.7c4.9-1.5,10.8-2.2,16.8-2.9c1.5-0.2,3.1-0.4,4.5-0.7c1.5-0.4,3.2-0.6,4.7-1c3-0.8,6.1-1.7,9.1-3
		c3-1.1,5.9-2.5,8.7-4c2.8-1.6,5.5-3.1,8-4.9c5-3.4,9.4-7.1,12.8-10.6c1.7-1.7,3.3-3.4,4.6-4.8C422.2,249.5,422.4,249.2,422.7,249z"
		/>
	<path style="fill:#F9B54C;" d="M304.1,319.7c0,0,1.8-0.4,4.9-1.2c3.1-0.8,7.4-2.1,12.6-3.9c5.1-1.8,10.9-4.3,16.9-7.4
		c3-1.5,6.1-3.4,9.2-5.1c1.6-0.9,3.2-1.7,4.7-2.6c1.8-0.9,3.3-1.6,5.1-2.3c14.3-5.4,29.1-5.7,39.8-7.3c2.7-0.4,5.2-0.7,7.3-1.1
		c2.2-0.4,4.1-0.7,5.6-1.1c3.1-0.7,4.9-1.2,4.9-1.2s-0.4,0.2-1.2,0.5c-0.8,0.3-1.9,0.9-3.5,1.4c-3,1.1-7.4,2.5-12.8,3.6
		s-11.7,2.3-18.4,3.5c-3.4,0.6-6.7,1.4-10.2,2.1c-3.4,0.9-6.9,1.9-10.1,3.1c-1.6,0.6-3.5,1.4-4.9,2.1c-1.6,0.9-3.2,1.7-4.8,2.6
		c-3.2,1.7-6.2,3.3-9.4,4.8c-6.3,3-12.5,4.9-17.8,6.4s-9.9,2.1-13.1,2.5C305.9,319.6,304.1,319.7,304.1,319.7z"/>
</g>
<g>
	<path style="fill:#FFFFFF;" d="M178.8,234.4l0.5-18.5l6.9-1.9l10,15.5l1.1-18.6l7.1-2l-2,32.4l-4.9,1.4L185.2,224l-0.6,22.3
		l-4.9,1.4L161,221l7.1-2L178.8,234.4z"/>
	<path style="fill:#FFFFFF;" d="M234,228.8c-1.9,3.1-4.5,5.2-8,6.2c-3.4,1-6.6,0.7-9.4-0.8c-2.9-1.5-4.8-4-5.8-7.6s-0.7-6.7,1-9.5
		s4.1-4.6,7.2-5.5c3.1-0.9,6-0.7,8.8,0.6c2.7,1.3,4.5,3.6,5.5,6.9l1,3.4l-16.6,4.7c0.5,1.2,1.5,2,2.8,2.5s2.7,0.5,4,0.1
		c2.2-0.6,3.8-1.9,4.9-3.8L234,228.8z M224.1,217.1c-1.1-0.5-2.2-0.6-3.5-0.2c-1.3,0.4-2.3,1.1-3.1,2.1c-0.8,1.1-1.1,2.3-0.9,3.6
		l10-2.8C226,218.4,225.2,217.5,224.1,217.1z"/>
	<path style="fill:#FFFFFF;" d="M273.6,221.2l-4.5-5.6l-12.4,3.5l-1,7.2l-7,2l4.5-33.1l6.4-1.8l21.1,25.9L273.6,221.2z M258.9,203
		l-1.3,9.6l7.4-2.1L258.9,203z"/>
	<path style="fill:#FFFFFF;" d="M290.3,198c-1.9,0.5-3.1,1.6-3.7,3.2c-0.6,1.6-0.5,3.5,0.1,5.7l2.8,9.8l-6.3,1.8l-6.4-22.7l6.3-1.8
		l0.8,3c0.6-1.2,1.4-2.2,2.4-3.2s2.2-1.7,3.5-2.1l1.7,5.9L290.3,198z"/>
	<path style="fill:#FFFFFF;" d="M319,204.9c-1.9,3.1-4.5,5.2-8,6.2c-3.4,1-6.6,0.7-9.4-0.8c-2.9-1.5-4.8-4-5.8-7.6s-0.7-6.7,1-9.5
		s4.1-4.6,7.2-5.5s6-0.7,8.8,0.6c2.7,1.3,4.5,3.6,5.5,6.9l1,3.4l-16.6,4.7c0.5,1.2,1.5,2,2.8,2.5s2.7,0.5,4,0.1
		c2.2-0.6,3.8-1.9,4.9-3.8L319,204.9z M309.2,193.1c-1.1-0.5-2.2-0.6-3.5-0.2c-1.3,0.4-2.3,1.1-3.1,2.1c-0.8,1.1-1.1,2.3-0.9,3.6
		l10-2.8C311,194.5,310.2,193.6,309.2,193.1z"/>
	<path style="fill:#FFFFFF;" d="M155,325.5c5-1.4,8.6-4.6,10.7-9.5l8.5,4.9c-3.6,7.4-8.9,12-16,14s-13.6,1.4-19.4-1.8
		c-5.8-3.2-9.7-8.2-11.6-15c-1.9-6.8-1.2-13.2,2.2-19.1s8.5-9.8,15.2-11.7c7.5-2.1,14.7-1,21.4,3.3l-4.3,9c-4.4-3.1-9-4-13.8-2.6
		c-3.9,1.1-6.8,3.3-8.8,6.6c-2,3.3-2.4,7.1-1.2,11.4s3.5,7.3,6.8,9.2C147.8,326.1,151.3,326.5,155,325.5z"/>
	<path style="fill:#FFFFFF;" d="M184.2,327l-12.9-46l10.3-2.9L192,315l19.6-5.5l2.6,9.2L184.2,327z"/>
	<path style="fill:#FFFFFF;" d="M256.9,299.8c-3.4,5.9-8.5,9.7-15.3,11.6s-13.2,1.3-19.1-2c-5.9-3.2-9.8-8.2-11.7-15
		s-1.2-13.1,2.2-18.9c3.4-5.9,8.5-9.7,15.3-11.6s13.2-1.3,19.1,2c5.9,3.2,9.8,8.2,11.7,15C261,287.6,260.2,293.9,256.9,299.8z
		 M248.6,283.8c-1.2-4.1-3.5-7.2-6.9-9.4c-3.5-2.2-7.1-2.7-10.9-1.6c-3.8,1.1-6.7,3.4-8.5,7.1c-1.8,3.6-2.2,7.5-1,11.6
		s3.5,7.2,6.9,9.4c3.4,2.1,7.1,2.7,10.9,1.6c3.8-1.1,6.7-3.4,8.5-7C249.4,291.8,249.8,287.9,248.6,283.8z"/>
	<path style="fill:#FFFFFF;" d="M273.9,262.1c-0.8,1.1-1,2.3-0.6,3.6c0.4,1.3,1.3,2.2,2.7,2.7c1.4,0.4,4.5,0.6,9.1,0.4
		c4.7-0.2,8.5,0.5,11.5,2s5.1,4.3,6.3,8.4c1.2,4.1,0.6,7.9-1.8,11.3s-6.1,5.9-11.1,7.3c-7.3,2-14.6,1.2-22-2.6l4-9.2
		c6.2,2.9,11.4,3.8,15.6,2.6c1.9-0.5,3.3-1.4,4.1-2.5c0.8-1.1,1.1-2.4,0.7-3.7c-0.4-1.4-1.3-2.3-2.6-2.8c-1.4-0.5-3.9-0.7-7.5-0.6
		c-5.7,0.2-10.1-0.3-13.2-1.7c-3.1-1.3-5.2-4.2-6.4-8.6c-1.2-4.4-0.6-8.2,1.9-11.4c2.5-3.2,6.1-5.5,10.7-6.9c3.1-0.9,6.3-1.2,9.7-1
		c3.4,0.2,6.5,0.9,9.3,2.2l-3.1,9c-4.8-1.9-9.4-2.3-13.7-1.1C275.9,260.2,274.7,261,273.9,262.1z"/>
	<path style="fill:#FFFFFF;" d="M335.4,234.9l2.6,9.1l-22.9,6.4l2.7,9.5l20.6-5.8l2.5,8.8l-20.6,5.8l2.7,9.5l23.6-6.6l2.6,9.1
		l-33.9,9.5l-12.9-46L335.4,234.9z"/>
	<path style="fill:#FFFFFF;" d="M381.7,228.3c5.5,2.8,9.3,7.7,11.3,14.9s1.5,13.4-1.6,18.8s-9,9.3-17.8,11.8l-15.7,4.4l-12.9-46
		l16.3-4.6C369.3,225.3,376.2,225.6,381.7,228.3z M381.9,257.8c1.9-3.1,2.1-6.9,0.9-11.4c-1.3-4.5-3.5-7.6-6.7-9.4
		c-3.2-1.7-7.4-1.9-12.6-0.4l-5.7,1.6l7.9,28l6.5-1.8C376.7,263.1,380,260.9,381.9,257.8z"/>
</g>
<g>
</g>
<g>
</g>
<g>
</g>
<g>
</g>
<g>
</g>
<g>
</g>
<g>
</g>
<g>
</g>
<g>
</g>
<g>
</g>
<g>
</g>
<g>
</g>
<g>
</g>
<g>
</g>
<g>
</g>
</svg>
