<?xml version="1.0" encoding="iso-8859-1"?>
<!-- Generator: Adobe Illustrator 19.0.0, SVG Export Plug-In . SVG Version: 6.00 Build 0)  -->
<svg version="1.1" id="Layer_1" xmlns="http://www.w3.org/2000/svg" xmlns:xlink="http://www.w3.org/1999/xlink" x="0px" y="0px"
	 viewBox="0 0 504 504" style="enable-background:new 0 0 504 504;" xml:space="preserve">
<circle style="fill:#FFD05B;" cx="252" cy="252" r="252"/>
<rect x="132.8" y="234.7" style="fill:#FFFFFF;" width="227.9" height="34.6"/>
<rect x="132.8" y="234.7" style="fill:#E6E9EE;" width="76.6" height="34.6"/>
<path style="fill:#324A5E;" d="M368.8,261.1c1.4,2.6,2,5.4,1.7,8.2h-11.4v-34.6h11.4c0.6,1.2,0.7,2.5,0.6,3.8
	c-0.1,2.2-0.6,4.3-1.3,6.4c-0.4,1.1-0.8,2.1-0.9,3.2c-0.2,2.3,1.2,4.4,1.9,6.7C371.5,257,371.3,259.7,368.8,261.1z"/>
<path style="fill:#FF7058;" d="M385.7,118.3c-73.8-73.8-193.6-73.8-267.4,0s-73.9,193.6,0,267.4c73.8,73.8,193.6,73.8,267.4,0
	C459.6,311.9,459.6,192.1,385.7,118.3z M355.5,148.5c52,52,56.7,133.5,14,190.9L164.7,134.5C222,91.8,303.5,96.4,355.5,148.5z
	 M148.5,355.5c-52.1-52.1-56.7-133.5-14-190.8l204.8,204.8C282,412.2,200.5,407.5,148.5,355.5z"/>
<g>
	<path style="fill:#FFFFFF;" d="M318.2,145.9c0,0,0.3,1.4,0.8,3.9c0.2,1.2,0.5,2.8,0.7,4.5c0.3,1.7,0.5,3.8,0.8,5.7
		c0.3,2.3,0.8,4,1.6,6c0.8,2,2,3.9,3.4,5.7c2.9,3.5,7.1,6.2,11.7,7.3c1.1,0.3,2.3,0.5,3.5,0.5l2.1,0.1c0.7,0.1,1.3,0.1,2.3,0.2
		c3.5,0.5,6.3,1.6,9,3.2c5.3,3.1,8.9,7.8,10.5,12.2c0.9,2.2,1.2,4.3,1.4,6.2c0.2,1.9,0,3.5-0.1,4.7c-0.1,1.3-0.4,2.2-0.5,2.9
		s-0.2,1-0.2,1s-0.3-1.4-0.8-3.9c-0.5-2.4-1.6-5.7-3.7-8.9c-2.2-3.2-5.5-6.3-9.7-8.1c-2-1-4.5-1.5-6.5-1.7c-0.4-0.1-1.3-0.1-1.9-0.1
		l-2.1-0.1c-1.6,0-3.3-0.3-4.9-0.7c-3.2-0.8-6.3-2.1-9-4s-4.8-4.3-6.5-6.8s-2.8-5.3-3.4-8c-0.6-2.6-0.7-5.6-0.5-7.5
		c0.2-2.4,0.5-4.1,0.7-5.9c0.2-1.7,0.5-3.2,0.7-4.5C317.9,147.3,318.2,145.9,318.2,145.9z"/>
	<path style="fill:#FFFFFF;" d="M298.5,160.3c0,0,0.3,1.4,0.8,3.9c0.2,1.2,0.5,2.8,0.7,4.5c0.3,1.7,0.5,3.8,0.8,5.7
		c0.3,2.3,0.8,4,1.6,6c0.8,2,2,3.9,3.4,5.7c2.9,3.5,7.1,6.2,11.7,7.3c1.1,0.3,2.3,0.5,3.5,0.5l2.1,0.1c0.7,0.1,1.3,0.1,2.3,0.2
		c3.5,0.5,6.3,1.6,9,3.2c5.3,3.1,8.9,7.8,10.5,12.2c0.9,2.2,1.2,4.3,1.4,6.2c0.2,1.9,0,3.5-0.1,4.7c-0.1,1.3-0.4,2.2-0.5,2.9
		s-0.2,1-0.2,1s-0.3-1.4-0.8-3.9c-0.5-2.4-1.6-5.7-3.7-8.9c-2.2-3.2-5.5-6.3-9.7-8.1c-2-1-4.5-1.5-6.5-1.7c-0.4-0.1-1.3-0.1-1.9-0.1
		l-2.1-0.1c-1.6,0-3.3-0.3-4.9-0.7c-3.2-0.8-6.3-2.1-9-4s-4.8-4.3-6.5-6.8s-2.8-5.3-3.4-8c-0.6-2.6-0.7-5.6-0.5-7.5
		c0.2-2.4,0.5-4.1,0.7-5.9c0.2-1.7,0.5-3.2,0.7-4.5C298.2,161.7,298.5,160.3,298.5,160.3z"/>
</g>
<g>
</g>
<g>
</g>
<g>
</g>
<g>
</g>
<g>
</g>
<g>
</g>
<g>
</g>
<g>
</g>
<g>
</g>
<g>
</g>
<g>
</g>
<g>
</g>
<g>
</g>
<g>
</g>
<g>
</g>
</svg>
