<?xml version="1.0" encoding="iso-8859-1"?>
<!-- Generator: Adobe Illustrator 19.0.0, SVG Export Plug-In . SVG Version: 6.00 Build 0)  -->
<svg version="1.1" id="Layer_1" xmlns="http://www.w3.org/2000/svg" xmlns:xlink="http://www.w3.org/1999/xlink" x="0px" y="0px"
	 viewBox="0 0 504 504" style="enable-background:new 0 0 504 504;" xml:space="preserve">
<circle style="fill:#84DBFF;" cx="252" cy="252" r="252"/>
<g>
	<polygon style="fill:#324A5E;" points="324.3,64.1 179.7,64.1 154.9,135.1 349.1,135.1 	"/>
	<polygon style="fill:#324A5E;" points="179.7,439.9 324.3,439.9 349.1,368.9 154.9,368.9 	"/>
</g>
<circle style="fill:#E6E9EE;" cx="252" cy="252" r="156.7"/>
<path style="fill:#FFFFFF;" d="M252,375.2c-67.9,0-123.2-55.2-123.2-123.2S184.1,128.8,252,128.8S375.2,184.1,375.2,252
	S319.9,375.2,252,375.2z"/>
<g>
	<path style="fill:#324A5E;" d="M252,139.9c-2.1,0-3.8,1.7-3.8,3.8V155c0,2.1,1.7,3.8,3.8,3.8s3.8-1.7,3.8-3.8v-11.3
		C255.8,141.5,254.1,139.9,252,139.9z"/>
	<path style="fill:#324A5E;" d="M252,345.4c-2.1,0-3.8,1.7-3.8,3.8v11.3c0,2.1,1.7,3.8,3.8,3.8s3.8-1.7,3.8-3.8v-11.3
		C255.8,347,254.1,345.4,252,345.4z"/>
	<path style="fill:#324A5E;" d="M158.6,252c0-2.1-1.7-3.8-3.8-3.8h-11.3c-2.1,0-3.8,1.7-3.8,3.8s1.7,3.8,3.8,3.8h11.3
		C157,255.8,158.6,254.1,158.6,252z"/>
	<path style="fill:#324A5E;" d="M360.4,248.2h-11.3c-2.1,0-3.8,1.7-3.8,3.8s1.7,3.8,3.8,3.8h11.3c2.1,0,3.8-1.7,3.8-3.8
		C364.1,249.9,362.5,248.2,360.4,248.2z"/>
	<path style="fill:#324A5E;" d="M201.1,156.3c-1-1.8-3.3-2.4-5.1-1.4s-2.4,3.3-1.4,5.1l3.9,6.8c0.7,1.2,2,1.9,3.3,1.9
		c0.6,0,1.3-0.2,1.9-0.5c1.8-1,2.4-3.3,1.4-5.1L201.1,156.3z"/>
	<path style="fill:#324A5E;" d="M305.5,337.1c-1-1.8-3.3-2.4-5.1-1.4c-1.8,1-2.4,3.3-1.4,5.1l3.9,6.8c0.7,1.2,2,1.9,3.3,1.9
		c0.6,0,1.3-0.2,1.9-0.5c1.8-1,2.4-3.3,1.4-5.1L305.5,337.1z"/>
	<path style="fill:#324A5E;" d="M163.1,299l-6.8,3.9c-1.8,1-2.4,3.3-1.4,5.1c0.7,1.2,2,1.9,3.3,1.9c0.6,0,1.3-0.2,1.9-0.5l6.8-3.9
		c1.8-1,2.4-3.3,1.4-5.1C167.2,298.6,164.9,297.9,163.1,299z"/>
	<path style="fill:#324A5E;" d="M339,205.5c0.6,0,1.3-0.2,1.9-0.5l6.8-3.9c1.8-1,2.4-3.3,1.4-5.1s-3.3-2.4-5.1-1.4l-6.8,3.9
		c-1.8,1-2.4,3.3-1.4,5.1C336.5,204.8,337.7,205.5,339,205.5z"/>
	<path style="fill:#324A5E;" d="M166.9,198.5l-6.8-3.9c-1.8-1-4.1-0.4-5.1,1.4c-1,1.8-0.4,4.1,1.4,5.1l6.8,3.9
		c0.6,0.3,1.2,0.5,1.9,0.5c1.3,0,2.6-0.7,3.3-1.9C169.3,201.8,168.7,199.5,166.9,198.5z"/>
	<path style="fill:#324A5E;" d="M347.7,302.9l-6.8-3.9c-1.8-1-4.1-0.4-5.1,1.4s-0.4,4.1,1.4,5.1l6.8,3.9c0.6,0.3,1.2,0.5,1.9,0.5
		c1.3,0,2.6-0.7,3.3-1.9C350.2,306.3,349.5,304,347.7,302.9z"/>
	<path style="fill:#324A5E;" d="M203.6,335.8c-1.8-1-4.1-0.4-5.1,1.4l-3.9,6.8c-1,1.8-0.4,4.1,1.4,5.1c0.6,0.3,1.2,0.5,1.9,0.5
		c1.3,0,2.6-0.7,3.3-1.9l3.9-6.8C206.1,339.1,205.4,336.8,203.6,335.8z"/>
	<path style="fill:#324A5E;" d="M308.1,154.9c-1.8-1-4.1-0.4-5.1,1.4l-3.9,6.8c-1,1.8-0.4,4.1,1.4,5.1c0.6,0.3,1.2,0.5,1.9,0.5
		c1.3,0,2.6-0.7,3.3-1.9l3.9-6.8C310.5,158.2,309.9,155.9,308.1,154.9z"/>
</g>
<polygon style="fill:#FF7058;" points="252,250.5 320,252 252,253.5 "/>
<polygon style="fill:#FF7058;" points="251,252 252,170.6 253,252 "/>
<polygon style="fill:#FF7058;" points="252.7,252.7 191.9,312.1 251.3,251.3 "/>
<circle style="fill:#324A5E;" cx="252" cy="252" r="9.4"/>
<g>
</g>
<g>
</g>
<g>
</g>
<g>
</g>
<g>
</g>
<g>
</g>
<g>
</g>
<g>
</g>
<g>
</g>
<g>
</g>
<g>
</g>
<g>
</g>
<g>
</g>
<g>
</g>
<g>
</g>
</svg>
