<?xml version="1.0" encoding="iso-8859-1"?>
<!-- Generator: Adobe Illustrator 19.0.0, SVG Export Plug-In . SVG Version: 6.00 Build 0)  -->
<svg version="1.1" id="Layer_1" xmlns="http://www.w3.org/2000/svg" xmlns:xlink="http://www.w3.org/1999/xlink" x="0px" y="0px"
	 viewBox="0 0 504 504" style="enable-background:new 0 0 504 504;" xml:space="preserve">
<circle style="fill:#90DFAA;" cx="252" cy="252" r="252"/>
<path style="fill:#324A5E;" d="M226.8,208.5c2.9-30.8,13.4-61.8-10-82.1c-38.7-33.7-114.5-11.7-116.1,51
	c-0.8,32.2,20.6,148,22.4,157.1c2.2,11.8,4.4,23.5,6.6,35.3c2.6,14.1,6.9,37,14.2,48.2c4.5,6.8,13.4,10.6,21.5,11.2
	c11,0.9,50.1-10,58.2-13.4c25.8-10.7,18.7-39.4,15.4-50.2c-5.9-19.7-11.5-39.5-14.5-59.8C216.9,254,226,217.7,226.8,208.5z"/>
<g>
	<path style="fill:#E6E9EE;" d="M130.7,311.8c-28.9-19.5-25-40.7-23.8-46.4c0.2-0.9,0.4-1.6,0.5-1.8l-3.5,8.9
		c-2.8,4.7-0.3,20,1.6,24.8c2.1,5.3,27.1,46.4,38.6,50.4C155.4,351.6,168.9,337.6,130.7,311.8z"/>
	<path style="fill:#E6E9EE;" d="M107.4,263.6l0.1-0.2C107.4,263.4,107.4,263.5,107.4,263.6z"/>
	<path style="fill:#E6E9EE;" d="M224.9,313.9c0,0-8.6,31.1-23.1,30.4c0,0-13.8-2.1-1.6-18.7c11.8-16.3,19.1-17.9,21.9-42.4
		c0-0.3,0.1-0.7,0.1-1.1C224.9,247.6,224.9,313.9,224.9,313.9z"/>
</g>
<path style="fill:#FFFFFF;" d="M186.4,184.6c-35.6-34.6-84.2,38.2-85.9,88.7c-0.1,2.5-0.8,15,6.6,27.1
	c-1.2-4.9,19.7-97.2,56.1-104.4c2-0.4,3.5-1.9,5.2-0.9c1.2,0.7,2.4,1.5,3.7,2.5c35,25.8,53,116.2,53,116.2
	C236.6,267.7,215.4,212.9,186.4,184.6z"/>
<path style="fill:#ACB3BA;" d="M165.4,192.5L165.4,192.5c-2.1,0-3.9-1.7-3.9-3.9v-23.1c0-2.1,1.7-3.9,3.9-3.9l0,0
	c2.1,0,3.9,1.7,3.9,3.9v23.1C169.3,190.8,167.5,192.5,165.4,192.5z"/>
<path style="fill:#324A5E;" d="M277.2,172.7c-2.9-30.8-13.4-61.8,10-82.1c38.7-33.7,114.5-11.7,116.1,51
	c0.8,32.2-20.6,148-22.4,157.1c-2.2,11.8-4.4,23.5-6.6,35.3c-2.6,14.1-6.9,37-14.2,48.2c-4.5,6.8-13.4,10.6-21.5,11.2
	c-11,0.9-50.1-10-58.2-13.4c-25.8-10.7-18.7-39.4-15.4-50.2c5.9-19.7,11.5-39.5,14.5-59.8C287.1,218.1,278,181.9,277.2,172.7z"/>
<g>
	<path style="fill:#E6E9EE;" d="M373.3,276c28.9-19.5,25-40.7,23.8-46.4c-0.2-0.9-0.4-1.6-0.5-1.8l3.5,8.9c2.8,4.7,0.3,20-1.6,24.8
		c-2.1,5.3-27.1,46.4-38.6,50.4C348.6,315.7,335.1,301.8,373.3,276z"/>
	<path style="fill:#E6E9EE;" d="M396.6,227.8l-0.1-0.2C396.6,227.6,396.6,227.7,396.6,227.8z"/>
	<path style="fill:#E6E9EE;" d="M279.1,278.1c0,0,8.6,31.1,23.1,30.4c0,0,13.8-2.1,1.6-18.7c-11.8-16.3-19.1-17.9-21.9-42.4
		c0-0.3-0.1-0.7-0.1-1.1C279.1,211.8,279.1,278.1,279.1,278.1z"/>
</g>
<path style="fill:#FFFFFF;" d="M317.6,148.8c35.6-34.6,84.2,38.2,85.9,88.7c0.1,2.5,0.8,15-6.6,27.1c1.2-4.9-19.7-97.2-56.1-104.4
	c-2-0.4-3.5-1.9-5.2-0.9c-1.2,0.7-2.4,1.5-3.7,2.5c-35,25.8-53,116.2-53,116.2C267.4,231.9,288.6,177.1,317.6,148.8z"/>
<path style="fill:#ACB3BA;" d="M338.6,156.7L338.6,156.7c2.1,0,3.9-1.7,3.9-3.9v-23.1c0-2.1-1.7-3.9-3.9-3.9l0,0
	c-2.1,0-3.9,1.7-3.9,3.9v23.1C334.7,155,336.5,156.7,338.6,156.7z"/>
<g>
</g>
<g>
</g>
<g>
</g>
<g>
</g>
<g>
</g>
<g>
</g>
<g>
</g>
<g>
</g>
<g>
</g>
<g>
</g>
<g>
</g>
<g>
</g>
<g>
</g>
<g>
</g>
<g>
</g>
</svg>
