<?xml version="1.0" encoding="iso-8859-1"?>
<!-- Generator: Adobe Illustrator 19.0.0, SVG Export Plug-In . SVG Version: 6.00 Build 0)  -->
<svg version="1.1" id="Layer_1" xmlns="http://www.w3.org/2000/svg" xmlns:xlink="http://www.w3.org/1999/xlink" x="0px" y="0px"
	 viewBox="0 0 504 504" style="enable-background:new 0 0 504 504;" xml:space="preserve">
<circle style="fill:#90DFAA;" cx="252" cy="252" r="252"/>
<path style="fill:#FFFFFF;" d="M275.9,389.9H115.1c-2.4,0-4.4-2-4.4-4.4v-267c0-2.4,2-4.4,4.4-4.4H276c2.4,0,4.4,2,4.4,4.4v267.1
	C280.3,388,278.4,389.9,275.9,389.9z"/>
<path style="fill:#FF7058;" d="M263.1,401.4H127.9c-15.8,0-28.7-12.9-28.7-28.7V131.3c0-15.8,12.9-28.7,28.7-28.7h135.2
	c15.8,0,28.7,12.9,28.7,28.7v241.3C291.8,388.5,278.9,401.4,263.1,401.4z M127.9,125.6c-3.2,0-5.8,2.6-5.8,5.8v241.3
	c0,3.2,2.6,5.8,5.8,5.8h135.2c3.2,0,5.8-2.6,5.8-5.8V131.3c0-3.2-2.6-5.8-5.8-5.8H127.9V125.6z"/>
<g>
	<path style="fill:#324A5E;" d="M250.9,244l-17.7-31c-4.2-7.3-11.9-11.8-20.3-11.8h-35c-8.4,0-16.2,4.5-20.3,11.8l-17.5,31
		c-3.2,5.6-1.3,12.7,4.3,15.9c5.6,3.2,12.7,1.3,15.9-4.3l4-6.9v12.6L146,316h18.3v32.1c0,3.2,1.3,6.1,3.4,8.2c2,2.1,4.9,3.3,8,3.4
		c6.5,0.1,11.9-5.6,11.9-12.1V316h15.6v32.1c0,3.2,1.3,6.1,3.4,8.2c2,2,4.8,3.3,7.9,3.4c6.6,0.2,12-5.5,12-12.1V316H245l-18.5-55.4
		v-12.4l4.2,7.3c3.2,5.6,10.3,7.5,15.9,4.3C252.1,256.7,254.1,249.6,250.9,244z"/>
	<path style="fill:#324A5E;" d="M216.9,165.6c0-11.8-9.6-21.4-21.4-21.4l0,0c-11.8,0-21.4,9.6-21.4,21.4V187h42.8L216.9,165.6
		L216.9,165.6z"/>
	<polygon style="fill:#324A5E;" points="404.8,166 365.2,126.4 325.6,166 335.4,175.8 358.2,153 358.2,225.5 372.1,225.5 372.1,153 
		395,175.8 	"/>
	<polygon style="fill:#324A5E;" points="325.6,338 365.2,377.6 404.8,338 395,328.2 372.1,351 372.1,278.5 358.2,278.5 358.2,351 
		335.4,328.2 	"/>
</g>
<g>
</g>
<g>
</g>
<g>
</g>
<g>
</g>
<g>
</g>
<g>
</g>
<g>
</g>
<g>
</g>
<g>
</g>
<g>
</g>
<g>
</g>
<g>
</g>
<g>
</g>
<g>
</g>
<g>
</g>
</svg>
