<?xml version="1.0" encoding="iso-8859-1"?>
<!-- Generator: Adobe Illustrator 19.0.0, SVG Export Plug-In . SVG Version: 6.00 Build 0)  -->
<svg version="1.1" id="Layer_1" xmlns="http://www.w3.org/2000/svg" xmlns:xlink="http://www.w3.org/1999/xlink" x="0px" y="0px"
	 viewBox="0 0 504 504" style="enable-background:new 0 0 504 504;" xml:space="preserve">
<circle style="fill:#FFD05B;" cx="252" cy="252" r="252"/>
<circle style="fill:#E6E9EE;" cx="231" cy="158.3" r="45.9"/>
<path style="fill:#FF7058;" d="M263.8,180c1.6-4.4,2.5-9.2,2.3-14.5c-0.5-13.1-8-25.2-19.6-31.3c-20.5-10.8-45.2-0.6-52.5,20.8
	c-6.6,19.2,4.2,40.1,23.3,47.1l30.6,11.3c15.7,5.8,23.8,23.3,18,39L215,390.2c-3,8-11.9,12.1-19.9,9.2l-91.2-33.7
	c-8-3-12.1-11.9-9.2-19.9l73.7-199.7c12.2-33,48.5-51.3,81.8-39.7c17.2,6,30.1,18.5,37.1,33.7c6.9,14.9,8,32.4,1.9,49l0,0
	c-1.9,5.2-7.7,7.8-12.8,5.9l-6.7-2.5C264.7,190.8,261.9,185,263.8,180z"/>
<rect x="118.858" y="266.162" transform="matrix(-0.3464 0.9381 -0.9381 -0.3464 528.8202 254.4748)" style="fill:#E6E9EE;" width="113.801" height="90.601"/>
<g>
	<path style="fill:#2B3B4E;" d="M146.4,302.4c0.7,1.3,0.7,2.7,0.1,4.3c-0.6,1.6-1.6,2.7-2.9,3.3c-1.3,0.6-3,0.5-5-0.2l-3.6-1.3
		l3.9-10.4l3.7,1.4C144.5,300.1,145.8,301.1,146.4,302.4z M142.4,307.9c0.8-0.3,1.3-1,1.7-2s0.4-1.9,0-2.7c-0.4-0.8-1.1-1.4-2.3-1.8
		l-1.3-0.5l-2.3,6.3l1.5,0.5C140.7,308.2,141.7,308.3,142.4,307.9z"/>
	<path style="fill:#2B3B4E;" d="M155.9,314.5c-1.4,0.6-2.9,0.7-4.5,0.1c-1.5-0.6-2.6-1.6-3.3-3s-0.7-2.9-0.2-4.4
		c0.6-1.5,1.6-2.6,3-3.3c1.4-0.6,2.9-0.7,4.5-0.1c1.5,0.6,2.6,1.6,3.3,3s0.7,2.9,0.2,4.4C158.3,312.8,157.3,313.9,155.9,314.5z
		 M156.5,310.4c0.3-0.9,0.3-1.8,0-2.7c-0.4-0.9-1-1.5-1.8-1.8c-0.9-0.3-1.7-0.3-2.6,0.2c-0.8,0.4-1.4,1.1-1.8,2.1
		c-0.3,0.9-0.3,1.8,0,2.7c0.4,0.9,1,1.5,1.8,1.8c0.9,0.3,1.7,0.3,2.6-0.2S156.2,311.3,156.5,310.4z"/>
	<path style="fill:#2B3B4E;" d="M139.7,318.7l2.3,0.9l-3.9,10.4l-2.3-0.9l-2.6-8.4l-2.4,6.5l-2.3-0.9l3.9-10.4l2.2,0.8l2.6,8.6
		L139.7,318.7z"/>
	<path style="fill:#2B3B4E;" d="M150,332.7c-1.4,0.6-2.9,0.7-4.5,0.1c-1.5-0.6-2.7-1.6-3.3-3c-0.7-1.4-0.7-2.9-0.2-4.4
		c0.6-1.5,1.6-2.6,3-3.3c1.4-0.6,2.9-0.7,4.5-0.1c1.5,0.6,2.7,1.6,3.3,3c0.7,1.4,0.7,2.9,0.2,4.4C152.4,331,151.4,332.1,150,332.7z
		 M150.6,328.6c0.3-0.9,0.3-1.8,0-2.7c-0.4-0.9-1-1.5-1.8-1.8c-0.9-0.3-1.7-0.3-2.6,0.2c-0.8,0.4-1.4,1.1-1.8,2.1
		c-0.3,0.9-0.3,1.8,0,2.7c0.4,0.9,1,1.5,1.8,1.8c0.9,0.3,1.7,0.3,2.6-0.2C149.7,330.2,150.3,329.5,150.6,328.6z"/>
	<path style="fill:#2B3B4E;" d="M160.3,328.6l-3.1,8.4l-2.3-0.9l3.1-8.4l-3-1.1l0.7-2l8.2,3l-0.7,2L160.3,328.6z"/>
	<path style="fill:#2B3B4E;" d="M133.2,338.2c0.7,1.3,0.7,2.7,0.1,4.3c-0.6,1.6-1.6,2.7-2.9,3.3c-1.3,0.6-3,0.5-5-0.2l-3.6-1.3
		l3.9-10.4l3.7,1.4C131.3,335.9,132.5,336.9,133.2,338.2z M129.2,343.8c0.8-0.3,1.3-1,1.7-2s0.4-1.9,0-2.7c-0.4-0.8-1.1-1.4-2.3-1.8
		l-1.3-0.5l-2.3,6.3l1.5,0.5C127.5,344.1,128.4,344.1,129.2,343.8z"/>
	<path style="fill:#2B3B4E;" d="M137.2,338.1l2.3,0.9l-3.9,10.4l-2.3-0.9L137.2,338.1z"/>
	<path style="fill:#2B3B4E;" d="M143.8,342.9c-0.3,0.1-0.5,0.3-0.6,0.6c-0.1,0.3-0.1,0.6,0.1,0.9c0.2,0.3,0.8,0.7,1.7,1.3
		c0.9,0.6,1.5,1.3,1.9,1.9c0.4,0.7,0.4,1.5,0,2.4c-0.3,0.9-1,1.6-1.9,1.9s-1.9,0.3-3.1-0.2c-1.7-0.6-2.9-1.8-3.8-3.5l2-1.2
		c0.8,1.4,1.6,2.3,2.6,2.6c0.4,0.2,0.8,0.2,1.1,0.1s0.5-0.3,0.6-0.6c0.1-0.3,0.1-0.6-0.1-0.9c-0.2-0.3-0.6-0.7-1.3-1.1
		c-1.1-0.7-1.9-1.4-2.2-2.1c-0.4-0.7-0.4-1.5,0-2.5s1-1.6,1.9-1.9s1.9-0.2,3,0.2c0.7,0.3,1.3,0.6,2,1.1c0.6,0.5,1.1,1.1,1.4,1.7
		l-1.8,1.3c-0.7-1-1.5-1.7-2.4-2.1C144.4,342.8,144.1,342.8,143.8,342.9z"/>
	<path style="fill:#2B3B4E;" d="M155.2,347.1l-3.1,8.4l-2.3-0.9l3.1-8.4l-3-1.1l0.7-2l8.2,3l-0.7,2L155.2,347.1z"/>
	<path style="fill:#2B3B4E;" d="M160.5,355.5c0.2,0.6,0.6,1.1,1.3,1.3c0.7,0.2,1.3,0.2,1.8-0.1c0.6-0.3,1-0.9,1.3-1.8l2.1-5.8
		l2.3,0.9l-2.2,5.8c-0.6,1.5-1.4,2.5-2.5,3s-2.4,0.5-3.7,0s-2.2-1.3-2.8-2.4c-0.5-1.1-0.5-2.4,0-3.9l2.2-5.8l2.3,0.9l-2.1,5.8
		C160.4,354.2,160.3,354.9,160.5,355.5z"/>
	<path style="fill:#2B3B4E;" d="M179,357.5c-0.6,1.7-1.7,2.5-3.2,2.5l1.3,4.7l-2.9-1.1l-1.1-4.2l-1.6-0.6l-1.2,3.3l-2.3-0.9
		l3.9-10.4l4,1.5c1.6,0.6,2.7,1.3,3.2,2.1C179.5,355.3,179.5,356.3,179,357.5z M175.8,357.7c0.4-0.2,0.7-0.5,0.9-1.1s0.2-1,0-1.3
		s-0.7-0.6-1.5-0.9l-1.7-0.6l-1.1,3.1l1.7,0.6C174.8,357.8,175.4,357.9,175.8,357.7z"/>
	<path style="fill:#2B3B4E;" d="M183.4,367l-4.6-1.7l3.9-10.4l4.1,1.5c0.7,0.3,1.3,0.6,1.7,0.9c0.4,0.4,0.7,0.7,0.9,1.1
		c0.3,0.7,0.3,1.4,0,2.1c-0.3,0.8-0.8,1.3-1.5,1.5c-0.2,0.1-0.4,0.1-0.5,0.1s-0.2,0-0.4,0c0.6,0.4,1,0.9,1.2,1.4
		c0.2,0.6,0.2,1.2,0,1.9c-0.3,0.7-0.8,1.3-1.5,1.6C186,367.6,184.8,367.6,183.4,367z M183.5,360l1.1,0.4c0.6,0.2,1.2,0.3,1.5,0.3
		c0.4,0,0.6-0.3,0.8-0.7c0.2-0.5,0.1-0.8-0.1-1.1c-0.2-0.3-0.7-0.5-1.4-0.8l-1.1-0.4L183.5,360z M181.9,364.2l1.6,0.6
		c0.7,0.2,1.2,0.3,1.6,0.3c0.4,0,0.7-0.3,0.9-0.8s0.1-0.9-0.2-1.2c-0.3-0.3-0.8-0.6-1.6-0.9l-1.4-0.5L181.9,364.2z"/>
	<path style="fill:#2B3B4E;" d="M219.8,138.3c0,0,1-0.5,2.8-1.4c1.8-0.8,4.2-1.9,7.3-3.1c1.6-0.5,3.3-1.1,5.2-1.8
		c1.9-0.5,3.9-1.1,6.1-1.7c2.2-0.5,4.5-1,7-1.6c2.5-0.4,5.1-0.9,7.9-1.2c2.8-0.2,5.6-0.6,8.6-0.7c3,0,6.1-0.2,9.3,0
		c3.2,0.3,6.4,0.3,9.7,0.8c1.6,0.3,3.3,0.5,5,0.8s3.4,0.5,5,1c1.7,0.4,3.4,0.9,5,1.3c1.7,0.4,3.4,0.9,5,1.5c1.7,0.6,3.3,1.2,5,1.8
		s3.4,1.2,4.9,2c3.2,1.6,6.5,3,9.6,4.8c3,1.9,6,3.8,9,5.6l3.6,2.4c0.3,0.2,0.7,0.5,0.9,0.6l0.7,0.4l1.5,0.9c0.9,0.6,2.2,1.1,3.3,1.7
		c1.1,0.6,2.3,1,3.4,1.5c4.6,1.9,9.3,3,14.1,3.5c9.4,1,18.7-1.2,26.3-4.3c7.6-3.1,13.6-7.1,17.6-10c4-3,5.9-5,5.7-4.7
		c3-3.4,8.1-3.7,11.4-0.7c3.4,3,3.7,8.1,0.7,11.5c-0.2,0.2-2.4,3-6.7,7.1c-4.4,4.1-10.9,9.7-20.1,14.8c-4.6,2.5-9.9,4.9-15.9,6.8
		c-5.9,1.8-12.6,3.1-19.6,3.2c-7,0.2-14.3-0.7-21.4-2.6c-1.8-0.5-3.6-1-5.3-1.6c-1.7-0.6-3.4-1.2-5.3-2l-2.7-1.2l-1.4-0.6
		c-0.5-0.2-0.7-0.4-1.1-0.5l-2.1-1.1l-1-0.5l-0.5-0.3l-0.3-0.1c0.1,0-0.8-0.5-0.4-0.3h-0.1l-0.1-0.1c-2.4-1.2-4.9-2.3-7.3-3.4
		c-2.5-1-5-1.8-7.4-2.7c-1.2-0.5-2.5-0.7-3.7-1s-2.5-0.6-3.7-0.9c-1.2-0.4-2.4-0.5-3.7-0.6c-1.2-0.2-2.4-0.3-3.6-0.5
		s-2.4-0.2-3.6-0.3c-1.2,0-2.3-0.1-3.5-0.1c-2.3-0.1-4.6,0.2-6.8,0.2c-2.2,0.1-4.3,0.6-6.4,0.8c-2,0.4-4,0.8-5.9,1.2
		c-1.8,0.5-3.6,1-5.3,1.5c-1.6,0.6-3.2,1.1-4.7,1.7c-1.4,0.6-2.8,1.2-4,1.7c-1.2,0.6-2.3,1.1-3.3,1.6c-1.9,1-3.3,1.8-4.1,2.3
		c-0.3,0.2-0.5,0.3-0.6,0.4c-0.3,0.2-0.5,0.3-0.5,0.3l-0.2,0.2c-9,6-21.2,3.6-27.3-5.5c-6-9-3.6-21.2,5.5-27.3
		C218.4,139,219.1,138.6,219.8,138.3z"/>
</g>
<g>
</g>
<g>
</g>
<g>
</g>
<g>
</g>
<g>
</g>
<g>
</g>
<g>
</g>
<g>
</g>
<g>
</g>
<g>
</g>
<g>
</g>
<g>
</g>
<g>
</g>
<g>
</g>
<g>
</g>
</svg>
