<?xml version="1.0" encoding="iso-8859-1"?>
<!-- Generator: Adobe Illustrator 19.0.0, SVG Export Plug-In . SVG Version: 6.00 Build 0)  -->
<svg version="1.1" id="Layer_1" xmlns="http://www.w3.org/2000/svg" xmlns:xlink="http://www.w3.org/1999/xlink" x="0px" y="0px"
	 viewBox="0 0 504 504" style="enable-background:new 0 0 504 504;" xml:space="preserve">
<circle style="fill:#84DBFF;" cx="252" cy="252" r="252"/>
<path style="fill:#2B3B4E;" d="M141.6,114.1v358.1c0,2.1-0.3,4.1-0.9,5.9c-13.9-6.9-27.1-15-39.4-24.2V114.1
	c0-11.1,9-20.2,20.2-20.2c5.6,0,10.6,2.2,14.3,5.9C139.4,103.5,141.6,108.6,141.6,114.1z"/>
<path style="fill:#E6E9EE;" d="M404.2,190.4c0,3.4-0.7,6.5-2,9.1c-0.9,1.9-2.1,3.5-3.5,4.7c-1.8,1.6-3.9,2.4-6.2,2.4
	c-2.3,0-4.4-0.9-6.1-2.4c0.5-1.9,1.2-3.5,2.2-4.7c1.1,1.4,2.5,2.2,3.9,2.2c1.5,0,2.8-0.8,4-2.2c1-1.2,1.7-2.8,2.2-4.7
	c0.4-1.4,0.6-2.9,0.6-4.4c0-6.1-3.1-11.3-6.7-11.3s-6.7,5.2-6.7,11.3c0,1.6,0.2,3,0.6,4.4c-1.4,1.2-2.6,2.8-3.5,4.7
	c-1.2-2.6-2-5.7-2-9.1c0-9.1,5.1-16.2,11.6-16.2S404.2,181.3,404.2,190.4z"/>
<g>
	<path style="fill:#FFFFFF;" d="M404.2,208.5c0,3.4-0.7,6.5-2,9.1l0,0c-0.9,1.9-2.1,3.5-3.5,4.7c-1.8,1.5-3.9,2.4-6.2,2.4
		c-2.3,0-4.4-0.9-6.1-2.4c0.5-1.9,1.2-3.5,2.2-4.7c1.1,1.4,2.4,2.2,3.9,2.2s2.8-0.8,3.9-2.2c1-1.2,1.8-2.8,2.2-4.7
		c0.4-1.4,0.6-2.9,0.6-4.4c0-1.6-0.2-3-0.6-4.4c1.4-1.2,2.6-2.8,3.5-4.7C403.5,202,404.2,205.2,404.2,208.5z"/>
	<path style="fill:#FFFFFF;" d="M398.7,194.8c-0.5,1.9-1.2,3.5-2.2,4.7c-1.1-1.4-2.5-2.2-4-2.2s-2.8,0.8-3.9,2.2
		c-1,1.2-1.7,2.8-2.2,4.7c-0.4,1.4-0.6,2.9-0.6,4.4c0,1.6,0.2,3,0.6,4.4c-1.4,1.2-2.6,2.8-3.5,4.7c-1.2-2.6-2-5.7-2-9.1
		c0-3.4,0.7-6.5,2-9.1c0.9-1.9,2.1-3.5,3.5-4.7c1.8-1.6,3.9-2.4,6.1-2.4C394.8,192.4,397,193.3,398.7,194.8z"/>
</g>
<g>
	<path style="fill:#E6E9EE;" d="M404.2,226.7c0,3.4-0.7,6.5-2,9.1c-0.9,1.9-2.1,3.5-3.5,4.7c-1.8,1.6-3.9,2.4-6.2,2.4
		c-2.3,0-4.4-0.9-6.1-2.4c0.5-1.9,1.2-3.5,2.2-4.7c1.1,1.4,2.5,2.2,3.9,2.2c1.5,0,2.8-0.8,4-2.2c1-1.2,1.7-2.8,2.2-4.7
		c0.4-1.4,0.6-2.9,0.6-4.4c0-1.6-0.2-3-0.6-4.4c1.4-1.2,2.6-2.8,3.5-4.7C403.5,220.2,404.2,223.3,404.2,226.7z"/>
	<path style="fill:#E6E9EE;" d="M398.7,213c-0.5,1.9-1.3,3.5-2.2,4.7c-1.1-1.4-2.5-2.2-3.9-2.2c-1.5,0-2.8,0.8-3.9,2.2
		c-1,1.2-1.8,2.8-2.2,4.7c-0.4,1.4-0.6,2.9-0.6,4.4c0,1.6,0.2,3,0.6,4.4c-1.4,1.2-2.6,2.8-3.5,4.7c-1.2-2.6-2-5.7-2-9.1
		c0-3.4,0.7-6.5,2-9.1l0,0c0.9-1.9,2.1-3.5,3.5-4.7c1.8-1.5,3.9-2.4,6.1-2.4C394.8,210.5,397,211.4,398.7,213z"/>
</g>
<path style="fill:#FFFFFF;" d="M404.2,244.9c0,9.1-5.1,16.2-11.6,16.2S381,254,381,244.9c0-3.4,0.7-6.5,2-9.1
	c0.9-1.9,2.1-3.5,3.5-4.7c1.8-1.6,3.9-2.4,6.1-2.4c2.3,0,4.4,0.9,6.2,2.4c-0.5,1.9-1.2,3.5-2.2,4.7c-1.1-1.4-2.5-2.2-4-2.2
	s-2.8,0.8-3.9,2.2c-1,1.2-1.7,2.8-2.2,4.7c-0.4,1.4-0.6,2.9-0.6,4.4c0,6.1,3.1,11.3,6.7,11.3c3.7,0,6.7-5.2,6.7-11.3
	c0-1.6-0.2-3-0.6-4.4c1.4-1.2,2.6-2.8,3.5-4.7C403.5,238.3,404.2,241.5,404.2,244.9z"/>
<path style="fill:#E6E9EE;" d="M224.6,190.4c0,3.4-0.7,6.5-2,9.1c-0.9,1.9-2.1,3.5-3.5,4.7c-1.8,1.6-3.9,2.4-6.2,2.4
	s-4.4-0.9-6.1-2.4c0.5-1.9,1.2-3.5,2.2-4.7c1.1,1.4,2.5,2.2,3.9,2.2c1.5,0,2.8-0.8,4-2.2c1-1.2,1.7-2.8,2.2-4.7
	c0.4-1.4,0.6-2.9,0.6-4.4c0-6.1-3.1-11.3-6.7-11.3c-3.6,0-6.7,5.2-6.7,11.3c0,1.6,0.2,3,0.6,4.4c-1.4,1.2-2.6,2.8-3.5,4.7
	c-1.2-2.6-2-5.7-2-9.1c0-9.1,5.1-16.2,11.6-16.2C219.5,174.2,224.6,181.3,224.6,190.4z"/>
<g>
	<path style="fill:#FFFFFF;" d="M224.6,208.5c0,3.4-0.7,6.5-2,9.1l0,0c-0.9,1.9-2.1,3.5-3.5,4.7c-1.8,1.5-3.9,2.4-6.2,2.4
		s-4.4-0.9-6.1-2.4c0.5-1.9,1.2-3.5,2.2-4.7c1.1,1.4,2.4,2.2,3.9,2.2s2.8-0.8,3.9-2.2c1-1.2,1.8-2.8,2.2-4.7
		c0.4-1.4,0.6-2.9,0.6-4.4c0-1.6-0.2-3-0.6-4.4c1.4-1.2,2.6-2.8,3.5-4.7C223.9,202,224.6,205.2,224.6,208.5z"/>
	<path style="fill:#FFFFFF;" d="M219.2,194.8c-0.5,1.9-1.2,3.5-2.2,4.7c-1.1-1.4-2.5-2.2-4-2.2s-2.8,0.8-3.9,2.2
		c-1,1.2-1.7,2.8-2.2,4.7c-0.4,1.4-0.6,2.9-0.6,4.4c0,1.6,0.2,3,0.6,4.4c-1.4,1.2-2.6,2.8-3.5,4.7c-1.2-2.6-2-5.7-2-9.1
		c0-3.4,0.7-6.5,2-9.1c0.9-1.9,2.1-3.5,3.5-4.7c1.8-1.6,3.9-2.4,6.1-2.4S217.4,193.3,219.2,194.8z"/>
</g>
<g>
	<path style="fill:#E6E9EE;" d="M224.6,226.7c0,3.4-0.7,6.5-2,9.1c-0.9,1.9-2.1,3.5-3.5,4.7c-1.8,1.6-3.9,2.4-6.2,2.4
		s-4.4-0.9-6.1-2.4c0.5-1.9,1.2-3.5,2.2-4.7c1.1,1.4,2.5,2.2,3.9,2.2c1.5,0,2.8-0.8,4-2.2c1-1.2,1.7-2.8,2.2-4.7
		c0.4-1.4,0.6-2.9,0.6-4.4c0-1.6-0.2-3-0.6-4.4c1.4-1.2,2.6-2.8,3.5-4.7C223.9,220.2,224.6,223.3,224.6,226.7z"/>
	<path style="fill:#E6E9EE;" d="M219.2,213c-0.5,1.9-1.3,3.5-2.2,4.7c-1.1-1.4-2.5-2.2-3.9-2.2c-1.5,0-2.8,0.8-3.9,2.2
		c-1,1.2-1.8,2.8-2.2,4.7c-0.4,1.4-0.6,2.9-0.6,4.4c0,1.6,0.2,3,0.6,4.4c-1.4,1.2-2.6,2.8-3.5,4.7c-1.2-2.6-2-5.7-2-9.1
		c0-3.4,0.7-6.5,2-9.1l0,0c0.9-1.9,2.1-3.5,3.5-4.7c1.8-1.5,3.9-2.4,6.1-2.4S217.4,211.4,219.2,213z"/>
</g>
<path style="fill:#FFFFFF;" d="M224.6,244.9c0,9.1-5.1,16.2-11.6,16.2s-11.6-7.1-11.6-16.2c0-3.4,0.7-6.5,2-9.1
	c0.9-1.9,2.1-3.5,3.5-4.7c1.8-1.6,3.9-2.4,6.1-2.4s4.4,0.9,6.2,2.4c-0.5,1.9-1.2,3.5-2.2,4.7c-1.1-1.4-2.5-2.2-4-2.2
	s-2.8,0.8-3.9,2.2c-1,1.2-1.7,2.8-2.2,4.7c-0.4,1.4-0.6,2.9-0.6,4.4c0,6.1,3.1,11.3,6.7,11.3c3.7,0,6.7-5.2,6.7-11.3
	c0-1.6-0.2-3-0.6-4.4c1.4-1.2,2.6-2.8,3.5-4.7C223.9,238.3,224.6,241.5,224.6,244.9z"/>
<path style="fill:#324A5E;" d="M421,153H93.8c-6.7,0-12.2,5.5-12.2,12.2l0,0c0,6.7,5.5,12.2,12.2,12.2H421c6.7,0,12.2-5.5,12.2-12.2
	l0,0C433.1,158.5,427.7,153,421,153z"/>
<rect x="183" y="252" style="fill:#FFD05B;" width="239.7" height="131.8"/>
<g>
	<path style="fill:#F1543F;" d="M230.8,297.4h9.3V339h-9.3v-16.4h-16.6V339h-9.3v-41.7h9.3v17.4h16.6V297.4z"/>
	<path style="fill:#F1543F;" d="M285.4,333.3c-4.2,4.1-9.4,6.2-15.6,6.2s-11.3-2.1-15.6-6.2c-4.2-4.1-6.3-9.2-6.3-15.3
		c0-6.1,2.1-11.2,6.3-15.3c4.2-4.1,9.4-6.2,15.6-6.2s11.3,2.1,15.6,6.2c4.2,4.1,6.3,9.2,6.3,15.3C291.7,324,289.6,329.1,285.4,333.3
		z M282.2,317.9c0-3.7-1.2-6.9-3.6-9.5s-5.3-3.9-8.8-3.9s-6.4,1.3-8.8,3.9s-3.6,5.8-3.6,9.5s1.2,6.9,3.6,9.5s5.3,3.9,8.8,3.9
		s6.4-1.3,8.8-3.9S282.2,321.7,282.2,317.9z"/>
	<path style="fill:#F1543F;" d="M316.1,305.4V339h-9.3v-33.6H295v-8h32.9v8H316.1z"/>
	<path style="fill:#F1543F;" d="M364.7,297.4v8.3H344v8.6h18.7v7.9H344v8.6h21.4v8.2h-30.7v-41.7h30V297.4z"/>
	<path style="fill:#F1543F;" d="M373.6,339v-41.7h9.3v33.4h17.8v8.3L373.6,339L373.6,339z"/>
</g>
<g>
</g>
<g>
</g>
<g>
</g>
<g>
</g>
<g>
</g>
<g>
</g>
<g>
</g>
<g>
</g>
<g>
</g>
<g>
</g>
<g>
</g>
<g>
</g>
<g>
</g>
<g>
</g>
<g>
</g>
</svg>
