<?xml version="1.0" encoding="iso-8859-1"?>
<!-- Generator: Adobe Illustrator 19.0.0, SVG Export Plug-In . SVG Version: 6.00 Build 0)  -->
<svg version="1.1" id="Layer_1" xmlns="http://www.w3.org/2000/svg" xmlns:xlink="http://www.w3.org/1999/xlink" x="0px" y="0px"
	 viewBox="0 0 504 504" style="enable-background:new 0 0 504 504;" xml:space="preserve">
<circle style="fill:#90DFAA;" cx="252" cy="252" r="252"/>
<path style="fill:#E6E9EE;" d="M366,390.2H146.3c-2.5,0-4.5-2-4.5-4.5V118.3c0-2.5,2-4.5,4.5-4.5H366c2.5,0,4.5,2,4.5,4.5v267.4
	C370.5,388.2,368.5,390.2,366,390.2z"/>
<path style="fill:#324A5E;" d="M180.8,113.8h-21.1c-9.9,0-17.9,8-17.9,17.9v240.7c0,9.9,8,17.9,17.9,17.9h21.1V113.8z"/>
<path style="fill:#54C0EB;" d="M271.8,184c-37.5,0-68,30.5-68,68s30.5,68,68,68s68-30.5,68-68S309.3,184,271.8,184z M332.4,248.4
	h-24.5c-0.6-23-7-42.6-16.6-54C314.2,202.2,331,223.3,332.4,248.4z M268.2,191.7v56.7h-25.3C243.8,219.6,254.7,195.4,268.2,191.7z
	 M268.2,255.6v56.7c-13.5-3.7-24.5-27.8-25.3-56.7H268.2z M275.4,312.3v-56.7h25.3C299.9,284.4,288.9,308.6,275.4,312.3z
	 M275.4,248.4v-56.7c13.5,3.7,24.5,27.8,25.3,56.7H275.4z M252.4,194.5c-9.6,11.3-16,31-16.6,54h-24.5
	C212.7,223.3,229.5,202.2,252.4,194.5z M211.2,255.6h24.5c0.6,23.1,7.1,42.7,16.7,54C229.5,301.8,212.7,280.8,211.2,255.6z
	 M291.2,309.6c9.7-11.3,16.1-30.9,16.7-54h24.5C331,280.8,314.2,301.8,291.2,309.6z"/>
<circle style="fill:#FFFFFF;" cx="161.3" cy="155.7" r="8.5"/>
<path style="fill:#FF7058;" d="M158.1,161.1h-23.7c-3,0-5.4-2.4-5.4-5.4l0,0c0-3,2.4-5.4,5.4-5.4h23.7c3,0,5.4,2.4,5.4,5.4l0,0
	C163.5,158.7,161.1,161.1,158.1,161.1z"/>
<circle style="fill:#FFFFFF;" cx="161.3" cy="203.8" r="8.5"/>
<path style="fill:#FF7058;" d="M158.1,209.3h-23.7c-3,0-5.4-2.4-5.4-5.4l0,0c0-3,2.4-5.4,5.4-5.4h23.7c3,0,5.4,2.4,5.4,5.4l0,0
	C163.5,206.8,161.1,209.3,158.1,209.3z"/>
<circle style="fill:#FFFFFF;" cx="161.3" cy="252" r="8.5"/>
<path style="fill:#FF7058;" d="M158.1,257.4h-23.7c-3,0-5.4-2.4-5.4-5.4l0,0c0-3,2.4-5.4,5.4-5.4h23.7c3,0,5.4,2.4,5.4,5.4l0,0
	C163.5,255,161.1,257.4,158.1,257.4z"/>
<circle style="fill:#FFFFFF;" cx="161.3" cy="300.2" r="8.5"/>
<path style="fill:#FF7058;" d="M158.1,305.6h-23.7c-3,0-5.4-2.4-5.4-5.4l0,0c0-3,2.4-5.4,5.4-5.4h23.7c3,0,5.4,2.4,5.4,5.4l0,0
	C163.5,303.1,161.1,305.6,158.1,305.6z"/>
<circle style="fill:#FFFFFF;" cx="161.3" cy="348.3" r="8.5"/>
<path style="fill:#FF7058;" d="M158.1,353.7h-23.7c-3,0-5.4-2.4-5.4-5.4l0,0c0-3,2.4-5.4,5.4-5.4h23.7c3,0,5.4,2.4,5.4,5.4l0,0
	C163.5,351.3,161.1,353.7,158.1,353.7z"/>
<g>
</g>
<g>
</g>
<g>
</g>
<g>
</g>
<g>
</g>
<g>
</g>
<g>
</g>
<g>
</g>
<g>
</g>
<g>
</g>
<g>
</g>
<g>
</g>
<g>
</g>
<g>
</g>
<g>
</g>
</svg>
