<?xml version="1.0" encoding="iso-8859-1"?>
<!-- Generator: Adobe Illustrator 19.0.0, SVG Export Plug-In . SVG Version: 6.00 Build 0)  -->
<svg version="1.1" id="Layer_1" xmlns="http://www.w3.org/2000/svg" xmlns:xlink="http://www.w3.org/1999/xlink" x="0px" y="0px"
	 viewBox="0 0 504 504" style="enable-background:new 0 0 504 504;" xml:space="preserve">
<circle style="fill:#84DBFF;" cx="252" cy="252" r="252"/>
<g>
	<polygon style="fill:#F9B54C;" points="320.5,333.4 285.8,335.8 264.8,114.8 317.3,111.2 	"/>
	<polygon style="fill:#F9B54C;" points="258.8,341.6 224.2,344 203.2,123 255.7,119.4 	"/>
</g>
<g>
	<polygon style="fill:#FFD05B;" points="320.2,330.5 286.9,319.4 334.2,103.8 384.7,120.5 	"/>
	<polygon style="fill:#FFD05B;" points="183.5,333.4 218.2,335.8 239.2,114.8 186.7,111.2 	"/>
</g>
<polygon style="fill:#F9B54C;" points="183.8,330.5 217.1,319.4 169.8,103.8 119.3,120.5 "/>
<polygon style="fill:#FFD05B;" points="250,330.5 216.7,319.4 271.6,74.8 322.1,91.6 "/>
<path style="fill:#FF7058;" d="M364.1,230.5l-16.6,190.8c-0.4,4.4-4.1,7.8-8.5,7.8H165.1c-4.4,0-8.2-3.4-8.5-7.8L140,230.5h61
	c0,28.2,22.9,51.1,51.1,51.1c14.1,0,26.9-5.7,36.1-15c9.3-9.2,15-22,15-36.1L364.1,230.5L364.1,230.5z"/>
<path style="fill:#F1543F;" d="M153,380.8l3.5,40.6c0.4,4.4,4.1,7.8,8.5,7.8h173.9c4.4,0,8.2-3.4,8.5-7.8l3.5-40.6H153z"/>
<g>
</g>
<g>
</g>
<g>
</g>
<g>
</g>
<g>
</g>
<g>
</g>
<g>
</g>
<g>
</g>
<g>
</g>
<g>
</g>
<g>
</g>
<g>
</g>
<g>
</g>
<g>
</g>
<g>
</g>
</svg>
