<?xml version="1.0" encoding="iso-8859-1"?>
<!-- Generator: Adobe Illustrator 19.0.0, SVG Export Plug-In . SVG Version: 6.00 Build 0)  -->
<svg version="1.1" id="Layer_1" xmlns="http://www.w3.org/2000/svg" xmlns:xlink="http://www.w3.org/1999/xlink" x="0px" y="0px"
	 viewBox="0 0 504 504" style="enable-background:new 0 0 504 504;" xml:space="preserve">
<circle style="fill:#FFD05B;" cx="252" cy="252" r="252"/>
<path style="fill:#324A5E;" d="M270.2,318.5v184.8c-6,0.4-12.1,0.7-18.2,0.7s-12.2-0.2-18.2-0.7V318.5H270.2z"/>
<path style="fill:#FF7058;" d="M399.2,405.6H104.8c-3.5,0-6.3-2.8-6.3-6.3V104.8c0-3.5,2.8-6.3,6.3-6.3h294.5c3.5,0,6.3,2.8,6.3,6.3
	v294.5C405.6,402.7,402.7,405.6,399.2,405.6z"/>
<g>
	<path style="fill:#FFFFFF;" d="M380.7,389.8H123.3c-5,0-9.1-4.1-9.1-9.1V123.3c0-5,4.1-9.1,9.1-9.1h257.4c5,0,9.1,4.1,9.1,9.1
		v257.4C389.8,385.7,385.7,389.8,380.7,389.8z M123.3,122.1c-0.7,0-1.3,0.6-1.3,1.3v257.4c0,0.7,0.6,1.3,1.3,1.3h257.4
		c0.7,0,1.3-0.6,1.3-1.3V123.3c0-0.7-0.6-1.3-1.3-1.3H123.3V122.1z"/>
	<path style="fill:#FFFFFF;" d="M263.4,154.1c12.7,10.8,19.1,27.4,19.1,49.8s-6.5,38.8-19.6,49.1c-13.1,10.4-33,15.6-59.8,15.6H179
		v96.1h-40.5V137.8h64.1C230.4,137.8,250.7,143.3,263.4,154.1z M233.7,225.4c4.8-5.4,7.3-13.4,7.3-23.9s-3.2-17.9-9.5-22.3
		c-6.3-4.4-16.1-6.6-29.4-6.6H179v60.9h27.2C219.7,233.5,228.9,230.8,233.7,225.4z"/>
	<path style="fill:#FFFFFF;" d="M352.1,307.8l-13.8-31.2c-1.1-2.6-3.8-4.3-6.7-4.3h-65.5c-2.9,0-5.5,1.7-6.7,4.3l-13.8,31.2
		c-8.2,2.7-14.2,10.5-14.2,19.6v14.8c0,4.8,3.1,9,7.4,10.5v9.7c0,1.3,1.1,2.4,2.4,2.4h14.2c1.3,0,2.4-1.1,2.4-2.4v-9H340v9
		c0,1.3,1.1,2.4,2.4,2.4h14.2c1.3,0,2.4-1.1,2.4-2.4v-9.7c4.3-1.5,7.4-5.7,7.4-10.5v-14.8C366.3,318.3,360.3,310.5,352.1,307.8z
		 M266,279.5l65.6-0.1l12.1,27.4H254L266,279.5z M251.3,339.7c-5.3,0-9.6-4.3-9.6-9.6c0-1.7,0.4-3.3,1.2-4.7c1.7-3,4.8-5,8.4-5
		c3.7,0,6.8,2,8.5,5c0.7,1.4,1.2,3,1.2,4.7C260.9,335.4,256.6,339.7,251.3,339.7z M322,326.5c0,5.9-4.8,10.6-10.6,10.6h-24.9
		c-5.8,0-10.6-4.7-10.6-10.6v-1.1V323H322v2.4V326.5z M346.6,339.7c-5.3,0-9.7-4.3-9.7-9.7c0-1.7,0.5-3.3,1.3-4.7c1.6-3,4.8-5,8.4-5
		s6.8,2,8.4,5c0.8,1.4,1.3,3,1.3,4.7C356.2,335.4,351.9,339.7,346.6,339.7z"/>
</g>
<g>
</g>
<g>
</g>
<g>
</g>
<g>
</g>
<g>
</g>
<g>
</g>
<g>
</g>
<g>
</g>
<g>
</g>
<g>
</g>
<g>
</g>
<g>
</g>
<g>
</g>
<g>
</g>
<g>
</g>
</svg>
