<?xml version="1.0" encoding="iso-8859-1"?>
<!-- Generator: Adobe Illustrator 19.0.0, SVG Export Plug-In . SVG Version: 6.00 Build 0)  -->
<svg version="1.1" id="Layer_1" xmlns="http://www.w3.org/2000/svg" xmlns:xlink="http://www.w3.org/1999/xlink" x="0px" y="0px"
	 viewBox="0 0 504 504" style="enable-background:new 0 0 504 504;" xml:space="preserve">
<circle style="fill:#324A5E;" cx="252" cy="252" r="252"/>
<rect x="101.192" y="140.022" transform="matrix(-0.8971 0.4418 -0.4418 -0.8971 576.8004 313.1147)" style="fill:#4CDBC4;" width="301.496" height="167.398"/>
<path style="fill:#E6E9EE;" d="M158.8,336.9l-53.3-108.3c3.1-1.5,4.3-5.2,2.8-8.3l228.6-112.6c1.5,3.1,5.2,4.3,8.3,2.8l53.3,108.3
	c-3.1,1.5-4.3,5.2-2.8,8.3L167.1,339.7C165.6,336.7,161.9,335.4,158.8,336.9z"/>
<circle style="fill:#4CDBC4;" cx="252" cy="223.7" r="52.9"/>
<path style="fill:#FFFFFF;" d="M264.4,252.6l-2.4-4.9c-6.5,2.4-13.3,2.7-20.3,0.8l2-8.3c5.4,1.4,10.3,1.5,14.6,0.1l-6.5-13.2
	c-5.7,1.3-10.2,1.5-13.6,0.7c-3.4-0.8-6-3.2-7.9-7.1c-1.9-3.9-2.1-7.8-0.6-11.6s4.4-6.9,8.7-9.3l-1.7-3.4l4.3-2.1l1.7,3.5
	c5.2-2.1,10.7-2.7,16.6-1.9l-1.3,8.4c-4-0.7-7.9-0.4-11.6,0.8l6.3,12.7l0.2-0.1c5.8-1.3,10.4-1.6,13.9-0.7c3.5,0.9,6.2,3.3,8.1,7.3
	s2.1,7.9,0.6,11.7c-1.6,3.9-4.6,7-9.1,9.5l2.4,4.9L264.4,252.6z M238,211.2c-0.7,1.6-0.6,3.1,0.1,4.6c0.7,1.5,1.8,2.5,3.1,2.9
	s3.5,0.4,6.4,0l-5.8-11.7C240,208.2,238.7,209.6,238,211.2z M266.9,233.9c0.8-1.7,0.7-3.3,0-4.9c-0.8-1.6-1.9-2.6-3.3-3
	s-3.7-0.4-6.8,0.1l6,12.2C264.8,237,266.2,235.5,266.9,233.9z"/>
<g>
	<circle style="fill:#4CDBC4;" cx="334.5" cy="183.1" r="17.5"/>
	<circle style="fill:#4CDBC4;" cx="169.5" cy="264.3" r="17.5"/>
</g>
<path style="fill:#FFD05B;" d="M352.8,422h-224c-1.2,0-2.2-1-2.2-2.2V252c0-1.2,1-2.2,2.2-2.2h224c1.2,0,2.2,1,2.2,2.2v167.8
	C355,421,354,422,352.8,422z"/>
<g>
	<path style="fill:#F9B54C;" d="M141,412.5h-3.6c-0.7,0-1.4-0.6-1.4-1.4v-3.6c0-0.7,0.6-1.4,1.4-1.4c0.7,0,1.4,0.6,1.4,1.4v2.3h2.3
		c0.7,0,1.4,0.6,1.4,1.4C142.4,411.9,141.8,412.5,141,412.5z"/>
	<path style="fill:#F9B54C;" d="M137.4,401.3c-0.7,0-1.4-0.6-1.4-1.4v-7.5c0-0.7,0.6-1.4,1.4-1.4c0.7,0,1.4,0.6,1.4,1.4v7.5
		C138.8,400.7,138.2,401.3,137.4,401.3z M137.4,386.3c-0.7,0-1.4-0.6-1.4-1.4v-7.5c0-0.7,0.6-1.4,1.4-1.4c0.7,0,1.4,0.6,1.4,1.4v7.5
		C138.8,385.6,138.2,386.3,137.4,386.3z M137.4,371.2c-0.7,0-1.4-0.6-1.4-1.4v-7.5c0-0.7,0.6-1.4,1.4-1.4c0.7,0,1.4,0.6,1.4,1.4v7.5
		C138.8,370.6,138.2,371.2,137.4,371.2z M137.4,356.1c-0.7,0-1.4-0.6-1.4-1.4v-7.5c0-0.7,0.6-1.4,1.4-1.4c0.7,0,1.4,0.6,1.4,1.4v7.5
		C138.8,355.5,138.2,356.1,137.4,356.1z M137.4,341c-0.7,0-1.4-0.6-1.4-1.4v-7.5c0-0.7,0.6-1.4,1.4-1.4c0.7,0,1.4,0.6,1.4,1.4v7.5
		C138.8,340.4,138.2,341,137.4,341z M137.4,325.9c-0.7,0-1.4-0.6-1.4-1.4V317c0-0.7,0.6-1.4,1.4-1.4c0.7,0,1.4,0.6,1.4,1.4v7.5
		C138.8,325.3,138.2,325.9,137.4,325.9z M137.4,310.8c-0.7,0-1.4-0.6-1.4-1.4v-7.5c0-0.7,0.6-1.4,1.4-1.4c0.7,0,1.4,0.6,1.4,1.4v7.5
		C138.8,310.2,138.2,310.8,137.4,310.8z M137.4,295.7c-0.7,0-1.4-0.6-1.4-1.4v-7.5c0-0.7,0.6-1.4,1.4-1.4c0.7,0,1.4,0.6,1.4,1.4v7.5
		C138.8,295.1,138.2,295.7,137.4,295.7z M137.4,280.6c-0.7,0-1.4-0.6-1.4-1.4v-7.5c0-0.7,0.6-1.4,1.4-1.4c0.7,0,1.4,0.6,1.4,1.4v7.5
		C138.8,280,138.2,280.6,137.4,280.6z"/>
	<path style="fill:#F9B54C;" d="M137.4,265.5c-0.7,0-1.4-0.6-1.4-1.4v-3.6c0-0.7,0.6-1.4,1.4-1.4h3.6c0.7,0,1.4,0.6,1.4,1.4
		c0,0.7-0.6,1.4-1.4,1.4h-2.3v2.3C138.8,264.9,138.2,265.5,137.4,265.5z"/>
	<path style="fill:#F9B54C;" d="M333.2,261.9h-7.4c-0.7,0-1.4-0.6-1.4-1.4c0-0.7,0.6-1.4,1.4-1.4h7.4c0.7,0,1.4,0.6,1.4,1.4
		C334.5,261.3,333.9,261.9,333.2,261.9z M318.4,261.9H311c-0.7,0-1.4-0.6-1.4-1.4c0-0.7,0.6-1.4,1.4-1.4h7.4c0.7,0,1.4,0.6,1.4,1.4
		C319.7,261.3,319.1,261.9,318.4,261.9z M303.6,261.9h-7.4c-0.7,0-1.4-0.6-1.4-1.4c0-0.7,0.6-1.4,1.4-1.4h7.4c0.7,0,1.4,0.6,1.4,1.4
		S304.4,261.9,303.6,261.9z M288.8,261.9h-7.4c-0.7,0-1.4-0.6-1.4-1.4c0-0.7,0.6-1.4,1.4-1.4h7.4c0.7,0,1.4,0.6,1.4,1.4
		C290.2,261.3,289.6,261.9,288.8,261.9z M274.1,261.9h-7.4c-0.7,0-1.4-0.6-1.4-1.4c0-0.7,0.6-1.4,1.4-1.4h7.4c0.7,0,1.4,0.6,1.4,1.4
		C275.4,261.3,274.8,261.9,274.1,261.9z M259.3,261.9h-7.4c-0.7,0-1.4-0.6-1.4-1.4c0-0.7,0.6-1.4,1.4-1.4h7.4c0.7,0,1.4,0.6,1.4,1.4
		C260.6,261.3,260,261.9,259.3,261.9z M244.5,261.9h-7.4c-0.7,0-1.4-0.6-1.4-1.4c0-0.7,0.6-1.4,1.4-1.4h7.4c0.7,0,1.4,0.6,1.4,1.4
		C245.8,261.3,245.2,261.9,244.5,261.9z M229.7,261.9h-7.4c-0.7,0-1.4-0.6-1.4-1.4c0-0.7,0.6-1.4,1.4-1.4h7.4c0.7,0,1.4,0.6,1.4,1.4
		C231.1,261.3,230.5,261.9,229.7,261.9z M214.9,261.9h-7.4c-0.7,0-1.4-0.6-1.4-1.4c0-0.7,0.6-1.4,1.4-1.4h7.4c0.7,0,1.4,0.6,1.4,1.4
		C216.3,261.3,215.7,261.9,214.9,261.9z M200.2,261.9h-7.4c-0.7,0-1.4-0.6-1.4-1.4c0-0.7,0.6-1.4,1.4-1.4h7.4c0.7,0,1.4,0.6,1.4,1.4
		C201.5,261.3,200.9,261.9,200.2,261.9z M185.4,261.9H178c-0.7,0-1.4-0.6-1.4-1.4c0-0.7,0.6-1.4,1.4-1.4h7.4c0.7,0,1.4,0.6,1.4,1.4
		C186.7,261.3,186.1,261.9,185.4,261.9z M170.6,261.9h-7.4c-0.7,0-1.4-0.6-1.4-1.4c0-0.7,0.6-1.4,1.4-1.4h7.4c0.7,0,1.4,0.6,1.4,1.4
		C171.9,261.3,171.3,261.9,170.6,261.9z M155.8,261.9h-7.4c-0.7,0-1.4-0.6-1.4-1.4c0-0.7,0.6-1.4,1.4-1.4h7.4c0.7,0,1.4,0.6,1.4,1.4
		S156.6,261.9,155.8,261.9z"/>
	<path style="fill:#F9B54C;" d="M344.2,265.5c-0.7,0-1.4-0.6-1.4-1.4v-2.3h-2.3c-0.7,0-1.4-0.6-1.4-1.4c0-0.7,0.6-1.4,1.4-1.4h3.6
		c0.7,0,1.4,0.6,1.4,1.4v3.6C345.5,264.9,344.9,265.5,344.2,265.5z"/>
	<path style="fill:#F9B54C;" d="M344.2,401.3c-0.7,0-1.4-0.6-1.4-1.4v-7.5c0-0.7,0.6-1.4,1.4-1.4c0.7,0,1.4,0.6,1.4,1.4v7.5
		C345.5,400.7,344.9,401.3,344.2,401.3z M344.2,386.3c-0.7,0-1.4-0.6-1.4-1.4v-7.5c0-0.7,0.6-1.4,1.4-1.4c0.7,0,1.4,0.6,1.4,1.4v7.5
		C345.5,385.6,344.9,386.3,344.2,386.3z M344.2,371.2c-0.7,0-1.4-0.6-1.4-1.4v-7.5c0-0.7,0.6-1.4,1.4-1.4c0.7,0,1.4,0.6,1.4,1.4v7.5
		C345.5,370.6,344.9,371.2,344.2,371.2z M344.2,356.1c-0.7,0-1.4-0.6-1.4-1.4v-7.5c0-0.7,0.6-1.4,1.4-1.4c0.7,0,1.4,0.6,1.4,1.4v7.5
		C345.5,355.5,344.9,356.1,344.2,356.1z M344.2,341c-0.7,0-1.4-0.6-1.4-1.4v-7.5c0-0.7,0.6-1.4,1.4-1.4c0.7,0,1.4,0.6,1.4,1.4v7.5
		C345.5,340.4,344.9,341,344.2,341z M344.2,325.9c-0.7,0-1.4-0.6-1.4-1.4V317c0-0.7,0.6-1.4,1.4-1.4c0.7,0,1.4,0.6,1.4,1.4v7.5
		C345.5,325.3,344.9,325.9,344.2,325.9z M344.2,310.8c-0.7,0-1.4-0.6-1.4-1.4v-7.5c0-0.7,0.6-1.4,1.4-1.4c0.7,0,1.4,0.6,1.4,1.4v7.5
		C345.5,310.2,344.9,310.8,344.2,310.8z M344.2,295.7c-0.7,0-1.4-0.6-1.4-1.4v-7.5c0-0.7,0.6-1.4,1.4-1.4c0.7,0,1.4,0.6,1.4,1.4v7.5
		C345.5,295.1,344.9,295.7,344.2,295.7z M344.2,280.6c-0.7,0-1.4-0.6-1.4-1.4v-7.5c0-0.7,0.6-1.4,1.4-1.4c0.7,0,1.4,0.6,1.4,1.4v7.5
		C345.5,280,344.9,280.6,344.2,280.6z"/>
	<path style="fill:#F9B54C;" d="M344.2,412.5h-3.6c-0.7,0-1.4-0.6-1.4-1.4c0-0.7,0.6-1.4,1.4-1.4h2.3v-2.3c0-0.7,0.6-1.4,1.4-1.4
		c0.7,0,1.4,0.6,1.4,1.4v3.6C345.5,411.9,344.9,412.5,344.2,412.5z"/>
	<path style="fill:#F9B54C;" d="M333.2,412.5h-7.4c-0.7,0-1.4-0.6-1.4-1.4c0-0.7,0.6-1.4,1.4-1.4h7.4c0.7,0,1.4,0.6,1.4,1.4
		C334.5,411.9,333.9,412.5,333.2,412.5z M318.4,412.5H311c-0.7,0-1.4-0.6-1.4-1.4c0-0.7,0.6-1.4,1.4-1.4h7.4c0.7,0,1.4,0.6,1.4,1.4
		C319.7,411.9,319.1,412.5,318.4,412.5z M303.6,412.5h-7.4c-0.7,0-1.4-0.6-1.4-1.4c0-0.7,0.6-1.4,1.4-1.4h7.4c0.7,0,1.4,0.6,1.4,1.4
		S304.4,412.5,303.6,412.5z M288.8,412.5h-7.4c-0.7,0-1.4-0.6-1.4-1.4c0-0.7,0.6-1.4,1.4-1.4h7.4c0.7,0,1.4,0.6,1.4,1.4
		C290.2,411.9,289.6,412.5,288.8,412.5z M274.1,412.5h-7.4c-0.7,0-1.4-0.6-1.4-1.4c0-0.7,0.6-1.4,1.4-1.4h7.4c0.7,0,1.4,0.6,1.4,1.4
		C275.4,411.9,274.8,412.5,274.1,412.5z M259.3,412.5h-7.4c-0.7,0-1.4-0.6-1.4-1.4c0-0.7,0.6-1.4,1.4-1.4h7.4c0.7,0,1.4,0.6,1.4,1.4
		C260.6,411.9,260,412.5,259.3,412.5z M244.5,412.5h-7.4c-0.7,0-1.4-0.6-1.4-1.4c0-0.7,0.6-1.4,1.4-1.4h7.4c0.7,0,1.4,0.6,1.4,1.4
		C245.8,411.9,245.2,412.5,244.5,412.5z M229.7,412.5h-7.4c-0.7,0-1.4-0.6-1.4-1.4c0-0.7,0.6-1.4,1.4-1.4h7.4c0.7,0,1.4,0.6,1.4,1.4
		C231.1,411.9,230.5,412.5,229.7,412.5z M214.9,412.5h-7.4c-0.7,0-1.4-0.6-1.4-1.4c0-0.7,0.6-1.4,1.4-1.4h7.4c0.7,0,1.4,0.6,1.4,1.4
		C216.3,411.9,215.7,412.5,214.9,412.5z M200.2,412.5h-7.4c-0.7,0-1.4-0.6-1.4-1.4c0-0.7,0.6-1.4,1.4-1.4h7.4c0.7,0,1.4,0.6,1.4,1.4
		C201.5,411.9,200.9,412.5,200.2,412.5z M185.4,412.5H178c-0.7,0-1.4-0.6-1.4-1.4c0-0.7,0.6-1.4,1.4-1.4h7.4c0.7,0,1.4,0.6,1.4,1.4
		C186.7,411.9,186.1,412.5,185.4,412.5z M170.6,412.5h-7.4c-0.7,0-1.4-0.6-1.4-1.4c0-0.7,0.6-1.4,1.4-1.4h7.4c0.7,0,1.4,0.6,1.4,1.4
		C171.9,411.9,171.3,412.5,170.6,412.5z M155.8,412.5h-7.4c-0.7,0-1.4-0.6-1.4-1.4c0-0.7,0.6-1.4,1.4-1.4h7.4c0.7,0,1.4,0.6,1.4,1.4
		S156.6,412.5,155.8,412.5z"/>
</g>
<path style="fill:#FF7058;" d="M278.5,363.6h84V308h-84c-0.6,0-1,0.4-1,1v53.6C277.5,363.2,278,363.6,278.5,363.6z"/>
<circle style="fill:#CED5E0;" cx="301.5" cy="335.9" r="12.6"/>
<path style="fill:#E6E9EE;" d="M292.6,327c-4.9,4.9-4.9,12.9,0,17.8l17.8-17.8C305.5,322,297.5,322,292.6,327z"/>
<g>
</g>
<g>
</g>
<g>
</g>
<g>
</g>
<g>
</g>
<g>
</g>
<g>
</g>
<g>
</g>
<g>
</g>
<g>
</g>
<g>
</g>
<g>
</g>
<g>
</g>
<g>
</g>
<g>
</g>
</svg>
