<?xml version="1.0" encoding="iso-8859-1"?>
<!-- Generator: Adobe Illustrator 19.0.0, SVG Export Plug-In . SVG Version: 6.00 Build 0)  -->
<svg version="1.1" id="Layer_1" xmlns="http://www.w3.org/2000/svg" xmlns:xlink="http://www.w3.org/1999/xlink" x="0px" y="0px"
	 viewBox="0 0 504 504" style="enable-background:new 0 0 504 504;" xml:space="preserve">
<circle style="fill:#84DBFF;" cx="252" cy="252" r="252"/>
<path style="fill:#54C0EB;" d="M51.4,404.5C97.5,465,170.2,504,252,504s154.5-39,200.6-99.5H51.4z"/>
<polygon style="fill:#E6E9EE;" points="364.6,152.8 364.6,405.1 139.4,405.1 139.4,152.8 252,93.7 "/>
<rect x="139.4" y="384.1" style="fill:#ACB3BA;" width="225.1" height="21"/>
<path style="fill:#2B3B4E;" d="M411.3,177.4c-1.7,3.3-5.2,5.3-8.7,5.3c-1.5,0-3.1-0.4-4.6-1.1L364.6,164L252,104.8l-112.6,59.1
	L106,181.5c-4.8,2.5-10.7,0.7-13.3-4.1c-2.6-4.8-0.7-10.7,4.1-13.3L247.5,85c2.9-1.5,6.3-1.5,9.1,0l150.6,79.1
	C412,166.6,413.9,172.6,411.3,177.4z"/>
<g>
	<rect x="275.1" y="191.6" style="fill:#324A5E;" width="24.3" height="45.4"/>
	<rect x="307.3" y="191.6" style="fill:#324A5E;" width="24.3" height="45.4"/>
	<rect x="275.1" y="270.8" style="fill:#324A5E;" width="24.3" height="45.4"/>
	<rect x="307.3" y="270.8" style="fill:#324A5E;" width="24.3" height="45.4"/>
	<rect x="172.4" y="270.8" style="fill:#324A5E;" width="24.3" height="45.4"/>
	<rect x="204.6" y="270.8" style="fill:#324A5E;" width="24.3" height="45.4"/>
	<rect x="172.4" y="191.6" style="fill:#324A5E;" width="24.3" height="45.4"/>
	<rect x="204.6" y="191.6" style="fill:#324A5E;" width="24.3" height="45.4"/>
	<rect x="222" y="337.9" style="fill:#324A5E;" width="60" height="67.2"/>
</g>
<rect x="226.9" y="342.3" style="fill:#FFD05B;" width="50.2" height="62.8"/>
<circle style="fill:#324A5E;" cx="235.7" cy="373.7" r="2.7"/>
<g>
</g>
<g>
</g>
<g>
</g>
<g>
</g>
<g>
</g>
<g>
</g>
<g>
</g>
<g>
</g>
<g>
</g>
<g>
</g>
<g>
</g>
<g>
</g>
<g>
</g>
<g>
</g>
<g>
</g>
</svg>
