<?xml version="1.0" encoding="iso-8859-1"?>
<!-- Generator: Adobe Illustrator 19.0.0, SVG Export Plug-In . SVG Version: 6.00 Build 0)  -->
<svg version="1.1" id="Layer_1" xmlns="http://www.w3.org/2000/svg" xmlns:xlink="http://www.w3.org/1999/xlink" x="0px" y="0px"
	 viewBox="0 0 504 504" style="enable-background:new 0 0 504 504;" xml:space="preserve">
<circle style="fill:#90DFAA;" cx="252" cy="252" r="252"/>
<path style="fill:#324A5E;" d="M384.6,259.1H119.4c-1.5,0-2.7-1.2-2.7-2.7V94.9c0-1.5,1.2-2.7,2.7-2.7h265.2c1.5,0,2.7,1.2,2.7,2.7
	v161.6C387.3,257.9,386.1,259.1,384.6,259.1z"/>
<rect x="131.2" y="106.7" style="fill:#E6E9EE;" width="241.6" height="138"/>
<path style="fill:#324A5E;" d="M420.8,368.7H83.2c-7.1,0-10.3-5.7-7.2-12.5l37.4-82.5c1.9-4.1,7.6-7.3,12.9-7.3h251.4
	c5.3,0,11.1,3.2,12.9,7.3l37.4,82.5C431.1,363,427.9,368.7,420.8,368.7z"/>
<g>
	<path style="fill:#2B3B4E;" d="M135.6,280.8h-12.4c-1.2,0-1.9-0.8-1.5-1.8l2.1-5c0.4-0.9,1.7-1.7,2.9-1.7h12.1
		c1.2,0,1.9,0.8,1.6,1.7l-1.8,5C138.1,280,136.8,280.8,135.6,280.8z"/>
	<path style="fill:#2B3B4E;" d="M160.1,280.8h-12.4c-1.2,0-2-0.8-1.7-1.8l1.7-5c0.3-0.9,1.6-1.7,2.8-1.7h12.1c1.2,0,2,0.8,1.7,1.7
		l-1.4,5C162.6,280,161.4,280.8,160.1,280.8z"/>
	<path style="fill:#2B3B4E;" d="M184.6,280.8h-12.4c-1.3,0-2.1-0.8-1.8-1.8l1.3-5c0.2-0.9,1.4-1.7,2.6-1.7h12.1c1.2,0,2,0.8,1.9,1.7
		l-1,5C187.1,280,185.9,280.8,184.6,280.8z"/>
	<path style="fill:#2B3B4E;" d="M209.2,280.8h-12.4c-1.2,0-2.1-0.8-1.9-1.8l0.9-5c0.2-0.9,1.3-1.7,2.5-1.7h12.1c1.2,0,2.1,0.8,2,1.7
		l-0.6,5C211.5,280,210.4,280.8,209.2,280.8z"/>
	<path style="fill:#2B3B4E;" d="M233.7,280.8h-12.4c-1.2,0-2.2-0.8-2.1-1.8l0.5-5c0.1-0.9,1.2-1.7,2.4-1.7h12.1
		c1.2,0,2.2,0.8,2.1,1.7l-0.3,5C236,280,234.9,280.8,233.7,280.8z"/>
	<path style="fill:#2B3B4E;" d="M258.2,280.8h-12.4c-1.2,0-2.2-0.8-2.2-1.8l0.1-5c0-0.9,1-1.7,2.2-1.7H258c1.2,0,2.2,0.8,2.2,1.7
		l0.1,5C260.4,280,259.5,280.8,258.2,280.8z"/>
	<path style="fill:#2B3B4E;" d="M282.7,280.8h-12.4c-1.2,0-2.3-0.8-2.4-1.8l-0.3-5c0-0.9,0.9-1.7,2.1-1.7h12.1
		c1.2,0,2.3,0.8,2.4,1.7l0.5,5C284.9,280,284,280.8,282.7,280.8z"/>
	<path style="fill:#2B3B4E;" d="M307.3,280.8h-12.4c-1.3,0-2.4-0.8-2.5-1.8l-0.6-5c-0.1-0.9,0.8-1.7,2-1.7h12.1
		c1.2,0,2.3,0.8,2.5,1.7l0.9,5C309.4,280,308.5,280.8,307.3,280.8z"/>
	<path style="fill:#2B3B4E;" d="M331.8,280.8h-12.4c-1.3,0-2.4-0.8-2.6-1.8l-1-5c-0.2-0.9,0.6-1.7,1.9-1.7h12.1
		c1.2,0,2.4,0.8,2.6,1.7l1.3,5C333.8,280,333,280.8,331.8,280.8z"/>
	<path style="fill:#2B3B4E;" d="M356.3,280.8h-12.4c-1.2,0-2.5-0.8-2.8-1.8l-1.4-5c-0.3-0.9,0.5-1.7,1.7-1.7h12.1
		c1.2,0,2.5,0.8,2.8,1.7l1.7,5C358.3,280,357.5,280.8,356.3,280.8z"/>
	<path style="fill:#2B3B4E;" d="M380.8,280.8h-12.4c-1.2,0-2.6-0.8-2.9-1.8l-1.8-5c-0.3-0.9,0.4-1.7,1.6-1.7h12.1
		c1.2,0,2.5,0.8,2.9,1.7l2.1,5C382.8,280,382.1,280.8,380.8,280.8z"/>
	<path style="fill:#2B3B4E;" d="M130.5,294.5h-13c-1.3,0-2-0.9-1.6-1.9l2.3-5.4c0.4-1,1.8-1.8,3.1-1.8h12.6c1.3,0,2,0.8,1.6,1.8
		l-2,5.4C133.1,293.7,131.8,294.5,130.5,294.5z"/>
	<path style="fill:#2B3B4E;" d="M156.1,294.5h-13c-1.3,0-2.1-0.9-1.7-1.9l1.8-5.4c0.3-1,1.7-1.8,2.9-1.8h12.6c1.3,0,2.1,0.8,1.8,1.8
		l-1.5,5.4C158.7,293.7,157.4,294.5,156.1,294.5z"/>
	<path style="fill:#2B3B4E;" d="M181.7,294.5h-13c-1.3,0-2.1-0.9-1.9-1.9l1.4-5.4c0.3-1,1.5-1.8,2.8-1.8h12.6c1.3,0,2.1,0.8,1.9,1.8
		l-1.1,5.4C184.2,293.7,183,294.5,181.7,294.5z"/>
	<path style="fill:#2B3B4E;" d="M207.3,294.5h-13c-1.3,0-2.2-0.9-2-1.9l1-5.4c0.2-1,1.4-1.8,2.6-1.8h12.6c1.3,0,2.2,0.8,2.1,1.8
		l-0.7,5.4C209.7,293.7,208.6,294.5,207.3,294.5z"/>
	<path style="fill:#2B3B4E;" d="M232.9,294.5h-13c-1.3,0-2.3-0.9-2.2-1.9l0.6-5.4c0.1-1,1.2-1.8,2.5-1.8h12.6c1.3,0,2.3,0.8,2.2,1.8
		l-0.3,5.4C235.3,293.7,234.2,294.5,232.9,294.5z"/>
	<path style="fill:#2B3B4E;" d="M258.5,294.5h-13c-1.3,0-2.3-0.9-2.3-1.9l0.1-5.4c0-1,1.1-1.8,2.3-1.8h12.6c1.3,0,2.3,0.8,2.3,1.8
		l0.1,5.4C260.8,293.7,259.8,294.5,258.5,294.5z"/>
	<path style="fill:#2B3B4E;" d="M284.1,294.5h-13c-1.3,0-2.4-0.9-2.5-1.9l-0.3-5.4c-0.1-1,0.9-1.8,2.2-1.8h12.6
		c1.3,0,2.4,0.8,2.5,1.8l0.6,5.4C286.4,293.7,285.4,294.5,284.1,294.5z"/>
	<path style="fill:#2B3B4E;" d="M309.7,294.5h-13c-1.3,0-2.5-0.9-2.6-1.9l-0.7-5.4c-0.1-1,0.8-1.8,2.1-1.8h12.6
		c1.3,0,2.4,0.8,2.6,1.8l1,5.4C311.9,293.7,311,294.5,309.7,294.5z"/>
	<path style="fill:#2B3B4E;" d="M335.3,294.5h-13c-1.3,0-2.5-0.9-2.8-1.9l-1.1-5.4c-0.2-1,0.6-1.8,1.9-1.8H333
		c1.3,0,2.5,0.8,2.8,1.8l1.4,5.4C337.4,293.7,336.6,294.5,335.3,294.5z"/>
	<path style="fill:#2B3B4E;" d="M360.9,294.5h-13c-1.3,0-2.6-0.9-2.9-1.9l-1.5-5.4c-0.3-1,0.5-1.8,1.8-1.8h12.6
		c1.3,0,2.6,0.8,2.9,1.8l1.8,5.4C363,293.7,362.2,294.5,360.9,294.5z"/>
	<path style="fill:#2B3B4E;" d="M386.5,294.5h-13c-1.3,0-2.7-0.9-3.1-1.9l-2-5.4c-0.4-1,0.4-1.8,1.6-1.8h12.6c1.3,0,2.6,0.8,3.1,1.8
		l2.3,5.4C388.5,293.7,387.8,294.5,386.5,294.5z"/>
	<path style="fill:#2B3B4E;" d="M124.9,309.6h-13.6c-1.4,0-2.1-0.9-1.6-2.1l2.5-5.9c0.5-1.1,1.9-2,3.2-2h13.2c1.3,0,2.1,0.9,1.7,2
		l-2.2,5.9C127.7,308.6,126.2,309.6,124.9,309.6z"/>
	<path style="fill:#2B3B4E;" d="M151.7,309.6h-13.6c-1.4,0-2.2-0.9-1.8-2.1l2-5.9c0.4-1.1,1.8-2,3.1-2h13.2c1.3,0,2.1,0.9,1.8,2
		l-1.7,5.9C154.4,308.6,153,309.6,151.7,309.6z"/>
	<path style="fill:#2B3B4E;" d="M178.4,309.6h-13.6c-1.4,0-2.2-0.9-1.9-2.1l1.5-5.9c0.3-1.1,1.6-2,2.9-2h13.2c1.3,0,2.2,0.9,2,2
		l-1.2,5.9C181.1,308.6,179.8,309.6,178.4,309.6z"/>
	<path style="fill:#2B3B4E;" d="M205.2,309.6h-13.6c-1.4,0-2.3-0.9-2.1-2.1l1.1-5.9c0.2-1.1,1.4-2,2.8-2h13.2c1.3,0,2.3,0.9,2.1,2
		l-0.8,5.9C207.8,308.6,206.6,309.6,205.2,309.6z"/>
	<path style="fill:#2B3B4E;" d="M232,309.6h-13.6c-1.4,0-2.4-0.9-2.3-2.1l0.6-5.9c0.1-1.1,1.3-2,2.6-2h13.2c1.3,0,2.4,0.9,2.3,2
		l-0.3,5.9C234.5,308.6,233.4,309.6,232,309.6z"/>
	<path style="fill:#2B3B4E;" d="M258.8,309.6h-13.6c-1.4,0-2.4-0.9-2.4-2.1l0.2-5.9c0-1.1,1.1-2,2.5-2h13.2c1.3,0,2.4,0.9,2.5,2
		l0.2,5.9C261.2,308.6,260.1,309.6,258.8,309.6z"/>
	<path style="fill:#2B3B4E;" d="M285.6,309.6H272c-1.4,0-2.5-0.9-2.6-2.1l-0.3-5.9c-0.1-1.1,1-2,2.3-2h13.2c1.3,0,2.5,0.9,2.6,2
		l0.6,5.9C287.9,308.6,286.9,309.6,285.6,309.6z"/>
	<path style="fill:#2B3B4E;" d="M312.3,309.6h-13.6c-1.4,0-2.6-0.9-2.7-2.1l-0.8-5.9c-0.1-1.1,0.8-2,2.1-2h13.2c1.3,0,2.6,0.9,2.8,2
		l1.1,5.9C314.6,308.6,313.7,309.6,312.3,309.6z"/>
	<path style="fill:#2B3B4E;" d="M339.1,309.6h-13.6c-1.4,0-2.7-0.9-2.9-2.1l-1.2-5.9c-0.2-1.1,0.7-2,2-2h13.2c1.3,0,2.6,0.9,2.9,2
		l1.5,5.9C341.3,308.6,340.5,309.6,339.1,309.6z"/>
	<path style="fill:#2B3B4E;" d="M365.9,309.6h-13.6c-1.4,0-2.7-0.9-3.1-2.1l-1.7-5.9c-0.3-1.1,0.5-2,1.8-2h13.2c1.3,0,2.7,0.9,3.1,2
		l2,5.9C368.1,308.6,367.3,309.6,365.9,309.6z"/>
	<path style="fill:#2B3B4E;" d="M392.7,309.6h-13.6c-1.4,0-2.8-0.9-3.2-2.1l-2.2-5.9c-0.4-1.1,0.3-2,1.7-2h13.2c1.3,0,2.8,0.9,3.2,2
		l2.5,5.9C394.8,308.6,394,309.6,392.7,309.6z"/>
	<path style="fill:#2B3B4E;" d="M118.7,326h-14.2c-1.4,0-2.2-1-1.6-2.3l2.7-6.5c0.5-1.2,2-2.2,3.4-2.2h13.8c1.4,0,2.2,1,1.7,2.2
		l-2.4,6.5C121.7,325,120.2,326,118.7,326z"/>
	<path style="fill:#2B3B4E;" d="M259.1,326H132.6c-1.4,0-2.2-1-1.8-2.3l2.2-6.5c0.4-1.2,1.9-2.2,3.3-2.2h122.6c1.4,0,2.5,1,2.6,2.2
		l0.2,6.5C261.7,325,260.5,326,259.1,326z"/>
	<path style="fill:#2B3B4E;" d="M287.2,326H273c-1.4,0-2.6-1-2.7-2.3l-0.3-6.5c-0.1-1.2,1-2.2,2.4-2.2h13.8c1.4,0,2.6,1,2.7,2.2
		l0.7,6.5C289.7,325,288.6,326,287.2,326z"/>
	<path style="fill:#2B3B4E;" d="M315.3,326H301c-1.4,0-2.7-1-2.9-2.3l-0.8-6.5c-0.2-1.2,0.8-2.2,2.2-2.2h13.8c1.4,0,2.7,1,2.9,2.2
		l1.2,6.5C317.7,325,316.7,326,315.3,326z"/>
	<path style="fill:#2B3B4E;" d="M343.3,326h-14.2c-1.4,0-2.8-1-3.1-2.3l-1.3-6.5c-0.3-1.2,0.7-2.2,2.1-2.2h13.8c1.4,0,2.8,1,3.1,2.2
		l1.7,6.5C345.6,325,344.8,326,343.3,326z"/>
	<path style="fill:#2B3B4E;" d="M371.4,326h-14.2c-1.4,0-2.9-1-3.3-2.3l-1.9-6.5c-0.3-1.2,0.5-2.2,1.9-2.2h13.8c1.4,0,2.8,1,3.3,2.2
		l2.2,6.5C373.6,325,372.8,326,371.4,326z"/>
	<path style="fill:#2B3B4E;" d="M399.5,326h-14.2c-1.4,0-3-1-3.4-2.3l-2.4-6.5c-0.4-1.2,0.3-2.2,1.7-2.2H395c1.4,0,2.9,1,3.4,2.2
		l2.7,6.5C401.6,325,400.9,326,399.5,326z"/>
	<polygon style="fill:#2B3B4E;" points="262.6,359.6 186.2,359.6 190.4,334.6 261.9,334.6 	"/>
</g>
<g>
</g>
<g>
</g>
<g>
</g>
<g>
</g>
<g>
</g>
<g>
</g>
<g>
</g>
<g>
</g>
<g>
</g>
<g>
</g>
<g>
</g>
<g>
</g>
<g>
</g>
<g>
</g>
<g>
</g>
</svg>
