<?xml version="1.0" encoding="iso-8859-1"?>
<!-- Generator: Adobe Illustrator 19.0.0, SVG Export Plug-In . SVG Version: 6.00 Build 0)  -->
<svg version="1.1" id="Layer_1" xmlns="http://www.w3.org/2000/svg" xmlns:xlink="http://www.w3.org/1999/xlink" x="0px" y="0px"
	 viewBox="0 0 504 504" style="enable-background:new 0 0 504 504;" xml:space="preserve">
<circle style="fill:#FD8469;" cx="252" cy="252" r="252"/>
<path style="fill:#F1543F;" d="M35.3,380.6C79.2,454.5,159.8,504,252,504s172.8-49.5,216.7-123.4H35.3z"/>
<polygon style="fill:#2C9984;" points="435.5,185.1 382.5,129 121.5,129 68.5,185.1 "/>
<rect x="100.8" y="185.1" style="fill:#CED5E0;" width="302.5" height="196.3"/>
<polygon style="fill:#4CDBC4;" points="338.8,185.1 251,96.4 163.2,185.1 "/>
<rect x="186.3" y="185.1" style="fill:#E6E9EE;" width="129.4" height="196.3"/>
<g>
	<rect x="203.6" y="198.8" style="fill:#ACB3BA;" width="20.5" height="20.5"/>
	<rect x="240.8" y="198.8" style="fill:#ACB3BA;" width="20.5" height="20.5"/>
	<rect x="278" y="198.8" style="fill:#ACB3BA;" width="20.5" height="20.5"/>
	<rect x="203.6" y="234.9" style="fill:#ACB3BA;" width="20.5" height="20.5"/>
	<rect x="240.8" y="234.9" style="fill:#ACB3BA;" width="20.5" height="20.5"/>
	<rect x="278" y="234.9" style="fill:#ACB3BA;" width="20.5" height="20.5"/>
	<rect x="203.6" y="271" style="fill:#ACB3BA;" width="20.5" height="20.5"/>
	<rect x="240.8" y="271" style="fill:#ACB3BA;" width="20.5" height="20.5"/>
	<rect x="278" y="271" style="fill:#ACB3BA;" width="20.5" height="20.5"/>
	<rect x="331.5" y="244.1" style="fill:#ACB3BA;" width="20.4" height="22.4"/>
	<rect x="368.6" y="244.1" style="fill:#ACB3BA;" width="20.4" height="22.4"/>
	<rect x="331.5" y="284" style="fill:#ACB3BA;" width="20.4" height="22.4"/>
	<rect x="368.6" y="284" style="fill:#ACB3BA;" width="20.4" height="22.4"/>
	<rect x="331.1" y="204.3" style="fill:#ACB3BA;" width="20.4" height="22.4"/>
	<rect x="368.2" y="204.3" style="fill:#ACB3BA;" width="20.4" height="22.4"/>
	<rect x="115.4" y="204.3" style="fill:#ACB3BA;" width="20.4" height="22.4"/>
	<rect x="152.5" y="204.3" style="fill:#ACB3BA;" width="20.4" height="22.4"/>
	<rect x="115.4" y="244.1" style="fill:#ACB3BA;" width="20.4" height="22.4"/>
	<rect x="152.5" y="244.1" style="fill:#ACB3BA;" width="20.4" height="22.4"/>
	<rect x="115.4" y="284" style="fill:#ACB3BA;" width="20.4" height="22.4"/>
	<rect x="152.5" y="284" style="fill:#ACB3BA;" width="20.4" height="22.4"/>
</g>
<rect x="222.3" y="340.1" style="fill:#324A5E;" width="57.5" height="41.3"/>
<g>
</g>
<g>
</g>
<g>
</g>
<g>
</g>
<g>
</g>
<g>
</g>
<g>
</g>
<g>
</g>
<g>
</g>
<g>
</g>
<g>
</g>
<g>
</g>
<g>
</g>
<g>
</g>
<g>
</g>
</svg>
