<?xml version="1.0" encoding="iso-8859-1"?>
<!-- Generator: Adobe Illustrator 19.0.0, SVG Export Plug-In . SVG Version: 6.00 Build 0)  -->
<svg version="1.1" id="Layer_1" xmlns="http://www.w3.org/2000/svg" xmlns:xlink="http://www.w3.org/1999/xlink" x="0px" y="0px"
	 viewBox="0 0 504 504" style="enable-background:new 0 0 504 504;" xml:space="preserve">
<circle style="fill:#84DBFF;" cx="252" cy="252" r="252"/>
<path style="fill:#54C0EB;" d="M46.4,397.6C92,461.9,167.1,504,252,504s160-42.1,205.6-106.4H46.4z"/>
<rect x="196.9" y="348.1" style="fill:#2B3B4E;" width="110.2" height="41"/>
<path style="fill:#324A5E;" d="M427.6,353.4H76.4c-1.8,0-3.2-1.4-3.2-3.2V132.1c0-1.8,1.4-3.2,3.2-3.2h351.1c1.8,0,3.2,1.4,3.2,3.2
	v218.1C430.8,351.9,429.4,353.4,427.6,353.4z"/>
<rect x="90.7" y="146.4" style="fill:#CED5E0;" width="322.5" height="176.7"/>
<rect x="174.6" y="380" style="fill:#324A5E;" width="154.9" height="17.8"/>
<g>
	<circle style="fill:#FFD05B;" cx="406.9" cy="338.1" r="6.4"/>
	<circle style="fill:#FFD05B;" cx="386.4" cy="338.1" r="6.4"/>
	<circle style="fill:#FFD05B;" cx="365.9" cy="338.1" r="6.4"/>
	<circle style="fill:#FFD05B;" cx="345.4" cy="338.1" r="6.4"/>
</g>
<g>
</g>
<g>
</g>
<g>
</g>
<g>
</g>
<g>
</g>
<g>
</g>
<g>
</g>
<g>
</g>
<g>
</g>
<g>
</g>
<g>
</g>
<g>
</g>
<g>
</g>
<g>
</g>
<g>
</g>
</svg>
