<?xml version="1.0" encoding="iso-8859-1"?>
<!-- Generator: Adobe Illustrator 19.0.0, SVG Export Plug-In . SVG Version: 6.00 Build 0)  -->
<svg version="1.1" id="Layer_1" xmlns="http://www.w3.org/2000/svg" xmlns:xlink="http://www.w3.org/1999/xlink" x="0px" y="0px"
	 viewBox="0 0 504 504" style="enable-background:new 0 0 504 504;" xml:space="preserve">
<circle style="fill:#84DBFF;" cx="252" cy="252" r="252"/>
<g>
	<path style="fill:#324A5E;" d="M133.6,29.5l38.1,213.3l-15.5,2.8L119.1,37.9C123.8,34.9,128.6,32.2,133.6,29.5z"/>
	<path style="fill:#324A5E;" d="M318,174.7L229.4,1c-5.6,0.5-11.1,1.1-16.6,2l91.1,178.6C307.3,178,312,175.4,318,174.7z"/>
</g>
<path style="fill:#FF7058;" d="M450.4,298.8L396.6,130c-1.7-5.2-7.2-8.1-12.4-6.4L67.9,224.4c-5.2,1.7-8.1,7.2-6.4,12.4l53.7,168.8
	c1.7,5.2,7.2,8,12.4,6.4l316.3-100.8C449.1,309.5,452,304,450.4,298.8z M170.2,266.2c-8,2.6-16.7-1.9-19.2-9.9
	c-2.6-8.1,1.9-16.7,9.9-19.3c8.1-2.6,16.7,1.9,19.3,10C182.7,255.1,178.2,263.7,170.2,266.2z M325,216.9c-8,2.6-16.7-1.9-19.2-9.9
	c-2.6-8.1,1.9-16.7,9.9-19.3c8.1-2.6,16.7,1.9,19.3,10C337.5,205.7,333.1,214.4,325,216.9z"/>
<g>
	<path style="fill:#FFFFFF;" d="M429.4,298.4l-297.2,94.7c-1.7,0.6-3.6-0.4-4.2-2.1L80.3,241.2c-0.6-1.7,0.4-3.6,2.1-4.2l297.2-94.7
		c1.7-0.6,3.6,0.4,4.2,2.1l47.7,149.7C432.1,296,431.1,297.9,429.4,298.4z M133.3,385.8l290.9-92.7l-45.7-143.4L87.6,242.4
		L133.3,385.8z"/>
	<path style="fill:#FFFFFF;" d="M191.2,342.7c-3.9,7.3-9.9,12.3-18.2,14.9c-8.2,2.6-16,2.1-23.4-1.6s-12.4-9.6-15-17.8
		c-2.6-8.2-2-15.9,1.9-23.2c3.9-7.3,9.9-12.3,18.2-14.9c8.2-2.6,16-2.1,23.4,1.6s12.4,9.6,15,17.8
		C195.8,327.7,195.1,335.4,191.2,342.7z M180.5,323.6c-1.6-5-4.5-8.7-8.8-11.2s-8.8-3-13.4-1.5c-4.7,1.5-8,4.5-10.1,9
		s-2.3,9.3-0.7,14.2c1.6,5,4.5,8.7,8.8,11.1c4.3,2.5,8.8,3,13.4,1.5c4.7-1.5,8-4.5,10.1-9C181.8,333.3,182.1,328.6,180.5,323.6z"/>
	<path style="fill:#FFFFFF;" d="M246.3,277.8c5,2.1,8.5,6.6,10.7,13.4c2.2,6.9,1.8,12.6-1.2,17c-3,4.5-8.6,8-16.9,10.6l-7.4,2.4
		l5,15.5l-12.4,4L206.4,285l19.7-6.3C234.6,276,241.4,275.7,246.3,277.8z M244.2,302.6c1-2.1,0.9-4.8-0.1-8s-2.7-5.2-5.1-5.9
		c-2.4-0.7-5.6-0.5-9.7,0.9l-7.1,2.3l6,18.7l8.4-2.7C240.7,306.5,243.3,304.7,244.2,302.6z"/>
	<path style="fill:#FFFFFF;" d="M312,251.4l3.5,11.1l-27.7,8.8l3.7,11.5l24.9-7.9l3.4,10.6l-24.9,7.9l3.7,11.6l28.6-9.1l3.5,11
		l-41,13.1L272,264.3L312,251.4z"/>
	<path style="fill:#FFFFFF;" d="M374.4,231.5l12.4-4l17.7,55.7l-12.4,4l-37.7-26.5l11.1,34.9l-12.4,4l-17.7-55.7l11.6-3.7l38.8,27.2
		L374.4,231.5z"/>
</g>
<path style="fill:#324A5E;" d="M175.7,252.1c-3.3,0-6.3-2.1-7.4-5.3c-1.4-4.1,0.8-8.6,4.9-10L309,190.1c4.1-1.4,8.6,0.8,10,4.9
	c1.4,4.1-0.8,8.6-4.9,10l-135.8,46.7C177.4,251.9,176.6,252.1,175.7,252.1z"/>
<g>
</g>
<g>
</g>
<g>
</g>
<g>
</g>
<g>
</g>
<g>
</g>
<g>
</g>
<g>
</g>
<g>
</g>
<g>
</g>
<g>
</g>
<g>
</g>
<g>
</g>
<g>
</g>
<g>
</g>
</svg>
