<?xml version="1.0" encoding="iso-8859-1"?>
<!-- Generator: Adobe Illustrator 19.0.0, SVG Export Plug-In . SVG Version: 6.00 Build 0)  -->
<svg version="1.1" id="Layer_1" xmlns="http://www.w3.org/2000/svg" xmlns:xlink="http://www.w3.org/1999/xlink" x="0px" y="0px"
	 viewBox="0 0 504 504" style="enable-background:new 0 0 504 504;" xml:space="preserve">
<circle style="fill:#FD8469;" cx="252" cy="252" r="252"/>
<path style="fill:#F1543F;" d="M63.4,419.1C109.6,471.2,176.9,504,252,504s142.4-32.8,188.6-84.9H63.4z"/>
<rect x="202.5" y="236.3" style="fill:#2B3B4E;" width="101.8" height="23.7"/>
<g>
	<path style="fill:#324A5E;" d="M327.6,268.4H179.2l0,0c0-7,5.7-12.6,12.6-12.6H315C322,255.7,327.6,261.4,327.6,268.4L327.6,268.4z
		"/>
	<rect x="123.4" y="84.3" style="fill:#324A5E;" width="260" height="156"/>
</g>
<rect x="134.6" y="95.5" style="fill:#E6E9EE;" width="237.6" height="133.6"/>
<polygon style="fill:#F9B54C;" points="396.7,268.4 396.7,419.7 379,419.7 379,397 127.8,397 127.8,419.7 110.1,419.7 110.1,268.4 
	"/>
<g>
	<rect x="91.1" y="268.4" style="fill:#FFD05B;" width="324.6" height="27.9"/>
	<rect x="266.9" y="319.4" style="fill:#FFD05B;" width="112.1" height="56"/>
	<rect x="127.8" y="319.4" style="fill:#FFD05B;" width="112.1" height="56"/>
</g>
<g>
	<path style="fill:#F9B54C;" d="M346,335.4h-46c-2.1,0-3.7-1.7-3.7-3.7l0,0c0-2.1,1.7-3.7,3.7-3.7h46c2.1,0,3.7,1.7,3.7,3.7l0,0
		C349.7,333.8,348,335.4,346,335.4z"/>
	<path style="fill:#F9B54C;" d="M206.9,335.4h-46c-2.1,0-3.7-1.7-3.7-3.7l0,0c0-2.1,1.7-3.7,3.7-3.7h46c2.1,0,3.7,1.7,3.7,3.7l0,0
		C210.6,333.8,208.9,335.4,206.9,335.4z"/>
</g>
<g>
</g>
<g>
</g>
<g>
</g>
<g>
</g>
<g>
</g>
<g>
</g>
<g>
</g>
<g>
</g>
<g>
</g>
<g>
</g>
<g>
</g>
<g>
</g>
<g>
</g>
<g>
</g>
<g>
</g>
</svg>
