<?xml version="1.0" encoding="iso-8859-1"?>
<!-- Generator: Adobe Illustrator 19.0.0, SVG Export Plug-In . SVG Version: 6.00 Build 0)  -->
<svg version="1.1" id="Layer_1" xmlns="http://www.w3.org/2000/svg" xmlns:xlink="http://www.w3.org/1999/xlink" x="0px" y="0px"
	 viewBox="0 0 504 504" style="enable-background:new 0 0 504 504;" xml:space="preserve">
<circle style="fill:#90DFAA;" cx="252" cy="252" r="252"/>
<path style="fill:#2C9984;" d="M44.4,394.8C89.9,460.8,165.9,504,252,504s162.1-43.2,207.6-109.2H44.4z"/>
<rect x="247.2" y="139.8" style="fill:#324A5E;" width="9.6" height="252.4"/>
<path style="fill:#FF7058;" d="M382.7,159.9c-8.9-64.2-64-113.6-130.7-113.6c-66.6,0-121.7,49.4-130.7,113.6H382.7z"/>
<path style="fill:#F1543F;" d="M355.4,159.9C348.3,95.8,304.7,46.3,252,46.3s-96.3,49.4-103.4,113.6H355.4z"/>
<path style="fill:#FF7058;" d="M307,159.9c-3.8-64.1-27-113.6-55-113.6s-51.2,49.4-55,113.6H307z"/>
<path style="fill:#F1543F;" d="M268.1,159.9C267,95.8,260.2,46.3,252,46.3s-15,49.4-16.1,113.6H268.1z"/>
<path style="fill:#324A5E;" d="M381.2,325.9v68.6h-8l-4.3-33.9c-1.5-11.4-11.1-19.9-22.6-19.9l0,0c-11.5,0-21.2,8.5-22.6,19.9
	l-4.2,33.8h-8.1v-68.6h69.8V325.9z"/>
<path style="fill:#E6E9EE;" d="M386.3,246.7c-3.7,0-6.7,3-6.7,6.7v63.1h-73.2c-3.7,0-6.7,3-6.7,6.7s3,6.7,6.7,6.7h73.2h7.4
	c3.4,0,6.1-2.7,6.1-6.1v-7.4v-63.1C393,249.7,390,246.7,386.3,246.7z"/>
<path style="fill:#324A5E;" d="M122.8,325.9v68.6h8l4.3-33.9c1.5-11.4,11.1-19.9,22.6-19.9l0,0c11.5,0,21.2,8.5,22.6,19.9l4.2,33.8
	h8.1v-68.6h-69.8V325.9z"/>
<path style="fill:#E6E9EE;" d="M117.7,246.7c3.7,0,6.7,3,6.7,6.7v63.1h73.2c3.7,0,6.7,3,6.7,6.7s-3,6.7-6.7,6.7h-73.2H117
	c-3.4,0-6.1-2.7-6.1-6.1v-7.4v-63.1C111,249.7,114,246.7,117.7,246.7z"/>
<path style="fill:#FFFFFF;" d="M315.6,277.4H188.4c-8.4,0-15.3-6.8-15.3-15.3l0,0h157.8l0,0C330.9,270.6,324,277.4,315.6,277.4z"/>
<g>
</g>
<g>
</g>
<g>
</g>
<g>
</g>
<g>
</g>
<g>
</g>
<g>
</g>
<g>
</g>
<g>
</g>
<g>
</g>
<g>
</g>
<g>
</g>
<g>
</g>
<g>
</g>
<g>
</g>
</svg>
