<?xml version="1.0" encoding="iso-8859-1"?>
<!-- Generator: Adobe Illustrator 19.0.0, SVG Export Plug-In . SVG Version: 6.00 Build 0)  -->
<svg version="1.1" id="Layer_1" xmlns="http://www.w3.org/2000/svg" xmlns:xlink="http://www.w3.org/1999/xlink" x="0px" y="0px"
	 viewBox="0 0 504 504" style="enable-background:new 0 0 504 504;" xml:space="preserve">
<circle style="fill:#FFD05B;" cx="252" cy="252" r="252"/>
<circle style="fill:#CED5E0;" cx="252" cy="300.5" r="134.3"/>
<path style="fill:#FFFFFF;" d="M386.2,300.5c0,0.4,0,0.9,0,1.3c-0.6,73.6-60.5,133-134.2,133c-74.2,0-134.2-60.1-134.2-134.2
	c0-1.3,0-2.6,0.1-3.8c2-72.4,61.3-130.5,134.2-130.5C326.2,166.2,386.2,226.3,386.2,300.5z"/>
<path style="fill:#324A5E;" d="M386.2,300.5c0,0.4,0,0.9,0,1.3c-44-6.5-81.3-33.2-102.4-70.3c-24.3,42.9-70.4,71.9-123.2,71.9
	c-14.9,0-29.3-2.3-42.8-6.6c2-72.4,61.3-130.5,134.2-130.5C326.2,166.2,386.2,226.3,386.2,300.5z"/>
<path style="fill:#FF7058;" d="M364.3,89.8V227c-72.3-27.4-152.2-27.4-224.5,0V89.8C212.1,62.4,292,62.4,364.3,89.8z"/>
<path style="fill:#E6E9EE;" d="M364.3,126.5v39.7c-72.3-27.4-152.2-27.4-224.5,0v-39.7C212.1,99.1,292,99.1,364.3,126.5z"/>
<path style="fill:#324A5E;" d="M329.2,375.9c-0.4-1.6-2-2.7-3.6-2.3l-1.3,0.3c0,0-0.1,0-0.5,0.2s-1,0.4-1.8,0.6s-1.8,0.4-2.9,0.5
	s-2.4,0-3.7-0.2c-1.3-0.3-2.6-0.7-3.9-1.4c-0.6-0.4-1.3-0.7-1.9-1.2c-0.6-0.4-1.3-0.9-1.9-1.5s-1.2-1.1-1.7-1.8l-0.8-0.9
	c-0.3-0.3-0.6-0.9-1-1.3c-0.6-0.9-1.3-1.7-1.9-2.6c-0.9-1.1-1.7-2.2-2.6-3.3l-3-3c-1.1-0.9-2.2-1.8-3.3-2.7
	c-2.3-1.7-4.7-3.1-7.2-4.3c-4.9-2.3-9.9-3.6-14.1-4.3c-4.3-0.7-7.9-0.7-10.4-0.6c-1.3,0-2.3,0.1-3.2,0.2c-0.8,0.1-1.2,0.2-1.2,0.2
	c-0.8,0.1-1.6,0.3-2.3,0.5c-1.1,0.4-2.1,0.9-3,1.5c-0.9-0.6-1.9-1.1-3-1.5c-0.8-0.3-1.6-0.4-2.3-0.5c0,0-0.4-0.1-1.2-0.2
	c-0.9-0.1-1.9-0.2-3.2-0.2c-2.6-0.1-6.2,0-10.4,0.6c-4.2,0.7-9.2,1.9-14.1,4.3c-2.5,1.2-4.9,2.6-7.2,4.3c-1.1,0.9-2.3,1.8-3.3,2.7
	l-3,3c-0.9,1.1-1.8,2.2-2.6,3.3c-0.6,0.9-1.3,1.8-1.9,2.6c-0.3,0.4-0.7,1-1,1.3l-0.8,0.9c-0.5,0.6-1,1.2-1.7,1.8
	c-0.6,0.6-1.2,1.1-1.9,1.5c-0.6,0.5-1.3,0.8-1.9,1.2c-1.3,0.7-2.6,1.1-3.9,1.4c-1.3,0.2-2.5,0.3-3.7,0.2c-1.1-0.1-2.1-0.3-2.9-0.5
	c-0.8-0.2-1.4-0.4-1.8-0.6c-0.4-0.2-0.5-0.2-0.5-0.2l-1.3-0.3c-1.6-0.4-3.3,0.7-3.6,2.3c-0.2,1.2,0.2,2.3,1.1,3c0,0,0.3,0.2,0.9,0.7
	c0.5,0.4,1.3,0.9,2.3,1.5s2.3,1.3,3.9,1.8c1.6,0.6,3.5,1,5.7,1.2c2.1,0.1,4.6,0.1,7-0.5c1.2-0.3,2.5-0.6,3.7-1.1
	c1.2-0.4,2.5-1,3.6-1.6c1.2-0.6,2.4-1.3,3.6-2.2l1.8-1.3c0.6-0.4,0.9-0.7,1.4-1.1c0.9-0.8,1.9-1.6,2.8-2.3l2.2-1.6l2.3-1.3
	c0.8-0.4,1.6-0.7,2.4-1c1.6-0.6,3.2-1,4.8-1.3c3.2-0.6,6.3-0.5,8.9-0.2c2.6,0.3,4.8,0.8,6.2,1.3c0.7,0.2,1.2,0.4,1.4,0.5
	c0,0.1,0.4,0.2,0.4,0.2l0.2,0.1c3.8,1.3,7.8,0.6,10.9-1.5c3.1,2.1,7.1,2.8,10.9,1.5l0.2-0.1c0,0,0.3-0.1,0.4-0.2
	c0.2-0.1,0.7-0.3,1.4-0.5c1.4-0.4,3.5-1,6.2-1.3c2.6-0.3,5.7-0.3,8.9,0.2c1.6,0.3,3.2,0.7,4.8,1.3c0.8,0.3,1.6,0.7,2.4,1l2.3,1.3
	l2.2,1.6c0.9,0.8,1.9,1.6,2.8,2.3c0.5,0.4,0.8,0.7,1.4,1.1l1.8,1.3c1.2,0.9,2.4,1.6,3.6,2.2c1.1,0.7,2.4,1.2,3.6,1.6
	c1.2,0.5,2.5,0.8,3.7,1.1c2.4,0.6,4.9,0.6,7,0.5c2.2-0.2,4.1-0.6,5.7-1.2c1.6-0.5,2.9-1.2,3.9-1.8c1-0.6,1.8-1.1,2.3-1.5
	c0.6-0.5,0.9-0.7,0.9-0.7C329,378.2,329.5,377.1,329.2,375.9z"/>
<g>
</g>
<g>
</g>
<g>
</g>
<g>
</g>
<g>
</g>
<g>
</g>
<g>
</g>
<g>
</g>
<g>
</g>
<g>
</g>
<g>
</g>
<g>
</g>
<g>
</g>
<g>
</g>
<g>
</g>
</svg>
