<?xml version="1.0" encoding="iso-8859-1"?>
<!-- Generator: Adobe Illustrator 19.0.0, SVG Export Plug-In . SVG Version: 6.00 Build 0)  -->
<svg version="1.1" id="Layer_1" xmlns="http://www.w3.org/2000/svg" xmlns:xlink="http://www.w3.org/1999/xlink" x="0px" y="0px"
	 viewBox="0 0 504 504" style="enable-background:new 0 0 504 504;" xml:space="preserve">
<circle style="fill:#324A5E;" cx="252" cy="252" r="252"/>
<g>
	<path style="fill:#ACB3BA;" d="M347.3,149.9v82c0,4.3,3.5,7.8,7.9,7.8c4.3,0,7.9-3.5,7.9-7.8v-82H347.3z"/>
	<path style="fill:#ACB3BA;" d="M140.8,149.9v82c0,4.3,3.5,7.8,7.9,7.8s7.9-3.5,7.9-7.8v-82H140.8z"/>
</g>
<path style="fill:#FFD05B;" d="M420.2,153.5H83.7c-7.2,0-13-5.8-13-13l0,0c0-7.2,5.8-13,13-13h336.6c7.2,0,13,5.8,13,13l0,0
	C433.2,147.7,427.4,153.5,420.2,153.5z"/>
<path style="fill:#E6E9EE;" d="M401.3,391.9H102.6c-1.2,0-2.1-0.9-2.1-2.1V197c0-1.2,0.9-2.1,2.1-2.1h298.8c1.2,0,2.1,0.9,2.1,2.1
	v192.8C403.4,390.9,402.5,391.9,401.3,391.9z"/>
<rect x="116.2" y="210.6" style="fill:#FFFFFF;" width="271.5" height="165.6"/>
<polygon style="fill:#FF7058;" points="251.9,220.3 261.2,239.1 282,242.1 267,256.7 270.5,277.4 251.9,267.6 233.3,277.4 
	236.9,256.7 221.8,242.1 242.6,239.1 "/>
<g>
	<path style="fill:#4CDBC4;" d="M167.9,310h10.8v48.5h-10.8v-19.1h-19.3v19.1h-10.8V310h10.8v20.2h19.3V310z"/>
	<path style="fill:#4CDBC4;" d="M231.6,351.8c-4.9,4.8-11,7.2-18.2,7.2s-13.2-2.4-18.2-7.2c-4.9-4.8-7.4-10.7-7.4-17.9
		c0-7.1,2.5-13.1,7.4-17.9s11-7.2,18.2-7.2s13.2,2.4,18.2,7.2c4.9,4.8,7.4,10.7,7.4,17.9C239,341.1,236.5,347,231.6,351.8z
		 M227.9,334c0-4.3-1.4-8-4.2-11.1c-2.8-3-6.2-4.6-10.3-4.6s-7.5,1.5-10.3,4.6s-4.2,6.7-4.2,11.1c0,4.3,1.4,8,4.2,11
		s6.2,4.5,10.3,4.5s7.5-1.5,10.3-4.5S227.9,338.3,227.9,334z"/>
	<path style="fill:#4CDBC4;" d="M267.4,319.4v39.1h-10.8v-39.1h-13.8V310h38.4v9.4H267.4z"/>
	<path style="fill:#4CDBC4;" d="M324.1,310v9.6h-24.2v10h21.8v9.2h-21.8v10.1h25v9.6h-35.8V310H324.1z"/>
	<path style="fill:#4CDBC4;" d="M334.6,358.5V310h10.8v38.8h20.7v9.6h-31.5V358.5z"/>
</g>
<g>
</g>
<g>
</g>
<g>
</g>
<g>
</g>
<g>
</g>
<g>
</g>
<g>
</g>
<g>
</g>
<g>
</g>
<g>
</g>
<g>
</g>
<g>
</g>
<g>
</g>
<g>
</g>
<g>
</g>
</svg>
