<?xml version="1.0" encoding="iso-8859-1"?>
<!-- Generator: Adobe Illustrator 19.0.0, SVG Export Plug-In . SVG Version: 6.00 Build 0)  -->
<svg version="1.1" id="Layer_1" xmlns="http://www.w3.org/2000/svg" xmlns:xlink="http://www.w3.org/1999/xlink" x="0px" y="0px"
	 viewBox="0 0 504 504" style="enable-background:new 0 0 504 504;" xml:space="preserve">
<circle style="fill:#FD8469;" cx="252" cy="252" r="252"/>
<path style="fill:#FFFFFF;" d="M288.2,389.9H127.4c-2.4,0-4.4-2-4.4-4.4v-267c0-2.4,2-4.4,4.4-4.4h160.9c2.4,0,4.4,2,4.4,4.4v267.1
	C292.6,388,290.7,389.9,288.2,389.9z"/>
<path style="fill:#FFD05B;" d="M275.4,401.4H140.2c-15.8,0-28.7-12.9-28.7-28.7V131.3c0-15.8,12.9-28.7,28.7-28.7h135.2
	c15.8,0,28.7,12.9,28.7,28.7v241.3C304.1,388.5,291.2,401.4,275.4,401.4z M140.2,125.6c-3.2,0-5.8,2.6-5.8,5.8v241.3
	c0,3.2,2.6,5.8,5.8,5.8h135.2c3.2,0,5.8-2.6,5.8-5.8V131.3c0-3.2-2.6-5.8-5.8-5.8H140.2V125.6z"/>
<g>
	<path style="fill:#324A5E;" d="M258.9,259.9c-5.6,3.2-12.7,1.3-15.9-4.3l-4.2-7.3v99.4c0,6.6-5.4,12.3-12,12.1
		c-3.1-0.1-5.9-1.4-7.9-3.4c-2.1-2.1-3.4-5-3.4-8.2v-42.1c0-4.3-3.5-7.8-7.8-7.8l0,0c-4.3,0-7.8,3.5-7.8,7.8v41.6
		c0,6.5-5.4,12.3-11.9,12.1c-3.1-0.1-5.9-1.3-8-3.4s-3.4-5-3.4-8.2v-99.5l-4,6.9c-3.2,5.6-10.3,7.5-15.9,4.3
		c-5.6-3.2-7.5-10.3-4.3-15.9l17.5-30.9c4.1-7.3,11.9-11.8,20.3-11.8h35c8.4,0,16.1,4.5,20.3,11.8l17.7,30.9
		C266.4,249.6,264.5,256.7,258.9,259.9z"/>
	<circle style="fill:#324A5E;" cx="207.8" cy="165.2" r="21"/>
</g>
<g>
	<polygon style="fill:#FFFFFF;" points="417.1,166 377.5,126.4 337.9,166 347.7,175.8 370.6,153 370.6,225.5 384.4,225.5 384.4,153 
		407.3,175.8 	"/>
	<polygon style="fill:#FFFFFF;" points="337.9,338 377.5,377.6 417.1,338 407.3,328.2 384.4,351 384.4,278.5 370.6,278.5 370.6,351 
		347.7,328.2 	"/>
</g>
<g>
</g>
<g>
</g>
<g>
</g>
<g>
</g>
<g>
</g>
<g>
</g>
<g>
</g>
<g>
</g>
<g>
</g>
<g>
</g>
<g>
</g>
<g>
</g>
<g>
</g>
<g>
</g>
<g>
</g>
</svg>
