<?xml version="1.0" encoding="iso-8859-1"?>
<!-- Generator: Adobe Illustrator 19.0.0, SVG Export Plug-In . SVG Version: 6.00 Build 0)  -->
<svg version="1.1" id="Layer_1" xmlns="http://www.w3.org/2000/svg" xmlns:xlink="http://www.w3.org/1999/xlink" x="0px" y="0px"
	 viewBox="0 0 504 504" style="enable-background:new 0 0 504 504;" xml:space="preserve">
<circle style="fill:#FFD05B;" cx="252" cy="252" r="252"/>
<polygon style="fill:#324A5E;" points="339.8,379.3 362.5,356.6 330.1,324.3 307.4,347 298.2,337.8 279.7,356.3 299.3,375.9 
	306,369.2 317.4,380.6 310.7,387.3 330.3,406.9 348.8,388.4 "/>
<path style="fill:#FFFFFF;" d="M386.7,358.1L217.1,188.5L198,207.6l169.6,169.6c5.3,5.3,13.8,5.3,19.1,0
	C391.9,371.9,391.9,363.4,386.7,358.1z"/>
<path style="fill:#324A5E;" d="M211.6,202.1c11.7,0.7,23.6-3.4,32.6-12.3c16.6-16.6,16.6-43.6,0-60.2c-14.5-14.5-36.9-16.3-53.4-5.5
	c-2-3.9-4.6-7.6-7.8-10.9c-16.6-16.6-43.6-16.6-60.2,0s-16.6,43.6,0,60.2c3.3,3.3,7,5.9,10.9,7.8c-10.8,16.5-9,38.9,5.5,53.4
	c16.6,16.6,43.6,16.6,60.2,0C208.2,225.7,212.3,213.8,211.6,202.1z M138,128.5c8.2-8.2,21.4-8.2,29.6,0c8.2,8.2,8.2,21.4,0,29.6
	s-21.4,8.2-29.6,0C129.8,150,129.8,136.7,138,128.5z M154.4,219.4c-8.2-8.2-8.2-21.4,0-29.6c8.2-8.2,21.4-8.2,29.6,0
	s8.2,21.4,0,29.6C175.8,227.5,162.5,227.5,154.4,219.4z M199.3,174.5c-8.2-8.2-8.2-21.4,0-29.6c8.2-8.2,21.4-8.2,29.6,0
	c8.2,8.2,8.2,21.4,0,29.6C220.7,182.7,207.4,182.7,199.3,174.5z"/>
<g>
</g>
<g>
</g>
<g>
</g>
<g>
</g>
<g>
</g>
<g>
</g>
<g>
</g>
<g>
</g>
<g>
</g>
<g>
</g>
<g>
</g>
<g>
</g>
<g>
</g>
<g>
</g>
<g>
</g>
</svg>
