<?xml version="1.0" encoding="iso-8859-1"?>
<!-- Generator: Adobe Illustrator 19.0.0, SVG Export Plug-In . SVG Version: 6.00 Build 0)  -->
<svg version="1.1" id="Layer_1" xmlns="http://www.w3.org/2000/svg" xmlns:xlink="http://www.w3.org/1999/xlink" x="0px" y="0px"
	 viewBox="0 0 504 504" style="enable-background:new 0 0 504 504;" xml:space="preserve">
<circle style="fill:#FD8469;" cx="252" cy="252" r="252"/>
<path style="fill:#E6E9EE;" d="M401.1,275.6h-33.6v-15.8h25.7v-80.5h-25.7v-15.8h33.6c4.3,0,7.9,3.5,7.9,7.9v96.3
	C408.9,272,405.4,275.6,401.1,275.6z"/>
<path style="fill:#2B3B4E;" d="M322.3,396.9h-225c-1.3,0-2.3-1-2.3-2.3V109.3c0-1.3,1-2.3,2.3-2.3h225c1.3,0,2.3,1,2.3,2.3v285.3
	C324.6,395.9,323.6,396.9,322.3,396.9z"/>
<rect x="114.7" y="126.7" style="fill:#E6E9EE;" width="190.2" height="250.5"/>
<rect x="114.7" y="243.1" style="fill:#ACB3BA;" width="190.2" height="17.7"/>
<polygon style="fill:#54C0EB;" points="160.4,187.9 136.9,187.9 143.3,143.5 154,143.5 "/>
<path style="fill:#84DBFF;" d="M163.6,243.1h-29.8c-4.1,0-7.4-3.3-7.4-7.4v-40.1c0-12.3,10-22.3,22.3-22.3l0,0
	c12.3,0,22.3,10,22.3,22.3v40.1C171,239.8,167.7,243.1,163.6,243.1z"/>
<rect x="134.1" y="197.7" style="fill:#324A5E;" width="36.9" height="28.9"/>
<polygon style="fill:#2C9984;" points="218.9,187.9 195.4,187.9 201.8,143.5 212.5,143.5 "/>
<path style="fill:#4CDBC4;" d="M222,243.1h-29.8c-4.1,0-7.4-3.3-7.4-7.4v-40.1c0-12.3,10-22.3,22.3-22.3l0,0
	c12.3,0,22.3,10,22.3,22.3v40.1C229.5,239.8,226.1,243.1,222,243.1z"/>
<rect x="192.6" y="197.7" style="fill:#FFFFFF;" width="36.9" height="28.9"/>
<polygon style="fill:#F1543F;" points="277.4,187.9 253.9,187.9 260.3,143.5 270.9,143.5 "/>
<path style="fill:#FF7058;" d="M280.5,243.1h-29.8c-4.1,0-7.4-3.3-7.4-7.4v-40.1c0-12.3,10-22.3,22.3-22.3l0,0
	c12.3,0,22.3,10,22.3,22.3v40.1C287.9,239.8,284.6,243.1,280.5,243.1z"/>
<rect x="251" y="197.7" style="fill:#FFD05B;" width="36.9" height="28.9"/>
<polygon style="fill:#54C0EB;" points="253.9,322 277.4,322 270.9,277.6 260.3,277.6 "/>
<path style="fill:#84DBFF;" d="M250.7,377.3h29.8c4.1,0,7.4-3.3,7.4-7.4v-40.1c0-12.3-10-22.3-22.3-22.3l0,0
	c-12.3,0-22.3,10-22.3,22.3v40.1C243.3,373.9,246.6,377.3,250.7,377.3z"/>
<rect x="243.3" y="331.8" style="fill:#324A5E;" width="36.9" height="28.9"/>
<polygon style="fill:#2C9984;" points="195.4,322 218.9,322 212.5,277.6 201.8,277.6 "/>
<path style="fill:#4CDBC4;" d="M192.3,377.3H222c4.1,0,7.4-3.3,7.4-7.4v-40.1c0-12.3-10-22.3-22.3-22.3l0,0
	c-12.3,0-22.3,10-22.3,22.3v40.1C184.8,373.9,188.1,377.3,192.3,377.3z"/>
<rect x="184.8" y="331.8" style="fill:#FFFFFF;" width="36.9" height="28.9"/>
<polygon style="fill:#F1543F;" points="136.9,322 160.4,322 154,277.6 143.3,277.6 "/>
<path style="fill:#FF7058;" d="M133.8,377.3h29.8c4.1,0,7.4-3.3,7.4-7.4v-40.1c0-12.3-10-22.3-22.3-22.3l0,0
	c-12.3,0-22.3,10-22.3,22.3v40.1C126.3,373.9,129.7,377.3,133.8,377.3z"/>
<rect x="126.3" y="331.8" style="fill:#FFD05B;" width="36.9" height="28.9"/>
<path style="fill:#324A5E;" d="M341.9,396.9L341.9,396.9V107.1l0,0c19.6,0,35.4,15.9,35.4,35.4v219
	C377.3,381.1,361.5,396.9,341.9,396.9z"/>
<g>
</g>
<g>
</g>
<g>
</g>
<g>
</g>
<g>
</g>
<g>
</g>
<g>
</g>
<g>
</g>
<g>
</g>
<g>
</g>
<g>
</g>
<g>
</g>
<g>
</g>
<g>
</g>
<g>
</g>
</svg>
