<?xml version="1.0" encoding="iso-8859-1"?>
<!-- Generator: Adobe Illustrator 19.0.0, SVG Export Plug-In . SVG Version: 6.00 Build 0)  -->
<svg version="1.1" id="Layer_1" xmlns="http://www.w3.org/2000/svg" xmlns:xlink="http://www.w3.org/1999/xlink" x="0px" y="0px"
	 viewBox="0 0 504 504" style="enable-background:new 0 0 504 504;" xml:space="preserve">
<circle style="fill:#FD8469;" cx="252" cy="252" r="252"/>
<circle style="fill:#FFFFFF;" cx="252" cy="252" r="196.6"/>
<path style="fill:#CED5E0;" d="M448.6,252c0,81.6-49.6,151.5-120.4,181.3c-1.1-0.6-2.2-1.2-3.2-2.1c-3-2.7-3.8-6.9-4.1-10.9
	c-1.4-17.9,5-36.6-1.4-53.3c-0.6-1.6-1.4-3.2-2.7-4.3c-1.9-1.5-4.6-1.4-6.9-1.8c-11.2-1.5-19.2-11.2-26.1-20.3
	c-8.3-11-16.9-22.8-18.4-36.5c-1.4-13.7,7.5-29.5,21.3-30.2c7.3-0.4,15.7,3.2,21.3-1.5c2.6-2.1,3.8-5.6,6.4-7.7
	c4.6-3.9,11.7-2.4,16.6,1s8.6,8.3,13.4,11.8c12.1,8.8,28.6,7.1,43.5,5c3-0.4,6.2-1,8.1-3.3c2.2-2.7,1.6-6.8-0.2-9.8
	c-4.7-8.1-15.1-10.5-24.4-10.7s-19.1,0.9-27.5-3c4.8-4.2,6.5-11.5,4.2-17.4c-8.9-1.9-19.1-3.4-26.1,2.4c-5.7,4.7-7.5,13.2-13.5,17.5
	c-9.1,6.5-21.5,0.2-30.7-6c-5.9-4-12.6-9.8-10.9-16.7c4.8,0.2,9.5,0.3,14.3,0.5c7.2,0.3,15.4,0.1,20.3-5.2
	c6.8-7.4,3.3-20.8,10.6-27.6c5.9-5.4,15.2-3.5,23.2-3.3c6.3,0.1,12.9-1.1,17.9-4.8c5.1-3.7,8.3-10.4,6.7-16.5
	c-0.3-1.4-1-2.8-2.4-3.2c-3.2-1-4.1,4-5.6,7.1c-2.4,5.2-9.6,5.6-15.2,4.7c-6.2-1.1-12.6-3.2-16.7-8s-4.9-12.8-0.3-17.1
	c3.7-3.5,9.4-3.6,13.7-6.2c6.4-3.9,8.2-12.3,10.4-19.5c2.2-7.2,7-15.3,14.6-15.3c0.8-7.3,9.2-10.8,16.2-12.8
	c2.8-0.8,5.8-1.6,8.8-2.3C423.5,141.8,448.6,193.9,448.6,252z"/>
<g>
	<path style="fill:#E6E9EE;" d="M241.1,107c-2,11,12,22.4,5.8,31.7c-2.3,3.4-6.6,4.8-10.6,5.9c-11.5,3.2-23.2,5.8-35,7.9
		c-1.8,10.5-2.1,21.3-1,31.9c-12.9-0.6-25.4-7.3-33.2-17.7c-2-2.7-3.7-5.7-3.9-9.1c-0.1-3,1.1-5.9,2.5-8.7
		c3.7-7.4,8.6-14.1,11.6-21.8s3.7-16.9-1-23.7c-3-4.4-7.8-7.2-10.8-11.6c-3-4.3-3.9-9.7-3.1-15c26.8-13.8,57.3-21.5,89.5-21.5
		c6.7,0,13.4,0.3,19.9,1c1.2,11.3,0.5,23.1-7.6,30.6C256.7,94.2,243,96.6,241.1,107z"/>
	<path style="fill:#E6E9EE;" d="M104.5,339.6c-1.4,5.7-8.9,7.1-14.8,6.5c-3.9-0.4-7.9-1.2-11.7-2.4c-7.3-13.8-13-28.6-16.9-44.2
		c3,6.3,8.8,11.3,14.9,15.1c7.8,4.8,16.4,8.3,23.3,14.3C102.5,331.6,105.4,335.5,104.5,339.6z"/>
	<path style="fill:#E6E9EE;" d="M183.6,221.6c-10.9,6.6-24.5,6.1-36.5,10.4c-1.9,0.7-3.7,1.5-5.1,2.9c-5.4,5.6,0.2,15.1-1.3,22.7
		c-1.9,9.6-13.6,13.1-23.3,14.4c-9.7,1.4-21.4,4-24.3,13.4c-0.6,1.8-0.7,3.9-1.9,5.4c-1.9,2.5-5.5,2.7-8.6,2.8
		c-7.6,0-15.2,0.1-22.8,0.1c-2.9-13.5-4.5-27.5-4.5-41.9c0-67.2,33.7-126.6,85.2-162c2.1,2.9,4.1,5.8,5.9,8.9
		c3.8,6.5,6.3,14.6,3.7,21.7c-1,2.6-2.6,4.9-3.5,7.5c-5.1,13.9,9.8,28,8.3,42.8c-0.4,4.2-2,9.1,0.7,12.4c1.3,1.5,3.2,2.2,5,3
		c10.9,5,18.5,15.1,25.6,24.9c0.8,1.1,1.7,2.4,1.9,3.8C188.6,217.8,186.1,220.2,183.6,221.6z"/>
	<path style="fill:#E6E9EE;" d="M225.5,398.5c-2.9,7.3-8.4,13.3-13.9,18.9c-2.9,3-6,6.2-10,7.3c-2.2,0.6-4.6,0.6-6.8,1.4
		c-4.6,1.7-6.7,6.5-8.1,11.4c-30.3-10.6-57.2-28.5-78.6-51.5c0.1-8.2,2.5-16.4,6.5-23.6c7.5-13.5,22.1-24.2,37.4-22.4
		c13.3,1.6,23.6,11.7,34.8,19.1c6.5,4.3,13.7,7.8,21.1,10.4c5.1,1.7,10.6,3.2,14.4,6.9C227.9,381.9,228.4,391.1,225.5,398.5z"/>
</g>
<g>
	<polygon style="fill:#4CDBC4;" points="385.9,329.4 252,296.8 252,205.9 385.9,295.7 	"/>
	<polygon style="fill:#4CDBC4;" points="118.1,329.4 252,296.8 252,205.9 118.1,295.7 	"/>
</g>
<path style="fill:#324A5E;" d="M252,395.3L252,395.3c-10,0-18.3-20.1-18.7-30.1l-6.4-218.9c-0.5-14.2,10.9-37.6,25.1-37.6l0,0
	c14.2,0,25.6,23.3,25.1,37.6l-6.4,218.9C270.3,375.2,262,395.3,252,395.3z"/>
<path style="fill:#54C0EB;" d="M267.9,158.9c0,0.4,0,0.7,0,1.1c-4.1-3.9-9.7-6.3-15.8-6.3c-6.1,0-11.7,2.4-15.8,6.3
	c0-0.4,0-0.7,0-1.1c0-8.8,7.1-15.9,15.9-15.9C260.8,143.1,267.9,150.2,267.9,158.9z"/>
<g>
	<polygon style="fill:#4CDBC4;" points="303.3,395.3 252,382.8 252,347.9 303.3,382.4 	"/>
	<polygon style="fill:#4CDBC4;" points="200.7,395.3 252,382.8 252,347.9 200.7,382.4 	"/>
</g>
<g>
</g>
<g>
</g>
<g>
</g>
<g>
</g>
<g>
</g>
<g>
</g>
<g>
</g>
<g>
</g>
<g>
</g>
<g>
</g>
<g>
</g>
<g>
</g>
<g>
</g>
<g>
</g>
<g>
</g>
</svg>
