<?xml version="1.0" encoding="iso-8859-1"?>
<!-- Generator: Adobe Illustrator 19.0.0, SVG Export Plug-In . SVG Version: 6.00 Build 0)  -->
<svg version="1.1" id="Layer_1" xmlns="http://www.w3.org/2000/svg" xmlns:xlink="http://www.w3.org/1999/xlink" x="0px" y="0px"
	 viewBox="0 0 504 504" style="enable-background:new 0 0 504 504;" xml:space="preserve">
<circle style="fill:#90DFAA;" cx="252" cy="252" r="252"/>
<polygon style="fill:#CED5E0;" points="370.3,369 305.6,369 133.7,369 133.7,155.6 370.3,155.6 "/>
<g>
	<rect x="133.7" y="351.2" style="fill:#E6E9EE;" width="19.3" height="17.8"/>
	<rect x="191.8" y="351.2" style="fill:#E6E9EE;" width="38.9" height="17.8"/>
	<rect x="269.5" y="351.2" style="fill:#E6E9EE;" width="38.9" height="17.8"/>
	<rect x="347.3" y="351.2" style="fill:#E6E9EE;" width="23.1" height="17.8"/>
	<rect x="152.9" y="333.4" style="fill:#E6E9EE;" width="38.9" height="17.8"/>
	<rect x="230.7" y="333.4" style="fill:#E6E9EE;" width="38.9" height="17.8"/>
	<rect x="308.4" y="333.4" style="fill:#E6E9EE;" width="38.9" height="17.8"/>
	<rect x="133.7" y="315.6" style="fill:#E6E9EE;" width="19.3" height="17.8"/>
	<rect x="191.8" y="315.6" style="fill:#E6E9EE;" width="38.9" height="17.8"/>
	<rect x="269.5" y="315.6" style="fill:#E6E9EE;" width="38.9" height="17.8"/>
	<rect x="347.3" y="315.6" style="fill:#E6E9EE;" width="23.1" height="17.8"/>
	<rect x="152.9" y="297.9" style="fill:#E6E9EE;" width="38.9" height="17.8"/>
	<rect x="230.7" y="297.9" style="fill:#E6E9EE;" width="38.9" height="17.8"/>
	<rect x="308.4" y="297.9" style="fill:#E6E9EE;" width="38.9" height="17.8"/>
	<rect x="133.7" y="280.1" style="fill:#E6E9EE;" width="19.3" height="17.8"/>
	<rect x="191.8" y="280.1" style="fill:#E6E9EE;" width="38.9" height="17.8"/>
	<rect x="269.5" y="280.1" style="fill:#E6E9EE;" width="38.9" height="17.8"/>
	<rect x="347.3" y="280.1" style="fill:#E6E9EE;" width="23.1" height="17.8"/>
	<rect x="152.9" y="262.3" style="fill:#E6E9EE;" width="38.9" height="17.8"/>
	<rect x="230.7" y="262.3" style="fill:#E6E9EE;" width="38.9" height="17.8"/>
	<rect x="308.4" y="262.3" style="fill:#E6E9EE;" width="38.9" height="17.8"/>
	<rect x="133.7" y="244.5" style="fill:#E6E9EE;" width="19.3" height="17.8"/>
	<rect x="191.8" y="244.5" style="fill:#E6E9EE;" width="38.9" height="17.8"/>
	<rect x="269.5" y="244.5" style="fill:#E6E9EE;" width="38.9" height="17.8"/>
	<rect x="347.3" y="244.5" style="fill:#E6E9EE;" width="23.1" height="17.8"/>
	<rect x="152.9" y="226.7" style="fill:#E6E9EE;" width="38.9" height="17.8"/>
	<rect x="230.7" y="226.7" style="fill:#E6E9EE;" width="38.9" height="17.8"/>
	<rect x="308.4" y="226.7" style="fill:#E6E9EE;" width="38.9" height="17.8"/>
	<rect x="133.7" y="208.9" style="fill:#E6E9EE;" width="19.3" height="17.8"/>
	<rect x="191.8" y="208.9" style="fill:#E6E9EE;" width="38.9" height="17.8"/>
	<rect x="269.5" y="208.9" style="fill:#E6E9EE;" width="38.9" height="17.8"/>
	<rect x="347.3" y="208.9" style="fill:#E6E9EE;" width="23.1" height="17.8"/>
	<rect x="152.9" y="191.2" style="fill:#E6E9EE;" width="38.9" height="17.8"/>
	<rect x="230.7" y="191.2" style="fill:#E6E9EE;" width="38.9" height="17.8"/>
	<rect x="308.4" y="191.2" style="fill:#E6E9EE;" width="38.9" height="17.8"/>
	<rect x="133.7" y="173.4" style="fill:#E6E9EE;" width="19.3" height="17.8"/>
	<rect x="191.8" y="173.4" style="fill:#E6E9EE;" width="38.9" height="17.8"/>
	<rect x="269.5" y="173.4" style="fill:#E6E9EE;" width="38.9" height="17.8"/>
	<rect x="347.3" y="173.4" style="fill:#E6E9EE;" width="23.1" height="17.8"/>
	<rect x="152.9" y="155.6" style="fill:#E6E9EE;" width="38.9" height="17.8"/>
	<rect x="230.7" y="155.6" style="fill:#E6E9EE;" width="38.9" height="17.8"/>
	<rect x="308.4" y="155.6" style="fill:#E6E9EE;" width="38.9" height="17.8"/>
</g>
<path style="fill:#2C9984;" d="M45.6,396.6C91.2,461.5,166.6,504,252,504s160.8-42.5,206.4-107.4H45.6z"/>
<path style="fill:#324A5E;" d="M409.2,396.6H94.8l0,0c0-15.2,12.4-27.6,27.6-27.6h259.2C396.8,369,409.2,381.4,409.2,396.6
	L409.2,396.6z"/>
<path style="fill:#2B3B4E;" d="M325.8,315.9V369H178.3v-53.1c0-40.7,33.1-73.7,73.7-73.7S325.8,275.2,325.8,315.9z"/>
<path style="fill:#ACB3BA;" d="M325.7,369H306v-53.1c0-29.8-24.2-54-54-54s-54,24.2-54,54V369h-19.7v-53.1
	c0-40.7,33.1-73.7,73.7-73.7c40.7,0,73.7,33.1,73.7,73.7V369z"/>
<path style="fill:#54C0EB;" d="M325.8,315.9V369h-19.7v-53.1c0-29.8-24.3-54.1-54.1-54.1s-54.1,24.3-54.1,54.1V369h-19.7v-53.1
	c0-40.7,33.1-73.7,73.7-73.7C292.6,242.2,325.8,275.2,325.8,315.9z"/>
<path style="fill:#324A5E;" d="M374.7,155.6H135.9c-17.5,0-31.7-14.2-31.7-31.7l0,0h302.2l0,0C406.4,141.4,392.2,155.6,374.7,155.6z
	"/>
<path style="fill:#FF7058;" d="M219.7,355.3c6.4,9.9,19.5,12.9,31.2,13.6c8.9,0.5,18.8-0.2,25.1-6.4c7.8-7.6,7.2-20,6.2-30.9
	c-1-10.8-1.4-23.3,6.6-30.7c-4.3-2.1-9.7,1-12,5.3s-3,9.3-3,14.1c-0.2,19.2-9.7,19.1-11.8,19.6c3.2,0.4,5-3.7,5.2-7
	c0.3-5.6-0.8-11.3-3.2-16.4c-2-4.2-4.9-8-6.6-12.4s-2-9.7,0.9-13.4c2.3-2.9,6.8-5.5,5.6-9c-8.6,0.1-16.9,5.1-21,12.6
	s-3.9,17.2,0.6,24.5c1.4,2.3,3.3,4.4,4.6,6.8c4,7.4,2.1,17.5-4.3,22.9c4.1-2.8,1.9-9.6-2.1-12.5s-9.3-3.9-13-7.2
	c-3.7-3.3-5.2-8.4-5.3-13.4c-0.2-9.1,4.1-18.1,11.3-23.6c-7.9,1.2-14,8-16.8,15.4c-2.8,7.5-2.8,15.7-2.8,23.6
	C215.1,339.4,215.2,348.3,219.7,355.3z"/>
<path style="fill:#FFD05B;" d="M252.8,319.9c0,4.2,0,8.4,0,12.6c0,2.6,0,5.3-0.8,7.8c-0.7,2.1-1.9,4-3.1,5.8
	c-1.6,2.4-3.2,4.7-5.4,6.5s-5,3.1-7.8,2.9c1.3-2.1,1.3-4.7,1.3-7.2c0-1.7,0-3.4-0.6-5s-1.7-3-2.9-4.3c-3.2-3.5-7.2-6.3-10.3-9.9
	s-5.4-8.4-4.3-13.1c-0.4,7.5-0.8,15.2,1.5,22.3c1.7,5.5,5,10.5,8.2,15.3c1.7,2.5,3.5,5.1,5.8,7.1c4.4,3.7,10.5,4.9,16.3,5.2
	c2.4,0.1,4.8,0.1,7.1-0.4c4.6-1.1,8.4-4.2,12-7.2c0.9-0.7,1.8-1.5,2.6-2.3c4.6-5,4.8-12.6,4.8-19.4c0-4.2-0.1-8.5-0.1-12.7
	c0-3.8-0.1-7.7,0.9-11.4c1-3.7,3.1-7.3,6.4-9.2c-3.4,1.8-6.9,3.9-8.5,7.3c-1.2,2.6-1.1,5.6-1.2,8.5c-0.2,5.5-1,11-2.6,16.3
	c-1,3.4-2.5,6.9-5.3,9.2c-1.7,1.4-3.8,2.2-5.9,3c-3.7,1.3-7.5,2.5-11.4,3.4c4.2-2.5,7.3-6.7,9.1-11.2c1.8-4.6,2.5-9.5,2.7-14.4
	c0.1-2.4,0.2-4.9-0.5-7.3c-0.7-2.2-2-4.1-3.2-6c-2.2-3.3-4.6-6.7-8-8.5c1.1,2.8,2.3,5.7,2.8,8.7
	C252.8,314.8,252.8,317.4,252.8,319.9z"/>
<g>
</g>
<g>
</g>
<g>
</g>
<g>
</g>
<g>
</g>
<g>
</g>
<g>
</g>
<g>
</g>
<g>
</g>
<g>
</g>
<g>
</g>
<g>
</g>
<g>
</g>
<g>
</g>
<g>
</g>
</svg>
