<?xml version="1.0" encoding="iso-8859-1"?>
<!-- Generator: Adobe Illustrator 19.0.0, SVG Export Plug-In . SVG Version: 6.00 Build 0)  -->
<svg version="1.1" id="Layer_1" xmlns="http://www.w3.org/2000/svg" xmlns:xlink="http://www.w3.org/1999/xlink" x="0px" y="0px"
	 viewBox="0 0 504 504" style="enable-background:new 0 0 504 504;" xml:space="preserve">
<circle style="fill:#FFD05B;" cx="252" cy="252" r="252"/>
<path style="fill:#324A5E;" d="M144.1,327.5H63c0-1.8-1.5-3.3-3.3-3.3V179.8c1.8,0,3.3-1.5,3.3-3.3h81.1c0,1.8,1.5,3.3,3.3,3.3
	v144.5C145.6,324.2,144.1,325.7,144.1,327.5z"/>
<path style="fill:#E6E9EE;" d="M441,327.5H150.6c0-1.8-1.5-3.3-3.3-3.3V179.8c1.8,0,3.3-1.5,3.3-3.3H441c0,1.8,1.5,3.3,3.3,3.3
	v144.5C442.4,324.2,441,325.7,441,327.5z"/>
<g>
	<rect x="188.7" y="246.2" style="fill:#ACB3BA;" width="214.1" height="1.4"/>
	<rect x="188.7" y="264.7" style="fill:#ACB3BA;" width="214.1" height="1.4"/>
	<rect x="188.7" y="283.2" style="fill:#ACB3BA;" width="214.1" height="1.4"/>
	<rect x="188.7" y="301.8" style="fill:#ACB3BA;" width="214.1" height="1.4"/>
</g>
<g>
	<polygon style="fill:#FF7058;" points="212.9,203.2 222,203.2 222,229.3 229.3,229.3 229.3,203.2 238.4,203.2 238.4,196.9 
		212.9,196.9 	"/>
	<rect x="243.7" y="196.9" style="fill:#FF7058;" width="7.2" height="32.3"/>
	<path style="fill:#FF7058;" d="M274.2,203.1c3.4,0,6.2,1.4,8.5,4.3l4.5-5.1c-3.6-4-8-6.1-13.3-6.1c-4.8,0-8.8,1.6-12.1,4.8
		c-3.3,3.2-4.9,7.2-4.9,12s1.6,8.8,4.8,11.9c3.2,3.1,7.3,4.7,12.3,4.7s9.3-2.1,13-6.2l-4.6-4.8c-2.3,2.8-5.2,4.2-8.7,4.2
		c-2.6,0-4.8-0.9-6.6-2.7c-1.8-1.8-2.7-4.2-2.7-7.2s1-5.4,2.9-7.2C269.2,204,271.5,203.1,274.2,203.1z"/>
	<path style="fill:#FF7058;" d="M312.2,196.9L300,210.2v-13.3h-7.2v32.3h7.2V220l3.2-3.6l9.5,12.8h8.4c-1.5-2.1-3.7-5.2-6.7-9.4
		s-5-7.1-6.2-8.6l12.9-14.3H312.2z"/>
	<polygon style="fill:#FF7058;" points="332.8,216.2 347.3,216.2 347.3,210 332.8,210 332.8,203.3 348.9,203.3 348.9,196.9 
		325.6,196.9 325.6,229.3 349.4,229.3 349.4,222.9 332.8,222.9 	"/>
	<polygon style="fill:#FF7058;" points="353.2,196.9 353.2,203.2 362.3,203.2 362.3,229.3 369.5,229.3 369.5,203.2 378.7,203.2 
		378.7,196.9 	"/>
</g>
<g>
</g>
<g>
</g>
<g>
</g>
<g>
</g>
<g>
</g>
<g>
</g>
<g>
</g>
<g>
</g>
<g>
</g>
<g>
</g>
<g>
</g>
<g>
</g>
<g>
</g>
<g>
</g>
<g>
</g>
</svg>
