<?xml version="1.0" encoding="iso-8859-1"?>
<!-- Generator: Adobe Illustrator 19.0.0, SVG Export Plug-In . SVG Version: 6.00 Build 0)  -->
<svg version="1.1" id="Layer_1" xmlns="http://www.w3.org/2000/svg" xmlns:xlink="http://www.w3.org/1999/xlink" x="0px" y="0px"
	 viewBox="0 0 504 504" style="enable-background:new 0 0 504 504;" xml:space="preserve">
<circle style="fill:#90DFAA;" cx="252" cy="252" r="252"/>
<g>
	<rect x="315.9" y="404" style="fill:#324A5E;" width="49.5" height="17.4"/>
	<rect x="138.5" y="404" style="fill:#324A5E;" width="49.5" height="17.4"/>
</g>
<path style="fill:#FFFFFF;" d="M401.2,408.6H102.8c-2.5,0-4.6-2-4.6-4.6V105.6c0-2.5,2-4.6,4.6-4.6h298.5c2.5,0,4.6,2,4.6,4.6v298.5
	C405.8,406.6,403.7,408.6,401.2,408.6z"/>
<rect x="128.9" y="131.7" style="fill:#E6E9EE;" width="246.2" height="246.2"/>
<circle style="fill:#ACB3BA;" cx="308" cy="254.8" r="44.2"/>
<circle style="fill:#E6E9EE;" cx="308" cy="254.8" r="22"/>
<g>
	<path style="fill:#324A5E;" d="M308,227.9L308,227.9c-0.8,0-1.5-0.7-1.5-1.5v-8.8c0-0.8,0.7-1.5,1.5-1.5l0,0c0.8,0,1.5,0.7,1.5,1.5
		v8.8C309.5,227.2,308.8,227.9,308,227.9z"/>
	<path style="fill:#324A5E;" d="M308,293.5L308,293.5c-0.8,0-1.5-0.7-1.5-1.5v-8.8c0-0.8,0.7-1.5,1.5-1.5l0,0c0.8,0,1.5,0.7,1.5,1.5
		v8.8C309.5,292.9,308.8,293.5,308,293.5z"/>
	<path style="fill:#324A5E;" d="M281.1,254.8L281.1,254.8c0,0.8-0.7,1.5-1.5,1.5h-8.8c-0.8,0-1.5-0.7-1.5-1.5l0,0
		c0-0.8,0.7-1.5,1.5-1.5h8.8C280.4,253.4,281.1,254,281.1,254.8z"/>
	<path style="fill:#324A5E;" d="M346.7,254.8L346.7,254.8c0,0.8-0.7,1.5-1.5,1.5h-8.8c-0.8,0-1.5-0.7-1.5-1.5l0,0
		c0-0.8,0.7-1.5,1.5-1.5h8.8C346,253.4,346.7,254,346.7,254.8z"/>
	<path style="fill:#324A5E;" d="M289,235.8L289,235.8c-0.6,0.6-1.5,0.6-2.1,0l-6.2-6.2c-0.6-0.6-0.6-1.5,0-2.1l0,0
		c0.6-0.6,1.5-0.6,2.1,0l6.2,6.2C289.5,234.3,289.5,235.2,289,235.8z"/>
	<path style="fill:#324A5E;" d="M335.4,282.2L335.4,282.2c-0.6,0.6-1.5,0.6-2.1,0L327,276c-0.6-0.6-0.6-1.5,0-2.1l0,0
		c0.6-0.6,1.5-0.6,2.1,0l6.2,6.2C335.9,280.7,335.9,281.6,335.4,282.2z"/>
	<path style="fill:#324A5E;" d="M289,273.9L289,273.9c0.6,0.6,0.6,1.5,0,2.1l-6.2,6.2c-0.6,0.6-1.5,0.6-2.1,0l0,0
		c-0.6-0.6-0.6-1.5,0-2.1l6.2-6.2C287.4,273.3,288.4,273.3,289,273.9z"/>
	<path style="fill:#324A5E;" d="M335.4,227.5L335.4,227.5c0.6,0.6,0.6,1.5,0,2.1l-6.2,6.2c-0.6,0.6-1.5,0.6-2.1,0l0,0
		c-0.6-0.6-0.6-1.5,0-2.1l6.2-6.2C333.9,226.9,334.8,226.9,335.4,227.5z"/>
</g>
<path style="fill:#ACB3BA;" d="M167.1,343.2L167.1,343.2c-2.8,0-5.1-2.3-5.1-5.1V172c0-2.8,2.3-5.1,5.1-5.1l0,0
	c2.8,0,5.1,2.3,5.1,5.1v166.1C172.2,340.9,170,343.2,167.1,343.2z"/>
<g>
</g>
<g>
</g>
<g>
</g>
<g>
</g>
<g>
</g>
<g>
</g>
<g>
</g>
<g>
</g>
<g>
</g>
<g>
</g>
<g>
</g>
<g>
</g>
<g>
</g>
<g>
</g>
<g>
</g>
</svg>
