<?xml version="1.0" encoding="iso-8859-1"?>
<!-- Generator: Adobe Illustrator 19.0.0, SVG Export Plug-In . SVG Version: 6.00 Build 0)  -->
<svg version="1.1" id="Layer_1" xmlns="http://www.w3.org/2000/svg" xmlns:xlink="http://www.w3.org/1999/xlink" x="0px" y="0px"
	 viewBox="0 0 504 504" style="enable-background:new 0 0 504 504;" xml:space="preserve">
<circle style="fill:#FFD05B;" cx="252" cy="252" r="252"/>
<path style="fill:#F9B54C;" d="M49.8,402.4C95.7,464.1,169.2,504,252,504s156.3-39.9,202.2-101.6H49.8z"/>
<rect x="272.73" y="60.716" transform="matrix(-0.7071 -0.7071 0.7071 -0.7071 390.18 393.9492)" style="fill:#E6E9EE;" width="7.9" height="110.899"/>
<circle style="fill:#FFFFFF;" cx="315.3" cy="78" r="10"/>
<rect x="181.889" y="60.808" transform="matrix(0.7071 -0.7071 0.7071 0.7071 -27.7757 165.4592)" style="fill:#E6E9EE;" width="7.9" height="110.899"/>
<circle style="fill:#FFFFFF;" cx="147.2" cy="78" r="10"/>
<path style="fill:#ACB3BA;" d="M260.7,172.3h-58.9l5.4-13.5c3.9-9.9,13.5-16.4,24.1-16.4l0,0c10.6,0,20.2,6.5,24.1,16.4L260.7,172.3
	z"/>
<rect x="112.4" y="372.6" style="fill:#2B3B4E;" width="279.3" height="28.6"/>
<path style="fill:#324A5E;" d="M415.2,382H88.8c-1.9,0-3.5-1.6-3.5-3.5V168.2c0-1.9,1.6-3.5,3.5-3.5h326.4c1.9,0,3.5,1.6,3.5,3.5
	v210.3C418.7,380.4,417.1,382,415.2,382z"/>
<rect x="100.6" y="182" style="fill:#2B3B4E;" width="251.4" height="181.5"/>
<path style="fill:#E6E9EE;" d="M340.6,355.9H111.9c-1.9,0-3.4-1.5-3.4-3.4V192.9c0-1.9,1.5-3.4,3.4-3.4h228.7c1.9,0,3.4,1.5,3.4,3.4
	v159.7C344,354.4,342.5,355.9,340.6,355.9z"/>
<path style="fill:#FF7058;" d="M320,189.5H121.8c-7.3,0-13.2,5.9-13.2,13.2v140c0,7.3,5.9,13.2,13.2,13.2H320V189.5z"/>
<path style="fill:#FFD05B;" d="M287.3,189.5H121.8c-7.3,0-13.2,5.9-13.2,13.2v140c0,7.3,5.9,13.2,13.2,13.2h165.5V189.5z"/>
<path style="fill:#FFFFFF;" d="M252,189.5H121.8c-7.3,0-13.2,5.9-13.2,13.2v140c0,7.3,5.9,13.2,13.2,13.2H252V189.5z"/>
<path style="fill:#FF7058;" d="M213.5,189.5h-91.7c-7.3,0-13.2,5.9-13.2,13.2v140c0,7.3,5.9,13.2,13.2,13.2h91.7V189.5z"/>
<path style="fill:#4CDBC4;" d="M180.2,189.5h-58.5c-7.3,0-13.2,5.9-13.2,13.2v140c0,7.3,5.9,13.2,13.2,13.2h58.5V189.5z"/>
<path style="fill:#E6E9EE;" d="M145.4,189.5h-23.6c-7.3,0-13.2,5.9-13.2,13.2v140c0,7.3,5.9,13.2,13.2,13.2h23.6V189.5z"/>
<g>
	<circle style="fill:#CED5E0;" cx="385.3" cy="201.2" r="19.2"/>
	<circle style="fill:#CED5E0;" cx="385.3" cy="247.1" r="19.2"/>
</g>
<g>
	<rect x="360.3" y="274.4" style="fill:#2B3B4E;" width="50" height="4.5"/>
	<rect x="360.3" y="286.5" style="fill:#2B3B4E;" width="50" height="4.5"/>
	<rect x="360.3" y="298.6" style="fill:#2B3B4E;" width="50" height="4.5"/>
	<rect x="360.3" y="310.7" style="fill:#2B3B4E;" width="50" height="4.5"/>
	<rect x="360.3" y="322.8" style="fill:#2B3B4E;" width="50" height="4.5"/>
	<rect x="360.3" y="334.8" style="fill:#2B3B4E;" width="50" height="4.5"/>
	<rect x="360.3" y="346.9" style="fill:#2B3B4E;" width="50" height="4.5"/>
	<rect x="360.3" y="359" style="fill:#2B3B4E;" width="50" height="4.5"/>
</g>
<g>
</g>
<g>
</g>
<g>
</g>
<g>
</g>
<g>
</g>
<g>
</g>
<g>
</g>
<g>
</g>
<g>
</g>
<g>
</g>
<g>
</g>
<g>
</g>
<g>
</g>
<g>
</g>
<g>
</g>
</svg>
