<?xml version="1.0" encoding="iso-8859-1"?>
<!-- Generator: Adobe Illustrator 19.0.0, SVG Export Plug-In . SVG Version: 6.00 Build 0)  -->
<svg version="1.1" id="Layer_1" xmlns="http://www.w3.org/2000/svg" xmlns:xlink="http://www.w3.org/1999/xlink" x="0px" y="0px"
	 viewBox="0 0 504 504" style="enable-background:new 0 0 504 504;" xml:space="preserve">
<circle style="fill:#FD8469;" cx="252" cy="252" r="252"/>
<g>
	<polygon style="fill:#324A5E;" points="105.3,133 101.7,136.6 120.8,161.2 129.5,152.7 	"/>
	<polygon style="fill:#324A5E;" points="398.7,133 402.3,136.6 383.2,161.2 374.5,152.7 	"/>
	<path style="fill:#324A5E;" d="M117.6,149.5c0,0,0.9-1,2.4-2.9c1.6-1.9,3.9-4.7,7-8.2c0.8-0.9,1.6-1.8,2.4-2.8
		c0.4-0.5,0.9-1,1.3-1.5l0.3-0.4c0,0-0.2,0.2-0.1,0.1l0,0l0.1-0.1l0.2-0.2c0.2-0.3,0.4-0.5,0.7-0.8c0.5-0.7,1.1-1.6,1.7-2.6
		c0.6-1,1.1-2,1.5-3.2c0.8-2.2,1.4-4.7,1.5-7.4c0-0.7,0-1.3,0-2c0-1,0-2,0-3.1c-0.1-0.8,0.1-2.4,0.3-3.7c0.1-0.7,0.1-1.4,0.3-2
		c0.1-0.6,0.3-1.2,0.4-1.9c1.1-5,3.4-10,6.7-14.6c3.3-4.5,7.7-8.5,13-11.4s11.5-4.7,17.8-5c0.9-0.1,1.4-0.1,2-0.1l1.8-0.1
		c1.2,0,2.4-0.1,3.6-0.1c2.4-0.1,4.9-0.1,7.4-0.2c5-0.1,10-0.2,15.1-0.3c5.1-0.1,10.3-0.1,15.5-0.2c10.4-0.1,21-0.2,31.5-0.2
		c10.6,0,21.1,0,31.5,0.2c10.4,0.1,20.6,0.3,30.5,0.5c2.5,0.1,4.9,0.1,7.4,0.2c1.2,0,2.4,0.1,3.6,0.1h1.8h0.9h0.2c1.1,0,0.4,0,0.7,0
		h0.1h0.4L331,76h0.4c0.1,0,0.3,0,0.5,0.1l1.3,0.2c0.9,0.1,1.8,0.3,2.6,0.5c0.9,0.2,1.5,0.4,2.3,0.6s1.5,0.4,2.2,0.7
		c0.7,0.3,1.4,0.6,2.2,0.8c1.5,0.5,2.8,1.3,4.1,2c5.3,2.9,9.7,6.9,13.1,11.4c3.3,4.5,5.5,9.6,6.7,14.6c0.3,1.3,0.6,2.5,0.7,3.8
		c0.1,1.2,0.3,2.5,0.3,3.7c0,0.6,0,1.2,0,1.8v0.9v0.1c0-0.4,0-0.1,0-0.1v0.2v0.3c0,1.1,0,1.4,0,2c0.1,2.6,0.6,5.1,1.5,7.3
		c0.4,1.1,0.9,2.2,1.5,3.2s1.2,1.9,1.8,2.7c0.2,0.2,0.3,0.4,0.5,0.6l0.2,0.3l0.3,0.4c0.4,0.5,0.9,1,1.3,1.5c0.8,1,1.6,1.9,2.4,2.8
		c3.1,3.5,5.4,6.3,7,8.2s2.4,2.9,2.4,2.9c2,2.4,1.7,6-0.7,8.1c-2.2,1.8-5.2,1.7-7.3,0c0,0-1-0.8-2.9-2.4c-1.9-1.6-4.7-3.9-8.2-7
		c-0.9-0.8-1.8-1.6-2.8-2.4c-0.5-0.4-1-0.8-1.5-1.3l-0.4-0.3l-0.5-0.4c-0.3-0.3-0.6-0.6-0.9-0.9c-2.5-2.4-4.8-5.5-6.7-9
		c-1.9-3.6-3.4-7.7-4.1-12.3c-0.2-1.1-0.3-2.7-0.4-3.5v-0.3v-0.2c0-0.1,0,0.2,0-0.3v-0.1l-0.1-0.5c0-0.3-0.1-0.7-0.1-1
		c0-0.7-0.2-1.3-0.4-2c-0.1-0.7-0.4-1.3-0.6-2c-0.9-2.6-2.3-5.2-4.3-7.4c-1.9-2.2-4.4-4.1-7.1-5.3c-0.7-0.3-1.4-0.6-2.1-0.8
		l-1.1-0.4c-0.4-0.1-0.8-0.2-1.1-0.2c-0.4-0.1-0.8-0.2-1.1-0.2c-0.3,0-0.6,0-0.9-0.1l-0.4-0.1c0,0-0.2,0-0.3,0h-0.4h-1.8
		c-4.6,0.1-9.3,0.2-14.1,0.3c-9.9,0.2-20.1,0.4-30.5,0.5s-21,0.1-31.5,0.2c-10.6,0-21.1-0.1-31.5-0.2c-5.2-0.1-10.4-0.1-15.5-0.2
		s-10.1-0.2-15.1-0.3c-4.9-0.1-9.7-0.2-14.4-0.3c-3.2-0.1-6.2,0.6-9,1.8c-5.6,2.5-9.7,7.5-11.4,12.7l-0.3,1
		c-0.1,0.3-0.1,0.6-0.2,0.8c-0.1,0.6-0.3,0.9-0.4,2c-0.1,0.9-0.2,1.7-0.3,2.5c-0.1,1.2-0.2,2.4-0.4,3.5c-0.7,4.6-2.2,8.7-4.1,12.3
		c-1,1.8-2,3.4-3.1,5c-1.1,1.5-2.3,2.8-3.7,4.2c-0.3,0.2-0.5,0.5-0.8,0.7l-0.2,0.2l-0.1,0.1l0,0l-0.2,0.2l-0.4,0.3
		c-0.5,0.4-1,0.9-1.5,1.3c-1,0.8-1.9,1.6-2.8,2.4c-3.5,3.1-6.3,5.4-8.2,7s-2.9,2.4-2.9,2.4c-2.4,2-6,1.7-8.1-0.7
		C115.8,154.7,115.9,151.6,117.6,149.5z"/>
	
		<rect x="120.329" y="171.52" transform="matrix(0.7071 0.7071 -0.7071 0.7071 169.2722 -52.0191)" style="fill:#324A5E;" width="54.199" height="13.6"/>
</g>
<path style="fill:#FFD05B;" d="M119.4,151.2c17-17,44.4-17,61.4,0l-61.4,61.4C102.4,195.6,102.4,168.1,119.4,151.2z"/>
<rect x="329.39" y="171.535" transform="matrix(-0.7071 0.7071 -0.7071 -0.7071 734.668 52.3601)" style="fill:#324A5E;" width="54.199" height="13.6"/>
<path style="fill:#FFD05B;" d="M384.6,151.2c-17-17-44.4-17-61.4,0l61.4,61.4C401.6,195.6,401.6,168.1,384.6,151.2z"/>
<rect x="243.1" y="139.6" style="fill:#2B3B4E;" width="17.8" height="23.7"/>
<path style="fill:#E6E9EE;" d="M268,131.6h-32c-3.6,0-6.6,3-6.6,6.6l0,0c0,3.6,3,6.6,6.6,6.6h32c3.6,0,6.6-3,6.6-6.6l0,0
	C274.6,134.5,271.6,131.6,268,131.6z"/>
<g>
	<polygon style="fill:#324A5E;" points="333.7,415.4 325.5,421.1 285.7,375.1 305.3,361.7 	"/>
	<circle style="fill:#324A5E;" cx="330.1" cy="419" r="10.2"/>
	<polygon style="fill:#324A5E;" points="170.3,415.4 178.5,421.1 218.3,375.1 198.7,361.7 	"/>
	<circle style="fill:#324A5E;" cx="173.9" cy="419" r="10.2"/>
</g>
<circle style="fill:#54C0EB;" cx="252" cy="282.7" r="126.1"/>
<circle style="fill:#FFFFFF;" cx="252" cy="282.7" r="107.9"/>
<g>
	<circle style="fill:#324A5E;" cx="252" cy="189.5" r="6.9"/>
	<circle style="fill:#324A5E;" cx="252" cy="375.8" r="6.9"/>
	<circle style="fill:#324A5E;" cx="345.1" cy="282.7" r="6.9"/>
	<circle style="fill:#324A5E;" cx="158.9" cy="282.7" r="6.9"/>
	<circle style="fill:#324A5E;" cx="205.4" cy="202" r="6.9"/>
	<circle style="fill:#324A5E;" cx="298.6" cy="363.3" r="6.9"/>
	<circle style="fill:#324A5E;" cx="332.7" cy="236.1" r="6.9"/>
	<circle style="fill:#324A5E;" cx="171.3" cy="329.2" r="6.9"/>
	<circle style="fill:#324A5E;" cx="171.3" cy="236.1" r="6.9"/>
	<circle style="fill:#324A5E;" cx="332.7" cy="329.2" r="6.9"/>
	<circle style="fill:#324A5E;" cx="298.6" cy="202" r="6.9"/>
	<circle style="fill:#324A5E;" cx="205.4" cy="363.3" r="6.9"/>
</g>
<rect id="SVGCleanerId_0" x="249.8" y="222.9" style="fill:#F9B54C;" width="4.4" height="58.9"/>
<path id="SVGCleanerId_1" style="fill:#FFD05B;" d="M252,209.5L252,209.5C252,209.4,252,209.4,252,209.5
	C252,209.4,252,209.4,252,209.5L252,209.5c-2.1,4-5.9,17.2-12.3,22.4L252,228l0,0l12.3,3.9C257.9,226.7,254.1,213.4,252,209.5z"/>
<g>
	<rect id="SVGCleanerId_0_1_" x="249.8" y="222.9" style="fill:#F9B54C;" width="4.4" height="58.9"/>
</g>
<g>
	<path id="SVGCleanerId_1_1_" style="fill:#FFD05B;" d="M252,209.5L252,209.5C252,209.4,252,209.4,252,209.5
		C252,209.4,252,209.4,252,209.5L252,209.5c-2.1,4-5.9,17.2-12.3,22.4L252,228l0,0l12.3,3.9C257.9,226.7,254.1,213.4,252,209.5z"/>
</g>
<polygon style="fill:#F9B54C;" points="281,322.5 253.9,281.4 250.2,283.8 277.4,324.9 "/>
<path style="fill:#FFD05B;" d="M286.6,334.9L286.6,334.9L286.6,334.9L286.6,334.9L286.6,334.9c-0.4-4.5-4.6-17.6-2.1-25.5l-8.1,10
	l0,0L264,323C272.2,323.8,282.7,332.8,286.6,334.9z"/>
<polygon style="fill:#F9B54C;" points="252.8,283.5 200.3,334.4 251.2,281.9 "/>
<circle style="fill:#FFD05B;" cx="252" cy="282.7" r="9.7"/>
<g>
</g>
<g>
</g>
<g>
</g>
<g>
</g>
<g>
</g>
<g>
</g>
<g>
</g>
<g>
</g>
<g>
</g>
<g>
</g>
<g>
</g>
<g>
</g>
<g>
</g>
<g>
</g>
<g>
</g>
</svg>
