<?xml version="1.0" encoding="iso-8859-1"?>
<!-- Generator: Adobe Illustrator 19.0.0, SVG Export Plug-In . SVG Version: 6.00 Build 0)  -->
<svg version="1.1" id="Layer_1" xmlns="http://www.w3.org/2000/svg" xmlns:xlink="http://www.w3.org/1999/xlink" x="0px" y="0px"
	 viewBox="0 0 504 504" style="enable-background:new 0 0 504 504;" xml:space="preserve">
<circle style="fill:#FD8469;" cx="252" cy="252" r="252"/>
<path style="fill:#E6E9EE;" d="M287.1,320.2L265,352.7c-9.6,14.1-29.6,16-41.6,4l-76.2-76.2c-12-12-10.1-32.1,4-41.6l32.6-22.1
	c9.4-6.4,10.7-19.8,2.6-27.8l-57.1-57.1c-7-7-18.4-7.2-25.4-0.2l-0.1,0.1c-0.3,0.3-0.7,0.7-1,1.1c-50.3,51-48.6,133.6,2,184.2
	l83.1,83.1c50.7,50.7,133.1,51.2,184,0.7c0.2-0.2,0.3-0.3,0.5-0.5l0.1-0.1c7-7,6.7-18.4-0.3-25.4l-57.1-57.1
	C306.9,309.5,293.5,310.8,287.1,320.2z"/>
<g>
	<path style="fill:#ACB3BA;" d="M287.1,320.2l-6.4,9.5l80.4,80.4c3.7-2.9,7.2-6,10.6-9.4c0.2-0.2,0.3-0.3,0.5-0.5l0.1-0.1
		c7-7,6.7-18.4-0.3-25.4l-57.1-57.1C306.9,309.5,293.5,310.8,287.1,320.2z"/>
	<path style="fill:#ACB3BA;" d="M103.8,131.6l-0.1,0.1c-0.3,0.3-0.7,0.7-1,1.1c-3.2,3.2-6.1,6.6-8.9,10l80.4,80.4l9.5-6.4
		c9.4-6.4,10.7-19.8,2.6-27.8l-57.1-57.1C122.2,124.8,110.8,124.6,103.8,131.6z"/>
</g>
<g>
	<path style="fill:#324A5E;" d="M254.9,157.3c2.8-4,4.2-7.8,4.2-11.5s-1.2-6.8-3.7-9.3c-2.4-2.5-5.5-3.7-9.4-3.7
		c-7,0-13.6,5-19.8,14.9L206.4,136c5.2-8,10.9-14.1,17-18.2c6.2-4.1,14.1-6.2,23.6-6.2c9.6,0,18,3,25.2,9.1s10.9,14.4,10.9,24.8
		c0,5.7-1.5,11.2-4.4,16.4s-8.3,11.9-16.1,20.1l-20,20.8h43.8V225h-78.2v-18.4l32.5-33.3C247.5,166.5,252.1,161.2,254.9,157.3z"/>
	<path style="fill:#324A5E;" d="M345.4,177v-19.3h23.8V177h12.5v21.4h-12.5v26.5h-23.8v-26.5h-44.6v-18.9l39.5-65.5h27l-37.6,63
		H345.4z"/>
</g>
<g>
	<polygon style="fill:#FFFFFF;" points="246.7,262.6 223.9,262.6 223.9,238.6 211.1,238.6 211.1,296 223.9,296 223.9,273.4 
		246.7,273.4 246.7,296 259.5,296 259.5,238.6 246.7,238.6 	"/>
	<path style="fill:#FFFFFF;" d="M320.1,257.7c0-6.7-1.9-11.5-5.7-14.5c-3.8-3-10.2-4.5-19.1-4.5h-21.7V296h12.8v-18.3h8.9L308,296
		h15.8l-14.5-20.5C316.5,272.8,320.1,266.9,320.1,257.7z M304.7,264.5c-1.6,1.4-4.6,2.1-8.9,2.1h-9.4v-17h9.6c4.1,0,7,0.6,8.6,1.7
		s2.5,3.3,2.5,6.4C307.1,260.8,306.3,263.1,304.7,264.5z"/>
	<path style="fill:#FFFFFF;" d="M370.2,267.6c-3-2.7-7.2-4.7-12.7-6c-5.4-1.3-8.9-2.5-10.4-3.5s-2.3-2.3-2.3-4s0.6-3,1.8-4
		c1.2-1,2.9-1.5,5-1.5c5.3,0,10.4,1.9,15.4,5.7l6.5-9.4c-2.8-2.4-6.2-4.3-10-5.6s-7.7-2-11.5-2c-5.9,0-10.7,1.5-14.6,4.4
		c-3.9,3-5.9,7.2-5.9,12.6c0,5.4,1.5,9.4,4.6,12c3.1,2.5,8,4.6,14.7,6.2c4.2,1,7,2.1,8.4,3.1s2.1,2.4,2.1,4.1s-0.7,3.1-2,4.1
		s-3.2,1.5-5.5,1.5c-5.2,0-11-2.7-17.1-8.1l-7.6,9.4c7.3,6.7,15.5,10.1,24.5,10.1c6.3,0,11.4-1.6,15.2-4.8c3.9-3.2,5.8-7.4,5.8-12.5
		C374.7,274.2,373.2,270.3,370.2,267.6z"/>
</g>
<g>
</g>
<g>
</g>
<g>
</g>
<g>
</g>
<g>
</g>
<g>
</g>
<g>
</g>
<g>
</g>
<g>
</g>
<g>
</g>
<g>
</g>
<g>
</g>
<g>
</g>
<g>
</g>
<g>
</g>
</svg>
