<?xml version="1.0" encoding="iso-8859-1"?>
<!-- Generator: Adobe Illustrator 19.0.0, SVG Export Plug-In . SVG Version: 6.00 Build 0)  -->
<svg version="1.1" id="Layer_1" xmlns="http://www.w3.org/2000/svg" xmlns:xlink="http://www.w3.org/1999/xlink" x="0px" y="0px"
	 viewBox="0 0 504 504" style="enable-background:new 0 0 504 504;" xml:space="preserve">
<circle style="fill:#324A5E;" cx="252" cy="252" r="252"/>
<rect x="250.794" y="80.788" transform="matrix(-0.7071 -0.7071 0.7071 -0.7071 345.2641 405.8884)" style="fill:#E6E9EE;" width="11.8" height="101.299"/>
<circle style="fill:#CED5E0;" cx="292.5" cy="95.6" r="18.3"/>
<rect x="134.436" y="125.499" transform="matrix(-0.7071 -0.7071 0.7071 -0.7071 223.0486 355.1869)" style="fill:#E6E9EE;" width="101.299" height="11.8"/>
<circle style="fill:#CED5E0;" cx="149.2" cy="95.6" r="18.3"/>
<g>
	<path style="fill:#F9B54C;" d="M388.9,381.3h-48.7c-0.8,0-1.4,0.6-1.4,1.4v26c0,0.8,0.6,1.4,1.4,1.4h48.7c0.8,0,1.4-0.6,1.4-1.4
		v-26C390.3,382,389.7,381.3,388.9,381.3z"/>
	<path style="fill:#F9B54C;" d="M171.7,381.3H123c-0.8,0-1.4,0.6-1.4,1.4v26c0,0.8,0.6,1.4,1.4,1.4h48.7c0.8,0,1.4-0.6,1.4-1.4v-26
		C173.1,382,172.5,381.3,171.7,381.3z"/>
</g>
<path style="fill:#FFD05B;" d="M396.3,386.1c-93.6,17.2-187.2,17.2-280.7,0c-13.1-2.4-24-12-28.6-25.1
	c-21.3-61.4-21.3-122.8,0-184.2c4.5-13.1,15.5-22.7,28.6-25.1c93.6-17.2,187.2-17.2,280.7,0c13.1,2.4,24,12,28.6,25.1
	c21.3,61.4,21.3,122.8,0,184.2C420.3,374.1,409.4,383.7,396.3,386.1z"/>
<path style="fill:#F9B54C;" d="M255.9,386c-44.1,0-88.8-4.1-132.8-12.2c-10-1.8-18.3-9.2-21.8-19.2c-19.7-56.8-19.7-114.4,0-171.3
	c3.5-10,11.8-17.4,21.8-19.2c44.1-8.1,88.8-12.2,132.8-12.2s88.8,4.1,132.8,12.2c10,1.8,18.3,9.2,21.8,19.2
	c19.7,56.8,19.7,114.4,0,171.3c-3.5,10-11.8,17.4-21.8,19.2C344.7,381.9,300,386,255.9,386z"/>
<path style="fill:#FFFFFF;" d="M228,373.9c-34.1,0-68.6-3.7-102.7-11c-7.7-1.6-14.2-8.3-16.9-17.3c-15.2-51-15.2-102.6,0-153.6
	c2.7-9,9.1-15.6,16.9-17.3c34.1-7.3,68.6-11,102.7-11s68.6,3.7,102.7,11c7.7,1.6,14.2,8.3,16.9,17.3c15.2,51,15.2,102.6,0,153.6
	c-2.7,9-9.1,15.6-16.9,17.3C296.7,370.2,262.1,373.9,228,373.9z"/>
<path style="fill:#CED5E0;" d="M228,366.4c-33.5,0-67.6-3.6-101.1-10.8c-5-1.1-9.3-5.7-11.2-12.1c-14.8-49.5-14.8-99.7,0-149.3
	c1.9-6.4,6.2-11,11.2-12.1c33.6-7.2,67.6-10.8,101.1-10.8s67.6,3.6,101.1,10.8c5,1.1,9.3,5.7,11.2,12.1c14.8,49.5,14.8,99.7,0,149.3
	c-1.9,6.4-6.2,11-11.2,12.1C295.6,362.8,261.6,366.4,228,366.4z"/>
<path style="fill:#FFFFFF;" d="M340.4,194.3c-1.9-6.4-6.2-11-11.2-12.1c-33.6-7.2-67.6-10.8-101.1-10.8c-33.2,0-66.8,3.6-100,10.6
	v173.8c33.2,7,66.8,10.6,100,10.6c33.5,0,67.6-3.6,101.1-10.8c5-1.1,9.3-5.7,11.2-12.1C355.2,294,355.2,243.8,340.4,194.3z"/>
<path style="fill:#4CDBC4;" d="M340.4,194.3c-1.9-6.4-6.2-11-11.2-12.1c-33.6-7.2-67.6-10.8-101.1-10.8c-24.5,0-49.3,2-74,5.8v183.4
	c24.7,3.8,49.4,5.8,74,5.8c33.5,0,67.6-3.6,101.1-10.8c5-1.1,9.3-5.7,11.2-12.1C355.2,294,355.2,243.8,340.4,194.3z"/>
<path style="fill:#E6E9EE;" d="M340.4,194.3c-1.9-6.4-6.2-11-11.2-12.1c-33.6-7.2-67.6-10.8-101.1-10.8c-15.4,0-31,0.8-46.6,2.3V364
	c15.6,1.5,31.1,2.3,46.6,2.3c33.5,0,67.6-3.6,101.1-10.8c5-1.1,9.3-5.7,11.2-12.1C355.2,294,355.2,243.8,340.4,194.3z"/>
<path style="fill:#FFFFFF;" d="M340.4,194.3c-1.9-6.4-6.2-11-11.2-12.1c-33.6-7.2-67.6-10.8-101.1-10.8c-3.7,0-7.5,0.1-11.3,0.2
	v194.7c3.8,0.1,7.5,0.2,11.3,0.2c33.5,0,67.6-3.6,101.1-10.8c5-1.1,9.3-5.7,11.2-12.1C355.2,294,355.2,243.8,340.4,194.3z"/>
<path style="fill:#FF7058;" d="M340.4,194.3c-1.9-6.4-6.2-11-11.2-12.1c-26.3-5.6-53-9-79.4-10.3v193.9c26.5-1.2,53.1-4.6,79.4-10.3
	c5-1.1,9.3-5.7,11.2-12.1C355.2,294,355.2,243.8,340.4,194.3z"/>
<path style="fill:#FFFFFF;" d="M340.4,194.3c-1.9-6.4-6.2-11-11.2-12.1c-15.6-3.3-31.2-5.9-46.9-7.7v188.7
	c15.7-1.8,31.3-4.3,46.9-7.7c5-1.1,9.3-5.7,11.2-12.1C355.2,294,355.2,243.8,340.4,194.3z"/>
<path style="fill:#4CDBC4;" d="M340.4,194.3c-1.9-6.4-6.2-11-11.2-12.1c-4.3-0.9-8.7-1.8-13-2.6v178.6c4.3-0.8,8.7-1.7,13-2.6
	c5-1.1,9.3-5.7,11.2-12.1C355.2,294,355.2,243.8,340.4,194.3z"/>
<circle style="fill:#E6E9EE;" cx="386.3" cy="203.2" r="17.9"/>
<g>
	<path style="fill:#CED5E0;" d="M374.6,195.9l19.1,19.1c-5.3,3.4-12.5,2.7-17.1-1.9C371.9,208.3,371.3,201.2,374.6,195.9z"/>
	<path style="fill:#CED5E0;" d="M396.1,193.4c4.7,4.7,5.3,11.8,1.9,17.2l-19.1-19.1C384.3,188.2,391.4,188.8,396.1,193.4z"/>
</g>
<circle style="fill:#E6E9EE;" cx="386.3" cy="252.2" r="17.9"/>
<g>
	<path style="fill:#CED5E0;" d="M374.6,244.9l19.1,19.1c-5.3,3.4-12.5,2.7-17.1-1.9C371.9,257.4,371.3,250.2,374.6,244.9z"/>
	<path style="fill:#CED5E0;" d="M396.1,242.5c4.7,4.7,5.3,11.8,1.9,17.2l-19.1-19.1C384.3,237.2,391.4,237.8,396.1,242.5z"/>
</g>
<g>
	<path style="fill:#FFD05B;" d="M379.6,304.9l28.2,28.2c0.7-2.1,1-4.3,1-6.6l-22.7-22.7C384,303.9,381.8,304.2,379.6,304.9z"/>
	<path style="fill:#FFD05B;" d="M363.7,326.3l22.7,22.7c2.2,0,4.4-0.4,6.6-1l-28.2-28.2C364.1,321.9,363.7,324.1,363.7,326.3z"/>
	<path style="fill:#FFD05B;" d="M402.2,310.5c-3-3-6.7-5-10.5-5.9l16.4,16.4C407.2,317.2,405.3,313.5,402.2,310.5z"/>
	<path style="fill:#FFD05B;" d="M370.3,342.4c3,3,6.7,5,10.5,5.9l-16.4-16.4C365.4,335.8,367.3,339.4,370.3,342.4z"/>
	<path style="fill:#FFD05B;" d="M366.1,316.3l30.3,30.3c1.6-0.8,3.1-1.8,4.5-3l-31.8-31.8C368,313.2,366.9,314.7,366.1,316.3z"/>
	<path style="fill:#FFD05B;" d="M371.6,309.3l31.8,31.8c1.2-1.4,2.2-2.9,3-4.5l-30.3-30.3C374.5,307.1,373,308.1,371.6,309.3z"/>
</g>
<g>
</g>
<g>
</g>
<g>
</g>
<g>
</g>
<g>
</g>
<g>
</g>
<g>
</g>
<g>
</g>
<g>
</g>
<g>
</g>
<g>
</g>
<g>
</g>
<g>
</g>
<g>
</g>
<g>
</g>
</svg>
