<?xml version="1.0" encoding="iso-8859-1"?>
<!-- Generator: Adobe Illustrator 19.0.0, SVG Export Plug-In . SVG Version: 6.00 Build 0)  -->
<svg version="1.1" id="Layer_1" xmlns="http://www.w3.org/2000/svg" xmlns:xlink="http://www.w3.org/1999/xlink" x="0px" y="0px"
	 viewBox="0 0 504 504" style="enable-background:new 0 0 504 504;" xml:space="preserve">
<circle style="fill:#FFD05B;" cx="252" cy="252" r="252"/>
<path style="fill:#E6E9EE;" d="M400.4,293.7H155.5c-1.2,0-2.2-1-2.2-2.2V129c0-1.2,1-2.2,2.2-2.2h244.9c1.2,0,2.2,1,2.2,2.2v162.6
	C402.6,292.8,401.6,293.7,400.4,293.7z"/>
<rect x="153.3" y="157" style="fill:#324A5E;" width="249.4" height="39.4"/>
<path style="fill:#84DBFF;" d="M348.5,377.2H103.6c-1.2,0-2.2-1-2.2-2.2V212.5c0-1.2,1-2.2,2.2-2.2h244.9c1.2,0,2.2,1,2.2,2.2V375
	C350.7,376.2,349.8,377.2,348.5,377.2z"/>
<path style="fill:#54C0EB;" d="M350.7,248.6v-29.7c0-4.8-3.9-8.7-8.7-8.7H110c-4.8,0-8.7,3.9-8.7,8.7v29.7H350.7z"/>
<path style="fill:#FFD05B;" d="M325,308.7h-43.5c-0.4,0-0.7-0.3-0.7-0.7v-36c0-0.4,0.3-0.7,0.7-0.7H325c0.4,0,0.7,0.3,0.7,0.7v36
	C325.7,308.4,325.4,308.7,325,308.7z"/>
<path style="fill:#F9B54C;" d="M317.3,279.1v-7.9h-0.9v7.9h-6.2c-1.5-2.1-3.9-3.3-6.5-3.5v-4.4h-0.9v4.4c-2.8,0.1-5.2,1.6-6.7,3.7
	h-8v-8.1h-0.9v8.1h-6.5v0.9h14.8c-0.6,1.2-0.9,2.5-0.9,3.9c0,1.1,0.2,2.1,0.6,3.1h-14.5v0.9h14.9c0.4,0.6,0.8,1.2,1.3,1.8
	c-0.9,1-1.6,2.1-2,3.5h-14.2v0.9h14.6c0.2,0,0.4-0.1,0.4-0.4c0.3-1.4,1.1-2.7,2.2-3.7c0.1-0.1,0.1-0.2,0.1-0.3
	c0-0.1-0.1-0.3-0.1-0.3c-1.5-1.4-2.4-3.4-2.4-5.5c0-4.2,3.4-7.7,7.7-7.7c2.6,0,4.8,1.2,6.3,3.3c0.1,0.1,0.2,0.2,0.4,0.2h15.8V279
	h-8.4V279.1z M287.2,308.7v-7.9h-6.5v-0.9h15.8c0.1,0,0.3,0.1,0.4,0.2c1.4,2.1,3.8,3.3,6.3,3.3c4.2,0,7.6-3.4,7.6-7.6
	c0-2.1-0.8-4-2.3-5.5c-0.1-0.1-0.1-0.2-0.1-0.3c0-0.1,0.1-0.3,0.1-0.3c1.1-1,1.8-2.3,2.1-3.7c0-0.2,0.2-0.3,0.4-0.3h14.6v0.9h-14.2
	c-0.3,1.3-1,2.5-1.9,3.5c0.4,0.4,0.8,0.9,1.1,1.4h15.1v0.9H311c0.5,1.1,0.8,2.3,0.8,3.5s-0.3,2.3-0.7,3.4h14.6v0.9h-7.9v8.6h-0.9
	v-8.6h-6.3c-1.4,2.4-3.9,4-6.9,4.2v4.4h-0.9v-4.4c-2.5-0.1-4.9-1.4-6.4-3.5h-8.2v7.9h-1V308.7z"/>
<path style="fill:#54C0EB;" d="M194.9,277.1l-0.4-0.4c-13.7-13.7-31.9-21.3-51.3-21.4h-2.4v0.1c-14.3,0.4-27.9,4.8-39.5,12.8v6
	c11.3-8.7,25.1-13.5,39.6-13.9c0.2,7.4,1.5,14.6,4,21.6c-8.7,5-17.4,11.6-25.8,19.5l-17.8-17.8v6.9l14.4,14.3
	c-5.3,5.4-10.2,11.2-14.4,17v8.7c4.8-7.6,10.8-15.2,17.8-22.3l20.8,20.8l-17.5,17.5c-6.2-5.9-13.3-10.5-21-13.8v5.3
	c6.4,3,12.3,7,17.6,12l-17.6,17.6v1.1c0,1.7,0.5,3.2,1.3,4.5l19.7-19.7c5.4,5.8,9.6,12.3,12.6,19.5c-3.3,1.8-6.6,3.3-9.8,4.4h16.6
	c-0.2-0.8-0.5-1.6-0.8-2.3c8.6-5,17.3-11.6,25.5-19.4l21.7,21.7h9.1c11.5-12.8,18-29.1,18.5-46.3h0.1v-2.4
	C215.9,309.2,208.5,291,194.9,277.1z M187.6,320.8c-7.3-3-14-7.3-20-12.8l25.4-25.4C198.5,290.4,196.5,304.6,187.6,320.8z
	 M164.2,304.6c-5.7-6.1-10.2-13-13.3-20.6c16.5-8.7,30.9-10.6,38.8-4.9L164.2,304.6z M147.9,260.4c1,0.1,2,0.2,3.1,0.3
	c1.1,0.1,2.3,0.3,3.5,0.5c1,0.2,2,0.3,2.9,0.6c1.2,0.2,2.3,0.6,3.5,0.9c0.9,0.2,1.9,0.5,2.8,0.8c1.1,0.4,2.2,0.8,3.4,1.2
	c0.9,0.3,1.8,0.6,2.6,1c1.1,0.5,2.2,1,3.3,1.6c0.8,0.4,1.7,0.8,2.5,1.2c1.1,0.6,2.2,1.3,3.3,2c0.4,0.2,0.7,0.4,1.1,0.7
	c-8.6-0.5-19.1,2.4-30.6,8.4c-2.1-6.2-3.3-12.7-3.5-19.2C146.4,260.3,147.2,260.3,147.9,260.4z M122.6,304.8
	c7.8-7.3,16-13.6,24.2-18.3c3.3,8,8.1,15.2,14.1,21.6l-17.5,17.5L122.6,304.8z M139.1,370.4c-3.2-7.5-7.7-14.4-13.3-20.5l17.6-17.6
	l19.8,19.8C155.4,359.3,147.3,365.6,139.1,370.4z M146.7,329l17.6-17.6c6.2,5.8,13.3,10.3,20.9,13.5c-4.9,8.1-11.2,16.2-18.7,23.8
	L146.7,329z M192.7,375l-22.8-22.9c7.8-8,14.6-16.7,19.8-25.4c6.8,2.4,13.9,3.7,21.2,4.1C210.5,347.3,204.1,362.9,192.7,375z
	 M192.2,322.5c6.1-11.2,9-21.5,8.7-29.9c0,0.1,0.1,0.2,0.2,0.4c0.7,1.1,1.4,2.2,2,3.4c0.4,0.8,0.8,1.6,1.2,2.4
	c0.6,1.1,1.1,2.2,1.6,3.4c0.4,0.8,0.6,1.7,1,2.6c0.4,1.1,0.8,2.3,1.2,3.4c0.3,0.9,0.5,1.9,0.7,2.8c0.3,1.2,0.6,2.3,0.9,3.5
	c0.2,0.9,0.4,1.9,0.5,2.9c0.2,1.2,0.4,2.3,0.5,3.5c0.1,1,0.2,2,0.2,3c0,0.7,0.1,1.5,0.1,2.2C204.5,325.8,198.2,324.5,192.2,322.5z"
	/>
<g>
	<path style="fill:#FFFFFF;" d="M119.8,347.2h4v10h-2.1v-8.1h-1.9V347.2z"/>
	<path style="fill:#FFFFFF;" d="M130,348.9c-0.6,0-1.1,0.2-1.4,0.6c-0.3,0.4-0.5,1-0.6,1.7c0.6-0.4,1.3-0.6,2-0.6
		c0.9,0,1.7,0.3,2.3,0.9s0.9,1.4,0.9,2.4s-0.3,1.8-1,2.4s-1.5,0.9-2.5,0.9c-0.7,0-1.3-0.1-1.8-0.4s-0.9-0.6-1.2-1.1
		c-0.6-0.9-0.9-2.1-0.9-3.5c0-0.9,0.1-1.7,0.3-2.4c0.2-0.7,0.5-1.2,0.9-1.6c0.8-0.8,1.7-1.2,2.8-1.2c0.5,0,0.9,0.1,1.3,0.2
		c0.4,0.1,0.7,0.3,1,0.4c0.2,0.1,0.5,0.3,0.8,0.5l-1.1,1.6c-0.1-0.1-0.1-0.1-0.3-0.2c-0.1-0.1-0.3-0.2-0.6-0.4
		C130.6,348.9,130.3,348.9,130,348.9z M129.7,352.5c-0.4,0-0.8,0.1-1.1,0.4s-0.4,0.6-0.4,1s0.1,0.8,0.4,1.1c0.3,0.3,0.6,0.4,1.1,0.4
		s0.8-0.1,1.1-0.4s0.4-0.6,0.4-1s-0.1-0.8-0.4-1.1C130.5,352.6,130.2,352.5,129.7,352.5z"/>
	<path style="fill:#FFFFFF;" d="M141.1,347.2v1.9h-3.9v1.7c0.3-0.1,0.6-0.1,1-0.1c1,0,1.8,0.3,2.5,0.9s1,1.4,1,2.3
		c0,1-0.4,1.8-1.1,2.4c-0.7,0.6-1.6,1-2.7,1c-1.4,0-2.5-0.5-3.4-1.5l1.2-1.6c0.1,0.1,0.2,0.2,0.3,0.3c0.1,0.1,0.4,0.3,0.8,0.5
		c0.4,0.2,0.8,0.3,1.1,0.3c0.4,0,0.7-0.1,1-0.3c0.3-0.2,0.4-0.6,0.4-1s-0.2-0.8-0.5-1s-0.7-0.4-1.2-0.4s-1.1,0.2-1.8,0.5l-0.9-1
		v-4.9L141.1,347.2L141.1,347.2z"/>
	<path style="fill:#FFFFFF;" d="M146.8,352.8v-1.7h2.1v1.7h1.1v1.9h-1v2.4h-2.1v-2.4h-4V353l3.6-5.9h2.4l-3.4,5.7H146.8z"/>
	<path style="fill:#FFFFFF;" d="M170.4,348.9c-0.6,0-1.1,0.2-1.4,0.6c-0.3,0.4-0.5,1-0.6,1.7c0.6-0.4,1.3-0.6,2-0.6
		c0.9,0,1.7,0.3,2.3,0.9s0.9,1.4,0.9,2.4s-0.3,1.8-1,2.4s-1.5,0.9-2.5,0.9c-0.7,0-1.3-0.1-1.8-0.4s-0.9-0.6-1.2-1.1
		c-0.6-0.9-0.9-2.1-0.9-3.5c0-0.9,0.1-1.7,0.3-2.4c0.2-0.7,0.5-1.2,0.9-1.6c0.8-0.8,1.7-1.2,2.8-1.2c0.5,0,0.9,0.1,1.3,0.2
		c0.4,0.1,0.7,0.3,1,0.4c0.2,0.1,0.5,0.3,0.8,0.5l-1.1,1.6c-0.1-0.1-0.1-0.1-0.3-0.2c-0.1-0.1-0.3-0.2-0.6-0.4
		C171,348.9,170.7,348.9,170.4,348.9z M170.1,352.5c-0.4,0-0.8,0.1-1.1,0.4s-0.4,0.6-0.4,1s0.1,0.8,0.4,1.1c0.3,0.3,0.6,0.4,1.1,0.4
		s0.8-0.1,1.1-0.4s0.4-0.6,0.4-1s-0.1-0.8-0.4-1.1C170.9,352.6,170.5,352.5,170.1,352.5z"/>
	<path style="fill:#FFFFFF;" d="M181.4,347.2v1.9h-3.9v1.7c0.3-0.1,0.6-0.1,1-0.1c1,0,1.8,0.3,2.5,0.9s1,1.4,1,2.3
		c0,1-0.4,1.8-1.1,2.4c-0.7,0.6-1.6,1-2.7,1c-1.4,0-2.5-0.5-3.4-1.5l1.2-1.6c0.1,0.1,0.2,0.2,0.3,0.3c0.1,0.1,0.4,0.3,0.8,0.5
		c0.4,0.2,0.8,0.3,1.1,0.3c0.4,0,0.7-0.1,1-0.3c0.3-0.2,0.4-0.6,0.4-1s-0.2-0.8-0.5-1s-0.7-0.4-1.2-0.4s-1.1,0.2-1.8,0.5l-0.9-1
		v-4.9L181.4,347.2L181.4,347.2z"/>
	<path style="fill:#FFFFFF;" d="M183.1,347.2h4v10H185v-8.1h-1.9V347.2z"/>
	<path style="fill:#FFFFFF;" d="M193.3,348.9c-0.6,0-1.1,0.2-1.4,0.6c-0.3,0.4-0.5,1-0.6,1.7c0.6-0.4,1.3-0.6,2-0.6
		c0.9,0,1.7,0.3,2.3,0.9s0.9,1.4,0.9,2.4s-0.3,1.8-1,2.4s-1.5,0.9-2.5,0.9c-0.7,0-1.3-0.1-1.8-0.4s-0.9-0.6-1.2-1.1
		c-0.6-0.9-0.9-2.1-0.9-3.5c0-0.9,0.1-1.7,0.3-2.4c0.2-0.7,0.5-1.2,0.9-1.6c0.8-0.8,1.7-1.2,2.8-1.2c0.5,0,0.9,0.1,1.3,0.2
		c0.4,0.1,0.7,0.3,1,0.4c0.2,0.1,0.5,0.3,0.8,0.5l-1.1,1.6c-0.1-0.1-0.1-0.1-0.3-0.2c-0.1-0.1-0.3-0.2-0.6-0.4
		C194,348.9,193.6,348.9,193.3,348.9z M193,352.5c-0.4,0-0.8,0.1-1.1,0.4s-0.4,0.6-0.4,1s0.1,0.8,0.4,1.1c0.3,0.3,0.6,0.4,1.1,0.4
		s0.8-0.1,1.1-0.4s0.4-0.6,0.4-1s-0.1-0.8-0.4-1.1C193.8,352.6,193.5,352.5,193,352.5z"/>
	<path style="fill:#FFFFFF;" d="M208.7,347.2h4v10h-2.1v-8.1h-1.9V347.2z"/>
	<path style="fill:#FFFFFF;" d="M218.9,348.9c-0.6,0-1.1,0.2-1.4,0.6c-0.3,0.4-0.5,1-0.6,1.7c0.6-0.4,1.3-0.6,2-0.6
		c0.9,0,1.7,0.3,2.3,0.9s0.9,1.4,0.9,2.4s-0.3,1.8-1,2.4s-1.5,0.9-2.5,0.9c-0.7,0-1.3-0.1-1.8-0.4s-0.9-0.6-1.2-1.1
		c-0.6-0.9-0.9-2.1-0.9-3.5c0-0.9,0.1-1.7,0.3-2.4c0.2-0.7,0.5-1.2,0.9-1.6c0.8-0.8,1.7-1.2,2.8-1.2c0.5,0,0.9,0.1,1.3,0.2
		c0.4,0.1,0.7,0.3,1,0.4c0.2,0.1,0.5,0.3,0.8,0.5l-1.1,1.6c-0.1-0.1-0.1-0.1-0.3-0.2c-0.1-0.1-0.3-0.2-0.6-0.4
		C219.6,348.9,219.2,348.9,218.9,348.9z M218.6,352.5c-0.4,0-0.8,0.1-1.1,0.4s-0.4,0.6-0.4,1s0.1,0.8,0.4,1.1
		c0.3,0.3,0.6,0.4,1.1,0.4s0.8-0.1,1.1-0.4s0.4-0.6,0.4-1s-0.1-0.8-0.4-1.1C219.4,352.6,219.1,352.5,218.6,352.5z"/>
	<path style="fill:#FFFFFF;" d="M230,347.2v1.9h-3.9v1.7c0.3-0.1,0.6-0.1,1-0.1c1,0,1.8,0.3,2.5,0.9s1,1.4,1,2.3
		c0,1-0.4,1.8-1.1,2.4c-0.7,0.6-1.6,1-2.7,1c-1.4,0-2.5-0.5-3.4-1.5l1.2-1.6c0.1,0.1,0.2,0.2,0.3,0.3c0.1,0.1,0.4,0.3,0.8,0.5
		c0.4,0.2,0.8,0.3,1.1,0.3c0.4,0,0.7-0.1,1-0.3c0.3-0.2,0.4-0.6,0.4-1s-0.2-0.8-0.5-1s-0.7-0.4-1.2-0.4s-1.1,0.2-1.8,0.5l-0.9-1
		v-4.9L230,347.2L230,347.2z"/>
	<path style="fill:#FFFFFF;" d="M231.6,347.2h4v10h-2.1v-8.1h-1.9V347.2z"/>
	<path style="fill:#FFFFFF;" d="M256.6,348.9c-0.6,0-1.1,0.2-1.4,0.6s-0.5,1-0.6,1.7c0.6-0.4,1.3-0.6,2-0.6c0.9,0,1.7,0.3,2.3,0.9
		c0.6,0.6,0.9,1.4,0.9,2.4s-0.3,1.8-1,2.4s-1.5,0.9-2.5,0.9c-0.7,0-1.3-0.1-1.8-0.4s-0.9-0.6-1.2-1.1c-0.6-0.9-0.9-2.1-0.9-3.5
		c0-0.9,0.1-1.7,0.3-2.4c0.2-0.7,0.5-1.2,0.9-1.6c0.8-0.8,1.7-1.2,2.8-1.2c0.5,0,0.9,0.1,1.3,0.2s0.7,0.3,1,0.4
		c0.2,0.1,0.5,0.3,0.8,0.5l-1.1,1.6c-0.1-0.1-0.1-0.1-0.3-0.2c-0.1-0.1-0.3-0.2-0.6-0.4C257.2,348.9,256.9,348.9,256.6,348.9z
		 M256.3,352.5c-0.4,0-0.8,0.1-1.1,0.4c-0.3,0.3-0.4,0.6-0.4,1s0.1,0.8,0.4,1.1c0.3,0.3,0.6,0.4,1.1,0.4s0.8-0.1,1.1-0.4
		c0.3-0.3,0.4-0.6,0.4-1s-0.1-0.8-0.4-1.1C257.1,352.6,256.8,352.5,256.3,352.5z"/>
	<path style="fill:#FFFFFF;" d="M267.7,347.2v1.9h-3.9v1.7c0.3-0.1,0.6-0.1,1-0.1c1,0,1.8,0.3,2.5,0.9s1,1.4,1,2.3
		c0,1-0.4,1.8-1.1,2.4s-1.6,1-2.7,1c-1.4,0-2.5-0.5-3.4-1.5l1.2-1.6c0.1,0.1,0.2,0.2,0.3,0.3c0.1,0.1,0.4,0.3,0.8,0.5
		s0.8,0.3,1.1,0.3c0.4,0,0.7-0.1,1-0.3c0.3-0.2,0.4-0.6,0.4-1s-0.2-0.8-0.5-1s-0.7-0.4-1.2-0.4s-1.1,0.2-1.8,0.5l-0.9-1v-4.9
		L267.7,347.2L267.7,347.2z"/>
	<path style="fill:#FFFFFF;" d="M269.3,347.2h4v10h-2.1v-8.1h-1.9V347.2z"/>
	<path style="fill:#FFFFFF;" d="M126.4,238h-7v-16.1h6.3c1.1,0,2,0.1,2.8,0.4c0.8,0.3,1.4,0.6,1.8,1.1c0.7,0.8,1.1,1.8,1.1,2.8
		c0,1.3-0.4,2.2-1.2,2.8c-0.3,0.2-0.5,0.4-0.6,0.4c-0.1,0.1-0.3,0.1-0.6,0.3c1,0.2,1.8,0.7,2.4,1.3c0.6,0.7,0.9,1.5,0.9,2.5
		c0,1.1-0.4,2.1-1.1,3C130.2,237.5,128.6,238,126.4,238z M123,228.4h1.7c1,0,1.7-0.1,2.2-0.3s0.7-0.7,0.7-1.4s-0.2-1.2-0.7-1.4
		c-0.4-0.2-1.2-0.3-2.3-0.3H123V228.4z M123,234.9h2.5c1,0,1.8-0.1,2.3-0.4c0.5-0.3,0.8-0.7,0.8-1.5c0-0.7-0.3-1.2-0.8-1.5
		c-0.5-0.2-1.4-0.4-2.6-0.4H123V234.9z"/>
	<path style="fill:#FFFFFF;" d="M146.3,238l-1.5-3.5h-6.7l-1.5,3.5h-3.8l6.9-16.1h3.5l6.9,16.1H146.3z M141.5,226.7l-2,4.7h4
		L141.5,226.7z"/>
	<path style="fill:#FFFFFF;" d="M163.1,221.9h3.6V238h-3.6l-7.7-10.1V238h-3.6v-16.1h3.4l7.9,10.3L163.1,221.9L163.1,221.9z"/>
	<path style="fill:#FFFFFF;" d="M170.5,221.9h3.6v6.6l6.1-6.6h4.4l-6.4,7.1c0.6,0.8,1.6,2.2,3.1,4.3s2.6,3.7,3.3,4.7h-4.2l-4.7-6.3
		l-1.6,1.8v4.5h-3.6L170.5,221.9L170.5,221.9z"/>
</g>
<g>
</g>
<g>
</g>
<g>
</g>
<g>
</g>
<g>
</g>
<g>
</g>
<g>
</g>
<g>
</g>
<g>
</g>
<g>
</g>
<g>
</g>
<g>
</g>
<g>
</g>
<g>
</g>
<g>
</g>
</svg>
