<?xml version="1.0" encoding="iso-8859-1"?>
<!-- Generator: Adobe Illustrator 19.0.0, SVG Export Plug-In . SVG Version: 6.00 Build 0)  -->
<svg version="1.1" id="Layer_1" xmlns="http://www.w3.org/2000/svg" xmlns:xlink="http://www.w3.org/1999/xlink" x="0px" y="0px"
	 viewBox="0 0 504 504" style="enable-background:new 0 0 504 504;" xml:space="preserve">
<circle style="fill:#FFD05B;" cx="252" cy="252" r="252"/>
<path style="fill:#2B3B4E;" d="M120.6,393h262.8V193.4c0-1-0.8-1.9-1.9-1.9h-259c-1,0-1.9,0.8-1.9,1.9V393z"/>
<path style="fill:#324A5E;" d="M333.7,393H170.3V144c0-1.4,1.2-2.6,2.6-2.6h158.2c1.4,0,2.6,1.2,2.6,2.6V393z"/>
<rect x="235.6" y="341.9" style="fill:#F1543F;" width="32.9" height="35.7"/>
<rect x="107.3" y="377.6" style="fill:#E6E9EE;" width="289.4" height="15.4"/>
<g>
	<rect x="189.4" y="162.7" style="fill:#CED5E0;" width="125.3" height="10.9"/>
	<rect x="189.4" y="192.3" style="fill:#CED5E0;" width="125.3" height="10.9"/>
	<rect x="189.4" y="222" style="fill:#CED5E0;" width="125.3" height="10.9"/>
	<rect x="189.4" y="251.7" style="fill:#CED5E0;" width="125.3" height="10.9"/>
	<rect x="189.4" y="281.4" style="fill:#CED5E0;" width="125.3" height="10.9"/>
	<rect x="347.7" y="207.6" style="fill:#CED5E0;" width="21.9" height="10.7"/>
	<rect x="347.7" y="236.6" style="fill:#CED5E0;" width="21.9" height="10.7"/>
	<rect x="347.7" y="265.5" style="fill:#CED5E0;" width="21.9" height="10.7"/>
	<rect x="347.7" y="294.4" style="fill:#CED5E0;" width="21.9" height="10.7"/>
	<rect x="347.7" y="323.3" style="fill:#CED5E0;" width="21.9" height="10.7"/>
	<rect x="134.4" y="207.6" style="fill:#CED5E0;" width="21.9" height="10.7"/>
	<rect x="134.4" y="236.6" style="fill:#CED5E0;" width="21.9" height="10.7"/>
	<rect x="134.4" y="265.5" style="fill:#CED5E0;" width="21.9" height="10.7"/>
	<rect x="134.4" y="294.4" style="fill:#CED5E0;" width="21.9" height="10.7"/>
	<rect x="134.4" y="323.3" style="fill:#CED5E0;" width="21.9" height="10.7"/>
</g>
<g>
	<polygon style="fill:#F1543F;" points="323.3,89.8 329.5,102.5 343.5,104.5 333.4,114.3 335.7,128.2 323.3,121.7 310.8,128.2 
		313.2,114.3 303.1,104.5 317,102.5 	"/>
	<polygon style="fill:#F1543F;" points="275.8,89.8 282,102.5 295.9,104.5 285.8,114.3 288.2,128.2 275.8,121.7 263.3,128.2 
		265.7,114.3 255.6,104.5 269.5,102.5 	"/>
	<polygon style="fill:#F1543F;" points="228.2,89.8 234.5,102.5 248.4,104.5 238.3,114.3 240.7,128.2 228.2,121.7 215.8,128.2 
		218.2,114.3 208.1,104.5 222,102.5 	"/>
	<polygon style="fill:#F1543F;" points="180.7,89.8 187,102.5 200.9,104.5 190.8,114.3 193.2,128.2 180.7,121.7 168.3,128.2 
		170.6,114.3 160.5,104.5 174.5,102.5 	"/>
</g>
<path style="fill:#F9B54C;" d="M43.6,393.7C88.9,460.3,165.4,504,252,504s163.1-43.7,208.4-110.3H43.6z"/>
<g>
</g>
<g>
</g>
<g>
</g>
<g>
</g>
<g>
</g>
<g>
</g>
<g>
</g>
<g>
</g>
<g>
</g>
<g>
</g>
<g>
</g>
<g>
</g>
<g>
</g>
<g>
</g>
<g>
</g>
</svg>
