<?xml version="1.0" encoding="iso-8859-1"?>
<!-- Generator: Adobe Illustrator 19.0.0, SVG Export Plug-In . SVG Version: 6.00 Build 0)  -->
<svg version="1.1" id="Layer_1" xmlns="http://www.w3.org/2000/svg" xmlns:xlink="http://www.w3.org/1999/xlink" x="0px" y="0px"
	 viewBox="0 0 504 504" style="enable-background:new 0 0 504 504;" xml:space="preserve">
<circle style="fill:#324A5E;" cx="252" cy="252" r="252"/>
<path style="fill:#FFFFFF;" d="M389.2,270c0,9.8-7.9,17.6-17.6,17.6c-9.8,0-17.6-7.9-17.6-17.6v-0.2c-0.4,0-0.8,0-1.2,0v0.3
	c0,9.8-7.9,17.6-17.6,17.6c-6.3,0-11.9-3.3-14.9-8.4c-3.6,5-9.6,8.4-16.3,8.4c-5.3,0-10.1-2-13.6-5.4c-3.8,3.4-8.8,5.4-14.2,5.4
	c-11.9,0-21.5-9.6-21.5-21.5v-0.3c-0.9,0-1.8,0-2.6-0.2c-0.9,0.1-1.8,0.2-2.6,0.2v0.3c0,11.9-9.6,21.5-21.5,21.5
	c-5.4,0-10.5-2-14.2-5.4c-3.6,3.4-8.4,5.4-13.6,5.4c-6.7,0-12.7-3.3-16.2-8.4c-3.1,5-8.7,8.4-15,8.4c-9.7,0-17.6-7.9-17.6-17.6v-0.3
	c-0.4,0-0.8,0.1-1.2,0v0.2c0,9.8-7.9,17.6-17.6,17.6c-9.7,0-17.6-7.9-17.6-17.6c0-8.8,6.6-16.1,15-17.4c-0.2-0.9-0.2-1.9-0.2-2.8
	c0-11.1,9-20.1,20-20.1c8.1,0,15.1,4.8,18.2,11.7c3.2-6.9,10.2-11.7,18.2-11.7c5,0,9.6,1.8,13.1,4.9c3.7-7.6,11.4-12.7,20.4-12.7
	c4.1,0,8,1.1,11.3,3c4.4-4.8,10.8-7.9,17.9-7.9c1.1,0,2.1,0.1,3.2,0.2c1-0.1,2.1-0.2,3.1-0.2c7.1,0,13.5,3,17.9,7.9
	c3.3-1.9,7.2-3,11.3-3c9,0,16.7,5.2,20.4,12.7c3.5-3.1,8.1-4.9,13.1-4.9c8.1,0,15.1,4.8,18.2,11.7c3.2-6.9,10.2-11.7,18.2-11.7
	c11.1,0,20,9,20,20.1c0,1-0.1,1.9-0.2,2.8C382.7,253.9,389.2,261.2,389.2,270z"/>
<path style="fill:#FFD05B;" d="M107.6,273.9h-7.9V142c0-17.6,14.3-31.9,31.9-31.9c8.5,0,16.5,3.3,22.5,9.3l12.1,12.1l-5.6,5.6
	L148.5,125c-4.5-4.5-10.6-7-17-7c-13.2,0-24,10.8-24,24v131.9H107.6z"/>
<path style="fill:#FF7058;" d="M163.3,132.8c-14.9,9.1-19.6,28.5-10.6,43.5l54-32.9C197.7,128.5,178.2,123.7,163.3,132.8z"/>
<path style="fill:#ACB3BA;" d="M420.8,280.6H83.2l18.2,100.1c2.1,11.7,12.4,20.3,24.3,20.3h252.6c11.9,0,22.1-8.5,24.3-20.3
	L420.8,280.6z"/>
<path style="fill:#CED5E0;" d="M424.5,292.5h-345c-7.8,0-14.1-6.3-14.1-14.1l0,0c0-7.8,6.3-14.1,14.1-14.1h345
	c7.8,0,14.1,6.3,14.1,14.1l0,0C438.7,286.1,432.3,292.5,424.5,292.5z"/>
<g>
	
		<rect x="167.021" y="178.878" transform="matrix(-0.8512 0.5248 -0.5248 -0.8512 410.0045 251.7212)" style="fill:#84DBFF;" width="4.6" height="10.2"/>
	
		<rect x="176.481" y="194.176" transform="matrix(-0.8512 0.5248 -0.5248 -0.8512 435.5451 275.0761)" style="fill:#84DBFF;" width="4.6" height="10.2"/>
	
		<rect x="185.99" y="209.568" transform="matrix(-0.8512 0.5248 -0.5248 -0.8512 461.2255 298.5816)" style="fill:#84DBFF;" width="4.6" height="10.2"/>
	
		<rect x="178.683" y="171.594" transform="matrix(-0.8512 0.5248 -0.5248 -0.8512 427.7707 232.1168)" style="fill:#84DBFF;" width="4.6" height="10.2"/>
	
		<rect x="188.191" y="186.987" transform="matrix(-0.8512 0.5248 -0.5248 -0.8512 453.4492 255.6228)" style="fill:#84DBFF;" width="4.6" height="10.2"/>
	
		<rect x="197.7" y="202.37" transform="matrix(-0.8512 0.5248 -0.5248 -0.8512 479.1261 279.1093)" style="fill:#84DBFF;" width="4.6" height="10.2"/>
	
		<rect x="190.393" y="164.405" transform="matrix(-0.8512 0.5248 -0.5248 -0.8512 445.6747 212.6635)" style="fill:#84DBFF;" width="4.6" height="10.2"/>
	
		<rect x="199.902" y="179.788" transform="matrix(-0.8512 0.5248 -0.5248 -0.8512 471.3517 236.1499)" style="fill:#84DBFF;" width="4.6" height="10.2"/>
	
		<rect x="209.411" y="195.171" transform="matrix(-0.8512 0.5248 -0.5248 -0.8512 497.0268 259.6369)" style="fill:#84DBFF;" width="4.6" height="10.2"/>
	
		<rect x="202.104" y="157.206" transform="matrix(-0.8512 0.5248 -0.5248 -0.8512 463.5772 193.1906)" style="fill:#84DBFF;" width="4.6" height="10.2"/>
	
		<rect x="211.616" y="172.589" transform="matrix(-0.8512 0.5248 -0.5248 -0.8512 489.2579 216.676)" style="fill:#84DBFF;" width="4.6" height="10.2"/>
	
		<rect x="221.069" y="187.887" transform="matrix(-0.8512 0.5248 -0.5248 -0.8512 514.7856 240.0345)" style="fill:#84DBFF;" width="4.6" height="10.2"/>
</g>
<g>
</g>
<g>
</g>
<g>
</g>
<g>
</g>
<g>
</g>
<g>
</g>
<g>
</g>
<g>
</g>
<g>
</g>
<g>
</g>
<g>
</g>
<g>
</g>
<g>
</g>
<g>
</g>
<g>
</g>
</svg>
