<?xml version="1.0" encoding="iso-8859-1"?>
<!-- Generator: Adobe Illustrator 19.0.0, SVG Export Plug-In . SVG Version: 6.00 Build 0)  -->
<svg version="1.1" id="Layer_1" xmlns="http://www.w3.org/2000/svg" xmlns:xlink="http://www.w3.org/1999/xlink" x="0px" y="0px"
	 viewBox="0 0 504 504" style="enable-background:new 0 0 504 504;" xml:space="preserve">
<circle style="fill:#324A5E;" cx="252" cy="252" r="252"/>
<rect x="266.3" y="224.7" style="fill:#CED5E0;" width="17.8" height="168.5"/>
<circle style="fill:#FFD05B;" cx="157.2" cy="139.9" r="46.4"/>
<g>
	<path style="fill:#F9B54C;" d="M149.2,136.6h-31c0.7-8.3,4-15.9,9.1-21.9L149.2,136.6z"/>
	<path style="fill:#F9B54C;" d="M149.2,143.2l-21.9,21.9c-5.1-6-8.4-13.6-9.1-21.9H149.2z"/>
	<path style="fill:#F9B54C;" d="M132,110c6-5.1,13.6-8.4,21.9-9.1v31L132,110z"/>
	<path style="fill:#F9B54C;" d="M132,169.8l21.9-21.9v31C145.6,178.2,138,174.9,132,169.8z"/>
	<path style="fill:#F9B54C;" d="M160.6,147.9l21.9,21.9c-6,5.1-13.6,8.4-21.9,9.1V147.9z"/>
	<path style="fill:#F9B54C;" d="M182.4,110l-21.9,21.9v-31C168.9,101.6,176.4,104.9,182.4,110z"/>
	<path style="fill:#F9B54C;" d="M165.3,143.2h31c-0.7,8.3-4,15.9-9.1,21.9L165.3,143.2z"/>
	<path style="fill:#F9B54C;" d="M165.3,136.6l21.9-21.9c5.1,6,8.4,13.6,9.1,21.9H165.3z"/>
</g>
<polygon style="fill:#E6E9EE;" points="157.2,138.8 275.2,288.7 393.2,138.8 "/>
<polygon style="fill:#FFD05B;" points="198.9,171.5 275.2,268.4 351.5,171.5 "/>
<path style="fill:#E6E9EE;" d="M314.4,393.2H236c-9.6,0-17.3,7.8-17.3,17.3l0,0h113.1l0,0C331.8,400.9,324,393.2,314.4,393.2z"/>
<g>
</g>
<g>
</g>
<g>
</g>
<g>
</g>
<g>
</g>
<g>
</g>
<g>
</g>
<g>
</g>
<g>
</g>
<g>
</g>
<g>
</g>
<g>
</g>
<g>
</g>
<g>
</g>
<g>
</g>
</svg>
