<?xml version="1.0" encoding="iso-8859-1"?>
<!-- Generator: Adobe Illustrator 19.0.0, SVG Export Plug-In . SVG Version: 6.00 Build 0)  -->
<svg version="1.1" id="Layer_1" xmlns="http://www.w3.org/2000/svg" xmlns:xlink="http://www.w3.org/1999/xlink" x="0px" y="0px"
	 viewBox="0 0 504 504" style="enable-background:new 0 0 504 504;" xml:space="preserve">
<circle style="fill:#90DFAA;" cx="252" cy="252" r="252"/>
<g>
	<path style="fill:#FFFFFF;" d="M222.1,167.1c-1.2,0-2.5-0.5-3.4-1.4c-18.4-18.4-18.4-48.3,0-66.6c1.9-1.9,5-1.9,6.9,0s1.9,5,0,6.9
		c-14.6,14.6-14.6,38.3,0,52.9c1.9,1.9,1.9,5,0,6.9C224.6,166.6,223.4,167.1,222.1,167.1z"/>
	<path style="fill:#FFFFFF;" d="M281.9,167.1c-1.2,0-2.5-0.5-3.4-1.4c-1.9-1.9-1.9-5,0-6.9c14.6-14.6,14.6-38.3,0-52.9
		c-1.9-1.9-1.9-5,0-6.9s5-1.9,6.9,0c18.4,18.4,18.4,48.3,0,66.6C284.4,166.6,283.1,167.1,281.9,167.1z"/>
	<path style="fill:#FFFFFF;" d="M204.6,184.6c-1.2,0-2.5-0.5-3.4-1.4c-28-28-28-73.7,0-101.7c1.9-1.9,5-1.9,6.9,0s1.9,5,0,6.9
		c-24.2,24.2-24.2,63.7,0,87.9c1.9,1.9,1.9,5,0,6.9C207.1,184.2,205.8,184.6,204.6,184.6z"/>
	<path style="fill:#FFFFFF;" d="M299.4,184.6c-1.2,0-2.5-0.5-3.4-1.4c-1.9-1.9-1.9-5,0-6.9c24.2-24.2,24.2-63.7,0-87.9
		c-1.9-1.9-1.9-5,0-6.9s5-1.9,6.9,0c28,28,28,73.7,0,101.7C301.9,184.2,300.7,184.6,299.4,184.6z"/>
	<path style="fill:#FFFFFF;" d="M185.3,203.9c-1.2,0-2.5-0.5-3.4-1.4c-38.7-38.7-38.7-101.6,0-140.2c1.9-1.9,5-1.9,6.9,0
		s1.9,5,0,6.9c-34.9,34.9-34.9,91.6,0,126.5c1.9,1.9,1.9,5,0,6.9C187.8,203.4,186.6,203.9,185.3,203.9z"/>
	<path style="fill:#FFFFFF;" d="M318.7,203.9c-1.2,0-2.5-0.5-3.4-1.4c-1.9-1.9-1.9-5,0-6.9c34.9-34.9,34.9-91.6,0-126.5
		c-1.9-1.9-1.9-5,0-6.9s5-1.9,6.9,0c38.7,38.7,38.7,101.6,0,140.2C321.2,203.4,319.9,203.9,318.7,203.9z"/>
</g>
<path style="fill:#2C9984;" d="M30.7,372.6C73.4,450.9,156.5,504,252,504s178.6-53.1,221.3-131.4H30.7z"/>
<g>
	<path style="fill:#2B3B4E;" d="M274.3,273.2h-44.6l15-134.3c0.4-3.7,3.6-6.6,7.3-6.6l0,0c3.8,0,6.9,2.8,7.3,6.6L274.3,273.2z"/>
	<rect x="364.4" y="354.4" style="fill:#2B3B4E;" width="36.9" height="18.7"/>
	<rect x="102.7" y="354.4" style="fill:#2B3B4E;" width="36.9" height="18.7"/>
</g>
<path style="fill:#324A5E;" d="M424.1,356.6H79.9c-1.9,0-3.5-1.6-3.5-3.5v-83.7c0-1.9,1.6-3.5,3.5-3.5h344.2c1.9,0,3.5,1.6,3.5,3.5
	v83.7C427.6,355.1,426,356.6,424.1,356.6z"/>
<rect x="102.7" y="266" style="fill:#E6E9EE;" width="298.5" height="62"/>
<circle style="fill:#FF7058;" cx="136.4" cy="297" r="15.6"/>
<circle style="fill:#2C9984;" cx="232.5" cy="297" r="7.8"/>
<circle style="fill:#324A5E;" cx="264.3" cy="297" r="7.8"/>
<circle style="fill:#FFD05B;" cx="296.1" cy="297" r="7.8"/>
<circle style="fill:#54C0EB;" cx="327.9" cy="297" r="7.8"/>
<circle style="fill:#FF7058;" cx="359.7" cy="297" r="7.8"/>
<g>
</g>
<g>
</g>
<g>
</g>
<g>
</g>
<g>
</g>
<g>
</g>
<g>
</g>
<g>
</g>
<g>
</g>
<g>
</g>
<g>
</g>
<g>
</g>
<g>
</g>
<g>
</g>
<g>
</g>
</svg>
