<?xml version="1.0" encoding="iso-8859-1"?>
<!-- Generator: Adobe Illustrator 19.0.0, SVG Export Plug-In . SVG Version: 6.00 Build 0)  -->
<svg version="1.1" id="Layer_1" xmlns="http://www.w3.org/2000/svg" xmlns:xlink="http://www.w3.org/1999/xlink" x="0px" y="0px"
	 viewBox="0 0 504 504" style="enable-background:new 0 0 504 504;" xml:space="preserve">
<circle style="fill:#90DFAA;" cx="252" cy="252" r="252"/>
<path style="fill:#FF7058;" d="M234.1,361.9c2.8-10.5,9.8-19.4,19.5-24.3c3.8-1.9,7.3-4.4,10.5-7.4c21.1-20.2,17.8-57.8-7.3-83.9
	c-25.1-26.1-62.5-30.9-83.5-10.7c-3.2,3-5.8,6.5-7.8,10.2c-5.3,9.5-14.5,16.1-25.1,18.4c-11.1,2.5-21.5,7.8-30.1,16.1
	c-27.5,26.4-26,72.7,3.4,103.4s75.6,34.1,103.1,7.7C225.4,383.1,231.1,372.9,234.1,361.9z"/>
<polygon style="fill:#F9B54C;" points="216.3,308 364.9,157.6 349.9,142 193.5,284.2 "/>
<g>
	<circle style="fill:#324A5E;" cx="202.5" cy="298.5" r="26.7"/>
	<path style="fill:#324A5E;" d="M414.3,124.5l-47.9,45.9c-0.4,0.4-1,0.4-1.4,0l-27.9-29.1c-0.4-0.4-0.4-1,0-1.4l48-45.9
		c0.4-0.4,1-0.4,1.4,0l27.9,29.1C414.7,123.5,414.7,124.1,414.3,124.5z"/>
</g>
<g>
	<circle style="fill:#FFD05B;" cx="383.6" cy="112.1" r="4"/>
	<circle style="fill:#FFD05B;" cx="369.5" cy="125.6" r="4"/>
	<circle style="fill:#FFD05B;" cx="355.3" cy="139.2" r="4"/>
	<circle style="fill:#FFD05B;" cx="396.2" cy="125.2" r="4"/>
	<circle style="fill:#FFD05B;" cx="382" cy="138.7" r="4"/>
	<circle style="fill:#FFD05B;" cx="367.9" cy="152.3" r="4"/>
</g>
<path style="fill:#E6E9EE;" d="M162.8,368.8L162.8,368.8c-1.7,1.7-4.5,1.6-6.2-0.1l-26.2-27.3c-1.7-1.7-1.6-4.5,0.1-6.2l0,0
	c1.7-1.7,4.5-1.6,6.2,0.1l26.2,27.3C164.6,364.4,164.6,367.1,162.8,368.8z"/>
<g>
</g>
<g>
</g>
<g>
</g>
<g>
</g>
<g>
</g>
<g>
</g>
<g>
</g>
<g>
</g>
<g>
</g>
<g>
</g>
<g>
</g>
<g>
</g>
<g>
</g>
<g>
</g>
<g>
</g>
</svg>
