<?xml version="1.0" encoding="iso-8859-1"?>
<!-- Generator: Adobe Illustrator 19.0.0, SVG Export Plug-In . SVG Version: 6.00 Build 0)  -->
<svg version="1.1" id="Layer_1" xmlns="http://www.w3.org/2000/svg" xmlns:xlink="http://www.w3.org/1999/xlink" x="0px" y="0px"
	 viewBox="0 0 504 504" style="enable-background:new 0 0 504 504;" xml:space="preserve">
<circle style="fill:#84DBFF;" cx="252" cy="252" r="252"/>
<g>
	<rect x="354.5" y="123.6" style="fill:#2C9984;" width="17.7" height="92.7"/>
	<rect x="131.9" y="123.6" style="fill:#2C9984;" width="17.7" height="92.7"/>
</g>
<path style="fill:#E6E9EE;" d="M416,392.6H88c-2.1,0-3.8-1.7-3.8-3.8v-201c0-2.1,1.7-3.8,3.8-3.8h328c2.1,0,3.8,1.7,3.8,3.8v201
	C419.8,390.9,418.1,392.6,416,392.6z"/>
<rect x="99.5" y="199.3" style="fill:#CED5E0;" width="305.1" height="178.1"/>
<path style="fill:#FFD05B;" d="M419.8,131v-9.5c0-5.6-4.6-10.2-10.2-10.2H94.4c-5.6,0-10.2,4.6-10.2,10.2v9.5
	c0,5.6,4.6,10.2,10.2,10.2h315.1C415.2,141.3,419.8,136.7,419.8,131z"/>
<g>
	<path style="fill:#324A5E;" d="M161.3,299.2H173v52.4h-11.7V331h-20.9v20.6h-11.7v-52.4h11.7v21.9h20.9V299.2z"/>
	<path style="fill:#324A5E;" d="M230,344.4c-5.3,5.2-11.8,7.8-19.6,7.8s-14.3-2.6-19.6-7.8c-5.3-5.2-8-11.6-8-19.3
		c0-7.7,2.6-14.1,8-19.3c5.3-5.2,11.8-7.8,19.6-7.8s14.3,2.6,19.6,7.8c5.3,5.2,8,11.6,8,19.3S235.3,339.2,230,344.4z M226.1,325.1
		c0-4.7-1.5-8.7-4.5-12s-6.7-5-11.1-5c-4.4,0-8.1,1.7-11.1,5s-4.5,7.3-4.5,12s1.5,8.7,4.5,11.9c3,3.3,6.7,4.9,11.1,4.9
		c4.4,0,8.1-1.6,11.1-4.9C224.6,333.8,226.1,329.8,226.1,325.1z"/>
	<path style="fill:#324A5E;" d="M268.7,309.3v42.3H257v-42.3h-14.9v-10.1h41.4v10.1H268.7z"/>
	<path style="fill:#324A5E;" d="M329.9,299.2v10.4h-26.1v10.8h23.5v10h-23.5v10.9h26.9v10.4h-38.6v-52.4h37.8V299.2z"/>
	<path style="fill:#324A5E;" d="M341.2,351.6v-52.4h11.7v42h22.4v10.4H341.2z"/>
</g>
<g>
	<polygon style="fill:#FF7058;" points="252,216.3 261.8,236.1 283.6,239.3 267.8,254.6 271.5,276.4 252,266.1 232.5,276.4 
		236.2,254.6 220.4,239.3 242.2,236.1 	"/>
	<polygon style="fill:#FF7058;" points="312.1,230.7 319.5,245.8 336.1,248.2 324.1,259.9 326.9,276.4 312.1,268.6 297.3,276.4 
		300.1,259.9 288.1,248.2 304.7,245.8 	"/>
	<polygon style="fill:#FF7058;" points="364.9,242.8 370.4,253.8 382.6,255.6 373.8,264.2 375.9,276.4 364.9,270.6 354,276.4 
		356.1,264.2 347.3,255.6 359.5,253.8 	"/>
	<polygon style="fill:#FF7058;" points="191.9,230.7 184.5,245.8 167.9,248.2 179.9,259.9 177.1,276.4 191.9,268.6 206.7,276.4 
		203.9,259.9 215.9,248.2 199.3,245.8 	"/>
	<polygon style="fill:#FF7058;" points="139.1,242.8 133.6,253.8 121.4,255.6 130.2,264.2 128.1,276.4 139.1,270.6 150,276.4 
		147.9,264.2 156.7,255.6 144.5,253.8 	"/>
</g>
<g>
</g>
<g>
</g>
<g>
</g>
<g>
</g>
<g>
</g>
<g>
</g>
<g>
</g>
<g>
</g>
<g>
</g>
<g>
</g>
<g>
</g>
<g>
</g>
<g>
</g>
<g>
</g>
<g>
</g>
</svg>
