<?xml version="1.0" encoding="iso-8859-1"?>
<!-- Generator: Adobe Illustrator 19.0.0, SVG Export Plug-In . SVG Version: 6.00 Build 0)  -->
<svg version="1.1" id="Layer_1" xmlns="http://www.w3.org/2000/svg" xmlns:xlink="http://www.w3.org/1999/xlink" x="0px" y="0px"
	 viewBox="0 0 504 504" style="enable-background:new 0 0 504 504;" xml:space="preserve">
<circle style="fill:#90DFAA;" cx="252" cy="252" r="252"/>
<path style="fill:#FF7058;" d="M267.7,0.5v160.1h-31.5V0.5C241.4,0.2,246.7,0,252,0C257.3,0,262.5,0.2,267.7,0.5z"/>
<path style="fill:#E6E9EE;" d="M401.2,240.1C400.4,158.4,333.9,92.5,252,92.5s-148.4,66-149.2,147.7h298.4V240.1z"/>
<path style="fill:#324A5E;" d="M403.6,262.1H100.4c-12.1,0-21.9-9.8-21.9-21.9l0,0c0-12.1,9.8-21.9,21.9-21.9h303.2
	c12.1,0,21.9,9.8,21.9,21.9l0,0C425.5,252.2,415.7,262.1,403.6,262.1z"/>
<g>
	<path style="fill:#FFFFFF;" d="M365,332.9L365,332.9c-3.6,0-6.5-2.9-6.5-6.5v-26c0-3.6,2.9-6.5,6.5-6.5l0,0c3.6,0,6.5,2.9,6.5,6.5
		v26C371.5,330,368.5,332.9,365,332.9z"/>
	<path style="fill:#FFFFFF;" d="M319.8,332.9L319.8,332.9c-3.6,0-6.5-2.9-6.5-6.5v-26c0-3.6,2.9-6.5,6.5-6.5l0,0
		c3.6,0,6.5,2.9,6.5,6.5v26C326.3,330,323.4,332.9,319.8,332.9z"/>
	<path style="fill:#FFFFFF;" d="M274.6,332.9L274.6,332.9c-3.6,0-6.5-2.9-6.5-6.5v-26c0-3.6,2.9-6.5,6.5-6.5l0,0
		c3.6,0,6.5,2.9,6.5,6.5v26C281.1,330,278.2,332.9,274.6,332.9z"/>
	<path style="fill:#FFFFFF;" d="M229.4,332.9L229.4,332.9c-3.6,0-6.5-2.9-6.5-6.5v-26c0-3.6,2.9-6.5,6.5-6.5l0,0
		c3.6,0,6.5,2.9,6.5,6.5v26C235.9,330,233,332.9,229.4,332.9z"/>
	<path style="fill:#FFFFFF;" d="M184.2,332.9L184.2,332.9c-3.6,0-6.5-2.9-6.5-6.5v-26c0-3.6,2.9-6.5,6.5-6.5l0,0
		c3.6,0,6.5,2.9,6.5,6.5v26C190.7,330,187.8,332.9,184.2,332.9z"/>
	<path style="fill:#FFFFFF;" d="M139,332.9L139,332.9c-3.6,0-6.5-2.9-6.5-6.5v-26c0-3.6,2.9-6.5,6.5-6.5l0,0c3.6,0,6.5,2.9,6.5,6.5
		v26C145.5,330,142.6,332.9,139,332.9z"/>
	<path style="fill:#FFFFFF;" d="M365,409.4L365,409.4c-3.6,0-6.5-2.9-6.5-6.5v-26c0-3.6,2.9-6.5,6.5-6.5l0,0c3.6,0,6.5,2.9,6.5,6.5
		v26C371.5,406.4,368.5,409.4,365,409.4z"/>
	<path style="fill:#FFFFFF;" d="M319.8,409.4L319.8,409.4c-3.6,0-6.5-2.9-6.5-6.5v-26c0-3.6,2.9-6.5,6.5-6.5l0,0
		c3.6,0,6.5,2.9,6.5,6.5v26C326.3,406.4,323.4,409.4,319.8,409.4z"/>
	<path style="fill:#FFFFFF;" d="M274.6,409.4L274.6,409.4c-3.6,0-6.5-2.9-6.5-6.5v-26c0-3.6,2.9-6.5,6.5-6.5l0,0
		c3.6,0,6.5,2.9,6.5,6.5v26C281.1,406.4,278.2,409.4,274.6,409.4z"/>
	<path style="fill:#FFFFFF;" d="M229.4,409.4L229.4,409.4c-3.6,0-6.5-2.9-6.5-6.5v-26c0-3.6,2.9-6.5,6.5-6.5l0,0
		c3.6,0,6.5,2.9,6.5,6.5v26C235.9,406.4,233,409.4,229.4,409.4z"/>
	<path style="fill:#FFFFFF;" d="M184.2,409.4L184.2,409.4c-3.6,0-6.5-2.9-6.5-6.5v-26c0-3.6,2.9-6.5,6.5-6.5l0,0
		c3.6,0,6.5,2.9,6.5,6.5v26C190.7,406.4,187.8,409.4,184.2,409.4z"/>
	<path style="fill:#FFFFFF;" d="M139,409.4L139,409.4c-3.6,0-6.5-2.9-6.5-6.5v-26c0-3.6,2.9-6.5,6.5-6.5l0,0c3.6,0,6.5,2.9,6.5,6.5
		v26C145.5,406.4,142.6,409.4,139,409.4z"/>
</g>
<g>
</g>
<g>
</g>
<g>
</g>
<g>
</g>
<g>
</g>
<g>
</g>
<g>
</g>
<g>
</g>
<g>
</g>
<g>
</g>
<g>
</g>
<g>
</g>
<g>
</g>
<g>
</g>
<g>
</g>
</svg>
