<?xml version="1.0" encoding="iso-8859-1"?>
<!-- Generator: Adobe Illustrator 19.0.0, SVG Export Plug-In . SVG Version: 6.00 Build 0)  -->
<svg version="1.1" id="Layer_1" xmlns="http://www.w3.org/2000/svg" xmlns:xlink="http://www.w3.org/1999/xlink" x="0px" y="0px"
	 viewBox="0 0 504 504" style="enable-background:new 0 0 504 504;" xml:space="preserve">
<circle style="fill:#324A5E;" cx="252" cy="252" r="252"/>
<g>
	<path style="fill:#FFD05B;" d="M355.9,283.2c-4.6,0-8.2,3.7-8.2,8.2s3.7,8.2,8.2,8.2c13.1,0,23.8,10.7,23.8,23.8
		c0,4.6,3.7,8.2,8.2,8.2s8.2-3.7,8.2-8.2C396.2,301.2,378.1,283.2,355.9,283.2z"/>
	<path style="fill:#FFD05B;" d="M148.1,283.2c-22.2,0-40.3,18.1-40.3,40.3c0,4.6,3.7,8.2,8.2,8.2c4.6,0,8.2-3.7,8.2-8.2
		c0-13.1,10.7-23.8,23.8-23.8c4.6,0,8.2-3.7,8.2-8.2S152.7,283.2,148.1,283.2z"/>
</g>
<polygon style="fill:#FF7058;" points="150.1,124 173.6,113 170.3,94.5 138,109.6 "/>
<path style="fill:#54C0EB;" d="M164.5,157.9l-14-30.1l25.8-12l14,30.1c3.1,6.6,9.3,11,16.5,11.8c15.7,1.7,30.1,11.3,37.3,26.7
	L302.2,309c2.5,5.4,0.2,11.8-5.2,14.3l-65.2,30.4c-5.4,2.5-11.8,0.2-14.3-5.2l-58.1-124.6c-7.2-15.4-5.2-32.6,3.5-45.7
	C167,172.1,167.6,164.5,164.5,157.9z"/>
<path style="fill:#CED5E0;" d="M149,131.6l31.2-14.5c0.3-0.2,0.5-0.5,0.3-0.9l-3.1-6.7c-0.2-0.3-0.5-0.5-0.9-0.3l-31.2,14.5
	c-0.3,0.2-0.5,0.5-0.3,0.9l3.1,6.7C148.3,131.6,148.6,131.8,149,131.6z"/>
<rect x="180.394" y="217.597" transform="matrix(-0.9064 0.4225 -0.4225 -0.9064 526.5665 404.1813)" style="fill:#FFFFFF;" width="76.196" height="85.695"/>
<polygon style="fill:#FF7058;" points="353.9,116 330.4,105.1 333.7,86.6 366,101.7 "/>
<path style="fill:#84DBFF;" d="M339.5,150l14-30.1l-25.8-12l-14,30.1c-3.1,6.6-9.3,11-16.5,11.8c-15.7,1.7-30.1,11.3-37.3,26.7
	l-58.1,124.6c-2.5,5.4-0.2,11.8,5.2,14.3l65.2,30.4c5.4,2.5,11.8,0.2,14.3-5.2L344.6,216c7.2-15.4,5.2-32.6-3.5-45.7
	C337,164.2,336.4,156.5,339.5,150z"/>
<path style="fill:#CED5E0;" d="M355,123.6l-31.2-14.5c-0.3-0.2-0.5-0.5-0.3-0.9l3.1-6.7c0.2-0.3,0.5-0.5,0.9-0.3l31.2,14.5
	c0.3,0.2,0.5,0.5,0.3,0.9l-3.1,6.7C355.7,123.7,355.4,123.8,355,123.6z"/>
<rect x="247.368" y="209.668" transform="matrix(0.9064 0.4225 -0.4225 0.9064 133.4274 -96.9687)" style="fill:#FFFFFF;" width="76.196" height="85.695"/>
<path style="fill:#CED5E0;" d="M333.1,441H170.9c-10.9,0-20-6.8-20.7-15.5L134.6,233h234.7l-15.5,192.4
	C353.1,434.2,344.1,441,333.1,441z"/>
<path style="fill:#E6E9EE;" d="M378.2,248.6H127.3c-1.3,0-2.4-1.1-2.4-2.4v-19.5c0-1.3,1.1-2.4,2.4-2.4h250.9c1.3,0,2.4,1.1,2.4,2.4
	v19.5C380.7,247.5,379.6,248.6,378.2,248.6z"/>
<path style="fill:#FFFFFF;" d="M313.6,356.4c0-6.5-5.2-11.7-11.7-11.7c-1.1,0-2.8,0.4-4.8,1c1.8-1,3.3-1.9,4.1-2.7
	c4.6-4.6,4.6-12,0-16.5c-4.6-4.6-12-4.6-16.5,0c-0.8,0.8-1.7,2.3-2.7,4.1c0.6-2,1-3.7,1-4.8c0-6.5-5.2-11.7-11.7-11.7
	s-11.7,5.2-11.7,11.7c0,1.1,0.4,2.8,1,4.8c-1-1.8-1.9-3.3-2.7-4.1c-4.6-4.6-12-4.6-16.5,0c-4.6,4.6-4.6,12,0,16.5
	c0.8,0.8,2.3,1.7,4.1,2.7c-2-0.6-3.7-1-4.8-1c-6.5,0-11.7,5.2-11.7,11.7s5.2,11.7,11.7,11.7c1.1,0,2.8-0.4,4.8-1
	c-1.8,1-3.3,1.9-4.1,2.7c-4.6,4.6-4.6,12,0,16.5c4.6,4.6,12,4.6,16.5,0c0.8-0.8,1.7-2.3,2.7-4.1c-0.6,2-1,3.7-1,4.8
	c0,6.5,5.2,11.7,11.7,11.7S283,393.5,283,387c0-1.1-0.4-2.8-1-4.8c1,1.8,1.9,3.3,2.7,4.1c4.6,4.6,12,4.6,16.5,0
	c4.6-4.6,4.6-12,0-16.5c-0.8-0.8-2.3-1.7-4.1-2.7c2,0.6,3.7,1,4.8,1C308.3,368,313.6,362.8,313.6,356.4z"/>
<circle style="fill:#54C0EB;" cx="271.2" cy="356.4" r="10.8"/>
<path style="fill:#FFFFFF;" d="M233.1,304.9c0-4.2-3.4-7.7-7.7-7.7c-0.7,0-1.9,0.2-3.2,0.6c1.2-0.7,2.2-1.3,2.7-1.8
	c3-3,3-7.9,0-10.9s-7.9-3-10.9,0c-0.5,0.5-1.1,1.5-1.8,2.7c0.4-1.3,0.6-2.4,0.6-3.2c0-4.2-3.4-7.7-7.7-7.7s-7.7,3.4-7.7,7.7
	c0,0.7,0.2,1.9,0.6,3.2c-0.7-1.2-1.3-2.2-1.8-2.7c-3-3-7.9-3-10.9,0s-3,7.9,0,10.9c0.5,0.5,1.5,1.1,2.7,1.8
	c-1.3-0.4-2.4-0.6-3.2-0.6c-4.2,0-7.7,3.4-7.7,7.7c0,4.2,3.4,7.7,7.7,7.7c0.7,0,1.9-0.2,3.2-0.6c-1.2,0.7-2.2,1.3-2.7,1.8
	c-3,3-3,7.9,0,10.9s7.9,3,10.9,0c0.5-0.5,1.1-1.5,1.8-2.7c-0.4,1.3-0.6,2.4-0.6,3.2c0,4.2,3.4,7.7,7.7,7.7c4.2,0,7.7-3.4,7.7-7.7
	c0-0.7-0.2-1.9-0.6-3.2c0.7,1.2,1.3,2.2,1.8,2.7c3,3,7.9,3,10.9,0s3-7.9,0-10.9c-0.5-0.5-1.5-1.1-2.7-1.8c1.3,0.4,2.4,0.6,3.2,0.6
	C229.7,312.6,233.1,309.2,233.1,304.9z"/>
<circle style="fill:#FF7058;" cx="205.2" cy="304.9" r="7.1"/>
<g>
</g>
<g>
</g>
<g>
</g>
<g>
</g>
<g>
</g>
<g>
</g>
<g>
</g>
<g>
</g>
<g>
</g>
<g>
</g>
<g>
</g>
<g>
</g>
<g>
</g>
<g>
</g>
<g>
</g>
</svg>
