<?xml version="1.0" encoding="iso-8859-1"?>
<!-- Generator: Adobe Illustrator 19.0.0, SVG Export Plug-In . SVG Version: 6.00 Build 0)  -->
<svg version="1.1" id="Layer_1" xmlns="http://www.w3.org/2000/svg" xmlns:xlink="http://www.w3.org/1999/xlink" x="0px" y="0px"
	 viewBox="0 0 504 504" style="enable-background:new 0 0 504 504;" xml:space="preserve">
<circle style="fill:#324A5E;" cx="252" cy="252" r="252"/>
<path style="fill:#E6E9EE;" d="M392.9,382.4H111.1c-2,0-3.7-1.6-3.7-3.7V145.2c0-2,1.6-3.7,3.7-3.7h281.8c2,0,3.7,1.6,3.7,3.7v233.6
	C396.6,380.8,394.9,382.4,392.9,382.4z"/>
<rect x="220" y="141.5" style="fill:#CED5E0;" width="155.6" height="79.4"/>
<g>
	<rect x="232.1" y="166.2" style="fill:#54C0EB;" width="131.4" height="43.2"/>
	<rect x="340.3" y="247.4" style="fill:#54C0EB;" width="31.1" height="21"/>
	<rect x="340.3" y="288.2" style="fill:#54C0EB;" width="31.1" height="21"/>
	<rect x="340.3" y="329" style="fill:#54C0EB;" width="31.1" height="21"/>
	<rect x="282.2" y="247.4" style="fill:#54C0EB;" width="31.1" height="21"/>
	<rect x="282.2" y="288.2" style="fill:#54C0EB;" width="31.1" height="21"/>
	<rect x="282.2" y="329" style="fill:#54C0EB;" width="31.1" height="21"/>
	<rect x="224.1" y="247.4" style="fill:#54C0EB;" width="31.1" height="21"/>
	<rect x="224.1" y="288.2" style="fill:#54C0EB;" width="31.1" height="21"/>
	<rect x="224.1" y="329" style="fill:#54C0EB;" width="31.1" height="21"/>
</g>
<path style="fill:#ACB3BA;" d="M202,361.7h-71.2c-1.5,0-2.7-1.2-2.7-2.7V112.5c0-1.5,1.2-2.7,2.7-2.7H202c1.5,0,2.7,1.2,2.7,2.7V359
	C204.7,360.5,203.5,361.7,202,361.7z"/>
<g>
</g>
<g>
</g>
<g>
</g>
<g>
</g>
<g>
</g>
<g>
</g>
<g>
</g>
<g>
</g>
<g>
</g>
<g>
</g>
<g>
</g>
<g>
</g>
<g>
</g>
<g>
</g>
<g>
</g>
</svg>
