<?xml version="1.0" encoding="iso-8859-1"?>
<!-- Generator: Adobe Illustrator 19.0.0, SVG Export Plug-In . SVG Version: 6.00 Build 0)  -->
<svg version="1.1" id="Layer_1" xmlns="http://www.w3.org/2000/svg" xmlns:xlink="http://www.w3.org/1999/xlink" x="0px" y="0px"
	 viewBox="0 0 504 504" style="enable-background:new 0 0 504 504;" xml:space="preserve">
<circle style="fill:#84DBFF;" cx="252" cy="252" r="252"/>
<path style="fill:#FFFFFF;" d="M280.2,394.6l-119.1-120c-1.1-1.1-1-2.8,0-3.8l167.1-165.9c1.1-1.1,2.8-1,3.8,0l119.1,120
	c1.1,1.1,1,2.8,0,3.8l-167,165.9C283,395.7,281.3,395.7,280.2,394.6z"/>
<polygon style="fill:#F1543F;" points="347.3,208.6 277.9,221.5 265.1,290.9 334.5,278 "/>
<path style="fill:#FF7058;" d="M273.7,364.7c1.4,1.4,3.4,1.9,5.2,1.4c-0.5,1.8-0.1,3.8,1.3,5.2c2.1,2.1,5.4,2.1,7.5,0
	c6.4-6.3,4.5-18.5,4.5-18.5s-12.1-2-18.5,4.4C271.7,359.3,271.6,362.7,273.7,364.7z"/>
<path style="fill:#E6E9EE;" d="M281.1,395.6l-157-62.7c-1.4-0.6-2.1-2.1-1.5-3.5l87.3-218.7c0.6-1.4,2.1-2.1,3.5-1.5l157,62.7
	c1.4,0.6,2.1,2.1,1.5,3.5l-87.3,218.7C284,395.5,282.5,396.1,281.1,395.6z"/>
<path style="fill:#324A5E;" d="M279.3,220.4c-7.2-2.9-15-1.4-20.6,3.2c-0.9-7.2-5.6-13.6-12.7-16.5c-10.5-4.2-22.4,0.9-26.6,11.4
	c-12.9,32.3,12.5,72.4,12.5,72.4s46-11.7,58.9-43.9C294.9,236.5,289.8,224.6,279.3,220.4z"/>
<path style="fill:#FF7058;" d="M263.2,370.8c1.9,0.7,3.9,0.4,5.3-0.8c0.2,1.9,1.4,3.5,3.3,4.3c2.7,1.1,5.8-0.2,6.9-3
	c3.3-8.3-3.2-18.7-3.2-18.7s-11.9,3-15.2,11.4C259.1,366.6,260.5,369.7,263.2,370.8z"/>
<path style="fill:#FFFFFF;" d="M280.9,396.6h-169c-1.5,0-2.7-1.2-2.7-2.7V158.4c0-1.5,1.2-2.7,2.7-2.7h169c1.5,0,2.7,1.2,2.7,2.7
	v235.5C283.6,395.4,282.4,396.6,280.9,396.6z"/>
<g>
	<path style="fill:#FF7058;" d="M214.3,234.6c-7.7,0-14.5,4.3-17.9,10.6c-3.5-6.3-10.2-10.6-17.9-10.6c-11.3,0-20.5,9.2-20.5,20.5
		c0,34.7,38.4,62.7,38.4,62.7s38.4-27.9,38.4-62.7C234.8,243.7,225.6,234.6,214.3,234.6z"/>
	<path style="fill:#FF7058;" d="M255.1,380.2c2,0,3.7-1.1,4.6-2.7c0.9,1.6,2.6,2.7,4.6,2.7c2.9,0,5.3-2.4,5.3-5.3
		c0-9-9.9-16.2-9.9-16.2s-9.9,7.2-9.9,16.2C249.8,377.8,252.1,380.2,255.1,380.2z"/>
	<path style="fill:#FF7058;" d="M137.7,172.1c-2,0-3.7,1.1-4.6,2.7c-0.9-1.6-2.6-2.7-4.6-2.7c-2.9,0-5.3,2.4-5.3,5.3
		c0,9,9.9,16.2,9.9,16.2s9.9-7.2,9.9-16.2C142.9,174.4,140.6,172.1,137.7,172.1z"/>
</g>
<path style="fill:#324A5E;" d="M222.6,136.2c0.5-0.5,1-1.1,1.3-1.7c1.3-2.7,0.1-6-2.6-7.3c-2.7-1.3-6-0.1-7.3,2.6
	c-0.3,0.7-0.5,1.4-0.5,2.1c-2.7-1.3-6-0.1-7.3,2.6c-1.3,2.7-0.1,6,2.6,7.3c1.4,0.6,2.8,0.7,4.1,0.2l-3.5,2.8l5.7,2.7L215,143
	c0.5,1.3,1.4,2.4,2.8,3.1c2.7,1.3,6,0.1,7.3-2.6C226.5,140.8,225.4,137.5,222.6,136.2z"/>
<polygon style="fill:#F1543F;" points="332,123.9 318.1,126.4 315.5,140.3 329.4,137.7 "/>
<g>
</g>
<g>
</g>
<g>
</g>
<g>
</g>
<g>
</g>
<g>
</g>
<g>
</g>
<g>
</g>
<g>
</g>
<g>
</g>
<g>
</g>
<g>
</g>
<g>
</g>
<g>
</g>
<g>
</g>
</svg>
