<?xml version="1.0" encoding="iso-8859-1"?>
<!-- Generator: Adobe Illustrator 19.0.0, SVG Export Plug-In . SVG Version: 6.00 Build 0)  -->
<svg version="1.1" id="Layer_1" xmlns="http://www.w3.org/2000/svg" xmlns:xlink="http://www.w3.org/1999/xlink" x="0px" y="0px"
	 viewBox="0 0 504 504" style="enable-background:new 0 0 504 504;" xml:space="preserve">
<circle style="fill:#324A5E;" cx="252" cy="252" r="252"/>
<path style="fill:#FFD05B;" d="M277.5,215c-17.1,0-33.2-6.7-45.3-18.7c-25-25-25-65.6,0-90.5C244.3,93.6,260.4,87,277.5,87
	s33.2,6.7,45.3,18.7c25,25,25,65.6,0,90.5C310.6,208.3,294.6,215,277.5,215z M277.5,94.6c-15.1,0-29.2,5.9-39.9,16.5
	c-22,22-22,57.8,0,79.8c10.7,10.7,24.8,16.5,39.9,16.5s29.2-5.9,39.9-16.5c22-22,22-57.8,0-79.8C306.7,100.4,292.5,94.6,277.5,94.6z
	"/>
<polygon style="fill:#ACB3BA;" points="351.7,412.8 309.3,412.8 309.3,388.8 325,388.8 325,369.8 309.3,369.8 309.3,352.5 
	351.7,352.5 "/>
<path style="fill:#CED5E0;" d="M340.7,237.8v178.3c0,7.1,5.8,12.8,12.8,12.8l0,0c7.1,0,12.8-5.7,12.8-12.8V237.8H340.7z"/>
<path style="fill:#E6E9EE;" d="M353.6,121.6c-37.1,0-67.2,27.1-67.2,60.5s30.1,60.5,67.2,60.5s67.2-27.1,67.2-60.5
	C420.8,148.7,390.7,121.6,353.6,121.6z M346.6,133.7c2.7-2.7,7.2-2.7,9.9,0c2.7,2.7,2.7,7.2,0,9.9s-7.2,2.7-9.9,0
	C343.9,140.8,343.9,136.4,346.6,133.7z M372.9,217c-7.4,0-14.1-2.5-19.3-6.8c-5.3,4.3-12,6.8-19.3,6.8c-17.1,0-30.9-13.9-30.9-31
	s13.8-30.9,30.9-30.9c7.3,0,14,2.5,19.3,6.8c5.2-4.2,12-6.7,19.3-6.8c17.1,0,31,13.8,31,31C403.8,203.1,390,217,372.9,217z"/>
<path style="fill:#F1543F;" d="M77.5,351c-1.7-1.7-2.7-4.1-2.7-6.5V203.4c0-5.1,4.1-9.2,9.2-9.2h141.1c2.5,0,4.8,1,6.5,2.7
	s2.7,4.1,2.7,6.5v141.1c0,5.1-4.1,9.2-9.2,9.2H84C81.6,353.7,79.2,352.7,77.5,351z"/>
<path style="fill:#FFD05B;" d="M322.7,105.7c-1-1-2-1.8-3-2.7v10.7c18.8,21.3,18.8,53.3,0,74.6V199c1-0.9,2-1.8,3-2.7
	C347.7,171.3,347.7,130.7,322.7,105.7z"/>
<path style="fill:#FF7058;" d="M178.1,250.3L178.1,250.3c-12.7-12.7-12.7-33.4,0-46.2l50.3-50.3l46.2,46.2l-50.3,50.3
	C211.5,263.1,190.8,263.1,178.1,250.3z"/>
<circle style="fill:#FFFFFF;" cx="197.8" cy="230.6" r="14.8"/>
<g>
</g>
<g>
</g>
<g>
</g>
<g>
</g>
<g>
</g>
<g>
</g>
<g>
</g>
<g>
</g>
<g>
</g>
<g>
</g>
<g>
</g>
<g>
</g>
<g>
</g>
<g>
</g>
<g>
</g>
</svg>
