<?xml version="1.0" encoding="iso-8859-1"?>
<!-- Generator: Adobe Illustrator 19.0.0, SVG Export Plug-In . SVG Version: 6.00 Build 0)  -->
<svg version="1.1" id="Layer_1" xmlns="http://www.w3.org/2000/svg" xmlns:xlink="http://www.w3.org/1999/xlink" x="0px" y="0px"
	 viewBox="0 0 504 504" style="enable-background:new 0 0 504 504;" xml:space="preserve">
<circle style="fill:#FFD05B;" cx="252" cy="252" r="252"/>
<path style="fill:#324A5E;" d="M303.4,145.1c-15.3-15.3-35.3-22.9-55.4-22.9c-20,0-40.1,7.6-55.4,22.9c-30.6,30.6-30.6,80.2,0,110.8
	l125.8,125.9L429.2,271L303.4,145.1z M228.8,181.3c-5,5-13.2,5-18.2,0s-5-13.1,0-18.1s13.2-5,18.2,0S233.8,176.3,228.8,181.3z"/>
<rect x="274.062" y="250.283" transform="matrix(-0.7071 0.7071 -0.7071 -0.7071 774.2512 253.5602)" style="fill:#2B3B4E;" width="121.099" height="73.699"/>
<polygon style="fill:#CED5E0;" points="156.6,294.5 148.6,302.5 156.6,318.1 156.6,318.2 146.4,328.5 156.6,344.6 156.6,353 
	129,372.3 106,353 106,220.2 156.6,220.2 "/>
<polygon style="fill:#ACB3BA;" points="129.1,220.2 106,220.2 106,353 129,372.3 129.1,372.2 "/>
<path style="fill:#E6E9EE;" d="M131.3,132c-31.2,0-56.5,25.3-56.5,56.5s25.3,56.5,56.5,56.5s56.5-25.3,56.5-56.5
	S162.5,132,131.3,132z M131.3,182.3c-7.4,0-13.4-6-13.4-13.4s6-13.4,13.4-13.4c7.4,0,13.4,6,13.4,13.4S138.7,182.3,131.3,182.3z"/>
<path style="fill:#FFD05B;" d="M212.1,161.9c-0.6,0.4-1.1,0.8-1.6,1.3s-0.9,1-1.3,1.5c5.5,2.5,8.5,5.4,8.4,8c-0.1,2.4-3.1,5-8.4,7
	c-5.2,2-12.6,3.5-21.7,4.1c-2.5,0.2-5.2,0.3-8,0.3c-1.9,0-3.8,0-5.7-0.1c-0.8,0-1.6-0.1-2.4-0.2c-11-0.6-21.1-2.6-28.8-5.5
	c-0.4-0.2-0.8-0.3-1.2-0.5c-6.6-2.7-10.5-5.9-10.4-8.8c0.1-2.8,4.1-5.8,11.2-8c-0.9-1.1-1.9-2.1-3-3c-7,2.4-11.8,6-12,10.8
	c-0.2,4.4,3.5,8.4,10.8,11.7c1,0.5,2.1,0.9,3.2,1.4c7.9,3,18.3,5,29.5,5.7c1,0.1,1.9,0.2,2.9,0.2c2,0.1,3.9,0.1,5.9,0.1
	c2.7,0,5.5-0.1,8.2-0.3c9.1-0.6,18-2.2,24.4-5c5.6-2.4,9.2-5.6,9.4-9.8C221.7,168.5,218.1,164.8,212.1,161.9z M182,158.2
	c0.8-1.2,1.6-2.4,2.4-3.5c-2.8-0.3-5.7-0.6-8.5-0.7c1,1.3,2,2.6,2.8,4C179.9,158,181,158.1,182,158.2z"/>
<g>
</g>
<g>
</g>
<g>
</g>
<g>
</g>
<g>
</g>
<g>
</g>
<g>
</g>
<g>
</g>
<g>
</g>
<g>
</g>
<g>
</g>
<g>
</g>
<g>
</g>
<g>
</g>
<g>
</g>
</svg>
