<?xml version="1.0" encoding="iso-8859-1"?>
<!-- Generator: Adobe Illustrator 19.0.0, SVG Export Plug-In . SVG Version: 6.00 Build 0)  -->
<svg version="1.1" id="Layer_1" xmlns="http://www.w3.org/2000/svg" xmlns:xlink="http://www.w3.org/1999/xlink" x="0px" y="0px"
	 viewBox="0 0 504 504" style="enable-background:new 0 0 504 504;" xml:space="preserve">
<circle style="fill:#FD8469;" cx="252" cy="252" r="252"/>
<path style="fill:#324A5E;" d="M252,123.3c-2.2,0-3.9-1.8-3.9-3.9V111c0-13,4.9-25.9,14.3-37.2c2-2.4,3.1-5.4,3.1-8.6
	c0-7.4-6-13.5-13.5-13.5c-7.4,0-13.5,6-13.5,13.5c0,2.2-1.8,3.9-3.9,3.9c-2.2,0-3.9-1.8-3.9-3.9c0-11.8,9.6-21.3,21.3-21.3
	s21.3,9.6,21.3,21.3c0,5-1.7,9.8-4.9,13.6c-8.2,9.9-12.5,21-12.5,32.2v8.4C255.9,121.5,254.2,123.3,252,123.3z"/>
<path style="fill:#FFD05B;" d="M430.4,248.9c-1.3-1.5-2.5-3.3-4-4.5l-2.3-1.9l-1.1-0.9l-0.8-0.6c-2.3-1.7-4.5-3.3-6.7-5
	c-8.9-6.6-17.6-12.9-25.8-19.2c-8.3-6.3-16.3-12.4-23.9-18.2c-15.4-11.6-29.3-22.6-41.6-32.3c-12.4-9.6-23-18.3-31.7-25.4
	c-8.8-7-15.5-12.9-20.2-16.7c-4.6-3.9-7.1-6-7.1-6c-7.4-6.3-18.5-6.5-26.2,0c0,0-2.5,2.1-7.1,6c-4.7,3.8-11.4,9.7-20.2,16.7
	c-8.8,7.1-19.3,15.8-31.7,25.4c-12.3,9.7-26.2,20.7-41.6,32.3c-7.7,5.8-15.7,11.9-23.9,18.2c-8.3,6.3-17,12.6-25.8,19.2
	c-2.2,1.6-4.5,3.3-6.7,5l-0.8,0.6c0.1-0.1-1.4,1-0.9,0.7l-0.2,0.2l-0.4,0.3l-1.6,1.4l-0.8,0.7l-1.2,1.3c-0.8,0.9-1.5,1.7-2.3,2.6
	c-5.2,6.7-7,15.2-6,23.1c1,8,5.1,15.4,11.3,20.7c1.5,1.4,3.4,2.3,5.1,3.5c1.9,0.8,3.7,1.8,5.7,2.3s4,1.1,6,1.1l3,0.2
	c1,0,1.6,0,2.4,0c12-0.3,24.3-0.6,36.7-0.9c6.2-0.1,12.4-0.3,18.7-0.4s12.6-0.1,18.9-0.2c25.3-0.2,51-0.4,76.6-0.6
	c25.7,0.2,51.4,0.4,76.6,0.6c6.3,0.1,12.6,0.1,18.9,0.2c6.3,0.2,12.5,0.3,18.7,0.4c12.4,0.3,24.6,0.6,36.7,0.9h1.1h0.6
	c-0.5,0,1,0,0.9,0h0.3l2.2-0.1c1.1,0.1,3.9-0.5,6-1.1c2.2-0.6,3.9-1.5,5.8-2.3c1.7-1.1,3.6-2.1,5.1-3.5c6.2-5.3,10.4-12.7,11.3-20.7
	C437.4,264,435.5,255.3,430.4,248.9z M387.9,268.7c0-9.3,7.6-16.9,16.9-16.9c3.4,0,6.6,1,9.2,2.8c0.8,0.6,1.3,1.1,2,1.6
	c0.4,0.3,0.7,0.6,1,1c0.6,0.6,1.1,1.2,1.5,1.9c0.2,0.2,0.3,0.4,0.4,0.6c0.5,0.8,0.9,1.5,1.3,2.4c0,0.1,0.1,0.2,0.1,0.4
	c0.3,0.7,0.5,1.5,0.7,2.3c0.1,0.6,0.2,1.2,0.3,1.8c0,0.3,0.1,0.6,0.1,0.9c0.1,0.9,0.1,1.9,0,2.8c0,0.1,0,0.1,0,0.2
	c-0.1,1-0.3,2-0.6,2.9c0,0.1-0.1,0.3-0.1,0.4c-0.3,0.9-0.6,1.8-1.1,2.6c-0.1,0.1-0.1,0.2-0.2,0.4c-0.4,0.8-0.9,1.5-1.4,2.2
	c-0.2,0.3-0.4,0.5-0.7,0.8c-0.4,0.4-0.8,0.8-1.2,1.2c-2.7,2.6-6.3,4.2-10.3,4.4l-1.2,0.1C395.4,285.5,387.9,278,387.9,268.7z
	 M99.4,285.6c-0.1,0-0.3,0-0.4,0h-0.4c-0.6,0-1.2-0.1-1.8-0.2c-0.4,0-0.8-0.1-1.1-0.2c-3-0.7-5.7-2.1-7.9-4.1
	c-0.4-0.4-0.8-0.8-1.2-1.2c-0.2-0.3-0.5-0.5-0.7-0.8c-0.5-0.7-1-1.4-1.4-2.2c-0.1-0.1-0.1-0.2-0.2-0.4c-0.4-0.8-0.8-1.7-1.1-2.6
	c0-0.1-0.1-0.3-0.1-0.4c-0.3-1-0.5-1.9-0.6-2.9c0-0.1,0-0.1,0-0.2c-0.1-0.9-0.1-1.9,0-2.8c0-0.3,0.1-0.6,0.1-0.9
	c0.1-0.6,0.2-1.2,0.3-1.8c0.2-0.8,0.4-1.6,0.7-2.3c0-0.1,0.1-0.2,0.1-0.4c0.4-0.8,0.8-1.6,1.3-2.4c0.1-0.2,0.2-0.4,0.4-0.6
	c0.5-0.7,1-1.4,1.6-2c0.9-0.8,1.9-1.7,3.1-2.6c2.6-1.7,5.7-2.7,9-2.7c9.3,0,16.9,7.6,16.9,16.9C116.1,278,108.6,285.5,99.4,285.6z
	 M252,285.6c-43.9,0-87.8,0-129.6,0c3.5-4.7,5.5-10.6,5.5-16.9c0-12.4-7.9-23-19-26.9c14.1-9.6,27.6-18.7,40.2-27.3
	c53.3-36.2,91.8-62.3,102.9-69.9c11.1,7.6,49.6,33.7,102.9,69.9c12.6,8.6,26.1,17.7,40.2,27.3c-11,4-19,14.5-19,26.9
	c0,6.3,2.1,12.1,5.5,16.9C339.8,285.6,295.9,285.6,252,285.6z"/>
<path style="fill:#E6E9EE;" d="M360.1,433H143.9c-3.2,0-5.7-2.6-5.7-5.7V274.9c0-1.4,1.1-2.5,2.5-2.5h222.8c1.4,0,2.5,1.1,2.5,2.5
	v152.3C365.9,430.4,363.3,433,360.1,433z"/>
<g>
	<rect x="138.1" y="382.8" style="fill:#324A5E;" width="227.7" height="23.3"/>
	<rect x="138.1" y="366.4" style="fill:#324A5E;" width="227.7" height="5.9"/>
</g>
<g>
</g>
<g>
</g>
<g>
</g>
<g>
</g>
<g>
</g>
<g>
</g>
<g>
</g>
<g>
</g>
<g>
</g>
<g>
</g>
<g>
</g>
<g>
</g>
<g>
</g>
<g>
</g>
<g>
</g>
</svg>
