<?xml version="1.0" encoding="iso-8859-1"?>
<!-- Generator: Adobe Illustrator 19.0.0, SVG Export Plug-In . SVG Version: 6.00 Build 0)  -->
<svg version="1.1" id="Layer_1" xmlns="http://www.w3.org/2000/svg" xmlns:xlink="http://www.w3.org/1999/xlink" x="0px" y="0px"
	 viewBox="0 0 504 504" style="enable-background:new 0 0 504 504;" xml:space="preserve">
<circle style="fill:#FD8469;" cx="252" cy="252" r="252"/>
<path style="fill:#F1543F;" d="M38.2,385.3C82.7,456.6,161.8,504,252,504s169.3-47.4,213.8-118.7H38.2z"/>
<path style="fill:#FFD05B;" d="M299,171.3c0,0-0.2-0.7-0.6-2.1c-0.4-1.3-1-3.3-1.6-5.8s-1.4-5.5-2-9c-0.3-1.7-0.7-3.6-1.1-5.6
	c-0.2-1-0.3-2-0.5-3l-0.2-1.6l-0.1-0.8v-0.2v-0.1c0,1.2,0,0.3,0,0.5l0,0l-0.1-0.4c-0.1-0.5-0.2-1.2-0.3-1.5h-0.3
	c-0.3-0.3-0.5-0.7-0.8-0.9c-0.6-0.6-1.2-1.1-1.9-1.5c-1.4-0.7-2.9-0.6-4-0.3c-2.6,0.2-5.2,0.4-7.8,0.5c-2.8,0.2-5.6,0.4-8.4,0.4
	c-5.6,0.2-11.4,0.3-17.1,0.3c-5.7-0.1-11.4-0.1-17.1-0.3c-2.8-0.1-5.6-0.2-8.4-0.4c-1.4-0.1-2.8-0.2-4.1-0.3l-2-0.1l-1-0.1h-0.5H219
	c1.5,0,0.4,0,0.7,0h-0.1h-0.3h-1h-0.5c-0.1,0,0,0,0,0s0.4-0.2,0.1-0.1c-0.3,0-0.6-0.1-1,0c-0.7,0-1.5,0.2-2.2,0.6
	c-1.3,0.8-2.7,1.9-3.4,3.6c-0.1,0.1-0.2,0.8-0.3,1.3l-0.2,1.6c-0.2,1-0.3,2-0.5,3c-0.4,2-0.7,3.8-1.1,5.6c-0.6,3.5-1.4,6.5-2,9
	s-1.2,4.5-1.5,5.8c-0.4,1.3-0.6,2.1-0.6,2.1h-10.9c0,0,0-11.5,0-28.8c0.1-5.5,2.3-11.5,6.5-16.1c2.1-2.3,4.8-4.3,7.8-5.7
	c1.5-0.7,3.1-1.2,4.7-1.6c0.8-0.2,1.8-0.3,2.7-0.5c1-0.2,1.4-0.1,2.2-0.2c10.8,0,22.4,0,33.9,0c11.5,0,23,0,33.8,0
	c6.9,0.1,13.4,3.3,17.6,7.9c4.3,4.5,6.5,10.8,6.5,16c0,17.3,0,28.9,0,28.9H299V171.3z"/>
<g>
	<rect x="286.6" y="163.9" style="fill:#2B3B4E;" width="35.7" height="14.9"/>
	<rect x="181.7" y="163.9" style="fill:#2B3B4E;" width="35.7" height="14.9"/>
</g>
<path style="fill:#E6E9EE;" d="M398.5,385.5h-293c-2.2,0-4-1.8-4-4V176.4c0-2.2,1.8-4,4-4h293c2.2,0,4,1.8,4,4v205.1
	C402.5,383.7,400.7,385.5,398.5,385.5z"/>
<g>
	<rect x="338.5" y="172.4" style="fill:#ACB3BA;" width="21.4" height="213.1"/>
	<rect x="144.2" y="172.4" style="fill:#ACB3BA;" width="21.4" height="213.1"/>
</g>
<polygon style="fill:#84DBFF;" points="234.1,205.7 213.3,218.8 213.3,277.2 234.1,277.2 254.8,277.2 254.8,218.8 "/>
<circle style="fill:#FFFFFF;" cx="234.1" cy="222.2" r="5"/>
<path style="fill:#324A5E;" d="M234.1,170.4c-1.1,0-2,0.9-2,2v47.7c0,1.1,0.9,2,2,2s2-0.9,2-2v-47.7
	C236,171.3,235.1,170.4,234.1,170.4z"/>
<g>
</g>
<g>
</g>
<g>
</g>
<g>
</g>
<g>
</g>
<g>
</g>
<g>
</g>
<g>
</g>
<g>
</g>
<g>
</g>
<g>
</g>
<g>
</g>
<g>
</g>
<g>
</g>
<g>
</g>
</svg>
