<?xml version="1.0" encoding="iso-8859-1"?>
<!-- Generator: Adobe Illustrator 19.0.0, SVG Export Plug-In . SVG Version: 6.00 Build 0)  -->
<svg version="1.1" id="Layer_1" xmlns="http://www.w3.org/2000/svg" xmlns:xlink="http://www.w3.org/1999/xlink" x="0px" y="0px"
	 viewBox="0 0 504 504" style="enable-background:new 0 0 504 504;" xml:space="preserve">
<path style="fill:#90DFAA;" d="M504,252c0,133.1-103.1,242-233.8,251.3c-6,0.4-12.1,0.7-18.2,0.7s-12.2-0.2-18.2-0.7
	C103.1,494,0,385.1,0,252C0,112.8,112.8,0,252,0S504,112.8,504,252z"/>
<path style="fill:#FFFFFF;" d="M126.3,195.4c-21.1,19.7-35.7,62.9-35.7,113c0,35.5,7.3,93.9,19.1,116.5h84.6
	c11.7-22.7,19.1-81.1,19.1-116.5c0-49.8-14.4-92.7-35.2-112.6c-3.2-3.1-4-8.9-1.6-13c6.4-11,10.4-26.4,10.4-43.4
	c0-33.6-15.5-60.7-34.6-60.7s-34.6,27.2-34.6,60.7c0,16.8,3.9,32.1,10.2,43.1C130.4,186.6,129.6,192.4,126.3,195.4z"/>
<g>
	<path style="fill:#FF7058;" d="M184.4,161.9c-1,4.5-2.3,8.8-3.9,12.7h-56.3c-1.6-3.9-2.9-8.2-3.9-12.7H184.4z"/>
	<path style="fill:#FF7058;" d="M194.6,218.8h-85.2c2.4-4.7,4.9-8.9,7.6-12.7h70C189.7,209.9,192.2,214.2,194.6,218.8z"/>
</g>
<circle style="fill:#324A5E;" cx="292.7" cy="304.7" r="120.6"/>
<g>
	<circle style="fill:#E6E9EE;" cx="296.9" cy="229.5" r="12.4"/>
	<circle style="fill:#E6E9EE;" cx="300.8" cy="267.9" r="12.4"/>
	<circle style="fill:#E6E9EE;" cx="266.7" cy="250.9" r="12.4"/>
</g>
<g>
</g>
<g>
</g>
<g>
</g>
<g>
</g>
<g>
</g>
<g>
</g>
<g>
</g>
<g>
</g>
<g>
</g>
<g>
</g>
<g>
</g>
<g>
</g>
<g>
</g>
<g>
</g>
<g>
</g>
</svg>
