<?xml version="1.0" encoding="iso-8859-1"?>
<!-- Generator: Adobe Illustrator 19.0.0, SVG Export Plug-In . SVG Version: 6.00 Build 0)  -->
<svg version="1.1" id="Layer_1" xmlns="http://www.w3.org/2000/svg" xmlns:xlink="http://www.w3.org/1999/xlink" x="0px" y="0px"
	 viewBox="0 0 504 504" style="enable-background:new 0 0 504 504;" xml:space="preserve">
<circle style="fill:#FD8469;" cx="252" cy="252" r="252"/>
<circle style="fill:#324A5E;" cx="252" cy="252" r="177.2"/>
<path style="fill:#FFFFFF;" d="M390,260.3h7.7c-4.1,74-63.4,133.3-137.4,137.4V390c0-2.3-0.9-4.4-2.4-5.9s-3.6-2.4-5.8-2.4
	c-4.6,0-8.3,3.7-8.3,8.3v7.7c-74-4.1-133.3-63.4-137.4-137.4h7.7c2.3,0,4.3-0.9,5.8-2.4s2.4-3.6,2.4-5.9c0-4.5-3.7-8.3-8.3-8.3h-7.7
	c4.1-74,63.4-133.3,137.4-137.4v7.7c0,2.3,0.9,4.4,2.4,5.9s3.6,2.4,5.9,2.4c4.5,0,8.3-3.7,8.3-8.3v-7.7
	c74,4.1,133.3,63.4,137.4,137.4H390c-2.3,0-4.4,0.9-5.8,2.4c-1.5,1.5-2.4,3.6-2.4,5.8C381.7,256.6,385.4,260.3,390,260.3z"/>
<path style="fill:#FF7058;" d="M334.6,331.6l-81.1-81.1c-0.8-0.8-2.2-0.8-3,0s-0.8,2.2,0,3l81.1,81.1c0.4,0.4,0.9,0.6,1.5,0.6
	s1.1-0.2,1.5-0.6C335.4,333.8,335.4,332.4,334.6,331.6z"/>
<g>
	<path style="fill:#FFD05B;" d="M252,137.1c-3.5,0-6.3,2.8-6.3,6.3V252c0,3.5,2.8,6.3,6.3,6.3s6.3-2.8,6.3-6.3V143.4
		C258.3,140,255.5,137.1,252,137.1z"/>
	<path style="fill:#FFD05B;" d="M256.5,247.5c-2.5-2.5-6.5-2.5-8.9,0l-58.4,58.4c-2.5,2.5-2.5,6.5,0,8.9c1.2,1.2,2.8,1.8,4.5,1.8
		c1.6,0,3.2-0.6,4.5-1.8l58.4-58.4C258.9,254,258.9,250,256.5,247.5z"/>
</g>
<circle style="fill:#E6E9EE;" cx="252" cy="252" r="26.7"/>
<circle style="fill:#CED5E0;" cx="252" cy="252" r="15"/>
<g>
</g>
<g>
</g>
<g>
</g>
<g>
</g>
<g>
</g>
<g>
</g>
<g>
</g>
<g>
</g>
<g>
</g>
<g>
</g>
<g>
</g>
<g>
</g>
<g>
</g>
<g>
</g>
<g>
</g>
</svg>
