<?xml version="1.0" encoding="iso-8859-1"?>
<!-- Generator: Adobe Illustrator 19.0.0, SVG Export Plug-In . SVG Version: 6.00 Build 0)  -->
<svg version="1.1" id="Layer_1" xmlns="http://www.w3.org/2000/svg" xmlns:xlink="http://www.w3.org/1999/xlink" x="0px" y="0px"
	 viewBox="0 0 504 504" style="enable-background:new 0 0 504 504;" xml:space="preserve">
<circle style="fill:#84DBFF;" cx="252" cy="252" r="252"/>
<path style="fill:#456275;" d="M401.4,404.3H102.6c-1.6,0-3-1.3-3-3V102.6c0-1.6,1.3-3,3-3h298.7c1.6,0,3,1.3,3,3v298.7
	C404.3,403,403,404.3,401.4,404.3z"/>
<rect x="119.3" y="119.3" style="fill:#2B3B4E;" width="265.4" height="265.4"/>
<path style="fill:#E6E9EE;" d="M310,250.2H143.4c-1.3,0-2.3-1-2.3-2.3V142.5c0-1.3,1-2.3,2.3-2.3H310c1.3,0,2.3,1,2.3,2.3v105.4
	C312.3,249.2,311.3,250.2,310,250.2z"/>
<path style="fill:#4CDBC4;" d="M362.8,162.5h-29.9c-0.2,0-0.4-0.2-0.4-0.4v-15.9c0-0.2,0.2-0.4,0.4-0.4h29.9c0.2,0,0.4,0.2,0.4,0.4
	v15.9C363.2,162.3,363,162.5,362.8,162.5z"/>
<path style="fill:#FF7058;" d="M362.8,189.9h-29.9c-0.2,0-0.4-0.2-0.4-0.4v-15.9c0-0.2,0.2-0.4,0.4-0.4h29.9c0.2,0,0.4,0.2,0.4,0.4
	v15.9C363.2,189.7,363,189.9,362.8,189.9z"/>
<path style="fill:#E6E9EE;" d="M362.8,217.3h-29.9c-0.2,0-0.4-0.2-0.4-0.4V201c0-0.2,0.2-0.4,0.4-0.4h29.9c0.2,0,0.4,0.2,0.4,0.4
	v15.9C363.2,217.1,363,217.3,362.8,217.3z"/>
<path style="fill:#FFD05B;" d="M362.8,244.7h-29.9c-0.2,0-0.4-0.2-0.4-0.4v-15.9c0-0.2,0.2-0.4,0.4-0.4h29.9c0.2,0,0.4,0.2,0.4,0.4
	v15.9C363.2,244.5,363,244.7,362.8,244.7z"/>
<rect x="246.2" y="270.7" style="fill:#324A5E;" width="118.6" height="15.7"/>
<g>
	<polygon style="fill:#ACB3BA;" points="364.8,270.7 364.8,276 332.9,276 332.9,273.7 278,273.7 278,276 246.2,276 246.2,270.7 	"/>
	<polygon style="fill:#ACB3BA;" points="364.8,286.4 364.8,281.1 332.9,281.1 332.9,283.3 278,283.3 278,281.1 246.2,281.1 
		246.2,286.4 	"/>
	<rect x="148.2" y="314.9" style="fill:#ACB3BA;" width="207.6" height="38.4"/>
</g>
<g>
	<path style="fill:#FF7058;" d="M203.1,211.7l-3.1-7.1h-13.8l-3.1,7.1h-7.8l14.3-33h7.1l14.3,33H203.1z M193.2,188.5l-4.2,9.6h8.3
		L193.2,188.5z"/>
	<path style="fill:#FF7058;" d="M226.4,185.1v26.6H219v-26.6h-9.4v-6.4h26.1v6.4H226.4z"/>
	<path style="fill:#FF7058;" d="M270.7,190.9l-8.9,18h-4.4l-8.9-18v20.8h-7.4v-33h10l8.5,18.1l8.6-18.1h9.9v33h-7.4L270.7,190.9
		L270.7,190.9z"/>
</g>
<rect x="158.8" y="326.3" style="fill:#2B3B4E;" width="186.5" height="15.8"/>
<polygon style="fill:#2C9984;" points="355.9,389.9 141.6,389.9 168.4,335.1 329.1,335.1 "/>
<path style="fill:#4CDBC4;" d="M160.9,371.7l10.7-24.6c5,0,10.4-3.6,12.1-7.9h130c1.6,4.3,7.1,7.9,12.1,7.9l10.7,24.6
	c-5.7,0-8.4,4.9-5.9,11.4H166.8C169.3,376.6,166.6,371.7,160.9,371.7z"/>
<g>
	<path style="fill:#2C9984;" d="M276.5,358.6c1.3,8.6-11.1,16.1-27.7,16.1s-29-7.5-27.7-16.1c1.2-7.9,13.5-13.8,27.7-13.8
		C262.9,344.8,275.3,350.7,276.5,358.6z"/>
	<path style="fill:#2C9984;" d="M309.7,358.6c0.9,2.7-2.5,4.9-7.6,4.9s-9.7-2.2-10.3-4.9c-0.6-2.6,2.8-4.7,7.6-4.7
		C304.3,353.9,308.8,356,309.7,358.6z"/>
	<path style="fill:#2C9984;" d="M205.7,358.6c-0.6,2.7-5.2,4.9-10.3,4.9s-8.4-2.2-7.6-4.9c0.8-2.6,5.4-4.7,10.2-4.7
		C202.9,353.9,206.3,356,205.7,358.6z"/>
</g>
<g>
</g>
<g>
</g>
<g>
</g>
<g>
</g>
<g>
</g>
<g>
</g>
<g>
</g>
<g>
</g>
<g>
</g>
<g>
</g>
<g>
</g>
<g>
</g>
<g>
</g>
<g>
</g>
<g>
</g>
</svg>
