<?xml version="1.0" encoding="iso-8859-1"?>
<!-- Generator: Adobe Illustrator 19.0.0, SVG Export Plug-In . SVG Version: 6.00 Build 0)  -->
<svg version="1.1" id="Layer_1" xmlns="http://www.w3.org/2000/svg" xmlns:xlink="http://www.w3.org/1999/xlink" x="0px" y="0px"
	 viewBox="0 0 504 504" style="enable-background:new 0 0 504 504;" xml:space="preserve">
<circle style="fill:#FD8469;" cx="252" cy="252" r="252"/>
<path style="fill:#FF7058;" d="M49.6,401.2C95.5,463.5,169.3,504,252.6,504s157.1-40.5,203-102.8H49.6z"/>
<path style="fill:#324A5E;" d="M121.5,215.3L121.5,215.3c-2.2,0-4-1.8-4-4v-10.2c0-2.2,1.8-4,4-4l0,0c2.2,0,4,1.8,4,4v10.2
	C125.5,213.5,123.7,215.3,121.5,215.3z"/>
<circle style="fill:#FFD05B;" cx="121.9" cy="228.1" r="20.5"/>
<polygon style="fill:#E6E9EE;" points="359.7,189 346.9,183.9 307.1,168.4 288.1,183.2 269.1,168.4 216.4,189 189.1,239.5 
	288.1,239.5 294.1,239.5 346.9,239.5 387.1,239.5 "/>
<g>
	<polygon style="fill:#ACB3BA;" points="229.4,183.9 229.4,239.5 282.2,239.5 250.4,175.7 	"/>
	<polygon style="fill:#ACB3BA;" points="346.8,183.9 346.8,239.5 293.9,239.5 325.7,175.7 	"/>
</g>
<circle style="fill:#FFFFFF;" cx="288.1" cy="131.6" r="28.7"/>
<polygon style="fill:#324A5E;" points="391.4,400.9 113.7,400.9 97.7,265.3 407.4,265.3 "/>
<rect x="77.3" y="233.4" style="fill:#2B3B4E;" width="350.5" height="31.9"/>
<g>
</g>
<g>
</g>
<g>
</g>
<g>
</g>
<g>
</g>
<g>
</g>
<g>
</g>
<g>
</g>
<g>
</g>
<g>
</g>
<g>
</g>
<g>
</g>
<g>
</g>
<g>
</g>
<g>
</g>
</svg>
