<?xml version="1.0" encoding="iso-8859-1"?>
<!-- Generator: Adobe Illustrator 19.0.0, SVG Export Plug-In . SVG Version: 6.00 Build 0)  -->
<svg version="1.1" id="Layer_1" xmlns="http://www.w3.org/2000/svg" xmlns:xlink="http://www.w3.org/1999/xlink" x="0px" y="0px"
	 viewBox="0 0 504 504" style="enable-background:new 0 0 504 504;" xml:space="preserve">
<circle style="fill:#84DBFF;" cx="252" cy="252" r="252"/>
<path style="fill:#FF7058;" d="M123.5,175.4c-24.4,29-39.1,66.4-39.1,107.3c0,92.3,74.8,167.1,167.1,167.1S418.6,375,418.6,282.7
	c0-40.9-14.7-78.3-39.1-107.3L123.5,175.4L123.5,175.4z"/>
<ellipse style="fill:#FFFFFF;" cx="251.5" cy="180.7" rx="129.6" ry="30.6"/>
<g>
	<ellipse style="fill:#E6E9EE;" cx="251.5" cy="180.7" rx="89" ry="15.1"/>
	<path style="fill:#E6E9EE;" d="M340.4,180.7c0,8.3-39.8,15.1-88.9,15.1c-21.1,0-40.4-1.2-55.6-3.3c-5.7-0.8-10.8-1.7-15.2-2.7
		c-11.4-2.5-18.1-5.6-18.1-9.1c0-3.6,7.2-6.8,19.2-9.4c4.5-1,9.8-1.8,15.6-2.6c15-2,33.8-3.1,54.2-3.1
		C300.6,165.5,340.4,172.3,340.4,180.7z"/>
</g>
<g>
	<path style="fill:#F1543F;" d="M372.5,225.7c0,0,1,1.2,2.4,3.5c0.7,1.2,1.5,2.6,2.3,4.3s1.7,3.7,2.4,5.9c0.9,2.2,1.5,4.6,2.1,7.2
		c0.4,2.6,1.2,5.4,1.3,8.3c0.3,2.9,0.5,6,0.4,9.1c0,3.1-0.5,6.2-0.8,9.4c-0.4,3.1-1.4,6.1-2,9.2c-0.8,3-2.1,5.8-3,8.5
		c-1.2,2.7-2.5,5.2-3.8,7.5c-1.2,2.4-2.8,4.4-4.1,6.3c-1.3,1.9-2.5,3.7-3.8,5c-1.2,1.4-2.4,2.6-3.3,3.6c-1.9,1.9-3,3-3,3
		s0.6-1.4,1.7-3.9c0.6-1.2,1.2-2.7,2.1-4.3c0.9-1.6,1.5-3.6,2.5-5.6c0.8-2.1,1.9-4.2,2.7-6.6c0.8-2.4,1.7-4.9,2.6-7.4
		c0.7-2.6,1.5-5.3,2.2-8.1c0.5-2.8,1.3-5.6,1.6-8.4c0.4-2.9,0.9-5.7,1-8.5c0.1-1.4,0.2-2.8,0.3-4.2c0-1.4,0-2.8,0-4.1
		c0.1-2.7-0.2-5.3-0.3-7.9c-0.3-2.5-0.4-4.9-0.8-7.1C374.2,231.7,372.5,225.7,372.5,225.7z"/>
	<path style="fill:#F1543F;" d="M328.7,304.8c0,0,0.1,0.4,0.3,1.1c0.1,0.8,0.4,1.9,0.5,3.4c0.2,2.9,0.1,7.1-0.7,12
		c-0.7,4.9-2.1,10.6-4.4,16.4c-1.2,2.9-2.4,5.9-4.1,8.8c-1.6,2.9-3.4,5.8-5.5,8.5s-4.5,5.2-6.9,7.5c-2.5,2.3-5.3,4.2-8.2,5.8
		c-1.4,0.8-2.9,1.5-4.3,2.1c-1.5,0.5-2.9,1.1-4.4,1.5c-2.9,0.8-5.7,1.2-8.2,1.3c-1.3,0-2.5,0.1-3.7,0c-1.1-0.1-2.2-0.2-3.3-0.3
		c-2-0.3-3.7-0.7-5.1-1c-2.8-0.9-4.3-1.5-4.3-1.5s1.7-0.1,4.5-0.1c1.4-0.1,3.1-0.2,5-0.4c1.9-0.2,4-0.6,6.2-1.1
		c2.2-0.6,4.6-1.4,6.9-2.4c2.4-1,4.7-2.4,7-3.9s4.5-3.5,6.6-5.5c2.1-2.1,4.1-4.3,5.9-6.8c3.8-4.7,6.8-10.2,9.5-15.3
		c1.2-2.6,2.5-5.2,3.5-7.7s2-4.9,2.8-7.1c1.6-4.5,2.7-8.3,3.4-11c0.3-1.4,0.5-2.4,0.6-3.2C328.6,305.2,328.7,304.8,328.7,304.8z"/>
	<path style="fill:#F1543F;" d="M193.9,228.9c0,0-0.3,0.3-0.8,0.8c-0.5,0.6-1.2,1.5-2,2.6c-1.6,2.3-3.8,5.7-6.1,9.8
		c-1.2,2.1-2.3,4.3-3.6,6.8c-1.2,2.4-2.3,5-3.5,7.7c-2.2,5.4-4.3,11.2-5.4,17.2c-0.7,3-1.1,6-1.3,8.9c-0.1,2.9-0.2,5.8,0.2,8.6
		c0.3,2.8,0.9,5.4,1.6,7.9c0.8,2.4,1.7,4.7,2.8,6.8c1.1,2,2.2,3.9,3.2,5.5c1.1,1.6,2.1,2.9,3,4c1.8,2.1,2.9,3.4,2.9,3.4
		s-1.4-0.8-3.9-2.3c-1.1-0.9-2.6-1.9-4.1-3.2c-0.7-0.7-1.5-1.5-2.4-2.3c-0.8-0.8-1.5-1.8-2.4-2.8c-1.6-2-3.1-4.4-4.4-7.1
		c-0.6-1.3-1.2-2.8-1.7-4.2c-0.4-1.5-0.9-3-1.2-4.6c-0.7-3.2-1-6.6-0.9-10s0.4-6.8,1.2-10.2c0.7-3.3,1.7-6.6,2.9-9.7
		c1.1-3.1,2.6-6,4-8.8c3-5.5,6.3-10.3,9.6-14.1c3.2-3.8,6.3-6.6,8.6-8.3c1.2-0.9,2.2-1.5,2.8-1.8
		C193.6,229.1,193.9,228.9,193.9,228.9z"/>
	<path style="fill:#F1543F;" d="M284.7,245.9c0,0,0.4,1.8,1.1,4.8c0.6,3.1,1.4,7.6,1.8,13c0.3,2.7,0.4,5.6,0.4,8.8
		c0,3.1,0,6.4-0.3,9.8s-0.6,6.9-1.3,10.5c-0.7,3.5-1.5,7.1-2.4,10.7c-1.1,3.5-2.3,7-3.7,10.4c-1.4,3.4-3.1,6.5-4.8,9.5
		c-3.4,6-7.6,11.2-11.8,14.9c-4.2,3.8-8.4,5.9-11.4,7.1c-1.5,0.6-2.7,0.9-3.6,1c-0.8,0.2-1.3,0.3-1.3,0.3s1.6-0.9,4.1-2.7
		c2.5-1.8,5.7-4.7,8.9-8.7c1.6-2,3.1-4.3,4.7-6.8c1.5-2.5,2.9-5.3,4.3-8.2c1.4-2.9,2.6-6,3.9-9.1c1.2-3.1,2.3-6.4,3.2-9.7
		c1-3.3,1.8-6.6,2.5-10c0.6-3.3,1.4-6.6,1.9-9.8c0.4-3.2,1-6.4,1.3-9.3c0.3-3,0.7-5.8,0.9-8.5C284.1,253,284.7,245.9,284.7,245.9z"
		/>
	<path style="fill:#F1543F;" d="M213.6,287.8c0,0,0.6,7.1,1.5,17.8c0.2,2.6,0.6,5.5,0.9,8.5c0.3,3,0.9,6.1,1.3,9.3
		c0.5,3.2,1.2,6.5,1.9,9.8s1.5,6.7,2.5,10c0.9,3.3,2,6.6,3.2,9.7c1.3,3.1,2.4,6.2,3.9,9.1c1.4,2.9,2.8,5.7,4.3,8.2s3.1,4.8,4.7,6.8
		c3.2,4,6.4,6.9,8.9,8.7c2.5,1.8,4.1,2.7,4.1,2.7s-0.4-0.1-1.3-0.3c-0.8-0.2-2.1-0.5-3.6-1c-3-1.1-7.2-3.3-11.4-7.1
		c-4.2-3.7-8.4-8.9-11.8-14.9c-1.7-3-3.4-6.2-4.8-9.5c-1.4-3.4-2.6-6.8-3.7-10.4c-1-3.5-1.8-7.1-2.4-10.7c-0.7-3.5-1-7.1-1.3-10.5
		s-0.3-6.7-0.3-9.8c0-3.1,0.2-6.1,0.4-8.8c0.4-5.4,1.2-9.9,1.8-13C213.2,289.5,213.6,287.8,213.6,287.8z"/>
	<path style="fill:#F1543F;" d="M107.7,267.8c0,0,1,4.1,2.9,11.3c0.9,3.6,2.1,7.9,3.6,12.9c1.5,4.9,3.3,10.4,5.3,16.4
		c4.3,11.9,9.7,25.6,17.2,39.3c1.8,3.5,3.9,6.8,5.9,10.3c2.2,3.3,4.4,6.8,6.8,10.1c4.7,6.7,10,13,15.9,18.8c2.8,3,6,5.6,9,8.4
		c3.3,2.5,6.4,5.1,9.8,7.3c6.7,4.6,13.8,8.3,20.8,11.3c3.6,1.4,7.1,2.9,10.7,3.9c1.8,0.6,3.5,1.1,5.3,1.6c1.8,0.4,3.5,0.8,5.3,1.2
		c1.7,0.4,3.4,0.8,5.2,1.1c1.7,0.3,3.4,0.5,5.1,0.8c1.7,0.3,3.3,0.6,4.9,0.8c1.6,0.1,3.2,0.3,4.8,0.4c6.2,0.7,12,0.5,17.2,0.8
		c5.1-0.2,9.6-0.3,13.3-0.6c7.4-0.7,11.6-1.1,11.6-1.1s-4.1,1-11.4,2.5c-3.7,0.7-8.2,1.2-13.3,2c-5.2,0.3-11.1,1.1-17.5,0.8
		c-1.6,0-3.3,0-4.9-0.1c-1.7-0.1-3.4-0.3-5.1-0.4c-1.7-0.2-3.5-0.3-5.3-0.5s-3.6-0.6-5.4-0.9c-1.8-0.3-3.7-0.7-5.6-1
		c-1.9-0.5-3.7-0.9-5.6-1.4c-3.9-0.8-7.6-2.3-11.4-3.7c-7.6-3-15.3-6.6-22.4-11.4c-3.7-2.2-7-5-10.5-7.6c-3.3-2.9-6.7-5.6-9.7-8.8
		c-6.2-6.2-11.7-12.9-16.5-19.9c-5-7-9.1-14.3-12.7-21.5c-3.7-7.2-6.6-14.4-9.2-21.3c-2.6-6.9-4.5-13.6-6.3-19.8
		c-3.3-12.4-5-22.9-6.2-30.3c-0.6-3.7-0.9-6.6-1.1-8.6C107.8,268.9,107.7,267.8,107.7,267.8z"/>
	<path style="fill:#F1543F;" d="M366,340.2c0,0,0.4,1.1,0.9,3c0.4,2,1,4.8,1.2,8.2c0.2,3.4,0.2,7.5-0.5,11.8
		c-0.3,2.2-0.7,4.4-1.3,6.6c-0.6,2.2-1.4,4.5-2.4,6.7c-0.9,2.2-2.2,4.3-3.5,6.3c-1.5,1.9-2.9,3.8-4.6,5.3c-0.9,0.8-1.6,1.6-2.5,2.2
		s-1.8,1.2-2.7,1.8c-1.7,1.2-3.7,1.7-5.3,2.5c-1.7,0.6-3.4,0.8-4.8,1.1c-1.4,0.4-2.7,0.2-3.7,0.2c-2,0-3.2-0.2-3.2-0.2
		s1.1-0.5,2.8-1.3c0.9-0.4,2-0.8,3.1-1.5s2.4-1.4,3.7-2.2c0.6-0.5,1.3-1,1.9-1.5c0.7-0.5,1.4-1,2-1.6c1.3-1.2,2.5-2.5,3.7-4
		c1.3-1.3,2.1-3.2,3.3-4.8c0.9-1.8,2-3.5,2.7-5.4c0.9-1.8,1.6-3.8,2.3-5.7c0.6-2,1.4-3.9,1.9-5.8s1.1-3.8,1.5-5.6
		c0.4-1.8,0.8-3.6,1.2-5.1c0.7-3.3,1.3-6,1.7-7.9C365.7,341.4,366,340.2,366,340.2z"/>
	<path style="fill:#F1543F;" d="M155.5,225.7c0,0-0.6,1-1.8,2.6c-1.1,1.6-2.7,3.9-4.6,6.6c-0.9,1.4-1.9,2.8-2.9,4.4
		c-1,1.5-2,3.2-3.1,4.9s-2,3.5-3,5.3c-0.9,1.9-1.9,3.7-2.6,5.6c-0.9,1.9-1.4,3.8-2.1,5.7c-0.4,1.9-1.1,3.8-1.2,5.7
		c-0.3,1.9-0.4,3.7-0.4,5.4c-0.1,0.9,0.1,1.7,0.1,2.5c0.1,0.8,0.1,1.6,0.2,2.4c0.2,1.5,0.7,2.9,0.9,4.2c0.2,1.3,0.8,2.4,1,3.3
		c0.6,1.8,1,3,1,3s-0.8-0.7-2.3-2.2c-0.7-0.8-1.7-1.6-2.4-2.8c-0.7-1.2-1.8-2.6-2.5-4.2c-0.6-1.7-1.6-3.5-1.8-5.6
		c-0.2-1-0.4-2.1-0.6-3.2c-0.2-1.1-0.1-2.2-0.1-3.4c-0.1-2.3,0.3-4.6,0.7-7c0.6-2.3,1.2-4.7,2.2-6.8c0.9-2.2,2-4.3,3.2-6.3
		s2.6-3.8,3.9-5.5c2.7-3.4,5.7-6.2,8.3-8.4s5.1-3.8,6.8-4.8C154.4,226.2,155.5,225.7,155.5,225.7z"/>
</g>
<path style="fill:#324A5E;" d="M347,76.3l-31.2,26.2l-25,21l-3.2,13.4l-3,12.3l-5.2,21.6l-6,24.5c-2.6,0.1-15.8,0.4-19.9,0.5l0,0
	l19.4-79.9c0.5-2,1.6-3.8,3.2-5.1l58.6-49.2L347,76.3z"/>
<g>
	<polygon style="fill:#E6E9EE;" points="338,83.9 327.9,92.4 307.1,84.7 317.3,76.2 	"/>
	<polygon style="fill:#E6E9EE;" points="315.8,102.5 305.7,111.1 284.9,103.4 295.1,94.9 	"/>
	<polygon style="fill:#E6E9EE;" points="287.6,136.9 284.6,149.3 268,136.1 271,123.7 	"/>
	<polygon style="fill:#E6E9EE;" points="279.4,170.8 279.4,170.8 276.4,183.2 259.8,170 262.8,157.6 	"/>
	<path style="fill:#E6E9EE;" d="M265.4,195.6c-3.9,0.1-7.8,0.2-11.8,0.2l2-8.1L265.4,195.6z"/>
</g>
<path style="fill:#324A5E;" d="M197.7,160.7l-0.5,8l-1.5,23.8c-5.7-0.8-10.8-1.7-15.2-2.7l1.1-18.5l0.5-7.8L166,126.8l14.1-6.2
	L197.7,160.7z"/>
<path style="fill:#FFFFFF;" d="M259.5,75.5c-41,9.9-80.9,3.3-113.3-13.2c-11.4,34.5-35.2,67.2-71.3,89
	C147.1,161.4,215.2,133.5,259.5,75.5z"/>
<path style="fill:#4CDBC4;" d="M235.3,102.1c-33.5-6-64-20.3-89.1-39.9c-4.1,31.5-15.7,63.1-35.4,90.9
	C157.5,151.6,200.9,133.8,235.3,102.1z"/>
<path style="fill:#FFFFFF;" d="M200.5,127.7c-20.2-20.2-38.4-42.2-54.3-65.5c5,27.8,7.5,56.2,7.3,84.8
	C170,142.7,185.8,136.2,200.5,127.7z"/>
<g>
</g>
<g>
</g>
<g>
</g>
<g>
</g>
<g>
</g>
<g>
</g>
<g>
</g>
<g>
</g>
<g>
</g>
<g>
</g>
<g>
</g>
<g>
</g>
<g>
</g>
<g>
</g>
<g>
</g>
</svg>
