<?xml version="1.0" encoding="iso-8859-1"?>
<!-- Generator: Adobe Illustrator 19.0.0, SVG Export Plug-In . SVG Version: 6.00 Build 0)  -->
<svg version="1.1" id="Layer_1" xmlns="http://www.w3.org/2000/svg" xmlns:xlink="http://www.w3.org/1999/xlink" x="0px" y="0px"
	 viewBox="0 0 504 504" style="enable-background:new 0 0 504 504;" xml:space="preserve">
<circle style="fill:#324A5E;" cx="252" cy="252" r="252"/>
<path style="fill:#2B3B4E;" d="M34.2,378.8C77.9,453.7,159.1,504,252,504s174.1-50.3,217.8-125.2H34.2z"/>
<rect x="97.8" y="271.9" style="fill:#ACB3BA;" width="301.1" height="66.3"/>
<g>
	<rect x="82.7" y="149.5" style="fill:#CED5E0;" width="35.8" height="228"/>
	<rect x="385.5" y="232.6" style="fill:#CED5E0;" width="35.8" height="144.8"/>
</g>
<circle style="fill:#FFD05B;" cx="165.2" cy="236.7" r="24.5"/>
<polygon style="fill:#FF7058;" points="209.9,293.6 370.2,293.6 370.2,238.4 209.9,212.2 "/>
<polygon style="fill:#4CDBC4;" points="298.1,89.7 298.1,79 267.9,79 267.9,89.7 271.8,89.7 271.8,123.5 232.2,123.5 232.2,89.7 
	236.1,89.7 236.1,79 205.9,79 205.9,89.7 209.9,89.7 209.9,173.7 205.9,173.7 205.9,184.4 236.1,184.4 236.1,173.7 232.2,173.7 
	232.2,142.3 271.8,142.3 271.8,173.7 267.9,173.7 267.9,184.4 298.1,184.4 298.1,173.7 294.1,173.7 294.1,89.7 "/>
<g>
</g>
<g>
</g>
<g>
</g>
<g>
</g>
<g>
</g>
<g>
</g>
<g>
</g>
<g>
</g>
<g>
</g>
<g>
</g>
<g>
</g>
<g>
</g>
<g>
</g>
<g>
</g>
<g>
</g>
</svg>
