<?xml version="1.0" encoding="iso-8859-1"?>
<!-- Generator: Adobe Illustrator 19.0.0, SVG Export Plug-In . SVG Version: 6.00 Build 0)  -->
<svg version="1.1" id="Layer_1" xmlns="http://www.w3.org/2000/svg" xmlns:xlink="http://www.w3.org/1999/xlink" x="0px" y="0px"
	 viewBox="0 0 504 504" style="enable-background:new 0 0 504 504;" xml:space="preserve">
<circle style="fill:#F1543F;" cx="252" cy="252" r="252"/>
<path style="fill:#FF7058;" d="M502.4,224.1C488.6,98.1,381.8,0,252,0S15.4,98.1,1.6,224.1H502.4z"/>
<g>
	<rect x="114.8" y="119" style="fill:#324A5E;" width="274.4" height="103.3"/>
	<path style="fill:#324A5E;" d="M389.2,178.3c0-19.8,0-39.6,0-59.3c-91.2-10.1-183.2-10.1-274.4,0c0,19.8,0,39.5,0,59.3
		C206.3,178.3,297.7,178.3,389.2,178.3z"/>
</g>
<polygon style="fill:#FFFFFF;" points="389.2,222.3 428.2,285.6 75.8,285.6 114.8,222.3 "/>
<g>
	<rect x="75.8" y="259" style="fill:#324A5E;" width="352.3" height="94.8"/>
	<path style="fill:#324A5E;" d="M75.8,331.6c0-24.1,0-48.2,0-72.3c117.1-12.9,235.2-12.9,352.3,0c0,24.1,0,48.2,0,72.3
		C310.7,331.6,193.3,331.6,75.8,331.6z"/>
	<polygon style="fill:#324A5E;" points="97.5,372.9 75.8,372.9 75.8,353.8 110.9,353.8 	"/>
	<polygon style="fill:#324A5E;" points="406.5,372.9 428.2,372.9 428.2,353.8 393.1,353.8 	"/>
</g>
<g>
	<path style="fill:#FFD05B;" d="M355.7,222h-79c-0.6,0-1-0.5-1-1v-30.5c0-0.6,0.5-1,1-1h79c0.6,0,1,0.5,1,1V221
		C356.7,221.5,356.3,222,355.7,222z"/>
	<path style="fill:#FFD05B;" d="M227.3,222h-79c-0.6,0-1-0.5-1-1v-30.5c0-0.6,0.5-1,1-1h79c0.6,0,1,0.5,1,1V221
		C228.3,221.5,227.9,222,227.3,222z"/>
</g>
<g>
</g>
<g>
</g>
<g>
</g>
<g>
</g>
<g>
</g>
<g>
</g>
<g>
</g>
<g>
</g>
<g>
</g>
<g>
</g>
<g>
</g>
<g>
</g>
<g>
</g>
<g>
</g>
<g>
</g>
</svg>
