<?xml version="1.0" encoding="iso-8859-1"?>
<!-- Generator: Adobe Illustrator 19.0.0, SVG Export Plug-In . SVG Version: 6.00 Build 0)  -->
<svg version="1.1" id="Layer_1" xmlns="http://www.w3.org/2000/svg" xmlns:xlink="http://www.w3.org/1999/xlink" x="0px" y="0px"
	 viewBox="0 0 504 504" style="enable-background:new 0 0 504 504;" xml:space="preserve">
<circle style="fill:#FD8469;" cx="252" cy="251.9" r="251.9"/>
<path style="fill:#F9B54C;" d="M320.6,320.4c0,47.4-30.8,60.5-68.8,60.5S183,367.8,183,320.4s30.8-111.2,68.8-111.2
	S320.6,273,320.6,320.4z"/>
<path style="fill:#4CDBC4;" d="M448.5,409.5c-15.7,19.6-34.4,36.8-55.3,51c-4.3,3-8.8,5.7-13.3,8.4c-37.5,22.2-81.2,34.8-127.9,34.8
	h-31.2v-1.9c-35-4.3-67.7-15.8-96.7-33c-4.5-2.6-8.9-5.4-13.2-8.3c-20.9-14.2-39.6-31.4-55.4-51.1c4.4-15.9,12.4-30.4,23.3-42.2l0,0
	c0.3-0.3,0.6-0.6,0.9-0.9c1.1-1.2,2.2-2.3,3.3-3.4c0,0,0-0.1,0.1-0.1c1.4-1.3,2.8-2.6,4.3-3.9c0.1,0,0.1-0.1,0.2-0.2
	c12.5-10.7,27.7-18.3,44.5-21.5c1.3-0.2,2.6-0.5,3.9-0.7l40.4-6.2l7-1.1l17.5-2.7h102.3l17,2.6l7.4,1.1l40.4,6.2
	c1.3,0.2,2.6,0.4,3.9,0.7c16.8,3.2,32,10.8,44.5,21.5c1,0.8,2,1.7,2.9,2.6c0.9,0.8,1.7,1.6,2.5,2.4c0.8,0.7,1.5,1.5,2.2,2.3
	c0.4,0.4,0.8,0.8,1.1,1.2C436.1,379.2,444.1,393.6,448.5,409.5z"/>
<path style="fill:#2C9984;" d="M327.8,331c-49,23.3-102.6,23.3-151.6,0c3-11.1,6.1-22.3,9.1-33.4c43.1,20.5,90.3,20.5,133.4,0
	C321.7,308.8,324.8,319.9,327.8,331z"/>
<path style="fill:#E6E9EE;" d="M321.6,308.4c-45.2,19.6-94,19.6-139.2,0c1-3.6,1.9-7.2,2.9-10.7c43.1,20.5,90.3,20.5,133.4,0
	C319.7,301.2,320.6,304.8,321.6,308.4z"/>
<g>
	<circle style="fill:#324A5E;" cx="271.2" cy="409.9" r="13.4"/>
	<circle style="fill:#324A5E;" cx="271.2" cy="457.3" r="13.4"/>
</g>
<polygon style="fill:#2C9984;" points="282.6,340.3 235.1,387.8 235.1,504 220.8,504 220.8,381.9 272.5,330.2 "/>
<ellipse style="fill:#FFD05B;" cx="252" cy="195.8" rx="99.4" ry="99.3"/>
<path style="fill:#324A5E;" d="M350.7,183.6c-10.7-7.6-19-19.2-25.2-30.8c-2.3-4.3-8.6-4.5-11.2-0.4l-7.8,12.6
	c-8.8,14.2-28.4,18.7-43.1,9.9c-23.7-14.3-63.3-23-110.8,24.8c-0.1-1.3-0.1-2.7-0.1-4c0-54.8,44.5-99.3,99.5-99.3
	C302.8,96.5,344.7,134.5,350.7,183.6z"/>
<path style="fill:#E6E9EE;" d="M346.4,72.4v91.3c-60.2-26.1-128.5-26.1-188.8,0V72.4C217.9,46.4,286.2,46.4,346.4,72.4z"/>
<path style="fill:#ACB3BA;" d="M346.4,111.9v24.3c-60.2-26.1-128.5-26.1-188.8,0v-24.3C217.9,85.9,286.2,85.9,346.4,111.9z"/>
<g>
	<path style="fill:#2C9984;" d="M425.2,367.4c-13.3,25.4-25.5,56.7-32,93.2c-4.3,3-8.8,5.7-13.3,8.4c6.4-43.8,20.8-80.8,36.5-110.1
		c1,0.8,2,1.7,2.9,2.6c0.9,0.8,1.7,1.6,2.5,2.4c0.8,0.7,1.5,1.5,2.2,2.3C424.5,366.6,424.9,367,425.2,367.4z"/>
	<path style="fill:#2C9984;" d="M124.1,468.9c-4.5-2.6-8.9-5.4-13.2-8.3c-6.5-36.5-18.7-67.8-32.1-93.2l0,0c0.3-0.3,0.6-0.6,0.9-0.9
		c1.1-1.2,2.2-2.3,3.3-3.4c0,0,0-0.1,0.1-0.1c1.4-1.3,2.8-2.6,4.3-3.9c0.1,0,0.1-0.1,0.2-0.2C103.3,388.2,117.7,425.2,124.1,468.9z"
		/>
</g>
<g>
</g>
<g>
</g>
<g>
</g>
<g>
</g>
<g>
</g>
<g>
</g>
<g>
</g>
<g>
</g>
<g>
</g>
<g>
</g>
<g>
</g>
<g>
</g>
<g>
</g>
<g>
</g>
<g>
</g>
</svg>
