<?xml version="1.0" encoding="iso-8859-1"?>
<!-- Generator: Adobe Illustrator 19.0.0, SVG Export Plug-In . SVG Version: 6.00 Build 0)  -->
<svg version="1.1" id="Layer_1" xmlns="http://www.w3.org/2000/svg" xmlns:xlink="http://www.w3.org/1999/xlink" x="0px" y="0px"
	 viewBox="0 0 504 504" style="enable-background:new 0 0 504 504;" xml:space="preserve">
<circle style="fill:#90DFAA;" cx="252" cy="252" r="252"/>
<path style="fill:#F9B54C;" d="M219.9,170.1c-8.3,43.3-29.6,121.9-74.9,168.6h213.9c-45.2-46.8-66.6-125.4-74.9-168.6H219.9z"/>
<path style="fill:#F1543F;" d="M340.1,465.1c0-15.8-1.9-34.2-8.2-52.1c-1.4-4.1-3.1-8.1-5-12.1c0,0,10.9-32.9,21.9-62.1
	c1-2.7,2-5.3,3-7.9c7.8-20,15.2-36.4,18.5-36.4c8.3,0,8.3,0,8.3,0l22.7,137.4C382.7,445.6,362.1,456.9,340.1,465.1z"/>
<path style="fill:#CED5E0;" d="M378.6,294.5c-8.5,15-15.6,29.1-21.6,42.2c-0.3,0.7-0.6,1.4-0.9,2.1c-13.3,29.5-20.6,54-24.2,74.2
	c-4.3,24.3-3.1,42.2-0.3,55.1c-11.7,3.9-23.8,7-36.1,9.1c-14.1,2.5-28.6,3.7-43.4,3.7s-29.3-1.3-43.4-3.7V393
	c0.6-4.7,2.1-9.6,4.1-14.5c0.5-1.1,0.9-2.1,1.5-3.2c2.4-5.1,5.6-10.2,8.9-15c5.5-8,11.8-15.5,17.4-21.5c4.7-5.2,8.9-9.3,11.5-11.8
	c1.9-1.7,2.9-2.7,2.9-2.7s27-14.6,38.2-39.5c9-20,7.6-43.2,6.7-51.5c-0.1-1.4-0.3-2.4-0.3-2.9l0.7,1.9l0.1,0.3l0,0l5.4,14.6l0.5,1.3
	l4.1,11.3l3.5,9.6c0.2,0,0.3-0.1,0.5-0.1c7.3-2.2,15.9-0.9,24.3,2.1C358.9,278.3,378.6,294.5,378.6,294.5z"/>
<path style="fill:#F1543F;" d="M214.2,375.3c3-4.1,11.9-10.6,38.4-10.6c38.4,0,87.1-30.8,87.1-30.8s-30-4.3-38.9-33.4l46.3,16.9
	c0,0,6.7-19.5-8.5-46.1c-7.2-12.6-19.3-26.8-39.3-41.3c0,0,0,0.1,0.1,0.3c0.4,3.1,4.1,30.9-6.4,54.4c-11.2,25-38.2,39.5-38.2,39.5
	S226.6,349.5,214.2,375.3z"/>
<path style="fill:#FF7058;" d="M177.2,400.8c-1.9,4-3.6,8.1-5,12.2c-6.3,18-8.2,36.3-8.2,52.1c-22.1-8.2-42.6-19.4-61.2-33.2
	l22.7-137.4c0,0,0,0,8.3,0c3.3,0,10.7,16.4,18.5,36.4c1,2.6,2,5.2,3,7.9C166.3,368,177.2,400.8,177.2,400.8z"/>
<path style="fill:#E6E9EE;" d="M295.4,393v84.1c-14.1,2.5-28.6,3.7-43.4,3.7s-29.3-1.3-43.4-3.7c-12.4-2.1-24.5-5.2-36.1-9.1
	c2.9-12.8,4-30.9-0.3-55c-3.5-20.2-10.9-44.8-24.2-74.3c-0.3-0.7-0.6-1.4-0.9-2.1l0,0c-6-13.1-13.1-27.1-21.6-42.1
	c0,0,19.6-16.2,39.8-23.2c8.5-3,17-4.3,24.3-2.1c0.2,0,0.3,0.1,0.5,0.1l3.6-9.8l0,0l3.3-8.9l1.8-4.9l2.3-6.2l2.8-7.4l0.7-1.8
	c0,0.2-0.1,0.5-0.1,0.9c-0.1,0.9-0.3,2.4-0.4,4.3c-0.2,2-0.3,4.3-0.4,7l0,0c0,2.5,0,5.2,0.1,8.2c0,0.9,0.1,1.7,0.1,2.6
	s0.1,1.8,0.2,2.7c0,0.6,0.1,1.3,0.2,2l0,0c0.1,1,0.2,2,0.4,3.1c0.3,2.3,0.7,4.7,1.2,7.1c0.2,1,0.4,2,0.7,3c0.2,0.7,0.4,1.4,0.6,2.1
	c0.2,0.7,0.4,1.5,0.6,2.3c0.2,0.8,0.5,1.6,0.7,2.3c0.4,1.1,0.7,2.1,1.1,3.2c0.4,1.2,0.9,2.4,1.5,3.5c11.2,24.9,38.2,39.5,38.2,39.5
	s0.4,0.4,1.3,1.1c0.3,0.3,0.6,0.6,1,0.9c0.2,0.2,0.4,0.4,0.7,0.6c0.2,0.3,0.4,0.5,0.7,0.7c0.3,0.3,0.6,0.7,1,1c2.6,2.5,6,6,9.8,10.2
	c3.5,3.8,7.2,8.1,10.9,12.8c0.7,0.9,1.4,1.8,2.1,2.7c1.5,1.9,2.9,4,4.4,6c2.3,3.4,4.6,6.9,6.5,10.5c0.4,0.7,0.7,1.4,1.1,2.1
	c0.4,0.8,0.8,1.6,1.2,2.4c0.6,1.1,1,2.1,1.5,3.2C293.4,383.4,294.9,388.3,295.4,393z"/>
<path style="fill:#FF7058;" d="M289.8,375.3c-3-4.1-11.9-10.6-38.4-10.6c-38.4,0-87.1-30.8-87.1-30.8s30-4.3,38.9-33.4l-46.3,16.9
	c0,0-6.7-19.5,8.5-46.1c7.2-12.6,19.3-26.8,39.3-41.3c0,0,0,0.1-0.1,0.3c-0.4,3.1-4.1,30.9,6.4,54.4c11.2,25,38.2,39.5,38.2,39.5
	S277.4,349.5,289.8,375.3z"/>
<g>
	<ellipse style="fill:#2B3B4E;" cx="272.9" cy="407" rx="9.8" ry="10.2"/>
	<ellipse style="fill:#2B3B4E;" cx="234.9" cy="407" rx="9.8" ry="10.2"/>
	<ellipse style="fill:#2B3B4E;" cx="272.9" cy="445.6" rx="9.8" ry="10.2"/>
	<ellipse style="fill:#2B3B4E;" cx="234.9" cy="445.6" rx="9.8" ry="10.2"/>
</g>
<path style="fill:#FFD05B;" d="M315.6,152.4c0,50.3-30.2,112.9-67.4,112.9s-67.4-62.6-67.4-112.9s30.2-69.3,67.4-69.3
	C285.4,83,315.6,102.1,315.6,152.4z"/>
<path style="fill:#324A5E;" d="M304.4,250.9c5.5-17.4,12.8-33.3,8.1-50.7c-3.6,43-52,66.1-55.1,67.5c2.6-2.1,42.4-36.1,43.4-68.9
	c-23,61.2-51.8,63.1-51.8,63.1s89.8-78.6,20-152.9c8.6,19,7.2,36.2,7.2,36.2c-4.8-14.8-12.2-17-18.8-31.4
	c0.7,10.3,0.6,20.7-2.1,30.7c-1.4-9.7-4.6-19.2-9.4-28.2c-3.7,9.3-8.2,18.3-13.5,26.8c0.4-8.5-0.5-17.1-2.6-25.5
	c-4.6,9.4-9.3,18.8-13.8,28c-2.2-9.7-4.3-19.3-6.4-29c-4.2,11.2-8.5,22.4-12.7,33.6c-2.7,6.8-5.2,13.7-6,20.7
	c-1.1,9,0.7,18.1,4.3,26.6c2.7,6.4,6.4,12.4,10.6,18.3c3.4,4.7,7,9.4,10.7,13.9c5.7,7.1,11.4,14.3,17.2,21.5
	c-11.8-6-28.9-24.2-30.8-26.2c5.5,16.8,27.3,43.4,27.3,43.4s-33.3-26.7-39.7-46.5c0.8,11.5,15.6,38.3,15.6,38.3
	c-17.3-18.4-69.4-63.7-31.4-158.7c3.5-8.8,18.5-42.3,72.2-45.4c34.6-2,66.4,20.7,79.6,52.7C351.9,170.4,314.3,238.3,304.4,250.9z"/>
<path style="fill:#FFFFFF;" d="M319,109.2c-7-3.8-14.7-7-23.1-9.6c-14.5-4.6-30.7-7.1-47.7-7.1s-33.2,2.5-47.7,7
	c-8.3,2.6-16.1,5.8-23.2,9.6c5.7-6,13-11.4,21.7-15.5c-5-20.2-9.9-38.9-14.5-55.2c40-20.4,87.3-20.4,127.3,0
	c-4.6,16.3-9.5,35-14.5,55.2C306,97.8,313.3,103.1,319,109.2z"/>
<g>
</g>
<g>
</g>
<g>
</g>
<g>
</g>
<g>
</g>
<g>
</g>
<g>
</g>
<g>
</g>
<g>
</g>
<g>
</g>
<g>
</g>
<g>
</g>
<g>
</g>
<g>
</g>
<g>
</g>
</svg>
