<?xml version="1.0" encoding="iso-8859-1"?>
<!-- Generator: Adobe Illustrator 19.0.0, SVG Export Plug-In . SVG Version: 6.00 Build 0)  -->
<svg version="1.1" id="Layer_1" xmlns="http://www.w3.org/2000/svg" xmlns:xlink="http://www.w3.org/1999/xlink" x="0px" y="0px"
	 viewBox="0 0 504 504" style="enable-background:new 0 0 504 504;" xml:space="preserve">
<circle style="fill:#84DBFF;" cx="252" cy="252" r="252"/>
<path style="fill:#54C0EB;" d="M53.1,406.6C99.2,465.8,171.1,504,252,504s152.8-38.1,198.9-97.4H53.1z"/>
<g>
	<rect x="180.1" y="150.6" style="fill:#2B3B4E;" width="11.8" height="37.9"/>
	
		<rect x="335.717" y="361.364" transform="matrix(-0.3552 -0.9348 0.9348 -0.3552 154.1999 840.8936)" style="fill:#2B3B4E;" width="62.801" height="11.8"/>
	
		<rect x="131.423" y="335.872" transform="matrix(0.9348 0.3551 -0.3551 0.9348 139.3714 -24.8275)" style="fill:#2B3B4E;" width="11.8" height="62.798"/>
</g>
<path style="fill:#324A5E;" d="M111.2,405.5h30.1c5.1,0,9.2-4.1,9.2-9.2l0,0c0-5.1-4.1-9.2-9.2-9.2h-30.1c-5.1,0-9.2,4.1-9.2,9.2
	l0,0C102,401.3,106.1,405.5,111.2,405.5z"/>
<circle style="fill:#FF7058;" cx="188.5" cy="272.5" r="21.4"/>
<path style="fill:#324A5E;" d="M243.6,146.5h-90l-29.4-29.4c-3-3-7.8-3-10.8,0s-3,7.8,0,10.8l31.7,31.7c1.4,1.4,3.4,2.2,5.4,2.2
	h93.2c4.2,0,7.7-3.4,7.7-7.7S247.8,146.5,243.6,146.5z"/>
<rect x="258.074" y="192.445" transform="matrix(-0.3383 0.941 -0.941 -0.3383 645.6512 -57.2991)" style="fill:#2B3B4E;" width="169.794" height="11.8"/>
<path style="fill:#FF7058;" d="M370.4,257.8l-139.3-69.9c-63-31.6-137.2,14.2-137.2,84.6l0,0c0,52.3,42.4,94.7,94.7,94.7h155.8
	C405.4,367.2,424.8,285.1,370.4,257.8z"/>
<circle style="fill:#F1543F;" cx="188.5" cy="272.5" r="59.7"/>
<g>
	
		<line style="fill:none;stroke:#FFD05B;stroke-width:4;stroke-linecap:round;stroke-miterlimit:10;" x1="188.5" y1="272.5" x2="248.1" y2="332.2"/>
	
		<line style="fill:none;stroke:#ACB3BA;stroke-width:4;stroke-linecap:round;stroke-miterlimit:10;" x1="218.3" y1="332.2" x2="276.5" y2="332.2"/>
</g>
<g>
	<path style="fill:#324A5E;" d="M409.6,102.3c-1.2-3-4.7-4.5-7.7-3.3l-67,26.9c-3,1.2-4.5,4.7-3.3,7.7c0.9,2.3,3.1,3.7,5.5,3.7
		c0.7,0,1.5-0.1,2.2-0.4l67-26.9C409.4,108.7,410.9,105.3,409.6,102.3z"/>
	<path style="fill:#324A5E;" d="M393.3,405.5h-30.1c-5.1,0-9.2-4.1-9.2-9.2l0,0c0-5.1,4.1-9.2,9.2-9.2h30.1c5.1,0,9.2,4.1,9.2,9.2
		l0,0C402.5,401.3,398.3,405.5,393.3,405.5z"/>
</g>
<g>
</g>
<g>
</g>
<g>
</g>
<g>
</g>
<g>
</g>
<g>
</g>
<g>
</g>
<g>
</g>
<g>
</g>
<g>
</g>
<g>
</g>
<g>
</g>
<g>
</g>
<g>
</g>
<g>
</g>
</svg>
