<?xml version="1.0" encoding="iso-8859-1"?>
<!-- Generator: Adobe Illustrator 19.0.0, SVG Export Plug-In . SVG Version: 6.00 Build 0)  -->
<svg version="1.1" id="Layer_1" xmlns="http://www.w3.org/2000/svg" xmlns:xlink="http://www.w3.org/1999/xlink" x="0px" y="0px"
	 viewBox="0 0 380.446 380.446" style="enable-background:new 0 0 380.446 380.446;" xml:space="preserve">
<path style="fill:#F7CF52;" d="M109.179,0c-9.561,0-18.954,0.714-28.137,2.075C172.756,15.674,243.13,94.727,243.13,190.223
	c0,95.497-70.373,174.549-162.087,188.148c9.182,1.362,18.576,2.075,28.137,2.075c105.058,0,190.224-85.166,190.224-190.224
	S214.238,0,109.179,0z"/>
<path style="fill:#E2BC50;" d="M109.174,0.003c-5.8,0-11.54,0.26-17.2,0.77c96.95,8.74,172.93,90.22,172.93,189.45
	c0,99.25-76.01,180.74-172.99,189.45c5.68,0.51,11.44,0.77,17.26,0.77c105.06,0,190.23-85.16,190.23-190.22
	S214.233,0.003,109.174,0.003z"/>
<g>
</g>
<g>
</g>
<g>
</g>
<g>
</g>
<g>
</g>
<g>
</g>
<g>
</g>
<g>
</g>
<g>
</g>
<g>
</g>
<g>
</g>
<g>
</g>
<g>
</g>
<g>
</g>
<g>
</g>
</svg>
