<?xml version="1.0" encoding="iso-8859-1"?>
<!-- Generator: Adobe Illustrator 19.0.0, SVG Export Plug-In . SVG Version: 6.00 Build 0)  -->
<svg version="1.1" id="Layer_1" xmlns="http://www.w3.org/2000/svg" xmlns:xlink="http://www.w3.org/1999/xlink" x="0px" y="0px"
	 viewBox="0 0 373.759 373.759" style="enable-background:new 0 0 373.759 373.759;" xml:space="preserve">
<g>
	<path style="fill:#1EA6C6;" d="M63.583,92.389c-0.009-0.525-0.02-1.049-0.02-1.575C63.563,40.659,104.222,0,154.377,0
		c43.222,0,79.388,30.196,88.562,70.643c8.555-4.789,18.409-7.531,28.91-7.531c32.766,0,59.328,26.562,59.328,59.328
		c0,1.339-0.06,2.664-0.148,3.981c24.325,9.03,41.661,32.444,41.661,59.911c0,35.286-28.605,63.892-63.892,63.892H80.935
		c-44.108,0-79.865-35.757-79.865-79.865C1.07,132.21,27.819,100.314,63.583,92.389z"/>
	<g>
		<g>
			<path style="fill:#96E0DE;" d="M90.233,334.539c-1.97,0-3.9-0.8-5.3-2.2c-0.34-0.34-0.66-0.72-0.93-1.14
				c-0.27-0.4-0.5-0.84-0.69-1.29s-0.33-0.93-0.43-1.4c-0.1-0.49-0.15-0.98-0.15-1.47s0.05-0.98,0.15-1.46
				c0.1-0.48,0.24-0.96,0.43-1.41s0.42-0.89,0.69-1.29c0.27-0.41,0.59-0.8,0.93-1.14c0.35-0.35,0.73-0.66,1.14-0.93
				c0.41-0.27,0.84-0.51,1.3-0.69c0.45-0.19,0.92-0.34,1.4-0.43c0.97-0.2,1.96-0.2,2.93,0c0.48,0.09,0.95,0.24,1.4,0.43
				c0.46,0.18,0.89,0.42,1.3,0.69s0.79,0.58,1.14,0.93c0.34,0.34,0.66,0.73,0.93,1.14c0.27,0.4,0.5,0.84,0.69,1.29
				s0.33,0.93,0.43,1.41s0.14,0.97,0.14,1.46s-0.04,0.98-0.14,1.47c-0.1,0.47-0.24,0.95-0.43,1.4c-0.19,0.45-0.42,0.89-0.69,1.29
				c-0.27,0.42-0.59,0.8-0.93,1.14c-0.35,0.35-0.73,0.66-1.14,0.94c-0.41,0.27-0.84,0.5-1.3,0.69c-0.45,0.18-0.92,0.33-1.4,0.42
				C91.224,334.489,90.724,334.539,90.233,334.539z"/>
			<path style="fill:#96E0DE;" d="M154.674,334.539c-0.49,0-0.99-0.05-1.47-0.15c-0.48-0.09-0.95-0.24-1.4-0.42
				c-0.46-0.19-0.89-0.42-1.3-0.69c-0.41-0.28-0.79-0.59-1.14-0.94c-0.34-0.34-0.66-0.72-0.93-1.14c-0.27-0.4-0.5-0.84-0.69-1.29
				s-0.33-0.92-0.43-1.4c-0.1-0.49-0.14-0.98-0.14-1.47s0.04-0.98,0.14-1.46s0.24-0.96,0.43-1.41c0.19-0.45,0.42-0.89,0.69-1.29
				c0.27-0.41,0.59-0.8,0.93-1.14c0.35-0.35,0.73-0.66,1.14-0.93s0.84-0.51,1.3-0.69c0.45-0.19,0.92-0.34,1.4-0.43
				c0.97-0.2,1.96-0.2,2.93,0c0.48,0.09,0.95,0.24,1.4,0.43c0.46,0.18,0.89,0.42,1.3,0.69s0.79,0.58,1.14,0.93
				c0.34,0.34,0.66,0.73,0.93,1.14c0.27,0.4,0.5,0.84,0.69,1.29s0.33,0.93,0.43,1.41c0.1,0.48,0.15,0.97,0.15,1.46
				s-0.05,0.98-0.15,1.47c-0.1,0.48-0.24,0.95-0.43,1.4c-0.19,0.45-0.42,0.89-0.69,1.29c-0.27,0.42-0.59,0.8-0.93,1.14
				c-0.35,0.35-0.73,0.66-1.14,0.94c-0.41,0.27-0.84,0.5-1.3,0.69c-0.45,0.18-0.92,0.33-1.4,0.42
				C155.654,334.489,155.154,334.539,154.674,334.539z"/>
			<path style="fill:#96E0DE;" d="M219.094,334.539c-0.49,0-0.98-0.05-1.47-0.15c-0.48-0.09-0.95-0.24-1.4-0.42
				c-0.45-0.19-0.89-0.42-1.3-0.69c-0.41-0.28-0.79-0.59-1.14-0.94c-0.34-0.34-0.65-0.72-0.93-1.14c-0.27-0.4-0.5-0.84-0.69-1.29
				s-0.33-0.92-0.43-1.4c-0.09-0.49-0.14-0.98-0.14-1.47s0.05-0.98,0.14-1.46c0.1-0.48,0.24-0.96,0.43-1.41
				c0.19-0.45,0.42-0.89,0.69-1.29c0.28-0.41,0.59-0.8,0.93-1.14c0.35-0.35,0.73-0.66,1.14-0.93s0.85-0.51,1.3-0.69
				c0.45-0.19,0.92-0.34,1.4-0.43c0.97-0.2,1.97-0.2,2.93,0c0.48,0.09,0.95,0.24,1.41,0.43c0.45,0.18,0.88,0.42,1.29,0.69
				c0.41,0.27,0.8,0.58,1.14,0.93c1.4,1.39,2.2,3.33,2.2,5.3c0,1.98-0.8,3.91-2.2,5.3c-0.34,0.35-0.73,0.66-1.14,0.94
				c-0.41,0.27-0.84,0.5-1.29,0.69c-0.46,0.18-0.93,0.33-1.41,0.42C220.074,334.489,219.583,334.539,219.094,334.539z"/>
			<path style="fill:#96E0DE;" d="M283.523,334.539c-1.98,0-3.91-0.8-5.3-2.2c-0.35-0.34-0.66-0.73-0.94-1.14
				c-0.27-0.4-0.5-0.84-0.69-1.29c-0.18-0.45-0.33-0.93-0.42-1.4c-0.1-0.49-0.15-0.98-0.15-1.47s0.05-0.98,0.15-1.46
				c0.09-0.48,0.24-0.96,0.42-1.41c0.19-0.45,0.42-0.89,0.69-1.29c0.28-0.41,0.59-0.8,0.94-1.14c1.73-1.74,4.33-2.54,6.76-2.05
				c0.48,0.09,0.95,0.24,1.41,0.43c0.45,0.18,0.89,0.41,1.29,0.69c0.41,0.27,0.8,0.58,1.14,0.93c0.35,0.34,0.66,0.73,0.93,1.14
				c0.27,0.4,0.51,0.84,0.69,1.29c0.19,0.46,0.34,0.93,0.43,1.41c0.1,0.48,0.15,0.97,0.15,1.46s-0.05,0.98-0.15,1.47
				c-0.09,0.47-0.24,0.95-0.43,1.4c-0.18,0.45-0.42,0.89-0.69,1.29c-0.27,0.41-0.58,0.8-0.93,1.14c-0.34,0.35-0.73,0.66-1.14,0.94
				c-0.4,0.27-0.84,0.5-1.29,0.69c-0.46,0.18-0.93,0.33-1.41,0.42C284.503,334.489,284.013,334.539,283.523,334.539z"/>
		</g>
		<g>
			<path style="fill:#96E0DE;" d="M58.023,295.319c-0.49,0-0.98-0.05-1.46-0.15c-0.48-0.09-0.95-0.24-1.41-0.42
				c-0.45-0.19-0.88-0.42-1.29-0.69c-0.41-0.28-0.79-0.59-1.14-0.94c-0.35-0.34-0.66-0.73-0.93-1.14c-0.27-0.4-0.5-0.84-0.69-1.29
				s-0.33-0.93-0.43-1.4c-0.1-0.49-0.15-0.98-0.15-1.47s0.05-0.98,0.15-1.47c0.1-0.47,0.24-0.95,0.43-1.4
				c0.19-0.45,0.42-0.89,0.69-1.29c0.27-0.41,0.58-0.8,0.93-1.14c0.35-0.35,0.73-0.66,1.14-0.94c0.41-0.27,0.84-0.5,1.29-0.68
				c0.46-0.19,0.93-0.34,1.41-0.43c0.97-0.2,1.96-0.2,2.93,0c0.48,0.09,0.95,0.24,1.4,0.43c0.46,0.18,0.89,0.41,1.3,0.68
				c0.41,0.28,0.79,0.59,1.14,0.94c0.34,0.34,0.66,0.73,0.93,1.14c0.27,0.4,0.5,0.84,0.69,1.29s0.33,0.93,0.43,1.4
				c0.09,0.49,0.14,0.98,0.14,1.47s-0.05,0.98-0.14,1.47c-0.1,0.47-0.24,0.95-0.43,1.4c-0.19,0.45-0.42,0.89-0.69,1.29
				c-0.27,0.41-0.59,0.8-0.93,1.14c-0.35,0.35-0.73,0.66-1.14,0.94c-0.41,0.27-0.84,0.5-1.3,0.69c-0.45,0.18-0.92,0.33-1.4,0.42
				C59.014,295.269,58.514,295.319,58.023,295.319z"/>
			<path style="fill:#96E0DE;" d="M122.454,295.319c-0.48,0-0.98-0.05-1.46-0.15c-0.48-0.09-0.95-0.24-1.4-0.42
				c-0.46-0.19-0.89-0.42-1.3-0.69c-0.41-0.28-0.79-0.59-1.14-0.94c-1.39-1.39-2.2-3.32-2.2-5.3c0-0.49,0.05-0.98,0.15-1.47
				c0.1-0.47,0.24-0.95,0.43-1.4c0.19-0.45,0.42-0.89,0.69-1.29c0.27-0.41,0.59-0.8,0.93-1.14c0.35-0.35,0.73-0.66,1.14-0.94
				c0.41-0.27,0.84-0.5,1.3-0.69c0.45-0.18,0.92-0.33,1.4-0.42c2.44-0.49,5.03,0.31,6.77,2.05c0.34,0.34,0.66,0.73,0.93,1.14
				c0.27,0.4,0.5,0.84,0.69,1.29s0.33,0.93,0.43,1.4c0.1,0.49,0.15,0.98,0.15,1.47c0,1.97-0.81,3.91-2.2,5.3
				C126.364,294.519,124.434,295.319,122.454,295.319z"/>
			<path style="fill:#96E0DE;" d="M186.883,295.319c-0.49,0-0.99-0.05-1.47-0.15c-0.48-0.09-0.95-0.24-1.4-0.42
				c-0.45-0.19-0.89-0.42-1.3-0.69c-0.41-0.28-0.79-0.59-1.14-0.94c-0.34-0.34-0.66-0.73-0.93-1.14c-0.27-0.4-0.5-0.84-0.69-1.29
				s-0.33-0.93-0.43-1.4c-0.09-0.49-0.14-0.98-0.14-1.47c0-1.97,0.8-3.91,2.19-5.3c0.35-0.35,0.73-0.66,1.14-0.93
				s0.85-0.51,1.3-0.69c0.45-0.19,0.92-0.34,1.4-0.43c0.97-0.2,1.97-0.2,2.93,0c0.48,0.09,0.95,0.24,1.41,0.43
				c0.45,0.18,0.88,0.42,1.29,0.69c0.41,0.27,0.79,0.58,1.14,0.93c0.35,0.34,0.66,0.73,0.93,1.14c0.27,0.4,0.5,0.84,0.69,1.29
				s0.33,0.93,0.43,1.4c0.1,0.49,0.15,0.98,0.15,1.47s-0.05,0.98-0.15,1.47c-0.1,0.47-0.24,0.95-0.43,1.4
				c-0.19,0.45-0.42,0.89-0.69,1.29c-0.27,0.41-0.58,0.8-0.93,1.14c-0.35,0.35-0.73,0.66-1.14,0.94c-0.41,0.27-0.84,0.5-1.29,0.69
				c-0.46,0.18-0.93,0.33-1.41,0.42C187.864,295.269,187.374,295.319,186.883,295.319z"/>
			<path style="fill:#96E0DE;" d="M251.303,295.319c-1.97,0-3.91-0.8-5.3-2.2c-0.35-0.34-0.66-0.72-0.94-1.14
				c-0.27-0.4-0.5-0.84-0.69-1.29c-0.18-0.45-0.33-0.92-0.42-1.4c-0.1-0.49-0.15-0.98-0.15-1.47s0.05-0.98,0.15-1.46
				c0.09-0.48,0.24-0.95,0.42-1.41c0.19-0.45,0.42-0.89,0.69-1.29c0.28-0.41,0.59-0.8,0.94-1.14c0.34-0.35,0.73-0.66,1.14-0.94
				c0.4-0.27,0.84-0.5,1.29-0.69c0.45-0.18,0.93-0.33,1.4-0.42c2.44-0.5,5.03,0.31,6.77,2.05c0.35,0.34,0.66,0.73,0.93,1.14
				c0.27,0.4,0.51,0.84,0.69,1.29c0.19,0.46,0.34,0.93,0.43,1.41c0.1,0.48,0.15,0.97,0.15,1.46s-0.05,0.98-0.15,1.47
				c-0.09,0.48-0.24,0.95-0.43,1.4c-0.18,0.45-0.42,0.89-0.69,1.29c-0.27,0.42-0.58,0.8-0.93,1.14
				C255.213,294.519,253.273,295.319,251.303,295.319z"/>
			<path style="fill:#96E0DE;" d="M315.732,295.319c-0.49,0-0.98-0.05-1.47-0.15c-0.47-0.09-0.95-0.24-1.4-0.42
				c-0.45-0.19-0.89-0.42-1.29-0.69c-0.41-0.28-0.8-0.59-1.14-0.94c-1.4-1.39-2.2-3.32-2.2-5.3s0.8-3.91,2.2-5.3
				c0.34-0.35,0.73-0.66,1.14-0.93c0.4-0.27,0.84-0.51,1.29-0.69c0.45-0.19,0.93-0.34,1.4-0.43c0.97-0.2,1.97-0.2,2.94,0
				c0.47,0.09,0.95,0.24,1.4,0.43c0.45,0.18,0.89,0.42,1.29,0.69c0.41,0.27,0.8,0.58,1.14,0.93c1.4,1.39,2.2,3.33,2.2,5.3
				c0,1.98-0.8,3.91-2.2,5.3c-0.34,0.35-0.73,0.66-1.14,0.94c-0.4,0.27-0.84,0.5-1.29,0.69c-0.45,0.18-0.93,0.33-1.4,0.42
				C316.713,295.269,316.224,295.319,315.732,295.319z"/>
		</g>
		<g>
			<path style="fill:#96E0DE;" d="M58.023,373.759c-0.49,0-0.98-0.05-1.46-0.15c-0.48-0.09-0.95-0.24-1.41-0.42
				c-0.45-0.19-0.88-0.42-1.29-0.69c-0.41-0.28-0.79-0.59-1.14-0.94c-0.35-0.34-0.66-0.72-0.93-1.14c-0.27-0.4-0.5-0.84-0.69-1.29
				s-0.33-0.93-0.43-1.4c-0.1-0.49-0.15-0.98-0.15-1.47s0.05-0.98,0.15-1.46c0.1-0.48,0.24-0.96,0.43-1.41s0.42-0.89,0.69-1.29
				c0.27-0.41,0.58-0.8,0.93-1.14c0.35-0.35,0.73-0.66,1.14-0.93c0.41-0.28,0.84-0.51,1.29-0.69c0.46-0.19,0.93-0.34,1.41-0.43
				c0.97-0.2,1.96-0.2,2.93,0c0.48,0.09,0.95,0.24,1.4,0.43c0.46,0.18,0.89,0.41,1.3,0.69c0.41,0.27,0.79,0.58,1.14,0.93
				c0.34,0.34,0.66,0.73,0.93,1.14c0.27,0.4,0.5,0.84,0.69,1.29s0.33,0.93,0.43,1.41c0.09,0.48,0.14,0.97,0.14,1.46
				s-0.05,0.98-0.14,1.47c-0.1,0.47-0.24,0.95-0.43,1.4c-0.19,0.45-0.42,0.89-0.69,1.29c-0.27,0.42-0.59,0.8-0.93,1.14
				c-0.35,0.35-0.73,0.66-1.14,0.94c-0.41,0.27-0.84,0.5-1.3,0.69c-0.45,0.18-0.92,0.33-1.4,0.42
				C59.014,373.709,58.514,373.759,58.023,373.759z"/>
			<path style="fill:#96E0DE;" d="M122.454,373.759c-0.48,0-0.98-0.05-1.46-0.14c-0.48-0.1-0.95-0.25-1.4-0.43
				c-0.46-0.19-0.89-0.42-1.3-0.69c-0.41-0.28-0.79-0.59-1.14-0.94c-0.34-0.34-0.66-0.73-0.93-1.14c-0.27-0.4-0.5-0.84-0.69-1.29
				s-0.33-0.93-0.43-1.4c-0.1-0.49-0.15-0.98-0.15-1.47s0.05-0.98,0.15-1.46s0.24-0.95,0.43-1.41c0.19-0.45,0.42-0.89,0.69-1.29
				c0.27-0.41,0.59-0.8,0.93-1.14c0.35-0.35,0.73-0.66,1.14-0.93c0.41-0.27,0.84-0.51,1.3-0.69c0.45-0.19,0.92-0.34,1.4-0.43
				c2.44-0.49,5.03,0.31,6.77,2.05c0.34,0.34,0.66,0.73,0.93,1.14c0.27,0.4,0.5,0.84,0.69,1.29c0.19,0.46,0.33,0.93,0.43,1.41
				s0.15,0.97,0.15,1.46s-0.05,0.98-0.15,1.47c-0.1,0.47-0.24,0.95-0.43,1.4c-0.19,0.45-0.42,0.89-0.69,1.29
				c-0.27,0.41-0.59,0.8-0.93,1.14C126.364,372.959,124.434,373.759,122.454,373.759z"/>
			<path style="fill:#96E0DE;" d="M186.883,373.759c-0.49,0-0.99-0.05-1.47-0.15c-0.48-0.09-0.95-0.24-1.4-0.42
				c-0.45-0.19-0.89-0.42-1.3-0.69c-0.41-0.28-0.79-0.59-1.14-0.94c-1.39-1.39-2.19-3.32-2.19-5.3c0-0.49,0.05-0.98,0.14-1.46
				c0.1-0.48,0.24-0.95,0.43-1.41c0.19-0.45,0.42-0.89,0.69-1.29c0.27-0.41,0.59-0.8,0.93-1.14c0.35-0.35,0.73-0.66,1.14-0.93
				s0.85-0.51,1.3-0.69c0.45-0.19,0.92-0.33,1.4-0.43c0.97-0.2,1.97-0.2,2.93,0c0.48,0.1,0.95,0.24,1.41,0.43
				c0.45,0.18,0.88,0.42,1.29,0.69c0.41,0.27,0.79,0.58,1.14,0.93c0.35,0.34,0.66,0.73,0.93,1.14c0.27,0.4,0.5,0.84,0.69,1.29
				c0.19,0.46,0.33,0.93,0.43,1.41c0.1,0.48,0.15,0.97,0.15,1.46s-0.05,0.98-0.15,1.47c-0.1,0.48-0.24,0.95-0.43,1.4
				c-0.19,0.45-0.42,0.89-0.69,1.29c-0.27,0.41-0.58,0.8-0.93,1.14c-0.35,0.35-0.73,0.66-1.14,0.94c-0.41,0.27-0.84,0.5-1.29,0.69
				c-0.46,0.18-0.93,0.33-1.41,0.42C187.864,373.709,187.374,373.759,186.883,373.759z"/>
			<path style="fill:#96E0DE;" d="M251.303,373.759c-1.98,0-3.91-0.8-5.3-2.2c-1.4-1.39-2.2-3.32-2.2-5.3c0-1.97,0.8-3.91,2.2-5.3
				c0.34-0.35,0.73-0.66,1.14-0.93c0.4-0.27,0.84-0.51,1.29-0.69c0.45-0.19,0.93-0.34,1.4-0.43c2.44-0.49,5.03,0.31,6.77,2.05
				c0.35,0.34,0.66,0.73,0.93,1.14c0.27,0.4,0.51,0.84,0.69,1.29c0.19,0.46,0.34,0.93,0.43,1.41c0.1,0.48,0.15,0.97,0.15,1.46
				c0,1.98-0.8,3.91-2.2,5.3C255.213,372.959,253.284,373.759,251.303,373.759z"/>
			<path style="fill:#96E0DE;" d="M315.732,373.759c-0.49,0-0.98-0.05-1.47-0.14c-0.47-0.1-0.95-0.25-1.4-0.43
				c-0.45-0.19-0.89-0.42-1.29-0.69c-0.41-0.28-0.8-0.59-1.14-0.94c-0.35-0.34-0.66-0.72-0.94-1.14c-0.27-0.4-0.5-0.84-0.69-1.29
				c-0.18-0.45-0.33-0.92-0.42-1.4c-0.1-0.49-0.15-0.98-0.15-1.47s0.05-0.98,0.15-1.46c0.09-0.48,0.24-0.96,0.42-1.41
				c0.19-0.45,0.42-0.89,0.69-1.29c0.28-0.41,0.59-0.8,0.94-1.14c0.34-0.35,0.73-0.66,1.14-0.93c0.4-0.27,0.84-0.51,1.29-0.69
				c0.45-0.19,0.93-0.34,1.4-0.43c0.97-0.2,1.97-0.2,2.94,0c0.47,0.09,0.95,0.24,1.4,0.43c0.45,0.18,0.89,0.42,1.29,0.69
				c0.41,0.27,0.8,0.58,1.14,0.93c0.35,0.34,0.66,0.73,0.94,1.14c0.27,0.4,0.5,0.84,0.68,1.29c0.19,0.46,0.34,0.93,0.43,1.41
				c0.1,0.48,0.15,0.97,0.15,1.46s-0.05,0.98-0.15,1.47c-0.09,0.48-0.24,0.95-0.43,1.4c-0.18,0.45-0.41,0.89-0.68,1.29
				c-0.28,0.42-0.59,0.8-0.94,1.14c-0.34,0.35-0.73,0.66-1.14,0.94c-0.4,0.27-0.84,0.5-1.29,0.69c-0.45,0.18-0.93,0.33-1.4,0.43
				C316.713,373.709,316.224,373.759,315.732,373.759z"/>
		</g>
	</g>
</g>
<g>
</g>
<g>
</g>
<g>
</g>
<g>
</g>
<g>
</g>
<g>
</g>
<g>
</g>
<g>
</g>
<g>
</g>
<g>
</g>
<g>
</g>
<g>
</g>
<g>
</g>
<g>
</g>
<g>
</g>
</svg>
