<?xml version="1.0" encoding="iso-8859-1"?>
<!-- Generator: Adobe Illustrator 19.0.0, SVG Export Plug-In . SVG Version: 6.00 Build 0)  -->
<svg version="1.1" id="Layer_1" xmlns="http://www.w3.org/2000/svg" xmlns:xlink="http://www.w3.org/1999/xlink" x="0px" y="0px"
	 viewBox="0 0 512.001 512.001" style="enable-background:new 0 0 512.001 512.001;" xml:space="preserve">
<g>
	<path style="fill:#85C14E;" d="M447.202,221.348l-58.492-73.11c-5.764-7.212-14.495-11.405-23.729-11.405H264.824v256h97.103
		c0-29.255,23.72-52.966,52.966-52.966c29.255,0,52.966,23.711,52.966,52.966h24.276c10.973,0,19.862-8.898,19.862-19.871V244.97
		c0-10.973-8.889-19.862-19.862-19.862h-37.12C451.978,225.108,449.1,223.722,447.202,221.348"/>
	<path style="fill:#6AA62C;" d="M0.001,286.897v88.285c0,9.746,7.901,17.646,17.646,17.646h26.492
		c0-29.255,23.711-52.966,52.966-52.966s52.966,23.711,52.966,52.966h114.759V286.897H0.001z"/>
	<path style="fill:#FFCC5C;" d="M264.828,286.897H0V91.578c0-14.009,11.361-25.37,25.37-25.37h214.087
		c14.009,0,25.37,11.361,25.37,25.37V286.897z"/>
	<g>
		<path style="fill:#5B5B5B;" d="M467.863,392.828c0,29.255-23.711,52.966-52.966,52.966s-52.966-23.711-52.966-52.966
			c0-29.255,23.711-52.966,52.966-52.966S467.863,363.573,467.863,392.828"/>
		<path style="fill:#5B5B5B;" d="M150.07,392.828c0,29.255-23.711,52.966-52.966,52.966s-52.966-23.711-52.966-52.966
			c0-29.255,23.711-52.966,52.966-52.966S150.07,363.573,150.07,392.828"/>
	</g>
	<g>
		<path style="fill:#B2B2B2;" d="M114.76,392.828c0,9.754-7.901,17.655-17.655,17.655s-17.655-7.901-17.655-17.655
			c0-9.754,7.901-17.655,17.655-17.655S114.76,383.074,114.76,392.828"/>
		<path style="fill:#B2B2B2;" d="M432.553,392.828c0,9.754-7.901,17.655-17.655,17.655s-17.655-7.901-17.655-17.655
			c0-9.754,7.901-17.655,17.655-17.655S432.553,383.074,432.553,392.828"/>
	</g>
	<path style="fill:#E6E6E6;" d="M388.713,148.235c-5.764-7.212-14.504-11.405-23.737-11.405h-47.183v47.078
		c0,8.13,6.585,14.716,14.716,14.716h96.512L388.713,148.235z"/>
	<g>
		<path style="fill:#DBA436;" d="M0.001,172.138h97.103c4.882,0,8.828-3.946,8.828-8.828c0-4.882-3.946-8.828-8.828-8.828H0.001
			V172.138z"/>
		<path style="fill:#DBA436;" d="M0.001,216.276h132.414c4.882,0,8.828-3.946,8.828-8.828c0-4.882-3.946-8.828-8.828-8.828H0.001
			V216.276z"/>
	</g>
	<path style="fill:#6AA62C;" d="M512.001,295.725v-17.655l0,0H361.932c-4.882,0-8.828,3.946-8.828,8.828
		c0,4.882,3.946,8.828,8.828,8.828H512.001L512.001,295.725z"/>
</g>
<g>
</g>
<g>
</g>
<g>
</g>
<g>
</g>
<g>
</g>
<g>
</g>
<g>
</g>
<g>
</g>
<g>
</g>
<g>
</g>
<g>
</g>
<g>
</g>
<g>
</g>
<g>
</g>
<g>
</g>
</svg>
