<?xml version="1.0" encoding="iso-8859-1"?>
<!-- Generator: Adobe Illustrator 19.0.0, SVG Export Plug-In . SVG Version: 6.00 Build 0)  -->
<svg version="1.1" id="Layer_1" xmlns="http://www.w3.org/2000/svg" xmlns:xlink="http://www.w3.org/1999/xlink" x="0px" y="0px"
	 viewBox="0 0 512 512" style="enable-background:new 0 0 512 512;" xml:space="preserve">
<g>
	<path style="fill:#D9A654;" d="M468.61,299.39c-4.799,0-8.678-3.879-8.678-8.678c0-4.799,3.879-8.678,8.678-8.678
		c14.353,0,26.034-11.681,26.034-26.034c0-4.799,3.879-8.678,8.678-8.678c4.799,0,8.678,3.879,8.678,8.678
		C512,279.925,492.535,299.39,468.61,299.39"/>
	<path style="fill:#B73127;" d="M429.978,282.034H190.275c16.532,18.432,26.676,42.713,26.676,69.424
		c0,15.508-3.48,30.165-9.563,43.39h70.17c4.139-24.619,25.496-43.39,51.287-43.39s47.147,18.77,51.287,43.39h19.039
		c4.764,0,9.121-2.69,11.255-6.96l30.807-87.647C445.416,291.875,439.332,282.034,429.978,282.034"/>
	<path style="fill:#494949;" d="M381.831,403.525c0,28.759-23.309,52.068-52.068,52.068c-28.759,0-52.068-23.309-52.068-52.068
		c0-28.759,23.309-52.068,52.068-52.068C358.521,351.458,381.831,374.767,381.831,403.525"/>
	<path style="fill:#A2A2A2;" d="M347.119,403.525c0,9.589-7.767,17.356-17.356,17.356c-9.589,0-17.356-7.767-17.356-17.356
		s7.767-17.356,17.356-17.356C339.352,386.169,347.119,393.936,347.119,403.525"/>
	<path style="fill:#EC5749;" d="M190.251,282.034h63.583L221.501,137.52c-2.655-11.906-13.225-20.367-25.418-20.367H78.115
		c-14.379,0-26.043,11.663-26.043,26.051v123.791c17.104-12.331,38.044-19.673,60.746-19.673
		C143.616,247.322,171.212,260.756,190.251,282.034"/>
	<path style="fill:#B73127;" d="M179.411,212.61h-75.273c-4.799,0-8.678-3.888-8.678-8.678v-43.39c0-4.79,3.879-8.678,8.678-8.678
		h62.872c3.879,0,7.281,2.569,8.348,6.292l12.401,43.39C189.338,207.091,185.173,212.61,179.411,212.61"/>
	<g>
		<path style="fill:#EC5749;" d="M251.661,325.424h-34.712c-4.799,0-8.678-3.879-8.678-8.678s3.879-8.678,8.678-8.678h34.712
			c4.799,0,8.678,3.879,8.678,8.678S256.46,325.424,251.661,325.424"/>
		<path style="fill:#EC5749;" d="M269.017,360.136h-52.068c-4.799,0-8.678-3.879-8.678-8.678c0-4.799,3.879-8.678,8.678-8.678
			h52.068c4.799,0,8.678,3.879,8.678,8.678C277.695,356.257,273.816,360.136,269.017,360.136"/>
	</g>
	<path style="fill:#D9A654;" d="M416.542,82.441c0,19.17-15.542,34.712-34.712,34.712s-34.712-15.542-34.712-34.712
		s15.542-34.712,34.712-34.712S416.542,63.271,416.542,82.441"/>
	<path style="fill:#F9C664;" d="M381.831,117.153c-18.094,0-32.785-13.902-34.399-31.57L242.393,230.903l11.438,51.131h14.874
		l117.118-165.281C384.495,116.901,383.202,117.153,381.831,117.153"/>
	<path style="fill:#D9A654;" d="M512,256l-31.831-3.541c-28.594-3.176-53.274-21.478-64.607-47.928l-7.697-17.955H512V256z"/>
	<path style="fill:#F9C664;" d="M415.088,73.03c0.85,3.011,1.458,6.127,1.458,9.407c0,12.245-6.378,22.953-15.941,29.132
		l41.975,75.004h52.068L415.088,73.03z"/>
	<path style="fill:#494949;" d="M216.949,351.458c0,57.509-46.627,104.136-104.136,104.136S8.678,408.966,8.678,351.458
		c0-57.509,46.627-104.136,104.136-104.136S216.949,293.949,216.949,351.458"/>
	<g>
		<path style="fill:#A2A2A2;" d="M130.169,351.458c0,9.589-7.767,17.356-17.356,17.356s-17.356-7.767-17.356-17.356
			c0-9.589,7.767-17.356,17.356-17.356S130.169,341.868,130.169,351.458"/>
		<path style="fill:#A2A2A2;" d="M112.814,299.39c-4.799,0-8.678-3.879-8.678-8.678v-43.39c0-4.799,3.879-8.678,8.678-8.678
			s8.678,3.879,8.678,8.678v43.39C121.492,295.511,117.612,299.39,112.814,299.39"/>
		<path style="fill:#A2A2A2;" d="M112.814,464.271c-4.799,0-8.678-3.879-8.678-8.678v-43.39c0-4.799,3.879-8.678,8.678-8.678
			s8.678,3.879,8.678,8.678v43.39C121.492,460.392,117.612,464.271,112.814,464.271"/>
		<path style="fill:#A2A2A2;" d="M216.949,360.136h-43.39c-4.799,0-8.678-3.879-8.678-8.678c0-4.799,3.879-8.678,8.678-8.678h43.39
			c4.799,0,8.678,3.879,8.678,8.678C225.627,356.257,221.748,360.136,216.949,360.136"/>
		<path style="fill:#A2A2A2;" d="M52.068,360.136H8.678c-4.799,0-8.678-3.879-8.678-8.678c0-4.799,3.879-8.678,8.678-8.678h43.39
			c4.799,0,8.678,3.879,8.678,8.678C60.746,356.257,56.867,360.136,52.068,360.136"/>
		<path style="fill:#A2A2A2;" d="M69.856,317.178c-2.222,0-4.443-0.85-6.135-2.543l-30.677-30.677
			c-3.393-3.393-3.393-8.886,0-12.271c3.384-3.393,8.878-3.393,12.271,0l30.677,30.677c3.393,3.393,3.393,8.878,0,12.271
			C74.299,316.327,72.077,317.178,69.856,317.178"/>
		<path style="fill:#A2A2A2;" d="M186.45,433.772c-2.222,0-4.443-0.85-6.135-2.543l-30.677-30.677
			c-3.393-3.393-3.393-8.886,0-12.271c3.384-3.393,8.878-3.393,12.271,0l30.677,30.677c3.393,3.393,3.393,8.878,0,12.271
			C190.893,432.921,188.671,433.772,186.45,433.772"/>
		<path style="fill:#A2A2A2;" d="M155.771,317.178c-2.222,0-4.443-0.85-6.135-2.543c-3.393-3.393-3.393-8.878,0-12.271
			l30.677-30.677c3.393-3.393,8.886-3.393,12.271,0c3.393,3.384,3.393,8.878,0,12.271l-30.677,30.677
			C160.214,316.327,157.993,317.178,155.771,317.178"/>
		<path style="fill:#A2A2A2;" d="M39.178,433.772c-2.222,0-4.443-0.85-6.135-2.543c-3.393-3.393-3.393-8.878,0-12.271l30.677-30.677
			c3.393-3.393,8.886-3.393,12.271,0c3.393,3.384,3.393,8.878,0,12.271l-30.677,30.677
			C43.621,432.921,41.399,433.772,39.178,433.772"/>
	</g>
</g>
<g>
</g>
<g>
</g>
<g>
</g>
<g>
</g>
<g>
</g>
<g>
</g>
<g>
</g>
<g>
</g>
<g>
</g>
<g>
</g>
<g>
</g>
<g>
</g>
<g>
</g>
<g>
</g>
<g>
</g>
</svg>
