<?xml version="1.0" encoding="iso-8859-1"?>
<!-- Generator: Adobe Illustrator 19.0.0, SVG Export Plug-In . SVG Version: 6.00 Build 0)  -->
<svg version="1.1" id="Layer_1" xmlns="http://www.w3.org/2000/svg" xmlns:xlink="http://www.w3.org/1999/xlink" x="0px" y="0px"
	 viewBox="0 0 512.099 512.099" style="enable-background:new 0 0 512.099 512.099;" xml:space="preserve">
<g>
	<path style="fill:#A2A2A2;" d="M422.274,209.782c-4.967,0-8.982-4.015-8.982-8.982V93.01c0-4.967,4.015-8.982,8.982-8.982
		c4.967,0,8.982,4.015,8.982,8.982V200.8C431.257,205.767,427.242,209.782,422.274,209.782"/>
	<g>
		<path style="fill:#FEC24C;" d="M512.049,263.677c0-47.535-63.407-59.563-83.609-62.195c-0.458-0.207-0.961-0.314-1.518-0.252
			c-17.875,2.12-85.54,13.393-85.54,62.446c0,0-3.746,23.202,53.895,80.842l17.92-80.842l13.51-47.176l13.483,47.176l17.965,80.842
			C515.795,286.879,512.049,263.677,512.049,263.677"/>
		<path style="fill:#FEC24C;" d="M193.346,141.036c-2.758-12.315-13.689-21.082-26.31-21.082H44.929
			c-14.893,0-26.965,12.072-26.965,26.965v143.701h143.037h65.805L193.346,141.036z"/>
	</g>
	<g>
		<path style="fill:#BC8D2F;" d="M294.263,290.624h-276.3v116.772h215.579h9.126h19.708c4.931,0,9.441-2.785,11.65-7.204
			l31.888-90.723C310.242,300.81,303.946,290.624,294.263,290.624"/>
		<path style="fill:#BC8D2F;" d="M149.776,236.73H71.862c-4.967,0-8.982-4.024-8.982-8.982v-44.912c0-4.958,4.015-8.982,8.982-8.982
			h65.078c4.015,0,7.536,2.659,8.641,6.512l12.836,44.912C160.052,231.017,155.741,236.73,149.776,236.73"/>
	</g>
	<path style="fill:#FEC24C;" d="M401.186,42.101L214.971,237.703l11.839,52.925h15.396L443.251,80.924
		c11.3-12.189,9.872-31.421-3.108-41.804l0,0C428.394,29.715,411.363,31.017,401.186,42.101"/>
	<path style="fill:#535353;" d="M287.439,479.256H35.93c-19.761,0-35.93-16.168-35.93-35.93l0,0c0-19.761,16.168-35.93,35.93-35.93
		h251.509c19.761,0,35.93,16.168,35.93,35.93l0,0C323.368,463.088,307.2,479.256,287.439,479.256"/>
	<g>
		<path style="fill:#A2A2A2;" d="M125.754,443.326c0,4.958-4.024,8.982-8.982,8.982c-4.958,0-8.982-4.024-8.982-8.982
			c0-4.958,4.024-8.982,8.982-8.982C121.73,434.344,125.754,438.368,125.754,443.326"/>
		<path style="fill:#A2A2A2;" d="M170.667,443.326c0,4.958-4.024,8.982-8.982,8.982c-4.958,0-8.982-4.024-8.982-8.982
			c0-4.958,4.024-8.982,8.982-8.982C166.643,434.344,170.667,438.368,170.667,443.326"/>
		<path style="fill:#A2A2A2;" d="M215.579,443.326c0,4.958-4.024,8.982-8.982,8.982s-8.982-4.024-8.982-8.982
			c0-4.958,4.024-8.982,8.982-8.982S215.579,438.368,215.579,443.326"/>
	</g>
	<path style="fill:#E15649;" d="M107.789,66.063c-14.821,0-26.947,12.126-26.947,26.947v26.947h53.895V93.01
		C134.737,78.189,122.611,66.063,107.789,66.063"/>
	<g>
		<path style="fill:#A2A2A2;" d="M71.86,443.326c0,19.842-16.088,35.93-35.93,35.93S0,463.168,0,443.326s16.088-35.93,35.93-35.93
			S71.86,423.484,71.86,443.326"/>
		<path style="fill:#A2A2A2;" d="M323.368,443.326c0,19.842-16.088,35.93-35.93,35.93s-35.93-16.088-35.93-35.93
			s16.088-35.93,35.93-35.93S323.368,423.484,323.368,443.326"/>
	</g>
	<g>
		<path style="fill:#FEC24C;" d="M170.667,317.572H17.965v17.965h152.702c4.958,0,8.982-4.015,8.982-8.982
			C179.649,321.587,175.625,317.572,170.667,317.572"/>
		<path style="fill:#FEC24C;" d="M224.561,353.502H17.965v17.965h206.596c4.958,0,8.982-4.015,8.982-8.982
			S229.52,353.502,224.561,353.502"/>
	</g>
</g>
<g>
</g>
<g>
</g>
<g>
</g>
<g>
</g>
<g>
</g>
<g>
</g>
<g>
</g>
<g>
</g>
<g>
</g>
<g>
</g>
<g>
</g>
<g>
</g>
<g>
</g>
<g>
</g>
<g>
</g>
</svg>
