<?xml version="1.0" encoding="iso-8859-1"?>
<!-- Generator: Adobe Illustrator 19.0.0, SVG Export Plug-In . SVG Version: 6.00 Build 0)  -->
<svg version="1.1" id="Layer_1" xmlns="http://www.w3.org/2000/svg" xmlns:xlink="http://www.w3.org/1999/xlink" x="0px" y="0px"
	 viewBox="0 0 512.036 512.036" style="enable-background:new 0 0 512.036 512.036;" xml:space="preserve">
<g transform="translate(-1)">
	<g>
		<path style="fill:#5B5B5B;" d="M212.898,66.225c-4.882,0-8.828-3.946-8.828-8.828v-35.31c0-4.882,3.946-8.828,8.828-8.828
			s8.828,3.946,8.828,8.828v35.31C221.726,62.279,217.78,66.225,212.898,66.225"/>
		<path style="fill:#5B5B5B;" d="M177.588,66.225c-4.882,0-8.828-3.946-8.828-8.828v-35.31c0-4.882,3.946-8.828,8.828-8.828
			s8.828,3.946,8.828,8.828v35.31C186.416,62.279,182.47,66.225,177.588,66.225"/>
		<path style="fill:#5B5B5B;" d="M80.485,286.915c-38.938,0-70.621-31.682-70.621-70.621V101.535
			c0-29.21,23.755-52.966,52.966-52.966s52.966,23.755,52.966,52.966c0,4.882-3.946,8.828-8.828,8.828
			c-4.882,0-8.828-3.946-8.828-8.828c0-19.474-15.837-35.31-35.31-35.31s-35.31,15.837-35.31,35.31v114.759
			c0,29.21,23.755,52.966,52.966,52.966c4.882,0,8.828,3.946,8.828,8.828C89.312,282.969,85.366,286.915,80.485,286.915"/>
		<path style="fill:#5B5B5B;" d="M151.105,154.501c-29.21,0-52.966-23.755-52.966-52.966c0-4.882,3.946-8.828,8.828-8.828
			c4.882,0,8.828,3.946,8.828,8.828c0,19.474,15.837,35.31,35.31,35.31s35.31-15.837,35.31-35.31c0-4.882,3.946-8.828,8.828-8.828
			c4.882,0,8.828,3.946,8.828,8.828C204.071,130.746,180.316,154.501,151.105,154.501"/>
	</g>
	<path style="fill:#E6E6E6;" d="M168.76,101.535h52.966V57.397H168.76V101.535z"/>
	<path style="fill:#5B5B5B;" d="M151.105,445.811c0,29.255-23.711,52.966-52.966,52.966s-52.966-23.711-52.966-52.966
		s23.711-52.966,52.966-52.966S151.105,416.557,151.105,445.811"/>
	<path style="fill:#B2B2B2;" d="M115.795,445.811c0,9.754-7.901,17.655-17.655,17.655s-17.655-7.901-17.655-17.655
		s7.901-17.655,17.655-17.655S115.795,436.057,115.795,445.811"/>
	<path style="fill:#5B5B5B;" d="M468.898,445.811c0,29.255-23.711,52.966-52.966,52.966c-29.255,0-52.966-23.711-52.966-52.966
		s23.711-52.966,52.966-52.966C445.187,392.846,468.898,416.557,468.898,445.811"/>
	<path style="fill:#B2B2B2;" d="M433.588,445.811c0,9.754-7.901,17.655-17.655,17.655c-9.754,0-17.655-7.901-17.655-17.655
		s7.901-17.655,17.655-17.655C425.687,428.156,433.588,436.057,433.588,445.811"/>
	<path style="fill:#EE705C;" d="M391.126,290.743l-30.482-49.532c-9.525-15.484-26.403-24.92-44.588-24.92H136.247
		c-18.194,0-35.081,9.454-44.606,24.956l-43.9,71.477c-7,11.388-19.421,18.326-32.786,18.326h-0.424
		c-7.539,0-13.55,6.012-13.533,13.444c0.018,19.5,0.026,55.861,0.035,79.307c0,12.191,9.878,22.007,22.06,22.007h22.078
		c0-29.246,23.711-52.966,52.966-52.966s52.966,23.72,52.966,52.966h211.862c0-29.246,23.711-52.966,52.966-52.966
		s52.966,23.72,52.966,52.966h17.284c14.83,0,26.853-12.023,26.853-26.854v-74.496c0-7.406-6.003-13.409-13.409-13.409h-36.361
		C433.852,331.05,406.539,315.796,391.126,290.743"/>
	<path style="fill:#E6E6E6;" d="M391.126,290.743l-24.082-39.142H131.931c-4.034,0-7.309,3.275-7.309,7.309v38.347
		c0,4.043,3.275,7.309,7.309,7.309h270.036C397.959,300.348,394.243,295.81,391.126,290.743"/>
	<path style="fill:#5B5B5B;" d="M248.209,304.57h17.655v-52.965h-17.655V304.57z"/>
	<g>
		<path style="fill:#C64533;" d="M301.174,357.535h-44.138c-4.873,0-8.828-3.946-8.828-8.828c0-4.882,3.955-8.828,8.828-8.828
			h44.138c4.873,0,8.828,3.946,8.828,8.828C310.002,353.589,306.047,357.535,301.174,357.535"/>
		<path style="fill:#C64533;" d="M301.174,375.191c-4.873,0-8.828-3.946-8.828-8.828v-17.655c0-4.882,3.955-8.828,8.828-8.828
			s8.828,3.946,8.828,8.828v17.655C310.002,371.245,306.047,375.191,301.174,375.191"/>
		<path style="fill:#C64533;" d="M513.036,366.363h-35.31c-4.882,0-8.828,3.946-8.828,8.828c0,4.882,3.946,8.828,8.828,8.828h35.31
			V366.363z"/>
		<path style="fill:#C64533;" d="M36.347,366.363H1.019c0,5.667,0,11.582,0.009,17.655h35.319c4.873,0,8.828-3.946,8.828-8.828
			C45.174,370.309,41.219,366.363,36.347,366.363"/>
	</g>
</g>
<g>
</g>
<g>
</g>
<g>
</g>
<g>
</g>
<g>
</g>
<g>
</g>
<g>
</g>
<g>
</g>
<g>
</g>
<g>
</g>
<g>
</g>
<g>
</g>
<g>
</g>
<g>
</g>
<g>
</g>
</svg>
