<?xml version="1.0" encoding="iso-8859-1"?>
<!-- Generator: Adobe Illustrator 19.0.0, SVG Export Plug-In . SVG Version: 6.00 Build 0)  -->
<svg version="1.1" id="Layer_1" xmlns="http://www.w3.org/2000/svg" xmlns:xlink="http://www.w3.org/1999/xlink" x="0px" y="0px"
	 viewBox="0 0 512.006 512.006" style="enable-background:new 0 0 512.006 512.006;" xml:space="preserve">
<g>
	<path style="fill:#666666;" d="M70.627,512.003H17.661c-9.754,0-17.655-7.901-17.655-17.655V317.796
		c0-9.754,7.901-17.655,17.655-17.655h52.966c9.746,0,17.655,7.901,17.655,17.655v176.552
		C88.282,504.102,80.373,512.003,70.627,512.003"/>
	<g>
		<path style="fill:#484848;" d="M88.28,317.794c0-3.099-0.874-5.976-2.278-8.51c-1.148,0.309-2.251,0.83-3.24,1.615l-44.138,35.31
			c-3.805,3.046-4.423,8.607-1.377,12.412c1.748,2.18,4.308,3.31,6.894,3.31c1.942,0,3.884-0.636,5.517-1.933l38.621-30.897V317.794
			z"/>
		<path style="fill:#484848;" d="M5.517,310.904c-0.989-0.786-2.092-1.306-3.24-1.615C0.874,311.822,0,314.691,0,317.798v11.299
			l38.63,30.905c1.624,1.298,3.575,1.933,5.508,1.933c2.586,0,5.155-1.139,6.894-3.319c3.046-3.805,2.436-9.357-1.377-12.403
			L5.517,310.904z"/>
		<path style="fill:#484848;" d="M88.28,370.895c-1.933,0-3.884,0.503-5.517,1.801l-44.138,35.31
			c-3.805,3.046-4.423,8.598-1.377,12.403c1.748,2.18,4.308,3.319,6.894,3.319c1.942,0,3.884-0.636,5.517-1.933l38.621-30.905
			V370.895z"/>
		<path style="fill:#484848;" d="M5.517,372.697c-1.624-1.306-3.575-1.801-5.517-1.801v19.994l38.63,30.905
			c1.624,1.298,3.575,1.933,5.508,1.933c2.586,0,5.155-1.139,6.894-3.319c3.046-3.805,2.436-9.357-1.377-12.403L5.517,372.697z"/>
		<path style="fill:#484848;" d="M5.517,434.49c-1.624-1.298-3.575-1.801-5.517-1.801v19.994l38.63,30.905
			c1.624,1.298,3.575,1.933,5.508,1.933c2.586,0,5.155-1.139,6.894-3.319c3.046-3.805,2.436-9.357-1.377-12.403L5.517,434.49z"/>
		<path style="fill:#484848;" d="M88.28,432.69c-1.933,0-3.884,0.503-5.517,1.801l-44.138,35.31
			c-3.805,3.046-4.423,8.598-1.377,12.403c1.748,2.18,4.308,3.319,6.894,3.319c1.942,0,3.884-0.636,5.517-1.933l38.621-30.905
			V432.69z"/>
	</g>
	<path style="fill:#666666;" d="M494.351,512.003h-52.966c-9.754,0-17.655-7.901-17.655-17.655V317.796
		c0-9.754,7.901-17.655,17.655-17.655h52.966c9.746,0,17.655,7.901,17.655,17.655v176.552
		C512.006,504.102,504.097,512.003,494.351,512.003"/>
	<g>
		<path style="fill:#484848;" d="M512.004,317.794c0-3.099-0.874-5.976-2.277-8.51c-1.148,0.309-2.251,0.83-3.24,1.615
			l-44.138,35.31c-3.805,3.046-4.423,8.607-1.377,12.412c1.748,2.18,4.308,3.31,6.894,3.31c1.942,0,3.884-0.636,5.517-1.933
			l38.621-30.897V317.794z"/>
		<path style="fill:#484848;" d="M429.241,310.904c-0.989-0.786-2.092-1.306-3.24-1.615c-1.404,2.534-2.277,5.402-2.277,8.51v11.299
			l38.629,30.905c1.624,1.298,3.575,1.933,5.508,1.933c2.586,0,5.155-1.139,6.894-3.319c3.046-3.805,2.436-9.357-1.377-12.403
			L429.241,310.904z"/>
		<path style="fill:#484848;" d="M512.004,370.895c-1.933,0-3.884,0.503-5.517,1.801l-44.138,35.31
			c-3.805,3.046-4.423,8.598-1.377,12.403c1.748,2.18,4.308,3.319,6.894,3.319c1.942,0,3.884-0.636,5.517-1.933l38.621-30.905
			V370.895z"/>
		<path style="fill:#484848;" d="M429.241,372.697c-1.624-1.306-3.575-1.801-5.517-1.801v19.994l38.629,30.905
			c1.624,1.298,3.575,1.933,5.508,1.933c2.586,0,5.155-1.139,6.894-3.319c3.046-3.805,2.436-9.357-1.377-12.403L429.241,372.697z"/>
		<path style="fill:#484848;" d="M429.241,434.49c-1.624-1.298-3.575-1.801-5.517-1.801v19.994l38.629,30.905
			c1.624,1.298,3.575,1.933,5.508,1.933c2.586,0,5.155-1.139,6.894-3.319c3.046-3.805,2.436-9.357-1.377-12.403L429.241,434.49z"/>
		<path style="fill:#484848;" d="M512.004,432.69c-1.933,0-3.884,0.503-5.517,1.801l-44.138,35.31
			c-3.805,3.046-4.423,8.598-1.377,12.403c1.748,2.18,4.308,3.319,6.894,3.319c1.942,0,3.884-0.636,5.517-1.933l38.621-30.905
			V432.69z"/>
	</g>
	<path style="fill:#B3B3B3;" d="M316.055,408.508l-22.996-84.321c-1.033-3.769-4.458-6.391-8.369-6.391h-57.37
		c-3.911,0-7.336,2.622-8.369,6.391l-22.996,84.321c-1.033,3.769-4.458,6.391-8.369,6.391h-99.31v61.793h335.448V414.9h-99.302
		C320.513,414.9,317.088,412.278,316.055,408.508"/>
	<g>
		<path style="fill:#666666;" d="M238.349,317.796h35.31V194.21h-35.31V317.796z"/>
		<path style="fill:#666666;" d="M238.349,176.555h35.31V70.624h-35.31V176.555z"/>
	</g>
	<g>
		<path style="fill:#B3B3B3;" d="M264.818,211.865h-17.629c-9.754,0-17.664-7.91-17.664-17.673v-17.62
			c0-9.763,7.91-17.673,17.664-17.673h17.629c9.754,0,17.673,7.91,17.673,17.673v17.62
			C282.491,203.956,274.572,211.865,264.818,211.865"/>
		<path style="fill:#B3B3B3;" d="M273.645,70.624h-35.284c-9.754,0-17.664-7.91-17.664-17.673V17.676
			c0-9.763,7.91-17.673,17.664-17.673h35.284c9.755,0,17.673,7.91,17.673,17.673v35.275C291.318,62.714,283.4,70.624,273.645,70.624
			"/>
	</g>
	<g>
		<path style="fill:#666666;" d="M220.694,52.969H116.776c-5.985,0-10.84-4.855-10.84-10.84v-13.63c0-5.985,4.855-10.84,10.84-10.84
			h103.918V52.969z"/>
		<path style="fill:#666666;" d="M395.23,52.969H291.312v-35.31H395.23c5.985,0,10.84,4.855,10.84,10.84v13.63
			C406.071,48.113,401.216,52.969,395.23,52.969"/>
		<path style="fill:#666666;" d="M273.66,370.762h-35.31c-4.873,0-8.828-3.955-8.828-8.828s3.955-8.828,8.828-8.828h35.31
			c4.873,0,8.828,3.955,8.828,8.828S278.532,370.762,273.66,370.762"/>
		<path style="fill:#666666;" d="M273.66,406.072h-35.31c-4.873,0-8.828-3.955-8.828-8.828c0-4.873,3.955-8.828,8.828-8.828h35.31
			c4.873,0,8.828,3.955,8.828,8.828C282.487,402.117,278.532,406.072,273.66,406.072"/>
		<path style="fill:#666666;" d="M273.66,441.382h-35.31c-4.873,0-8.828-3.955-8.828-8.828s3.955-8.828,8.828-8.828h35.31
			c4.873,0,8.828,3.955,8.828,8.828S278.532,441.382,273.66,441.382"/>
	</g>
</g>
<g>
</g>
<g>
</g>
<g>
</g>
<g>
</g>
<g>
</g>
<g>
</g>
<g>
</g>
<g>
</g>
<g>
</g>
<g>
</g>
<g>
</g>
<g>
</g>
<g>
</g>
<g>
</g>
<g>
</g>
</svg>
