<?xml version="1.0" encoding="iso-8859-1"?>
<!-- Generator: Adobe Illustrator 19.0.0, SVG Export Plug-In . SVG Version: 6.00 Build 0)  -->
<svg version="1.1" id="Layer_1" xmlns="http://www.w3.org/2000/svg" xmlns:xlink="http://www.w3.org/1999/xlink" x="0px" y="0px"
	 viewBox="0 0 512 512" style="enable-background:new 0 0 512 512;" xml:space="preserve">
<g>
	<g>
		<path style="fill:#A14B3D;" d="M91.429,109.714H54.857c-5.047,0-9.143-4.096-9.143-9.143s4.096-9.143,9.143-9.143h36.571
			c5.047,0,9.143,4.096,9.143,9.143S96.475,109.714,91.429,109.714"/>
		<path style="fill:#A14B3D;" d="M457.143,109.714h-36.571c-5.056,0-9.143-4.096-9.143-9.143s4.087-9.143,9.143-9.143h36.571
			c5.056,0,9.143,4.096,9.143,9.143S462.199,109.714,457.143,109.714"/>
		<path style="fill:#A14B3D;" d="M457.143,393.143H54.857V274.286l27.429-36.571h347.429l27.429,36.571V393.143z"/>
	</g>
	<g>
		<path style="fill:#EF715D;" d="M466.286,448H45.714c-10.103,0-18.286-8.183-18.286-18.286v-18.286
			c0-10.103,8.183-18.286,18.286-18.286h420.571c10.103,0,18.286,8.183,18.286,18.286v18.286
			C484.571,439.817,476.389,448,466.286,448"/>
		<path style="fill:#EF715D;" d="M429.714,237.714H82.286L99.273,16.859C100.005,7.342,107.941,0,117.486,0h277.029
			c9.545,0,17.481,7.342,18.213,16.859L429.714,237.714z"/>
	</g>
	<path style="fill:#AEDAF7;" d="M363.619,192H148.378c-6.199,0-11.237-5.029-11.237-11.237V56.951
		c0-6.208,5.038-11.237,11.237-11.237h215.241c6.208,0,11.237,5.029,11.237,11.237v123.813C374.855,186.971,369.827,192,363.619,192
		"/>
	<g>
		<path style="fill:#666666;" d="M109.714,512H73.143c-15.15,0-27.429-12.279-27.429-27.429V448h91.429v36.571
			C137.143,499.721,124.864,512,109.714,512"/>
		<path style="fill:#666666;" d="M429.714,512h-36.571c-15.15,0-27.429-12.279-27.429-27.429V448h91.429v36.571
			C457.143,499.721,444.864,512,429.714,512"/>
	</g>
	<g>
		<path style="fill:#EF715D;" d="M47.241,137.143H25.902c-4.206,0-7.616-3.41-7.616-7.616V71.616c0-4.206,3.41-7.616,7.616-7.616
			h21.339c4.206,0,7.616,3.41,7.616,7.616v57.911C54.857,133.733,51.447,137.143,47.241,137.143"/>
		<path style="fill:#EF715D;" d="M464.759,137.143h21.339c4.206,0,7.616-3.41,7.616-7.616V71.616c0-4.206-3.41-7.616-7.616-7.616
			h-21.339c-4.206,0-7.616,3.41-7.616,7.616v57.911C457.143,133.733,460.553,137.143,464.759,137.143"/>
		<path style="fill:#EF715D;" d="M292.571,329.143h-73.143c-5.047,0-9.143-4.096-9.143-9.143c0-5.047,4.096-9.143,9.143-9.143
			h73.143c5.047,0,9.143,4.096,9.143,9.143C301.714,325.047,297.618,329.143,292.571,329.143"/>
		<path style="fill:#EF715D;" d="M320,365.714H192c-5.047,0-9.143-4.096-9.143-9.143s4.096-9.143,9.143-9.143h128
			c5.047,0,9.143,4.096,9.143,9.143S325.047,365.714,320,365.714"/>
	</g>
	<g>
		<path style="fill:#FFCE5D;" d="M137.143,393.143H54.857V274.286l82.286,27.429V393.143z"/>
		<path style="fill:#FFCE5D;" d="M374.857,393.143h82.286V274.286l-82.286,27.429V393.143z"/>
	</g>
	<g>
		<path style="fill:#1C83BB;" d="M244.178,134.464c3.575-3.575,3.575-9.353,0-12.928c-3.575-3.575-9.353-3.575-12.928,0l-64,64
			c-1.783,1.783-2.679,4.123-2.679,6.464h22.071L244.178,134.464z"/>
		<path style="fill:#1C83BB;" d="M326.464,134.464c3.575-3.575,3.575-9.353,0-12.928c-3.575-3.575-9.353-3.575-12.928,0l-64,64
			c-1.783,1.783-2.679,4.123-2.679,6.464h22.071L326.464,134.464z"/>
	</g>
</g>
<g>
</g>
<g>
</g>
<g>
</g>
<g>
</g>
<g>
</g>
<g>
</g>
<g>
</g>
<g>
</g>
<g>
</g>
<g>
</g>
<g>
</g>
<g>
</g>
<g>
</g>
<g>
</g>
<g>
</g>
</svg>
