<?xml version="1.0" encoding="iso-8859-1"?>
<!-- Generator: Adobe Illustrator 19.0.0, SVG Export Plug-In . SVG Version: 6.00 Build 0)  -->
<svg version="1.1" id="Layer_1" xmlns="http://www.w3.org/2000/svg" xmlns:xlink="http://www.w3.org/1999/xlink" x="0px" y="0px"
	 viewBox="0 0 498.944 498.944" style="enable-background:new 0 0 498.944 498.944;" xml:space="preserve">
<g>
	<g>
		<path style="fill:#383838;" d="M10.539,44.772c-4.71,0-8.533-3.814-8.533-8.533v-25.6c0-4.719,3.823-8.533,8.533-8.533
			s8.533,3.814,8.533,8.533v25.6C19.072,40.957,15.249,44.772,10.539,44.772"/>
		<path style="fill:#383838;" d="M488.405,44.772c-4.71,0-8.533-3.814-8.533-8.533v-25.6c0-4.719,3.823-8.533,8.533-8.533
			s8.533,3.814,8.533,8.533v25.6C496.939,40.957,493.116,44.772,488.405,44.772"/>
		<path style="fill:#383838;" d="M103.051,290.138l146.423,19.089l146.415-19.089l-146.415-31.829L103.051,290.138z
			 M249.475,326.371c-0.367,0-0.742-0.026-1.109-0.077l-196.267-25.6c-4.113-0.529-7.245-3.951-7.415-8.098
			c-0.179-4.139,2.654-7.817,6.707-8.695l196.267-42.667c1.195-0.256,2.432-0.256,3.627,0l196.267,42.667
			c4.053,0.879,6.886,4.557,6.716,8.695c-0.179,4.147-3.311,7.569-7.424,8.098l-196.267,25.6
			C250.208,326.345,249.842,326.371,249.475,326.371L249.475,326.371z"/>
		<path style="fill:#383838;" d="M93.376,206.905l156.092,33.937l156.1-33.937l-156.1-33.937L93.376,206.905z M249.468,258.105
			c-0.606,0-1.212-0.068-1.809-0.188L51.392,215.251c-3.925-0.862-6.724-4.326-6.724-8.346c0-4.019,2.799-7.484,6.724-8.346
			l196.267-42.667c1.195-0.247,2.432-0.247,3.627,0l196.267,42.667c3.925,0.862,6.716,4.326,6.716,8.346
			c0,4.019-2.79,7.484-6.716,8.346l-196.267,42.667C250.688,258.037,250.082,258.105,249.468,258.105L249.468,258.105z"/>
		<path style="fill:#383838;" d="M478.022,377.372l-228.548-50.79l-228.548,50.79l-3.703-16.666l232.252-51.61l232.252,51.61
			L478.022,377.372z"/>
		<path style="fill:#383838;" d="M249.472,173.014L0,112.794l4.011-16.58l245.461,59.247l245.461-59.247l4.011,16.58
			L249.472,173.014z"/>
	</g>
	<path style="fill:#494949;" d="M130.005,445.639c0,28.279-22.921,51.2-51.2,51.2s-51.2-22.921-51.2-51.2s22.921-51.2,51.2-51.2
		S130.005,417.359,130.005,445.639"/>
	<path style="fill:#A2A2A2;" d="M95.872,445.639c0,9.429-7.637,17.067-17.067,17.067s-17.067-7.637-17.067-17.067
		s7.637-17.067,17.067-17.067S95.872,436.21,95.872,445.639"/>
	<path style="fill:#7C7B7A;" d="M2.005,104.502h494.933V70.368H2.005V104.502z"/>
	<path style="fill:#B2B2B2;" d="M215.339,70.368h68.267V10.635h-68.267V70.368z"/>
	<g>
		<path style="fill:#383838;" d="M2.005,70.368h213.333V36.235H2.005V70.368z"/>
		<path style="fill:#383838;" d="M283.605,70.368h213.333V36.235H283.605V70.368z"/>
	</g>
	<path style="fill:#494949;" d="M368.939,445.639c0,28.279,22.921,51.2,51.2,51.2c28.279,0,51.2-22.921,51.2-51.2
		s-22.921-51.2-51.2-51.2C391.859,394.439,368.939,417.359,368.939,445.639"/>
	<path style="fill:#74B73E;" d="M249.472,360.306H2.005v73.242c0,6.682,5.41,12.092,12.092,12.092h13.508
		c0-28.279,22.921-51.2,51.2-51.2s51.2,22.921,51.2,51.2h119.467h119.467c0-28.279,22.921-51.2,51.2-51.2
		c28.279,0,51.2,22.921,51.2,51.2h13.508c6.682,0,12.092-5.41,12.092-12.092v-73.242H249.472z"/>
	<path style="fill:#A2A2A2;" d="M403.072,445.639c0,9.429,7.637,17.067,17.067,17.067c9.429,0,17.067-7.637,17.067-17.067
		s-7.637-17.067-17.067-17.067C410.709,428.572,403.072,436.21,403.072,445.639"/>
</g>
<g>
</g>
<g>
</g>
<g>
</g>
<g>
</g>
<g>
</g>
<g>
</g>
<g>
</g>
<g>
</g>
<g>
</g>
<g>
</g>
<g>
</g>
<g>
</g>
<g>
</g>
<g>
</g>
<g>
</g>
</svg>
