<?xml version="1.0" encoding="iso-8859-1"?>
<!-- Generator: Adobe Illustrator 19.0.0, SVG Export Plug-In . SVG Version: 6.00 Build 0)  -->
<svg version="1.1" id="Layer_1" xmlns="http://www.w3.org/2000/svg" xmlns:xlink="http://www.w3.org/1999/xlink" x="0px" y="0px"
	 viewBox="0 0 512.002 512.002" style="enable-background:new 0 0 512.002 512.002;" xml:space="preserve">
<g>
	<g>
		<path style="fill:#1C83BB;" d="M73.764,199.595H39.052c-4.79,0-8.678-3.888-8.678-8.678s3.888-8.678,8.678-8.678h34.712
			c4.79,0,8.678,3.888,8.678,8.678S78.554,199.595,73.764,199.595"/>
		<path style="fill:#1C83BB;" d="M472.95,199.595h-34.712c-4.79,0-8.678-3.888-8.678-8.678s3.888-8.678,8.678-8.678h34.712
			c4.79,0,8.678,3.888,8.678,8.678S477.74,199.595,472.95,199.595"/>
	</g>
	<g>
		<path style="fill:#E6E6E6;" d="M229.967,52.07c-2.222,0-4.443-0.85-6.135-2.543c-3.393-3.393-3.393-8.878,0-12.271l34.712-34.712
			c3.393-3.393,8.878-3.393,12.271,0c3.393,3.393,3.393,8.878,0,12.271l-34.712,34.712C234.41,51.22,232.189,52.07,229.967,52.07"/>
		<path style="fill:#E6E6E6;" d="M282.035,52.07c-2.222,0-4.443-0.85-6.135-2.543c-3.393-3.393-3.393-8.878,0-12.271l34.712-34.712
			c3.393-3.393,8.878-3.393,12.271,0s3.393,8.878,0,12.271L288.17,49.527C286.478,51.22,284.257,52.07,282.035,52.07"/>
	</g>
	<path style="fill:#1C83BB;" d="M325.425,95.46H195.255l17.356-52.068h95.458L325.425,95.46z"/>
	<g>
		<path d="M134.51,381.833c-4.782,0-8.678,3.896-8.678,8.678s3.896,8.678,8.678,8.678c4.782,0,8.678-3.896,8.678-8.678
			S139.291,381.833,134.51,381.833 M134.51,416.545c-14.353,0-26.034-11.681-26.034-26.034c0-14.353,11.681-26.034,26.034-26.034
			c14.353,0,26.034,11.681,26.034,26.034C160.543,404.864,148.863,416.545,134.51,416.545"/>
		<path d="M377.493,381.833c-4.782,0-8.678,3.896-8.678,8.678s3.896,8.678,8.678,8.678s8.678-3.896,8.678-8.678
			S382.274,381.833,377.493,381.833 M377.493,416.545c-14.353,0-26.034-11.681-26.034-26.034c0-14.353,11.681-26.034,26.034-26.034
			c14.353,0,26.034,11.681,26.034,26.034C403.527,404.864,391.846,416.545,377.493,416.545"/>
	</g>
	<path style="fill:#419EDE;" d="M412.176,451.256H99.83c-14.397,0-26.069-11.672-26.069-26.06V121.52
		c0-14.388,11.672-26.06,26.069-26.06h312.346c14.397,0,26.06,11.672,26.06,26.06v303.677
		C438.236,439.585,426.573,451.256,412.176,451.256"/>
	<g>
		<path style="fill:#666666;" d="M160.543,512.002h-34.712c-14.379,0-26.034-11.655-26.034-26.034v-34.712h86.78v34.712
			C186.577,500.348,174.923,512.002,160.543,512.002"/>
		<path style="fill:#666666;" d="M386.171,512.002h-34.712c-14.379,0-26.034-11.655-26.034-26.034v-34.712h86.78v34.712
			C412.204,500.348,400.55,512.002,386.171,512.002"/>
	</g>
	<path style="fill:#AEDAF7;" d="M377.482,329.765H134.517c-9.589,0-17.365-7.775-17.365-17.365V156.214
		c0-9.589,7.775-17.365,17.365-17.365h242.966c9.589,0,17.365,7.775,17.365,17.365V312.4
		C394.847,321.989,387.071,329.765,377.482,329.765"/>
	<g>
		<path style="fill:#1C83BB;" d="M195.255,303.731c-4.79,0-8.678-3.888-8.678-8.678v-34.712c0-4.79,3.888-8.678,8.678-8.678
			s8.678,3.888,8.678,8.678v34.712C203.933,299.843,200.046,303.731,195.255,303.731"/>
		<path style="fill:#1C83BB;" d="M299.391,303.731c-4.79,0-8.678-3.888-8.678-8.678v-34.712c0-4.79,3.888-8.678,8.678-8.678
			c4.79,0,8.678,3.888,8.678,8.678v34.712C308.069,299.843,304.181,303.731,299.391,303.731"/>
	</g>
	<g>
		<path style="fill:#419EDE;" d="M31.823,225.629H11.569c-3.992,0-7.229-3.237-7.229-7.229v-54.966c0-3.992,3.237-7.229,7.229-7.229
			h20.254c3.992,0,7.229,3.237,7.229,7.229v54.966C39.052,222.392,35.815,225.629,31.823,225.629"/>
		<path style="fill:#419EDE;" d="M480.179,225.629h20.254c3.992,0,7.229-3.237,7.229-7.229v-54.966c0-3.992-3.237-7.229-7.229-7.229
			h-20.254c-3.992,0-7.229,3.237-7.229,7.229v54.966C472.95,222.392,476.187,225.629,480.179,225.629"/>
	</g>
	<g>
		<path style="fill:#1C83BB;" d="M290.713,381.833h-69.424c-4.79,0-8.678-3.888-8.678-8.678s3.888-8.678,8.678-8.678h69.424
			c4.79,0,8.678,3.888,8.678,8.678S295.503,381.833,290.713,381.833"/>
		<path style="fill:#1C83BB;" d="M316.747,416.545H195.255c-4.79,0-8.678-3.888-8.678-8.678s3.888-8.678,8.678-8.678h121.492
			c4.79,0,8.678,3.888,8.678,8.678S321.537,416.545,316.747,416.545"/>
		<path style="fill:#1C83BB;" d="M348.916,257.799c3.393-3.393,3.393-8.878,0-12.271s-8.878-3.393-12.271,0l-78.102,78.102
			c-1.692,1.692-2.543,3.914-2.543,6.135h20.949L348.916,257.799z"/>
		<path style="fill:#1C83BB;" d="M244.78,257.799c3.393-3.393,3.393-8.878,0-12.271c-3.393-3.393-8.878-3.393-12.271,0
			l-78.102,78.102c-1.692,1.692-2.543,3.914-2.543,6.135h20.949L244.78,257.799z"/>
	</g>
</g>
<g>
</g>
<g>
</g>
<g>
</g>
<g>
</g>
<g>
</g>
<g>
</g>
<g>
</g>
<g>
</g>
<g>
</g>
<g>
</g>
<g>
</g>
<g>
</g>
<g>
</g>
<g>
</g>
<g>
</g>
</svg>
