<?xml version="1.0" encoding="iso-8859-1"?>
<!-- Generator: Adobe Illustrator 19.0.0, SVG Export Plug-In . SVG Version: 6.00 Build 0)  -->
<svg version="1.1" id="Layer_1" xmlns="http://www.w3.org/2000/svg" xmlns:xlink="http://www.w3.org/1999/xlink" x="0px" y="0px"
	 viewBox="0 0 503.357 503.357" style="enable-background:new 0 0 503.357 503.357;" xml:space="preserve">
<g>
	<g>
		<path style="fill:#E6E6E6;" d="M130.157,164.899c-1.458,0-2.942-0.364-4.296-1.145l-60.746-34.712
			c-4.165-2.378-5.615-7.68-3.228-11.837c2.369-4.165,7.68-5.632,11.837-3.228l60.746,34.712c4.165,2.378,5.615,7.68,3.228,11.837
			C136.101,163.328,133.176,164.899,130.157,164.899"/>
		<path style="fill:#E6E6E6;" d="M303.733,164.899c-3.02,0-5.944-1.571-7.541-4.374c-2.386-4.157-0.937-9.459,3.228-11.837
			l60.746-34.712c4.157-2.404,9.468-0.937,11.837,3.228c2.386,4.157,0.937,9.459-3.228,11.837l-60.746,34.712
			C306.675,164.534,305.191,164.899,303.733,164.899"/>
	</g>
	<path style="fill:#FFCC5C;" d="M412.236,130.187H43.657c-4.946,0-8.947-4.009-8.947-8.947V78.388c0-4.938,4.001-8.947,8.947-8.947
		h303.555l67.766,52.771C418.32,124.815,416.48,130.187,412.236,130.187"/>
	<path style="fill:#5B5B5B;" d="M147.56,381.848c0,28.759-23.309,52.068-52.068,52.068s-52.068-23.309-52.068-52.068
		c0-28.759,23.309-52.068,52.068-52.068S147.56,353.089,147.56,381.848"/>
	<path style="fill:#B2B2B2;" d="M112.848,381.848c0,9.589-7.767,17.356-17.356,17.356s-17.356-7.767-17.356-17.356
		c0-9.589,7.767-17.356,17.356-17.356S112.848,372.259,112.848,381.848"/>
	<path style="fill:#5B5B5B;" d="M459.967,381.848c0,28.759-23.309,52.068-52.068,52.068c-28.759,0-52.068-23.309-52.068-52.068
		c0-28.759,23.309-52.068,52.068-52.068C436.658,329.78,459.967,353.089,459.967,381.848"/>
	<path style="fill:#B2B2B2;" d="M425.255,381.848c0,9.589-7.767,17.356-17.356,17.356s-17.356-7.767-17.356-17.356
		c0-9.589,7.767-17.356,17.356-17.356S425.255,372.259,425.255,381.848"/>
	<path style="fill:#EE705C;" d="M383.514,229.408l-29.965-48.692c-9.364-15.221-25.964-24.498-43.832-24.498H132.955
		c-17.885,0-34.486,9.294-43.85,24.533L45.95,251.016c-6.882,11.195-19.092,18.015-32.23,18.015h-0.417
		c-7.411,0-13.321,5.901-13.303,13.217c0.017,19.17,0.026,54.914,0.035,77.963c0,11.984,9.711,21.634,21.686,21.634h21.704
		c0-28.75,23.309-52.068,52.068-52.068s52.068,23.318,52.068,52.068h208.271c0-28.75,23.309-52.068,52.068-52.068
		c28.759,0,52.068,23.318,52.068,52.068h16.991c14.579,0,26.398-11.819,26.398-26.398v-73.233c0-7.281-5.901-13.182-13.182-13.182
		H454.43C425.515,269.032,398.666,254.036,383.514,229.408"/>
	<path style="fill:#E6E6E6;" d="M383.513,229.407l-23.673-38.478H128.711c-3.966,0-7.185,3.22-7.185,7.194v37.688
		c0,3.975,3.22,7.185,7.185,7.185H394.17C390.23,238.858,386.577,234.388,383.513,229.407"/>
	<path style="fill:#5B5B5B;" d="M243.013,243h17.356v-52.068h-17.356V243z"/>
	<g>
		<path style="fill:#C64533;" d="M295.086,295.068h-43.39c-4.79,0-8.678-3.879-8.678-8.678s3.888-8.678,8.678-8.678h43.39
			c4.79,0,8.678,3.879,8.678,8.678S299.876,295.068,295.086,295.068"/>
		<path style="fill:#C64533;" d="M295.086,312.424c-4.79,0-8.678-3.879-8.678-8.678V286.39c0-4.799,3.888-8.678,8.678-8.678
			c4.79,0,8.678,3.879,8.678,8.678v17.356C303.764,308.545,299.876,312.424,295.086,312.424"/>
		<path style="fill:#C64533;" d="M503.357,303.746h-34.712c-4.799,0-8.678,3.879-8.678,8.678s3.879,8.678,8.678,8.678h34.712
			V303.746z"/>
		<path style="fill:#C64533;" d="M34.747,303.746H0.017c0,5.571,0,11.385,0.009,17.356h34.721c4.79,0,8.678-3.879,8.678-8.678
			S39.537,303.746,34.747,303.746"/>
	</g>
</g>
<g>
</g>
<g>
</g>
<g>
</g>
<g>
</g>
<g>
</g>
<g>
</g>
<g>
</g>
<g>
</g>
<g>
</g>
<g>
</g>
<g>
</g>
<g>
</g>
<g>
</g>
<g>
</g>
<g>
</g>
</svg>
