<?xml version="1.0" encoding="iso-8859-1"?>
<!-- Generator: Adobe Illustrator 19.0.0, SVG Export Plug-In . SVG Version: 6.00 Build 0)  -->
<svg version="1.1" id="Layer_1" xmlns="http://www.w3.org/2000/svg" xmlns:xlink="http://www.w3.org/1999/xlink" x="0px" y="0px"
	 viewBox="0 0 512.008 512.008" style="enable-background:new 0 0 512.008 512.008;" xml:space="preserve">
<g transform="translate(-1)">
	<g>
		<path style="fill:#383838;" d="M289.583,344.44c-1.154,0-2.318-0.205-3.454-0.661l-136.183-54.477L13.774,343.779
			c-4.785,1.927-10.184-0.41-12.102-5.194c-1.908-4.776,0.41-10.193,5.185-12.102l143.09-57.232l143.099,57.232
			c4.776,1.908,7.094,7.326,5.185,12.102C296.77,342.234,293.279,344.44,289.583,344.44"/>
		<path style="fill:#383838;" d="M54.865,232.731l95.083,36.575l95.092-36.575l-95.092-36.575L54.865,232.731z M149.948,288.586
			c-1.126,0-2.262-0.205-3.342-0.614L25.588,241.426c-3.593-1.387-5.967-4.841-5.967-8.695s2.374-7.308,5.967-8.695l121.018-46.545
			c2.15-0.81,4.543-0.81,6.684,0l121.018,46.545c3.593,1.387,5.967,4.841,5.967,8.695s-2.374,7.308-5.967,8.695L153.29,287.971
			C152.219,288.381,151.084,288.586,149.948,288.586L149.948,288.586z"/>
		<path style="fill:#383838;" d="M149.952,196.213L6.852,138.98c-4.766-1.918-7.094-7.336-5.185-12.102
			c1.918-4.785,7.308-7.131,12.111-5.194l136.173,54.477l136.173-54.477c4.803-1.918,10.203,0.41,12.111,5.194
			c1.908,4.766-0.419,10.184-5.185,12.102L149.952,196.213z"/>
	</g>
	<path style="fill:#E85A4B;" d="M507.317,263.709l-80.896-88.986c-4.143-4.552-10.017-7.159-16.179-7.159h-85.746
		c-8.993,0-16.291,7.298-16.291,16.291v151.273H1.005v79.9c0,7.289,5.902,13.191,13.191,13.191h14.736
		c0-30.841,25.004-55.855,55.855-55.855s55.855,25.014,55.855,55.855h167.564h46.545c0-30.841,25.004-55.855,55.855-55.855
		s55.855,25.014,55.855,55.855h33.354c7.289,0,13.191-5.902,13.191-13.191V278.427C513.005,272.981,510.976,267.74,507.317,263.709"
		/>
	<g>
		<path style="fill:#494949;" d="M466.461,428.222c0,30.85-25.004,55.855-55.855,55.855s-55.855-25.004-55.855-55.855
			s25.004-55.855,55.855-55.855S466.461,397.372,466.461,428.222"/>
		<path style="fill:#494949;" d="M140.642,428.222c0,30.85-25.004,55.855-55.855,55.855s-55.855-25.004-55.855-55.855
			s25.004-55.855,55.855-55.855S140.642,397.372,140.642,428.222"/>
	</g>
	<g>
		<path style="fill:#A2A2A2;" d="M103.406,428.222c0,10.287-8.332,18.618-18.618,18.618s-18.618-8.332-18.618-18.618
			s8.332-18.618,18.618-18.618S103.406,417.936,103.406,428.222"/>
		<path style="fill:#A2A2A2;" d="M429.224,428.222c0,10.287-8.332,18.618-18.618,18.618c-10.287,0-18.618-8.332-18.618-18.618
			s8.332-18.618,18.618-18.618C420.893,409.604,429.224,417.936,429.224,428.222"/>
	</g>
	<path style="fill:#E0E0E0;" d="M426.424,174.728c-4.143-4.561-10.026-7.159-16.188-7.159h-48.789c-3.696,0-6.693,2.998-6.693,6.693
		v98.323c0,3.696,2.998,6.693,6.693,6.693h151.561v-0.856c0-5.436-2.029-10.687-5.688-14.708L426.424,174.728z"/>
	<path style="fill:#7C7B7A;" d="M1.006,130.331h297.891V93.095H1.006V130.331z"/>
	<path id="SVGCleanerId_0" style="fill:#E0E0E0;" d="M112.715,93.095h74.473V27.931h-74.473V93.095z"/>
	<g>
		<path style="fill:#383838;" d="M1.006,93.095h111.709V55.859H1.006V93.095z"/>
		<path style="fill:#383838;" d="M187.188,93.095h111.709V55.859H187.188V93.095z"/>
	</g>
	<g>
		<path id="SVGCleanerId_0_1_" style="fill:#E0E0E0;" d="M112.715,93.095h74.473V27.931h-74.473V93.095z"/>
	</g>
	<path style="fill:#FEC24C;" d="M513.006,316.513h-55.855c-5.139,0-9.309,4.161-9.309,9.309s4.17,9.309,9.309,9.309h55.855V316.513z
		"/>
</g>
<g>
</g>
<g>
</g>
<g>
</g>
<g>
</g>
<g>
</g>
<g>
</g>
<g>
</g>
<g>
</g>
<g>
</g>
<g>
</g>
<g>
</g>
<g>
</g>
<g>
</g>
<g>
</g>
<g>
</g>
</svg>
