<?xml version="1.0" encoding="iso-8859-1"?>
<!-- Generator: Adobe Illustrator 19.0.0, SVG Export Plug-In . SVG Version: 6.00 Build 0)  -->
<svg version="1.1" id="Layer_1" xmlns="http://www.w3.org/2000/svg" xmlns:xlink="http://www.w3.org/1999/xlink" x="0px" y="0px"
	 viewBox="0 0 503.357 503.357" style="enable-background:new 0 0 503.357 503.357;" xml:space="preserve">
<g>
	<g>
		<path style="fill:#5B5B5B;" d="M130.165,182.255c-4.799,0-8.678-3.879-8.678-8.678v-34.712c0-4.799,3.879-8.678,8.678-8.678
			s8.678,3.879,8.678,8.678v34.712C138.843,178.376,134.964,182.255,130.165,182.255"/>
		<path style="fill:#5B5B5B;" d="M295.047,182.255c-4.799,0-8.678-3.879-8.678-8.678v-34.712c0-4.799,3.879-8.678,8.678-8.678
			c4.799,0,8.678,3.879,8.678,8.678v34.712C303.725,178.376,299.845,182.255,295.047,182.255"/>
	</g>
	<path style="fill:#DBA436;" d="M86.775,138.865h251.661v-86.78H86.775V138.865z"/>
	<g>
		<path style="fill:#FFFFFF;" d="M147.521,112.831c-4.799,0-8.678-3.879-8.678-8.678V86.797c0-4.799,3.879-8.678,8.678-8.678
			c4.799,0,8.678,3.879,8.678,8.678v17.356C156.199,108.952,152.32,112.831,147.521,112.831"/>
		<path style="fill:#FFFFFF;" d="M190.911,112.831c-4.799,0-8.678-3.879-8.678-8.678V86.797c0-4.799,3.879-8.678,8.678-8.678
			c4.799,0,8.678,3.879,8.678,8.678v17.356C199.589,108.952,195.71,112.831,190.911,112.831"/>
		<path style="fill:#FFFFFF;" d="M234.301,112.831c-4.799,0-8.678-3.879-8.678-8.678V86.797c0-4.799,3.879-8.678,8.678-8.678
			c4.799,0,8.678,3.879,8.678,8.678v17.356C242.979,108.952,239.1,112.831,234.301,112.831"/>
		<path style="fill:#FFFFFF;" d="M277.691,112.831c-4.799,0-8.678-3.879-8.678-8.678V86.797c0-4.799,3.879-8.678,8.678-8.678
			s8.678,3.879,8.678,8.678v17.356C286.369,108.952,282.49,112.831,277.691,112.831"/>
	</g>
	<path style="fill:#5B5B5B;" d="M147.56,399.204c0,28.759-23.309,52.068-52.068,52.068s-52.068-23.309-52.068-52.068
		c0-28.759,23.309-52.068,52.068-52.068S147.56,370.445,147.56,399.204"/>
	<path style="fill:#B2B2B2;" d="M112.848,399.204c0,9.589-7.767,17.356-17.356,17.356s-17.356-7.767-17.356-17.356
		s7.767-17.356,17.356-17.356S112.848,389.615,112.848,399.204"/>
	<path style="fill:#5B5B5B;" d="M459.967,399.204c0,28.759-23.309,52.068-52.068,52.068c-28.759,0-52.068-23.309-52.068-52.068
		c0-28.759,23.309-52.068,52.068-52.068C436.658,347.136,459.967,370.445,459.967,399.204"/>
	<path style="fill:#B2B2B2;" d="M425.255,399.204c0,9.589-7.767,17.356-17.356,17.356s-17.356-7.767-17.356-17.356
		s7.767-17.356,17.356-17.356S425.255,389.615,425.255,399.204"/>
	<path style="fill:#FFCC5C;" d="M383.514,246.764l-29.965-48.692c-9.364-15.221-25.964-24.498-43.832-24.498H132.955
		c-17.885,0-34.486,9.294-43.85,24.533L45.95,268.372c-6.882,11.195-19.092,18.015-32.23,18.015h-0.417
		c-7.411,0-13.321,5.901-13.303,13.217c0.017,19.17,0.026,54.914,0.035,77.963c0,11.984,9.711,21.634,21.686,21.634h21.704
		c0-28.75,23.309-52.068,52.068-52.068s52.068,23.318,52.068,52.068h208.271c0-28.75,23.309-52.068,52.068-52.068
		c28.759,0,52.068,23.318,52.068,52.068h16.991c14.579,0,26.398-11.819,26.398-26.398v-73.233c0-7.281-5.901-13.182-13.182-13.182
		H454.43C425.515,286.388,398.666,271.392,383.514,246.764"/>
	<path style="fill:#E6E6E6;" d="M383.513,246.763l-23.673-38.478H128.711c-3.966,0-7.185,3.22-7.185,7.194v37.688
		c0,3.975,3.22,7.185,7.185,7.185H394.17C390.23,256.214,386.577,251.744,383.513,246.763"/>
	<path style="fill:#5B5B5B;" d="M243.013,260.356h17.356v-52.068h-17.356V260.356z"/>
	<g>
		<path style="fill:#DBA436;" d="M295.086,312.424h-43.39c-4.79,0-8.678-3.879-8.678-8.678c0-4.799,3.888-8.678,8.678-8.678h43.39
			c4.79,0,8.678,3.879,8.678,8.678C303.764,308.545,299.876,312.424,295.086,312.424"/>
		<path style="fill:#DBA436;" d="M295.086,329.78c-4.79,0-8.678-3.879-8.678-8.678v-17.356c0-4.799,3.888-8.678,8.678-8.678
			c4.79,0,8.678,3.879,8.678,8.678v17.356C303.764,325.901,299.876,329.78,295.086,329.78"/>
		<path style="fill:#DBA436;" d="M503.357,321.102h-34.712c-4.799,0-8.678,3.879-8.678,8.678s3.879,8.678,8.678,8.678h34.712
			V321.102z"/>
		<path style="fill:#DBA436;" d="M34.747,321.102H0.017c0,5.571,0,11.385,0.009,17.356h34.721c4.79,0,8.678-3.879,8.678-8.678
			S39.537,321.102,34.747,321.102"/>
	</g>
</g>
<g>
</g>
<g>
</g>
<g>
</g>
<g>
</g>
<g>
</g>
<g>
</g>
<g>
</g>
<g>
</g>
<g>
</g>
<g>
</g>
<g>
</g>
<g>
</g>
<g>
</g>
<g>
</g>
<g>
</g>
</svg>
