<?xml version="1.0" encoding="iso-8859-1"?>
<!-- Generator: Adobe Illustrator 19.0.0, SVG Export Plug-In . SVG Version: 6.00 Build 0)  -->
<svg version="1.1" id="Layer_1" xmlns="http://www.w3.org/2000/svg" xmlns:xlink="http://www.w3.org/1999/xlink" x="0px" y="0px"
	 viewBox="0 0 512 512" style="enable-background:new 0 0 512 512;" xml:space="preserve">
<g>
	<g>
		<path style="fill:#B3B3B3;" d="M363.789,17.965H148.211c-4.967,0-8.982-4.024-8.982-8.982S143.243,0,148.211,0h215.579
			c4.967,0,8.982,4.024,8.982,8.982S368.757,17.965,363.789,17.965"/>
		<path style="fill:#B3B3B3;" d="M225.623,53.895h60.757l17.965-35.93h-96.687L225.623,53.895z M291.932,71.86h-71.86
			c-3.404,0-6.512-1.922-8.039-4.967l-26.947-53.895c-1.392-2.785-1.24-6.09,0.395-8.74C187.124,1.617,190.008,0,193.125,0h125.754
			c3.117,0,6,1.617,7.635,4.258c1.644,2.65,1.796,5.955,0.395,8.74l-26.947,53.895C298.435,69.937,295.336,71.86,291.932,71.86
			L291.932,71.86z"/>
	</g>
	<path style="fill:#666666;" d="M370.419,428.202c-65.958,28.771-171.511,27.756-234.658-2.551l-86.357,86.348h413.193
		L370.419,428.202z"/>
	<g>
		<path style="fill:#B3B3B3;" d="M76.351,485.053h356.604l-19.761-17.965H94.316L76.351,485.053z"/>
		<path style="fill:#B3B3B3;" d="M318.877,512h17.965v-71.86h-2.829c-4.949,1.204-9.988,2.291-15.135,3.252V512z"/>
		<path style="fill:#B3B3B3;" d="M184.14,512v-70.387c-2.192-0.476-4.392-0.952-6.548-1.473l-11.417-8.982V512H184.14z"/>
	</g>
	<path id="SVGCleanerId_0" style="fill:#EF715D;" d="M103.298,152.703v197.614v8.982v33.127c0,7.455,3.234,14.677,9.153,19.214
		c64.719,49.556,219.262,50.131,285.831,0.808c6.449-4.779,10.42-12.198,10.42-20.228v-32.921v-8.982V152.703
		C339.222,92.897,174.511,92.736,103.298,152.703"/>
	<path style="fill:#A14B3D;" d="M103.298,110.796v41.903c71.213-59.958,235.924-59.796,305.404,0v-42.101
		c0-7.464-3.234-14.686-9.153-19.222c-64.719-49.547-219.262-50.131-285.831-0.799C107.268,95.355,103.298,102.775,103.298,110.796"
		/>
	<g>
		<path id="SVGCleanerId_0_1_" style="fill:#EF715D;" d="M103.298,152.703v197.614v8.982v33.127c0,7.455,3.234,14.677,9.153,19.214
			c64.719,49.556,219.262,50.131,285.831,0.808c6.449-4.779,10.42-12.198,10.42-20.228v-32.921v-8.982V152.703
			C339.222,92.897,174.511,92.736,103.298,152.703"/>
	</g>
	<path style="fill:#A14B3D;" d="M211.088,101.852v80.797c0,8.264,6.701,14.965,14.974,14.965h59.877
		c8.273,0,14.974-6.701,14.974-14.965v-80.95C271.54,97.792,240.532,97.846,211.088,101.852"/>
	<g>
		<path style="fill:#FFCE5D;" d="M202.105,278.457c0,14.884-12.063,26.947-26.947,26.947s-26.947-12.063-26.947-26.947
			c0-14.884,12.063-26.947,26.947-26.947S202.105,263.573,202.105,278.457"/>
		<path style="fill:#FFCE5D;" d="M273.965,152.703c0,9.926-8.039,17.965-17.965,17.965c-9.926,0-17.965-8.039-17.965-17.965
			c0-9.926,8.039-17.965,17.965-17.965C265.926,134.738,273.965,142.777,273.965,152.703"/>
		<path style="fill:#FFCE5D;" d="M363.789,278.457c0,14.884-12.063,26.947-26.947,26.947c-14.884,0-26.947-12.063-26.947-26.947
			c0-14.884,12.063-26.947,26.947-26.947C351.726,251.51,363.789,263.573,363.789,278.457"/>
	</g>
	<g>
		<path style="fill:#A14B3D;" d="M103.298,260.492H62.5c-7.231,0-13.096-5.866-13.096-13.096v-45.667
			c0-7.231,5.866-13.096,13.096-13.096h40.798V260.492z"/>
		<path style="fill:#A14B3D;" d="M449.497,260.492h-40.798v-71.86h40.798c7.231,0,13.096,5.866,13.096,13.096v45.667
			C462.594,254.627,456.728,260.492,449.497,260.492"/>
		<path style="fill:#A14B3D;" d="M256,305.404c-4.967,0-8.982-4.024-8.982-8.982v-35.93c0-4.958,4.015-8.982,8.982-8.982
			s8.982,4.024,8.982,8.982v35.93C264.982,301.379,260.967,305.404,256,305.404"/>
		<path style="fill:#A14B3D;" d="M291.93,368.281h-71.86c-4.967,0-8.982-4.024-8.982-8.982s4.015-8.982,8.982-8.982h71.86
			c4.967,0,8.982,4.024,8.982,8.982S296.897,368.281,291.93,368.281"/>
		<path style="fill:#A14B3D;" d="M327.86,404.211H184.14c-4.967,0-8.982-4.024-8.982-8.982c0-4.958,4.015-8.982,8.982-8.982H327.86
			c4.967,0,8.982,4.024,8.982,8.982C336.842,400.186,332.827,404.211,327.86,404.211"/>
	</g>
</g>
<g>
</g>
<g>
</g>
<g>
</g>
<g>
</g>
<g>
</g>
<g>
</g>
<g>
</g>
<g>
</g>
<g>
</g>
<g>
</g>
<g>
</g>
<g>
</g>
<g>
</g>
<g>
</g>
<g>
</g>
</svg>
