<?xml version="1.0" encoding="iso-8859-1"?>
<!-- Generator: Adobe Illustrator 19.0.0, SVG Export Plug-In . SVG Version: 6.00 Build 0)  -->
<svg version="1.1" id="Layer_1" xmlns="http://www.w3.org/2000/svg" xmlns:xlink="http://www.w3.org/1999/xlink" x="0px" y="0px"
	 viewBox="0 0 512 512" style="enable-background:new 0 0 512 512;" xml:space="preserve">
<g>
	<g>
		<path style="fill:#B2B2B2;" d="M503.172,308.966h-88.276c-4.873,0-8.828-3.946-8.828-8.828s3.955-8.828,8.828-8.828h88.276
			c4.873,0,8.828,3.946,8.828,8.828S508.045,308.966,503.172,308.966L503.172,308.966z"/>
		<path style="fill:#B2B2B2;" d="M467.862,308.966c-4.873,0-8.828-3.946-8.828-8.828v-35.31c0-4.882,3.955-8.828,8.828-8.828
			s8.828,3.946,8.828,8.828v35.31C476.69,305.02,472.735,308.966,467.862,308.966"/>
	</g>
	<path style="fill:#FFCE5D;" d="M423.724,300.138H0V78.336c0-14.009,11.361-25.37,25.37-25.37h372.983
		c14.009,0,25.37,11.361,25.37,25.37V300.138z"/>
	<g>
		<path style="fill:#5B5B5B;" d="M379.586,406.069c0,29.255-23.711,52.966-52.966,52.966s-52.966-23.711-52.966-52.966
			s23.711-52.966,52.966-52.966S379.586,376.814,379.586,406.069"/>
		<path style="fill:#5B5B5B;" d="M150.069,406.069c0,29.255-23.711,52.966-52.966,52.966s-52.966-23.711-52.966-52.966
			s23.711-52.966,52.966-52.966S150.069,376.814,150.069,406.069"/>
	</g>
	<g>
		<path style="fill:#B2B2B2;" d="M114.759,406.069c0,9.754-7.901,17.655-17.655,17.655s-17.655-7.901-17.655-17.655
			s7.901-17.655,17.655-17.655S114.759,396.314,114.759,406.069"/>
		<path style="fill:#B2B2B2;" d="M344.276,406.069c0,9.754-7.901,17.655-17.655,17.655c-9.754,0-17.655-7.901-17.655-17.655
			s7.901-17.655,17.655-17.655C336.375,388.414,344.276,396.314,344.276,406.069"/>
	</g>
	<path style="fill:#419EDE;" d="M0,300.138v83.871c0,12.182,9.878,22.06,22.06,22.06h22.078c0-29.255,23.711-52.966,52.966-52.966
		s52.966,23.711,52.966,52.966h123.586c0-29.255,23.711-52.966,52.966-52.966s52.966,23.711,52.966,52.966h44.138V300.138H0z"/>
	<g>
		<path style="fill:#C49E47;" d="M0,220.69h132.414c4.873,0,8.828-3.946,8.828-8.828c0-4.882-3.955-8.828-8.828-8.828H0V220.69z"/>
		<path style="fill:#C49E47;" d="M0,176.552h97.103c4.873,0,8.828-3.946,8.828-8.828s-3.955-8.828-8.828-8.828H0V176.552z"/>
	</g>
</g>
<g>
</g>
<g>
</g>
<g>
</g>
<g>
</g>
<g>
</g>
<g>
</g>
<g>
</g>
<g>
</g>
<g>
</g>
<g>
</g>
<g>
</g>
<g>
</g>
<g>
</g>
<g>
</g>
<g>
</g>
</svg>
