<?xml version="1.0" encoding="iso-8859-1"?>
<!-- Generator: Adobe Illustrator 19.0.0, SVG Export Plug-In . SVG Version: 6.00 Build 0)  -->
<svg version="1.1" id="Layer_1" xmlns="http://www.w3.org/2000/svg" xmlns:xlink="http://www.w3.org/1999/xlink" x="0px" y="0px"
	 viewBox="0 0 512.006 512.006" style="enable-background:new 0 0 512.006 512.006;" xml:space="preserve">
<g transform="translate(-1)">
	<path style="fill:#535353;" d="M308.211,344.441c-3.295,0-6.488-1.75-8.183-4.85l-55.855-102.4
		c-2.467-4.515-0.801-10.166,3.724-12.632c4.478-2.467,10.156-0.801,12.623,3.714l55.855,102.4
		c2.467,4.515,0.801,10.166-3.714,12.632C311.246,344.078,309.719,344.441,308.211,344.441"/>
	<g>
		<path style="fill:#494949;" d="M466.459,428.22c0,30.85-25.004,55.855-55.855,55.855S354.75,459.07,354.75,428.22
			s25.004-55.855,55.855-55.855S466.459,397.37,466.459,428.22"/>
		<path style="fill:#494949;" d="M140.641,428.22c0,30.85-25.004,55.855-55.855,55.855S28.932,459.07,28.932,428.22
			s25.004-55.855,55.855-55.855S140.641,397.37,140.641,428.22"/>
	</g>
	<path style="fill:#EC5749;" d="M507.316,263.707l-80.896-88.986c-4.143-4.552-10.017-7.159-16.179-7.159h-85.746
		c-8.993,0-16.291,7.298-16.291,16.291v151.273H1.004v79.9c0,7.289,5.902,13.191,13.191,13.191h14.736
		c0-30.841,25.004-55.855,55.855-55.855s55.855,25.014,55.855,55.855h167.564h46.545c0-30.841,25.004-55.855,55.855-55.855
		s55.855,25.014,55.855,55.855h33.354c7.289,0,13.191-5.902,13.191-13.191V278.425C513.004,272.979,510.974,267.738,507.316,263.707
		"/>
	<g>
		<path style="fill:#A2A2A2;" d="M103.405,428.22c0,10.287-8.332,18.618-18.618,18.618s-18.618-8.332-18.618-18.618
			c0-10.287,8.332-18.618,18.618-18.618S103.405,417.933,103.405,428.22"/>
		<path style="fill:#A2A2A2;" d="M429.223,428.22c0,10.287-8.332,18.618-18.618,18.618s-18.618-8.332-18.618-18.618
			c0-10.287,8.332-18.618,18.618-18.618S429.223,417.933,429.223,428.22"/>
	</g>
	<path style="fill:#E0E0E0;" d="M426.423,174.726c-4.143-4.561-10.026-7.159-16.188-7.159h-48.789c-3.696,0-6.693,2.998-6.693,6.693
		v98.323c0,3.696,2.998,6.693,6.693,6.693h151.561v-0.856c0-5.436-2.029-10.687-5.688-14.708L426.423,174.726z"/>
	<g>
		<path style="fill:#535353;" d="M1.005,195.493v139.636h37.236v-87.505L1.005,195.493z"/>
		<path style="fill:#535353;" d="M66.741,92.09L103.4,27.932H1v167.564l27.927-93.091L66.741,92.09z"/>
		<path style="fill:#535353;" d="M112.714,214.111c-15.36,0-27.927,12.567-27.927,27.927v93.091h55.855v-93.091
			C140.641,226.678,128.074,214.111,112.714,214.111"/>
	</g>
	<path style="fill:#A2A2A2;" d="M215.114,102.402l-83.782-27.927l-102.4,27.927L1.005,195.493l46.545,65.164l37.236,13.545v-32.163
		c0-15.36,12.567-27.927,27.927-27.927s27.927,12.567,27.927,27.927v52.466l9.309,3.389l83.782-9.309l37.236-130.327
		L215.114,102.402z"/>
	<path style="fill:#EF8E89;" d="M457.15,353.747h55.855v-18.618H457.15V353.747z"/>
	<path style="fill:#535353;" d="M121.983,215.822L168.026,86.91c0.019-0.065,0-0.13,0.028-0.195l-17.622-5.874l-46.48,130.141
		c-0.577,1.601-0.54,3.202-0.251,4.757c2.849-0.977,5.846-1.629,9.011-1.629C115.978,214.109,119.069,214.779,121.983,215.822"/>
</g>
<g>
</g>
<g>
</g>
<g>
</g>
<g>
</g>
<g>
</g>
<g>
</g>
<g>
</g>
<g>
</g>
<g>
</g>
<g>
</g>
<g>
</g>
<g>
</g>
<g>
</g>
<g>
</g>
<g>
</g>
</svg>
