<?xml version="1.0" encoding="iso-8859-1"?>
<!-- Generator: Adobe Illustrator 19.0.0, SVG Export Plug-In . SVG Version: 6.00 Build 0)  -->
<svg version="1.1" id="Layer_1" xmlns="http://www.w3.org/2000/svg" xmlns:xlink="http://www.w3.org/1999/xlink" x="0px" y="0px"
	 viewBox="0 0 512 512" style="enable-background:new 0 0 512 512;" xml:space="preserve">
<g>
	<path style="fill:#EE705C;" d="M447.201,225.761l-58.492-73.11c-5.764-7.212-14.495-11.405-23.729-11.405h-73.675v256h70.621
		c0-29.255,23.72-52.966,52.966-52.966c29.255,0,52.966,23.711,52.966,52.966h24.276c10.973,0,19.862-8.898,19.862-19.871V249.384
		c0-10.973-8.889-19.862-19.862-19.862h-37.12C451.977,229.522,449.099,228.136,447.201,225.761"/>
	<path style="fill:#E6E6E6;" d="M291.31,291.31H0V87.164c0-14.009,11.361-25.37,25.37-25.37H265.94
		c14.009,0,25.37,11.361,25.37,25.37V291.31z"/>
	<g>
		<path style="fill:#5B5B5B;" d="M467.862,397.241c0,29.255-23.711,52.966-52.966,52.966s-52.966-23.711-52.966-52.966
			c0-29.255,23.711-52.966,52.966-52.966S467.862,367.987,467.862,397.241"/>
		<path style="fill:#5B5B5B;" d="M150.069,397.241c0,29.255-23.711,52.966-52.966,52.966s-52.966-23.711-52.966-52.966
			c0-29.255,23.711-52.966,52.966-52.966S150.069,367.987,150.069,397.241"/>
	</g>
	<path style="fill:#A14B3D;" d="M0,291.31v88.285c0,9.746,7.901,17.646,17.646,17.646h26.492c0-29.255,23.711-52.966,52.966-52.966
		s52.966,23.711,52.966,52.966H291.31V291.31H0z"/>
	<g>
		<path style="fill:#B2B2B2;" d="M114.759,397.241c0,9.754-7.901,17.655-17.655,17.655s-17.655-7.901-17.655-17.655
			c0-9.754,7.901-17.655,17.655-17.655S114.759,387.487,114.759,397.241"/>
		<path style="fill:#B2B2B2;" d="M432.552,397.241c0,9.754-7.901,17.655-17.655,17.655s-17.655-7.901-17.655-17.655
			c0-9.754,7.901-17.655,17.655-17.655S432.552,387.487,432.552,397.241"/>
	</g>
	<path style="fill:#E6E6E6;" d="M388.712,152.648c-5.764-7.212-14.504-11.405-23.737-11.405h-20.701v47.078
		c0,8.13,6.585,14.716,14.716,14.716h70.029L388.712,152.648z"/>
	<path style="fill:#EF715D;" d="M188.309,158.897h-23.517c-3.257,0-5.897-2.639-5.897-5.897v-23.517
		c0-3.257-2.639-5.897-5.897-5.897h-23.517c-3.257,0-5.897,2.639-5.897,5.897V153c0,3.257-2.639,5.897-5.897,5.897H94.172
		c-3.257,0-5.897,2.639-5.897,5.897v23.517c0,3.257,2.639,5.897,5.897,5.897h23.517c3.257,0,5.897,2.639,5.897,5.897v23.517
		c0,3.257,2.639,5.897,5.897,5.897h23.517c3.257,0,5.897-2.639,5.897-5.897v-23.517c0-3.257,2.639-5.897,5.897-5.897h23.517
		c3.257,0,5.897-2.639,5.897-5.897v-23.517C194.206,161.536,191.567,158.897,188.309,158.897"/>
	<path style="fill:#A14B3D;" d="M512,300.138v-17.655H361.931c-4.873,0-8.828,3.946-8.828,8.828s3.955,8.828,8.828,8.828H512z"/>
</g>
<g>
</g>
<g>
</g>
<g>
</g>
<g>
</g>
<g>
</g>
<g>
</g>
<g>
</g>
<g>
</g>
<g>
</g>
<g>
</g>
<g>
</g>
<g>
</g>
<g>
</g>
<g>
</g>
<g>
</g>
</svg>
