<?xml version="1.0" encoding="iso-8859-1"?>
<!-- Generator: Adobe Illustrator 19.0.0, SVG Export Plug-In . SVG Version: 6.00 Build 0)  -->
<svg version="1.1" id="Layer_1" xmlns="http://www.w3.org/2000/svg" xmlns:xlink="http://www.w3.org/1999/xlink" x="0px" y="0px"
	 viewBox="0 0 512.002 512.002" style="enable-background:new 0 0 512.002 512.002;" xml:space="preserve">
<g>
	<g>
		<path style="fill:#E6E6E6;" d="M212.611,52.07c-2.222,0-4.443-0.85-6.135-2.543c-3.393-3.393-3.393-8.878,0-12.271l34.712-34.712
			c3.393-3.393,8.878-3.393,12.271,0c3.393,3.393,3.393,8.878,0,12.271l-34.712,34.712C217.054,51.22,214.833,52.07,212.611,52.07"
			/>
		<path style="fill:#E6E6E6;" d="M273.357,52.07c-2.222,0-4.443-0.85-6.135-2.543c-3.393-3.393-3.393-8.878,0-12.271l34.712-34.712
			c3.393-3.393,8.878-3.393,12.271,0c3.393,3.393,3.393,8.878,0,12.271l-34.712,34.712C277.8,51.22,275.579,52.07,273.357,52.07"/>
	</g>
	<g>
		<path style="fill:#A14B3D;" d="M99.798,199.595H65.086c-4.799,0-8.678-3.888-8.678-8.678s3.879-8.678,8.678-8.678h34.712
			c4.799,0,8.678,3.888,8.678,8.678S104.597,199.595,99.798,199.595"/>
		<path style="fill:#A14B3D;" d="M446.916,199.595h-34.712c-4.799,0-8.678-3.888-8.678-8.678s3.879-8.678,8.678-8.678h34.712
			c4.799,0,8.678,3.888,8.678,8.678S451.715,199.595,446.916,199.595"/>
	</g>
	<path style="fill:#EF715D;" d="M412.204,274.12V119.591c0-13.329-10.804-24.133-24.133-24.133h-264.14
		c-13.329,0-24.133,10.804-24.133,24.133v147.664c0,6.864-1.597,13.642-4.669,19.786l-16.696,33.384
		c-3.072,6.144-4.669,12.913-4.669,19.786v67.653l0,0h364.475v-65.848c0-8.018-2.178-15.881-6.3-22.754l-13.433-22.389
		C414.383,290.001,412.204,282.138,412.204,274.12"/>
	<path style="fill:#A14B3D;" d="M351.459,95.46H160.543l17.356-52.068h156.203L351.459,95.46z"/>
	<g>
		<path style="fill:#FFCE5D;" d="M151.865,347.121c0,9.589-7.767,17.356-17.356,17.356c-9.589,0-17.356-7.767-17.356-17.356
			s7.767-17.356,17.356-17.356C144.099,329.765,151.865,337.532,151.865,347.121"/>
		<path style="fill:#FFCE5D;" d="M394.849,347.121c0,9.589-7.767,17.356-17.356,17.356s-17.356-7.767-17.356-17.356
			s7.767-17.356,17.356-17.356S394.849,337.532,394.849,347.121"/>
	</g>
	<g>
		<path style="fill:#666666;" d="M160.543,512.002h-34.712c-14.379,0-26.034-11.655-26.034-26.034v-26.034h86.78v26.034
			C186.577,500.348,174.923,512.002,160.543,512.002"/>
		<path style="fill:#666666;" d="M386.171,512.002h-34.712c-14.379,0-26.034-11.655-26.034-26.034v-26.034h86.78v26.034
			C412.204,500.348,400.55,512.002,386.171,512.002"/>
	</g>
	<path style="fill:#AEDAF7;" d="M351.46,277.697H160.545c-9.589,0-17.356-7.767-17.356-17.356V156.206
		c0-9.589,7.767-17.356,17.356-17.356H351.46c9.581,0,17.356,7.767,17.356,17.356v104.136
		C368.816,269.93,361.041,277.697,351.46,277.697"/>
	<g>
		<path style="fill:#EF715D;" d="M57.857,225.629H37.603c-3.992,0-7.229-3.237-7.229-7.229v-54.966c0-3.992,3.237-7.229,7.229-7.229
			h20.254c3.992,0,7.229,3.237,7.229,7.229v54.966C65.086,222.392,61.849,225.629,57.857,225.629"/>
		<path style="fill:#EF715D;" d="M454.145,225.629h20.254c3.992,0,7.229-3.237,7.229-7.229v-54.966c0-3.992-3.237-7.229-7.229-7.229
			h-20.254c-3.992,0-7.229,3.237-7.229,7.229v54.966C446.916,222.392,450.153,225.629,454.145,225.629"/>
	</g>
	<g>
		<path style="fill:#A14B3D;" d="M290.713,338.443h-69.424c-4.799,0-8.678-3.888-8.678-8.678s3.879-8.678,8.678-8.678h69.424
			c4.799,0,8.678,3.888,8.678,8.678S295.512,338.443,290.713,338.443"/>
		<path style="fill:#A14B3D;" d="M316.747,373.155H195.255c-4.799,0-8.678-3.888-8.678-8.678s3.879-8.678,8.678-8.678h121.492
			c4.799,0,8.678,3.888,8.678,8.678S321.546,373.155,316.747,373.155"/>
		<path style="fill:#A14B3D;" d="M420.871,459.934H91.134c-9.598,0-17.373-7.775-17.373-17.365v-34.165h364.475v34.165
			C438.236,452.159,430.46,459.934,420.871,459.934"/>
	</g>
	<g>
		<path style="fill:#1C83BB;" d="M322.882,240.443c3.393-3.393,3.393-8.878,0-12.271c-3.393-3.393-8.878-3.393-12.271,0
			l-43.39,43.39c-1.692,1.692-2.543,3.914-2.543,6.135h20.949L322.882,240.443z"/>
		<path style="fill:#1C83BB;" d="M244.78,240.443c3.393-3.393,3.393-8.878,0-12.271c-3.393-3.393-8.878-3.393-12.271,0l-43.39,43.39
			c-1.692,1.692-2.543,3.914-2.543,6.135h20.949L244.78,240.443z"/>
	</g>
</g>
<g>
</g>
<g>
</g>
<g>
</g>
<g>
</g>
<g>
</g>
<g>
</g>
<g>
</g>
<g>
</g>
<g>
</g>
<g>
</g>
<g>
</g>
<g>
</g>
<g>
</g>
<g>
</g>
<g>
</g>
</svg>
