<?xml version="1.0" encoding="iso-8859-1"?>
<!-- Generator: Adobe Illustrator 19.0.0, SVG Export Plug-In . SVG Version: 6.00 Build 0)  -->
<svg version="1.1" id="Layer_1" xmlns="http://www.w3.org/2000/svg" xmlns:xlink="http://www.w3.org/1999/xlink" x="0px" y="0px"
	 viewBox="0 0 512.001 512.001" style="enable-background:new 0 0 512.001 512.001;" xml:space="preserve">
<g>
	<g>
		<path style="fill:#E6E6E6;" d="M123.578,141.242c-1.774,0-3.566-0.538-5.12-1.651L56.665,95.453
			c-3.972-2.825-4.89-8.342-2.057-12.306c2.834-3.972,8.351-4.89,12.314-2.048l61.793,44.138c3.972,2.825,4.89,8.342,2.057,12.306
			C129.051,139.953,126.332,141.242,123.578,141.242"/>
		<path style="fill:#E6E6E6;" d="M300.148,141.242c-2.754,0-5.473-1.289-7.194-3.699c-2.834-3.964-1.916-9.481,2.057-12.306
			l61.793-44.138c3.955-2.842,9.472-1.924,12.314,2.048c2.834,3.964,1.916,9.481-2.057,12.306l-61.793,44.138
			C303.714,140.703,301.922,141.242,300.148,141.242"/>
	</g>
	<path style="fill:#419EDE;" d="M506.606,223.584l-76.712-84.383c-3.928-4.317-9.498-6.788-15.342-6.788H18.026
		C8.068,132.412,0,140.481,0,150.438v264.095c0,9.949,8.068,18.017,18.026,18.017h26.112c0-29.246,23.711-52.966,52.966-52.966
		s52.966,23.72,52.966,52.966h211.862c0-29.246,23.711-52.966,52.966-52.966c29.255,0,52.966,23.72,52.966,52.966h26.112
		c9.957,0,18.026-8.068,18.026-18.017V237.54C512,232.376,510.076,227.397,506.606,223.584"/>
	<g>
		<path style="fill:#E6E6E6;" d="M394.76,273.656h117.239v-36.122c0-5.155-1.924-10.134-5.394-13.948l-50.776-55.861H394.76
			c-3.505,0-6.347,2.842-6.347,6.347v93.237C388.413,270.813,391.255,273.656,394.76,273.656"/>
		<path style="fill:#E6E6E6;" d="M0.001,167.725v105.931h68.961c5.791,0,10.487-4.696,10.487-10.487v-84.957
			c0-5.791-4.696-10.487-10.487-10.487H0.001z"/>
		<path style="fill:#E6E6E6;" d="M256.001,180.137v81.108c0,6.85,5.561,12.412,12.412,12.412h63.453
			c6.85,0,12.412-5.561,12.412-12.412v-81.108c0-6.859-5.561-12.412-12.412-12.412h-63.453
			C261.562,167.725,256.001,173.278,256.001,180.137"/>
		<path style="fill:#E6E6E6;" d="M123.587,180.137v81.108c0,6.85,5.561,12.412,12.412,12.412h63.453
			c6.85,0,12.412-5.561,12.412-12.412v-81.108c0-6.859-5.561-12.412-12.412-12.412h-63.453
			C129.148,167.725,123.587,173.278,123.587,180.137"/>
	</g>
	<path style="fill:#5B5B5B;" d="M467.863,432.552c0,29.255-23.711,52.966-52.966,52.966s-52.966-23.711-52.966-52.966
		s23.711-52.966,52.966-52.966S467.863,403.298,467.863,432.552"/>
	<path style="fill:#B2B2B2;" d="M432.553,432.552c0,9.754-7.901,17.655-17.655,17.655s-17.655-7.901-17.655-17.655
		c0-9.754,7.901-17.655,17.655-17.655S432.553,422.798,432.553,432.552"/>
	<path style="fill:#5B5B5B;" d="M150.07,432.552c0,29.255-23.711,52.966-52.966,52.966s-52.966-23.711-52.966-52.966
		s23.711-52.966,52.966-52.966S150.07,403.298,150.07,432.552"/>
	<path style="fill:#B2B2B2;" d="M114.76,432.552c0,9.754-7.901,17.655-17.655,17.655s-17.655-7.901-17.655-17.655
		c0-9.754,7.901-17.655,17.655-17.655S114.76,422.798,114.76,432.552"/>
	<path style="fill:#FFCE5D;" d="M467.566,97.104H9.106c-5.032,0-9.101-4.078-9.101-9.101V35.584c0-5.023,4.07-9.101,9.101-9.101
		h370.926c0.062,0,0.132,0.026,0.185,0.062l87.534,70.029C467.972,96.751,467.849,97.104,467.566,97.104"/>
	<g>
		<path style="fill:#1C83BB;" d="M512.001,326.621h-52.965c-4.873,0-8.828,3.946-8.828,8.828c0,4.882,3.955,8.828,8.828,8.828
			h52.965V326.621z"/>
		<path style="fill:#1C83BB;" d="M282.484,300.138H0.001v17.655h282.483c4.873,0,8.828-3.946,8.828-8.828
			C291.311,304.084,287.356,300.138,282.484,300.138"/>
		<path style="fill:#1C83BB;" d="M317.794,335.449H0.001v17.655h317.793c4.873,0,8.828-3.946,8.828-8.828
			C326.622,339.395,322.667,335.449,317.794,335.449"/>
	</g>
</g>
<g>
</g>
<g>
</g>
<g>
</g>
<g>
</g>
<g>
</g>
<g>
</g>
<g>
</g>
<g>
</g>
<g>
</g>
<g>
</g>
<g>
</g>
<g>
</g>
<g>
</g>
<g>
</g>
<g>
</g>
</svg>
