<?xml version="1.0" encoding="iso-8859-1"?>
<!-- Generator: Adobe Illustrator 19.0.0, SVG Export Plug-In . SVG Version: 6.00 Build 0)  -->
<svg version="1.1" id="Layer_1" xmlns="http://www.w3.org/2000/svg" xmlns:xlink="http://www.w3.org/1999/xlink" x="0px" y="0px"
	 viewBox="0 0 512.005 512.005" style="enable-background:new 0 0 512.005 512.005;" xml:space="preserve">
<g>
	<g>
		<path style="fill:#E6E6E6;" d="M203.037,79.451c-2.03,0-4.078-0.697-5.738-2.127l-61.793-52.966
			c-3.708-3.169-4.14-8.739-0.962-12.447c3.178-3.699,8.748-4.122,12.438-0.953l61.793,52.966c3.708,3.169,4.14,8.739,0.962,12.447
			C207.998,78.4,205.518,79.451,203.037,79.451"/>
		<path style="fill:#E6E6E6;" d="M141.244,26.485H88.279c-4.882,0-8.828-3.955-8.828-8.828s3.946-8.828,8.828-8.828h52.966
			c4.882,0,8.828,3.955,8.828,8.828S146.126,26.485,141.244,26.485"/>
		<path style="fill:#E6E6E6;" d="M326.615,79.451c-1.995,0-3.99-0.671-5.65-2.048c-3.734-3.116-4.246-8.686-1.13-12.429
			l44.138-52.966c3.125-3.743,8.686-4.255,12.447-1.13c3.734,3.116,4.246,8.686,1.13,12.429l-44.138,52.966
			C331.655,78.365,329.148,79.451,326.615,79.451"/>
		<path style="fill:#E6E6E6;" d="M423.727,26.485h-52.966c-4.882,0-8.828-3.955-8.828-8.828s3.946-8.828,8.828-8.828h52.966
			c4.882,0,8.828,3.955,8.828,8.828S428.608,26.485,423.727,26.485"/>
	</g>
	<g>
		<path style="fill:#666666;" d="M76.985,35.313H11.299C5.058,35.313,0,30.255,0,24.023V11.293c0-6.232,5.058-11.29,11.299-11.29
			h65.686c6.241,0,11.29,5.058,11.29,11.29v12.729C88.276,30.255,83.226,35.313,76.985,35.313"/>
		<path style="fill:#666666;" d="M435.02,35.313h65.686c6.241,0,11.299-5.058,11.299-11.29V11.293c0-6.232-5.058-11.29-11.299-11.29
			H435.02c-6.241,0-11.29,5.058-11.29,11.29v12.729C423.729,30.255,428.779,35.313,435.02,35.313"/>
	</g>
	<path style="fill:#FFCE5D;" d="M326.623,61.796c0,34.127-27.666,61.793-61.793,61.793s-61.793-27.666-61.793-61.793
		S230.703,0.003,264.83,0.003S326.623,27.668,326.623,61.796"/>
	<g>
		<path style="fill:#A14B3D;" d="M354.66,201.416c-0.874-13.974-12.465-24.858-26.465-24.858h-19.227v147.394
			c5.561,8.377,8.828,18.397,8.828,29.158v79.448h24.735c15.298,0,27.427-12.906,26.474-28.178L354.66,201.416z"/>
		<path style="fill:#A14B3D;" d="M211.865,353.106c0-10.752,3.266-20.771,8.828-29.149V176.554h-19.226
			c-14.001,0-25.591,10.884-26.465,24.858l-14.345,202.973c-0.953,15.263,11.176,28.169,26.474,28.169h24.735V353.106z"/>
	</g>
	<path style="fill:#E6E6E6;" d="M264.83,512.003L264.83,512.003c-29.131,0-52.966-23.834-52.966-52.965V353.106
		c0-29.131,23.834-52.966,52.966-52.966s52.966,23.834,52.966,52.966v105.931C317.796,488.168,293.961,512.003,264.83,512.003"/>
	<path style="fill:#EF715D;" d="M264.83,300.141c18.379,0,34.631,9.498,44.138,23.817V105.934h-0.936
		c-11.14,10.911-26.377,17.655-43.202,17.655s-32.062-6.744-43.202-17.655h-0.936v218.024
		C230.2,309.639,246.451,300.141,264.83,300.141"/>
	<path style="fill:#D99E22;" d="M238.347,70.623c-4.882,0-8.828-3.955-8.828-8.828c0-19.474,15.837-35.31,35.31-35.31
		c4.882,0,8.828,3.955,8.828,8.828s-3.946,8.828-8.828,8.828c-9.737,0-17.655,7.918-17.655,17.655
		C247.175,66.669,243.229,70.623,238.347,70.623"/>
</g>
<g>
</g>
<g>
</g>
<g>
</g>
<g>
</g>
<g>
</g>
<g>
</g>
<g>
</g>
<g>
</g>
<g>
</g>
<g>
</g>
<g>
</g>
<g>
</g>
<g>
</g>
<g>
</g>
<g>
</g>
</svg>
