<?xml version="1.0" encoding="iso-8859-1"?>
<!-- Generator: Adobe Illustrator 19.0.0, SVG Export Plug-In . SVG Version: 6.00 Build 0)  -->
<svg version="1.1" id="Layer_1" xmlns="http://www.w3.org/2000/svg" xmlns:xlink="http://www.w3.org/1999/xlink" x="0px" y="0px"
	 viewBox="0 0 512 512" style="enable-background:new 0 0 512 512;" xml:space="preserve">
<g>
	<g>
		<path style="fill:#5B5B5B;" d="M291.31,229.518c-4.882,0-8.828-3.946-8.828-8.828v-35.31c0-4.882,3.946-8.828,8.828-8.828
			c4.882,0,8.828,3.946,8.828,8.828v35.31C300.138,225.572,296.192,229.518,291.31,229.518"/>
		<path style="fill:#5B5B5B;" d="M211.862,229.518c-4.882,0-8.828-3.946-8.828-8.828v-35.31c0-4.882,3.946-8.828,8.828-8.828
			c4.882,0,8.828,3.946,8.828,8.828v35.31C220.69,225.572,216.744,229.518,211.862,229.518"/>
	</g>
	<path style="fill:#94CAEF;" d="M406.069,238.346c-2.26,0-4.52-0.865-6.241-2.586l-97.103-97.103c-3.452-3.452-3.452-9.031,0-12.482
		c3.452-3.452,9.031-3.452,12.482,0l97.103,97.103c3.452,3.452,3.452,9.031,0,12.482
		C410.589,237.481,408.329,238.346,406.069,238.346"/>
	<path style="fill:#439FDE;" d="M0,240.165v75.811c0,10.752,8.722,19.474,19.474,19.474h24.664
		c0-29.255,23.711-52.966,52.966-52.966s52.966,23.711,52.966,52.966h211.862c0-29.255,23.711-52.966,52.966-52.966
		s52.966,23.711,52.966,52.966h24.664c10.752,0,19.474-8.722,19.474-19.474v-75.811c0-10.752-8.722-19.474-19.474-19.474H19.474
		C8.722,220.692,0,229.413,0,240.165"/>
	<path style="fill:#5B5B5B;" d="M150.069,335.449c0,29.255-23.711,52.966-52.966,52.966s-52.966-23.711-52.966-52.966
		s23.711-52.966,52.966-52.966S150.069,306.195,150.069,335.449"/>
	<path style="fill:#B2B2B2;" d="M114.759,335.449c0,9.754-7.901,17.655-17.655,17.655s-17.655-7.901-17.655-17.655
		s7.901-17.655,17.655-17.655S114.759,325.695,114.759,335.449"/>
	<path style="fill:#5B5B5B;" d="M467.862,335.449c0,29.255-23.711,52.966-52.966,52.966s-52.966-23.711-52.966-52.966
		s23.711-52.966,52.966-52.966S467.862,306.195,467.862,335.449"/>
	<path style="fill:#B2B2B2;" d="M432.552,335.449c0,9.754-7.901,17.655-17.655,17.655s-17.655-7.901-17.655-17.655
		s7.901-17.655,17.655-17.655S432.552,325.695,432.552,335.449"/>
	<g>
		<path style="fill:#94CAEF;" d="M300.138,273.656H256c-4.882,0-8.828-3.946-8.828-8.828s3.946-8.828,8.828-8.828h44.138
			c4.882,0,8.828,3.946,8.828,8.828S305.02,273.656,300.138,273.656"/>
		<path style="fill:#94CAEF;" d="M300.138,291.311c-4.882,0-8.828-3.946-8.828-8.828v-17.655c0-4.882,3.946-8.828,8.828-8.828
			c4.882,0,8.828,3.946,8.828,8.828v17.655C308.966,287.366,305.02,291.311,300.138,291.311"/>
	</g>
	<path style="fill:#5B5B5B;" d="M114.759,158.898c-9.71,0-17.655,7.945-17.655,17.655v44.138h35.31v-44.138
		C132.414,166.842,124.469,158.898,114.759,158.898"/>
	<g>
		<path style="fill:#94CAEF;" d="M512,264.829h-35.31c-4.882,0-8.828,3.946-8.828,8.828s3.946,8.828,8.828,8.828H512V264.829z"/>
		<path style="fill:#94CAEF;" d="M35.31,264.829H0v17.655h35.31c4.882,0,8.828-3.946,8.828-8.828S40.192,264.829,35.31,264.829"/>
	</g>
</g>
<g>
</g>
<g>
</g>
<g>
</g>
<g>
</g>
<g>
</g>
<g>
</g>
<g>
</g>
<g>
</g>
<g>
</g>
<g>
</g>
<g>
</g>
<g>
</g>
<g>
</g>
<g>
</g>
<g>
</g>
</svg>
