<?xml version="1.0" encoding="iso-8859-1"?>
<!-- Generator: Adobe Illustrator 19.0.0, SVG Export Plug-In . SVG Version: 6.00 Build 0)  -->
<svg version="1.1" id="Layer_1" xmlns="http://www.w3.org/2000/svg" xmlns:xlink="http://www.w3.org/1999/xlink" x="0px" y="0px"
	 viewBox="0 0 512 512" style="enable-background:new 0 0 512 512;" xml:space="preserve">
<g>
	<g>
		<path style="fill:#B2B2B2;" d="M282.492,353.103c-3.143,0-6.188-1.677-7.777-4.643l-61.793-114.759
			c-2.313-4.29-0.706-9.64,3.584-11.961c4.281-2.313,9.64-0.706,11.953,3.593l61.793,114.759c2.313,4.29,0.706,9.64-3.584,11.961
			C285.334,352.768,283.904,353.103,282.492,353.103"/>
		<path style="fill:#B2B2B2;" d="M203.034,256c-2.26,0-4.52-0.865-6.241-2.586c-3.452-3.452-3.452-9.031,0-12.482l35.31-35.31
			c3.452-3.452,9.031-3.452,12.482,0c3.452,3.452,3.452,9.031,0,12.482l-35.31,35.31C207.554,255.135,205.294,256,203.034,256"/>
	</g>
	<g>
		<path style="fill:#494949;" d="M123.586,450.207c0-34.127-27.666-61.793-61.793-61.793S0,416.079,0,450.207S27.666,512,61.793,512
			S123.586,484.334,123.586,450.207"/>
		<path style="fill:#494949;" d="M273.655,476.69c0-19.5-15.81-35.31-35.31-35.31s-35.31,15.81-35.31,35.31
			c0,19.5,15.81,35.31,35.31,35.31S273.655,496.19,273.655,476.69"/>
	</g>
	<path style="fill:#B2B2B2;" d="M52.966,247.172c0-14.627-11.855-26.483-26.483-26.483S0,232.545,0,247.172
		s11.855,26.483,26.483,26.483S52.966,261.8,52.966,247.172"/>
	<path style="fill:#666666;" d="M238.345,0H61.793v35.31H220.69c13.241,0,25.565,25.997,42.937,84.092
		c17.593,58.801,18.856,137.543,18.856,277.839h35.31C317.793,170.558,310.184,0,238.345,0"/>
	<g>
		<path style="fill:#4D4D4C;" d="M141.241,269.466V236.15c0-13.409-10.876-24.285-24.294-24.285H88.276v132.414h52.966h52.966
			v-28.681c0-13.409-10.876-24.285-24.294-24.285h-6.824C151.022,291.314,141.241,281.533,141.241,269.466"/>
		<path style="fill:#4D4D4C;" d="M88.276,344.276H0v-34.534c0-19.933,16.154-36.087,36.087-36.087h52.189V344.276z"/>
	</g>
	<path style="fill:#666666;" d="M88.276,273.655v-61.793h7.353L117.045,35.31H81.479L50.123,235.458
		c1.757,3.549,2.842,7.486,2.842,11.714c0,7.212-2.904,13.736-7.583,18.511l-1.245,7.971H88.276z"/>
	<path style="fill:#F9C664;" d="M93.502,397.241c17.999,10.796,30.084,30.446,30.084,52.966c0,9.49-2.198,18.45-6.029,26.483h85.478
		c0-19.5,15.81-35.31,35.31-35.31s35.31,15.81,35.31,35.31h17.037c14.963,0,27.101-12.138,27.101-27.101v-52.348H93.502z"/>
	<path style="fill:#D9A654;" d="M44.784,390.84c0.3-0.088,0.6-0.15,0.9-0.229c2.127-0.574,4.29-1.033,6.497-1.377
		c0.609-0.097,1.209-0.194,1.818-0.274c2.56-0.327,5.146-0.547,7.795-0.547c2.639,0,5.235,0.221,7.786,0.547
		c0.618,0.079,1.218,0.177,1.827,0.274c2.207,0.344,4.37,0.803,6.488,1.377c0.3,0.079,0.609,0.141,0.909,0.229
		c5.217,1.492,10.143,3.663,14.698,6.4h188.981c0-18.75-0.194-36.317-0.547-52.966H0.002v105.931
		C0.002,421.984,18.937,398.238,44.784,390.84"/>
	<path style="fill:#A2A2A2;" d="M44.138,450.207c0,9.754,7.901,17.655,17.655,17.655s17.655-7.901,17.655-17.655
		c0-9.754-7.901-17.655-17.655-17.655S44.138,440.452,44.138,450.207"/>
	<g>
		<path style="fill:#4D4D4C;" d="M317.793,353.103h44.138v-35.31h-44.138V353.103z"/>
		<path style="fill:#4D4D4C;" d="M317.793,423.724h44.138v-35.31h-44.138V423.724z"/>
	</g>
	<path style="fill:#B2B2B2;" d="M494.345,476.69h-97.103v-52.966v-35.31V17.655C397.241,7.901,389.341,0,379.586,0
		s-17.655,7.901-17.655,17.655V512h35.31h97.103c9.754,0,17.655-7.91,17.655-17.655C512,484.59,504.099,476.69,494.345,476.69"/>
	<path style="fill:#D9A654;" d="M432.552,441.379H512v-52.966h-79.448V441.379z"/>
	<path style="fill:#F9C664;" d="M432.552,388.414H512v-52.966h-79.448V388.414z"/>
	<path style="fill:#D9A654;" d="M432.552,335.448H512v-52.966h-79.448V335.448z"/>
	<path style="fill:#F9C664;" d="M432.552,282.483H512v-52.966h-79.448V282.483z"/>
	<path style="fill:#D9A654;" d="M432.552,229.517H512v-52.966h-79.448V229.517z"/>
	<path style="fill:#F9C664;" d="M432.552,176.552H512v-52.966h-79.448V176.552z"/>
</g>
<g>
</g>
<g>
</g>
<g>
</g>
<g>
</g>
<g>
</g>
<g>
</g>
<g>
</g>
<g>
</g>
<g>
</g>
<g>
</g>
<g>
</g>
<g>
</g>
<g>
</g>
<g>
</g>
<g>
</g>
</svg>
