<?xml version="1.0" encoding="iso-8859-1"?>
<!-- Generator: Adobe Illustrator 19.0.0, SVG Export Plug-In . SVG Version: 6.00 Build 0)  -->
<svg version="1.1" id="Layer_1" xmlns="http://www.w3.org/2000/svg" xmlns:xlink="http://www.w3.org/1999/xlink" x="0px" y="0px"
	 viewBox="0 0 512 512" style="enable-background:new 0 0 512 512;" xml:space="preserve">
<g>
	<path style="fill:#83BEEB;" d="M512,269.242H370.759V128h44.138L512,269.242z"/>
	<path style="fill:#226FA8;" d="M432.543,278.069c-1.677,0-3.381-0.486-4.891-1.483c-4.061-2.71-5.155-8.183-2.445-12.244
		l17.655-26.483c2.701-4.061,8.165-5.155,12.244-2.445c4.061,2.71,5.155,8.183,2.445,12.244l-17.655,26.483
		C438.201,276.692,435.394,278.069,432.543,278.069L432.543,278.069z"/>
	<path style="fill:#378CD5;" d="M370.759,128H494.38c9.86,0,17.682-8.121,17.62-17.982c-0.194-29.105-23.852-52.639-53.001-52.639
		H53.001C23.729,57.379,0,81.108,0,110.38v262.753c0,15.757,12.774,28.522,28.522,28.522h33.271
		c0-29.202,23.764-52.966,52.966-52.966s52.966,23.764,52.966,52.966h176.552c0-29.202,23.764-52.966,52.966-52.966
		c29.202,0,52.966,23.764,52.966,52.966h33.271c15.748,0,28.522-12.765,28.522-28.522V269.242H370.759V128z"/>
	<g>
		<path style="fill:#494949;" d="M114.759,454.621c-29.202,0-52.966-23.764-52.966-52.966c0-29.202,23.764-52.966,52.966-52.966
			s52.966,23.764,52.966,52.966C167.724,430.857,143.96,454.621,114.759,454.621"/>
		<path style="fill:#494949;" d="M397.241,454.621c-29.202,0-52.966-23.764-52.966-52.966c0-29.202,23.764-52.966,52.966-52.966
			c29.202,0,52.966,23.764,52.966,52.966C450.207,430.857,426.443,454.621,397.241,454.621"/>
	</g>
	<g>
		<path style="fill:#A2A2A2;" d="M414.897,401.655c0-9.754-7.901-17.655-17.655-17.655c-9.754,0-17.655,7.901-17.655,17.655
			c0,9.754,7.901,17.655,17.655,17.655C406.996,419.311,414.897,411.41,414.897,401.655"/>
		<path style="fill:#A2A2A2;" d="M132.414,401.655c0-9.754-7.901-17.655-17.655-17.655s-17.655,7.901-17.655,17.655
			c0,9.754,7.901,17.655,17.655,17.655S132.414,411.41,132.414,401.655"/>
	</g>
	<g>
		<path style="fill:#226FA8;" d="M441.379,313.379H70.621c-4.882,0-8.828-3.946-8.828-8.828s3.946-8.828,8.828-8.828h370.759
			c4.882,0,8.828,3.946,8.828,8.828S446.261,313.379,441.379,313.379"/>
		<path style="fill:#226FA8;" d="M97.103,216.276h-35.31c-9.754,0-17.655-7.901-17.655-17.655v-52.966
			c0-9.754,7.901-17.655,17.655-17.655h35.31c9.754,0,17.655,7.901,17.655,17.655v52.966
			C114.759,208.375,106.858,216.276,97.103,216.276"/>
		<path style="fill:#226FA8;" d="M203.034,216.276h-35.31c-9.754,0-17.655-7.901-17.655-17.655v-52.966
			c0-9.754,7.901-17.655,17.655-17.655h35.31c9.754,0,17.655,7.901,17.655,17.655v52.966
			C220.69,208.375,212.789,216.276,203.034,216.276"/>
		<path style="fill:#226FA8;" d="M308.966,216.276h-35.31c-9.754,0-17.655-7.901-17.655-17.655v-52.966
			c0-9.754,7.901-17.655,17.655-17.655h35.31c9.754,0,17.655,7.901,17.655,17.655v52.966
			C326.621,208.375,318.72,216.276,308.966,216.276"/>
	</g>
	<g>
		<path style="fill:#83BEEB;" d="M97.103,128h-35.31c-9.754,0-17.655,7.901-17.655,17.655v35.31h70.621v-35.31
			C114.759,135.901,106.849,128,97.103,128"/>
		<path style="fill:#83BEEB;" d="M203.034,128h-35.31c-9.754,0-17.655,7.901-17.655,17.655v35.31h70.621v-35.31
			C220.69,135.901,212.78,128,203.034,128"/>
		<path style="fill:#83BEEB;" d="M308.966,128h-35.31c-9.754,0-17.655,7.901-17.655,17.655v17.655h70.621v-17.655
			C326.621,135.901,318.711,128,308.966,128"/>
	</g>
	<g>
		<path style="fill:#FEC44C;" d="M26.483,357.517H0v-52.966h26.483c4.873,0,8.828,3.955,8.828,8.828v35.31
			C35.31,353.563,31.356,357.517,26.483,357.517"/>
		<path style="fill:#FEC44C;" d="M485.517,304.552H512v52.966h-26.483c-4.873,0-8.828-3.955-8.828-8.828v-35.31
			C476.69,308.507,480.644,304.552,485.517,304.552"/>
	</g>
	<g>
		<path style="fill:#E85A4B;" d="M79.448,198.621c-4.882,0-8.828-3.946-8.828-8.828v-8.828c0-4.882,3.946-8.828,8.828-8.828
			c4.882,0,8.828,3.946,8.828,8.828v8.828C88.276,194.675,84.33,198.621,79.448,198.621"/>
		<path style="fill:#E85A4B;" d="M185.379,198.621c-4.882,0-8.828-3.946-8.828-8.828v-8.828c0-4.882,3.946-8.828,8.828-8.828
			c4.882,0,8.828,3.946,8.828,8.828v8.828C194.207,194.675,190.261,198.621,185.379,198.621"/>
		<path style="fill:#E85A4B;" d="M291.31,180.966c-4.882,0-8.828-3.946-8.828-8.828v-8.828c0-4.882,3.946-8.828,8.828-8.828
			c4.882,0,8.828,3.946,8.828,8.828v8.828C300.138,177.02,296.192,180.966,291.31,180.966"/>
	</g>
	<path style="fill:#226FA8;" d="M105.931,278.069c4.882,0,8.828-3.946,8.828-8.828c0-4.882-3.946-8.828-8.828-8.828H0v17.655
		H105.931z"/>
</g>
<g>
</g>
<g>
</g>
<g>
</g>
<g>
</g>
<g>
</g>
<g>
</g>
<g>
</g>
<g>
</g>
<g>
</g>
<g>
</g>
<g>
</g>
<g>
</g>
<g>
</g>
<g>
</g>
<g>
</g>
</svg>
