<?xml version="1.0" encoding="iso-8859-1"?>
<!-- Generator: Adobe Illustrator 19.0.0, SVG Export Plug-In . SVG Version: 6.00 Build 0)  -->
<svg version="1.1" id="Layer_1" xmlns="http://www.w3.org/2000/svg" xmlns:xlink="http://www.w3.org/1999/xlink" x="0px" y="0px"
	 viewBox="0 0 512.002 512.002" style="enable-background:new 0 0 512.002 512.002;" xml:space="preserve">
<g>
	<g>
		<path style="fill:#E6E6E6;" d="M221.289,52.07c-2.222,0-4.443-0.85-6.135-2.543c-3.393-3.393-3.393-8.878,0-12.271l34.712-34.712
			c3.393-3.393,8.878-3.393,12.271,0c3.393,3.393,3.393,8.878,0,12.271l-34.712,34.712C225.732,51.22,223.511,52.07,221.289,52.07"
			/>
		<path style="fill:#E6E6E6;" d="M273.357,52.07c-2.222,0-4.443-0.85-6.135-2.543c-3.393-3.393-3.393-8.878,0-12.271l34.712-34.712
			c3.393-3.393,8.878-3.393,12.271,0c3.393,3.393,3.393,8.878,0,12.271l-34.712,34.712C277.8,51.22,275.579,52.07,273.357,52.07"/>
	</g>
	<path style="fill:#666666;" d="M455.594,512.002H56.408l86.78-69.424h216.949L455.594,512.002z"/>
	<g>
		<path style="fill:#86C250;" d="M368.815,442.578H134.51c-14.379,0-26.034-11.654-26.034-26.034v-78.102h286.373v78.102
			C394.849,430.924,383.194,442.578,368.815,442.578"/>
		<path style="fill:#86C250;" d="M394.849,199.595H108.476v-78.102c0-14.379,11.655-26.034,26.034-26.034h234.305
			c14.379,0,26.034,11.655,26.034,26.034V199.595z"/>
	</g>
	<path style="fill:#AEDAF7;" d="M108.476,338.443h286.373V199.595H108.476V338.443z"/>
	<path style="fill:#628D3A;" d="M316.747,95.46H186.577l17.356-52.068h95.458L316.747,95.46z"/>
	<g>
		<path style="fill:#FFCE5D;" d="M177.899,390.511c0,9.589-7.767,17.356-17.356,17.356s-17.356-7.767-17.356-17.356
			s7.767-17.356,17.356-17.356S177.899,380.922,177.899,390.511"/>
		<path style="fill:#FFCE5D;" d="M360.137,390.511c0,9.589-7.767,17.356-17.356,17.356c-9.589,0-17.356-7.767-17.356-17.356
			s7.767-17.356,17.356-17.356C352.37,373.155,360.137,380.922,360.137,390.511"/>
	</g>
	<path style="fill:#628D3A;" d="M186.577,164.884h130.169v-34.712H186.577V164.884z"/>
	<g>
		<path style="fill:#B3B3B3;" d="M88.95,485.968h330.847l-23.864-17.356H110.645L88.95,485.968z"/>
		<path style="fill:#B3B3B3;" d="M316.747,512.002h17.356v-69.424h-17.356V512.002z"/>
		<path style="fill:#B3B3B3;" d="M169.221,512.002h17.356v-69.424h-17.356V512.002z"/>
	</g>
</g>
<g>
</g>
<g>
</g>
<g>
</g>
<g>
</g>
<g>
</g>
<g>
</g>
<g>
</g>
<g>
</g>
<g>
</g>
<g>
</g>
<g>
</g>
<g>
</g>
<g>
</g>
<g>
</g>
<g>
</g>
</svg>
