<?xml version="1.0" encoding="iso-8859-1"?>
<!-- Generator: Adobe Illustrator 19.0.0, SVG Export Plug-In . SVG Version: 6.00 Build 0)  -->
<svg version="1.1" id="Layer_1" xmlns="http://www.w3.org/2000/svg" xmlns:xlink="http://www.w3.org/1999/xlink" x="0px" y="0px"
	 viewBox="0 0 512 512" style="enable-background:new 0 0 512 512;" xml:space="preserve">
<g>
	<path style="fill:#FEC24C;" d="M216.496,135.473c-2.71-12.103-13.453-20.718-25.856-20.718H70.637c-14.636,0-26.5,11.864-26.5,26.5
		v141.224h140.57h64.671L216.496,135.473z"/>
	<g>
		<path style="fill:#BC8D2F;" d="M368.637,282.483H44.135v114.759h264.828h8.969h19.368c4.846,0,9.278-2.737,11.449-7.08
			l31.338-89.159C384.342,292.493,378.153,282.483,368.637,282.483"/>
		<path style="fill:#BC8D2F;" d="M173.677,229.517h-76.57c-4.882,0-8.828-3.955-8.828-8.828v-44.138
			c0-4.873,3.946-8.828,8.828-8.828h63.956c3.946,0,7.406,2.613,8.492,6.4l12.615,44.138
			C183.775,223.903,179.538,229.517,173.677,229.517"/>
		<path style="fill:#BC8D2F;" d="M414.897,79.448c0,19.5-15.81,35.31-35.31,35.31c-19.5,0-35.31-15.81-35.31-35.31
			s15.81-35.31,35.31-35.31C399.086,44.138,414.897,59.948,414.897,79.448"/>
	</g>
	<path style="fill:#FEC24C;" d="M379.586,114.759c-18.406,0-33.351-14.142-34.993-32.115L237.745,230.471l11.635,52.012h15.13
		l119.137-168.13C382.296,114.503,380.981,114.759,379.586,114.759"/>
	<g>
		<path style="fill:#BC8D2F;" d="M512,256l-32.38-3.602c-29.087-3.231-54.193-21.857-65.721-48.755l-7.83-18.264H512V256z"/>
		<path style="fill:#BC8D2F;" d="M467.862,300.138c-4.873,0-8.828-3.946-8.828-8.828s3.955-8.828,8.828-8.828
			c14.601,0,26.483-11.882,26.483-26.483c0-4.882,3.955-8.828,8.828-8.828c4.873,0,8.828,3.946,8.828,8.828
			C512,280.338,492.2,300.138,467.862,300.138"/>
	</g>
	<path style="fill:#FEC24C;" d="M413.417,69.876c0.865,3.063,1.483,6.232,1.483,9.569c0,12.456-6.488,23.349-16.216,29.634
		l42.699,76.297h52.966L413.417,69.876z"/>
	<path style="fill:#E15649;" d="M132.414,61.793c-14.566,0-26.483,11.917-26.483,26.483v26.483h52.966V88.276
		C158.897,73.71,146.979,61.793,132.414,61.793"/>
	<path style="fill:#535353;" d="M370.759,467.862H35.31c-19.421,0-35.31-15.89-35.31-35.31l0,0c0-19.421,15.89-35.31,35.31-35.31
		h335.448c19.421,0,35.31,15.89,35.31,35.31l0,0C406.069,451.972,390.179,467.862,370.759,467.862"/>
	<g>
		<path style="fill:#A2A2A2;" d="M123.586,432.552c0,4.873-3.955,8.828-8.828,8.828s-8.828-3.955-8.828-8.828
			s3.955-8.828,8.828-8.828S123.586,427.679,123.586,432.552"/>
		<path style="fill:#A2A2A2;" d="M167.724,432.552c0,4.873-3.955,8.828-8.828,8.828c-4.873,0-8.828-3.955-8.828-8.828
			s3.955-8.828,8.828-8.828C163.769,423.724,167.724,427.679,167.724,432.552"/>
		<path style="fill:#A2A2A2;" d="M211.862,432.552c0,4.873-3.955,8.828-8.828,8.828c-4.873,0-8.828-3.955-8.828-8.828
			s3.955-8.828,8.828-8.828C207.907,423.724,211.862,427.679,211.862,432.552"/>
		<path style="fill:#A2A2A2;" d="M256,432.552c0,4.873-3.955,8.828-8.828,8.828c-4.873,0-8.828-3.955-8.828-8.828
			s3.955-8.828,8.828-8.828C252.045,423.724,256,427.679,256,432.552"/>
		<path style="fill:#A2A2A2;" d="M300.138,432.552c0,4.873-3.955,8.828-8.828,8.828c-4.873,0-8.828-3.955-8.828-8.828
			s3.955-8.828,8.828-8.828C296.183,423.724,300.138,427.679,300.138,432.552"/>
		<path style="fill:#A2A2A2;" d="M70.621,432.552c0,19.5-15.81,35.31-35.31,35.31S0,452.052,0,432.552
			c0-19.5,15.81-35.31,35.31-35.31S70.621,413.052,70.621,432.552"/>
		<path style="fill:#A2A2A2;" d="M406.069,432.552c0,19.5-15.81,35.31-35.31,35.31c-19.5,0-35.31-15.81-35.31-35.31
			c0-19.5,15.81-35.31,35.31-35.31C390.259,397.241,406.069,413.052,406.069,432.552"/>
	</g>
	<g>
		<path style="fill:#FEC24C;" d="M194.207,308.966H44.138v17.655h150.069c4.873,0,8.828-3.946,8.828-8.828
			S199.08,308.966,194.207,308.966"/>
		<path style="fill:#FEC24C;" d="M247.172,344.276H44.138v17.655h203.034c4.873,0,8.828-3.946,8.828-8.828
			C256,348.222,252.045,344.276,247.172,344.276"/>
	</g>
</g>
<g>
</g>
<g>
</g>
<g>
</g>
<g>
</g>
<g>
</g>
<g>
</g>
<g>
</g>
<g>
</g>
<g>
</g>
<g>
</g>
<g>
</g>
<g>
</g>
<g>
</g>
<g>
</g>
<g>
</g>
</svg>
