<?xml version="1.0" encoding="iso-8859-1"?>
<!-- Generator: Adobe Illustrator 19.0.0, SVG Export Plug-In . SVG Version: 6.00 Build 0)  -->
<svg version="1.1" id="Layer_1" xmlns="http://www.w3.org/2000/svg" xmlns:xlink="http://www.w3.org/1999/xlink" x="0px" y="0px"
	 viewBox="0 0 512.003 512.003" style="enable-background:new 0 0 512.003 512.003;" xml:space="preserve">
<g>
	<path style="fill:#A2A2A2;" d="M186.183,102.403c-2.383,0-4.766-0.912-6.582-2.728c-3.64-3.64-3.64-9.523,0-13.163l55.855-55.855
		c3.64-3.64,9.523-3.64,13.163,0c3.64,3.64,3.64,9.523,0,13.163l-55.855,55.855C190.949,101.49,188.566,102.403,186.183,102.403"/>
	<g>
		<path style="fill:#535353;" d="M214.11,335.13H65.165l35.803-85.932c6.507-15.611,21.755-25.777,38.67-25.777
			s32.163,10.166,38.67,25.777L214.11,335.13z"/>
		<path style="fill:#535353;" d="M130.328,148.948c30.59,30.59,80.189,30.59,110.778,0L130.328,38.179
			C99.739,68.759,99.739,118.358,130.328,148.948"/>
	</g>
	<g>
		<path style="fill:#A2A2A2;" d="M139.637,223.421c10.519,0,20.396,3.947,27.927,10.678v-64.419
			c-13.638-3.24-26.596-10.091-37.236-20.731c-8.723-8.723-14.867-19.018-18.618-29.947v115.098
			C119.241,227.368,129.118,223.421,139.637,223.421"/>
		<path style="fill:#A2A2A2;" d="M148.946,269.966c0,5.139-4.17,9.309-9.309,9.309c-5.139,0-9.309-4.17-9.309-9.309
			s4.17-9.309,9.309-9.309C144.776,260.657,148.946,264.828,148.946,269.966"/>
	</g>
	<g>
		<path style="fill:#494949;" d="M465.455,428.221c0,30.85-25.004,55.855-55.855,55.855s-55.855-25.004-55.855-55.855
			s25.004-55.855,55.855-55.855S465.455,397.37,465.455,428.221"/>
		<path style="fill:#494949;" d="M139.637,428.221c0,30.85-25.004,55.855-55.855,55.855s-55.855-25.004-55.855-55.855
			s25.004-55.855,55.855-55.855S139.637,397.37,139.637,428.221"/>
	</g>
	<path style="fill:#EC5749;" d="M506.312,263.708l-80.896-88.986c-4.143-4.552-10.017-7.159-16.179-7.159h-85.746
		c-8.993,0-16.291,7.298-16.291,16.291v151.273H0v79.9c0,7.289,5.902,13.191,13.191,13.191h14.736
		c0-30.841,25.004-55.855,55.855-55.855s55.855,25.014,55.855,55.855H307.2h46.545c0-30.841,25.004-55.855,55.855-55.855
		s55.855,25.014,55.855,55.855h33.354c7.289,0,13.191-5.902,13.191-13.191V278.425C512,272.98,509.971,267.739,506.312,263.708"/>
	<g>
		<path style="fill:#A2A2A2;" d="M102.401,428.221c0,10.287-8.332,18.618-18.618,18.618s-18.618-8.332-18.618-18.618
			c0-10.287,8.332-18.618,18.618-18.618S102.401,417.934,102.401,428.221"/>
		<path style="fill:#A2A2A2;" d="M428.219,428.221c0,10.287-8.332,18.618-18.618,18.618s-18.618-8.332-18.618-18.618
			c0-10.287,8.332-18.618,18.618-18.618S428.219,417.934,428.219,428.221"/>
	</g>
	<path style="fill:#E0E0E0;" d="M425.419,174.727c-4.143-4.561-10.026-7.159-16.188-7.159h-48.789c-3.696,0-6.693,2.998-6.693,6.693
		v98.323c0,3.696,2.998,6.693,6.693,6.693h151.561v-0.856c0-5.436-2.029-10.687-5.688-14.708L425.419,174.727z"/>
	<path style="fill:#EF8E89;" d="M456.146,353.748h55.855V335.13h-55.855V353.748z"/>
</g>
<g>
</g>
<g>
</g>
<g>
</g>
<g>
</g>
<g>
</g>
<g>
</g>
<g>
</g>
<g>
</g>
<g>
</g>
<g>
</g>
<g>
</g>
<g>
</g>
<g>
</g>
<g>
</g>
<g>
</g>
</svg>
