<?xml version="1.0" encoding="iso-8859-1"?>
<!-- Generator: Adobe Illustrator 19.0.0, SVG Export Plug-In . SVG Version: 6.00 Build 0)  -->
<svg version="1.1" id="Layer_1" xmlns="http://www.w3.org/2000/svg" xmlns:xlink="http://www.w3.org/1999/xlink" x="0px" y="0px"
	 viewBox="0 0 512 512" style="enable-background:new 0 0 512 512;" xml:space="preserve">
<g>
	<g>
		<path style="fill:#628D3A;" d="M61.793,194.207H35.31c-4.882,0-8.828-3.955-8.828-8.828c0-4.873,3.946-8.828,8.828-8.828h26.483
			c4.882,0,8.828,3.955,8.828,8.828C70.621,190.252,66.675,194.207,61.793,194.207"/>
		<path style="fill:#628D3A;" d="M476.69,194.207h-26.483c-4.882,0-8.828-3.955-8.828-8.828c0-4.873,3.946-8.828,8.828-8.828h26.483
			c4.882,0,8.828,3.955,8.828,8.828C485.517,190.252,481.571,194.207,476.69,194.207"/>
	</g>
	<path style="fill:#FFCE5D;" d="M97.103,300.138V112.825c0-13.559,10.99-24.55,24.55-24.55h268.694
		c13.559,0,24.549,10.99,24.549,24.55v187.313h35.31V17.655C450.207,7.901,442.306,0,432.552,0H79.448
		c-9.754,0-17.655,7.901-17.655,17.655v282.483H97.103z"/>
	<g>
		<path style="fill:#C49E47;" d="M158.897,97.103c-4.882,0-8.828-3.955-8.828-8.828v-35.31c0-4.873,3.946-8.828,8.828-8.828
			c4.882,0,8.828,3.955,8.828,8.828v35.31C167.724,93.149,163.778,97.103,158.897,97.103"/>
		<path style="fill:#C49E47;" d="M203.034,97.103c-4.882,0-8.828-3.955-8.828-8.828v-35.31c0-4.873,3.946-8.828,8.828-8.828
			s8.828,3.955,8.828,8.828v35.31C211.862,93.149,207.916,97.103,203.034,97.103"/>
		<path style="fill:#C49E47;" d="M247.172,97.103c-4.882,0-8.828-3.955-8.828-8.828v-35.31c0-4.873,3.946-8.828,8.828-8.828
			S256,48.093,256,52.966v35.31C256,93.149,252.054,97.103,247.172,97.103"/>
		<path style="fill:#C49E47;" d="M291.31,97.103c-4.882,0-8.828-3.955-8.828-8.828v-35.31c0-4.873,3.946-8.828,8.828-8.828
			c4.882,0,8.828,3.955,8.828,8.828v35.31C300.138,93.149,296.192,97.103,291.31,97.103"/>
		<path style="fill:#C49E47;" d="M335.448,97.103c-4.882,0-8.828-3.955-8.828-8.828v-35.31c0-4.873,3.946-8.828,8.828-8.828
			c4.882,0,8.828,3.955,8.828,8.828v35.31C344.276,93.149,340.33,97.103,335.448,97.103"/>
	</g>
	<path style="fill:#86C250;" d="M414.897,300.138V112.825c0-13.559-10.99-24.55-24.549-24.55H121.653
		c-13.559,0-24.55,10.99-24.55,24.55v187.313H44.138v105.931h8.828h414.897V300.138H414.897z"/>
	<g>
		<path style="fill:#666666;" d="M141.241,512h-35.31c-14.627,0-26.483-11.855-26.483-26.483v-26.483h88.276v26.483
			C167.724,500.145,155.869,512,141.241,512"/>
		<path style="fill:#666666;" d="M406.069,512h-35.31c-14.627,0-26.483-11.855-26.483-26.483v-26.483h88.276v26.483
			C432.552,500.145,420.696,512,406.069,512"/>
	</g>
	<g>
		<path style="fill:#86C250;" d="M27.957,220.69H7.353c-4.061,0-7.353-3.293-7.353-7.353v-55.914c0-4.061,3.293-7.353,7.353-7.353
			h20.604c4.061,0,7.353,3.293,7.353,7.353v55.914C35.31,217.397,32.018,220.69,27.957,220.69"/>
		<path style="fill:#86C250;" d="M484.043,220.69h20.604c4.061,0,7.353-3.293,7.353-7.353v-55.914c0-4.061-3.293-7.353-7.353-7.353
			h-20.604c-4.061,0-7.353,3.293-7.353,7.353v55.914C476.69,217.397,479.982,220.69,484.043,220.69"/>
	</g>
	<g>
		<path style="fill:#628D3A;" d="M291.31,335.448H220.69c-4.882,0-8.828-3.955-8.828-8.828c0-4.873,3.946-8.828,8.828-8.828h70.621
			c4.882,0,8.828,3.955,8.828,8.828C300.138,331.493,296.192,335.448,291.31,335.448"/>
		<path style="fill:#628D3A;" d="M317.793,370.759H194.207c-4.882,0-8.828-3.955-8.828-8.828s3.946-8.828,8.828-8.828h123.586
			c4.882,0,8.828,3.955,8.828,8.828S322.675,370.759,317.793,370.759"/>
		<path style="fill:#628D3A;" d="M450.195,459.034H61.808c-9.763,0-17.673-7.91-17.673-17.664v-34.754h423.724v34.754
			C467.859,451.125,459.95,459.034,450.195,459.034"/>
	</g>
	<g>
		<path style="fill:#FFCE5D;" d="M123.586,353.103c0,9.754-7.901,17.655-17.655,17.655s-17.655-7.901-17.655-17.655
			s7.901-17.655,17.655-17.655S123.586,343.349,123.586,353.103"/>
		<path style="fill:#FFCE5D;" d="M423.724,353.103c0,9.754-7.901,17.655-17.655,17.655s-17.655-7.901-17.655-17.655
			s7.901-17.655,17.655-17.655S423.724,343.349,423.724,353.103"/>
	</g>
	<path style="fill:#AEDAF7;" d="M353.104,273.655H158.897c-9.754,0-17.655-7.901-17.655-17.655V150.069
		c0-9.754,7.901-17.655,17.655-17.655h194.207c9.746,0,17.655,7.901,17.655,17.655V256
		C370.759,265.754,362.85,273.655,353.104,273.655"/>
	<g>
		<path style="fill:#1C83BB;" d="M324.034,235.758c3.452-3.452,3.452-9.031,0-12.482c-3.452-3.452-9.031-3.452-12.482,0
			l-44.138,44.138c-1.721,1.721-2.586,3.981-2.586,6.241h21.31L324.034,235.758z"/>
		<path style="fill:#1C83BB;" d="M244.586,235.758c3.452-3.452,3.452-9.031,0-12.482c-3.452-3.452-9.031-3.452-12.482,0
			l-44.138,44.138c-1.721,1.721-2.586,3.981-2.586,6.241h21.31L244.586,235.758z"/>
	</g>
</g>
<g>
</g>
<g>
</g>
<g>
</g>
<g>
</g>
<g>
</g>
<g>
</g>
<g>
</g>
<g>
</g>
<g>
</g>
<g>
</g>
<g>
</g>
<g>
</g>
<g>
</g>
<g>
</g>
<g>
</g>
</svg>
