<?xml version="1.0" encoding="iso-8859-1"?>
<!-- Generator: Adobe Illustrator 19.0.0, SVG Export Plug-In . SVG Version: 6.00 Build 0)  -->
<svg version="1.1" id="Layer_1" xmlns="http://www.w3.org/2000/svg" xmlns:xlink="http://www.w3.org/1999/xlink" x="0px" y="0px"
	 viewBox="0 0 512 512" style="enable-background:new 0 0 512 512;" xml:space="preserve">
<g>
	<g>
		<path style="fill:#C49E47;" d="M70.621,114.759H35.31c-4.882,0-8.828-3.955-8.828-8.828c0-4.873,3.946-8.828,8.828-8.828h35.31
			c4.882,0,8.828,3.955,8.828,8.828C79.448,110.804,75.502,114.759,70.621,114.759"/>
		<path style="fill:#C49E47;" d="M476.69,114.759h-35.31c-4.882,0-8.828-3.955-8.828-8.828c0-4.873,3.946-8.828,8.828-8.828h35.31
			c4.882,0,8.828,3.955,8.828,8.828C485.517,110.804,481.571,114.759,476.69,114.759"/>
	</g>
	<g>
		<path style="fill:#FFCE5D;" d="M494.345,432.552H17.655C7.901,432.552,0,424.651,0,414.897v-17.655
			c0-9.754,7.901-17.655,17.655-17.655h476.69c9.754,0,17.655,7.901,17.655,17.655v17.655
			C512,424.651,504.099,432.552,494.345,432.552"/>
		<path style="fill:#FFCE5D;" d="M27.957,141.241H7.353c-4.061,0-7.353-3.293-7.353-7.353V77.974c0-4.061,3.293-7.353,7.353-7.353
			h20.604c4.061,0,7.353,3.293,7.353,7.353v55.914C35.31,137.949,32.018,141.241,27.957,141.241"/>
	</g>
	<g>
		<path style="fill:#666666;" d="M105.931,494.345h-35.31c-14.627,0-26.483-11.855-26.483-26.483v-35.31h88.276v35.31
			C132.414,482.489,120.558,494.345,105.931,494.345"/>
		<path style="fill:#666666;" d="M432.552,494.345h-35.31c-14.627,0-26.483-11.855-26.483-26.483v-35.31h88.276v35.31
			C459.034,482.489,447.179,494.345,432.552,494.345"/>
	</g>
	<path style="fill:#FFCE5D;" d="M467.862,211.862H44.138L88.982,47.439c4.793-17.585,20.762-29.784,38.991-29.784h256.053
		c18.229,0,34.198,12.2,38.991,29.784L467.862,211.862z"/>
	<g>
		<path style="fill:#C49E47;" d="M150.069,220.69c-2.26,0-4.52-0.865-6.241-2.586c-3.452-3.452-3.452-9.031,0-12.482l79.448-79.448
			c3.452-3.452,9.031-3.452,12.482,0c3.452,3.452,3.452,9.031,0,12.482l-79.448,79.448
			C154.589,219.825,152.329,220.69,150.069,220.69"/>
		<path style="fill:#C49E47;" d="M185.379,185.379c-4.882,0-8.828-3.955-8.828-8.828v-35.31c0-4.873,3.946-8.828,8.828-8.828
			c4.882,0,8.828,3.955,8.828,8.828v35.31C194.207,181.425,190.261,185.379,185.379,185.379"/>
		<path style="fill:#C49E47;" d="M273.655,220.69c-2.26,0-4.52-0.865-6.241-2.586c-3.452-3.452-3.452-9.031,0-12.482l79.448-79.448
			c3.452-3.452,9.031-3.452,12.482,0c3.452,3.452,3.452,9.031,0,12.482l-79.448,79.448
			C278.175,219.825,275.915,220.69,273.655,220.69"/>
		<path style="fill:#C49E47;" d="M308.966,185.379c-4.882,0-8.828-3.955-8.828-8.828v-35.31c0-4.873,3.946-8.828,8.828-8.828
			c4.882,0,8.828,3.955,8.828,8.828v35.31C317.793,181.425,313.847,185.379,308.966,185.379"/>
	</g>
	<path style="fill:#FFCE5D;" d="M484.043,141.241h20.604c4.061,0,7.353-3.293,7.353-7.353V77.974c0-4.061-3.293-7.353-7.353-7.353
		h-20.604c-4.061,0-7.353,3.293-7.353,7.353v55.914C476.69,137.949,479.982,141.241,484.043,141.241"/>
	<path style="fill:#C49E47;" d="M494.345,379.586H17.655V273.24c0-5.535,1.289-10.99,3.761-15.934l22.722-45.444h423.724
		l22.722,45.444c2.472,4.943,3.761,10.399,3.761,15.934V379.586z"/>
	<g>
		<path style="fill:#FFCE5D;" d="M79.448,326.621h70.621v-44.138H79.448V326.621z"/>
		<path style="fill:#FFCE5D;" d="M361.931,326.621h70.621v-44.138h-70.621V326.621z"/>
		<path style="fill:#FFCE5D;" d="M291.31,291.31H220.69c-4.882,0-8.828-3.955-8.828-8.828s3.946-8.828,8.828-8.828h70.621
			c4.882,0,8.828,3.955,8.828,8.828S296.192,291.31,291.31,291.31"/>
		<path style="fill:#FFCE5D;" d="M317.793,326.621H194.207c-4.882,0-8.828-3.955-8.828-8.828c0-4.873,3.946-8.828,8.828-8.828
			h123.586c4.882,0,8.828,3.955,8.828,8.828C326.621,322.666,322.675,326.621,317.793,326.621"/>
	</g>
</g>
<g>
</g>
<g>
</g>
<g>
</g>
<g>
</g>
<g>
</g>
<g>
</g>
<g>
</g>
<g>
</g>
<g>
</g>
<g>
</g>
<g>
</g>
<g>
</g>
<g>
</g>
<g>
</g>
<g>
</g>
</svg>
