<?xml version="1.0" encoding="iso-8859-1"?>
<!-- Generator: Adobe Illustrator 19.0.0, SVG Export Plug-In . SVG Version: 6.00 Build 0)  -->
<svg version="1.1" id="Layer_1" xmlns="http://www.w3.org/2000/svg" xmlns:xlink="http://www.w3.org/1999/xlink" x="0px" y="0px"
	 viewBox="0 0 512 512" style="enable-background:new 0 0 512 512;" xml:space="preserve">
<g>
	<path style="fill:#878787;" d="M85.333,234.667c-37.641,0-68.267,30.626-68.267,68.267S47.693,371.2,85.333,371.2
		s68.267-30.626,68.267-68.267S122.974,234.667,85.333,234.667 M85.333,388.267C38.281,388.267,0,349.986,0,302.933
		S38.281,217.6,85.333,217.6s85.333,38.281,85.333,85.333S132.386,388.267,85.333,388.267"/>
	<path style="fill:#878787;" d="M426.667,234.667c-37.641,0-68.267,30.626-68.267,68.267s30.626,68.267,68.267,68.267
		s68.267-30.626,68.267-68.267S464.307,234.667,426.667,234.667 M426.667,388.267c-47.053,0-85.333-38.281-85.333-85.333
		s38.281-85.333,85.333-85.333S512,255.881,512,302.933S473.719,388.267,426.667,388.267"/>
	<path style="fill:#878787;" d="M99.954,295.975l123.383,13.705l-61.696-109.67L99.954,295.975z M238.937,328.53
		c-0.316,0-0.631-0.017-0.947-0.043l-153.6-17.067c-2.935-0.333-5.487-2.15-6.758-4.821c-1.271-2.662-1.075-5.803,0.521-8.286
		l76.715-119.322c0.734-1.203,1.775-2.227,3.081-2.961c1.374-0.768,2.876-1.195,4.343-1.101h187.58c2.995,0,5.76,1.579,7.296,4.122
		l76.681,119.262c2.543,3.968,1.399,9.25-2.56,11.793c-3.977,2.569-9.25,1.399-11.802-2.56l-74.283-115.55H176.729l69.641,123.819
		c1.57,2.79,1.451,6.229-0.316,8.892C244.458,327.113,241.778,328.53,238.937,328.53L238.937,328.53z"/>
	<path style="fill:#878787;" d="M238.929,328.533c-1.894,0-3.797-0.623-5.376-1.911c-3.661-2.97-4.215-8.346-1.237-12.006
		l110.933-136.533c2.97-3.652,8.354-4.198,11.998-1.237c3.661,2.97,4.215,8.346,1.237,12.006L245.551,325.385
		C243.87,327.458,241.412,328.533,238.929,328.533"/>
	<path style="fill:#878787;" d="M162.142,192c-2.901,0-5.726-1.476-7.322-4.139l-25.6-42.667c-2.432-4.045-1.118-9.284,2.918-11.708
		c4.045-2.432,9.293-1.118,11.708,2.918l25.6,42.667c2.432,4.045,1.118,9.284-2.918,11.708C165.154,191.607,163.635,192,162.142,192
		"/>
	<path style="fill:#878787;" d="M179.2,149.333h-59.733c-4.71,0-8.533-3.814-8.533-8.533s3.823-8.533,8.533-8.533H179.2
		c4.71,0,8.533,3.814,8.533,8.533S183.91,149.333,179.2,149.333"/>
	<path style="fill:#878787;" d="M349.875,192c-3.132,0-6.144-1.724-7.646-4.719L318.993,140.8h-28.86
		c-4.71,0-8.533-3.814-8.533-8.533c0-4.719,3.823-8.533,8.533-8.533h34.133c3.234,0,6.187,1.826,7.637,4.719l25.6,51.2
		c2.108,4.215,0.393,9.335-3.823,11.452C352.461,191.71,351.155,192,349.875,192"/>
</g>
<g>
</g>
<g>
</g>
<g>
</g>
<g>
</g>
<g>
</g>
<g>
</g>
<g>
</g>
<g>
</g>
<g>
</g>
<g>
</g>
<g>
</g>
<g>
</g>
<g>
</g>
<g>
</g>
<g>
</g>
</svg>
