<?xml version="1.0" encoding="iso-8859-1"?>
<!-- Generator: Adobe Illustrator 19.0.0, SVG Export Plug-In . SVG Version: 6.00 Build 0)  -->
<svg version="1.1" id="Layer_1" xmlns="http://www.w3.org/2000/svg" xmlns:xlink="http://www.w3.org/1999/xlink" x="0px" y="0px"
	 viewBox="0 0 512.008 512.008" style="enable-background:new 0 0 512.008 512.008;" xml:space="preserve">
<g transform="translate(-1)">
	<path style="fill:#7C7B7A;" d="M279.462,314.39c-1.114,0-2.246-0.198-3.332-0.638l-131.404-52.565L13.321,313.752
		c-4.572,1.841-9.836-0.395-11.677-5.012c-1.841-4.608,0.404-9.836,5.012-11.677l138.069-55.224l138.069,55.224
		c4.608,1.841,6.854,7.069,5.012,11.677C286.396,312.261,283.019,314.39,279.462,314.39"/>
	<g>
		<path style="fill:#494949;" d="M468.093,395.232c0,29.768-24.127,53.895-53.895,53.895S360.304,425,360.304,395.232
			s24.127-53.895,53.895-53.895S468.093,365.464,468.093,395.232"/>
		<path style="fill:#494949;" d="M135.743,395.232c0,29.768-24.127,53.895-53.895,53.895S27.953,425,27.953,395.232
			s24.127-53.895,53.895-53.895S135.743,365.464,135.743,395.232"/>
	</g>
	<path style="fill:#378CD5;" d="M507.517,236.491l-78.058-85.863c-3.997-4.392-9.665-6.908-15.612-6.908H331.11
		c-8.677,0-15.719,7.042-15.719,15.719v145.965H1.005v77.096c0,7.033,5.695,12.728,12.728,12.728h14.219
		c0-29.759,24.127-53.895,53.895-53.895s53.895,24.136,53.895,53.895h179.649h44.912c0-29.759,24.127-53.895,53.895-53.895
		s53.895,24.136,53.895,53.895h32.184c7.033,0,12.728-5.695,12.728-12.728V250.692C513.005,245.438,511.047,240.381,507.517,236.491
		"/>
	<g>
		<path style="fill:#E0E0E0;" d="M99.813,395.232c0,9.926-8.039,17.965-17.965,17.965s-17.965-8.039-17.965-17.965
			s8.039-17.965,17.965-17.965S99.813,385.306,99.813,395.232"/>
		<path style="fill:#E0E0E0;" d="M432.164,395.232c0,9.926-8.039,17.965-17.965,17.965c-9.926,0-17.965-8.039-17.965-17.965
			s8.039-17.965,17.965-17.965C424.124,377.267,432.164,385.306,432.164,395.232"/>
		<path style="fill:#E0E0E0;" d="M429.462,150.632c-3.997-4.401-9.674-6.908-15.62-6.908h-47.077c-3.566,0-6.458,2.892-6.458,6.458
			v94.873c0,3.566,2.892,6.458,6.458,6.458h146.243v-0.826c0-5.246-1.958-10.312-5.488-14.192L429.462,150.632z"/>
	</g>
	<path style="fill:#8E382F;" d="M243.532,125.758H45.918l38.723-54.209c3.88-5.443,10.159-8.668,16.842-8.668h86.483
		c6.683,0,12.962,3.225,16.842,8.668L243.532,125.758z"/>
	<g>
		<path style="fill:#E0E0E0;" d="M99.813,188.635c0,14.884-12.063,26.947-26.947,26.947s-26.947-12.063-26.947-26.947
			s12.063-26.947,26.947-26.947S99.813,173.751,99.813,188.635"/>
		<path style="fill:#E0E0E0;" d="M243.532,188.635c0,14.884-12.063,26.947-26.947,26.947s-26.947-12.063-26.947-26.947
			s12.063-26.947,26.947-26.947S243.532,173.751,243.532,188.635"/>
	</g>
	<path style="fill:#E85A4B;" d="M265.438,125.758H24.008c-7.743,0-14.022,6.279-14.022,14.022v34.834
		c0,7.743,6.279,14.022,14.022,14.022h21.908c0-14.884,12.063-26.947,26.947-26.947s26.947,12.063,26.947,26.947h89.825
		c0-14.884,12.063-26.947,26.947-26.947s26.947,12.063,26.947,26.947h21.908c7.743,0,14.022-6.279,14.022-14.022V139.78
		C279.46,132.037,273.181,125.758,265.438,125.758"/>
	<path style="fill:#383838;" d="M267.872,251.513H21.582c-6.404,0-11.596-5.192-11.596-11.587V227.17
		c0-6.396,5.192-11.587,11.596-11.587h246.29c6.405,0,11.587,5.192,11.587,11.587v12.755
		C279.459,246.321,274.276,251.513,267.872,251.513"/>
	<path style="fill:#E85A4B;" d="M135.743,125.758h17.965V62.881h-17.965V125.758z"/>
	<path style="fill:#83BEEB;" d="M513.006,287.442h-53.895c-4.967,0-8.982,4.015-8.982,8.982c0,4.967,4.015,8.982,8.982,8.982h53.895
		V287.442z"/>
</g>
<g>
</g>
<g>
</g>
<g>
</g>
<g>
</g>
<g>
</g>
<g>
</g>
<g>
</g>
<g>
</g>
<g>
</g>
<g>
</g>
<g>
</g>
<g>
</g>
<g>
</g>
<g>
</g>
<g>
</g>
</svg>
