<?xml version="1.0" encoding="iso-8859-1"?>
<!-- Generator: Adobe Illustrator 19.0.0, SVG Export Plug-In . SVG Version: 6.00 Build 0)  -->
<svg version="1.1" id="Layer_1" xmlns="http://www.w3.org/2000/svg" xmlns:xlink="http://www.w3.org/1999/xlink" x="0px" y="0px"
	 viewBox="0 0 512 512" style="enable-background:new 0 0 512 512;" xml:space="preserve">
<g>
	<path style="fill:#666666;" d="M91.118,503.322H21.694c-9.58,0-17.356-7.775-17.356-17.356V312.407
		c0-9.58,7.775-17.356,17.356-17.356h69.424c9.589,0,17.356,7.775,17.356,17.356v173.559
		C108.474,495.547,100.707,503.322,91.118,503.322"/>
	<g>
		<path style="fill:#E86C59;" d="M108.475,416.542h52.068v-34.712h-52.068V416.542z"/>
		<path style="fill:#E86C59;" d="M351.458,416.542h52.068v-34.712h-52.068V416.542z"/>
	</g>
	<path style="fill:#B24837;" d="M444.025,182.237h-84.61c-4.4,0-7.958-3.558-7.958-7.958V17.356C351.457,7.767,343.69,0,334.101,0
		H177.897c-9.589,0-17.356,7.767-17.356,17.356V174.28c0,4.4-3.558,7.958-7.949,7.958H67.974c-25.557,0-46.28,17.833-46.28,43.39
		v34.712h130.898c4.391,0,7.949,3.558,7.949,7.958v191.635l20.402,40.804c3.454,6.899,10.509,11.264,18.224,11.264h113.664
		c7.715,0,14.77-4.365,18.224-11.264l20.402-40.804V268.297c0-4.4,3.558-7.958,7.958-7.958h130.89v-34.712
		C490.304,200.071,469.581,182.237,444.025,182.237"/>
	<path style="fill:#B3B3B3;" d="M438.237,86.78h-34.712V17.356l34.712,17.356V86.78z"/>
	<g>
		<path style="fill:#E86C59;" d="M273.356,321.085h-34.712c-4.79,0-8.678-3.888-8.678-8.678s3.888-8.678,8.678-8.678h34.712
			c4.79,0,8.678,3.888,8.678,8.678S278.146,321.085,273.356,321.085"/>
		<path style="fill:#E86C59;" d="M290.712,355.797h-69.424c-4.79,0-8.678-3.888-8.678-8.678s3.888-8.678,8.678-8.678h69.424
			c4.79,0,8.678,3.888,8.678,8.678S295.502,355.797,290.712,355.797"/>
		<path style="fill:#E86C59;" d="M273.356,459.932h-34.712c-4.79,0-8.678-3.888-8.678-8.678s3.888-8.678,8.678-8.678h34.712
			c4.79,0,8.678,3.888,8.678,8.678S278.146,459.932,273.356,459.932"/>
		<path style="fill:#E86C59;" d="M290.712,425.22h-69.424c-4.79,0-8.678-3.888-8.678-8.678c0-4.79,3.888-8.678,8.678-8.678h69.424
			c4.79,0,8.678,3.888,8.678,8.678C299.39,421.333,295.502,425.22,290.712,425.22"/>
		<path style="fill:#E86C59;" d="M308.068,390.508H203.932c-4.79,0-8.678-3.888-8.678-8.678s3.888-8.678,8.678-8.678h104.136
			c4.79,0,8.678,3.888,8.678,8.678S312.858,390.508,308.068,390.508"/>
	</g>
	<g>
		<path style="fill:#FFCE5D;" d="M221.288,225.627c0,9.589-7.767,17.356-17.356,17.356c-9.589,0-17.356-7.767-17.356-17.356
			c0-9.589,7.767-17.356,17.356-17.356C213.521,208.271,221.288,216.038,221.288,225.627"/>
		<path style="fill:#FFCE5D;" d="M325.424,225.627c0,9.589-7.767,17.356-17.356,17.356c-9.589,0-17.356-7.767-17.356-17.356
			c0-9.589,7.767-17.356,17.356-17.356C317.657,208.271,325.424,216.038,325.424,225.627"/>
	</g>
	<path style="fill:#E86C59;" d="M203.932,164.881h104.136V43.39H203.932V164.881z"/>
	<path style="fill:#666666;" d="M444.024,182.237c0.989,0,1.918,0.226,2.89,0.295V86.78h-52.068v95.458h23.144H444.024z"/>
	<path style="fill:#B3B3B3;" d="M73.763,86.78h34.712V17.356L73.763,34.712V86.78z"/>
	<path style="fill:#666666;" d="M67.976,182.237c-0.989,0-1.918,0.226-2.89,0.295V86.78h52.068v95.458H94.01H67.976z"/>
	<g>
		<path style="fill:#484848;" d="M9.153,305.187c-0.816-0.547-1.718-0.833-2.612-1.076c-1.362,2.473-2.204,5.276-2.204,8.296v10.431
			l47.26,31.501c1.475,0.989,3.15,1.458,4.799,1.458c2.812,0,5.554-1.354,7.229-3.862c2.655-3.992,1.579-9.381-2.404-12.036
			L9.153,305.187z"/>
		<path style="fill:#484848;" d="M103.661,305.187l-52.068,34.712c-3.983,2.655-5.059,8.044-2.404,12.036
			c1.675,2.508,4.417,3.862,7.229,3.862c1.649,0,3.324-0.469,4.799-1.458l47.26-31.501v-10.431c0-3.02-0.842-5.823-2.204-8.296
			C105.379,304.354,104.477,304.64,103.661,305.187"/>
		<path style="fill:#484848;" d="M108.475,364.632c-1.657,0-3.332,0.312-4.816,1.302l-52.068,34.712
			c-3.983,2.655-5.059,8.044-2.404,12.036c1.675,2.508,4.426,3.862,7.229,3.862c1.649,0,3.324-0.469,4.808-1.458l47.252-31.501
			V364.632z"/>
		<path style="fill:#484848;" d="M9.153,365.932c-1.484-0.989-3.159-1.302-4.816-1.302v18.953l47.26,31.501
			c1.475,0.989,3.15,1.458,4.799,1.458c2.812,0,5.554-1.354,7.229-3.862c2.655-3.992,1.579-9.381-2.404-12.036L9.153,365.932z"/>
		<path style="fill:#484848;" d="M108.475,425.373c-1.657,0-3.332,0.312-4.816,1.302l-52.068,34.712
			c-3.983,2.664-5.059,8.053-2.404,12.036c1.675,2.508,4.426,3.862,7.229,3.862c1.649,0,3.324-0.469,4.808-1.458l47.252-31.501
			V425.373z"/>
		<path style="fill:#484848;" d="M9.153,426.678c-1.484-0.998-3.159-1.31-4.816-1.302v18.953l47.26,31.501
			c1.475,0.989,3.15,1.458,4.799,1.458c2.812,0,5.554-1.354,7.229-3.862c2.655-3.992,1.579-9.381-2.404-12.036L9.153,426.678z"/>
	</g>
	<path style="fill:#666666;" d="M490.304,503.322H420.88c-9.58,0-17.356-7.775-17.356-17.356V312.407
		c0-9.58,7.775-17.356,17.356-17.356h69.424c9.589,0,17.356,7.775,17.356,17.356v173.559
		C507.66,495.547,499.893,503.322,490.304,503.322"/>
	<g>
		<path style="fill:#484848;" d="M408.339,305.187c-0.816-0.547-1.718-0.833-2.612-1.076c-1.362,2.473-2.204,5.276-2.204,8.296
			v10.431l47.26,31.501c1.475,0.989,3.15,1.458,4.799,1.458c2.812,0,5.554-1.354,7.229-3.862c2.655-3.992,1.579-9.381-2.404-12.036
			L408.339,305.187z"/>
		<path style="fill:#484848;" d="M502.847,305.187l-52.068,34.712c-3.983,2.655-5.059,8.044-2.404,12.036
			c1.675,2.508,4.417,3.862,7.229,3.862c1.649,0,3.324-0.469,4.799-1.458l47.26-31.501v-10.431c0-3.02-0.842-5.823-2.204-8.296
			C504.566,304.354,503.663,304.64,502.847,305.187"/>
		<path style="fill:#484848;" d="M507.661,364.632c-1.658,0-3.332,0.312-4.816,1.302l-52.068,34.712
			c-3.983,2.655-5.059,8.044-2.404,12.036c1.675,2.508,4.426,3.862,7.229,3.862c1.649,0,3.324-0.469,4.808-1.458l47.252-31.501
			V364.632z"/>
		<path style="fill:#484848;" d="M408.339,365.932c-1.484-0.989-3.159-1.302-4.816-1.302v18.953l47.26,31.501
			c1.475,0.989,3.15,1.458,4.799,1.458c2.812,0,5.554-1.354,7.229-3.862c2.655-3.992,1.579-9.381-2.404-12.036L408.339,365.932z"/>
		<path style="fill:#484848;" d="M507.661,425.373c-1.658,0-3.332,0.312-4.816,1.302l-52.068,34.712
			c-3.983,2.664-5.059,8.053-2.404,12.036c1.675,2.508,4.426,3.862,7.229,3.862c1.649,0,3.324-0.469,4.808-1.458l47.252-31.501
			V425.373z"/>
		<path style="fill:#484848;" d="M408.339,426.678c-1.484-0.998-3.159-1.31-4.816-1.302v18.953l47.26,31.501
			c1.475,0.989,3.15,1.458,4.799,1.458c2.812,0,5.554-1.354,7.229-3.862c2.655-3.992,1.579-9.381-2.404-12.036L408.339,426.678z"/>
	</g>
</g>
<g>
</g>
<g>
</g>
<g>
</g>
<g>
</g>
<g>
</g>
<g>
</g>
<g>
</g>
<g>
</g>
<g>
</g>
<g>
</g>
<g>
</g>
<g>
</g>
<g>
</g>
<g>
</g>
<g>
</g>
</svg>
