<?xml version="1.0" encoding="iso-8859-1"?>
<!-- Generator: Adobe Illustrator 19.0.0, SVG Export Plug-In . SVG Version: 6.00 Build 0)  -->
<svg version="1.1" id="Layer_1" xmlns="http://www.w3.org/2000/svg" xmlns:xlink="http://www.w3.org/1999/xlink" x="0px" y="0px"
	 viewBox="0 0 512 512" style="enable-background:new 0 0 512 512;" xml:space="preserve">
<g>
	<g>
		<path style="fill:#1C83BB;" d="M97.103,194.207h-35.31c-4.882,0-8.828-3.955-8.828-8.828c0-4.873,3.946-8.828,8.828-8.828h35.31
			c4.882,0,8.828,3.955,8.828,8.828C105.931,190.252,101.985,194.207,97.103,194.207"/>
		<path style="fill:#1C83BB;" d="M450.207,194.207h-35.31c-4.882,0-8.828-3.955-8.828-8.828c0-4.873,3.946-8.828,8.828-8.828h35.31
			c4.882,0,8.828,3.955,8.828,8.828C459.034,190.252,455.089,194.207,450.207,194.207"/>
	</g>
	<path style="fill:#419EDE;" d="M97.103,282.483h317.793V88.276H97.103V282.483z"/>
	<path style="fill:#AEDAF7;" d="M141.241,238.345h229.517V132.414H141.241V238.345z"/>
	<path style="fill:#1C83BB;" d="M414.897,282.483H97.103c-34.154,0-61.793,27.639-61.793,61.793v52.966H476.69v-52.966
		C476.69,310.122,449.05,282.483,414.897,282.483"/>
	<path style="fill:#419EDE;" d="M54.44,220.69H33.836c-4.061,0-7.353-3.293-7.353-7.353v-55.914c0-4.061,3.293-7.353,7.353-7.353
		H54.44c4.061,0,7.353,3.293,7.353,7.353v55.914C61.793,217.397,58.5,220.69,54.44,220.69"/>
	<g>
		<path style="fill:#FFCE5D;" d="M79.448,361.931h70.621v-44.138H79.448V361.931z"/>
		<path style="fill:#FFCE5D;" d="M361.931,361.931h70.621v-44.138h-70.621V361.931z"/>
	</g>
	<path style="fill:#666666;" d="M123.586,88.276h52.966v-35.31h-52.966V88.276z"/>
	<path style="fill:#B3B3B3;" d="M167.724,52.966h-35.31V0l35.31,17.655V52.966z"/>
	<path style="fill:#666666;" d="M335.448,88.276h52.966v-35.31h-52.966V88.276z"/>
	<path style="fill:#B3B3B3;" d="M344.276,52.966h35.31V0l-35.31,17.655V52.966z"/>
	<g>
		<path style="fill:#419EDE;" d="M291.31,326.621H220.69c-4.882,0-8.828-3.955-8.828-8.828c0-4.873,3.946-8.828,8.828-8.828h70.621
			c4.882,0,8.828,3.955,8.828,8.828C300.138,322.666,296.192,326.621,291.31,326.621"/>
		<path style="fill:#419EDE;" d="M317.793,361.931H194.207c-4.882,0-8.828-3.955-8.828-8.828c0-4.873,3.946-8.828,8.828-8.828
			h123.586c4.882,0,8.828,3.955,8.828,8.828C326.621,357.976,322.675,361.931,317.793,361.931"/>
		<path style="fill:#419EDE;" d="M457.56,220.69h20.604c4.061,0,7.353-3.293,7.353-7.353v-55.914c0-4.061-3.293-7.353-7.353-7.353
			H457.56c-4.061,0-7.353,3.293-7.353,7.353v55.914C450.207,217.397,453.5,220.69,457.56,220.69"/>
	</g>
	<path style="fill:#FFCE5D;" d="M0,397.241h512c-23.543,23.543-23.543,91.215,0,114.759H0C23.543,488.457,23.543,420.785,0,397.241"
		/>
	<path style="fill:#C49E47;" d="M16.915,467.862h478.173c-0.6-5.817-0.794-11.741-0.6-17.655H17.516
		C17.71,456.121,17.516,462.045,16.915,467.862"/>
	<g>
		<path style="fill:#1C83BB;" d="M244.586,200.448c3.452-3.452,3.452-9.031,0-12.482c-3.452-3.452-9.031-3.452-12.482,0
			l-44.138,44.138c-1.721,1.721-2.586,3.981-2.586,6.241h21.31L244.586,200.448z"/>
		<path style="fill:#1C83BB;" d="M324.034,200.448c3.452-3.452,3.452-9.031,0-12.482s-9.031-3.452-12.482,0l-44.138,44.138
			c-1.721,1.721-2.586,3.981-2.586,6.241h21.31L324.034,200.448z"/>
	</g>
</g>
<g>
</g>
<g>
</g>
<g>
</g>
<g>
</g>
<g>
</g>
<g>
</g>
<g>
</g>
<g>
</g>
<g>
</g>
<g>
</g>
<g>
</g>
<g>
</g>
<g>
</g>
<g>
</g>
<g>
</g>
</svg>
