<?xml version="1.0" encoding="iso-8859-1"?>
<!-- Generator: Adobe Illustrator 19.0.0, SVG Export Plug-In . SVG Version: 6.00 Build 0)  -->
<svg version="1.1" id="Layer_1" xmlns="http://www.w3.org/2000/svg" xmlns:xlink="http://www.w3.org/1999/xlink" x="0px" y="0px"
	 viewBox="0 0 512 512" style="enable-background:new 0 0 512 512;" xml:space="preserve">
<g>
	<path style="fill:#439FDE;" d="M506.605,188.273l-76.712-84.383c-3.928-4.317-9.498-6.788-15.342-6.788h-81.311
		c-8.527,0-15.448,6.921-15.448,15.448v196.414H26.482v75.767c0,6.912,5.597,12.509,12.509,12.509h13.974
		c0-29.246,23.711-52.966,52.966-52.966s52.966,23.72,52.966,52.966h158.897h44.138c0-29.246,23.711-52.966,52.966-52.966
		c29.255,0,52.966,23.72,52.966,52.966h31.629c6.912,0,12.509-5.597,12.509-12.509V202.229
		C511.999,197.065,510.075,192.087,506.605,188.273"/>
	<path style="fill:#FFCC5C;" d="M256,308.966H26.483L0,194.207l35.31-88.276h173.833c6.974,0,13.241-4.246,15.828-10.717
		l13.374-33.421h52.965L256,308.966z"/>
	<path style="fill:#E6E6E6;" d="M368.275,238.345h143.722v-36.122c0-5.155-1.924-10.134-5.394-13.948l-50.776-55.861h-87.552
		c-3.505,0-6.347,2.842-6.347,6.347v93.237C361.928,235.502,364.771,238.345,368.275,238.345"/>
	<g>
		<path style="fill:#5B5B5B;" d="M467.862,397.241c0,29.255-23.711,52.966-52.966,52.966s-52.966-23.711-52.966-52.966
			c0-29.255,23.711-52.966,52.966-52.966S467.862,367.987,467.862,397.241"/>
		<path style="fill:#5B5B5B;" d="M158.897,397.241c0,29.255-23.711,52.966-52.966,52.966s-52.966-23.711-52.966-52.966
			c0-29.255,23.711-52.966,52.966-52.966S158.897,367.987,158.897,397.241"/>
	</g>
	<path style="fill:#94CAEF;" d="M459.034,308.966H512V291.31h-52.966V308.966z"/>
	<g>
		<path style="fill:#B2B2B2;" d="M123.586,397.241c0,9.754-7.901,17.655-17.655,17.655s-17.655-7.901-17.655-17.655
			c0-9.754,7.901-17.655,17.655-17.655S123.586,387.487,123.586,397.241"/>
		<path style="fill:#B2B2B2;" d="M432.552,397.241c0,9.754-7.901,17.655-17.655,17.655s-17.655-7.901-17.655-17.655
			c0-9.754,7.901-17.655,17.655-17.655S432.552,387.487,432.552,397.241"/>
	</g>
	<path style="fill:#FFCC5C;" d="M353.103,79.448h-70.621c-4.882,0-8.828-3.946-8.828-8.828s3.946-8.828,8.828-8.828h70.621
		c4.882,0,8.828,3.946,8.828,8.828S357.985,79.448,353.103,79.448"/>
	<g>
		<path style="fill:#DBA436;" d="M3.531,185.379h102.4c4.882,0,8.828-3.946,8.828-8.828c0-4.882-3.946-8.828-8.828-8.828H10.593
			L3.531,185.379z"/>
		<path style="fill:#DBA436;" d="M8.149,229.517H150.07c4.882,0,8.828-3.946,8.828-8.828s-3.946-8.828-8.828-8.828H4.07
			L8.149,229.517z"/>
	</g>
</g>
<g>
</g>
<g>
</g>
<g>
</g>
<g>
</g>
<g>
</g>
<g>
</g>
<g>
</g>
<g>
</g>
<g>
</g>
<g>
</g>
<g>
</g>
<g>
</g>
<g>
</g>
<g>
</g>
<g>
</g>
</svg>
