<?xml version="1.0" encoding="iso-8859-1"?>
<!-- Generator: Adobe Illustrator 19.0.0, SVG Export Plug-In . SVG Version: 6.00 Build 0)  -->
<svg version="1.1" id="Layer_1" xmlns="http://www.w3.org/2000/svg" xmlns:xlink="http://www.w3.org/1999/xlink" x="0px" y="0px"
	 viewBox="0 0 512.005 512.005" style="enable-background:new 0 0 512.005 512.005;" xml:space="preserve">
<g>
	<g>
		<path style="fill:#E6E6E6;" d="M167.727,406.072h-44.138c-4.882,0-8.828-3.955-8.828-8.828c0-4.873,3.946-8.828,8.828-8.828h35.31
			v-52.966c0-4.873,3.946-8.828,8.828-8.828h35.31c4.882,0,8.828,3.955,8.828,8.828s-3.946,8.828-8.828,8.828h-26.483v52.966
			C176.554,402.117,172.608,406.072,167.727,406.072"/>
		<path style="fill:#E6E6E6;" d="M388.416,406.072h-44.138c-4.882,0-8.828-3.955-8.828-8.828v-52.966h-26.483
			c-4.882,0-8.828-3.955-8.828-8.828s3.946-8.828,8.828-8.828h35.31c4.882,0,8.828,3.955,8.828,8.828v52.966h35.31
			c4.882,0,8.828,3.955,8.828,8.828C397.244,402.117,393.298,406.072,388.416,406.072"/>
	</g>
	<path style="fill:#628D3D;" d="M256.003,132.416c-4.882,0-8.828-3.955-8.828-8.828V97.106c0-4.873,3.946-8.828,8.828-8.828
		s8.828,3.955,8.828,8.828v26.483C264.83,128.462,260.884,132.416,256.003,132.416"/>
	<g>
		<path style="fill:#E6E6E6;" d="M238.339,88.279c-1.624,0-3.257-0.441-4.732-1.377l-97.103-61.793
			c-4.114-2.622-5.332-8.077-2.71-12.191c2.622-4.105,8.068-5.323,12.191-2.71L243.088,72c4.114,2.622,5.332,8.077,2.71,12.191
			C244.112,86.831,241.252,88.279,238.339,88.279"/>
		<path style="fill:#E6E6E6;" d="M141.244,26.485H88.279c-4.882,0-8.828-3.955-8.828-8.828s3.946-8.828,8.828-8.828h52.966
			c4.882,0,8.828,3.955,8.828,8.828S146.126,26.485,141.244,26.485"/>
		<path style="fill:#E6E6E6;" d="M273.667,88.279c-2.922,0-5.773-1.448-7.459-4.087c-2.622-4.114-1.404-9.569,2.71-12.191
			l97.103-61.793c4.131-2.622,9.578-1.395,12.191,2.71c2.622,4.114,1.404,9.569-2.71,12.191l-97.103,61.793
			C276.924,87.837,275.291,88.279,273.667,88.279"/>
		<path style="fill:#E6E6E6;" d="M423.727,26.485h-52.966c-4.882,0-8.828-3.955-8.828-8.828s3.946-8.828,8.828-8.828h52.966
			c4.882,0,8.828,3.955,8.828,8.828S428.608,26.485,423.727,26.485"/>
	</g>
	<path style="fill:#86C250;" d="M256.003,264.83c14.601,0,26.483,11.882,26.483,26.483v118.131l17.655-8.828V265.872l-21.601-10.796
		c-2.993-1.501-4.882-4.555-4.882-7.901v-61.793c0-4.873,3.946-8.828,8.828-8.828h17.655v-21.027l-44.138-22.069l-44.138,22.069
		v21.027h17.655c4.882,0,8.828,3.955,8.828,8.828v61.793c0,3.346-1.889,6.4-4.882,7.901l-21.601,10.796v134.744l17.655,8.828
		V291.313C229.52,276.712,241.402,264.83,256.003,264.83 M273.658,432.554c-1.615,0-3.222-0.441-4.634-1.315
		c-2.604-1.615-4.193-4.449-4.193-7.512V291.313c0-4.864-3.955-8.828-8.828-8.828s-8.828,3.964-8.828,8.828v132.414
		c0,3.063-1.589,5.897-4.193,7.512c-2.604,1.607-5.844,1.748-8.58,0.388l-35.31-17.655c-2.993-1.501-4.882-4.555-4.882-7.901
		V260.416c0-3.346,1.889-6.4,4.882-7.901l21.601-10.796v-47.51h-17.655c-4.882,0-8.828-3.955-8.828-8.828v-35.31
		c0-3.346,1.889-6.4,4.882-7.901l52.966-26.483c2.481-1.236,5.411-1.236,7.892,0l52.966,26.483c2.993,1.501,4.882,4.555,4.882,7.901
		v35.31c0,4.873-3.946,8.828-8.828,8.828h-17.655v47.51l21.601,10.796c2.993,1.501,4.882,4.555,4.882,7.901v145.655
		c0,3.346-1.889,6.4-4.882,7.901l-35.31,17.655C276.359,432.245,275.008,432.554,273.658,432.554"/>
	<g>
		<path style="fill:#666666;" d="M256.003,512.003L256.003,512.003c-9.71,0-17.655-7.945-17.655-17.655V291.313
			c0-9.71,7.945-17.655,17.655-17.655c9.71,0,17.655,7.945,17.655,17.655v203.034C273.658,504.058,265.713,512.003,256.003,512.003"
			/>
		<path style="fill:#666666;" d="M112.296,414.899H73.092c-6.241,0-11.299-5.058-11.299-11.29v-12.729
			c0-6.232,5.058-11.29,11.299-11.29h39.203c6.241,0,11.29,5.058,11.29,11.29v12.729
			C123.586,409.841,118.537,414.899,112.296,414.899"/>
		<path style="fill:#666666;" d="M76.985,35.313H11.299C5.058,35.313,0,30.255,0,24.023V11.293c0-6.232,5.058-11.29,11.299-11.29
			h65.686c6.241,0,11.29,5.058,11.29,11.29v12.729C88.276,30.255,83.226,35.313,76.985,35.313"/>
	</g>
	<g>
		<path style="fill:#628D3D;" d="M167.727,176.554v111.386l70.621-35.31v-76.076H167.727z"/>
		<path style="fill:#628D3D;" d="M273.658,176.554v76.076l70.621,35.31V176.554H273.658z"/>
	</g>
	<path style="fill:#666666;" d="M399.71,414.899h39.203c6.241,0,11.299-5.058,11.299-11.29v-12.729
		c0-6.232-5.058-11.29-11.299-11.29H399.71c-6.241,0-11.29,2.586-11.29,8.828v15.192
		C388.419,409.841,393.468,414.899,399.71,414.899"/>
	<path style="fill:#628D3D;" d="M238.347,97.106h35.31V44.141h-35.31V97.106z"/>
	<path style="fill:#666666;" d="M435.02,35.313h65.686c6.241,0,11.299-5.058,11.299-11.29V11.293c0-6.232-5.058-11.29-11.299-11.29
		H435.02c-6.241,0-11.29,5.058-11.29,11.29v12.729C423.729,30.255,428.779,35.313,435.02,35.313"/>
</g>
<g>
</g>
<g>
</g>
<g>
</g>
<g>
</g>
<g>
</g>
<g>
</g>
<g>
</g>
<g>
</g>
<g>
</g>
<g>
</g>
<g>
</g>
<g>
</g>
<g>
</g>
<g>
</g>
<g>
</g>
</svg>
