<?xml version="1.0" encoding="iso-8859-1"?>
<!-- Generator: Adobe Illustrator 19.0.0, SVG Export Plug-In . SVG Version: 6.00 Build 0)  -->
<svg version="1.1" id="Layer_1" xmlns="http://www.w3.org/2000/svg" xmlns:xlink="http://www.w3.org/1999/xlink" x="0px" y="0px"
	 viewBox="0 0 512.002 512.002" style="enable-background:new 0 0 512.002 512.002;" xml:space="preserve">
<g>
	<g>
		<path style="fill:#E6E6E6;" d="M291.312,114.761c-2.26,0-4.52-0.865-6.241-2.586l-97.103-97.103
			c-3.452-3.452-3.452-9.031,0-12.482c3.452-3.452,9.031-3.452,12.482,0l97.103,97.103c3.452,3.452,3.452,9.031,0,12.482
			C295.832,113.896,293.572,114.761,291.312,114.761"/>
		<path style="fill:#E6E6E6;" d="M211.864,114.761c-2.26,0-4.52-0.865-6.241-2.586l-97.103-97.103
			c-3.452-3.452-3.452-9.031,0-12.482s9.031-3.452,12.482,0l97.103,97.103c3.452,3.452,3.452,9.031,0,12.482
			C216.383,113.896,214.123,114.761,211.864,114.761"/>
	</g>
	<path style="fill:#EE705C;" d="M506.607,250.068l-76.712-84.383c-3.928-4.317-9.498-6.788-15.342-6.788H18.027
		c-9.958,0-18.026,8.068-18.026,18.026v264.095c0,9.949,8.068,18.017,18.026,18.017h26.112c0-29.246,23.711-52.966,52.966-52.966
		s52.966,23.72,52.966,52.966h211.862c0-29.246,23.711-52.966,52.966-52.966s52.966,23.72,52.966,52.966h26.112
		c9.958,0,18.026-8.068,18.026-18.017V264.025C512.001,258.861,510.076,253.882,506.607,250.068"/>
	<g>
		<path style="fill:#E6E6E6;" d="M394.76,300.14h117.239v-36.122c0-5.155-1.924-10.134-5.394-13.948l-50.776-55.861H394.76
			c-3.505,0-6.347,2.842-6.347,6.347v93.237C388.413,297.298,391.255,300.14,394.76,300.14"/>
		<path style="fill:#E6E6E6;" d="M0.002,194.209V300.14h68.961c5.791,0,10.487-4.696,10.487-10.487v-84.957
			c0-5.791-4.696-10.487-10.487-10.487H0.002z"/>
		<path style="fill:#E6E6E6;" d="M256.002,206.622v81.108c0,6.85,5.561,12.412,12.412,12.412h63.453
			c6.85,0,12.412-5.561,12.412-12.412v-81.108c0-6.859-5.561-12.412-12.412-12.412h-63.453
			C261.563,194.21,256.002,199.763,256.002,206.622"/>
		<path style="fill:#E6E6E6;" d="M123.588,206.622v81.108c0,6.85,5.561,12.412,12.412,12.412h63.453
			c6.85,0,12.412-5.561,12.412-12.412v-81.108c0-6.859-5.561-12.412-12.412-12.412h-63.453
			C129.149,194.21,123.588,199.763,123.588,206.622"/>
	</g>
	<path style="fill:#5B5B5B;" d="M467.864,459.037c0,29.255-23.711,52.966-52.966,52.966s-52.966-23.711-52.966-52.966
		s23.711-52.966,52.966-52.966S467.864,429.782,467.864,459.037"/>
	<path style="fill:#B2B2B2;" d="M432.553,459.037c0,9.754-7.901,17.655-17.655,17.655s-17.655-7.901-17.655-17.655
		s7.901-17.655,17.655-17.655S432.553,449.282,432.553,459.037"/>
	<path style="fill:#5B5B5B;" d="M150.071,459.037c0,29.255-23.711,52.966-52.966,52.966s-52.966-23.711-52.966-52.966
		s23.711-52.966,52.966-52.966S150.071,429.782,150.071,459.037"/>
	<path style="fill:#B2B2B2;" d="M114.76,459.037c0,9.754-7.901,17.655-17.655,17.655s-17.655-7.901-17.655-17.655
		s7.901-17.655,17.655-17.655S114.76,449.282,114.76,459.037"/>
	<path style="fill:#C64533;" d="M326.622,158.899H150.071l17.655-52.966h141.241L326.622,158.899z"/>
	<g>
		<path style="fill:#F4A29B;" d="M512.002,353.106h-52.966c-4.882,0-8.828,3.946-8.828,8.828c0,4.882,3.946,8.828,8.828,8.828
			h52.966V353.106z"/>
		<path style="fill:#F4A29B;" d="M282.484,326.623H0.002v17.655h282.483c4.882,0,8.828-3.946,8.828-8.828
			C291.312,330.569,287.366,326.623,282.484,326.623"/>
		<path style="fill:#F4A29B;" d="M317.795,361.933H0.002v17.655h317.793c4.882,0,8.828-3.946,8.828-8.828
			C326.622,365.879,322.676,361.933,317.795,361.933"/>
	</g>
</g>
<g>
</g>
<g>
</g>
<g>
</g>
<g>
</g>
<g>
</g>
<g>
</g>
<g>
</g>
<g>
</g>
<g>
</g>
<g>
</g>
<g>
</g>
<g>
</g>
<g>
</g>
<g>
</g>
<g>
</g>
</svg>
