<?xml version="1.0" encoding="iso-8859-1"?>
<!-- Generator: Adobe Illustrator 19.0.0, SVG Export Plug-In . SVG Version: 6.00 Build 0)  -->
<svg version="1.1" id="Layer_1" xmlns="http://www.w3.org/2000/svg" xmlns:xlink="http://www.w3.org/1999/xlink" x="0px" y="0px"
	 viewBox="0 0 512 512" style="enable-background:new 0 0 512 512;" xml:space="preserve">
<g>
	<path style="fill:#A2A2A2;" d="M459.034,210.53c-4.873,0-8.828-3.946-8.828-8.828V78.117c0-4.882,3.955-8.828,8.828-8.828
		s8.828,3.946,8.828,8.828v123.586C467.862,206.585,463.907,210.53,459.034,210.53"/>
	<path style="fill:#535353;" d="M494.336,281.16c-1.845,0-3.699-0.574-5.297-1.766c-3.893-2.931-4.679-8.466-1.748-12.367
		c4.617-6.144,7.053-13.471,7.053-21.186c0-19.474-15.837-35.31-35.31-35.31s-35.31,15.837-35.31,35.31
		c0,7.706,2.436,15.025,7.044,21.169c2.922,3.902,2.136,9.437-1.766,12.359c-3.911,2.931-9.437,2.145-12.359-1.766
		c-6.921-9.225-10.575-20.206-10.575-31.762c0-29.21,23.755-52.966,52.966-52.966c29.21,0,52.966,23.755,52.966,52.966
		c0,11.573-3.663,22.563-10.602,31.797C499.668,279.942,497.02,281.16,494.336,281.16"/>
	<path style="fill:#95683D;" d="M467.862,289.979l-35.31,35.31l8.828,35.31l44.138,8.828L512,342.944l-8.828-35.31L467.862,289.979z
		"/>
	<g>
		<path style="fill:#FEC24C;" d="M420.752,45.741L237.747,237.97l11.635,52.012h15.13L462.091,83.893
			c11.105-11.979,9.702-30.879-3.054-41.084l0,0C447.491,33.567,430.754,34.847,420.752,45.741"/>
		<path style="fill:#FEC24C;" d="M216.496,142.969c-2.71-12.103-13.453-20.718-25.856-20.718H70.637
			c-14.636,0-26.5,11.864-26.5,26.5v141.224h140.57h64.671L216.496,142.969z"/>
	</g>
	<g>
		<path style="fill:#BC8D2F;" d="M368.637,289.979H44.135v114.759h264.828h8.969h19.368c4.846,0,9.278-2.737,11.449-7.08
			l31.338-89.159C384.342,299.989,378.153,289.979,368.637,289.979"/>
		<path style="fill:#BC8D2F;" d="M173.677,237.013h-76.57c-4.882,0-8.828-3.955-8.828-8.828v-44.138
			c0-4.873,3.946-8.828,8.828-8.828h63.956c3.946,0,7.406,2.613,8.492,6.4l12.615,44.138
			C183.775,231.399,179.538,237.013,173.677,237.013"/>
	</g>
	<path style="fill:#E15649;" d="M132.414,69.289c-14.566,0-26.483,11.917-26.483,26.483v26.483h52.966V95.772
		C158.897,81.206,146.979,69.289,132.414,69.289"/>
	<path style="fill:#535353;" d="M370.759,475.358H35.31c-19.421,0-35.31-15.89-35.31-35.31l0,0c0-19.421,15.89-35.31,35.31-35.31
		h335.448c19.421,0,35.31,15.89,35.31,35.31l0,0C406.069,459.468,390.179,475.358,370.759,475.358"/>
	<g>
		<path style="fill:#A2A2A2;" d="M123.586,440.048c0,4.873-3.955,8.828-8.828,8.828s-8.828-3.955-8.828-8.828
			c0-4.873,3.955-8.828,8.828-8.828S123.586,435.175,123.586,440.048"/>
		<path style="fill:#A2A2A2;" d="M167.724,440.048c0,4.873-3.955,8.828-8.828,8.828c-4.873,0-8.828-3.955-8.828-8.828
			c0-4.873,3.955-8.828,8.828-8.828C163.769,431.22,167.724,435.175,167.724,440.048"/>
		<path style="fill:#A2A2A2;" d="M211.862,440.048c0,4.873-3.955,8.828-8.828,8.828c-4.873,0-8.828-3.955-8.828-8.828
			c0-4.873,3.955-8.828,8.828-8.828C207.907,431.22,211.862,435.175,211.862,440.048"/>
		<path style="fill:#A2A2A2;" d="M256,440.048c0,4.873-3.955,8.828-8.828,8.828c-4.873,0-8.828-3.955-8.828-8.828
			c0-4.873,3.955-8.828,8.828-8.828C252.045,431.22,256,435.175,256,440.048"/>
		<path style="fill:#A2A2A2;" d="M300.138,440.048c0,4.873-3.955,8.828-8.828,8.828c-4.873,0-8.828-3.955-8.828-8.828
			c0-4.873,3.955-8.828,8.828-8.828C296.183,431.22,300.138,435.175,300.138,440.048"/>
		<path style="fill:#A2A2A2;" d="M70.621,440.048c0,19.5-15.81,35.31-35.31,35.31S0,459.548,0,440.048
			c0-19.5,15.81-35.31,35.31-35.31S70.621,420.548,70.621,440.048"/>
		<path style="fill:#A2A2A2;" d="M406.069,440.048c0,19.5-15.81,35.31-35.31,35.31c-19.5,0-35.31-15.81-35.31-35.31
			c0-19.5,15.81-35.31,35.31-35.31C390.259,404.737,406.069,420.548,406.069,440.048"/>
	</g>
	<g>
		<path style="fill:#FEC24C;" d="M194.207,316.462H44.138v17.655h150.069c4.873,0,8.828-3.946,8.828-8.828
			C203.034,320.407,199.08,316.462,194.207,316.462"/>
		<path style="fill:#FEC24C;" d="M247.172,351.772H44.138v17.655h203.034c4.873,0,8.828-3.946,8.828-8.828
			C256,355.718,252.045,351.772,247.172,351.772"/>
	</g>
</g>
<g>
</g>
<g>
</g>
<g>
</g>
<g>
</g>
<g>
</g>
<g>
</g>
<g>
</g>
<g>
</g>
<g>
</g>
<g>
</g>
<g>
</g>
<g>
</g>
<g>
</g>
<g>
</g>
<g>
</g>
</svg>
