<?xml version="1.0" encoding="iso-8859-1"?>
<!-- Generator: Adobe Illustrator 19.0.0, SVG Export Plug-In . SVG Version: 6.00 Build 0)  -->
<svg version="1.1" id="Layer_1" xmlns="http://www.w3.org/2000/svg" xmlns:xlink="http://www.w3.org/1999/xlink" x="0px" y="0px"
	 viewBox="0 0 511.997 511.997" style="enable-background:new 0 0 511.997 511.997;" xml:space="preserve">
<g>
	<g>
		<path style="fill:#B2B2B2;" d="M326.609,211.857c-1.774,0-3.566-0.538-5.12-1.651l-61.793-44.138
			c-3.972-2.825-4.89-8.342-2.057-12.306c2.825-3.972,8.351-4.899,12.314-2.048l61.793,44.138c3.972,2.825,4.89,8.342,2.057,12.306
			C332.082,210.569,329.363,211.857,326.609,211.857"/>
		<path style="fill:#B2B2B2;" d="M247.161,194.202c-1.677,0-3.381-0.486-4.89-1.483c-4.052-2.71-5.146-8.183-2.445-12.244
			l35.31-52.966c2.701-4.052,8.183-5.155,12.244-2.445c4.052,2.71,5.146,8.183,2.445,12.244l-35.31,52.966
			C252.811,192.825,250.012,194.202,247.161,194.202"/>
		<path style="fill:#B2B2B2;" d="M97.101,194.202c6.991,0.547,14.76,0,22.069,0c14.786,0,28.999,2.419,42.337,6.753l-76.8-134.771
			c-7.283-12.615-23.561-16.975-36.175-9.693s-16.975,23.561-9.693,36.175L97.101,194.202z"/>
	</g>
	<path style="fill:#EE705C;" d="M194.204,388.409h185.379v-17.655H194.204V388.409z"/>
	<path style="fill:#419EDE;" d="M326.618,211.857c-4.873,0-8.828-3.946-8.828-8.828v-79.448c0-4.882,3.955-8.828,8.828-8.828
		s8.828,3.946,8.828,8.828v79.448C335.446,207.912,331.491,211.857,326.618,211.857"/>
	<g>
		<path style="fill:#5B5B5B;" d="M123.127,237.321L123.127,237.321c1.289,8.36,12.544,10.143,16.358,2.587
			c4.476-8.872,17.929-4.493,16.34,5.314c-1.351,8.351,8.792,13.515,14.751,7.521c7-7.062,18.45,1.262,13.903,10.099
			c-3.866,7.521,4.193,15.572,11.705,11.705c8.845-4.546,17.161,6.903,10.108,13.903c-6.003,5.959-0.83,16.11,7.512,14.751
			c9.807-1.589,14.186,11.864,5.314,16.349c-7.548,3.805-5.773,15.06,2.586,16.349c9.825,1.518,9.825,15.669,0,17.187
			c-8.36,1.289-10.134,12.544-2.586,16.349c8.872,4.484,4.493,17.938-5.314,16.349c-8.342-1.359-13.515,8.792-7.512,14.751
			c7.053,7-1.262,18.45-10.108,13.903c-7.512-3.866-15.572,4.184-11.705,11.705c4.546,8.836-6.903,17.152-13.903,10.099
			c-5.959-5.994-16.102-0.83-14.751,7.521l0,0c1.589,9.807-11.864,14.186-16.34,5.314v-0.009
			c-3.814-7.548-15.069-5.764-16.358,2.595c-1.518,9.825-15.669,9.825-17.187,0c-1.289-8.36-12.544-10.143-16.349-2.595v0.009
			c-4.484,8.872-17.938,4.493-16.349-5.314l0,0c1.359-8.351-8.792-13.515-14.751-7.521l0,0c-7,7.053-18.45-1.262-13.903-10.099l0,0
			c3.866-7.521-4.184-15.572-11.705-11.705l0,0c-8.836,4.546-17.152-6.903-10.099-13.903l0,0c6.003-5.959,0.83-16.11-7.521-14.751
			l0,0c-9.807,1.589-14.177-11.864-5.305-16.349l0,0c7.548-3.805,5.764-15.06-2.595-16.349l0,0c-9.816-1.518-9.816-15.669,0-17.187
			l0,0c8.36-1.289,10.143-12.544,2.595-16.349l0,0c-8.872-4.484-4.502-17.938,5.305-16.349l0,0
			c8.351,1.359,13.524-8.792,7.521-14.751l0,0c-7.053-7,1.262-18.45,10.099-13.903l0,0c7.521,3.866,15.572-4.184,11.705-11.705l0,0
			c-4.546-8.836,6.903-17.161,13.903-10.099l0,0c5.959,5.994,16.11,0.83,14.751-7.521l0,0c-1.589-9.807,11.864-14.186,16.349-5.314
			c3.805,7.556,15.06,5.773,16.349-2.587l0,0C107.458,227.496,121.609,227.496,123.127,237.321"/>
		<path style="fill:#5B5B5B;" d="M441.237,306.983L441.237,306.983c1.598,7.203,11.061,9.313,15.695,3.505
			c5.879-7.371,17.885-1.713,15.66,7.371l0,0c-1.757,7.168,5.835,13.082,12.588,9.816l0,0c8.563-4.14,16.87,6.038,10.831,13.286
			c-4.758,5.711-0.547,14.265,6.983,14.186l0,0c9.56-0.097,12.526,12.597,3.866,16.561c-6.824,3.134-6.824,12.623,0,15.748
			c8.66,3.964,5.694,16.666-3.866,16.561l0,0c-7.53-0.071-11.741,8.475-6.983,14.186c6.038,7.247-2.269,17.434-10.831,13.286l0,0
			c-6.753-3.266-14.345,2.648-12.588,9.816l0,0c2.225,9.092-9.781,14.742-15.66,7.371c-4.634-5.809-14.098-3.699-15.695,3.505
			c-2.03,9.137-15.351,9.137-17.373,0c-1.607-7.203-11.061-9.313-15.704-3.505c-5.879,7.371-17.876,1.721-15.651-7.371l0,0
			c1.757-7.168-5.835-13.082-12.588-9.816l0,0c-8.572,4.149-16.87-6.038-10.831-13.286c4.758-5.711,0.547-14.257-6.991-14.186l0,0
			c-9.551,0.106-12.518-12.597-3.866-16.561c6.824-3.125,6.824-12.615,0-15.748c-8.651-3.964-5.685-16.658,3.866-16.561l0,0
			c7.539,0.079,11.75-8.474,6.991-14.186c-6.038-7.247,2.26-17.426,10.831-13.286l0,0c6.753,3.266,14.345-2.648,12.588-9.816l0,0
			c-2.225-9.084,9.772-14.742,15.651-7.371c4.643,5.809,14.098,3.699,15.704-3.505C425.886,297.855,439.207,297.855,441.237,306.983
			"/>
	</g>
	<g>
		<path style="fill:#B2B2B2;" d="M176.549,344.271c0,34.127-27.666,61.793-61.793,61.793s-61.793-27.666-61.793-61.793
			s27.666-61.793,61.793-61.793S176.549,310.144,176.549,344.271"/>
		<path style="fill:#B2B2B2;" d="M467.859,379.582c0,19.5-15.81,35.31-35.31,35.31s-35.31-15.81-35.31-35.31
			c0-19.5,15.81-35.31,35.31-35.31S467.859,360.081,467.859,379.582"/>
	</g>
	<g>
		<path style="fill:#EE705C;" d="M264.825,388.409c-4.873,0-8.828-3.946-8.828-8.828v-35.31
			c0-77.877-63.364-141.241-141.241-141.241c-33.289,0-65.615,11.802-91.012,33.236c-3.743,3.134-9.304,2.657-12.438-1.059
			c-3.151-3.725-2.675-9.295,1.05-12.447c28.584-24.108,64.953-37.385,102.4-37.385c87.614,0,158.897,71.283,158.897,158.897v35.31
			C273.653,384.463,269.698,388.409,264.825,388.409"/>
		<path style="fill:#EE705C;" d="M370.753,328.49c2.436-1.801,5.756-2.463,9.163-0.812c6.762,3.266,14.345-2.657,12.588-9.816
			c-2.225-9.092,9.781-14.742,15.66-7.38c4.634,5.817,14.098,3.699,15.695-3.496c2.03-9.137,15.351-9.137,17.373,0
			c1.607,7.194,11.07,9.313,15.704,3.496c5.879-7.362,17.876-1.713,15.651,7.38c-1.757,7.159,5.835,13.082,12.588,9.816
			c3.407-1.651,6.727-0.989,9.163,0.812v-44.906c0-49.364-40.015-89.379-89.379-89.379h-87.172v79.448h24.276
			c15.846,0,28.69,12.844,28.69,28.69V328.49z"/>
	</g>
	<g>
		<path style="fill:#5B5B5B;" d="M441.377,379.582c0,4.873-3.955,8.828-8.828,8.828s-8.828-3.955-8.828-8.828
			s3.955-8.828,8.828-8.828S441.377,374.709,441.377,379.582"/>
		<path style="fill:#5B5B5B;" d="M132.411,344.271c0,9.754-7.901,17.655-17.655,17.655s-17.655-7.901-17.655-17.655
			s7.901-17.655,17.655-17.655S132.411,334.517,132.411,344.271"/>
	</g>
	<path style="fill:#FFCE5D;" d="M492.335,264.823c-1.315-6.153-3.293-12.041-5.8-17.655h-45.162c-4.873,0-8.828,3.946-8.828,8.828
		c0,4.882,3.955,8.828,8.828,8.828H492.335z"/>
</g>
<g>
</g>
<g>
</g>
<g>
</g>
<g>
</g>
<g>
</g>
<g>
</g>
<g>
</g>
<g>
</g>
<g>
</g>
<g>
</g>
<g>
</g>
<g>
</g>
<g>
</g>
<g>
</g>
<g>
</g>
</svg>
