<?xml version="1.0" encoding="iso-8859-1"?>
<!-- Generator: Adobe Illustrator 19.0.0, SVG Export Plug-In . SVG Version: 6.00 Build 0)  -->
<svg version="1.1" id="Layer_1" xmlns="http://www.w3.org/2000/svg" xmlns:xlink="http://www.w3.org/1999/xlink" x="0px" y="0px"
	 viewBox="0 0 512.003 512.003" style="enable-background:new 0 0 512.003 512.003;" xml:space="preserve">
<g>
	<g>
		<path style="fill:#494949;" d="M465.455,446.838c0,30.85-25.004,55.855-55.855,55.855s-55.855-25.004-55.855-55.855
			s25.004-55.855,55.855-55.855S465.455,415.987,465.455,446.838"/>
		<path style="fill:#494949;" d="M139.637,446.838c0,30.85-25.004,55.855-55.855,55.855s-55.855-25.004-55.855-55.855
			s25.004-55.855,55.855-55.855S139.637,415.987,139.637,446.838"/>
	</g>
	<path style="fill:#378CD5;" d="M506.312,282.325l-80.896-88.986c-4.143-4.552-10.017-7.159-16.179-7.159h-85.746
		c-8.993,0-16.291,7.298-16.291,16.291v151.273H0v79.9c0,7.289,5.902,13.191,13.191,13.191h14.736
		c0-30.841,25.004-55.855,55.855-55.855s55.855,25.014,55.855,55.855H307.2h46.545c0-30.841,25.004-55.855,55.855-55.855
		s55.855,25.014,55.855,55.855h33.354c7.289,0,13.191-5.902,13.191-13.191V297.042C512,291.597,509.971,286.356,506.312,282.325"/>
	<g>
		<path style="fill:#A2A2A2;" d="M102.401,446.838c0,10.287-8.332,18.618-18.618,18.618s-18.618-8.332-18.618-18.618
			s8.332-18.618,18.618-18.618S102.401,436.551,102.401,446.838"/>
		<path style="fill:#A2A2A2;" d="M428.219,446.838c0,10.287-8.332,18.618-18.618,18.618s-18.618-8.332-18.618-18.618
			s8.332-18.618,18.618-18.618S428.219,436.551,428.219,446.838"/>
	</g>
	<path style="fill:#E0E0E0;" d="M425.419,193.344c-4.143-4.561-10.026-7.159-16.188-7.159h-48.789c-3.696,0-6.693,2.998-6.693,6.693
		v98.323c0,3.696,2.998,6.693,6.693,6.693h151.561v-0.856c0-5.437-2.029-10.687-5.688-14.708L425.419,193.344z"/>
	<path style="fill:#535353;" d="M204.795,353.747H55.85l35.803-85.932c6.507-15.611,21.755-25.777,38.67-25.777
		s32.163,10.166,38.67,25.777L204.795,353.747z"/>
	<path style="fill:#A2A2A2;" d="M139.632,288.583c0,5.139-4.17,9.309-9.309,9.309c-5.139,0-9.309-4.171-9.309-9.309
		s4.17-9.309,9.309-9.309C135.461,279.274,139.632,283.445,139.632,288.583"/>
	<path style="fill:#535353;" d="M289.209,93.092c0,20.564-16.673,37.236-37.236,37.236c-20.564,0-37.236-16.673-37.236-37.236
		s16.673-37.236,37.236-37.236C272.537,55.856,289.209,72.529,289.209,93.092"/>
	<g>
		<path style="fill:#A2A2A2;" d="M275.863,64.749c8.099,6.833,13.349,16.924,13.349,28.346c0,2.541,0.484,6.898,0,9.29l93.091-9.29
			V37.241L275.863,64.749z"/>
		<path style="fill:#A2A2A2;" d="M130.323,242.038c13.712,0,26.242,6.758,33.997,17.603L256.256,129.9
			c-1.424,0.158-2.821,0.428-4.282,0.428c-19.409,0-35.17-14.913-36.901-33.866l-112.677,155.89l0.065,0.307
			C109.982,245.966,119.831,242.038,130.323,242.038"/>
	</g>
	<path style="fill:#535353;" d="M428.21,121.02c-30.804,0-55.855-25.051-55.855-55.855S397.406,9.31,428.21,9.31
		c12.204,0,23.794,3.863,33.531,11.171c4.105,3.091,4.934,8.927,1.852,13.042c-3.081,4.115-8.937,4.934-13.042,1.853
		c-6.479-4.878-14.206-7.447-22.342-7.447c-20.536,0-37.236,16.701-37.236,37.236s16.701,37.236,37.236,37.236
		c8.127,0,15.844-2.56,22.314-7.429c4.115-3.072,9.961-2.253,13.042,1.853c3.081,4.115,2.253,9.951-1.853,13.042
		C451.995,117.166,440.405,121.02,428.21,121.02"/>
	<path style="fill:#83BEEB;" d="M456.146,353.747h55.855v-18.618h-55.855V353.747z"/>
</g>
<g>
</g>
<g>
</g>
<g>
</g>
<g>
</g>
<g>
</g>
<g>
</g>
<g>
</g>
<g>
</g>
<g>
</g>
<g>
</g>
<g>
</g>
<g>
</g>
<g>
</g>
<g>
</g>
<g>
</g>
</svg>
