<?xml version="1.0" encoding="iso-8859-1"?>
<!-- Generator: Adobe Illustrator 19.0.0, SVG Export Plug-In . SVG Version: 6.00 Build 0)  -->
<svg version="1.1" id="Layer_1" xmlns="http://www.w3.org/2000/svg" xmlns:xlink="http://www.w3.org/1999/xlink" x="0px" y="0px"
	 viewBox="0 0 512.001 512.001" style="enable-background:new 0 0 512.001 512.001;" xml:space="preserve">
<g>
	<path style="fill:#419EDE;" d="M5.395,170.619l76.712-84.383c3.928-4.317,9.498-6.788,15.342-6.788h396.526
		c9.958,0,18.026,8.068,18.026,18.026v264.095c0,9.949-8.068,18.017-18.026,18.017h-26.112c0-29.246-23.711-52.966-52.966-52.966
		s-52.966,23.72-52.966,52.966H150.07c0-29.246-23.711-52.966-52.966-52.966s-52.966,23.72-52.966,52.966H18.027
		c-9.958,0-18.026-8.068-18.026-18.017V184.576C0.001,179.411,1.925,174.433,5.395,170.619"/>
	<g>
		<path style="fill:#E6E6E6;" d="M117.241,220.691H0.002v-36.122c0-5.155,1.924-10.134,5.394-13.948l50.776-55.861h61.069
			c3.505,0,6.347,2.842,6.347,6.347v93.237C123.588,217.848,120.745,220.691,117.241,220.691"/>
		<path style="fill:#E6E6E6;" d="M512,114.76v105.931h-68.961c-5.791,0-10.487-4.696-10.487-10.487v-84.957
			c0-5.791,4.696-10.487,10.487-10.487H512z"/>
	</g>
	<path style="fill:#2380B4;" d="M256,127.172v252.416h-88.276V127.172c0-6.859,5.561-12.412,12.412-12.412h63.453
		C250.439,114.761,256,120.313,256,127.172"/>
	<path style="fill:#E6E6E6;" d="M388.414,127.172v81.108c0,6.85-5.561,12.412-12.412,12.412h-63.453
		c-6.85,0-12.412-5.561-12.412-12.412v-81.108c0-6.859,5.561-12.412,12.412-12.412h63.453
		C382.852,114.761,388.414,120.313,388.414,127.172"/>
	<path style="fill:#5B5B5B;" d="M44.138,379.588c0,29.255,23.711,52.966,52.966,52.966s52.966-23.711,52.966-52.966
		s-23.711-52.966-52.966-52.966S44.138,350.333,44.138,379.588"/>
	<path style="fill:#B2B2B2;" d="M79.448,379.588c0,9.754,7.901,17.655,17.655,17.655s17.655-7.901,17.655-17.655
		s-7.901-17.655-17.655-17.655S79.448,369.833,79.448,379.588"/>
	<path style="fill:#5B5B5B;" d="M361.931,379.588c0,29.255,23.711,52.966,52.966,52.966s52.966-23.711,52.966-52.966
		s-23.711-52.966-52.966-52.966S361.931,350.333,361.931,379.588"/>
	<path style="fill:#B2B2B2;" d="M397.241,379.588c0,9.754,7.901,17.655,17.655,17.655s17.655-7.901,17.655-17.655
		s-7.901-17.655-17.655-17.655S397.241,369.833,397.241,379.588"/>
	<path style="fill:#419EDE;" d="M220.69,256.001h-17.655c-4.882,0-8.828-3.946-8.828-8.828s3.946-8.828,8.828-8.828h17.655
		c4.882,0,8.828,3.946,8.828,8.828S225.571,256.001,220.69,256.001"/>
	<path style="fill:#2380B4;" d="M52.966,291.312c4.882,0,8.828-3.946,8.828-8.828s-3.946-8.828-8.828-8.828H0v17.655H52.966z"/>
</g>
<g>
</g>
<g>
</g>
<g>
</g>
<g>
</g>
<g>
</g>
<g>
</g>
<g>
</g>
<g>
</g>
<g>
</g>
<g>
</g>
<g>
</g>
<g>
</g>
<g>
</g>
<g>
</g>
<g>
</g>
</svg>
