<?xml version="1.0" encoding="iso-8859-1"?>
<!-- Generator: Adobe Illustrator 19.0.0, SVG Export Plug-In . SVG Version: 6.00 Build 0)  -->
<svg version="1.1" id="Layer_1" xmlns="http://www.w3.org/2000/svg" xmlns:xlink="http://www.w3.org/1999/xlink" x="0px" y="0px"
	 viewBox="0 0 512 512" style="enable-background:new 0 0 512 512;" xml:space="preserve">
<g>
	<path style="fill:#C49E47;" d="M494.345,450.206H17.655C7.901,450.206,0,442.305,0,432.551v-8.828
		c0-9.754,7.901-17.655,17.655-17.655h476.69c9.754,0,17.655,7.901,17.655,17.655v8.828
		C512,442.305,504.099,450.206,494.345,450.206"/>
	<path style="fill:#FFCE5D;" d="M61.793,61.792v44.138h388.414V61.792C367.819-20.596,144.181-20.596,61.793,61.792"/>
	<path style="fill:#C49E47;" d="M61.793,194.206H35.31c-4.882,0-8.828-3.955-8.828-8.828s3.946-8.828,8.828-8.828h26.483
		c4.882,0,8.828,3.955,8.828,8.828S66.675,194.206,61.793,194.206"/>
	<path style="fill:#FFCE5D;" d="M27.957,220.689H7.353c-4.061,0-7.353-3.293-7.353-7.353v-55.914c0-4.061,3.293-7.353,7.353-7.353
		h20.604c4.061,0,7.353,3.293,7.353,7.353v55.914C35.31,217.396,32.018,220.689,27.957,220.689"/>
	<path style="fill:#C49E47;" d="M476.69,194.206h-26.483c-4.882,0-8.828-3.955-8.828-8.828s3.946-8.828,8.828-8.828h26.483
		c4.882,0,8.828,3.955,8.828,8.828S481.571,194.206,476.69,194.206"/>
	<path style="fill:#FFCE5D;" d="M484.043,220.689h20.604c4.061,0,7.353-3.293,7.353-7.353v-55.914c0-4.061-3.293-7.353-7.353-7.353
		h-20.604c-4.061,0-7.353,3.293-7.353,7.353v55.914C476.69,217.396,479.982,220.689,484.043,220.689"/>
	<g>
		<path style="fill:#666666;" d="M105.931,511.999h-35.31c-14.627,0-26.483-11.855-26.483-26.483v-35.31h88.276v35.31
			C132.414,500.143,120.558,511.999,105.931,511.999"/>
		<path style="fill:#666666;" d="M432.552,511.999h-35.31c-14.627,0-26.483-11.855-26.483-26.483v-35.31h88.276v35.31
			C459.034,500.143,447.179,511.999,432.552,511.999"/>
	</g>
	<path style="fill:#C49E47;" d="M300.138,61.792h-88.276c-4.882,0-8.828-3.955-8.828-8.828s3.946-8.828,8.828-8.828h88.276
		c4.882,0,8.828,3.955,8.828,8.828S305.02,61.792,300.138,61.792"/>
	<path style="fill:#AEDAF7;" d="M97.103,291.309h317.793c13.144,0,25.3,4.122,35.31,11.105V105.93H61.793v196.484
		C71.804,295.432,83.959,291.309,97.103,291.309"/>
	<g>
		<path style="fill:#1C83BB;" d="M247.172,291.309h17.655V106.663h-17.655V291.309z"/>
		<path style="fill:#1C83BB;" d="M114.75,300.137c-1.845,0-3.699-0.574-5.288-1.766c-3.902-2.922-4.696-8.457-1.766-12.359
			l79.448-105.931c2.922-3.893,8.457-4.696,12.359-1.766c3.902,2.922,4.696,8.457,1.766,12.359l-79.448,105.931
			C120.082,298.919,117.442,300.137,114.75,300.137"/>
		<path style="fill:#1C83BB;" d="M150.069,247.171c-4.882,0-8.828-3.955-8.828-8.828v-35.31c0-4.873,3.946-8.828,8.828-8.828
			s8.828,3.955,8.828,8.828v35.31C158.897,243.217,154.951,247.171,150.069,247.171"/>
		<path style="fill:#1C83BB;" d="M308.957,300.137c-1.845,0-3.699-0.574-5.288-1.766c-3.902-2.922-4.696-8.457-1.766-12.359
			l79.448-105.931c2.931-3.893,8.457-4.696,12.359-1.766c3.902,2.922,4.696,8.457,1.766,12.359l-79.448,105.931
			C314.289,298.919,311.649,300.137,308.957,300.137"/>
		<path style="fill:#1C83BB;" d="M344.276,247.171c-4.882,0-8.828-3.955-8.828-8.828v-35.31c0-4.873,3.946-8.828,8.828-8.828
			c4.882,0,8.828,3.955,8.828,8.828v35.31C353.103,243.217,349.158,247.171,344.276,247.171"/>
	</g>
	<path style="fill:#FFCE5D;" d="M414.897,291.309H97.103c-34.154,0-61.793,27.639-61.793,61.793v52.966H476.69v-52.966
		C476.69,318.948,449.05,291.309,414.897,291.309"/>
	<g>
		<path style="fill:#C49E47;" d="M79.448,370.758h70.621V326.62H79.448V370.758z"/>
		<path style="fill:#C49E47;" d="M361.931,370.758h70.621V326.62h-70.621V370.758z"/>
		<path style="fill:#C49E47;" d="M317.793,370.758H194.207c-4.882,0-8.828-3.955-8.828-8.828s3.946-8.828,8.828-8.828h123.586
			c4.882,0,8.828,3.955,8.828,8.828S322.675,370.758,317.793,370.758"/>
		<path style="fill:#C49E47;" d="M300.138,335.447h-88.276c-4.882,0-8.828-3.955-8.828-8.828c0-4.873,3.946-8.828,8.828-8.828
			h88.276c4.882,0,8.828,3.955,8.828,8.828C308.966,331.492,305.02,335.447,300.138,335.447"/>
	</g>
</g>
<g>
</g>
<g>
</g>
<g>
</g>
<g>
</g>
<g>
</g>
<g>
</g>
<g>
</g>
<g>
</g>
<g>
</g>
<g>
</g>
<g>
</g>
<g>
</g>
<g>
</g>
<g>
</g>
<g>
</g>
</svg>
