<?xml version="1.0" encoding="iso-8859-1"?>
<!-- Generator: Adobe Illustrator 19.0.0, SVG Export Plug-In . SVG Version: 6.00 Build 0)  -->
<svg version="1.1" id="Layer_1" xmlns="http://www.w3.org/2000/svg" xmlns:xlink="http://www.w3.org/1999/xlink" x="0px" y="0px"
	 viewBox="0 0 512 512" style="enable-background:new 0 0 512 512;" xml:space="preserve">
<g>
	<g>
		<path style="fill:#666666;" d="M88.276,172.138c-4.873,0-8.828-3.946-8.828-8.828V57.379c0-4.882,3.955-8.828,8.828-8.828
			c4.873,0,8.828,3.946,8.828,8.828V163.31C97.103,168.192,93.149,172.138,88.276,172.138"/>
		<path style="fill:#666666;" d="M264.828,172.138c-4.873,0-8.828-3.946-8.828-8.828V57.379c0-4.882,3.955-8.828,8.828-8.828
			s8.828,3.946,8.828,8.828V163.31C273.655,168.192,269.7,172.138,264.828,172.138"/>
		<path style="fill:#666666;" d="M467.862,128H17.655C7.945,128,0,120.055,0,110.345S7.945,92.69,17.655,92.69h450.207
			c9.71,0,17.655,7.945,17.655,17.655S477.572,128,467.862,128"/>
		<path style="fill:#666666;" d="M467.862,57.379H17.655C7.945,57.379,0,49.434,0,39.724s7.945-17.655,17.655-17.655h450.207
			c9.71,0,17.655,7.945,17.655,17.655S477.572,57.379,467.862,57.379"/>
	</g>
	<path style="fill:#FFCE5D;" d="M264.828,331.034H0V188.681c0-14.009,11.361-25.37,25.37-25.37h239.457V331.034z"/>
	<g>
		<path style="fill:#5B5B5B;" d="M467.862,436.966c0,29.255-23.711,52.966-52.966,52.966s-52.966-23.711-52.966-52.966
			S385.642,384,414.897,384S467.862,407.711,467.862,436.966"/>
		<path style="fill:#5B5B5B;" d="M150.069,436.966c0,29.255-23.711,52.966-52.966,52.966s-52.966-23.711-52.966-52.966
			S67.849,384,97.103,384S150.069,407.711,150.069,436.966"/>
	</g>
	<path style="fill:#EE705C;" d="M449.409,265.485L388.71,174.72c-5.764-7.212-14.504-11.405-23.737-11.405H264.824V436.97h97.103
		c0-29.255,23.72-52.966,52.966-52.966c29.255,0,52.966,23.711,52.966,52.966h24.276c10.973,0,19.862-8.898,19.862-19.871V286.901
		c0-10.973-6.682-17.655-17.655-17.655h-37.12C454.185,269.246,451.307,267.86,449.409,265.485"/>
	<path style="fill:#A14B3D;" d="M0,331.034v88.285c0,9.746,7.901,17.646,17.646,17.646h26.492c0-29.255,23.711-52.966,52.966-52.966
		s52.966,23.711,52.966,52.966h114.759V331.034H0z"/>
	<g>
		<path style="fill:#B2B2B2;" d="M114.759,436.966c0,9.754-7.901,17.655-17.655,17.655s-17.655-7.901-17.655-17.655
			s7.901-17.655,17.655-17.655S114.759,427.211,114.759,436.966"/>
		<path style="fill:#B2B2B2;" d="M432.552,436.966c0,9.754-7.901,17.655-17.655,17.655s-17.655-7.901-17.655-17.655
			s7.901-17.655,17.655-17.655S432.552,427.211,432.552,436.966"/>
	</g>
	<g>
		<path style="fill:#42413F;" d="M35.31,128h17.655V92.69H35.31V128z"/>
		<path style="fill:#42413F;" d="M79.448,128h17.655V92.69H79.448V128z"/>
		<path style="fill:#42413F;" d="M123.586,128h17.655V92.69h-17.655V128z"/>
		<path style="fill:#42413F;" d="M167.724,128h17.655V92.69h-17.655V128z"/>
		<path style="fill:#42413F;" d="M211.862,128h17.655V92.69h-17.655V128z"/>
		<path style="fill:#42413F;" d="M256,128h17.655V92.69H256V128z"/>
		<path style="fill:#42413F;" d="M300.138,128h17.655V92.69h-17.655V128z"/>
		<path style="fill:#42413F;" d="M344.276,128h17.655V92.69h-17.655V128z"/>
		<path style="fill:#42413F;" d="M388.414,128h17.655V92.69h-17.655V128z"/>
		<path style="fill:#42413F;" d="M432.552,128h17.655V92.69h-17.655V128z"/>
		<path style="fill:#42413F;" d="M35.31,57.379h17.655v-35.31H35.31V57.379z"/>
		<path style="fill:#42413F;" d="M79.448,57.379h17.655v-35.31H79.448V57.379z"/>
		<path style="fill:#42413F;" d="M123.586,57.379h17.655v-35.31h-17.655V57.379z"/>
		<path style="fill:#42413F;" d="M167.724,57.379h17.655v-35.31h-17.655V57.379z"/>
		<path style="fill:#42413F;" d="M211.862,57.379h17.655v-35.31h-17.655V57.379z"/>
		<path style="fill:#42413F;" d="M256,57.379h17.655v-35.31H256V57.379z"/>
		<path style="fill:#42413F;" d="M300.138,57.379h17.655v-35.31h-17.655V57.379z"/>
		<path style="fill:#42413F;" d="M344.276,57.379h17.655v-35.31h-17.655V57.379z"/>
		<path style="fill:#42413F;" d="M388.414,57.379h17.655v-35.31h-17.655V57.379z"/>
		<path style="fill:#42413F;" d="M432.552,57.379h17.655v-35.31h-17.655V57.379z"/>
	</g>
	<path style="fill:#E6E6E6;" d="M332.506,251.586h107.608l-51.403-76.871c-5.764-7.212-14.504-11.405-23.737-11.405H317.79v73.56
		C317.79,245.001,324.385,251.586,332.506,251.586"/>
	<path style="fill:#A14B3D;" d="M512,339.862v-17.655H361.931c-4.873,0-8.828,3.946-8.828,8.828c0,4.882,3.955,8.828,8.828,8.828
		H512z"/>
	<g>
		<path style="fill:#C49E47;" d="M97.103,216.276H0v17.655h97.103c4.873,0,8.828-3.946,8.828-8.828
			C105.931,220.222,101.976,216.276,97.103,216.276"/>
		<path style="fill:#C49E47;" d="M132.414,260.414H0v17.655h132.414c4.873,0,8.828-3.946,8.828-8.828
			C141.241,264.36,137.287,260.414,132.414,260.414"/>
	</g>
</g>
<g>
</g>
<g>
</g>
<g>
</g>
<g>
</g>
<g>
</g>
<g>
</g>
<g>
</g>
<g>
</g>
<g>
</g>
<g>
</g>
<g>
</g>
<g>
</g>
<g>
</g>
<g>
</g>
<g>
</g>
</svg>
