<?xml version="1.0" encoding="iso-8859-1"?>
<!-- Generator: Adobe Illustrator 19.0.0, SVG Export Plug-In . SVG Version: 6.00 Build 0)  -->
<svg version="1.1" id="Layer_1" xmlns="http://www.w3.org/2000/svg" xmlns:xlink="http://www.w3.org/1999/xlink" x="0px" y="0px"
	 viewBox="0 0 512.003 512.003" style="enable-background:new 0 0 512.003 512.003;" xml:space="preserve">
<g>
	<path style="fill:#429FDE;" d="M506.312,240.435l-80.896-88.986c-4.143-4.552-10.017-7.159-16.179-7.159h-85.746
		c-8.993,0-16.291,7.298-16.291,16.291v151.273H0v79.9c0,7.289,5.902,13.191,13.191,13.191h14.736
		c0-30.841,25.004-55.855,55.855-55.855s55.855,25.014,55.855,55.855H307.2h46.545c0-30.841,25.004-55.855,55.855-55.855
		s55.855,25.014,55.855,55.855h33.354c7.289,0,13.191-5.902,13.191-13.191V255.152C512,249.707,509.971,244.456,506.312,240.435"/>
	<g>
		<path style="fill:#5B5B5B;" d="M465.455,404.947c0,30.85-25.004,55.855-55.855,55.855s-55.855-25.004-55.855-55.855
			s25.004-55.855,55.855-55.855S465.455,374.097,465.455,404.947"/>
		<path style="fill:#5B5B5B;" d="M139.637,404.947c0,30.85-25.004,55.855-55.855,55.855s-55.855-25.004-55.855-55.855
			s25.004-55.855,55.855-55.855S139.637,374.097,139.637,404.947"/>
	</g>
	<g>
		<path style="fill:#B2B2B2;" d="M102.401,404.947c0,10.287-8.332,18.618-18.618,18.618s-18.618-8.332-18.618-18.618
			c0-10.287,8.332-18.618,18.618-18.618S102.401,394.66,102.401,404.947"/>
		<path style="fill:#B2B2B2;" d="M428.219,404.947c0,10.287-8.332,18.618-18.618,18.618s-18.618-8.332-18.618-18.618
			c0-10.287,8.332-18.618,18.618-18.618S428.219,394.66,428.219,404.947"/>
	</g>
	<g>
		<path style="fill:#E6E6E6;" d="M425.419,151.453c-4.143-4.561-10.026-7.159-16.188-7.159h-48.789
			c-3.696,0-6.693,2.998-6.693,6.693v98.323c0,3.696,2.998,6.693,6.693,6.693h151.561v-0.856c0-5.437-2.029-10.687-5.688-14.718
			L425.419,151.453z"/>
		<path style="fill:#E6E6E6;" d="M46.546,144.292c-5.139,0-9.309-4.161-9.309-9.309V60.51c0-5.148,4.17-9.309,9.309-9.309
			s9.309,4.161,9.309,9.309v74.473C55.855,140.131,51.685,144.292,46.546,144.292"/>
		<path style="fill:#E6E6E6;" d="M46.546,200.147c-20.536,0-37.236-16.701-37.236-37.236c0-5.148,4.17-9.309,9.309-9.309
			s9.309,4.161,9.309,9.309c0,10.268,8.35,18.618,18.618,18.618s18.618-8.35,18.618-18.618s-8.35-18.618-18.618-18.618
			c-5.139,0-9.309-4.161-9.309-9.309s4.17-9.309,9.309-9.309c20.536,0,37.236,16.701,37.236,37.236S67.082,200.147,46.546,200.147"
			/>
	</g>
	<path style="fill:#7F5631;" d="M93.092,51.201H45.076c-6.423,0-9.709,7.717-5.241,12.344l239.439,248.311h27.927v-55.855
		L93.092,51.201z"/>
	<path style="fill:#2380B4;" d="M512.001,293.238h-55.855c-5.139,0-9.309,4.161-9.309,9.309s4.171,9.309,9.309,9.309h55.855V293.238
		z"/>
</g>
<g>
</g>
<g>
</g>
<g>
</g>
<g>
</g>
<g>
</g>
<g>
</g>
<g>
</g>
<g>
</g>
<g>
</g>
<g>
</g>
<g>
</g>
<g>
</g>
<g>
</g>
<g>
</g>
<g>
</g>
</svg>
