<?xml version="1.0" encoding="iso-8859-1"?>
<!-- Generator: Adobe Illustrator 19.0.0, SVG Export Plug-In . SVG Version: 6.00 Build 0)  -->
<svg version="1.1" id="Layer_1" xmlns="http://www.w3.org/2000/svg" xmlns:xlink="http://www.w3.org/1999/xlink" x="0px" y="0px"
	 viewBox="0 0 512.001 512.001" style="enable-background:new 0 0 512.001 512.001;" xml:space="preserve">
<g>
	<path style="fill:#85C14E;" d="M506.606,170.619l-76.712-84.383c-3.928-4.317-9.498-6.788-15.342-6.788H18.026
		C8.068,79.448,0,87.516,0,97.474v264.095c0,9.949,8.068,18.017,18.026,18.017h26.112c0-29.246,23.711-52.966,52.966-52.966
		s52.966,23.72,52.966,52.966h211.862c0-29.246,23.711-52.966,52.966-52.966c29.255,0,52.966,23.72,52.966,52.966h26.112
		c9.957,0,18.026-8.068,18.026-18.017V184.576C512,179.411,510.076,174.433,506.606,170.619"/>
	<g>
		<path style="fill:#E6E6E6;" d="M394.759,220.691h117.239v-36.122c0-5.155-1.924-10.134-5.394-13.948l-50.776-55.861h-61.069
			c-3.505,0-6.347,2.842-6.347,6.347v93.237C388.412,217.848,391.255,220.691,394.759,220.691"/>
		<path style="fill:#E6E6E6;" d="M0.001,114.76v105.931h68.961c5.791,0,10.487-4.696,10.487-10.487v-84.957
			c0-5.791-4.696-10.487-10.487-10.487H0.001z"/>
		<path style="fill:#E6E6E6;" d="M256.001,127.172v81.108c0,6.85,5.561,12.412,12.412,12.412h63.453
			c6.85,0,12.412-5.561,12.412-12.412v-81.108c0-6.859-5.561-12.412-12.412-12.412h-63.453
			C261.562,114.761,256.001,120.313,256.001,127.172"/>
		<path style="fill:#E6E6E6;" d="M123.587,127.172v81.108c0,6.85,5.561,12.412,12.412,12.412h63.453
			c6.85,0,12.412-5.561,12.412-12.412v-81.108c0-6.859-5.561-12.412-12.412-12.412h-63.453
			C129.148,114.761,123.587,120.313,123.587,127.172"/>
	</g>
	<path style="fill:#5B5B5B;" d="M467.863,379.588c0,29.255-23.711,52.966-52.966,52.966s-52.966-23.711-52.966-52.966
		s23.711-52.966,52.966-52.966S467.863,350.333,467.863,379.588"/>
	<path style="fill:#B2B2B2;" d="M432.553,379.588c0,9.754-7.901,17.655-17.655,17.655s-17.655-7.901-17.655-17.655
		s7.901-17.655,17.655-17.655S432.553,369.833,432.553,379.588"/>
	<path style="fill:#5B5B5B;" d="M150.07,379.588c0,29.255-23.711,52.966-52.966,52.966s-52.966-23.711-52.966-52.966
		s23.711-52.966,52.966-52.966S150.07,350.333,150.07,379.588"/>
	<path style="fill:#B2B2B2;" d="M114.76,379.588c0,9.754-7.901,17.655-17.655,17.655s-17.655-7.901-17.655-17.655
		s7.901-17.655,17.655-17.655S114.76,369.833,114.76,379.588"/>
	<g>
		<path style="fill:#6AA62C;" d="M512.001,273.656h-52.965c-4.882,0-8.828,3.946-8.828,8.828s3.946,8.828,8.828,8.828h52.965
			V273.656z"/>
		<path style="fill:#6AA62C;" d="M282.484,247.174H0.001v17.655h282.483c4.873,0,8.828-3.946,8.828-8.828
			C291.311,251.12,287.356,247.174,282.484,247.174"/>
		<path style="fill:#6AA62C;" d="M317.794,282.484H0.001v17.655h317.793c4.873,0,8.828-3.946,8.828-8.828
			S322.667,282.484,317.794,282.484"/>
	</g>
</g>
<g>
</g>
<g>
</g>
<g>
</g>
<g>
</g>
<g>
</g>
<g>
</g>
<g>
</g>
<g>
</g>
<g>
</g>
<g>
</g>
<g>
</g>
<g>
</g>
<g>
</g>
<g>
</g>
<g>
</g>
</svg>
