<?xml version="1.0" encoding="iso-8859-1"?>
<!-- Generator: Adobe Illustrator 19.0.0, SVG Export Plug-In . SVG Version: 6.00 Build 0)  -->
<svg version="1.1" id="Layer_1" xmlns="http://www.w3.org/2000/svg" xmlns:xlink="http://www.w3.org/1999/xlink" x="0px" y="0px"
	 viewBox="0 0 512.002 512.002" style="enable-background:new 0 0 512.002 512.002;" xml:space="preserve">
<g>
	<g>
		<path style="fill:#5B5B5B;" d="M467.862,423.725c0,29.255-23.711,52.966-52.966,52.966s-52.966-23.711-52.966-52.966
			s23.711-52.966,52.966-52.966S467.862,394.47,467.862,423.725"/>
		<path style="fill:#5B5B5B;" d="M158.897,423.725c0,29.255-23.711,52.966-52.966,52.966s-52.966-23.711-52.966-52.966
			s23.711-52.966,52.966-52.966S158.897,394.47,158.897,423.725"/>
	</g>
	<g>
		<path style="fill:#B2B2B2;" d="M123.586,423.725c0,9.754-7.901,17.655-17.655,17.655s-17.655-7.901-17.655-17.655
			s7.901-17.655,17.655-17.655S123.586,413.971,123.586,423.725"/>
		<path style="fill:#B2B2B2;" d="M432.552,423.725c0,9.754-7.901,17.655-17.655,17.655s-17.655-7.901-17.655-17.655
			s7.901-17.655,17.655-17.655S432.552,413.971,432.552,423.725"/>
	</g>
	<path style="fill:#A77B4D;" d="M256,300.139H88.276L0,229.518v-70.621h105.931V35.311h105.931L256,88.277V300.139z"/>
	<path style="fill:#F26E5A;" d="M506.605,267.722l-76.712-84.383c-3.928-4.317-9.498-6.788-15.342-6.788h-81.311
		c-8.527,0-15.448,6.921-15.448,15.448v143.448H26.482v75.767c0,6.912,5.597,12.509,12.509,12.509h13.974
		c0-29.246,23.711-52.966,52.966-52.966s52.966,23.72,52.966,52.966h158.897h44.138c0-29.246,23.711-52.966,52.966-52.966
		c29.255,0,52.966,23.72,52.966,52.966h31.629c6.912,0,12.509-5.597,12.509-12.509V281.679
		C511.999,276.514,510.075,271.536,506.605,267.722"/>
	<path style="fill:#E6E6E6;" d="M429.896,183.343c-3.928-4.326-9.507-6.788-15.351-6.788H368.28c-3.505,0-6.347,2.842-6.347,6.347
		v93.237c0,3.505,2.843,6.347,6.347,6.347h143.722v-0.812c0-5.155-1.924-10.134-5.394-13.956L429.896,183.343z"/>
	<g>
		<path style="fill:#B3B3B3;" d="M476.69,132.415c-4.882,0-8.828-3.946-8.828-8.828v-35.31c0-4.882,3.946-8.828,8.828-8.828
			c4.882,0,8.828,3.946,8.828,8.828v35.31C485.517,128.469,481.571,132.415,476.69,132.415"/>
		<path style="fill:#B3B3B3;" d="M476.69,185.38c-19.474,0-35.31-15.837-35.31-35.31c0-4.882,3.946-8.828,8.828-8.828
			c4.882,0,8.828,3.946,8.828,8.828c0,9.737,7.918,17.655,17.655,17.655c9.737,0,17.655-7.918,17.655-17.655
			c0-9.737-7.918-17.655-17.655-17.655c-4.882,0-8.828-3.946-8.828-8.828c0-4.882,3.946-8.828,8.828-8.828
			c19.474,0,35.31,15.837,35.31,35.31S496.163,185.38,476.69,185.38"/>
	</g>
	<g>
		<path style="fill:#7F5631;" d="M211.862,35.313L256,88.279h229.517L512,35.313H211.862z"/>
		<path style="fill:#7F5631;" d="M97.103,220.691c0,4.873-3.955,8.828-8.828,8.828c-4.873,0-8.828-3.955-8.828-8.828
			c0-4.873,3.955-8.828,8.828-8.828C93.149,211.863,97.103,215.818,97.103,220.691"/>
		<path style="fill:#7F5631;" d="M141.241,220.691c0,4.873-3.955,8.828-8.828,8.828c-4.873,0-8.828-3.955-8.828-8.828
			c0-4.873,3.955-8.828,8.828-8.828C137.287,211.863,141.241,215.818,141.241,220.691"/>
		<path style="fill:#7F5631;" d="M185.379,220.691c0,4.873-3.955,8.828-8.828,8.828c-4.873,0-8.828-3.955-8.828-8.828
			c0-4.873,3.955-8.828,8.828-8.828C181.425,211.863,185.379,215.818,185.379,220.691"/>
	</g>
	<path style="fill:#F4A29B;" d="M512,317.794h-52.966c-4.882,0-8.828,3.946-8.828,8.828c0,4.882,3.946,8.828,8.828,8.828H512
		V317.794z"/>
	<g>
		<path style="fill:#7F5631;" d="M105.931,97.104h97.103c4.882,0,8.828-3.946,8.828-8.828c0-4.882-3.946-8.828-8.828-8.828h-97.103
			V97.104z"/>
		<path style="fill:#7F5631;" d="M105.93,132.415h61.793c4.882,0,8.828-3.946,8.828-8.828c0-4.882-3.946-8.828-8.828-8.828H105.93
			V132.415z"/>
	</g>
</g>
<g>
</g>
<g>
</g>
<g>
</g>
<g>
</g>
<g>
</g>
<g>
</g>
<g>
</g>
<g>
</g>
<g>
</g>
<g>
</g>
<g>
</g>
<g>
</g>
<g>
</g>
<g>
</g>
<g>
</g>
</svg>
