<?xml version="1.0" encoding="iso-8859-1"?>
<!-- Generator: Adobe Illustrator 19.0.0, SVG Export Plug-In . SVG Version: 6.00 Build 0)  -->
<svg version="1.1" id="Layer_1" xmlns="http://www.w3.org/2000/svg" xmlns:xlink="http://www.w3.org/1999/xlink" x="0px" y="0px"
	 viewBox="0 0 512 512" style="enable-background:new 0 0 512 512;" xml:space="preserve">
<g>
	<path style="fill:#E6E6E6;" d="M256,12.8C119.33,12.8,8.533,123.597,8.533,260.267c0,64.939,21.163,135.825,59.546,187.733H435.2
		c40.823-51.78,68.267-122.564,68.267-187.733C503.467,123.597,392.67,12.8,256,12.8"/>
	<g>
		<path style="fill:#EF715D;" d="M366.933,439.467H145.067c-14.14,0-25.6-11.46-25.6-25.6v-76.8h273.067v76.8
			C392.533,428.006,381.073,439.467,366.933,439.467"/>
		<path style="fill:#EF715D;" d="M392.533,200.533H119.467v-76.8c0-14.14,11.46-25.6,25.6-25.6h221.867
			c14.14,0,25.6,11.46,25.6,25.6V200.533z"/>
	</g>
	<path style="fill:#AEDAF7;" d="M119.467,337.067h273.067V200.533H119.467V337.067z"/>
	<path style="fill:#A14B3D;" d="M315.733,98.133H196.267l17.067-51.2h85.333L315.733,98.133z"/>
	<g>
		<path style="fill:#FFCE5D;" d="M187.733,388.267c0,9.429-7.637,17.067-17.067,17.067c-9.429,0-17.067-7.637-17.067-17.067
			s7.637-17.067,17.067-17.067C180.096,371.2,187.733,378.837,187.733,388.267"/>
		<path style="fill:#FFCE5D;" d="M358.4,388.267c0,9.429-7.637,17.067-17.067,17.067c-9.429,0-17.067-7.637-17.067-17.067
			s7.637-17.067,17.067-17.067C350.763,371.2,358.4,378.837,358.4,388.267"/>
	</g>
	<path style="fill:#A14B3D;" d="M196.267,166.4h119.467v-34.133H196.267V166.4z"/>
	<g>
		<path style="fill:#666666;" d="M435.191,456.533c-1.852,0-3.712-0.597-5.274-1.835c-3.703-2.918-4.335-8.286-1.417-11.981
			c40.977-51.977,66.432-121.882,66.432-182.451c0-131.746-107.187-238.933-238.933-238.933S17.067,128.521,17.067,260.267
			c0,65.374,21.632,133.649,57.873,182.656c2.799,3.789,2.005,9.131-1.783,11.938c-3.806,2.782-9.139,1.997-11.938-1.792
			C22.886,401.237,0,329.156,0,260.267c0-141.158,114.842-256,256-256s256,114.842,256,256c0,65.195-26.206,137.344-70.101,193.015
			C440.218,455.424,437.717,456.533,435.191,456.533"/>
		<path style="fill:#666666;" d="M452.267,507.733H59.733l85.333-68.267H358.4L452.267,507.733z"/>
	</g>
	<g>
		<path style="fill:#B3B3B3;" d="M91.733,482.133h325.333L393.6,465.067H113.067L91.733,482.133z"/>
		<path style="fill:#B3B3B3;" d="M315.733,507.733H332.8v-68.267h-17.067V507.733z"/>
		<path style="fill:#B3B3B3;" d="M170.667,507.733h17.067v-68.267h-17.067V507.733z"/>
	</g>
</g>
<g>
</g>
<g>
</g>
<g>
</g>
<g>
</g>
<g>
</g>
<g>
</g>
<g>
</g>
<g>
</g>
<g>
</g>
<g>
</g>
<g>
</g>
<g>
</g>
<g>
</g>
<g>
</g>
<g>
</g>
</svg>
