<?xml version="1.0" encoding="iso-8859-1"?>
<!-- Generator: Adobe Illustrator 19.0.0, SVG Export Plug-In . SVG Version: 6.00 Build 0)  -->
<svg version="1.1" id="Layer_1" xmlns="http://www.w3.org/2000/svg" xmlns:xlink="http://www.w3.org/1999/xlink" x="0px" y="0px"
	 viewBox="0 0 503.357 503.357" style="enable-background:new 0 0 503.357 503.357;" xml:space="preserve">
<g>
	<path style="fill:#E6E6E6;" d="M264.354,60.764c8.261,9.216,13.338,21.356,13.338,34.712c0,6.109-1.154,11.915-3.098,17.356h36.447
		c5.545,0,10.04-4.495,10.04-10.032V70.796c0-5.537-4.495-10.032-10.04-10.032H264.354z"/>
	<path style="fill:#999999;" d="M199.589,140.521v-10.335c0-14.319,11.715-26.034,26.034-26.034s26.034,11.715,26.034,26.034v10.335
		c15.551-9.008,26.034-25.782,26.034-45.047c0-28.75-23.309-52.068-52.068-52.068s-52.068,23.318-52.068,52.068
		C173.555,114.739,184.038,131.513,199.589,140.521"/>
	<path style="fill:#E6E6E6;" d="M251.657,182.256v-52.068c0-14.319-11.715-26.034-26.034-26.034s-26.034,11.715-26.034,26.034
		v52.068H251.657z"/>
	<path style="fill:#5B5B5B;" d="M147.56,407.883c0,28.759-23.309,52.068-52.068,52.068s-52.068-23.309-52.068-52.068
		c0-28.759,23.309-52.068,52.068-52.068S147.56,379.124,147.56,407.883"/>
	<path style="fill:#B2B2B2;" d="M112.848,407.883c0,9.589-7.767,17.356-17.356,17.356s-17.356-7.767-17.356-17.356
		s7.767-17.356,17.356-17.356S112.848,398.294,112.848,407.883"/>
	<path style="fill:#5B5B5B;" d="M459.967,407.883c0,28.759-23.309,52.068-52.068,52.068c-28.759,0-52.068-23.309-52.068-52.068
		c0-28.759,23.309-52.068,52.068-52.068C436.658,355.815,459.967,379.124,459.967,407.883"/>
	<path style="fill:#B2B2B2;" d="M425.255,407.883c0,9.589-7.767,17.356-17.356,17.356s-17.356-7.767-17.356-17.356
		s7.767-17.356,17.356-17.356S425.255,398.294,425.255,407.883"/>
	<path style="fill:#419EDE;" d="M383.514,255.443l-29.965-48.692c-9.364-15.221-25.964-24.498-43.832-24.498H132.955
		c-17.885,0-34.486,9.294-43.85,24.533L45.95,277.051c-6.882,11.195-19.092,18.015-32.23,18.015h-0.417
		c-7.411,0-13.321,5.91-13.303,13.217c0.017,19.17,0.026,54.914,0.035,77.963c0,11.984,9.711,21.634,21.686,21.634h21.704
		c0-28.75,23.309-52.068,52.068-52.068s52.068,23.318,52.068,52.068h208.271c0-28.75,23.309-52.068,52.068-52.068
		c28.759,0,52.068,23.318,52.068,52.068h16.991c14.579,0,26.398-11.819,26.398-26.398v-73.233c0-7.281-5.901-13.182-13.182-13.182
		H454.43C425.515,295.067,398.666,280.071,383.514,255.443"/>
	<path style="fill:#E6E6E6;" d="M383.513,255.443l-23.673-38.478H128.711c-3.966,0-7.185,3.22-7.185,7.185v37.697
		c0,3.975,3.22,7.185,7.185,7.185H394.17C390.23,264.885,386.577,260.424,383.513,255.443"/>
	<path style="fill:#5B5B5B;" d="M243.013,269.036h17.356v-52.068h-17.356V269.036z"/>
	<g>
		<path style="fill:#2380B4;" d="M295.086,321.103h-43.39c-4.79,0-8.678-3.879-8.678-8.678c0-4.799,3.888-8.678,8.678-8.678h43.39
			c4.79,0,8.678,3.879,8.678,8.678C303.764,317.224,299.876,321.103,295.086,321.103"/>
		<path style="fill:#2380B4;" d="M295.086,338.459c-4.79,0-8.678-3.879-8.678-8.678v-17.356c0-4.799,3.888-8.678,8.678-8.678
			c4.79,0,8.678,3.879,8.678,8.678v17.356C303.764,334.58,299.876,338.459,295.086,338.459"/>
		<path style="fill:#2380B4;" d="M503.357,329.781h-34.712c-4.799,0-8.678,3.879-8.678,8.678c0,4.799,3.879,8.678,8.678,8.678
			h34.712V329.781z"/>
		<path style="fill:#2380B4;" d="M34.747,329.781H0.017c0,5.571,0,11.385,0.009,17.356h34.721c4.79,0,8.678-3.879,8.678-8.678
			C43.425,333.66,39.537,329.781,34.747,329.781"/>
	</g>
</g>
<g>
</g>
<g>
</g>
<g>
</g>
<g>
</g>
<g>
</g>
<g>
</g>
<g>
</g>
<g>
</g>
<g>
</g>
<g>
</g>
<g>
</g>
<g>
</g>
<g>
</g>
<g>
</g>
<g>
</g>
</svg>
