<?xml version="1.0" encoding="iso-8859-1"?>
<!-- Generator: Adobe Illustrator 19.0.0, SVG Export Plug-In . SVG Version: 6.00 Build 0)  -->
<svg version="1.1" id="Layer_1" xmlns="http://www.w3.org/2000/svg" xmlns:xlink="http://www.w3.org/1999/xlink" x="0px" y="0px"
	 viewBox="0 0 512.036 512.036" style="enable-background:new 0 0 512.036 512.036;" xml:space="preserve">
<g transform="translate(-1)">
	<path style="fill:#5B5B5B;" d="M151.105,344.295c0,29.255-23.711,52.966-52.966,52.966s-52.966-23.711-52.966-52.966
		c0-29.255,23.711-52.966,52.966-52.966S151.105,315.041,151.105,344.295"/>
	<path style="fill:#B2B2B2;" d="M115.795,344.295c0,9.754-7.901,17.655-17.655,17.655s-17.655-7.901-17.655-17.655
		c0-9.754,7.901-17.655,17.655-17.655S115.795,334.541,115.795,344.295"/>
	<path style="fill:#5B5B5B;" d="M468.898,344.295c0,29.255-23.711,52.966-52.966,52.966c-29.255,0-52.966-23.711-52.966-52.966
		c0-29.255,23.711-52.966,52.966-52.966C445.187,291.33,468.898,315.041,468.898,344.295"/>
	<path style="fill:#B2B2B2;" d="M433.588,344.295c0,9.754-7.901,17.655-17.655,17.655c-9.754,0-17.655-7.901-17.655-17.655
		c0-9.754,7.901-17.655,17.655-17.655C425.687,326.64,433.588,334.541,433.588,344.295"/>
	<path style="fill:#86C250;" d="M391.126,189.227l-30.482-49.532c-9.525-15.484-26.412-24.92-44.588-24.92H136.247
		c-18.194,0-35.081,9.454-44.606,24.956l-43.9,71.477c-7,11.388-19.421,18.326-32.786,18.326h-0.424
		c-7.539,0-13.55,6.003-13.533,13.444c0.018,19.5,0.026,55.861,0.035,79.307c0,12.191,9.878,22.007,22.06,22.007h22.078
		c0-29.246,23.711-52.966,52.966-52.966s52.966,23.72,52.966,52.966h211.862c0-29.246,23.711-52.966,52.966-52.966
		s52.966,23.72,52.966,52.966h17.284c14.83,0,26.853-12.023,26.853-26.854v-74.496c0-7.406-6.003-13.409-13.409-13.409h-36.361
		C433.852,229.534,406.539,214.28,391.126,189.227"/>
	<path style="fill:#E6E6E6;" d="M391.126,189.226l-24.082-39.142H131.931c-4.034,0-7.309,3.275-7.309,7.318v38.338
		c0,4.043,3.275,7.309,7.309,7.309h270.036C397.959,198.84,394.243,194.293,391.126,189.226"/>
	<path style="fill:#5B5B5B;" d="M248.209,203.054h17.655v-52.966h-17.655V203.054z"/>
	<g>
		<path style="fill:#628D3A;" d="M301.174,256.019h-44.138c-4.873,0-8.828-3.946-8.828-8.828c0-4.882,3.955-8.828,8.828-8.828
			h44.138c4.873,0,8.828,3.946,8.828,8.828C310.002,252.074,306.047,256.019,301.174,256.019"/>
		<path style="fill:#628D3A;" d="M301.174,273.675c-4.873,0-8.828-3.946-8.828-8.828v-17.655c0-4.882,3.955-8.828,8.828-8.828
			s8.828,3.946,8.828,8.828v17.655C310.002,269.729,306.047,273.675,301.174,273.675"/>
		<path style="fill:#628D3A;" d="M513.036,264.847h-35.31c-4.882,0-8.828,3.946-8.828,8.828s3.946,8.828,8.828,8.828h35.31V264.847z
			"/>
		<path style="fill:#628D3A;" d="M36.347,264.847H1.019c0,5.667,0,11.582,0.009,17.655h35.319c4.873,0,8.828-3.946,8.828-8.828
			S41.219,264.847,36.347,264.847"/>
	</g>
</g>
<g>
</g>
<g>
</g>
<g>
</g>
<g>
</g>
<g>
</g>
<g>
</g>
<g>
</g>
<g>
</g>
<g>
</g>
<g>
</g>
<g>
</g>
<g>
</g>
<g>
</g>
<g>
</g>
<g>
</g>
</svg>
