<?xml version="1.0" encoding="iso-8859-1"?>
<!-- Generator: Adobe Illustrator 19.0.0, SVG Export Plug-In . SVG Version: 6.00 Build 0)  -->
<svg version="1.1" id="Layer_1" xmlns="http://www.w3.org/2000/svg" xmlns:xlink="http://www.w3.org/1999/xlink" x="0px" y="0px"
	 viewBox="0 0 503.357 503.357" style="enable-background:new 0 0 503.357 503.357;" xml:space="preserve">
<g>
	<path style="fill:#EE705C;" d="M216.945,134.528c-19.092,0-34.712,15.62-34.712,34.712v17.356h69.424V169.24
		C251.657,150.148,236.036,134.528,216.945,134.528"/>
	<g>
		<path style="fill:#E6E6E6;" d="M216.665,82.469c-1.501,0-3.02-0.391-4.408-1.206c-9.884-5.84-12.401-13.026-12.765-18.007
			c-0.382-5.424,1.371-13.685,12.002-22.259c3.732-3.02,9.207-2.43,12.21,1.302c3.003,3.732,2.421,9.199-1.31,12.201
			c-4.573,3.688-5.658,6.456-5.58,7.506c0.052,0.85,1.215,2.508,4.278,4.313c4.122,2.439,5.493,7.758,3.055,11.889
			C222.523,80.941,219.633,82.469,216.665,82.469"/>
		<path style="fill:#E6E6E6;" d="M216.954,108.494c-2.951,0-5.823-1.501-7.446-4.217c-2.473-4.113-1.128-9.442,2.977-11.897
			c3.315-1.996,4.547-3.775,4.599-4.703c0.052-0.989-1.076-3.558-5.597-6.925c-3.844-2.864-4.634-8.305-1.77-12.149
			c2.864-3.844,8.296-4.625,12.14-1.77c10.873,8.114,12.835,16.289,12.557,21.721c-0.26,5.137-2.734,12.548-13.008,18.701
			C220.008,108.095,218.472,108.494,216.954,108.494"/>
		<path style="fill:#E6E6E6;" d="M182.242,117.172c-2.951,0-5.823-1.501-7.446-4.209l-26.034-43.39
			c-2.473-4.113-1.137-9.442,2.968-11.906c4.122-2.482,9.45-1.137,11.906,2.968l26.034,43.39c2.473,4.113,1.137,9.442-2.968,11.906
			C185.305,116.773,183.76,117.172,182.242,117.172"/>
		<path style="fill:#E6E6E6;" d="M251.648,117.172c-1.519,0-3.063-0.399-4.46-1.241c-4.105-2.465-5.441-7.793-2.968-11.906
			l26.034-43.39c2.465-4.105,7.793-5.45,11.906-2.968c4.105,2.465,5.441,7.793,2.968,11.906l-26.034,43.39
			C257.471,115.671,254.599,117.172,251.648,117.172"/>
	</g>
	<path style="fill:#5B5B5B;" d="M147.56,412.223c0,28.759-23.309,52.068-52.068,52.068s-52.068-23.309-52.068-52.068
		c0-28.759,23.309-52.068,52.068-52.068S147.56,383.464,147.56,412.223"/>
	<path style="fill:#B2B2B2;" d="M112.848,412.223c0,9.589-7.767,17.356-17.356,17.356s-17.356-7.767-17.356-17.356
		c0-9.589,7.767-17.356,17.356-17.356S112.848,402.634,112.848,412.223"/>
	<path style="fill:#5B5B5B;" d="M459.967,412.223c0,28.759-23.309,52.068-52.068,52.068c-28.759,0-52.068-23.309-52.068-52.068
		c0-28.759,23.309-52.068,52.068-52.068C436.658,360.155,459.967,383.464,459.967,412.223"/>
	<path style="fill:#B2B2B2;" d="M425.255,412.223c0,9.589-7.767,17.356-17.356,17.356s-17.356-7.767-17.356-17.356
		c0-9.589,7.767-17.356,17.356-17.356S425.255,402.634,425.255,412.223"/>
	<path style="fill:#419EDE;" d="M383.514,259.783l-29.965-48.692c-9.364-15.221-25.964-24.498-43.832-24.498H132.955
		c-17.885,0-34.486,9.294-43.85,24.533L45.95,281.391c-6.882,11.195-19.092,18.015-32.23,18.015h-0.417
		c-7.411,0-13.321,5.901-13.303,13.217c0.017,19.17,0.026,54.914,0.035,77.963c0,11.984,9.711,21.634,21.686,21.634h21.704
		c0-28.75,23.309-52.068,52.068-52.068s52.068,23.318,52.068,52.068h208.271c0-28.75,23.309-52.068,52.068-52.068
		c28.759,0,52.068,23.318,52.068,52.068h16.991c14.579,0,26.398-11.819,26.398-26.398v-73.233c0-7.281-5.901-13.182-13.182-13.182
		H454.43C425.515,299.407,398.666,284.411,383.514,259.783"/>
	<path style="fill:#E6E6E6;" d="M383.513,259.782l-23.673-38.478H128.711c-3.966,0-7.185,3.22-7.185,7.194v37.688
		c0,3.974,3.22,7.185,7.185,7.185H394.17C390.23,269.232,386.577,264.763,383.513,259.782"/>
	<path style="fill:#5B5B5B;" d="M243.013,273.375h17.356v-52.068h-17.356V273.375z"/>
	<g>
		<path style="fill:#2380B4;" d="M295.086,325.443h-43.39c-4.79,0-8.678-3.879-8.678-8.678s3.888-8.678,8.678-8.678h43.39
			c4.79,0,8.678,3.879,8.678,8.678S299.876,325.443,295.086,325.443"/>
		<path style="fill:#2380B4;" d="M295.086,342.799c-4.79,0-8.678-3.879-8.678-8.678v-17.356c0-4.799,3.888-8.678,8.678-8.678
			c4.79,0,8.678,3.879,8.678,8.678v17.356C303.764,338.92,299.876,342.799,295.086,342.799"/>
		<path style="fill:#2380B4;" d="M503.357,334.121h-34.712c-4.799,0-8.678,3.879-8.678,8.678c0,4.799,3.879,8.678,8.678,8.678
			h34.712V334.121z"/>
		<path style="fill:#2380B4;" d="M34.747,334.121H0.017c0,5.571,0,11.385,0.009,17.356h34.721c4.79,0,8.678-3.879,8.678-8.678
			C43.425,338,39.537,334.121,34.747,334.121"/>
	</g>
</g>
<g>
</g>
<g>
</g>
<g>
</g>
<g>
</g>
<g>
</g>
<g>
</g>
<g>
</g>
<g>
</g>
<g>
</g>
<g>
</g>
<g>
</g>
<g>
</g>
<g>
</g>
<g>
</g>
<g>
</g>
</svg>
