<?xml version="1.0" encoding="iso-8859-1"?>
<!-- Generator: Adobe Illustrator 19.0.0, SVG Export Plug-In . SVG Version: 6.00 Build 0)  -->
<svg version="1.1" id="Layer_1" xmlns="http://www.w3.org/2000/svg" xmlns:xlink="http://www.w3.org/1999/xlink" x="0px" y="0px"
	 viewBox="0 0 512 512" style="enable-background:new 0 0 512 512;" xml:space="preserve">
<g>
	<path style="fill:#A2A2A2;" d="M467.088,209.733c-4.958,0-8.982-4.015-8.982-8.982V74.996c0-4.967,4.024-8.982,8.982-8.982
		c4.958,0,8.982,4.015,8.982,8.982V200.75C476.07,205.718,472.046,209.733,467.088,209.733"/>
	<path style="fill:#FEC24C;" d="M428.134,42.052L241.918,237.654l11.839,52.925h15.396L470.198,80.874
		c11.3-12.189,9.872-31.421-3.108-41.804l0,0C455.341,29.665,438.311,30.968,428.134,42.052"/>
	<path style="fill:#535353;" d="M512,245.663c0,24.801-20.112,44.912-44.912,44.912c-24.801,0-44.912-20.112-44.912-44.912
		s20.112-44.912,44.912-44.912C491.888,200.75,512,220.862,512,245.663"/>
	<path style="fill:#FEC24C;" d="M220.294,140.986c-2.758-12.315-13.689-21.082-26.31-21.082H71.877
		c-14.893,0-26.965,12.072-26.965,26.965v143.701h143.037h65.805L220.294,140.986z"/>
	<g>
		<path style="fill:#BC8D2F;" d="M375.105,290.575H44.91v116.772h269.474h9.126h19.708c4.931,0,9.441-2.785,11.65-7.204
			l31.888-90.723C391.084,300.761,384.788,290.575,375.105,290.575"/>
		<path style="fill:#BC8D2F;" d="M176.724,236.68H98.81c-4.967,0-8.982-4.024-8.982-8.982v-44.912c0-4.958,4.015-8.982,8.982-8.982
			h65.078c4.015,0,7.536,2.659,8.641,6.512l12.836,44.912C186.999,230.967,182.688,236.68,176.724,236.68"/>
	</g>
	<path style="fill:#E15649;" d="M134.737,66.013c-14.821,0-26.947,12.126-26.947,26.947v26.947h53.895V92.961
		C161.684,78.14,149.558,66.013,134.737,66.013"/>
	<path style="fill:#535353;" d="M377.263,479.206H35.93c-19.761,0-35.93-16.168-35.93-35.93l0,0c0-19.761,16.168-35.93,35.93-35.93
		h341.333c19.761,0,35.93,16.168,35.93,35.93l0,0C413.193,463.038,397.025,479.206,377.263,479.206"/>
	<g>
		<path style="fill:#A2A2A2;" d="M125.754,443.277c0,4.958-4.024,8.982-8.982,8.982c-4.958,0-8.982-4.024-8.982-8.982
			c0-4.958,4.024-8.982,8.982-8.982C121.73,434.294,125.754,438.318,125.754,443.277"/>
		<path style="fill:#A2A2A2;" d="M170.667,443.277c0,4.958-4.024,8.982-8.982,8.982c-4.958,0-8.982-4.024-8.982-8.982
			c0-4.958,4.024-8.982,8.982-8.982C166.643,434.294,170.667,438.318,170.667,443.277"/>
		<path style="fill:#A2A2A2;" d="M215.579,443.277c0,4.958-4.024,8.982-8.982,8.982s-8.982-4.024-8.982-8.982
			c0-4.958,4.024-8.982,8.982-8.982S215.579,438.318,215.579,443.277"/>
		<path style="fill:#A2A2A2;" d="M260.491,443.277c0,4.958-4.024,8.982-8.982,8.982c-4.958,0-8.982-4.024-8.982-8.982
			c0-4.958,4.024-8.982,8.982-8.982C256.467,434.294,260.491,438.318,260.491,443.277"/>
		<path style="fill:#A2A2A2;" d="M305.404,443.277c0,4.958-4.024,8.982-8.982,8.982c-4.958,0-8.982-4.024-8.982-8.982
			c0-4.958,4.024-8.982,8.982-8.982C301.379,434.294,305.404,438.318,305.404,443.277"/>
		<path style="fill:#A2A2A2;" d="M71.86,443.277c0,19.842-16.088,35.93-35.93,35.93S0,463.119,0,443.277
			c0-19.842,16.088-35.93,35.93-35.93S71.86,423.434,71.86,443.277"/>
		<path style="fill:#A2A2A2;" d="M413.193,443.277c0,19.842-16.088,35.93-35.93,35.93c-19.842,0-35.93-16.088-35.93-35.93
			c0-19.842,16.088-35.93,35.93-35.93C397.105,407.347,413.193,423.434,413.193,443.277"/>
	</g>
	<g>
		<path style="fill:#FEC24C;" d="M197.614,317.522H44.912v17.965h152.702c4.958,0,8.982-4.015,8.982-8.982
			S202.572,317.522,197.614,317.522"/>
		<path style="fill:#FEC24C;" d="M251.509,353.452H44.912v17.965h206.596c4.958,0,8.982-4.015,8.982-8.982
			C260.491,357.467,256.467,353.452,251.509,353.452"/>
	</g>
</g>
<g>
</g>
<g>
</g>
<g>
</g>
<g>
</g>
<g>
</g>
<g>
</g>
<g>
</g>
<g>
</g>
<g>
</g>
<g>
</g>
<g>
</g>
<g>
</g>
<g>
</g>
<g>
</g>
<g>
</g>
</svg>
