<?xml version="1.0" encoding="iso-8859-1"?>
<!-- Generator: Adobe Illustrator 19.0.0, SVG Export Plug-In . SVG Version: 6.00 Build 0)  -->
<svg version="1.1" id="Layer_1" xmlns="http://www.w3.org/2000/svg" xmlns:xlink="http://www.w3.org/1999/xlink" x="0px" y="0px"
	 viewBox="0 0 512.003 512.003" style="enable-background:new 0 0 512.003 512.003;" xml:space="preserve">
<g>
	<g>
		<path style="fill:#494949;" d="M465.455,456.147c0,30.85-25.004,55.855-55.855,55.855s-55.855-25.004-55.855-55.855
			s25.004-55.855,55.855-55.855S465.455,425.297,465.455,456.147"/>
		<path style="fill:#494949;" d="M139.637,456.147c0,30.85-25.004,55.855-55.855,55.855s-55.855-25.004-55.855-55.855
			s25.004-55.855,55.855-55.855S139.637,425.297,139.637,456.147"/>
	</g>
	<path style="fill:#75B93F;" d="M506.312,273.016l-80.896-88.986c-4.143-4.552-10.017-7.159-16.179-7.159H307.2v186.182H15.714
		C7.038,363.053,0,370.091,0,378.767v64.186c0,7.289,5.902,13.191,13.191,13.191h14.736c0-30.841,25.004-55.855,55.855-55.855
		s55.855,25.014,55.855,55.855H307.2h46.545c0-30.841,25.004-55.855,55.855-55.855s55.855,25.014,55.855,55.855h33.354
		c7.289,0,13.191-5.902,13.191-13.191v-155.22C512,282.287,509.971,277.046,506.312,273.016"/>
	<g>
		<path style="fill:#A2A2A2;" d="M102.401,456.147c0,10.287-8.332,18.618-18.618,18.618s-18.618-8.332-18.618-18.618
			c0-10.287,8.332-18.618,18.618-18.618S102.401,445.86,102.401,456.147"/>
		<path style="fill:#A2A2A2;" d="M428.219,456.147c0,10.287-8.332,18.618-18.618,18.618s-18.618-8.332-18.618-18.618
			c0-10.287,8.332-18.618,18.618-18.618S428.219,445.86,428.219,456.147"/>
	</g>
	<path style="fill:#E0E0E0;" d="M425.419,184.035c-4.143-4.561-10.026-7.159-16.188-7.159h-48.789c-3.696,0-6.693,2.998-6.693,6.693
		v98.323c0,3.696,2.998,6.693,6.693,6.693h151.561v-0.856c0-5.436-2.029-10.687-5.688-14.708L425.419,184.035z"/>
	<path style="fill:#7C7B7A;" d="M244.056,102.401h-17.725c-6.749,0-12.223,5.474-12.223,12.214v248.441h37.236H307.2V121.02
		l-48.938-16.31C253.682,103.183,248.888,102.401,244.056,102.401"/>
	<path style="fill:#517D2C;" d="M428.219,176.874H307.201V121.02h121.018c15.425,0,27.927,12.502,27.927,27.927
		S443.644,176.874,428.219,176.874"/>
	<g>
		<path style="fill:#7C7B7A;" d="M102.401,335.129c-5.148,0-9.309-4.161-9.309-9.309v-65.164c0-5.148,4.161-9.309,9.309-9.309
			c5.148,0,9.309,4.161,9.309,9.309v65.164C111.71,330.967,107.549,335.129,102.401,335.129"/>
		<path style="fill:#7C7B7A;" d="M130.328,297.892H74.474c-5.148,0-9.309-4.161-9.309-9.309s4.161-9.309,9.309-9.309h55.855
			c5.148,0,9.309,4.161,9.309,9.309S135.476,297.892,130.328,297.892"/>
	</g>
	<path style="fill:#383838;" d="M262.983,260.656H214.11v-55.855h48.873c3.854,0,6.982,3.128,6.982,6.982v41.891
		C269.965,257.528,266.837,260.656,262.983,260.656"/>
	<path style="fill:#E0E0E0;" d="M139.637,363.056H65.165v-29.082c0-4.506,3.649-8.155,8.155-8.155h58.163
		c4.506,0,8.155,3.649,8.155,8.155V363.056z"/>
	<path style="fill:#7C7B7A;" d="M279.274,55.856h-37.236V0.001l37.236,18.618V55.856z"/>
	<path style="fill:#383838;" d="M244.056,102.401c4.831,0,9.626,0.782,14.206,2.309l30.32,10.1V55.856h-55.855v46.545H244.056z"/>
	<path style="fill:#517D2C;" d="M512.001,344.438h-55.855c-5.148,0-9.309,4.161-9.309,9.309s4.161,9.309,9.309,9.309h55.855V344.438
		z"/>
</g>
<g>
</g>
<g>
</g>
<g>
</g>
<g>
</g>
<g>
</g>
<g>
</g>
<g>
</g>
<g>
</g>
<g>
</g>
<g>
</g>
<g>
</g>
<g>
</g>
<g>
</g>
<g>
</g>
<g>
</g>
</svg>
