<?xml version="1.0" encoding="iso-8859-1"?>
<!-- Generator: Adobe Illustrator 19.0.0, SVG Export Plug-In . SVG Version: 6.00 Build 0)  -->
<svg version="1.1" id="Layer_1" xmlns="http://www.w3.org/2000/svg" xmlns:xlink="http://www.w3.org/1999/xlink" x="0px" y="0px"
	 viewBox="0 0 512.004 512.004" style="enable-background:new 0 0 512.004 512.004;" xml:space="preserve">
<g>
	<path style="fill:#439FDE;" d="M161.684,143.721l-98.807,89.825h278.456v-62.877l26.947-26.947H161.684z"/>
	<g>
		<path style="fill:#94CAEF;" d="M179.649,242.528c-4.967,0-8.982-4.015-8.982-8.982v-35.93c0-4.967,4.015-8.982,8.982-8.982
			s8.982,4.015,8.982,8.982v35.93C188.632,238.513,184.616,242.528,179.649,242.528"/>
		<path style="fill:#94CAEF;" d="M260.491,242.528c-4.967,0-8.982-4.015-8.982-8.982v-35.93c0-4.967,4.015-8.982,8.982-8.982
			c4.967,0,8.982,4.015,8.982,8.982v35.93C269.474,238.513,265.459,242.528,260.491,242.528"/>
	</g>
	<g>
		<path style="fill:#666666;" d="M503.018,278.458c-4.967,0-8.982-4.015-8.982-8.982v-71.86c0-4.967,4.015-8.982,8.982-8.982
			s8.982,4.015,8.982,8.982v71.86C512,274.443,507.985,278.458,503.018,278.458"/>
		<path style="fill:#666666;" d="M503.027,206.598c-0.719,0-1.455-0.09-2.183-0.269l-107.789-26.947
			c-4.815-1.204-7.743-6.081-6.539-10.887c1.195-4.824,6.063-7.77,10.887-6.539l107.789,26.947
			c4.815,1.204,7.752,6.081,6.539,10.887C510.707,203.877,507.051,206.598,503.027,206.598"/>
		<path style="fill:#666666;" d="M413.193,242.528c-4.967,0-8.982-4.015-8.982-8.982v-53.895c0-4.967,4.015-8.982,8.982-8.982
			s8.982,4.015,8.982,8.982v53.895C422.175,238.513,418.16,242.528,413.193,242.528"/>
		<path style="fill:#666666;" d="M458.105,242.528c-4.967,0-8.982-4.015-8.982-8.982v-44.912c0-4.967,4.015-8.982,8.982-8.982
			c4.967,0,8.982,4.015,8.982,8.982v44.912C467.088,238.513,463.073,242.528,458.105,242.528"/>
	</g>
	<path style="fill:#E6E6E6;" d="M476.07,233.546H0c0,0,14.596,134.737,116.772,134.737h296.637c0,0-7.509-62.877,62.662-62.877
		c19.761,0,35.93-16.168,35.93-35.93S495.832,233.546,476.07,233.546"/>
	<g>
		<path style="fill:#666666;" d="M314.386,269.476H7.878c1.716,5.686,3.791,11.74,6.27,17.965h300.239
			c4.967,0,8.982-4.015,8.982-8.982C323.368,273.491,319.353,269.476,314.386,269.476"/>
		<path style="fill:#666666;" d="M359.298,323.37c0-4.967-4.015-8.982-8.982-8.982H27.414c3.764,6.225,8.039,12.279,12.854,17.965
			h310.047C355.283,332.353,359.298,328.338,359.298,323.37"/>
	</g>
</g>
<g>
</g>
<g>
</g>
<g>
</g>
<g>
</g>
<g>
</g>
<g>
</g>
<g>
</g>
<g>
</g>
<g>
</g>
<g>
</g>
<g>
</g>
<g>
</g>
<g>
</g>
<g>
</g>
<g>
</g>
</svg>
