<?xml version="1.0" encoding="iso-8859-1"?>
<!-- Generator: Adobe Illustrator 19.0.0, SVG Export Plug-In . SVG Version: 6.00 Build 0)  -->
<svg version="1.1" id="Layer_1" xmlns="http://www.w3.org/2000/svg" xmlns:xlink="http://www.w3.org/1999/xlink" x="0px" y="0px"
	 viewBox="0 0 512 512" style="enable-background:new 0 0 512 512;" xml:space="preserve">
<g>
	<path style="fill:#666666;" d="M269.474,273.964c-4.967,0-8.982-4.015-8.982-8.982V67.368c0-4.967,4.015-8.982,8.982-8.982
		c4.967,0,8.982,4.015,8.982,8.982v197.614C278.456,269.949,274.441,273.964,269.474,273.964"/>
	<g>
		<path style="fill:#E6E6E6;" d="M345.641,92.457l-85.154-52.035v179.649l81.462-40.735
			C376.873,161.882,378.957,112.82,345.641,92.457"/>
		<path style="fill:#E6E6E6;" d="M386.246,336.842H98.807l89.825-71.86h164.487c18.297,0,33.127,14.83,33.127,33.127V336.842z"/>
	</g>
	<path style="fill:#666666;" d="M476.07,336.842H0c0,0,14.596,134.737,116.772,134.737h296.637c0,0-7.509-62.877,62.662-62.877
		c19.761,0,35.93-16.168,35.93-35.93S495.832,336.842,476.07,336.842"/>
	<g>
		<path style="fill:#E6E6E6;" d="M314.386,372.771H7.878c1.716,5.686,3.791,11.74,6.27,17.965h300.239
			c4.967,0,8.982-4.015,8.982-8.982S319.353,372.771,314.386,372.771"/>
		<path style="fill:#E6E6E6;" d="M350.316,417.684H27.414c3.764,6.225,8.039,12.279,12.854,17.965h310.047
			c4.967,0,8.982-4.015,8.982-8.982S355.283,417.684,350.316,417.684"/>
	</g>
	<g>
		<path style="fill:#666666;" d="M233.684,301.052c0,5.039-4.087,9.126-9.126,9.126c-5.03,0-9.117-4.087-9.117-9.126
			c0-5.039,4.087-9.126,9.117-9.126C229.597,291.926,233.684,296.013,233.684,301.052"/>
		<path style="fill:#666666;" d="M278.596,301.052c0,5.039-4.087,9.126-9.126,9.126c-5.03,0-9.117-4.087-9.117-9.126
			c0-5.039,4.087-9.126,9.117-9.126C274.509,291.926,278.596,296.013,278.596,301.052"/>
		<path style="fill:#666666;" d="M323.509,301.052c0,5.039-4.087,9.126-9.126,9.126c-5.03,0-9.117-4.087-9.117-9.126
			c0-5.039,4.087-9.126,9.117-9.126C319.422,291.926,323.509,296.013,323.509,301.052"/>
	</g>
</g>
<g>
</g>
<g>
</g>
<g>
</g>
<g>
</g>
<g>
</g>
<g>
</g>
<g>
</g>
<g>
</g>
<g>
</g>
<g>
</g>
<g>
</g>
<g>
</g>
<g>
</g>
<g>
</g>
<g>
</g>
</svg>
