<?xml version="1.0" encoding="iso-8859-1"?>
<!-- Generator: Adobe Illustrator 19.0.0, SVG Export Plug-In . SVG Version: 6.00 Build 0)  -->
<svg version="1.1" id="Layer_1" xmlns="http://www.w3.org/2000/svg" xmlns:xlink="http://www.w3.org/1999/xlink" x="0px" y="0px"
	 viewBox="0 0 512 512" style="enable-background:new 0 0 512 512;" xml:space="preserve">
<g>
	<path style="fill:#666666;" d="M476.07,323.37H0c0,0,14.596,134.737,116.772,134.737h296.637c0,0-7.509-62.877,62.662-62.877
		c19.761,0,35.93-16.168,35.93-35.93C512,339.539,495.832,323.37,476.07,323.37"/>
	<path style="fill:#E6E6E6;" d="M404.211,323.37H116.772v-44.912c0-16.743,13.572-26.947,30.316-26.947h226.807
		c16.743,0,30.316,10.204,30.316,26.947V323.37z"/>
	<g>
		<path style="fill:#EE705C;" d="M233.544,251.511h-53.895v-77.474c0-6.818,5.533-12.351,12.351-12.351h29.193
			c6.818,0,12.351,5.533,12.351,12.351V251.511z"/>
		<path style="fill:#EE705C;" d="M341.333,251.511h-53.895v-77.474c0-6.818,5.533-12.351,12.351-12.351h29.193
			c6.818,0,12.351,5.533,12.351,12.351V251.511z"/>
	</g>
	<g>
		<path style="fill:#E6E6E6;" d="M206.307,98.818c-1.554,0-3.126-0.404-4.563-1.249c-10.231-6.045-12.836-13.483-13.213-18.639
			c-0.395-5.614,1.419-14.165,12.423-23.04c3.871-3.126,9.53-2.515,12.638,1.347s2.506,9.521-1.356,12.629
			c-4.734,3.818-5.857,6.683-5.776,7.77c0.054,0.88,1.258,2.596,4.428,4.464c4.267,2.524,5.686,8.03,3.162,12.306
			C212.37,97.237,209.379,98.818,206.307,98.818"/>
		<path style="fill:#E6E6E6;" d="M206.605,125.756c-3.054,0-6.027-1.554-7.707-4.365c-2.56-4.258-1.168-9.773,3.081-12.315
			c3.431-2.066,4.707-3.907,4.761-4.868c0.054-1.024-1.114-3.683-5.794-7.168c-3.979-2.964-4.797-8.596-1.832-12.575
			c2.973-3.988,8.587-4.788,12.566-1.832c11.255,8.399,13.285,16.86,12.998,22.483c-0.269,5.318-2.829,12.989-13.465,19.357
			C209.767,125.343,208.177,125.756,206.605,125.756"/>
		<path style="fill:#E6E6E6;" d="M313.956,98.818c-1.554,0-3.126-0.404-4.563-1.249c-10.231-6.045-12.836-13.483-13.213-18.639
			c-0.395-5.614,1.419-14.165,12.423-23.04c3.871-3.126,9.53-2.515,12.638,1.347s2.506,9.521-1.356,12.629
			c-4.734,3.818-5.857,6.683-5.776,7.77c0.054,0.88,1.258,2.596,4.428,4.464c4.267,2.524,5.686,8.03,3.162,12.306
			C320.019,97.237,317.028,98.818,313.956,98.818"/>
		<path style="fill:#E6E6E6;" d="M314.255,125.756c-3.054,0-6.027-1.554-7.707-4.365c-2.56-4.258-1.168-9.773,3.081-12.315
			c3.431-2.066,4.707-3.907,4.761-4.868c0.054-1.024-1.114-3.683-5.794-7.168c-3.979-2.964-4.797-8.596-1.832-12.575
			c2.973-3.988,8.587-4.788,12.566-1.832c11.255,8.399,13.285,16.86,12.998,22.483c-0.269,5.318-2.829,12.989-13.465,19.357
			C317.417,125.343,315.827,125.756,314.255,125.756"/>
	</g>
	<g>
		<path style="fill:#666666;" d="M224.561,287.581c0,5.039-4.087,9.126-9.126,9.126c-5.03,0-9.117-4.087-9.117-9.126
			s4.087-9.126,9.117-9.126C220.474,278.455,224.561,282.542,224.561,287.581"/>
		<path style="fill:#666666;" d="M269.474,287.581c0,5.039-4.087,9.126-9.126,9.126c-5.03,0-9.117-4.087-9.117-9.126
			s4.087-9.126,9.117-9.126C265.387,278.455,269.474,282.542,269.474,287.581"/>
		<path style="fill:#666666;" d="M314.386,287.581c0,5.039-4.087,9.126-9.126,9.126c-5.03,0-9.117-4.087-9.117-9.126
			s4.087-9.126,9.117-9.126C310.299,278.455,314.386,282.542,314.386,287.581"/>
	</g>
	<g>
		<path style="fill:#E6E6E6;" d="M314.386,359.3H7.878c1.716,5.686,3.791,11.74,6.27,17.965h300.239
			c4.967,0,8.982-4.015,8.982-8.982C323.368,363.315,319.353,359.3,314.386,359.3"/>
		<path style="fill:#E6E6E6;" d="M350.316,404.213H27.414c3.764,6.225,8.039,12.279,12.854,17.965h310.047
			c4.967,0,8.982-4.015,8.982-8.982S355.283,404.213,350.316,404.213"/>
	</g>
</g>
<g>
</g>
<g>
</g>
<g>
</g>
<g>
</g>
<g>
</g>
<g>
</g>
<g>
</g>
<g>
</g>
<g>
</g>
<g>
</g>
<g>
</g>
<g>
</g>
<g>
</g>
<g>
</g>
<g>
</g>
</svg>
