<?xml version="1.0" encoding="iso-8859-1"?>
<!-- Generator: Adobe Illustrator 19.0.0, SVG Export Plug-In . SVG Version: 6.00 Build 0)  -->
<svg version="1.1" id="Layer_1" xmlns="http://www.w3.org/2000/svg" xmlns:xlink="http://www.w3.org/1999/xlink" x="0px" y="0px"
	 viewBox="0 0 512.005 512.005" style="enable-background:new 0 0 512.005 512.005;" xml:space="preserve">
<g transform="translate(0 -1)">
	<g>
		<path style="fill:#E6E6E6;" d="M256.003,141.805c-4.71,0-8.533-3.823-8.533-8.533V73.538c0-4.71,3.823-8.533,8.533-8.533
			c4.71,0,8.533,3.823,8.533,8.533v59.733C264.536,137.982,260.713,141.805,256.003,141.805"/>
		<path style="fill:#E6E6E6;" d="M93.869,466.072H76.803c0-42.342,34.458-76.8,76.8-76.8v17.067
			C120.664,406.339,93.869,433.133,93.869,466.072"/>
		<path style="fill:#E6E6E6;" d="M435.203,466.072h-17.067c0-32.939-26.795-59.733-59.733-59.733v-17.067
			C400.745,389.272,435.203,423.729,435.203,466.072"/>
	</g>
	<path style="fill:#86C250;" d="M354.258,406.339H157.744c-16.486,0-29.85-13.363-29.85-29.858v-21.342l16.469-109.824
		c5.248-34.97,35.285-60.843,70.656-60.843h81.971c35.362,0,65.408,25.873,70.647,60.843l16.478,109.824v21.342
		C384.116,392.975,370.744,406.339,354.258,406.339"/>
	<g>
		<path style="fill:#666666;" d="M110.936,500.205h-51.2v-21.333c0-7.066,5.734-12.8,12.8-12.8h25.6c7.066,0,12.8,5.734,12.8,12.8
			V500.205z"/>
		<path style="fill:#666666;" d="M401.069,500.205h51.2v-21.333c0-7.066-5.734-12.8-12.8-12.8h-25.6c-7.066,0-12.8,5.734-12.8,12.8
			V500.205z"/>
	</g>
	<g>
		<path style="fill:#628D3A;" d="M136.536,312.472h238.933v-17.067H136.536V312.472z"/>
		<path style="fill:#628D3A;" d="M247.469,303.939h17.067V184.472h-17.067V303.939z"/>
		<path style="fill:#628D3A;" d="M281.603,184.472h-51.2v-39.458c0-6.485,5.257-11.742,11.742-11.742h27.716
			c6.485,0,11.742,5.257,11.742,11.742V184.472z"/>
	</g>
	<g>
		<path style="fill:#666666;" d="M503.478,141.805c-0.666,0-1.34-0.077-2.014-0.239L6.531,22.1c-4.574-1.109-7.398-5.717-6.289-10.3
			c1.109-4.574,5.692-7.407,10.3-6.289l494.933,119.467c4.582,1.109,7.398,5.717,6.289,10.3
			C510.817,139.185,507.326,141.805,503.478,141.805"/>
		<path style="fill:#666666;" d="M8.527,141.805c-3.849,0-7.339-2.62-8.286-6.528c-1.109-4.582,1.707-9.19,6.289-10.3L501.464,5.511
			c4.591-1.118,9.19,1.715,10.3,6.289c1.109,4.582-1.715,9.19-6.289,10.3L10.541,141.566C9.867,141.728,9.193,141.805,8.527,141.805
			"/>
	</g>
	<g>
		<path style="fill:#628D3A;" d="M170.669,312.472c-2.185,0-4.369-0.836-6.033-2.5c-3.337-3.328-3.337-8.73,0-12.066l42.658-42.667
			c3.328-3.337,8.73-3.337,12.066,0c3.328,3.328,3.328,8.73,0,12.066l-42.658,42.667
			C175.038,311.636,172.854,312.472,170.669,312.472"/>
		<path style="fill:#628D3A;" d="M281.615,312.472c-2.185,0-4.369-0.836-6.033-2.5c-3.337-3.328-3.337-8.73,0-12.066l42.658-42.667
			c3.328-3.337,8.73-3.337,12.066,0c3.328,3.328,3.328,8.73,0,12.066l-42.658,42.667C285.985,311.636,283.8,312.472,281.615,312.472
			"/>
	</g>
	<path style="fill:#E6E6E6;" d="M503.469,508.738H8.536c-4.71,0-8.533-3.823-8.533-8.533s3.823-8.533,8.533-8.533h494.933
		c4.71,0,8.533,3.823,8.533,8.533S508.18,508.738,503.469,508.738"/>
</g>
<g>
</g>
<g>
</g>
<g>
</g>
<g>
</g>
<g>
</g>
<g>
</g>
<g>
</g>
<g>
</g>
<g>
</g>
<g>
</g>
<g>
</g>
<g>
</g>
<g>
</g>
<g>
</g>
<g>
</g>
</svg>
