<?xml version="1.0" encoding="iso-8859-1"?>
<!-- Generator: Adobe Illustrator 19.0.0, SVG Export Plug-In . SVG Version: 6.00 Build 0)  -->
<svg version="1.1" id="Layer_1" xmlns="http://www.w3.org/2000/svg" xmlns:xlink="http://www.w3.org/1999/xlink" x="0px" y="0px"
	 viewBox="0 0 512 512" style="enable-background:new 0 0 512 512;" xml:space="preserve">
<g>
	<path style="fill:#E6E6E6;" d="M379.209,203.034h-35.31L185.461,0.583C185.169,0.212,184.728,0,184.26,0h-41.366
		c-1.015,0-1.748,0.98-1.457,1.951l60.707,208.163c0.212,0.724-0.424,1.412-1.139,1.165c-10.752-3.672-71.936-20.568-103.654,8.792
		c-0.362,0.335-0.909,0.335-1.254-0.009l-60.646-60.646c-0.335-0.335-0.786-0.521-1.254-0.521H10.975
		c-1.227,0-2.083,1.218-1.66,2.375l34.225,94.12c0.141,0.397,0.141,0.821,0,1.218l-34.225,94.12
		c-0.424,1.156,0.433,2.375,1.66,2.375H34.2c0.468,0,0.918-0.185,1.254-0.521l60.646-60.646c0.486,0,0.768,0,1.254-0.009
		c32.097,29.917,92.902,12.465,103.654,8.792c0.715-0.247,1.351,0.441,1.139,1.165l-60.707,208.163
		c-0.291,0.971,0.441,1.951,1.457,1.951h41.366c0.468,0,0.909-0.212,1.201-0.583l158.438-202.452h35.31
		c68.255,0,123.586-23.711,123.586-52.966S447.463,203.034,379.209,203.034"/>
	<path style="fill:#419EDE;" d="M431.902,282.483c-2.286,0-4.582-0.892-6.303-2.648c-3.416-3.478-3.354-9.075,0.124-12.482
		c4.264-4.184,6.435-7.962,6.453-11.255c0.018-3.293-2.18-7.168-6.515-11.511c-3.452-3.452-3.452-9.031,0-12.482
		c3.452-3.452,9.031-3.452,12.482,0c7.91,7.901,11.732,15.784,11.688,24.082c-0.044,8.174-3.999,16.181-11.749,23.773
		C436.36,281.644,434.127,282.483,431.902,282.483"/>
	<g>
		<path style="fill:#999999;" d="M316.264,167.724h27.63c14.566,0,26.483-11.917,26.483-26.483s-11.917-26.483-26.483-26.483
			h-61.793c-2.277,0-4.449,0.38-6.559,0.927L316.264,167.724z"/>
		<path style="fill:#999999;" d="M247.179,79.448h26.103c14.566,0,26.483-11.917,26.483-26.483s-11.917-26.483-26.483-26.483
			h-61.793c-1.827,0-3.61,0.185-5.332,0.547L247.179,79.448z"/>
		<path style="fill:#999999;" d="M317.415,344.276h27.63c14.565,0,26.483,11.917,26.483,26.483
			c0,14.566-11.917,26.483-26.483,26.483h-61.793c-2.278,0-4.449-0.38-6.559-0.927L317.415,344.276z"/>
		<path style="fill:#999999;" d="M248.33,432.552h26.103c14.566,0,26.483,11.917,26.483,26.483s-11.917,26.483-26.483,26.483H212.64
			c-1.827,0-3.61-0.185-5.332-0.547L248.33,432.552z"/>
	</g>
</g>
<g>
</g>
<g>
</g>
<g>
</g>
<g>
</g>
<g>
</g>
<g>
</g>
<g>
</g>
<g>
</g>
<g>
</g>
<g>
</g>
<g>
</g>
<g>
</g>
<g>
</g>
<g>
</g>
<g>
</g>
</svg>
