<?xml version="1.0" encoding="iso-8859-1"?>
<!-- Generator: Adobe Illustrator 19.0.0, SVG Export Plug-In . SVG Version: 6.00 Build 0)  -->
<svg version="1.1" id="Layer_1" xmlns="http://www.w3.org/2000/svg" xmlns:xlink="http://www.w3.org/1999/xlink" x="0px" y="0px"
	 viewBox="0 0 512 512" style="enable-background:new 0 0 512 512;" xml:space="preserve">
<g>
	<g>
		<path style="fill:#E0E0E0;" d="M256,409.596c-4.719,0-8.533-3.814-8.533-8.533v-51.2c0-4.719,3.814-8.533,8.533-8.533
			c4.719,0,8.533,3.814,8.533,8.533v51.2C264.533,405.781,260.719,409.596,256,409.596"/>
		<path style="fill:#E0E0E0;" d="M340.533,315.729H171.471c-5.163,0-9.335-4.181-9.335-9.335V205.598
			c0-5.154,4.173-9.335,9.335-9.335h169.062c5.154,0,9.335,4.181,9.335,9.335v100.796
			C349.868,311.548,345.687,315.729,340.533,315.729"/>
	</g>
	<path style="fill:#878787;" d="M162.133,290.129l-68.267-59.733v-51.2l68.267,51.2V290.129z"/>
	<g>
		<path style="fill:#E0E0E0;" d="M76.8,298.662L76.8,298.662c-9.387,0-17.067-7.68-17.067-17.067V145.062
			c0-9.387,7.68-17.067,17.067-17.067s17.067,7.68,17.067,17.067v136.533C93.867,290.982,86.187,298.662,76.8,298.662"/>
		<path style="fill:#E0E0E0;" d="M82.933,85.329H70.671c-6.042,0-10.94-4.898-10.94-10.931V27.994
			c0-6.033,4.898-10.931,10.94-10.931h12.262c6.042,0,10.931,4.898,10.931,10.931v46.404C93.864,80.431,88.975,85.329,82.933,85.329
			"/>
	</g>
	<g>
		<path style="fill:#878787;" d="M145.067,59.729H8.533C3.814,59.729,0,55.915,0,51.196s3.814-8.533,8.533-8.533h136.533
			c4.719,0,8.533,3.814,8.533,8.533S149.786,59.729,145.067,59.729"/>
		<path style="fill:#878787;" d="M68.267,127.996h17.067V85.329H68.267V127.996z"/>
	</g>
	<path style="fill:#E0E0E0;" d="M108.277,486.396h-11.75c-6.187,0-11.196-5.009-11.196-11.187v-31.479h34.133v31.479
		C119.464,481.387,114.455,486.396,108.277,486.396"/>
	<g>
		<path style="fill:#878787;" d="M162.133,307.196v-17.067c-28.297,0-76.8,82.85-76.8,153.6h34.133c0-70.75,57.037-128,85.333-128
			h-34.133C165.513,315.729,162.133,312.35,162.133,307.196"/>
		<path style="fill:#878787;" d="M230.4,349.862h51.2v-34.133h-51.2V349.862z"/>
		<path style="fill:#878787;" d="M273.067,204.796c-4.719,0-8.533-3.814-8.533-8.533v-51.2c0-4.719,3.814-8.533,8.533-8.533
			s8.533,3.814,8.533,8.533v51.2C281.6,200.981,277.786,204.796,273.067,204.796"/>
		<path style="fill:#878787;" d="M238.933,204.796c-4.719,0-8.533-3.814-8.533-8.533v-34.133c0-4.719,3.814-8.533,8.533-8.533
			c4.719,0,8.533,3.814,8.533,8.533v34.133C247.467,200.981,243.652,204.796,238.933,204.796"/>
		<path style="fill:#878787;" d="M290.133,247.462h-68.267c-4.719,0-8.533-3.814-8.533-8.533c0-4.719,3.814-8.533,8.533-8.533
			h68.267c4.719,0,8.533,3.814,8.533,8.533C298.667,243.648,294.852,247.462,290.133,247.462"/>
		<path style="fill:#878787;" d="M315.733,281.596H196.267c-4.719,0-8.533-3.814-8.533-8.533s3.814-8.533,8.533-8.533h119.467
			c4.719,0,8.533,3.814,8.533,8.533S320.452,281.596,315.733,281.596"/>
		<path style="fill:#878787;" d="M349.867,290.129l68.267-59.733v-51.2l-68.267,51.2V290.129z"/>
	</g>
	<g>
		<path style="fill:#E0E0E0;" d="M435.2,298.662L435.2,298.662c9.387,0,17.067-7.68,17.067-17.067V145.062
			c0-9.387-7.68-17.067-17.067-17.067s-17.067,7.68-17.067,17.067v136.533C418.133,290.982,425.813,298.662,435.2,298.662"/>
		<path style="fill:#E0E0E0;" d="M429.066,85.329h12.262c6.042,0,10.94-4.898,10.94-10.931V27.994
			c0-6.033-4.898-10.931-10.94-10.931h-12.262c-6.042,0-10.931,4.898-10.931,10.931v46.404
			C418.135,80.431,423.025,85.329,429.066,85.329"/>
	</g>
	<g>
		<path style="fill:#878787;" d="M503.467,59.729H366.933c-4.719,0-8.533-3.814-8.533-8.533s3.814-8.533,8.533-8.533h136.533
			c4.719,0,8.533,3.814,8.533,8.533S508.186,59.729,503.467,59.729"/>
		<path style="fill:#878787;" d="M426.667,127.996h17.067V85.329h-17.067V127.996z"/>
	</g>
	<path style="fill:#E0E0E0;" d="M403.723,486.396h11.75c6.187,0,11.196-5.009,11.196-11.187v-31.479h-34.133v31.479
		C392.536,481.387,397.545,486.396,403.723,486.396"/>
	<g>
		<path style="fill:#878787;" d="M349.867,307.196v-17.067c28.297,0,76.8,82.85,76.8,153.6h-34.133c0-70.75-57.037-128-85.333-128
			h34.133C346.487,315.729,349.867,312.35,349.867,307.196"/>
		<path style="fill:#878787;" d="M256,392.529c-32.93,0-59.733,26.803-59.733,59.733c0,16.265,7.458,31.189,20.454,40.969
			c1.536,1.152,3.337,1.707,5.12,1.707c2.594,0,5.154-1.178,6.835-3.405c2.825-3.772,2.065-9.122-1.698-11.955
			c-8.67-6.511-13.645-16.469-13.645-27.315c0-23.526,19.14-42.667,42.667-42.667c23.526,0,42.667,19.14,42.667,42.667
			c0,10.846-4.975,20.804-13.645,27.315c-3.763,2.833-4.523,8.183-1.698,11.955c1.681,2.227,4.241,3.405,6.835,3.405
			c1.784,0,3.584-0.555,5.12-1.707c12.996-9.779,20.454-24.704,20.454-40.969C315.733,419.332,288.93,392.529,256,392.529"/>
	</g>
</g>
<g>
</g>
<g>
</g>
<g>
</g>
<g>
</g>
<g>
</g>
<g>
</g>
<g>
</g>
<g>
</g>
<g>
</g>
<g>
</g>
<g>
</g>
<g>
</g>
<g>
</g>
<g>
</g>
<g>
</g>
</svg>
