<?xml version="1.0" encoding="iso-8859-1"?>
<!-- Generator: Adobe Illustrator 19.0.0, SVG Export Plug-In . SVG Version: 6.00 Build 0)  -->
<svg version="1.1" id="Layer_1" xmlns="http://www.w3.org/2000/svg" xmlns:xlink="http://www.w3.org/1999/xlink" x="0px" y="0px"
	 viewBox="0 0 512 512" style="enable-background:new 0 0 512 512;" xml:space="preserve">
<g>
	<path style="fill:#E6E6E6;" d="M247.467,157.866c-4.71,0-8.533-3.814-8.533-8.533V12.8c0-4.719,3.823-8.533,8.533-8.533
		S256,8.081,256,12.8v136.533C256,154.052,252.177,157.866,247.467,157.866"/>
	<path style="fill:#EE705C;" d="M415.637,155.879c85.803,96.546,82.679,248.243-8.567,345.651
		c-3.763,4.019-9.114,6.204-14.609,6.204H119.547c-5.504,0-10.854-2.185-14.609-6.204c-91.247-97.408-94.379-249.105-8.576-345.651
		c3.763-4.233,9.267-6.545,14.933-6.545h289.417C406.369,149.334,411.873,151.646,415.637,155.879"/>
	<path style="fill:#A14B3D;" d="M324.267,507.733H187.733V201.6c0-5.299,4.301-9.6,9.6-9.6h117.333c5.299,0,9.6,4.301,9.6,9.6
		V507.733z"/>
	<g>
		<path style="fill:#EE705C;" d="M280.534,345.6h-49.067c-5.299,0-9.6-4.301-9.6-9.6V235.733c0-5.299,4.301-9.6,9.6-9.6h49.067
			c5.299,0,9.6,4.301,9.6,9.6V336C290.134,341.299,285.833,345.6,280.534,345.6"/>
		<path style="fill:#EE705C;" d="M247.467,405.333h-25.6c-4.71,0-8.533-3.814-8.533-8.533c0-4.719,3.823-8.533,8.533-8.533h25.6
			c4.71,0,8.533,3.814,8.533,8.533C256,401.519,252.177,405.333,247.467,405.333"/>
		<path style="fill:#EE705C;" d="M247.467,430.933c-4.71,0-8.533-3.814-8.533-8.533v-25.6c0-4.719,3.823-8.533,8.533-8.533
			S256,392.081,256,396.8v25.6C256,427.119,252.177,430.933,247.467,430.933"/>
	</g>
	<g>
		<path style="fill:#E6E6E6;" d="M375.999,345.6h100.702c3.635-40.61-2.202-81.698-17.545-119.467h-83.157
			c-5.009,0-9.062,4.062-9.062,9.062v101.342C366.937,341.538,370.99,345.6,375.999,345.6"/>
		<path style="fill:#E6E6E6;" d="M35.297,345.6h100.702c5.009,0,9.071-4.062,9.071-9.062V235.195c0-5.001-4.062-9.062-9.071-9.062
			H52.842C37.507,263.901,31.662,304.989,35.297,345.6"/>
		<path style="fill:#E6E6E6;" d="M162.133,64H8.533C3.823,64,0,60.185,0,55.466s3.823-8.533,8.533-8.533h153.6
			c4.71,0,8.533,3.814,8.533,8.533S166.844,64,162.133,64"/>
		<path style="fill:#E6E6E6;" d="M503.467,64H341.333c-4.71,0-8.533-3.814-8.533-8.533s3.823-8.533,8.533-8.533h162.133
			c4.71,0,8.533,3.814,8.533,8.533S508.177,64,503.467,64"/>
	</g>
	<g>
		<path style="fill:#999999;" d="M247.467,55.466c0,14.14-11.46,25.6-25.6,25.6c-14.14,0-25.6-11.46-25.6-25.6s11.46-25.6,25.6-25.6
			C236.006,29.866,247.467,41.327,247.467,55.466"/>
		<path style="fill:#999999;" d="M298.667,55.466c0,14.14-11.46,25.6-25.6,25.6s-25.6-11.46-25.6-25.6s11.46-25.6,25.6-25.6
			S298.667,41.327,298.667,55.466"/>
	</g>
</g>
<g>
</g>
<g>
</g>
<g>
</g>
<g>
</g>
<g>
</g>
<g>
</g>
<g>
</g>
<g>
</g>
<g>
</g>
<g>
</g>
<g>
</g>
<g>
</g>
<g>
</g>
<g>
</g>
<g>
</g>
</svg>
