<?xml version="1.0" encoding="iso-8859-1"?>
<!-- Generator: Adobe Illustrator 19.0.0, SVG Export Plug-In . SVG Version: 6.00 Build 0)  -->
<svg version="1.1" id="Layer_1" xmlns="http://www.w3.org/2000/svg" xmlns:xlink="http://www.w3.org/1999/xlink" x="0px" y="0px"
	 viewBox="0 0 512 512" style="enable-background:new 0 0 512 512;" xml:space="preserve">
<g>
	<g>
		<path style="fill:#E6E6E6;" d="M247.172,406.616h17.655V300.129h-17.655V406.616z"/>
		<path style="fill:#E6E6E6;" d="M290.767,409.664l-16.569-6.082l61.793-168.28l16.569,6.091L290.767,409.664z"/>
		<path style="fill:#E6E6E6;" d="M221.186,408.983l-61.793-176.552l16.666-5.826l61.793,176.552L221.186,408.983z"/>
	</g>
	<path style="fill:#9C7BAC;" d="M406.069,150.069c0,82.882-67.187,150.069-150.069,150.069s-150.069-67.187-150.069-150.069
		S173.118,0,256,0S406.069,67.187,406.069,150.069"/>
	<path style="fill:#6C5478;" d="M317.793,150.069c0,82.882-27.666,150.069-61.793,150.069s-61.793-67.187-61.793-150.069
		S221.873,0,256,0S317.793,67.187,317.793,150.069"/>
	<path style="fill:#D8AC4E;" d="M295.172,512h-78.345c-7.618,0-13.798-6.179-13.798-13.789v-56.832h105.931v56.832
		C308.961,505.821,302.791,512,295.172,512"/>
	<path style="fill:#FFCE5D;" d="M318.621,441.379H193.375c-4.414,0-7.998-3.584-7.998-7.998v-19.315
		c0-4.414,3.584-7.998,7.998-7.998h125.246c4.423,0,7.998,3.584,7.998,7.998v19.315
		C326.619,437.795,323.044,441.379,318.621,441.379"/>
</g>
<g>
</g>
<g>
</g>
<g>
</g>
<g>
</g>
<g>
</g>
<g>
</g>
<g>
</g>
<g>
</g>
<g>
</g>
<g>
</g>
<g>
</g>
<g>
</g>
<g>
</g>
<g>
</g>
<g>
</g>
</svg>
