<?xml version="1.0" encoding="iso-8859-1"?>
<!-- Generator: Adobe Illustrator 19.0.0, SVG Export Plug-In . SVG Version: 6.00 Build 0)  -->
<svg version="1.1" id="Layer_1" xmlns="http://www.w3.org/2000/svg" xmlns:xlink="http://www.w3.org/1999/xlink" x="0px" y="0px"
	 viewBox="0 0 512.003 512.003" style="enable-background:new 0 0 512.003 512.003;" xml:space="preserve">
<g transform="translate(0 -1)">
	<g>
		<path style="fill:#E6E6E6;" d="M256.002,193.006c-4.71,0-8.533-3.814-8.533-8.533v-68.267c0-4.719,3.823-8.533,8.533-8.533
			c4.71,0,8.533,3.814,8.533,8.533v68.267C264.535,189.191,260.712,193.006,256.002,193.006"/>
		<path style="fill:#E6E6E6;" d="M281.597,90.606c-3.644,0-7.023-2.355-8.149-6.025c-1.391-4.497,1.143-9.276,5.649-10.667
			L500.964,5.648c4.471-1.399,9.276,1.143,10.658,5.649c1.391,4.497-1.143,9.276-5.649,10.667L284.106,90.23
			C283.278,90.486,282.434,90.606,281.597,90.606"/>
		<path style="fill:#E6E6E6;" d="M8.531,175.939c-3.644,0-7.023-2.355-8.149-6.025c-1.391-4.497,1.143-9.276,5.649-10.667
			l221.867-68.267c4.463-1.408,9.267,1.143,10.658,5.649c1.391,4.497-1.143,9.276-5.649,10.667L11.039,175.564
			C10.212,175.82,9.367,175.939,8.531,175.939"/>
	</g>
	<path style="fill:#429FDE;" d="M415.638,191.018c85.803,96.546,82.679,214.11-8.567,311.518c-3.763,4.019-9.114,6.204-14.609,6.204
		H119.548c-5.504,0-10.854-2.185-14.609-6.204c-91.247-97.408-94.379-214.972-8.576-311.518c3.763-4.233,9.267-6.545,14.933-6.545
		h289.417C406.371,184.473,411.875,186.786,415.638,191.018"/>
	<g>
		<path style="fill:#E6E6E6;" d="M136.002,261.272H50.985c-16.64,38.946-20.864,79.479-12.706,119.467h97.724
			c5.009,0,9.062-4.062,9.062-9.062V270.335C145.065,265.334,141.012,261.272,136.002,261.272"/>
		<path style="fill:#E6E6E6;" d="M461.015,261.272h-85.018c-5.001,0-9.062,4.062-9.062,9.062v101.342
			c0,5.001,4.062,9.062,9.062,9.062h97.732C481.879,340.752,477.655,300.218,461.015,261.272"/>
	</g>
	<path style="fill:#999999;" d="M281.602,90.606c0,14.14-11.46,25.6-25.6,25.6c-14.14,0-25.6-11.46-25.6-25.6s11.46-25.6,25.6-25.6
		C270.141,65.006,281.602,76.466,281.602,90.606"/>
	<path style="fill:#E6E6E6;" d="M309.34,380.739H202.665c-8.243,0-14.933-6.682-14.933-14.925v-89.617
		c0-8.243,6.69-14.925,14.933-14.925H309.34c8.243,0,14.925,6.682,14.925,14.925v89.617
		C324.265,374.057,317.583,380.739,309.34,380.739"/>
	<g>
		<path style="fill:#2380B4;" d="M290.135,474.606h-68.267c-4.71,0-8.533-3.814-8.533-8.533c0-4.719,3.823-8.533,8.533-8.533h68.267
			c4.71,0,8.533,3.814,8.533,8.533C298.668,470.791,294.845,474.606,290.135,474.606"/>
		<path style="fill:#2380B4;" d="M307.202,431.939h-102.4c-4.71,0-8.533-3.814-8.533-8.533c0-4.719,3.823-8.533,8.533-8.533h102.4
			c4.71,0,8.533,3.814,8.533,8.533C315.735,428.125,311.912,431.939,307.202,431.939"/>
	</g>
</g>
<g>
</g>
<g>
</g>
<g>
</g>
<g>
</g>
<g>
</g>
<g>
</g>
<g>
</g>
<g>
</g>
<g>
</g>
<g>
</g>
<g>
</g>
<g>
</g>
<g>
</g>
<g>
</g>
<g>
</g>
</svg>
