<?xml version="1.0" encoding="utf-8"?>
<!-- Generator: Adobe Illustrator 16.0.0, SVG Export Plug-In . SVG Version: 6.00 Build 0)  -->
<!DOCTYPE svg PUBLIC "-//W3C//DTD SVG 1.1//EN" "http://www.w3.org/Graphics/SVG/1.1/DTD/svg11.dtd">
<svg version="1.1" id="Capa_1" xmlns="http://www.w3.org/2000/svg" xmlns:xlink="http://www.w3.org/1999/xlink" x="0px" y="0px"
	 width="512px" height="512px" viewBox="0 0 512 512" enable-background="new 0 0 512 512" xml:space="preserve">
<g>
	<g>
		<path fill="#FFFFFF" d="M20.702,200.656C9.675,204.89,1.851,214.806,0.29,226.509c-1.545,11.719,3.429,23.325,12.975,30.263
			l104.505,76.046L488.948,40.792L160.734,364.144l142.866,103.958c9.079,6.601,20.814,8.58,31.615,5.313
			c10.786-3.284,19.382-11.478,23.245-22.021L511.292,33.081c1.545-4.25,0.45-8.999-2.77-12.17
			c-3.203-3.171-7.952-4.169-12.201-2.543L20.702,200.656z"/>
		<path fill="#FFFFFF" d="M92.947,358.107l0.886,4.845l20.283,110.896c1.513,8.242,7.019,15.147,14.681,18.48
			c7.663,3.315,16.5,2.607,23.519-1.916c28.251-18.223,65.147-42.401,64.149-43.817L92.947,358.107z"/>
	</g>
</g>
</svg>
