<?xml version="1.0" encoding="utf-8"?>
<!-- Generator: Adobe Illustrator 16.0.0, SVG Export Plug-In . SVG Version: 6.00 Build 0)  -->
<!DOCTYPE svg PUBLIC "-//W3C//DTD SVG 1.1//EN" "http://www.w3.org/Graphics/SVG/1.1/DTD/svg11.dtd">
<svg version="1.1" id="Layer_1" xmlns="http://www.w3.org/2000/svg" xmlns:xlink="http://www.w3.org/1999/xlink" x="0px" y="0px"
	 width="512px" height="512px" viewBox="0 0 512 512" enable-background="new 0 0 512 512" xml:space="preserve">
<path fill="#FFFFFF" d="M427.182,10.388L266.775,171.013c-5.664,5.669-13.217,5.674-18.886,0.013L87.265,10.619
	C75.928-0.705,60.819-0.693,49.499,10.643L11.755,48.437C0.432,59.776,0.442,74.883,11.78,86.206l160.625,160.407
	c5.669,5.661,5.674,13.215,0.013,18.884L12.009,426.123c-11.322,11.337-11.312,26.446,0.027,37.768l37.794,37.745
	c11.338,11.322,26.444,11.312,37.767-0.026l160.408-160.625c5.662-5.668,13.216-5.674,18.886-0.012L427.514,501.38
	c11.34,11.323,26.446,11.313,37.77-0.024l37.743-37.796c11.32-11.337,11.313-26.443-0.026-37.767L342.375,265.386
	c-5.669-5.661-5.673-13.218-0.014-18.886L502.77,85.875c11.322-11.339,11.313-26.445-0.023-37.768L464.95,10.364
	C453.613-0.96,438.505-0.95,427.182,10.388z"/>
</svg>
