<?xml version="1.0"?>
<svg xmlns="http://www.w3.org/2000/svg" height="512px" viewBox="-64 0 448 448" width="512px"><path d="m16 448h288c8.835938 0 16-7.164062 16-16v-352c0-8.835938-7.164062-16-16-16h-48v16c0 8.835938-7.164062 16-16 16h-160c-8.835938 0-16-7.164062-16-16v-16h-48c-8.835938 0-16 7.164062-16 16v352c0 8.835938 7.164062 16 16 16zm48-288h192c8.835938 0 16 7.164062 16 16s-7.164062 16-16 16h-192c-8.835938 0-16-7.164062-16-16s7.164062-16 16-16zm0 96h192c8.835938 0 16 7.164062 16 16s-7.164062 16-16 16h-192c-8.835938 0-16-7.164062-16-16s7.164062-16 16-16zm0 96h192c8.835938 0 16 7.164062 16 16s-7.164062 16-16 16h-192c-8.835938 0-16-7.164062-16-16s7.164062-16 16-16zm0 0" fill="#6f6f6f"/><path d="m96 32v32h128v-32h-32c-8.835938 0-16-7.164062-16-16s-7.164062-16-16-16-16 7.164062-16 16-7.164062 16-16 16zm0 0" fill="#6f6f6f"/></svg>
