<?xml version="1.0" encoding="utf-8"?>
<!-- Generator: Adobe Illustrator 16.0.0, SVG Export Plug-In . SVG Version: 6.00 Build 0)  -->
<!DOCTYPE svg PUBLIC "-//W3C//DTD SVG 1.1//EN" "http://www.w3.org/Graphics/SVG/1.1/DTD/svg11.dtd">
<svg version="1.1" id="Capa_1" xmlns="http://www.w3.org/2000/svg" xmlns:xlink="http://www.w3.org/1999/xlink" x="0px" y="0px"
	 width="512px" height="512px" viewBox="0 0 512 512" enable-background="new 0 0 512 512" xml:space="preserve">
<g>
	<path fill="#6F6F6F" d="M256,0C114.841,0,0,114.841,0,256s114.841,256,256,256s256-114.841,256-256S397.159,0,256,0z M256,451.356
		C148.277,451.356,60.638,363.72,60.638,256c0-107.72,87.639-195.356,195.362-195.356c107.724,0,195.362,87.636,195.362,195.356
		C451.362,363.72,363.724,451.356,256,451.356z"/>
	<path fill="#6F6F6F" d="M387.617,244.749H277.574V111.74c0-13.371-10.877-24.248-24.247-24.248s-24.247,10.877-24.247,24.248
		v157.256c0,13.37,10.877,24.248,24.247,24.248h134.29c13.37,0,24.248-10.878,24.248-24.248
		C411.865,255.626,400.987,244.749,387.617,244.749z"/>
</g>
</svg>
