<?xml version="1.0" encoding="utf-8"?>
<!-- Generator: Adobe Illustrator 16.0.0, SVG Export Plug-In . SVG Version: 6.00 Build 0)  -->
<!DOCTYPE svg PUBLIC "-//W3C//DTD SVG 1.1//EN" "http://www.w3.org/Graphics/SVG/1.1/DTD/svg11.dtd">
<svg version="1.1" id="Capa_1" xmlns="http://www.w3.org/2000/svg" xmlns:xlink="http://www.w3.org/1999/xlink" x="0px" y="0px"
	 width="512px" height="512px" viewBox="0 0 512 512" enable-background="new 0 0 512 512" xml:space="preserve">
<path fill="#9CC602" d="M420.133,0H94.315C68.715,0,47.77,20.945,47.77,46.545v300.218c0,16.291,6.982,30.254,20.945,39.563
	L257.224,512l188.509-125.673c11.637-9.31,20.945-23.272,20.945-39.563V46.545C466.678,20.945,445.732,0,420.133,0z"/>
<path fill="#FFFFFF" d="M334.743,122.647H179.705c-2.518,0-4.561,2.038-4.561,4.56v155.039c0,2.521,2.043,4.561,4.561,4.561h155.038
	c2.519,0,4.561-2.039,4.561-4.561V127.207C339.304,124.685,337.262,122.647,334.743,122.647z"/>
</svg>
