<?xml version="1.0" encoding="utf-8"?>
<!-- Generator: Adobe Illustrator 16.0.0, SVG Export Plug-In . SVG Version: 6.00 Build 0)  -->
<!DOCTYPE svg PUBLIC "-//W3C//DTD SVG 1.1//EN" "http://www.w3.org/Graphics/SVG/1.1/DTD/svg11.dtd">
<svg version="1.1" id="Layer_1" xmlns="http://www.w3.org/2000/svg" xmlns:xlink="http://www.w3.org/1999/xlink" x="0px" y="0px"
	 width="500px" height="500px" viewBox="0 0 500 500" enable-background="new 0 0 500 500" xml:space="preserve">
<g>
	<g>
		<path fill="#6F6F6F" d="M275.121,393.164c-5.771-10.938-1.521-24.918,9.718-30.692c10.935-5.776,24.907-1.521,30.679,9.724v0.306
			c5.77,10.939,1.52,24.92-9.418,30.696c-11.24,5.774-24.909,1.52-30.984-9.726v-0.308H275.121z"/>
		<path fill="#6F6F6F" d="M273.034,327.438c-12.454,0.308-22.78-9.417-23.388-22.183v-0.303
			c-0.306-12.458,9.719-23.097,22.479-23.397c12.454-0.306,22.78,9.726,23.087,22.185v0.307
			C295.514,316.806,285.795,327.138,273.034,327.438z"/>
		<path fill="#6F6F6F" d="M251.517,123.416c12.761-0.606,23.087,9.418,23.693,21.878v0.306c0.306,12.766-9.72,23.097-22.173,23.398
			c-12.455,0.607-23.087-9.418-23.388-21.877v-0.307C229.343,134.355,239.062,123.722,251.517,123.416z"/>
		<path fill="#6F6F6F" d="M222.497,76.388c5.771,11.245,1.521,24.918-9.418,30.995c-11.239,5.776-24.908,1.521-30.984-9.418v-0.307
			c-6.076-11.245-1.821-24.918,9.418-30.995c10.933-5.776,24.907-1.521,30.677,9.418L222.497,76.388z"/>
		<path fill="#EF0606" d="M149.963,106.436c11.926,11.925,11.926,31.669,0,43.603s-31.655,11.927-43.582,0l-26.724-26.739
			l-27.132,26.739c-11.926,11.927-31.248,11.927-43.582,0c-11.926-11.925-11.926-31.67,0-43.603l27.132-26.74L8.944,52.548
			c-11.926-11.927-11.926-31.67,0-43.604c12.333-11.926,31.655-11.926,43.582,0l27.132,27.147l26.724-27.147
			c11.926-11.926,31.655-11.926,43.582,0c11.926,11.927,11.926,31.67,0,43.604l-26.725,27.147L149.963,106.436z"/>
		<path fill="#9CC602" d="M492.327,446.849c11.927,11.926,11.927,31.669,0,43.604c-11.926,11.934-31.654,11.926-43.581,0
			l-26.724-26.74l-27.133,26.74c-11.926,11.926-31.248,11.926-43.581,0c-11.926-11.926-11.926-31.67,0-43.604l27.132-26.74
			l-27.132-27.146c-11.926-11.928-11.926-31.67,0-43.604c12.333-11.926,31.655-11.926,43.581,0l27.133,27.147l26.724-27.147
			c11.927-11.926,31.655-11.926,43.581,0c11.927,11.927,11.927,31.67,0,43.604l-26.725,27.146L492.327,446.849z"/>
		<path fill="#6F6F6F" d="M261.517,201.739c12.761-0.607,23.087,9.418,23.693,21.877v0.307c0.306,12.765-9.72,23.097-22.173,23.398
			c-12.455,0.607-23.087-9.418-23.388-21.876v-0.307C239.343,212.678,249.062,202.045,261.517,201.739z"/>
	</g>
</g>
</svg>
