<?xml version="1.0" encoding="utf-8"?>
<!-- Generator: Adobe Illustrator 16.0.0, SVG Export Plug-In . SVG Version: 6.00 Build 0)  -->
<!DOCTYPE svg PUBLIC "-//W3C//DTD SVG 1.1//EN" "http://www.w3.org/Graphics/SVG/1.1/DTD/svg11.dtd">
<svg version="1.1" id="Capa_1" xmlns="http://www.w3.org/2000/svg" xmlns:xlink="http://www.w3.org/1999/xlink" x="0px" y="0px"
	 width="512px" height="512px" viewBox="0 0 512 512" enable-background="new 0 0 512 512" xml:space="preserve">
<path fill="#9CC602" d="M420.133,0H94.315C68.715,0,47.77,20.945,47.77,46.545v300.218c0,16.291,6.982,30.254,20.945,39.563
	L257.224,512l188.509-125.673c11.637-9.31,20.945-23.272,20.945-39.563V46.545C466.678,20.945,445.732,0,420.133,0z"/>
<path fill="#FFFFFF" d="M356.491,195.132l-157.37-108.53c-1.666-1.145-3.826-1.264-5.605-0.336
	c-1.785,0.939-2.903,2.783-2.903,4.802v217.061c0,2.018,1.118,3.868,2.903,4.809c0.792,0.412,1.66,0.618,2.523,0.618
	c1.08,0,2.155-0.326,3.083-0.961l157.37-108.53c1.471-1.015,2.344-2.681,2.344-4.466S357.956,196.147,356.491,195.132z"/>
</svg>
