<?xml version="1.0" encoding="utf-8"?>
<!-- Generator: Adobe Illustrator 16.0.0, SVG Export Plug-In . SVG Version: 6.00 Build 0)  -->
<!DOCTYPE svg PUBLIC "-//W3C//DTD SVG 1.1//EN" "http://www.w3.org/Graphics/SVG/1.1/DTD/svg11.dtd">
<svg version="1.1" id="Capa_1" xmlns="http://www.w3.org/2000/svg" xmlns:xlink="http://www.w3.org/1999/xlink" x="0px" y="0px"
	 width="512px" height="512px" viewBox="0 0 512 512" enable-background="new 0 0 512 512" xml:space="preserve">
<g>
	<g id="Focus">
		<g>
			<g>
				<path fill="#6F6F6F" d="M256,494.751c-11.964,0-21.697-9.733-21.697-21.697V339.481c0-11.964,9.733-21.697,21.697-21.697
					s21.697,9.733,21.697,21.697v133.572C277.697,485.018,267.964,494.751,256,494.751z M204.402,419.248
					c-59.364-18.806-104-68.177-116.49-128.848l-1.237-6.008h44.229l0.973,3.742c10.285,39.58,39.013,72.167,76.847,87.171
					l3.847,1.525l-0.78,4.064c-0.592,3.083-0.879,5.92-0.879,8.674v31.741L204.402,419.248z M301.09,389.569
					c0-2.742-0.288-5.581-0.881-8.676l-0.777-4.064l3.847-1.524c37.863-15.002,66.591-47.588,76.847-87.166l0.971-3.746h44.229
					l-1.236,6.008c-12.482,60.68-57.119,110.051-116.49,128.848l-6.509,2.061V389.569z M339.48,277.696
					c-11.964,0-21.697-9.733-21.697-21.697c0-11.963,9.733-21.696,21.697-21.696h133.573c11.963,0,21.696,9.733,21.696,21.696
					c0,11.964-9.733,21.697-21.696,21.697H339.48z M38.947,277.696c-11.964,0-21.697-9.733-21.697-21.697
					c0-11.963,9.733-21.696,21.697-21.696h133.57c11.964,0,21.697,9.733,21.697,21.696c0,11.964-9.733,21.697-21.696,21.697H38.947z
					 M381.128,227.606l-0.971-3.745c-10.177-39.241-38.569-71.733-75.949-86.918l-3.118-1.267V90.69l6.509,2.061
					c59.362,18.793,103.998,68.165,116.488,128.848l1.236,6.008H381.128z M86.675,227.606l1.237-6.008
					c12.489-60.671,57.125-110.043,116.488-128.847l6.51-2.062v45.025l-3.122,1.265c-37.375,15.15-65.766,47.629-75.945,86.882
					l-0.971,3.745H86.675z M256,194.216c-11.964,0-21.697-9.733-21.697-21.698V38.946c0-11.964,9.733-21.697,21.697-21.697
					s21.697,9.733,21.697,21.697v133.572C277.697,184.482,267.964,194.216,256,194.216z"/>
				<path fill="#FFFFFF" d="M256,22.249c9.217,0,16.697,7.479,16.697,16.697v133.572c0,9.217-7.48,16.698-16.697,16.698
					s-16.697-7.481-16.697-16.698V38.946C239.303,29.729,246.783,22.249,256,22.249 M306.09,97.518
					c57.169,18.099,100.879,65.715,113.1,125.089h-34.192c-10.652-41.074-40.105-74.533-78.907-90.295V97.518 M205.91,97.518v34.828
					c-38.801,15.728-68.255,49.187-78.907,90.261H92.81C105.032,163.233,148.775,115.616,205.91,97.518 M473.054,239.303
					c9.217,0,16.696,7.48,16.696,16.696c0,9.218-7.481,16.697-16.696,16.697H339.48c-9.218,0-16.697-7.48-16.697-16.697
					s7.481-16.696,16.697-16.696H473.054 M172.518,239.303c9.217,0,16.697,7.48,16.697,16.696c0,9.217-7.481,16.697-16.696,16.697
					H38.947c-9.218,0-16.697-7.48-16.697-16.697c0-9.216,7.479-16.696,16.697-16.696H172.518 M419.191,289.393
					c-12.221,59.405-55.933,106.989-113.102,125.089v-24.912c0-3.304-0.369-6.479-0.97-9.616
					c39.271-15.56,69.124-49.187,79.845-90.561H419.191 M127.038,289.393c10.751,41.374,40.606,75.001,79.843,90.561
					c-0.602,3.138-0.969,6.311-0.969,9.616v24.912c-57.135-18.1-100.88-65.717-113.102-125.089H127.038 M256,322.784
					c9.217,0,16.697,7.481,16.697,16.697v133.572c0,9.217-7.48,16.697-16.697,16.697s-16.697-7.481-16.697-16.697V339.481
					C239.303,330.264,246.783,322.784,256,322.784 M256,12.249c-14.721,0-26.697,11.977-26.697,26.697v133.572
					c0,14.721,11.977,26.698,26.697,26.698s26.697-11.977,26.697-26.698V38.946C282.697,24.226,270.721,12.249,256,12.249
					L256,12.249z M215.91,83.86l-13.02,4.124C141.803,107.335,95.869,158.146,83.015,220.59l-1.793,8.712H38.947
					c-14.721,0-26.697,11.976-26.697,26.696c0,14.721,11.977,26.697,26.697,26.697h42.274l1.794,8.713
					c12.854,62.441,58.788,113.253,119.876,132.605l13.02,4.124v-13.657v-24.912c0-2.434,0.258-4.963,0.79-7.731l1.56-8.129
					l-7.694-3.052c-36.357-14.417-63.965-45.737-73.851-83.779l-1.087-4.182h36.89c14.72,0,26.696-11.977,26.696-26.697
					c0-14.72-11.977-26.696-26.697-26.696h-36.92l1.085-4.186c9.784-37.729,37.068-68.945,72.984-83.503l6.243-2.531v-6.737V97.518
					V83.86L215.91,83.86z M296.09,83.863v13.655v34.794v6.731l6.236,2.533c35.923,14.593,63.209,45.823,72.991,83.541l1.086,4.186
					H339.48c-14.721,0-26.697,11.976-26.697,26.696c0,14.721,11.977,26.697,26.697,26.697h36.89l-1.086,4.188
					c-9.856,38.04-37.463,69.356-73.848,83.772l-7.694,3.049l1.557,8.128c0.532,2.782,0.791,5.313,0.791,7.736v24.912v13.655
					l13.019-4.122c61.096-19.343,107.03-70.154,119.878-132.607l1.792-8.711h42.275c14.721,0,26.696-11.977,26.696-26.697
					c0-14.72-11.976-26.696-26.696-26.696h-42.276l-1.793-8.712c-12.855-62.456-58.789-113.267-119.876-132.606L296.09,83.863
					L296.09,83.863z M256,312.784c-14.721,0-26.697,11.977-26.697,26.697v133.572c0,14.721,11.977,26.697,26.697,26.697
					s26.697-11.977,26.697-26.697V339.481C282.697,324.761,270.721,312.784,256,312.784L256,312.784z"/>
			</g>
		</g>
	</g>
</g>
</svg>
