<?xml version="1.0" encoding="utf-8"?>
<!-- Generator: Adobe Illustrator 16.0.0, SVG Export Plug-In . SVG Version: 6.00 Build 0)  -->
<!DOCTYPE svg PUBLIC "-//W3C//DTD SVG 1.1//EN" "http://www.w3.org/Graphics/SVG/1.1/DTD/svg11.dtd">
<svg version="1.1" id="Capa_1" xmlns="http://www.w3.org/2000/svg" xmlns:xlink="http://www.w3.org/1999/xlink" x="0px" y="0px"
	 width="512px" height="512px" viewBox="0 0 512 512" enable-background="new 0 0 512 512" xml:space="preserve">
<path fill="#ECECEC" d="M381.048,345.472l-66.314-33.154c-6.255-3.13-10.142-9.419-10.142-16.417v-23.47
	c1.59-1.944,3.263-4.157,4.991-6.602c8.601-12.147,15.493-25.67,20.506-40.254c9.795-4.492,16.153-14.175,16.153-25.108V172.7
	c0-6.685-2.499-13.162-6.941-18.222v-36.923c0.388-3.818,1.915-26.545-14.523-45.294C310.52,55.997,287.384,47.75,256,47.75
	c-31.383,0-54.52,8.247-68.778,24.504c-16.438,18.75-14.911,41.483-14.522,45.301v36.923c-4.443,5.06-6.941,11.537-6.941,18.222
	v27.767c0,8.448,3.838,16.327,10.392,21.582c6.358,25.177,19.666,44.149,24.316,50.237v22.97c0,6.72-3.666,12.884-9.559,16.104
	l-61.927,33.778c-20.138,10.989-32.64,32.05-32.64,54.985V422.6c0,32.945,104.437,41.65,159.658,41.65
	c55.221,0,159.658-8.705,159.658-41.65v-21.123C415.658,377.61,402.394,356.147,381.048,345.472z"/>
</svg>
